<?xml version="1.0" encoding="UTF-8" standalone="no"?>
<!-- Created with Inkscape (http://www.inkscape.org/) -->

<svg
   id="svg4793"
   sodipodi:docname="blender.svg"
   viewBox="0 0 332.59843 472.44093"
   version="1.1"
   inkscape:version="1.2.2 (732a01da63, 2022-12-09)"
   width="88mm"
   height="125mm"
   xmlns:inkscape="http://www.inkscape.org/namespaces/inkscape"
   xmlns:sodipodi="http://sodipodi.sourceforge.net/DTD/sodipodi-0.dtd"
   xmlns="http://www.w3.org/2000/svg"
   xmlns:svg="http://www.w3.org/2000/svg"
   xmlns:rdf="http://www.w3.org/1999/02/22-rdf-syntax-ns#"
   xmlns:cc="http://creativecommons.org/ns#"
   xmlns:dc="http://purl.org/dc/elements/1.1/">
  <defs
     id="defs4795">
    <filter
       id="filter5441"
       inkscape:collect="always"
       color-interpolation-filters="sRGB"
       x="-0.022711775"
       y="-0.025404599"
       width="1.0454235"
       height="1.0508092">
      <feGaussianBlur
         id="feGaussianBlur5443"
         stdDeviation="1.4750031"
         inkscape:collect="always" />
    </filter>
    <filter
       id="filter6119"
       height="1.2011472"
       width="1.3168974"
       color-interpolation-filters="sRGB"
       y="-0.096202852"
       x="-0.1495185"
       inkscape:collect="always">
      <feGaussianBlur
         id="feGaussianBlur6121"
         stdDeviation="1.3931695"
         inkscape:collect="always" />
    </filter>
    <filter
       id="filter6133"
       height="1.1480072"
       width="1.7212822"
       color-interpolation-filters="sRGB"
       y="-0.075043162"
       x="-0.35915866"
       inkscape:collect="always">
      <feGaussianBlur
         id="feGaussianBlur6135"
         stdDeviation="3.0158023"
         inkscape:collect="always" />
    </filter>
    <filter
       id="filter6153"
       height="1.4768144"
       width="1.2853231"
       color-interpolation-filters="sRGB"
       y="-0.23840722"
       x="-0.14266155"
       inkscape:collect="always">
      <feGaussianBlur
         id="feGaussianBlur6155"
         stdDeviation="1.1858"
         inkscape:collect="always" />
    </filter>
    <linearGradient
       id="linearGradient6260"
       y2="521.21002"
       gradientUnits="userSpaceOnUse"
       x2="392.35001"
       y1="522.23999"
       x1="312.76001"
       inkscape:collect="always"
       gradientTransform="matrix(1.153014,0,0,1.153014,5.564684,-15.397542)">
      <stop
         id="stop5321"
         style="stop-color:#151521"
         offset="0" />
      <stop
         id="stop5327"
         style="stop-color:#535361"
         offset=".49651" />
      <stop
         id="stop5323"
         style="stop-color:#151521"
         offset="1" />
    </linearGradient>
    <linearGradient
       id="linearGradient6262"
       y2="445.39999"
       gradientUnits="userSpaceOnUse"
       x2="465.45999"
       y1="421.67999"
       x1="323.01001"
       inkscape:collect="always"
       gradientTransform="matrix(1.153014,0,0,1.153014,5.564684,-15.397542)">
      <stop
         id="stop5374"
         style="stop-color:#141427"
         offset="0" />
      <stop
         id="stop5376"
         style="stop-color:#16142a;stop-opacity:0"
         offset="1" />
    </linearGradient>
    <linearGradient
       id="linearGradient6264"
       y2="445.39999"
       gradientUnits="userSpaceOnUse"
       x2="465.45999"
       gradientTransform="matrix(0.9659,0,0,0.9659,13.12,15.187)"
       y1="445.39999"
       x1="304.10001"
       inkscape:collect="always">
      <stop
         id="stop5423"
         style="stop-color:#b0b7b6"
         offset="0" />
      <stop
         id="stop5425"
         style="stop-color:#b9bdc1;stop-opacity:0"
         offset="1" />
    </linearGradient>
    <linearGradient
       id="linearGradient6266"
       y2="342.76999"
       gradientUnits="userSpaceOnUse"
       x2="394.98999"
       gradientTransform="matrix(1.1004827,0,0,1.2274987,25.073681,-15.264576)"
       y1="342.76999"
       x1="326.76001"
       inkscape:collect="always">
      <stop
         id="stop5770"
         style="stop-color:#151521"
         offset="0" />
      <stop
         id="stop5772"
         style="stop-color:#3d3d44"
         offset=".47139" />
      <stop
         id="stop5774"
         style="stop-color:#151521"
         offset="1" />
    </linearGradient>
    <radialGradient
       id="radialGradient6268"
       gradientUnits="userSpaceOnUse"
       cy="168.83"
       cx="378.70001"
       gradientTransform="matrix(0.91288732,0,0,0.17096528,106.33234,131.55632)"
       r="85.265999"
       inkscape:collect="always">
      <stop
         id="stop5808"
         style="stop-color:#000000"
         offset="0" />
      <stop
         id="stop5810"
         style="stop-color:#ffffff;stop-opacity:0"
         offset="1" />
    </radialGradient>
    <linearGradient
       id="linearGradient6270"
       y2="365.37"
       gradientUnits="userSpaceOnUse"
       x2="418.42999"
       y1="367.67999"
       x1="444.38"
       inkscape:collect="always">
      <stop
         id="stop6125"
         style="stop-color:#ffffff"
         offset="0" />
      <stop
         id="stop6127"
         style="stop-color:#ffffff;stop-opacity:0"
         offset="1" />
    </linearGradient>
  </defs>
  <sodipodi:namedview
     id="base"
     bordercolor="#666666"
     inkscape:pageshadow="2"
     inkscape:window-y="-3"
     pagecolor="#ffffff"
     inkscape:window-height="852"
     inkscape:window-maximized="1"
     inkscape:zoom="1.0785492"
     inkscape:window-x="-4"
     showgrid="false"
     borderopacity="1.0"
     inkscape:current-layer="g6191"
     inkscape:cx="-42.1863"
     inkscape:cy="253.58139"
     inkscape:window-width="1440"
     inkscape:pageopacity="0.0"
     inkscape:document-units="px"
     inkscape:showpageshadow="0"
     inkscape:pagecheckerboard="0"
     inkscape:deskcolor="#d1d1d1" />
  <g
     id="layer1"
     inkscape:label="Layer 1"
     inkscape:groupmode="layer"
     transform="translate(-303.48,-139.84)">
    <g
       id="g6191">
      <path
         id="path5755"
         sodipodi:nodetypes="ccccccc"
         style="fill:#eeeeee;stroke:#000000;stroke-width:1.15301px"
         d="M 404.1501,389.7024 383.10759,355.6539 360.62382,171.50603 c 60.29571,12.88032 121.36625,16.04188 183.98645,0 l -21.08402,185.57761 -27.51783,33.32902 c -35.52436,7.80613 -60.93564,11.35488 -91.85602,-0.71479 z" />
      <path
         id="rect6026"
         sodipodi:nodetypes="ccccc"
         style="color:#000000;fill:#000000;stroke-width:1.15301"
         d="m 360.76218,167.80485 183.74431,0.23742 -1.6661,14.24549 c -66.01466,15.75132 -129.47194,13.61018 -180.4121,-1.66195 l -1.66611,-12.82037 z" />
      <path
         id="path5731-6"
         sodipodi:nodetypes="ccccc"
         style="fill:#000000;stroke:#000000;stroke-width:1.15301px"
         d="m 536.49305,582.24421 -1.45199,13.79351 c -3.06518,2.99668 -6.13046,2.1348 -9.19575,0 l -3.3879,-7.25972 z" />
      <path
         id="path5731"
         sodipodi:nodetypes="ccccc"
         style="fill:#000000;stroke:#000000;stroke-width:1.15301px"
         d="m 364.4403,584.29658 1.45199,13.7935 c 3.06517,2.99669 6.13046,2.13481 9.19574,0 l 3.38791,-7.25972 z" />
      <path
         id="rect5316"
         sodipodi:nodetypes="ccccccc"
         style="color:#000000;fill:url(#linearGradient6260);stroke-width:1.15301"
         d="m 367.6918,538.78711 h 162.89782 c 6.76507,0 12.21157,5.49239 12.21157,12.31535 v 19.73614 c -11.95215,50.14688 -179.98549,46.1171 -187.33019,0 v -19.73614 c 0,-6.82239 5.44626,-12.31535 12.21157,-12.31535 z" />
      <path
         id="rect4803"
         sodipodi:nodetypes="ccccccc"
         style="color:#000000;fill:#373741;stroke-width:1.15301"
         d="m 403.73501,415.16095 c 29.51832,8.85699 59.55433,12.03055 90.97166,0 5.72194,0 11.35373,-1.911 19.84452,7.15653 28.94411,47.18364 27.69424,124.20267 27.69424,124.20267 -18.69958,46.66017 -171.45318,46.19205 -186.05034,0 0,0 7.47246,-102.39111 28.48637,-123.40709 5.95681,-6.12781 13.32999,-7.94957 19.05125,-7.94957 z" />
      <path
         id="rect4803-0"
         sodipodi:nodetypes="ccccccc"
         style="color:#000000;fill:url(#linearGradient6262);stroke-width:1.15301"
         d="m 403.73501,415.16095 c 29.51832,8.85699 59.55433,12.03055 90.97166,0 5.72194,0 11.35373,-1.911 19.84452,7.15653 28.94411,47.18364 27.69424,124.20267 27.69424,124.20267 -18.69958,46.66017 -171.45318,46.19205 -186.05034,0 0,0 7.47246,-102.39111 28.48637,-123.40709 5.95681,-6.12781 13.32999,-7.94957 19.05125,-7.94957 z" />
      <path
         id="rect4803-3"
         d="m 346.67,375.87 c 24.729,7.4197 49.89,10.078 76.209,0 4.7934,0 9.5113,-1.6009 16.624,5.9952 24.247,39.526 23.2,104.04 23.2,104.04 -15.665,39.088 -143.63,38.696 -155.86,0 0,0 6.2598,-85.775 23.864,-103.38 4.9902,-5.1334 11.166,-6.6595 15.96,-6.6595 z"
         sodipodi:nodetypes="ccccccc"
         style="color:#000000;opacity:0.245;fill:url(#linearGradient6264);filter:url(#filter5441)"
         transform="matrix(1.0410794,0,0,1.1494743,41.82121,-10.45042)" />
      <path
         id="path5445"
         d="m 341.47,388.33 c -1.9207,-0.329 -4.173,-0.99924 -5.8459,0 -1.453,0.86786 -2.3815,2.7782 -2.4072,4.4704 -0.0233,1.5377 1.0064,3.0094 2.0633,4.1265 1.2702,1.3427 2.9868,2.4744 4.8143,2.751 2.0898,0.31635 4.2123,-0.62945 6.1898,-1.3755 2.448,-0.92354 6.7314,-1.1704 6.8776,-3.7827 0.13329,-2.3815 -3.7269,-3.0315 -5.8459,-4.1265 -1.8358,-0.9487 -3.8091,-1.7144 -5.8459,-2.0633 z"
         sodipodi:nodetypes="ccccccccc"
         style="opacity:0.73;fill:#ffffff;filter:url(#filter6153)"
         transform="matrix(0.41011555,0,0,0.44032452,254.78866,262.16752)" />
      <rect
         id="rect5467"
         style="color:#000000;fill:#ff3f3f;stroke-width:1.15301"
         ry="7.9299693"
         height="28.150839"
         width="15.859708"
         y="510.06555"
         x="392.55078" />
      <rect
         id="rect5467-4"
         style="color:#000000;fill:#eaeaea;stroke-width:1.15301"
         ry="7.9299693"
         height="28.150839"
         width="15.859708"
         y="512.37158"
         x="415.61105" />
      <rect
         id="rect5467-4-8"
         style="color:#000000;fill:#eaeaea;stroke-width:1.15301"
         ry="7.9299693"
         height="28.150839"
         width="15.859708"
         y="514.67761"
         x="438.67136" />
      <rect
         id="rect5467-4-6"
         style="color:#000000;fill:#eaeaea;stroke-width:1.15301"
         ry="7.9299693"
         height="28.150839"
         width="15.859708"
         y="514.67761"
         x="461.73163" />
      <rect
         id="rect5467-4-6-7"
         style="color:#000000;fill:#eaeaea;stroke-width:1.15301"
         ry="7.9299693"
         height="28.150839"
         width="15.859708"
         y="512.37158"
         x="484.7919" />
      <g
         id="text5553"
         style="fill:#ffffff"
         transform="matrix(1.153014,0,0,1.153014,5.564684,-15.397542)">
        <path
           id="path3146"
           style="fill:#ffffff"
           d="m 361.88,487.14 -1.4648,0.83984 -0.12207,-0.8789 1.6846,-1.0352 h 0.83007 v 6.3965 h 1.5381 v 0.83007 h -4.0039 v -0.83007 h 1.5381 v -5.3223" />
      </g>
      <g
         id="text5553-3"
         style="fill:#ffffff"
         transform="matrix(1.153014,0,0,1.153014,5.564684,-15.397542)">
        <path
           id="path3143"
           style="fill:#ffffff"
           d="m 384.12,495.26 h -4.6875 v -0.83007 c 0.22136,-0.15951 0.45736,-0.34343 0.70801,-0.55176 0.25391,-0.21159 0.50456,-0.43783 0.75195,-0.67871 0.25065,-0.24089 0.48991,-0.49154 0.71778,-0.75196 0.23111,-0.26367 0.43457,-0.52734 0.61035,-0.79101 0.17578,-0.26367 0.31575,-0.52246 0.41992,-0.77637 0.10742,-0.25716 0.16113,-0.49804 0.16113,-0.72266 0,-0.22785 -0.0407,-0.42154 -0.12207,-0.58105 -0.0781,-0.16275 -0.18229,-0.29459 -0.3125,-0.39551 -0.13021,-0.10416 -0.27832,-0.17903 -0.44433,-0.22461 -0.16602,-0.0456 -0.33692,-0.0684 -0.5127,-0.0684 -0.14974,10e-6 -0.30436,0.0228 -0.46386,0.0684 -0.15951,0.0423 -0.31576,0.10418 -0.46875,0.18555 -0.14975,0.0814 -0.2946,0.17741 -0.43457,0.28809 -0.13672,0.11068 -0.25879,0.23112 -0.36622,0.36132 l -0.21972,-0.83007 c 0.0976,-0.13672 0.22461,-0.26204 0.38086,-0.37598 0.15625,-0.11718 0.32877,-0.21809 0.51758,-0.30274 0.19205,-0.0879 0.39225,-0.15461 0.60058,-0.20019 0.21159,-0.0488 0.41992,-0.0732 0.625,-0.0732 0.29297,0 0.57129,0.0488 0.83496,0.14648 0.26693,0.0944 0.5013,0.23113 0.70313,0.41016 0.20182,0.17579 0.36132,0.39063 0.47851,0.64453 0.12044,0.25066 0.18066,0.53386 0.18067,0.84961 -10e-6,0.27344 -0.0505,0.55176 -0.15137,0.83496 -0.0977,0.27995 -0.2295,0.55827 -0.39551,0.83496 -0.16602,0.27344 -0.35482,0.54037 -0.5664,0.80078 -0.2116,0.26042 -0.4297,0.50782 -0.6543,0.74219 -0.22461,0.23438 -0.44597,0.45247 -0.66406,0.6543 -0.2181,0.19856 -0.41667,0.37435 -0.59571,0.52734 h 1.2451 0.68359 c 0.21484,-0.003 0.41178,-0.007 0.59082,-0.01 0.18229,-0.007 0.34505,-0.0146 0.48829,-0.0244 0.14322,-0.01 0.26366,-0.0228 0.36132,-0.0391 v 0.8789" />
      </g>
      <g
         id="text5553-3-2"
         style="fill:#ffffff"
         transform="matrix(1.153014,0,0,1.153014,5.564684,-15.397542)">
        <path
           id="path3140"
           style="fill:#ffffff"
           d="m 401.97,495.4 c -0.4362,0 -0.83497,-0.0732 -1.1963,-0.21973 -0.36133,-0.14973 -0.67058,-0.34505 -0.92774,-0.58593 l 0.12207,-1.0498 c 0.13347,0.14974 0.27669,0.28646 0.42969,0.41016 0.15299,0.1237 0.31575,0.22949 0.48828,0.31738 0.17578,0.0879 0.36133,0.15625 0.55664,0.20508 0.19531,0.0456 0.40365,0.0684 0.625,0.0684 0.18555,0 0.37435,-0.0277 0.56641,-0.083 0.19205,-0.0553 0.36458,-0.13834 0.51758,-0.24902 0.15624,-0.11393 0.2832,-0.25391 0.38086,-0.41992 0.0977,-0.16927 0.14648,-0.36621 0.14648,-0.59082 0,-0.19857 -0.0521,-0.37923 -0.15625,-0.542 -0.10091,-0.16601 -0.24252,-0.30761 -0.4248,-0.4248 -0.1823,-0.12044 -0.39714,-0.21321 -0.64454,-0.27832 -0.24739,-0.0651 -0.51432,-0.0976 -0.80078,-0.0977 h -0.34179 v -0.83008 h 0.34179 c 0.24414,10e-6 0.47526,-0.0342 0.69336,-0.10254 0.2181,-0.0684 0.40853,-0.15787 0.57129,-0.26855 0.16601,-0.11067 0.29785,-0.23763 0.39551,-0.38086 0.0976,-0.14322 0.14648,-0.29134 0.14648,-0.44434 0,-0.16601 -0.0391,-0.30761 -0.11718,-0.4248 -0.0749,-0.12044 -0.17416,-0.21972 -0.29785,-0.29785 -0.12045,-0.0781 -0.25717,-0.13509 -0.41016,-0.1709 -0.14974,-0.0391 -0.29786,-0.0586 -0.44434,-0.0586 -0.1888,0 -0.36458,0.013 -0.52734,0.0391 -0.16276,0.026 -0.31739,0.0684 -0.46387,0.12695 -0.14648,0.0586 -0.28971,0.13673 -0.42969,0.23438 -0.13672,0.0977 -0.27343,0.21647 -0.41015,0.35644 l -0.1709,-0.83008 c 0.0976,-0.11067 0.21647,-0.21321 0.35645,-0.30761 0.13997,-0.0976 0.29296,-0.18066 0.45898,-0.24903 0.16927,-0.0716 0.34993,-0.12694 0.54199,-0.16601 0.19206,-0.0391 0.39062,-0.0586 0.5957,-0.0586 0.30274,1e-5 0.58919,0.0391 0.85938,0.11719 0.27343,0.0781 0.51269,0.19044 0.71777,0.33692 0.20508,0.14323 0.36784,0.31901 0.48828,0.52734 0.12044,0.20834 0.18066,0.44271 0.18067,0.70312 -10e-6,0.22462 -0.0488,0.43132 -0.14649,0.62012 -0.0977,0.18555 -0.22298,0.34994 -0.37597,0.49317 -0.14975,0.14323 -0.31739,0.26204 -0.50293,0.35644 -0.18555,0.0911 -0.36459,0.15463 -0.53711,0.19043 0.11393,0.0195 0.23762,0.0505 0.37109,0.0928 0.13672,0.0423 0.27181,0.0993 0.40528,0.1709 0.13345,0.0684 0.26204,0.153 0.38574,0.25391 0.12369,0.10091 0.23274,0.21973 0.32715,0.35644 0.0977,0.13673 0.17414,0.29298 0.22949,0.46875 0.0586,0.17253 0.0879,0.36784 0.0879,0.58594 -10e-6,0.28646 -0.0732,0.55827 -0.21973,0.81543 -0.14323,0.25391 -0.33692,0.47689 -0.58105,0.66895 -0.24415,0.1888 -0.52735,0.33854 -0.84961,0.44922 -0.32227,0.11067 -0.65918,0.16601 -1.0107,0.16601" />
      </g>
      <g
         id="text5553-3-2-0"
         style="fill:#ffffff"
         transform="matrix(1.153014,0,0,1.153014,5.564684,-15.397542)">
        <path
           id="path3137"
           style="fill:#ffffff"
           d="m 421.27,491.22 h 2.3535 v -3.3203 L 421.27,491.22 m 3.2812,0.75684 v 1.9287 h -0.92774 v -1.9287 h -3.1982 V 491.22 l 3.1982,-4.541 h 0.92774 v 4.541 h 0.92773 v 0.75684 h -0.92773" />
      </g>
      <g
         id="text5553-3-2-1"
         style="fill:#ffffff"
         transform="matrix(1.153014,0,0,1.153014,5.564684,-15.397542)">
        <path
           id="path3130"
           style="fill:#ffffff"
           d="m 338.07,487.66 c 0,0.22657 0.0274,0.42969 0.082,0.60938 0.0547,0.17969 0.1315,0.33203 0.23046,0.45703 0.10157,0.1224 0.22136,0.21615 0.35938,0.28125 0.13802,0.0651 0.29166,0.0977 0.46094,0.0977 0.15624,0 0.30338,-0.0326 0.4414,-0.0977 0.13802,-0.0651 0.25781,-0.15885 0.35938,-0.28125 0.10416,-0.125 0.18489,-0.27734 0.24219,-0.45703 0.0599,-0.17969 0.0898,-0.38281 0.0898,-0.60938 0,-0.22916 -0.0274,-0.43359 -0.082,-0.61328 -0.0547,-0.18229 -0.13282,-0.33593 -0.23438,-0.46094 -0.099,-0.1276 -0.21875,-0.22395 -0.35937,-0.28906 -0.13803,-0.0677 -0.29037,-0.10156 -0.45703,-0.10156 -0.15886,0 -0.3073,0.0339 -0.44532,0.10156 -0.13802,0.0651 -0.25781,0.16146 -0.35937,0.28906 -0.10156,0.12501 -0.18229,0.27865 -0.24219,0.46094 -0.0573,0.17969 -0.0859,0.38412 -0.0859,0.61328 m -0.72265,0 c 0,-0.33593 0.0508,-0.63281 0.15234,-0.89062 0.10156,-0.26042 0.23828,-0.47917 0.41016,-0.65625 0.17187,-0.17969 0.37239,-0.3151 0.60156,-0.40625 0.22917,-0.0911 0.47265,-0.13672 0.73047,-0.13672 0.26823,0 0.51302,0.0456 0.73437,0.13672 0.22396,0.0912 0.41537,0.22656 0.57422,0.40625 0.16146,0.17708 0.28646,0.39583 0.375,0.65625 0.0885,0.25781 0.13281,0.55469 0.13282,0.89062 -1e-5,0.33594 -0.0508,0.63282 -0.15235,0.89063 -0.10156,0.25781 -0.23828,0.47396 -0.41015,0.64844 -0.17188,0.17447 -0.3724,0.30729 -0.60157,0.39843 -0.22917,0.0885 -0.47266,0.13282 -0.73047,0.13282 -0.26823,0 -0.51432,-0.0443 -0.73828,-0.13282 -0.22135,-0.0911 -0.41276,-0.22396 -0.57422,-0.39843 -0.15885,-0.17448 -0.28255,-0.39063 -0.37109,-0.64844 -0.0885,-0.25781 -0.13281,-0.55469 -0.13281,-0.89063" />
        <path
           id="path3132"
           style="fill:#ffffff"
           d="m 341.58,485.75 h 0.78125 v -0.68359 c 0,-0.58594 0.11849,-1.0247 0.35547,-1.3164 0.23958,-0.29426 0.57031,-0.4414 0.99219,-0.44141 0.15364,10e-6 0.30468,0.0247 0.45312,0.0742 0.14844,0.0469 0.28385,0.11329 0.40625,0.19922 l -0.17969,0.58594 c -0.099,-0.0729 -0.20833,-0.1302 -0.32812,-0.17188 -0.1198,-0.0417 -0.23698,-0.0625 -0.35156,-0.0625 -0.10157,10e-6 -0.19141,0.0182 -0.26954,0.0547 -0.0781,0.0339 -0.14323,0.0899 -0.19531,0.16797 -0.0521,0.0781 -0.0924,0.17969 -0.12109,0.30469 -0.026,0.1224 -0.0391,0.27214 -0.0391,0.44922 V 485.75 h 1.0547 v 0.56641 h -1.0547 v 1.3906 c -10e-6,0.19011 0.001,0.37891 0.004,0.56641 0.005,0.1849 0.0117,0.36198 0.0195,0.53125 0.0104,0.16667 0.0234,0.32161 0.0391,0.46484 0.0156,0.14323 0.0339,0.26563 0.0547,0.36719 h -0.83984 v -3.3203 h -0.78125 v -0.56641" />
        <path
           id="path3134"
           style="fill:#ffffff"
           d="m 344.52,485.75 h 0.78125 v -0.68359 c 0,-0.58594 0.11849,-1.0247 0.35547,-1.3164 0.23958,-0.29426 0.57031,-0.4414 0.99219,-0.44141 0.15364,10e-6 0.30468,0.0247 0.45312,0.0742 0.14844,0.0469 0.28385,0.11329 0.40625,0.19922 l -0.17969,0.58594 c -0.099,-0.0729 -0.20833,-0.1302 -0.32812,-0.17188 -0.1198,-0.0417 -0.23698,-0.0625 -0.35156,-0.0625 -0.10157,10e-6 -0.19141,0.0182 -0.26954,0.0547 -0.0781,0.0339 -0.14323,0.0899 -0.19531,0.16797 -0.0521,0.0781 -0.0924,0.17969 -0.12109,0.30469 -0.026,0.1224 -0.0391,0.27214 -0.0391,0.44922 V 485.75 h 1.0547 v 0.56641 h -1.0547 v 1.3906 c -10e-6,0.19011 0.001,0.37891 0.004,0.56641 0.005,0.1849 0.0117,0.36198 0.0195,0.53125 0.0104,0.16667 0.0234,0.32161 0.0391,0.46484 0.0156,0.14323 0.0339,0.26563 0.0547,0.36719 h -0.83984 v -3.3203 h -0.78125 v -0.56641" />
      </g>
      <rect
         id="rect5467-6"
         style="color:#000000;fill:none;stroke:#000000;stroke-width:0.576507"
         ry="4.1407042"
         height="14.699775"
         width="8.2815228"
         y="516.79913"
         x="396.33267" />
      <rect
         id="rect5467-4-1"
         style="color:#000000;fill:#eaeaea;stroke:#424242;stroke-width:0.576507"
         ry="4.1407042"
         height="14.699775"
         width="8.2815228"
         y="519.10516"
         x="419.39294" />
      <rect
         id="rect5467-4-1-6"
         style="color:#000000;fill:#eaeaea;stroke:#424242;stroke-width:0.576507"
         ry="4.1407042"
         height="14.699775"
         width="8.2815228"
         y="521.41119"
         x="442.45322" />
      <rect
         id="rect5467-4-1-9"
         style="color:#000000;fill:#eaeaea;stroke:#424242;stroke-width:0.576507"
         ry="4.1407042"
         height="14.699775"
         width="8.2815228"
         y="521.41119"
         x="465.51352" />
      <rect
         id="rect5467-4-1-8"
         style="color:#000000;fill:#eaeaea;stroke:#424242;stroke-width:0.576507"
         ry="4.1407042"
         height="14.699775"
         width="8.2815228"
         y="519.10516"
         x="488.57379" />
      <ellipse
         id="path5782-3"
         style="color:#000000;fill:#0d0d0d;stroke:#424242;stroke-width:0.597063"
         cx="452.03912"
         cy="167.57495"
         rx="95.939346"
         ry="21.29146" />
      <path
         id="rect5757"
         sodipodi:nodetypes="ccccc"
         style="color:#000000;fill:url(#linearGradient6266);stroke-width:1.15301"
         d="m 397.31273,379.8326 c 36.81458,10.55804 69.89916,14.83929 106.71375,1.53224 2.15879,1.97004 10.79382,30.60791 11.18631,39.80089 -45.49909,19.37294 -89.31247,17.74604 -130.26752,-1.3134 -0.19625,-7.44236 9.22376,-37.83154 12.36377,-40.01996 z" />
      <path
         id="path5776"
         sodipodi:nodetypes="ccc"
         style="fill:none;stroke:#000000;stroke-width:1.15301px"
         d="m 419.66967,382.40382 -7.14869,-25.0204 -8.3017,-158.35495" />
      <path
         id="path5778"
         sodipodi:nodetypes="ccc"
         style="fill:none;stroke:#000000;stroke-width:1.15301px"
         d="m 477.65474,382.40382 13.58135,-25.0181 12.7362,-156.37176" />
      <path
         id="path5780"
         sodipodi:nodetypes="ccc"
         style="fill:none;stroke:#000000;stroke-width:1.15301px"
         d="m 448.74868,382.65749 1.42524,-26.70035 5.00362,-153.68524" />
      <ellipse
         id="path5782"
         style="color:#000000;fill:#1a1b1d;stroke:#424242;stroke-width:0.569506"
         cx="452.03912"
         cy="165.03021"
         rx="95.939346"
         ry="17.967478" />
      <ellipse
         id="path5782-9"
         style="color:#000000;fill:url(#radialGradient6268);stroke-width:0.924106"
         cx="452.04053"
         cy="160.41779"
         rx="77.838028"
         ry="14.577374" />
      <path
         id="rect5838"
         style="color:#000000;fill:#eae9e8;stroke-width:1.15301"
         d="m 423.25554,153.81879 h 57.02923 v 4.37604 h -57.02923 z m 56.91738,0.0882 c 0,3.55739 -12.75002,6.4412 -28.47714,6.4412 -15.72711,0 -28.47714,-2.88381 -28.47714,-6.4412 0,-3.55739 12.75003,-6.4412 28.47714,-6.4412 15.72712,0 28.47714,2.88381 28.47714,6.4412 z m 0,4.61206 c 0,3.55739 -12.75002,6.44119 -28.47714,6.44119 -15.72711,0 -28.47714,-2.8838 -28.47714,-6.44119 0,-3.5574 12.75003,-6.4412 28.47714,-6.4412 15.72712,0 28.47714,2.8838 28.47714,6.4412 z" />
      <path
         id="path5844"
         sodipodi:nodetypes="cc"
         style="fill:none;stroke:#000000;stroke-width:0.345904"
         d="m 423.82052,154.10705 c 9.58431,6.38032 42.45859,7.00963 55.61793,0.14115" />
      <ellipse
         id="path5848"
         style="color:#000000;fill:#a4a5a4;stroke:#424242;stroke-width:0.345907"
         cx="451.73599"
         cy="153.69417"
         rx="14.582361"
         ry="2.1096218" />
      <ellipse
         id="path5848-1"
         style="color:#000000;fill:#eae9e8;stroke:#424242;stroke-width:0.345905"
         cx="451.73636"
         cy="153.9393"
         rx="12.998063"
         ry="1.8645393" />
      <path
         id="path5872"
         style="fill:none;stroke:#000000;stroke-width:1.15301px"
         d="m 409.98435,213.77552 h 12.85034" />
      <path
         id="path5872-5"
         style="fill:none;stroke:#000000;stroke-width:1.15301px"
         d="m 412.63628,239.47621 h 12.85034" />
      <path
         id="path5872-9"
         style="fill:none;stroke:#000000;stroke-width:1.15301px"
         d="m 414.14673,263.66644 h 12.85034" />
      <path
         id="path5872-6"
         style="fill:none;stroke:#000000;stroke-width:1.15301px"
         d="M 415.84166,287.09568 H 428.692" />
      <path
         id="path5872-5-0"
         style="fill:none;stroke:#000000;stroke-width:1.15301px"
         d="m 418.49359,312.79637 h 12.85034" />
      <path
         id="path5872-9-8"
         style="fill:none;stroke:#000000;stroke-width:1.15301px"
         d="m 420.00404,336.9866 h 12.85034" />
      <path
         id="path5933"
         style="fill:none;stroke:#000000;stroke-width:1.15301px"
         d="m 414.37733,222.8728 h 4.81441" />
      <path
         id="path5933-4"
         style="fill:none;stroke:#000000;stroke-width:1.15301px"
         d="m 414.98843,230.99002 h 4.81441" />
      <path
         id="path5933-6"
         style="fill:none;stroke:#000000;stroke-width:1.15301px"
         d="m 416.47582,247.55883 h 4.81441" />
      <path
         id="path5933-4-5"
         style="fill:none;stroke:#000000;stroke-width:1.15301px"
         d="m 417.08692,255.67605 h 4.81441" />
      <path
         id="path5933-7"
         style="fill:none;stroke:#000000;stroke-width:1.15301px"
         d="m 418.40135,272.32557 h 4.81441" />
      <path
         id="path5933-4-7"
         style="fill:none;stroke:#000000;stroke-width:1.15301px"
         d="m 419.01245,280.44279 h 4.81441" />
      <path
         id="path5933-5"
         style="fill:none;stroke:#000000;stroke-width:1.15301px"
         d="m 420.18852,296.26215 h 4.81441" />
      <path
         id="path5933-4-0"
         style="fill:none;stroke:#000000;stroke-width:1.15301px"
         d="m 420.81115,304.36783 h 4.81441" />
      <path
         id="path5933-9"
         style="fill:none;stroke:#000000;stroke-width:1.15301px"
         d="m 422.25242,321.29408 h 4.81441" />
      <path
         id="path5933-4-57"
         style="fill:none;stroke:#000000;stroke-width:1.15301px"
         d="m 422.86352,329.4113 h 4.81441" />
      <path
         id="path5933-2"
         style="fill:none;stroke:#000000;stroke-width:1.15301px"
         d="m 424.17795,346.7411 h 4.81441" />
      <path
         id="path5933-4-1"
         style="fill:none;stroke:#000000;stroke-width:1.15301px"
         d="m 424.78905,354.85832 h 4.81441" />
      <path
         id="path6117"
         sodipodi:nodetypes="ccc"
         style="fill:none;stroke:url(#linearGradient6270);stroke-width:1px;filter:url(#filter6119)"
         d="m 430.5,347.1 c 0,0 7.8929,21.64 8.1607,28.836 -3.187,3.8272 -23.004,7.7007 -23.004,7.7007"
         transform="matrix(1.153014,0,0,1.153014,5.564684,-15.397542)" />
      <path
         id="path6131"
         sodipodi:nodetypes="cc"
         style="fill:none;stroke:#ffffff;stroke-width:1px;filter:url(#filter6133)"
         d="m 438.6,388.89 c 10.989,19.416 17.751,53.464 21.364,99.732"
         transform="matrix(1.153014,0,0,1.153014,5.564684,-15.397542)" />
      <path
         id="path6157"
         sodipodi:nodetypes="cc"
         style="fill:none;stroke:#000000;stroke-width:1.15301px"
         d="m 404.6113,199.67416 c -10.41967,-0.61088 -21.68358,-1.65158 -32.10336,-5.91381" />
      <path
         id="path6159"
         sodipodi:nodetypes="cc"
         style="fill:none;stroke:#000000;stroke-width:1.15301px"
         d="m 455.02108,202.48752 c 9.97242,0.51898 20.25499,0.41866 30.97687,-0.56323" />
      <path
         id="path6161"
         sodipodi:nodetypes="cc"
         style="fill:none;stroke:#000000;stroke-width:1.15301px"
         d="m 503.4592,201.36909 c 8.91775,-0.50005 17.83597,-0.55983 26.75338,-3.94261" />
      <path
         id="path6163"
         sodipodi:nodetypes="cccc"
         style="fill:none;stroke:#000000;stroke-width:1.15301px"
         d="m 524.75536,344.6772 c 0,0 21.51755,-12.96218 37.16972,-34.14535 8.44675,-9.55837 33.54233,-82.05194 24.18908,-102.04981 C 579.463,197.441 541.2573,202.25 541.2573,202.25" />
      <path
         id="path6163-7"
         sodipodi:nodetypes="cccc"
         style="fill:none;stroke:#000000;stroke-width:1.15301px"
         d="m 526.95762,323.68082 c 0,0 15.34777,-9.53739 26.51125,-25.12302 6.02473,-7.03281 23.92389,-60.37182 17.2537,-75.08543 -4.74396,-8.12379 -31.99498,-4.58542 -31.99498,-4.58542" />
      <path
         id="path6187"
         sodipodi:nodetypes="ccc"
         style="fill:none;stroke:#000000;stroke-width:1.15301px"
         d="m 544.03376,207.57231 c 0,0 33.18835,-2.64974 38.25009,4.7028 7.97159,23.05797 -14.90732,104.58413 -49.22333,120.07488" />
      <path
         id="path6189"
         style="color:#000000;opacity:0.73;fill:#eeeeee;stroke:#ffffff;stroke-width:0.345904;stroke-linecap:round;stroke-linejoin:round"
         d="m 526.35805,340.41105 c 0.31367,-1.07943 0.89415,-5.18983 1.29,-9.13417 0.60142,-5.99326 1.14857,-7.45263 3.33002,-8.8819 4.20158,-2.75305 14.41382,-12.29459 19.37524,-18.10348 5.61437,-6.57321 9.4734,-14.58908 14.45765,-30.03025 8.0817,-25.03769 10.50142,-47.39579 5.70315,-52.6985 -2.54851,-2.81612 -10.33885,-4.45098 -21.20969,-4.45098 h -8.65199 l 0.68931,-6.59489 c 0.37911,-3.62716 0.94516,-6.85075 1.25782,-7.16345 0.31271,-0.31272 6.92627,-0.59222 14.69632,-0.62112 15.8205,-0.0588 22.73628,1.36967 26.61387,5.49654 2.25967,2.4053 2.48105,3.61135 2.48105,13.51217 0,9.89701 -3.2342,32.58187 -4.4692,31.34699 -0.27812,-0.27813 0.31147,-5.39253 1.31017,-11.36526 2.26625,-13.55368 1.79144,-27.8107 -1.03005,-30.92845 -1.04662,-1.15647 -4.28414,-2.61342 -7.19458,-3.23755 -6.81258,-1.4611 -31.91197,-1.51287 -31.91197,-0.0658 0,0.65306 4.97134,1.06905 12.7754,1.06905 13.84193,0 22.67748,1.3767 24.7333,3.85395 2.21863,2.67326 2.45776,16.4685 0.48968,28.23846 -4.71617,28.20503 -16.50539,57.30134 -30.18475,74.49509 -5.16239,6.48916 -8.31323,9.41805 -16.61147,15.44116 -4.61967,3.35331 -0.92782,3.26937 4.05296,-0.0921 7.5949,-5.12572 6.87807,-3.13435 -1.31836,3.66232 -9.20958,7.63699 -11.46004,8.95489 -10.67449,6.2513 v 3e-5 z" />
    </g>
  </g>
  <metadata
     id="metadata1435">
    <rdf:RDF>
      <cc:Work>
        <dc:format>image/svg+xml</dc:format>
        <dc:type
           rdf:resource="http://purl.org/dc/dcmitype/StillImage" />
        <cc:license
           rdf:resource="http://creativecommons.org/publicdomain/zero/1.0/" />
        <dc:publisher>
          <cc:Agent
             rdf:about="http://openclipart.org/">
            <dc:title>Openclipart</dc:title>
          </cc:Agent>
        </dc:publisher>
        <dc:title>Blender</dc:title>
        <dc:date>2010-05-19T14:47:03</dc:date>
        <dc:description>An old-style blender. Drawn in Inkscape.</dc:description>
        <dc:source>https://openclipart.org/detail/61189/blender-by-j_alves</dc:source>
        <dc:creator>
          <cc:Agent>
            <dc:title>J_Alves</dc:title>
          </cc:Agent>
        </dc:creator>
        <dc:subject>
          <rdf:Bag>
            <rdf:li>appliance</rdf:li>
            <rdf:li>blender</rdf:li>
            <rdf:li>cook</rdf:li>
            <rdf:li>cooking</rdf:li>
            <rdf:li>kitchen</rdf:li>
          </rdf:Bag>
        </dc:subject>
      </cc:Work>
      <cc:License
         rdf:about="http://creativecommons.org/publicdomain/zero/1.0/">
        <cc:permits
           rdf:resource="http://creativecommons.org/ns#Reproduction" />
        <cc:permits
           rdf:resource="http://creativecommons.org/ns#Distribution" />
        <cc:permits
           rdf:resource="http://creativecommons.org/ns#DerivativeWorks" />
      </cc:License>
    </rdf:RDF>
  </metadata>
</svg>
