<?xml version="1.0" encoding="UTF-8" standalone="no"?>
<svg
   version="1.1"
   x="0"
   y="0"
   width="125mm"
   height="88mm"
   viewBox="0 0 472.44095 332.59843"
   id="svg257"
   sodipodi:docname="boar.svg"
   inkscape:version="1.2.2 (732a01da63, 2022-12-09)"
   xmlns:inkscape="http://www.inkscape.org/namespaces/inkscape"
   xmlns:sodipodi="http://sodipodi.sourceforge.net/DTD/sodipodi-0.dtd"
   xmlns="http://www.w3.org/2000/svg"
   xmlns:svg="http://www.w3.org/2000/svg">
  <defs
     id="defs261" />
  <sodipodi:namedview
     id="namedview259"
     pagecolor="#505050"
     bordercolor="#eeeeee"
     borderopacity="1"
     inkscape:showpageshadow="0"
     inkscape:pageopacity="0"
     inkscape:pagecheckerboard="0"
     inkscape:deskcolor="#505050"
     showgrid="false"
     inkscape:zoom="1.1681159"
     inkscape:cx="370.68238"
     inkscape:cy="153.66625"
     inkscape:current-layer="svg257"
     inkscape:document-units="mm" />
  <g
     id="Layer_1"
     transform="matrix(0.88268777,0,0,0.88268777,0.5847116,16.536938)">
    <path
       d="m 485.728,64.913 c 0.877,-1.738 12.285,0.168 13.703,0.427 10.201,1.882 15.23,6.546 18.856,15.839 1.983,5.095 3.309,12.978 9.506,14.453 -0.938,-0.22 -4.693,2.002 -5.891,2.246 -2.643,0.547 -5.425,0.451 -8.089,0.163 C 509.69,97.591 505.79,96.36 502.003,94.66 490.987,89.712 479.21,77.907 485.728,64.913"
       fill="#bd9162"
       id="path194" />
    <path
       d="m 517.698,99.397 c -1.212,0 -2.52,-0.077 -4.004,-0.234 -3.923,-0.432 -7.898,-1.568 -12.151,-3.479 -6.681,-2.997 -14.852,-9.109 -17.755,-17.26 -1.675,-4.717 -1.364,-9.435 0.935,-14.013 0.483,-0.959 1.695,-1.346 4.195,-1.346 4.196,0 10.652,1.154 10.714,1.169 10.278,1.896 15.8,6.532 19.703,16.537 0.374,0.953 0.723,2.006 1.083,3.099 1.494,4.502 3.19,9.607 7.634,10.666 0.609,0.143 0.982,0.752 0.838,1.355 -0.148,0.604 -0.756,0.968 -1.355,0.839 -0.326,0.028 -1.854,0.746 -2.764,1.177 -1.087,0.508 -2.021,0.949 -2.644,1.073 -1.36,0.283 -2.806,0.417 -4.429,0.417 z m -28.78,-34.082 c -1.878,0 -2.299,0.259 -2.318,0.274 -1.877,3.841 -2.155,7.965 -0.69,12.083 2.664,7.481 10.298,13.152 16.552,15.964 4.037,1.809 7.788,2.883 11.476,3.285 3.218,0.353 5.603,0.297 7.734,-0.144 0.365,-0.077 1.351,-0.537 2.142,-0.911 0.297,-0.139 0.575,-0.267 0.838,-0.386 -3.535,-2.357 -5.077,-7.012 -6.37,-10.902 -0.35,-1.053 -0.685,-2.068 -1.044,-2.993 -3.621,-9.281 -8.501,-13.387 -18.013,-15.139 -1.604,-0.293 -6.954,-1.131 -10.307,-1.131"
       fill="#1a1919"
       id="path196" />
    <path
       d="m 200.991,221.138 c -0.379,15.786 10.426,34.406 14.162,47.286 2.595,8.946 4.789,18.209 6.685,27.132 2.577,12.137 -3.663,23.707 -2.624,36.256 8.778,1.464 23.084,-6.52 30.575,-10.835 10.963,-6.308 11.859,-13.372 10.082,-25.404 -1.958,-13.27 -7.945,-27.457 -11.94,-40.306 -4.962,-15.953 -9.632,-37.131 -20.733,-49.901 -6.279,-7.22 -16.902,-5.224 -21.949,1.955 -2.913,4.147 -4.143,8.841 -4.258,13.817"
       fill="#bd9162"
       id="path198" />
    <path
       d="m 221.485,333.113 v 0 c -0.863,0 -1.692,-0.067 -2.457,-0.191 -0.508,-0.086 -0.891,-0.503 -0.935,-1.02 -0.488,-5.868 0.575,-11.518 1.605,-16.983 1.231,-6.552 2.394,-12.74 1.04,-19.129 -2.18,-10.264 -4.364,-19.11 -6.668,-27.055 -1.178,-4.066 -3.098,-8.775 -5.129,-13.754 -4.378,-10.739 -9.339,-22.909 -9.076,-33.873 0.129,-5.541 1.629,-10.402 4.464,-14.433 3.017,-4.291 8.027,-6.959 13.085,-6.959 4.104,0 7.878,1.748 10.632,4.913 9.382,10.786 14.191,27.27 18.429,41.815 0.857,2.936 1.69,5.786 2.529,8.489 1.164,3.735 2.466,7.508 3.851,11.508 3.304,9.57 6.729,19.468 8.127,28.97 1.844,12.486 0.709,20.016 -10.632,26.544 -9.019,5.196 -20.451,11.158 -28.865,11.158 z m -1.213,-2.304 c 8.952,0.873 23.052,-7.408 28.957,-10.809 10.34,-5.948 11.298,-12.294 9.53,-24.263 -1.374,-9.292 -4.76,-19.086 -8.036,-28.564 -1.384,-4.014 -2.696,-7.801 -3.865,-11.57 -0.848,-2.715 -1.681,-5.58 -2.543,-8.532 -4.176,-14.318 -8.913,-30.549 -17.965,-40.967 -2.974,-3.419 -6.503,-4.138 -8.936,-4.138 -4.335,0 -8.641,2.299 -11.246,6.002 -2.606,3.717 -3.932,8.031 -4.052,13.194 -0.254,10.497 4.617,22.437 8.913,32.97 2.05,5.039 3.99,9.794 5.206,13.98 2.318,7.994 4.512,16.891 6.706,27.209 1.45,6.829 0.186,13.535 -1.031,20.015 -0.948,5.029 -1.925,10.22 -1.638,15.473"
       fill="#1a1919"
       id="path200" />
    <path
       d="m 372.286,210.181 c -5.617,14.755 -1.631,35.91 -2.398,49.301 -0.537,9.301 -1.552,18.765 -2.735,27.806 -1.614,12.305 -11.356,21.133 -14.555,33.311 7.788,4.305 23.938,1.546 32.438,-0.029 12.438,-2.294 15.638,-8.654 17.97,-20.59 2.572,-13.166 1.653,-28.54 2.17,-41.983 0.637,-16.695 3.29,-38.219 -2.927,-53.957 -3.51,-8.903 -14.191,-10.56 -21.345,-5.469 -4.124,2.94 -6.85,6.953 -8.618,11.61"
       fill="#bd9162"
       id="path202" />
    <path
       d="m 364.811,324.028 c 0,0 0,0 -0.005,0 -5.527,0 -9.817,-0.824 -12.754,-2.443 -0.45,-0.248 -0.675,-0.775 -0.541,-1.273 1.494,-5.695 4.383,-10.672 7.17,-15.479 3.348,-5.767 6.509,-11.213 7.356,-17.693 1.356,-10.374 2.251,-19.444 2.726,-27.725 0.244,-4.23 0.004,-9.302 -0.255,-14.67 -0.55,-11.586 -1.173,-24.719 2.726,-34.967 1.968,-5.183 5.005,-9.263 9.018,-12.123 2.773,-1.978 6.168,-3.064 9.55,-3.064 6.126,0 11.298,3.463 13.497,9.037 5.249,13.295 4.291,30.441 3.448,45.566 -0.172,3.055 -0.34,6.02 -0.446,8.846 -0.153,3.918 -0.177,7.917 -0.211,12.156 -0.066,10.121 -0.138,20.584 -1.978,30 -2.423,12.385 -6.005,19.111 -18.869,21.481 -6.275,1.164 -13.607,2.351 -20.432,2.351 z m -10.881,-4.017 c 2.576,1.174 6.231,1.766 10.876,1.766 0.005,0 0.005,0 0.005,0 6.642,0 13.846,-1.169 20.019,-2.313 11.735,-2.166 14.752,-7.827 17.07,-19.699 1.801,-9.21 1.873,-19.569 1.94,-29.583 0.033,-4.259 0.057,-8.277 0.21,-12.228 0.11,-2.841 0.278,-5.819 0.445,-8.885 0.834,-14.894 1.778,-31.777 -3.294,-44.617 -1.878,-4.766 -6.14,-7.611 -11.399,-7.611 -2.916,0 -5.848,0.939 -8.247,2.643 -3.693,2.64 -6.384,6.265 -8.214,11.093 -3.735,9.815 -3.123,22.692 -2.582,34.057 0.259,5.431 0.503,10.566 0.254,14.91 -0.483,8.338 -1.379,17.461 -2.744,27.889 -0.91,6.925 -4.33,12.826 -7.64,18.531 -2.566,4.424 -5.219,8.993 -6.699,14.047"
       fill="#1a1919"
       id="path204" />
    <path
       d="m 159.28,227.307 c -8.702,-15.24 -29.201,-26.964 -41.658,-35.226 -7.577,-5.026 -15.594,-10.436 -23.99,-13.928 C 82.813,173.656 71.333,171.328 60.7,166.515 50.872,162.071 38.401,160.581 29.411,155.423 21.643,150.969 16.284,138.526 14.013,130.485 12.083,123.65 9.875,115.7 9.583,108.708 c -0.335,-7.985 5.958,-6.471 12.381,-7.888 16.15,-3.564 30.355,-11.361 44.244,-20.461 31.064,-20.346 56.289,-51.586 91.041,-66.022 41.026,-17.039 90.911,-4.631 132.992,1.418 26.887,3.865 54.091,7.06 80.925,11.658 17.606,3.018 34.738,8.157 52.161,12.006 16.879,3.733 43.555,-1.408 58.12,8.674 5.958,4.123 8.17,15.135 10.225,21.461 7.174,22.08 9.445,40.441 4.133,63.206 -4.506,19.31 -14.502,36.638 -20.249,55.522 -3.65,11.988 -4.775,24.541 -4.507,37.028 0.254,11.982 3.515,24.339 2.467,36.288 -0.863,9.824 -5.791,19.853 -8.392,29.426 -2.241,8.266 -5.608,15.907 -8.64,23.866 -2.298,6.025 -3.069,12.912 -5.713,18.707 -1.227,2.692 -0.13,2.587 -2.783,3.975 -3.046,1.6 -9.621,0.576 -13.099,0.57 -7.112,-0.004 -14.205,0.355 -20.992,-1.704 -15.302,-4.632 5.388,-21.513 10.245,-28.388 11.657,-16.484 9.066,-39.977 2.969,-57.922 -4.075,-11.988 -15.096,-20.815 -21.327,-31.801 -2.563,-4.521 -5.086,-9.248 -7.773,-13.654 -3.53,-5.801 -4.775,-6.959 -11.882,-4.541 -10.345,3.52 -20.331,9.109 -30.111,13.765 -12.194,5.809 -25.676,10.679 -38.655,14.53 -22.142,6.557 -43.354,8.851 -66.434,8.07 -13.372,-0.449 -25.609,-3.774 -37.352,-9.037 -2.634,10.914 -4.751,21.289 -9.21,31.754 -5.312,12.467 -14.009,22.797 -22.151,33.486 -7.112,9.34 -10.661,17.18 -14.051,28.406 -2.463,8.153 -2.741,8.424 -11.443,10.346 -7.036,1.557 -14.507,3.291 -21.748,2.729 -5.719,-0.445 -11.543,-1.518 -16.356,-4.416 -6.485,-3.913 -5.604,-6.819 -1.7,-13.074 7.4,-11.858 15.742,-22.784 23.406,-34.077 7.246,-10.671 18.027,-20.422 21.873,-33.051 2.466,-8.109 0.924,-15.523 -2.917,-22.256"
       fill="#bd9162"
       id="path206" />
    <path
       d="m 442.514,339.593 c -1.514,0 -3.089,-0.096 -4.526,-0.187 -1.159,-0.072 -2.232,-0.139 -3.099,-0.139 l -5.431,0.019 c -4.856,0 -10.489,-0.133 -15.886,-1.77 -3.41,-1.035 -5.469,-2.76 -6.126,-5.14 -1.561,-5.675 5.469,-13.377 11.121,-19.561 1.969,-2.154 3.664,-4.013 4.655,-5.415 13.511,-19.101 6.476,-46.161 2.821,-56.909 -2.346,-6.916 -7.217,-12.925 -11.921,-18.74 -3.309,-4.085 -6.733,-8.31 -9.315,-12.868 -0.795,-1.403 -1.586,-2.821 -2.381,-4.249 -1.738,-3.122 -3.534,-6.35 -5.377,-9.377 -2.443,-4.02 -3.477,-5.187 -5.599,-5.187 -1.135,0 -2.668,0.349 -4.957,1.124 -7.481,2.549 -14.867,6.232 -22.002,9.795 -2.683,1.336 -5.346,2.662 -7.99,3.923 -11.36,5.413 -24.421,10.321 -38.817,14.593 -19.038,5.637 -37.544,8.262 -58.254,8.265 -2.82,0 -5.665,-0.051 -8.539,-0.147 -12.242,-0.411 -24.205,-3.224 -36.533,-8.587 l -0.795,3.357 c -2.213,9.363 -4.307,18.213 -8.162,27.262 -4.611,10.829 -11.829,20.166 -18.808,29.196 -1.163,1.509 -2.327,3.015 -3.481,4.529 -6.605,8.674 -10.236,16.015 -13.871,28.052 -2.595,8.588 -3.165,9.109 -12.274,11.116 l -0.733,0.162 c -6.95,1.543 -14.2,3.138 -21.347,2.593 -7.251,-0.566 -12.605,-2.017 -16.848,-4.575 -3.085,-1.858 -4.67,-3.577 -5.149,-5.569 -0.661,-2.768 1.001,-5.744 3.075,-9.062 4.679,-7.504 9.799,-14.719 14.746,-21.695 2.932,-4.133 5.853,-8.253 8.683,-12.42 2.314,-3.411 5.029,-6.777 7.649,-10.034 5.661,-7.021 11.509,-14.282 14.076,-22.711 2.194,-7.213 1.274,-14.206 -2.816,-21.375 -7.4,-12.955 -23.87,-23.573 -35.896,-31.327 -1.916,-1.235 -3.731,-2.405 -5.408,-3.516 l -0.958,-0.636 c -7.328,-4.863 -14.899,-9.886 -22.84,-13.19 -4.967,-2.065 -10.182,-3.703 -15.226,-5.283 -5.886,-1.848 -11.973,-3.76 -17.739,-6.37 -4.278,-1.935 -9.186,-3.334 -13.932,-4.684 -6.059,-1.729 -12.329,-3.515 -17.454,-6.457 -9.87,-5.66 -14.995,-22.328 -15.92,-25.608 -1.857,-6.575 -4.166,-14.756 -4.472,-22.036 -0.302,-7.26 4.53,-7.845 9.209,-8.41 1.323,-0.158 2.692,-0.326 4.052,-0.622 C 38.836,95.945 53.501,87.337 65.59,79.415 77.616,71.542 88.991,61.834 99.988,52.442 c 17.418,-14.877 35.431,-30.254 56.83,-39.144 14.129,-5.868 30.288,-8.721 49.398,-8.721 21.461,0 43.233,3.534 64.288,6.954 6.777,1.102 13.429,2.179 19.895,3.109 8.85,1.273 17.735,2.47 26.628,3.673 17.851,2.409 36.308,4.905 54.331,7.989 10.992,1.887 21.96,4.635 32.568,7.289 6.427,1.614 13.075,3.275 19.646,4.732 6.13,1.356 13.554,1.518 21.414,1.69 13.591,0.297 27.643,0.609 37.102,7.156 5.25,3.635 7.639,11.83 9.56,18.415 0.383,1.307 0.743,2.533 1.097,3.62 7.873,24.235 9.076,42.723 4.157,63.81 -2.563,10.968 -6.931,21.432 -11.159,31.556 -3.252,7.788 -6.615,15.849 -9.11,24.038 -3.3,10.834 -4.756,22.832 -4.459,36.678 0.101,4.856 0.719,9.895 1.318,14.766 0.871,7.115 1.772,14.478 1.144,21.648 -0.569,6.504 -2.883,13.088 -5.12,19.453 -1.178,3.363 -2.399,6.84 -3.304,10.169 -1.696,6.246 -4.062,12.227 -6.351,18.017 -0.781,1.975 -1.562,3.951 -2.323,5.953 -1.01,2.638 -1.734,5.527 -2.437,8.319 -0.887,3.521 -1.806,7.161 -3.306,10.455 -0.353,0.777 -0.493,1.298 -0.598,1.687 -0.355,1.311 -0.708,1.781 -2.687,2.815 -1.331,0.699 -3.237,1.025 -5.996,1.025 z m -7.769,-2.576 c 1.054,0 2.17,0.072 3.381,0.144 1.395,0.086 2.923,0.182 4.388,0.182 2.346,0 3.966,-0.25 4.952,-0.766 1.37,-0.719 1.379,-0.758 1.557,-1.41 0.124,-0.468 0.297,-1.096 0.722,-2.033 1.418,-3.11 2.31,-6.649 3.171,-10.074 0.719,-2.854 1.461,-5.809 2.515,-8.573 0.767,-2.007 1.552,-3.994 2.337,-5.976 2.265,-5.729 4.607,-11.657 6.269,-17.78 0.924,-3.408 2.16,-6.923 3.358,-10.324 2.188,-6.236 4.454,-12.682 5,-18.91 0.608,-6.93 -0.278,-14.17 -1.14,-21.174 -0.604,-4.928 -1.226,-10.018 -1.331,-14.989 -0.303,-14.091 1.187,-26.317 4.554,-37.376 2.529,-8.305 5.915,-16.414 9.191,-24.259 4.191,-10.034 8.525,-20.413 11.039,-31.193 4.886,-20.93 3.732,-38.483 -4.104,-62.603 -0.364,-1.111 -0.728,-2.36 -1.116,-3.691 -1.82,-6.241 -4.085,-14.015 -8.683,-17.195 -8.899,-6.158 -22.611,-6.46 -35.867,-6.752 -7.975,-0.178 -15.504,-0.346 -21.855,-1.748 -6.599,-1.458 -13.261,-3.127 -19.703,-4.743 -10.566,-2.643 -21.495,-5.382 -32.405,-7.251 -17.98,-3.084 -36.419,-5.569 -54.25,-7.979 -8.898,-1.201 -17.787,-2.404 -26.643,-3.673 -6.484,-0.934 -13.146,-2.017 -19.938,-3.118 -20.968,-3.406 -42.649,-6.925 -63.928,-6.925 -18.808,0 -34.685,2.796 -48.536,8.549 -21.068,8.75 -38.942,24.014 -56.232,38.774 -11.049,9.441 -22.476,19.196 -34.623,27.151 -12.26,8.032 -27.151,16.764 -44.617,20.614 -1.47,0.325 -2.898,0.498 -4.272,0.666 -5.163,0.622 -7.439,1.106 -7.227,6.077 0.292,7.017 2.562,15.059 4.387,21.52 2.446,8.664 7.812,20.215 14.876,24.267 4.885,2.807 11.019,4.555 16.949,6.246 4.823,1.373 9.814,2.797 14.243,4.799 5.642,2.553 11.663,4.443 17.487,6.268 5.091,1.6 10.349,3.252 15.412,5.355 8.141,3.386 15.809,8.472 23.219,13.391 l 0.963,0.637 c 1.666,1.107 3.476,2.275 5.382,3.501 12.223,7.879 28.957,18.669 36.63,32.102 4.354,7.631 5.369,15.418 3.018,23.143 -2.697,8.851 -8.684,16.285 -14.48,23.473 -2.59,3.218 -5.277,6.552 -7.542,9.886 -2.836,4.18 -5.767,8.309 -8.707,12.457 -4.928,6.949 -10.025,14.133 -14.676,21.581 -2.13,3.42 -3.209,5.602 -2.791,7.351 0.321,1.341 1.633,2.663 4.118,4.168 3.937,2.365 8.976,3.721 15.863,4.258 6.844,0.515 13.889,-1.046 20.685,-2.546 l 0.733,-0.161 c 8.271,-1.825 8.271,-1.825 10.608,-9.574 3.114,-10.307 6.581,-18.712 14.234,-28.76 1.159,-1.524 2.329,-3.032 3.497,-4.545 6.887,-8.917 14.013,-18.137 18.516,-28.704 3.778,-8.873 5.847,-17.628 8.036,-26.897 l 1.116,-4.679 c 0.077,-0.326 0.297,-0.598 0.594,-0.747 0.302,-0.147 0.661,-0.152 0.957,-0.014 12.496,5.599 24.575,8.52 36.931,8.937 2.85,0.096 5.667,0.148 8.463,0.148 20.485,-0.004 38.789,-2.599 57.612,-8.169 14.286,-4.24 27.237,-9.111 38.492,-14.47 2.634,-1.255 5.283,-2.577 7.95,-3.909 7.204,-3.592 14.656,-7.312 22.281,-9.904 2.571,-0.876 4.272,-1.25 5.685,-1.25 3.529,0 5.158,2.38 7.524,6.27 1.868,3.059 3.674,6.307 5.421,9.454 0.79,1.418 1.576,2.836 2.366,4.231 2.495,4.394 5.858,8.548 9.11,12.56 4.832,5.968 9.828,12.141 12.303,19.43 3.765,11.079 10.993,38.992 -3.113,58.939 -1.072,1.513 -2.816,3.424 -4.832,5.627 -4.995,5.475 -11.844,12.97 -10.613,17.453 0.44,1.604 1.949,2.774 4.607,3.578 5.101,1.547 10.542,1.676 15.235,1.676 l 5.287,-0.019"
       fill="#1a1919"
       id="path208" />
    <path
       d="m 68.909,155.103 c -2.888,-0.719 -5.642,-2.587 -8.089,-5.96 -2.519,-3.466 -4.473,-7.519 -5.863,-11.57 -2.447,-7.156 -2.351,-16.777 1.562,-23.099 9.847,10.57 13.789,30.269 29.91,33.985 -5.503,4.934 -11.782,8.065 -17.52,6.644"
       fill="#f2f1f0"
       id="path210" />
    <path
       d="m 71.773,156.572 c -1.068,0 -2.127,-0.129 -3.137,-0.378 -3.309,-0.824 -6.25,-2.974 -8.726,-6.388 -2.415,-3.32 -4.493,-7.424 -6.016,-11.869 -2.342,-6.849 -2.734,-16.94 1.667,-24.057 0.187,-0.297 0.498,-0.493 0.848,-0.527 0.349,-0.053 0.689,0.096 0.934,0.354 3.467,3.722 6.245,8.583 8.927,13.291 5.063,8.864 10.297,18.032 20.412,20.364 0.408,0.096 0.733,0.408 0.839,0.815 0.101,0.406 -0.03,0.838 -0.341,1.121 -5.311,4.76 -10.637,7.274 -15.407,7.274 z M 56.73,116.413 c -2.75,5.584 -3.075,13.871 -0.709,20.796 1.451,4.233 3.424,8.132 5.709,11.274 2.159,2.974 4.664,4.832 7.453,5.527 4.358,1.073 9.545,-0.705 14.908,-5.038 -9.698,-3.213 -14.813,-12.175 -19.775,-20.858 -2.448,-4.291 -4.775,-8.367 -7.586,-11.701"
       fill="#1a1919"
       id="path212" />
    <path
       d="m 189.032,58.189 c -0.47,0 -0.91,-0.298 -1.069,-0.766 -0.196,-0.594 0.12,-1.231 0.709,-1.428 7.443,-2.49 9.943,-13.563 12.151,-23.334 0.91,-4.022 1.777,-7.854 2.936,-10.799 -6.274,-0.312 -11.136,0.368 -15.585,2.159 -5.244,2.118 -17.806,10.609 -16.802,13.986 0.178,0.593 -0.157,1.221 -0.755,1.398 -0.585,0.197 -1.222,-0.163 -1.4,-0.757 -1.819,-6.078 15.053,-15.479 18.114,-16.714 5.144,-2.075 10.738,-2.773 18.19,-2.218 0.374,0.023 0.709,0.234 0.896,0.561 0.187,0.325 0.197,0.722 0.033,1.058 -1.398,2.83 -2.385,7.198 -3.429,11.82 -2.342,10.35 -4.99,22.084 -13.631,24.977 -0.119,0.038 -0.238,0.057 -0.358,0.057"
       fill="#1a1919"
       id="path214" />
    <path
       d="m 119.714,85.091 c 0,2.232 -1.809,4.037 -4.042,4.037 -2.231,0 -4.042,-1.805 -4.042,-4.037 0,-2.236 1.811,-4.047 4.042,-4.047 2.233,0 4.042,1.811 4.042,4.047"
       fill="#1a1919"
       id="path216" />
    <path
       d="m 42.926,162.032 c -0.469,0 -0.876,-0.359 -0.924,-0.834 -0.047,-0.512 0.321,-0.967 0.828,-1.019 2.655,-0.269 5.346,-0.248 7.946,-0.248 4.986,0.047 10.163,0.037 15.71,-1.83 6.758,-2.285 18.482,-8.081 23.089,-14.695 0.297,-0.417 0.877,-0.512 1.294,-0.229 0.416,0.292 0.521,0.871 0.23,1.293 -4.862,6.978 -17.027,13.027 -24.019,15.382 -5.848,1.975 -11.165,1.936 -16.313,1.936 -2.643,-0.019 -5.192,-0.023 -7.745,0.239 -0.033,0 -0.066,0.005 -0.096,0.005"
       fill="#1a1919"
       id="path218" />
    <path
       d="m 261.892,37.839 c -1.561,-0.713 -2.816,-1.768 -3.668,-3.602 -0.925,-1.982 -2.145,-5.627 1.062,-6.259 8.344,-1.648 23.852,9.238 26.448,16.599 -0.029,-0.086 -6.687,-0.191 -7.414,-0.33 -4.885,-0.929 -8.808,-4.258 -13.583,-5.459 -1.029,-0.26 -1.983,-0.552 -2.845,-0.949"
       fill="#7a5b3a"
       id="path220" />
    <path
       d="m 285.734,45.702 c -0.087,0 -0.168,-0.007 -0.249,-0.027 -0.36,-0.034 -1.533,-0.068 -2.821,-0.106 -2.773,-0.085 -4.124,-0.135 -4.555,-0.216 -2.744,-0.522 -5.172,-1.743 -7.524,-2.926 -2.054,-1.033 -4,-2.016 -6.121,-2.547 -1.269,-0.321 -2.208,-0.633 -3.041,-1.021 -1.983,-0.905 -3.324,-2.221 -4.219,-4.147 -1.203,-2.577 -1.442,-4.603 -0.719,-6.026 0.335,-0.661 1.054,-1.513 2.586,-1.814 0.632,-0.125 1.317,-0.188 2.031,-0.188 9.095,0 22.778,10.13 25.575,17.2 0.149,0.191 0.24,0.431 0.24,0.693 -0.005,0.633 -0.499,1.222 -1.15,1.125 -0.009,0 -0.024,0 -0.033,0 z M 261.102,28.937 c -0.556,0 -1.092,0.047 -1.595,0.147 -0.7,0.134 -0.915,0.417 -1.016,0.623 -0.373,0.727 -0.09,2.246 0.753,4.055 0.665,1.428 1.624,2.372 3.118,3.052 0.704,0.326 1.523,0.599 2.648,0.88 2.366,0.595 4.512,1.678 6.585,2.721 2.314,1.164 4.498,2.262 6.935,2.727 0.369,0.061 2.672,0.132 4.201,0.176 0.45,0.015 0.848,0.029 1.197,0.038 -3.563,-6.23 -15.187,-14.419 -22.826,-14.419"
       fill="#1a1919"
       id="path222" />
    <path
       d="m 363.37,59.435 c -1.705,0.205 -3.33,-0.034 -5.015,-1.151 -1.824,-1.206 -4.775,-3.673 -2.371,-5.891 6.25,-5.771 25.159,-4.611 31.227,0.303 -0.072,-0.058 -5.8,3.338 -6.494,3.602 -4.646,1.762 -9.733,0.98 -14.431,2.456 -1.01,0.316 -1.977,0.565 -2.916,0.681"
       fill="#7a5b3a"
       id="path224" />
    <path
       d="m 362.306,60.627 c -1.652,0 -3.146,-0.46 -4.573,-1.403 -2.371,-1.572 -3.641,-3.17 -3.77,-4.761 -0.057,-0.737 0.111,-1.839 1.26,-2.897 2.869,-2.649 8.4,-4.172 15.172,-4.172 7.323,0 14.201,1.738 17.524,4.425 0.369,0.301 0.513,0.805 0.35,1.255 -0.114,0.325 -0.368,0.574 -0.684,0.685 -0.312,0.148 -1.356,0.752 -2.505,1.408 -2.385,1.365 -3.554,2.026 -3.966,2.183 -2.605,0.987 -5.316,1.217 -7.936,1.443 -2.294,0.196 -4.463,0.378 -6.556,1.034 -1.222,0.383 -2.213,0.613 -3.114,0.723 -0.407,0.047 -0.804,0.077 -1.202,0.077 z m 8.089,-10.982 c -6.12,0 -11.222,1.337 -13.649,3.577 -0.517,0.48 -0.556,0.834 -0.537,1.058 0.068,0.819 1.102,1.964 2.768,3.067 1.327,0.88 2.707,1.164 4.259,0.971 0.761,-0.095 1.623,-0.298 2.715,-0.638 2.323,-0.732 4.722,-0.933 7.036,-1.129 2.581,-0.22 5.014,-0.427 7.332,-1.308 0.345,-0.138 2.346,-1.288 3.674,-2.045 0.397,-0.23 0.742,-0.425 1.039,-0.594 -3.305,-1.804 -8.874,-2.959 -14.637,-2.959"
       fill="#1a1919"
       id="path226" />
    <path
       d="m 434.2,63.155 c -1.706,0.206 -3.329,-0.033 -5.015,-1.149 -1.825,-1.206 -4.775,-3.673 -2.371,-5.891 6.251,-5.771 25.159,-4.612 31.227,0.302 -0.072,-0.058 -5.8,3.338 -6.495,3.602 -4.645,1.762 -9.732,0.982 -14.43,2.457 -1.011,0.316 -1.978,0.564 -2.916,0.679"
       fill="#7a5b3a"
       id="path228" />
    <path
       d="m 433.137,64.348 c -1.653,0 -3.147,-0.459 -4.574,-1.403 -2.371,-1.571 -3.641,-3.171 -3.77,-4.761 -0.057,-0.738 0.111,-1.84 1.26,-2.898 2.868,-2.648 8.4,-4.172 15.173,-4.172 7.322,0 14.2,1.739 17.524,4.426 0.369,0.303 0.512,0.804 0.35,1.256 -0.116,0.325 -0.369,0.574 -0.685,0.684 -0.312,0.148 -1.356,0.751 -2.505,1.407 -2.385,1.366 -3.554,2.027 -3.966,2.185 -2.606,0.987 -5.316,1.216 -7.936,1.443 -2.294,0.195 -4.464,0.377 -6.556,1.033 -1.222,0.384 -2.213,0.613 -3.114,0.724 -0.406,0.047 -0.804,0.076 -1.201,0.076 z m 8.089,-10.982 c -6.121,0 -11.222,1.336 -13.65,3.577 -0.517,0.48 -0.555,0.834 -0.537,1.059 0.068,0.819 1.102,1.964 2.768,3.065 1.322,0.881 2.711,1.155 4.259,0.973 0.761,-0.096 1.623,-0.297 2.715,-0.637 2.323,-0.733 4.722,-0.934 7.036,-1.13 2.581,-0.221 5.014,-0.426 7.332,-1.308 0.344,-0.139 2.347,-1.288 3.674,-2.045 0.397,-0.23 0.742,-0.427 1.039,-0.594 -3.305,-1.805 -8.875,-2.96 -14.636,-2.96"
       fill="#1a1919"
       id="path230" />
    <path
       d="m 294.555,35.497 c 0.336,-1.451 2.424,-2.088 4.205,-2.279 3.487,-0.379 6.739,1.306 10.154,1.619 3.161,0.286 9.891,0.726 11.236,4.468 0.738,2.03 -1.245,4.401 -2.581,5.727 -3.061,3.033 -7.448,1.974 -10.839,0.182 -3.774,-1.992 -9.176,-3.855 -11.59,-7.567 -0.564,-0.862 -0.714,-1.576 -0.585,-2.15"
       fill="#7a5b3a"
       id="path232" />
    <path
       d="m 312.774,48.073 c -2.514,0 -4.961,-1.014 -6.571,-1.862 -0.804,-0.427 -1.68,-0.843 -2.591,-1.28 -3.447,-1.637 -7.351,-3.495 -9.416,-6.67 -0.699,-1.064 -0.948,-2.079 -0.737,-3.013 0.532,-2.313 3.477,-2.964 5.182,-3.151 2.266,-0.231 4.439,0.306 6.509,0.838 1.331,0.34 2.591,0.666 3.865,0.781 l 0.412,0.038 c 3.582,0.316 10.249,0.909 11.781,5.167 0.714,1.964 -0.272,4.353 -2.844,6.912 -1.504,1.484 -3.381,2.24 -5.59,2.24 z M 299.8,34.29 c -0.302,0 -0.608,0.014 -0.92,0.048 -1.752,0.186 -3.079,0.766 -3.228,1.413 -0.067,0.297 0.087,0.756 0.431,1.279 1.72,2.643 5.322,4.358 8.496,5.871 0.94,0.446 1.845,0.881 2.678,1.317 3.956,2.093 7.352,2.16 9.521,0.014 1.849,-1.838 2.697,-3.495 2.314,-4.544 -1.05,-2.911 -7.003,-3.439 -9.867,-3.693 l -0.411,-0.038 c -1.456,-0.135 -2.864,-0.493 -4.225,-0.843 -1.652,-0.427 -3.208,-0.824 -4.789,-0.824"
       fill="#1a1919"
       id="path234" />
    <path
       d="m 335.581,40.88 c -0.229,-1.068 0.963,-2.136 2.084,-2.816 2.199,-1.331 4.875,-1.221 7.237,-2.074 2.183,-0.785 6.787,-2.577 8.841,-0.512 1.111,1.12 0.537,3.304 0.057,4.597 -1.092,2.96 -4.329,3.617 -7.135,3.478 -3.114,-0.153 -7.276,0.282 -10.03,-1.427 -0.642,-0.399 -0.958,-0.829 -1.054,-1.246"
       fill="#7a5b3a"
       id="path236" />
    <path
       d="m 347.354,44.697 c -0.249,0 -0.499,-0.008 -0.747,-0.018 -0.656,-0.034 -1.365,-0.039 -2.098,-0.043 -2.831,-0.025 -6.044,-0.049 -8.468,-1.553 -0.857,-0.531 -1.379,-1.188 -1.556,-1.949 -0.302,-1.409 0.623,-2.835 2.595,-4.033 1.495,-0.905 3.114,-1.207 4.68,-1.503 0.977,-0.183 1.901,-0.355 2.758,-0.666 l 0.293,-0.105 c 1.575,-0.57 3.96,-1.432 6.14,-1.432 1.527,0 2.739,0.43 3.592,1.288 1.168,1.183 1.279,3.179 0.311,5.785 -1.006,2.726 -3.669,4.229 -7.5,4.229 z m 3.597,-9.052 c -1.787,0 -3.947,0.782 -5.374,1.299 l -0.292,0.105 c -1.03,0.374 -2.088,0.569 -3.113,0.762 -1.428,0.268 -2.778,0.521 -3.923,1.216 -1.154,0.698 -1.619,1.379 -1.566,1.619 0.019,0.095 0.177,0.296 0.546,0.521 1.888,1.174 4.761,1.197 7.295,1.217 0.765,0.004 1.508,0.01 2.197,0.043 2.165,0.092 5.092,-0.22 6.026,-2.739 0.598,-1.628 0.675,-2.936 0.196,-3.42 -0.411,-0.412 -1.082,-0.623 -1.992,-0.623"
       fill="#1a1919"
       id="path238" />
    <path
       d="m 290.623,51.566 c 1.859,-0.599 4.484,0.177 6.428,0.507 0.943,0.158 10.546,1.418 10.282,2.677 -0.976,4.593 -4.386,7.405 -8.994,6.61 -2.083,-0.359 -4.161,-1.131 -5.948,-2.265 -1.456,-0.92 -4.1,-1.86 -4.004,-3.942 0.106,-2.175 0.991,-3.19 2.236,-3.587"
       fill="#7a5b3a"
       id="path240" />
    <path
       d="m 299.857,62.619 c -0.55,0 -1.12,-0.048 -1.71,-0.148 -2.283,-0.398 -4.483,-1.236 -6.359,-2.429 -0.259,-0.162 -0.566,-0.33 -0.882,-0.502 -1.585,-0.867 -3.755,-2.055 -3.645,-4.441 0.15,-3.059 1.725,-4.195 3.023,-4.606 1.556,-0.494 3.87,-0.14 5.742,0.238 0.427,0.087 0.834,0.169 1.212,0.231 l 0.56,0.086 c 8.669,1.279 9.891,2.097 10.403,2.826 0.177,0.254 0.296,0.805 0.235,1.105 -1.002,4.713 -4.287,7.64 -8.579,7.64 z m -7.629,-10.148 c -0.493,0 -0.92,0.057 -1.26,0.167 -0.632,0.201 -1.364,0.676 -1.456,2.568 -0.042,0.904 1.045,1.574 2.472,2.361 0.364,0.195 0.708,0.387 1.006,0.575 1.633,1.038 3.549,1.767 5.541,2.106 3.707,0.656 6.551,-1.388 7.572,-5.186 -0.728,-0.321 -2.788,-0.924 -8.635,-1.788 l -0.603,-0.089 c -0.404,-0.073 -0.839,-0.159 -1.285,-0.251 -1.134,-0.224 -2.308,-0.463 -3.352,-0.463"
       fill="#1a1919"
       id="path242" />
    <path
       d="m 399.07,46.383 c 1.81,-0.728 4.483,-0.144 6.446,0.047 0.953,0.097 10.618,0.672 10.445,1.946 -0.646,4.655 -3.85,7.696 -8.501,7.233 -2.107,-0.211 -4.233,-0.835 -6.096,-1.84 -1.514,-0.815 -4.22,-1.567 -4.273,-3.65 -0.048,-2.174 0.767,-3.252 1.979,-3.736"
       fill="#7a5b3a"
       id="path244" />
    <path
       d="m 408.38,56.78 c -0.335,0 -0.68,-0.018 -1.03,-0.052 -2.308,-0.23 -4.564,-0.91 -6.523,-1.968 -0.268,-0.149 -0.584,-0.292 -0.915,-0.446 -1.643,-0.751 -3.884,-1.786 -3.946,-4.166 -0.067,-3.061 1.423,-4.305 2.687,-4.809 1.446,-0.579 3.812,-0.426 5.752,-0.172 0.426,0.053 0.838,0.106 1.221,0.143 l 0.632,0.053 c 7.835,0.603 9.828,1.24 10.504,2.079 0.195,0.239 0.358,0.776 0.316,1.086 -0.7,5.016 -4.11,8.252 -8.698,8.252 z m -7.074,-9.625 c -0.762,0 -1.355,0.086 -1.815,0.272 -0.618,0.244 -1.317,0.771 -1.274,2.668 0.024,0.905 1.154,1.494 2.634,2.175 0.379,0.176 0.732,0.34 1.044,0.506 1.701,0.92 3.664,1.51 5.676,1.711 3.716,0.369 6.436,-1.858 7.183,-5.709 -0.742,-0.268 -2.825,-0.723 -8.669,-1.173 l -0.684,-0.053 c -0.398,-0.039 -0.833,-0.096 -1.283,-0.154 -0.939,-0.12 -1.912,-0.243 -2.812,-0.243"
       fill="#1a1919"
       id="path246" />
    <path
       d="m 324.863,51.78 c 1.226,-0.316 3.429,0.399 4.76,0.279 1.839,-0.168 3.966,-0.848 5.767,-0.129 3.803,1.522 3.697,4.099 1.24,7.227 -2.447,3.117 -6.02,3.156 -8.817,0.507 -1.499,-1.423 -2.97,-3.515 -3.611,-5.473 -0.522,-1.572 -0.134,-2.204 0.661,-2.411"
       fill="#7a5b3a"
       id="path248" />
    <path
       d="m 332.133,62.705 c -1.796,0 -3.558,-0.771 -5.095,-2.221 -1.753,-1.667 -3.252,-3.942 -3.904,-5.944 -0.389,-1.164 -0.392,-2.069 -0.015,-2.763 0.206,-0.375 0.624,-0.868 1.462,-1.084 0.785,-0.206 1.92,-0.081 3.084,0.081 0.574,0.087 1.145,0.174 1.628,0.174 0.68,-0.053 1.149,-0.125 1.624,-0.202 1.657,-0.259 3.515,-0.411 4.89,0.14 1.978,0.789 3.175,1.925 3.564,3.366 0.435,1.624 -0.173,3.458 -1.854,5.599 -1.446,1.84 -3.358,2.854 -5.384,2.854 z m -6.997,-9.837 c -0.043,0 -0.105,0.254 0.134,0.967 0.541,1.642 1.839,3.611 3.319,5.015 2.328,2.208 5.211,2.093 7.156,-0.388 1.182,-1.504 1.68,-2.759 1.451,-3.625 -0.197,-0.724 -0.944,-1.352 -2.223,-1.863 -0.92,-0.37 -2.346,-0.221 -3.706,0 -0.527,0.082 -1.045,0.162 -1.542,0.205 -0.685,0.067 -1.52,-0.047 -2.386,-0.176 -0.886,-0.131 -1.944,-0.207 -2.194,-0.131 -0.005,-0.004 -0.005,-0.004 -0.009,-0.004"
       fill="#1a1919"
       id="path250" />
    <path
       d="m 26.112,152.985 c 0,0 -25.778,-28.142 -18.689,-50.289 0,0 -0.005,-2.388 8.377,-1.197 0,0 21.911,49.69 14.822,54.479 0,0 1.29,3.588 -4.51,-2.993"
       fill="#7a5b3a"
       id="path252" />
    <path
       d="m 30.484,158.149 c -0.743,0 -1.71,-0.336 -5.268,-4.374 -1.054,-1.154 -26.074,-28.817 -18.961,-51.346 0.052,-0.288 0.205,-0.724 0.631,-1.151 1.327,-1.326 4.33,-1.623 9.081,-0.961 0.407,0.062 0.757,0.324 0.924,0.704 3.607,8.179 20.796,48.214 15.035,55.355 0.033,0.389 -0.014,0.809 -0.268,1.174 -0.226,0.316 -0.787,0.599 -1.174,0.599 z m -18.77,-55.792 c -2.634,0 -3.151,0.623 -3.156,0.626 -6.791,21.305 18.181,48.919 18.435,49.197 1.36,1.543 2.25,2.429 2.816,2.941 0.043,-0.053 0.091,-0.096 0.148,-0.13 3.884,-2.629 -4.531,-28.588 -14.981,-52.4 -1.231,-0.152 -2.323,-0.234 -3.262,-0.234"
       fill="#1a1919"
       id="path254" />
  </g>
</svg>
