<?xml version="1.0" encoding="UTF-8" standalone="no"?>
<svg
   xmlns:dc="http://purl.org/dc/elements/1.1/"
   xmlns:cc="http://creativecommons.org/ns#"
   xmlns:rdf="http://www.w3.org/1999/02/22-rdf-syntax-ns#"
   xmlns:svg="http://www.w3.org/2000/svg"
   xmlns="http://www.w3.org/2000/svg"
   xmlns:xlink="http://www.w3.org/1999/xlink"
   xmlns:sodipodi="http://sodipodi.sourceforge.net/DTD/sodipodi-0.dtd"
   xmlns:inkscape="http://www.inkscape.org/namespaces/inkscape"
   width="88mm"
   height="125mm"
   version="1.1"
   viewBox="0 0 311.81398 442.90831"
   id="svg155"
   sodipodi:docname="coat.svg"
   inkscape:version="0.92.3 (2405546, 2018-03-11)">
  <metadata
     id="metadata159">
    <rdf:RDF>
      <cc:Work
         rdf:about="">
        <dc:format>image/svg+xml</dc:format>
        <dc:type
           rdf:resource="http://purl.org/dc/dcmitype/StillImage" />
        <dc:title></dc:title>
      </cc:Work>
    </rdf:RDF>
  </metadata>
  <sodipodi:namedview
     pagecolor="#ffffff"
     bordercolor="#666666"
     borderopacity="1"
     objecttolerance="10"
     gridtolerance="10"
     guidetolerance="10"
     inkscape:pageopacity="0"
     inkscape:pageshadow="2"
     inkscape:window-width="1920"
     inkscape:window-height="974"
     id="namedview157"
     showgrid="false"
     inkscape:zoom="1.4113581"
     inkscape:cx="50.398111"
     inkscape:cy="232.60675"
     inkscape:window-x="-11"
     inkscape:window-y="-11"
     inkscape:window-maximized="1"
     inkscape:current-layer="svg155" />
  <defs
     id="defs101">
    <pattern
       id="p"
       patternTransform="matrix(-.34634 -.61928 .94914 -.53081 89.556 1048)"
       xlink:href="#b" />
    <pattern
       id="o"
       patternTransform="matrix(.070537 -.52902 .80974 .10797 103.55 950.74)"
       xlink:href="#a" />
    <pattern
       id="n"
       patternTransform="matrix(.29574 .54923 -2.1662 1.1664 40.859 984.59)"
       xlink:href="#b" />
    <pattern
       id="b"
       width="2"
       height="1"
       patternTransform="translate(0) scale(10)"
       patternUnits="userSpaceOnUse">
      <rect
         y="-.5"
         width="1"
         height="2"
         id="rect5" />
    </pattern>
    <pattern
       id="m"
       patternTransform="matrix(.49445 .3549 -.47862 .6668 94.076 1010.2)"
       xlink:href="#a" />
    <pattern
       id="l"
       patternTransform="matrix(.64851 0 0 .80761 105.57 988.67)"
       xlink:href="#a" />
    <pattern
       id="k"
       patternTransform="matrix(.70155 0 0 .91368 155.56 998.43)"
       xlink:href="#a" />
    <pattern
       id="j"
       patternTransform="matrix(.63084 0 0 .94903 105.18 962.9)"
       xlink:href="#a" />
    <pattern
       id="a"
       width="10"
       height="10"
       patternTransform="translate(0) scale(10)"
       patternUnits="userSpaceOnUse">
      <circle
         cx="2.567"
         cy=".81"
         r=".45"
         id="circle12" />
      <circle
         cx="3.048"
         cy="2.33"
         r=".45"
         id="circle14" />
      <circle
         cx="4.418"
         cy="2.415"
         r=".45"
         id="circle16" />
      <circle
         cx="1.844"
         cy="3.029"
         r=".45"
         id="circle18" />
      <circle
         cx="6.08"
         cy="1.363"
         r=".45"
         id="circle20" />
      <circle
         cx="5.819"
         cy="4.413"
         r=".45"
         id="circle22" />
      <circle
         cx="4.305"
         cy="4.048"
         r=".45"
         id="circle24" />
      <circle
         cx="5.541"
         cy="3.045"
         r=".45"
         id="circle26" />
      <circle
         cx="4.785"
         cy="5.527"
         r=".45"
         id="circle28" />
      <circle
         cx="2.667"
         cy="5.184"
         r=".45"
         id="circle30" />
      <circle
         cx="7.965"
         cy="1.448"
         r=".45"
         id="circle32" />
      <circle
         cx="7.047"
         cy="5.049"
         r=".45"
         id="circle34" />
      <circle
         cx="4.34"
         cy=".895"
         r=".45"
         id="circle36" />
      <circle
         cx="7.125"
         cy=".34"
         r=".45"
         id="circle38" />
      <circle
         cx="9.553"
         cy="1.049"
         r=".45"
         id="circle40" />
      <circle
         cx="7.006"
         cy="2.689"
         r=".45"
         id="circle42" />
      <circle
         cx="8.909"
         cy="2.689"
         r=".45"
         id="circle44" />
      <circle
         cx="9.315"
         cy="4.407"
         r=".45"
         id="circle46" />
      <circle
         cx="7.82"
         cy="3.87"
         r=".45"
         id="circle48" />
      <circle
         cx="8.27"
         cy="5.948"
         r=".45"
         id="circle50" />
      <circle
         cx="7.973"
         cy="7.428"
         r=".45"
         id="circle52" />
      <circle
         cx="9.342"
         cy="8.072"
         r=".45"
         id="circle54" />
      <circle
         cx="8.206"
         cy="9.315"
         r=".45"
         id="circle56" />
      <circle
         cx="9.682"
         cy="9.475"
         r=".45"
         id="circle58" />
      <circle
         cx="9.688"
         cy="6.186"
         r=".45"
         id="circle60" />
      <circle
         cx="3.379"
         cy="6.296"
         r=".45"
         id="circle62" />
      <circle
         cx="2.871"
         cy="8.204"
         r=".45"
         id="circle64" />
      <circle
         cx="4.59"
         cy="8.719"
         r=".45"
         id="circle66" />
      <circle
         cx="3.181"
         cy="9.671"
         r=".45"
         id="circle68" />
      <circle
         cx="5.734"
         cy="7.315"
         r=".45"
         id="circle70" />
      <circle
         cx="6.707"
         cy="6.513"
         r=".45"
         id="circle72" />
      <circle
         cx="5.73"
         cy="9.67"
         r=".45"
         id="circle74" />
      <circle
         cx="6.535"
         cy="8.373"
         r=".45"
         id="circle76" />
      <circle
         cx="4.37"
         cy="7.154"
         r=".45"
         id="circle78" />
      <circle
         cx=".622"
         cy="7.25"
         r=".45"
         id="circle80" />
      <circle
         cx=".831"
         cy="5.679"
         r=".45"
         id="circle82" />
      <circle
         cx="1.257"
         cy="8.519"
         r=".45"
         id="circle84" />
      <circle
         cx="1.989"
         cy="6.877"
         r=".45"
         id="circle86" />
      <circle
         cx=".374"
         cy="3.181"
         r=".45"
         id="circle88" />
      <circle
         cx="1.166"
         cy="1.664"
         r=".45"
         id="circle90" />
      <circle
         cx="1.151"
         cy=".093"
         r=".45"
         id="circle92" />
      <circle
         cx="1.151"
         cy="10.093"
         r=".45"
         id="circle94" />
      <circle
         cx="1.302"
         cy="4.451"
         r=".45"
         id="circle96" />
      <circle
         cx="3.047"
         cy="3.763"
         r=".45"
         id="circle98" />
    </pattern>
  </defs>
  <g
     transform="matrix(3.4773852,0,0,3.4773852,-30.85318,-3248.5527)"
     id="g153">
    <path
       d="m 61.03,1040.7 c 8.181,-1.3091 14.708,-5.4786 21.478,-10.784 l -20.683,-13.347 z"
       id="path103"
       inkscape:connector-curvature="0"
       style="fill:#1f1c2b;fill-rule:evenodd;stroke:#ffcc00;stroke-width:1.77170002" />
    <path
       d="m 60.669,1040.9 c 8.181,-1.3091 14.708,-5.4786 21.478,-10.784 l -20.683,-13.347 z"
       id="path105"
       inkscape:connector-curvature="0"
       style="fill:url(#p);fill-rule:evenodd;stroke:#000000;stroke-width:1.77170002" />
    <path
       d="m 82.347,994.54 c 1.4606,1.5846 5.4204,0.86858 7.5,-0.5 2.2313,-1.4684 3.875,-4.25 2.875,-7 0.49106,-0.009 0.33428,-0.66572 1.875,0.375 1.2572,1.8635 1.7351,3.4672 2,5 0.31738,1.2126 -2.2327,4.8562 -4,6.125 -3.4785,2.4972 -8.6212,2.9044 -8.5,2.25 -1.1595,-1.7917 -2.5065,-3.2084 -2.875,-5 0.09966,-1.0224 0.21086,-2.0194 1.125,-1.25 z"
       id="path107"
       inkscape:connector-curvature="0"
       style="fill:#141535;fill-rule:evenodd;stroke:#ff0000;stroke-width:0.35433" />
    <path
       d="m 81.647,994.06 c -1.0895,2.2156 0.81188,5.111 2.5803,6.8889 4.0816,0.386 9.4187,-1.2702 12.363,-8.0468 0.04672,-1.46 -1.7978,-6.4124 -4.0627,-6.2618 2.9242,5.6293 -5.6429,11.345 -10.881,7.4197 z"
       id="path109"
       inkscape:connector-curvature="0"
       style="fill:none;stroke:#00ffff;stroke-width:0.35433" />
    <path
       d="m 50.858,953.15 c 1.6216,-0.40543 3.5864,-0.33664 6.0842,0.29687 3.9369,1.5609 14.069,7.1619 21.324,12.906 1.2204,1.0532 3.0089,2.9096 3.4792,3.9567 4.8654,6.9424 9.1827,13.909 11.549,19.705 -1.7711,3.7995 -5.3108,6.8305 -10.244,4.9886 -2.5577,-6.4101 -6.9732,-14.561 -10.523,-16.854 l -15.23,-9.0877 c -3.1306,-4.0169 -5.2748,-9.7991 -6.4389,-15.911 z"
       id="path111"
       inkscape:connector-curvature="0"
       style="fill:#363759;fill-rule:evenodd;stroke:#ff00ff;stroke-width:0.35433" />
    <path
       d="m 17.103,969.39 c 0,0 8.4278,-8.3246 15.085,-11.365 8.8434,-4.039 18.624,-4.8778 18.563,-4.8418 0,0 1.8368,9.9588 6.6364,16.118 4.0037,7.733 7.9219,13.83 11.439,19.733 7.3688,12.37 26.633,37.985 26.633,37.985 -4.7345,5.2181 -13.27,13.091 -18.293,10.177 l -9.5563,-10.098 c 0.98898,4.8438 1.4388,9.6834 1.6783,14.521 -1.1294,5.1474 -12.755,8.4978 -21.626,8.8213 0,0 -7.8717,-31.198 -12.992,-44.67 -2.56,-6.7361 -5.7276,-12.544 -9.4027,-20.731 -1.6454,-7.7756 -8.1648,-15.65 -8.1648,-15.65 z"
       id="path113"
       inkscape:connector-curvature="0"
       style="fill:#363759;fill-rule:evenodd;stroke:#ff0000;stroke-width:0.35433" />
    <path
       d="m 17.126,969.25 c 0,0 8.4278,-8.3246 15.085,-11.365 8.8434,-4.039 18.624,-4.8778 18.563,-4.8418 0,0 1.8368,9.9588 6.6364,16.118 4.0037,7.733 7.9219,13.83 11.439,19.733 7.3688,12.37 26.633,37.985 26.633,37.985 -4.7345,5.2181 -13.27,13.091 -18.293,10.177 l -9.5563,-10.098 c 0.98898,4.8438 1.4388,9.6834 1.6783,14.521 -1.1294,5.1474 -12.755,8.4978 -21.626,8.8213 0,0 -7.8717,-31.198 -12.992,-44.67 -2.56,-6.7361 -5.7276,-12.544 -9.4026,-20.731 -1.6454,-7.7756 -8.1648,-15.65 -8.1648,-15.65 z"
       id="path115"
       inkscape:connector-curvature="0"
       style="fill:url(#k);fill-rule:evenodd;stroke:#ff0000;stroke-width:0.35433" />
    <path
       d="m 16.966,969.66 c -1.045,0.98404 -2.2635,2.1758 -3.1274,4.5053 l -3.0409,27.022 c -0.6379,2.0018 0.20731,3.898 1.4916,4.4294 9.1284,3.1465 16.539,2.8965 25.26,7.295 4.1423,-3.3435 4.3921,-7.2751 3.2996,-11.409 -6.1637,-2.3183 -9.5909,-3.7393 -17.216,-4.8254 0.48395,-3.4186 0.54907,-6.2597 1.5676,-11.599 -0.75701,-4.9719 -4.4801,-10.661 -8.2345,-15.419 z"
       id="path117"
       inkscape:connector-curvature="0"
       style="fill:#363759;fill-rule:evenodd;stroke:#ff00ff;stroke-width:0.35433" />
    <path
       d="m 16.989,969.52 c -1.045,0.98404 -2.2635,2.1758 -3.1274,4.5053 l -3.0409,27.022 c -0.6379,2.0018 0.20731,3.898 1.4916,4.4294 9.1284,3.1465 16.539,2.8965 25.26,7.295 4.1423,-3.3435 4.392,-7.2751 3.2996,-11.409 -6.1637,-2.3183 -9.5909,-3.7393 -17.216,-4.8254 0.48395,-3.4186 0.54907,-6.2597 1.5676,-11.599 -0.75701,-4.9719 -4.4801,-10.661 -8.2345,-15.419 z"
       id="path119"
       inkscape:connector-curvature="0"
       style="fill:url(#j);fill-rule:evenodd;stroke:#ff00ff;stroke-width:0.35433" />
    <path
       d="m 36.056,1012.8 c -3.4402,0.8304 2.6307,2.6206 5.3661,3.3012 4.789,-2.471 6.4779,-10.826 3.8782,-14.497 -0.91442,-1.139 -6.9839,-4.6542 -6.0962,-1.5047 2.5631,5.6339 1.6528,9.8378 -3.1481,12.7 z"
       id="path121"
       inkscape:connector-curvature="0"
       style="fill:#141535;fill-rule:evenodd;stroke:#0000ff;stroke-width:0.35433" />
    <path
       d="m 64.437,1022.9 c 0.96965,6.8181 1.6867,13.012 1.4138,16.758 -0.11463,1.5737 -0.98767,3.0185 -2.5498,3.8459 -3.9074,2.0695 -10.895,3.2024 -16.703,3.2873 l 0.9876,3.6039 c 3.4557,0.071 7.8962,-0.5148 12.681,-2.0123 4.4255,-1.3852 8.0573,-3.4268 8.8239,-5.9289 0.25472,-4.8831 -0.63544,-10.35 -1.4024,-15.755 z"
       id="path123"
       inkscape:connector-curvature="0"
       style="fill:#141535;fill-rule:evenodd;stroke:#ffff00;stroke-width:0.35433" />
    <path
       d="m 42.116,975.07 c -5.9331,-4.1266 -11.089,-8.4532 -13.967,-13.691 -0.8852,-1.6107 -2.308,-4.4478 -0.45284,-6.2145 0,0 2.6556,-0.045 3.8896,-0.52679 1.4168,-0.5531 3.7387,-2.5982 3.7387,-2.5982 1.2877,-0.89491 2.9696,1.0048 4.0157,4.3153 2.0266,6.4136 4.2708,12.953 2.7762,18.715 z"
       id="path125"
       inkscape:connector-curvature="0"
       style="fill:#1f1c2b;fill-rule:evenodd;stroke:#ff6600;stroke-width:1.06299996" />
    <path
       d="m 42.012,975.12 c -5.9331,-4.1266 -11.089,-8.4532 -13.967,-13.691 -0.8852,-1.6107 -2.308,-4.4478 -0.45284,-6.2145 0,0 2.6556,-0.045 3.8896,-0.52679 1.4168,-0.5531 3.7387,-2.5982 3.7387,-2.5982 1.2877,-0.89491 2.9696,1.0048 4.0157,4.3153 2.0266,6.4136 4.2708,12.953 2.7762,18.715 z"
       id="path127"
       inkscape:connector-curvature="0"
       style="fill:url(#n);fill-rule:evenodd;stroke:#ffcc00;stroke-width:0.35433" />
    <path
       d="m 26.629,952.07 c -1.3913,1.4895 -2.0383,3.735 -2.7024,5.9635 0.51226,3.5974 1.1999,7.1716 0.70223,10.905 2.5063,1.4798 4.0516,0.99741 6.0324,1.4049 l -1.435,2.8108 13.517,4.3448 c 0,0 1.2229,6.146 3.2026,12.648 1.4212,4.6679 2.4168,8.5852 4.8952,12.772 2.3662,3.9975 4.3984,8.216 7.1322,11.972 5.8526,8.0404 19.698,22.407 19.698,22.407 1.8475,0.1981 3.62,0.7945 5.7653,-0.574 4.1618,-2.3155 8.2524,-6.499 11.994,-9.673 l -2.1773,-3.0112 -7.9693,7.8424 c -2.3271,1.4685 -4.0302,2.4908 -6.846,1.5271 0,0 -9.9056,-9.8786 -13.996,-15.078 -5.2938,-6.7292 -9.6821,-13.426 -13.214,-21.225 -2.0468,-4.52 -4.064,-14.321 -4.064,-14.321 -1.4008,-9.0896 0.10701,-13.104 1.4486,-18.567 l -3.2154,-0.53412 1.2273,-5.2407 c -2.5877,-1.5274 -4.2934,-3.8428 -6.7241,-6.5492 -2.6056,-2.9527 -4.6579,-2.514 -6.4691,-3.1571 l -3.4104,2.7964 z m 1.8904,3.5737 c 0,0 2.2131,0.0686 3.2222,-0.3131 1.1585,-0.43817 3.0101,-2.1797 3.0101,-2.1797 1.0369,-0.7502 2.5172,1.0245 3.5253,4.0384 1.9531,5.8391 4.0927,11.8 3.0833,16.909 -5.1163,-3.9471 -9.5937,-8.041 -12.209,-12.86 -0.80418,-1.4818 -2.1063,-4.0861 -0.63208,-5.5954 z"
       id="path129"
       inkscape:connector-curvature="0"
       style="fill:#141535;fill-rule:evenodd;stroke:#00ff00;stroke-width:0.35433" />
    <path
       d="m 50.881,953.01 c 1.6216,-0.40543 3.5864,-0.33664 6.0842,0.29687 3.9369,1.5609 14.069,7.1619 21.324,12.906 1.2204,1.0532 3.0089,2.9096 3.4793,3.9567 4.8654,6.9424 9.1828,13.909 11.549,19.705 -1.7711,3.7995 -5.3108,6.8305 -10.244,4.9886 -2.5577,-6.4101 -6.9732,-14.561 -10.523,-16.854 l -15.23,-9.0877 c -3.1306,-4.0169 -5.2748,-9.7991 -6.4388,-15.911 z"
       id="path131"
       inkscape:connector-curvature="0"
       style="fill:url(#l);fill-rule:evenodd;stroke:#ff00ff;stroke-width:0.35433" />
    <path
       d="m 32.911,947.94 c -0.50019,0.2705 -0.87672,0.64253 -1.21,1.0105 -0.66661,0.73603 -1.2086,1.4638 -1.7139,1.7533 -0.30609,0.17537 -1.0122,0.18659 -1.8788,0.21379 -0.43331,0.0136 -0.90744,0.0448 -1.3976,0.21503 -0.49013,0.17024 -0.99398,0.51759 -1.323,1.0463 -2.19,3.5191 -2.2779,7.0767 -1.9549,10.032 0.02222,0.20327 0.05136,0.38225 0.07571,0.58061 -0.35996,0.28606 -0.7339,0.57529 -1.0813,0.85609 -1.771,1.8084 -4.021,2.9456 -5.6894,4.7324 -0.90914,0.85607 -2.8153,2.2125 -3.8226,4.929 -1.0632,9.3754 -1.9831,18.798 -2.9513,28.19498 0.09107,-0.8417 -0.12796,2.2191 0.05188,3.1154 0.43471,0.9754 1.2898,1.5923 2.1376,1.9431 7.9864,2.6955 16.084,3.5949 22.824,6.2441 -0.1612,0.2776 -0.21151,0.6839 -0.12868,0.9048 0.20447,0.5454 0.44875,0.6012 0.70485,0.7725 0.42977,0.2912 0.80845,0.4488 1.2334,0.6529 4.1309,12.489 8.4633,28.672 9.4805,32.521 0.10665,0.551 0.2317,1.0967 0.42818,1.6108 l 0.008,0.03 c 0.21317,1.2432 0.54043,2.1781 1.7146,2.0744 3.8679,-0.3435 8.7228,-1.0985 12.869,-2.465 2.073,-0.6832 3.971,-1.5144 5.5063,-2.5894 1.5353,-1.075 3.0456,-2.4094 3.1495,-4.2076 0.24152,-4.1806 -0.31203,-8.4126 -1.1306,-12.818 2.8842,3.0046 5.5841,6.2716 8.5673,9.1434 1.5219,0.7703 3.2498,0.6895 4.8918,0.1912 1.6419,-0.4983 3.2791,-1.4109 4.9014,-2.5366 3.2446,-2.2517 6.4216,-5.3848 8.8344,-8.0439 0.67106,-0.7256 0.55064,-1.3425 0.0817,-1.804 0,0 -16.718,-21.864 -23.98,-34.05498 -2.8304,-4.7513 -9.1781,-14.731 -12.67,-21.399 l 12.583,7.6627 c 1.253,0.80994 3.5885,3.831 5.6492,7.3652 1.5968,2.7386 2.7887,5.1146 3.9799,7.8112 -0.0691,-0.0113 -0.46711,0.97885 -0.55642,0.98171 -0.4061,0.43637 -0.1013,1.1336 -0.0181,1.7075 0.0829,0.2968 0.4002,1.1566 0.55304,1.5103 0.6113,1.4148 1.3018,2.40767 2.369,3.48057 0.45612,0.3133 1.1244,0.29 1.3064,0.3756 2.1683,0.205 3.7983,-0.1678 6.0384,-1.406 2.2401,-1.23807 4.2256,-2.99677 5.7579,-6.52337 0.0867,-0.0943 0.22582,-1.1474 0.25028,-1.2558 0.0203,-0.63154 -0.27268,-0.80859 -0.51462,-1.6183 -0.24197,-0.80985 -0.56802,-1.6931 -0.92807,-2.4532 -0.18,-0.38007 -0.36736,-0.72924 -0.57171,-1.0336 -0.20438,-0.30431 -0.39819,-0.57491 -0.77105,-0.79233 -0.81548,-0.44354 -1.2993,-0.3414 -2.0899,-0.36789 -2.3396,-5.912 -5.9903,-11.195 -10.128,-17.105 -0.43596,-0.78623 -1.9819,-2.6216 -2.982,-3.5022 l -0.0226,-0.0194 -0.0243,-0.0185 c -7.3684,-5.8342 -17.318,-11.982 -21.676,-13.71 -1.672,-0.41869 -3.5424,-0.49298 -5.0704,-0.24067 -0.45019,0.0503 -0.96528,0.15275 -1.4344,0.23307 0,0 -3.3697,0.57827 -7.3972,1.4781 -0.31513,0.0704 -0.64818,0.15343 -0.96965,0.22719 -0.27148,-0.35356 -0.54034,-0.70585 -0.82559,-1.0723 -1.6063,-2.0636 -3.6224,-4.2119 -7.2337,-4.8552 -0.66649,-0.11129 -1.274,0.12709 -1.8017,0.29128 z m 0.36102,2.0373 c 0.29722,-0.10527 0.67895,-0.0701 0.83893,-0.15662 0.2132,-0.1156 1.0459,0.01 1.3255,0.0595 3.0741,0.54763 3.5699,1.7315 5.1125,3.7131 0.58157,0.7495 1.1873,1.4944 1.6941,2.1257 0.95055,1.1279 2.0254,2.2029 3.4807,2.9663 l -1.4517,5.5508 3.3023,0.48068 c -4.0725,14.413 0.40982,24.98 1.8779,29.652 1.0535,3.3523 6.2951,13.85404 9.7748,18.35404 5.9242,7.6616 14.594,17.693 19.355,21.886 1.4069,0.5698 3.2438,0.097 4.3971,-0.4009 1.2839,-0.5547 2.4966,-1.5074 3.748,-2.5158 2.2478,-1.8114 4.5655,-4.6578 6.4368,-6.3276 0.54008,0.3113 1.2613,0.1898 1.3482,1.584 -2.2312,2.3206 -5.4106,5.0718 -7.8756,6.7825 -1.4693,1.0195 -3.6461,2.499 -4.8534,2.8654 -1.1308,0.3431 -3.3477,0.1399 -4.0125,-0.1458 l -12.571,-14.037 c -2.2299,-2.4902 -6.4768,-8.3144 -8.2403,-10.598 -2.627,-3.4017 -7.9485,-13.93904 -9.2494,-18.08604 -2.2281,-7.1021 -4.9067,-20.897 -4.9176,-20.946 -0.12994,-2.9277 -0.83731,-7.3526 -1.936,-11.394 -0.48213,-1.7736 -1.041,-3.4499 -1.664,-4.9005 l -0.86345,-1.7976 c -0.58647,-1.0497 -1.2388,-1.8804 -2.0852,-2.3734 -0.47166,-0.27489 -1.0124,-0.39946 -1.5025,-0.31864 -0.49054,0.0809 -0.87194,0.31894 -1.1951,0.56604 -0.6463,0.49427 -1.1629,1.0782 -1.8999,1.5335 -0.0861,0.0533 -0.82503,0.0853 -1.7452,0.21137 -0.46008,0.063 -0.98361,0.18983 -1.4733,0.51316 -0.4897,0.32337 -0.90763,0.84834 -1.1565,1.5281 l -0.02408,0.0662 -0.01366,0.0698 c -0.18592,0.96494 0.04456,1.9965 0.50264,3.1119 l 0.90162,1.8354 c 0.68025,1.1969 1.5609,2.4691 2.605,3.7804 2.5688,3.2262 6.0985,6.6289 9.8007,9.3612 l 0.0606,1.371 c -3.7652,-1.5745 -7.097,-2.7027 -10.495,-3.4549 l 1.4719,-2.8463 -6.3445,-1.3803 c 0.14731,-1.3365 -0.07162,-2.8373 -0.3007,-4.4398 l -0.28711,-2.3214 c -0.06489,-3.6447 -0.10941,-6.1681 1.6992,-7.9841 0.19734,-0.0685 0.94682,-0.82253 1.3161,-0.83412 0.73846,-0.0232 1.7348,0.10919 2.7044,-0.44651 1.0127,-0.58045 1.597,-1.4962 2.1456,-2.1019 0.0686,-0.0757 0.15903,-0.12618 0.2581,-0.16127 z m -3.867,6.3254 c 0.17718,-0.117 0.41911,-0.19156 0.73737,-0.23517 0.63651,-0.0872 1.512,0.10997 2.4346,-0.46003 0.97853,-0.60452 1.6192,-1.3072 2.0448,-1.6328 0.21284,-0.16276 0.86585,-0.17462 0.92738,-0.18472 0.62422,0.1438 0.60633,0.90596 0.99569,1.4283 l 0.92583,1.7518 c 0.61092,1.3807 1.1833,3.0734 1.6755,4.884 0.99181,3.6486 1.6151,7.6021 1.7995,10.335 -3.1312,-2.4685 -6.1315,-5.3326 -8.3164,-8.0766 -1.0471,-1.315 -1.9039,-2.577 -2.5322,-3.7073 l -0.83782,-1.8341 c -0.24357,-0.72977 -0.32764,-1.3233 -0.27039,-1.6836 0.12737,-0.29813 0.25885,-0.48069 0.41609,-0.58452 z m -5.6,8.7188 c 0.23955,1.6472 0.42604,2.9897 0.2105,3.7053 l -0.27725,0.91669 5.707,1.2424 -1.4586,2.8202 1.1599,0.22768 c 5.0365,1.1691 9.2205,2.7139 13.132,4.3967 1.099,4.6701 2.682,11.194 4.2192,16.094 1.444,4.6026 6.5136,14.71503 9.5024,18.56203 1.6945,2.1813 5.002,6.9102 7.7054,10.425 1.1949,6.1032 1.4674,10.541 1.6463,16.374 0.0465,1.5159 -1.6151,2.7412 -3.3666,3.5028 -4.3522,1.8924 -9.492,2.6327 -14.229,2.8314 -1.4083,-5.4514 -4.9954,-19.046 -8.495,-30.044 0.73437,0.2207 1.4662,0.3969 2.105,0.4475 0.32148,0.114 0.51786,-0.1238 0.80135,-0.2168 1.9448,-0.9805 3.2105,-2.946 4.106,-5.3438 0.89544,-2.3977 1.2088,-5.1049 0.0779,-8.7798 0.006,-0.1282 -0.3005,-0.497 -0.35214,-0.5949 -0.39556,-0.4928 -0.95747,-0.8784 -1.6681,-1.3359 -0.71062,-0.45751 -1.5341,-0.91504 -2.302,-1.25803 -0.3841,-0.17125 -0.75194,-0.31502 -1.1052,-0.41309 -0.35265,-0.1 -0.67689,-0.17733 -1.1015,-0.0997 -0.21223,0.0386 -0.47567,0.13665 -0.68685,0.36054 -0.21115,0.2239 -0.31157,0.54353 -0.31647,0.79669 10e-4,3.3e-4 -5.1e-4,0.0103 -2.7e-4,0.0134 -1.8269,-0.64293 -3.6893,-1.2645 -5.6263,-1.8324 -2.6338,-4.267 -5.5923,-9.2334 -7.1266,-13.638 -1.949,-7.159 -3.6967,-9.7738 -7.1606,-13.983 1.9094,-2.0122 3.14,-3.7362 4.8999,-5.1763 z m 20.365,-9.7465 c 3.075,-0.64532 5.182,-0.17957 6.0787,-0.33822 0.14162,0.64244 0.29367,1.2741 0.45911,1.8957 0.64652,2.8581 2.1217,7.7269 5.5452,12.173 4.2518,7.4054 8.9797,16.022 12.984,22.88 6.3168,10.60402 19.121,27.07502 23.123,32.22202 -2.1214,1.8035 -4.4706,4.3709 -6.7468,6.2054 -1.1681,0.9414 -2.3109,1.675 -3.3101,2.0201 -0.97491,0.3366 -2.1487,0.5205 -2.9078,0.1024 -4.5655,-4.038 -13.227,-13.634 -19.043,-21.156 -3.2134,-4.1559 -8.3221,-14.73202 -9.21,-17.44202 -4.9318,-15.049 -3.7368,-18.755 -1.3297,-30.584 l -3.3259,-0.48437 1.3174,-5.0391 c -1.4306,-0.52296 -2.7562,-1.5025 -3.635,-2.4557 z m -26.687,16.29 c 3.139,4.1121 6.2591,9.2616 6.9337,13.306 -1.6862,5.3009 -0.63678,8.7899 -1.0914,11.271 0,0 -1.771,1.3994 -2.1091,1.6969 -0.33385,0.29378 -1.8427,0.1678 -1.8427,0.1678 0,0 1.1543,0.56045 1.6768,0.58561 0.52254,0.0251 1.6552,-0.31958 1.6552,-0.31958 -0.25987,0.26123 -1.5664,3.07537 -0.77296,2.82127 0.36616,-0.9855 2.4606,-3.51817 2.8526,-3.24227 2.5097,0.41491 4.036,0.88293 6.29,1.5267 l 3.5826,0.91577 c 1.5629,0.521 3.2717,1.2001 4.9213,1.8493 0.83506,1.2885 0.99655,3.9511 0.56349,5.3584 -0.41943,1.3632 -1.8814,3.7818 -3.0539,4.1314 l -2.8834,-1.2058 c -7.4662,-3.0218 -13.228,-3.2813 -20.246,-5.2584 -0.38617,-0.1687 -1.657,-1.4462 -1.722,-1.5921 -0.06841,-0.1536 -0.6741,-1.1656 -0.42012,-1.9627 1.0226,-9.30396 2.3717,-18.20796 3.332,-27.52396 0.46809,-1.2018 1.6141,-1.8481 2.3341,-2.5249 z m 34.907,-17.101 c 1.0101,-0.17712 2.8283,-0.26244 4.2951,0.0964 3.5581,1.4309 14.067,6.6543 21.173,12.275 1.144,0.99047 2.6276,2.8418 2.9346,3.5254 4.2232,6.0903 9.4402,13.064 11.736,19.583 -0.3422,0.65633 -1.4902,2.9614 -3.2839,3.8712 -2.2211,1.1265 -3.2373,1.437 -5.0293,0.95284 -1.2976,-3.0964 -2.9715,-6.6824 -4.8971,-9.9848 -1.2306,-2.1104 -3.8498,-5.3348 -5.1466,-6.8632 0.11055,-0.6329 -0.10318,-0.995 0.29174,-1.4153 0.48433,-0.51551 1.9716,-1.3778 1.8914,-1.5685 -0.27462,-0.65364 -1.9543,0.13701 -2.6768,0.48954 -0.45719,0.22307 -0.46414,0.95591 -0.70863,1.5544 -0.50602,-0.47492 -0.87383,-0.74015 -1.3829,-1.0689 0.31965,-0.79679 -0.002,-0.57334 0.5617,-1.5302 0.56626,-0.9606 1.6074,-0.45674 1.7058,-1.1795 0.12644,-0.92898 -2.0896,-0.2602 -2.5195,0.14926 -0.49562,0.47202 -0.72072,1.167 -1.2593,1.7089 -4.3956,-2.5264 -7.4913,-4.8424 -12.065,-7.2794 -2.6593,-3.4663 -4.4486,-8.1209 -5.6207,-13.317 z m -26.725,33.128 c 1.368,3.0783 2.7447,6.211 4.0572,9.2828 -1.6382,-0.40204 -3.3319,-0.7593 -5.0971,-1.0585 0.62797,-2.553 0.6127,-5.3557 1.0399,-8.2243 z m 19.554,14.433 c 1.3352,1.0751 0.7585,6.7402 0.092,8.5248 -0.69674,1.8657 -1.8169,4.3515 -3.8104,4.8125 -0.71075,0.1643 -1.9247,-0.034 -3.2248,-0.5251 -1.3188,-0.4984 -2.7181,-1.2942 -2.6257,-1.6538 2.6747,-0.073 5.62,-3.7408 6.0227,-5.938 0.35481,-2.3674 -1.1608,-6.64 -2.0671,-7.8568 1.029,-0.97126 5.1001,2.0892 5.6133,2.6364 z m 48.286,-14.838 c 0.0988,-0.0511 1.132,1.2117 1.4265,1.837 0.30833,0.65104 1.0882,2.1544 1.3055,2.8816 0.0258,0.73884 -0.14665,0.9065 -0.12935,1.0987 -1.3963,3.1164 -3.5475,5.0868 -5.3702,6.0941 -1.7432,0.9635 -4.2496,1.4291 -6.0481,1.3107 -1.0822,-0.64439 -2.9666,-4.2868 -2.5863,-5.5665 0.82498,0.25611 2.0928,1.4669 3.5138,1.4537 1.2367,-0.0115 6.176,-0.73235 8.215,-4.9847 0.44828,-0.93491 0.27557,-3.0769 -0.32682,-4.1246 z m -27.603,39.117 c 0.82423,0.8157 0.74638,0.8187 1.3769,1.5983 0.70647,4.5632 1.2676,8.8101 1.2846,13.217 0.003,0.8083 -1.2784,2.798 -2.4117,3.5916 -1.1868,0.8312 -3.3759,1.9818 -5.2811,2.6096 -3.4439,1.1349 -8.7383,1.9676 -12.248,2.3388 -0.40705,0.104 -1.0469,-1.2785 -0.57959,-1.749 0.87415,0.014 2.4522,-0.1675 3.3118,-0.3097 4.7263,-0.782 9.8332,-1.5501 13.933,-4.1108 1.2613,-0.7878 1.9986,-2.7005 1.8295,-4.1894 -0.52582,-4.6294 -0.82237,-8.3534 -1.2157,-12.996 z"
       style="color:#000000;text-indent:0;text-decoration:none;text-decoration-line:none;text-decoration-style:solid;text-decoration-color:#000000;text-transform:none;white-space:normal;isolation:auto;mix-blend-mode:normal;solid-color:#000000;fill-rule:evenodd;color-rendering:auto;image-rendering:auto;shape-rendering:auto"
       id="path133"
       inkscape:connector-curvature="0" />
    <path
       d="m 45.541,1000.8 c -1.0496,4.4528 -2.9239,10.866 -5.4203,15.514 l 5.2603,0.9215 c 2.0013,-3.8972 3.7755,-9.2404 3.2599,-13.999 -1.0417,-0.8511 -2.1869,-2.1867 -3.1,-2.4361 z"
       id="path135"
       inkscape:connector-curvature="0"
       style="fill:#302d61;fill-rule:evenodd;stroke:#ff6600;stroke-width:0.35433" />
    <path
       d="m 45.509,1001 c -1.0496,4.4528 -2.9239,10.866 -5.4203,15.514 l 5.2603,0.9215 c 2.0013,-3.8972 3.7755,-9.2404 3.26,-13.999 -1.0417,-0.8511 -2.187,-2.1867 -3.1,-2.4361 z"
       id="path137"
       inkscape:connector-curvature="0"
       style="fill:url(#m);fill-rule:evenodd;stroke:#ff6600;stroke-width:0.35433" />
    <path
       d="m 44.99,1000.2 c -0.23292,0.1141 -0.3978,0.3324 -0.45715,0.585 -0.67829,4.6489 -2.2382,10.633 -5.0313,14.917 -0.29693,0.552 0.05766,1.2294 0.68051,1.2999 l 4.9474,0.5576 c 0.3658,0.041 0.71909,-0.1469 0.88784,-0.474 2.047,-3.9864 3.6145,-8.6935 3.0726,-13.694 -0.024,-0.2183 -0.12819,-0.42 -0.29242,-0.5658 l -2.8145,-2.4989 c -0.27312,-0.2431 -0.66757,-0.2935 -0.99304,-0.1268 z m 0.83658,1.3844 c 0.9949,-0.1213 1.5668,1.1749 2.5068,1.9161 0.37448,4.2013 -1.2541,9.6529 -3.0286,13.247 -1.4823,-0.4472 -4.8842,-0.6495 -4.1468,-1.4381 2.5209,-3.9619 4.1612,-9.6226 4.6686,-13.725 z"
       style="color:#000000;text-indent:0;text-decoration:none;text-decoration-line:none;text-decoration-style:solid;text-decoration-color:#000000;text-transform:none;white-space:normal;isolation:auto;mix-blend-mode:normal;solid-color:#000000;fill-rule:evenodd;color-rendering:auto;image-rendering:auto;shape-rendering:auto"
       id="path139"
       inkscape:connector-curvature="0" />
    <path
       d="m 58.022,993.66 c 4.1621,1.8989 8.6904,3.628 13.893,4.5029 0.68583,1.4987 -0.69685,3.4556 -1.6446,4.3051 -4.1133,-0.4127 -9.722,-1.8905 -13.263,-5.4102 0.25548,-1.5194 0.4792,-3.1874 1.0146,-3.3978 z"
       id="path141"
       inkscape:connector-curvature="0"
       style="fill:#302d61;fill-rule:evenodd;stroke:#ff00ff;stroke-width:0.35433" />
    <path
       d="m 58.072,993.64 c 4.1621,1.899 8.6904,3.628 13.893,4.5029 0.68583,1.4987 -0.69685,3.4556 -1.6446,4.3051 -4.1133,-0.4127 -9.722,-1.8905 -13.263,-5.4102 0.25548,-1.5194 0.4792,-3.1874 1.0146,-3.3978 z"
       id="path143"
       inkscape:connector-curvature="0"
       style="fill:url(#o);fill-rule:evenodd;stroke:#ff00ff;stroke-width:0.35433" />
    <path
       d="m 57.574,992.72 c -0.20778,0.10179 -0.36338,0.28604 -0.43731,0.5057 -0.46544,1.3855 -0.54779,2.6058 -0.55122,3.7089 -0.0011,0.24178 0.09681,0.47356 0.27089,0.6415 3.6804,3.5507 8.8212,4.6358 13.148,5.4459 0.23738,0.044 0.48261,-0.01 0.67904,-0.15 1.6095,-1.1537 1.8836,-2.9048 1.9547,-4.3378 0.02248,-0.4485 -0.29411,-0.84279 -0.73685,-0.91779 -5.043,-0.84815 -9.3726,-3.007 -13.556,-4.9155 -0.24656,-0.11178 -0.53076,-0.10483 -0.77147,0.0191 z m 1.0185,1.8039 c 3.626,1.6724 7.7179,3.3548 12.263,4.2592 1.1623,0.3066 0.2637,2.5136 -0.60967,3.1735 -4.6446,-0.02 -9.8103,-1.9269 -12.625,-5.0246 0.01342,-0.56579 -0.13819,-2.6208 0.97198,-2.4081 z"
       style="color:#000000;text-indent:0;text-decoration:none;text-decoration-line:none;text-decoration-style:solid;text-decoration-color:#000000;text-transform:none;white-space:normal;isolation:auto;mix-blend-mode:normal;solid-color:#000000;fill-rule:evenodd;color-rendering:auto;image-rendering:auto;shape-rendering:auto"
       id="path145"
       inkscape:connector-curvature="0" />
    <path
       d="m 54.168,995.48 a 1.4103,1.4375 0 0 1 -1.4097,1.4375 1.4103,1.4375 0 0 1 -1.411,-1.4362 1.4103,1.4375 0 0 1 1.4084,-1.4388 1.4103,1.4375 0 0 1 1.4122,1.4349"
       id="path147"
       inkscape:connector-curvature="0"
       style="color:#000000;fill-rule:evenodd;stroke:#000000;stroke-width:1.06299996;stroke-linejoin:round" />
    <path
       d="m 58.632,1003.8 a 1.4103,1.4375 0 0 1 -1.4097,1.4375 1.4103,1.4375 0 0 1 -1.411,-1.4362 1.4103,1.4375 0 0 1 1.4084,-1.4388 1.4103,1.4375 0 0 1 1.4122,1.4349"
       id="path149"
       inkscape:connector-curvature="0"
       style="color:#000000;fill-rule:evenodd;stroke:#000000;stroke-width:1.06299996;stroke-linejoin:round" />
    <path
       d="m 63.632,1011.2 a 1.4103,1.4375 0 0 1 -1.4097,1.4375 1.4103,1.4375 0 0 1 -1.411,-1.4362 1.4103,1.4375 0 0 1 1.4084,-1.4388 1.4103,1.4375 0 0 1 1.4122,1.4349"
       id="path151"
       inkscape:connector-curvature="0"
       style="color:#000000;fill-rule:evenodd;stroke:#000000;stroke-width:1.06299996;stroke-linejoin:round" />
  </g>
</svg>
