<?xml version="1.0" encoding="UTF-8" standalone="no"?>
<svg
   version="1.1"
   x="0"
   y="0"
   width="125mm"
   height="88mm"
   viewBox="0 0 125 88"
   id="svg26981"
   inkscape:version="1.2.2 (732a01da63, 2022-12-09)"
   sodipodi:docname="curry_and_rice.svg"
   xmlns:inkscape="http://www.inkscape.org/namespaces/inkscape"
   xmlns:sodipodi="http://sodipodi.sourceforge.net/DTD/sodipodi-0.dtd"
   xmlns="http://www.w3.org/2000/svg"
   xmlns:svg="http://www.w3.org/2000/svg"
   xmlns:rdf="http://www.w3.org/1999/02/22-rdf-syntax-ns#"
   xmlns:cc="http://creativecommons.org/ns#"
   xmlns:dc="http://purl.org/dc/elements/1.1/">
  <metadata
     id="metadata27563">
    <rdf:RDF>
      <cc:Work
         rdf:about="">
        <dc:format>image/svg+xml</dc:format>
        <dc:type
           rdf:resource="http://purl.org/dc/dcmitype/StillImage" />
        <cc:license
           rdf:resource="http://creativecommons.org/publicdomain/zero/1.0/" />
      </cc:Work>
      <cc:License
         rdf:about="http://creativecommons.org/publicdomain/zero/1.0/">
        <cc:permits
           rdf:resource="http://creativecommons.org/ns#Reproduction" />
        <cc:permits
           rdf:resource="http://creativecommons.org/ns#Distribution" />
        <cc:permits
           rdf:resource="http://creativecommons.org/ns#DerivativeWorks" />
      </cc:License>
    </rdf:RDF>
  </metadata>
  <sodipodi:namedview
     pagecolor="#ffffff"
     bordercolor="#666666"
     borderopacity="1"
     objecttolerance="10"
     gridtolerance="10"
     guidetolerance="10"
     inkscape:pageopacity="0"
     inkscape:pageshadow="2"
     inkscape:window-width="1916"
     inkscape:window-height="1035"
     id="namedview27561"
     showgrid="false"
     inkscape:zoom="1.8838653"
     inkscape:cx="378.47716"
     inkscape:cy="186.05364"
     inkscape:window-x="4"
     inkscape:window-y="1"
     inkscape:window-maximized="1"
     inkscape:current-layer="publicdomainq-0003409flqgqo"
     inkscape:showpageshadow="0"
     inkscape:pagecheckerboard="0"
     inkscape:deskcolor="#d1d1d1"
     inkscape:document-units="mm" />
  <defs
     id="defs26983">
    <clipPath
       id="Clip_1">
      <path
         d="M 12.039,5.039 H 280.991 V 168.962 H 12.039 Z"
         id="path26986" />
    </clipPath>
    <clipPath
       id="Clip_2">
      <path
         d="M 12.039,5.039 H 280.991 V 168.962 H 12.039 Z"
         id="path26989" />
    </clipPath>
    <linearGradient
       id="Gradient_1"
       gradientUnits="userSpaceOnUse"
       x1="214.19701"
       y1="7.0009999"
       x2="214.19701"
       y2="18.056">
      <stop
         offset="0"
         stop-color="#FFFFFE"
         id="stop26992" />
      <stop
         offset="1"
         stop-color="#CCDBDF"
         id="stop26994" />
    </linearGradient>
    <linearGradient
       id="Gradient_2"
       gradientUnits="userSpaceOnUse"
       x1="214.19701"
       y1="28.167999"
       x2="214.19701"
       y2="69.192001">
      <stop
         offset="0"
         stop-color="#FFFFFE"
         id="stop26997" />
      <stop
         offset="1"
         stop-color="#CCDBDF"
         id="stop26999" />
    </linearGradient>
    <linearGradient
       id="Gradient_3"
       gradientUnits="userSpaceOnUse"
       x1="214.19701"
       y1="28.167999"
       x2="214.19701"
       y2="69.192001">
      <stop
         offset="0"
         stop-color="#E3E4E2"
         id="stop27002" />
      <stop
         offset="1"
         stop-color="#B8C7CA"
         id="stop27004" />
    </linearGradient>
    <linearGradient
       id="Gradient_4"
       gradientUnits="userSpaceOnUse"
       x1="214.19701"
       y1="28.167999"
       x2="214.19701"
       y2="69.192001">
      <stop
         offset="0"
         stop-color="#9E9F9E"
         id="stop27007" />
      <stop
         offset="1"
         stop-color="#808C90"
         id="stop27009" />
    </linearGradient>
    <linearGradient
       id="Gradient_5"
       gradientUnits="userSpaceOnUse"
       x1="214.19701"
       y1="28.167999"
       x2="214.19701"
       y2="69.192001">
      <stop
         offset="0"
         stop-color="#919291"
         id="stop27012" />
      <stop
         offset="1"
         stop-color="#768285"
         id="stop27014" />
    </linearGradient>
    <linearGradient
       id="Gradient_6"
       gradientUnits="userSpaceOnUse"
       x1="214.19701"
       y1="28.167999"
       x2="214.19701"
       y2="69.192001">
      <stop
         offset="0"
         stop-color="#9E9F9E"
         id="stop27017" />
      <stop
         offset="1"
         stop-color="#808C90"
         id="stop27019" />
    </linearGradient>
    <linearGradient
       id="Gradient_7"
       gradientUnits="userSpaceOnUse"
       x1="214.19701"
       y1="28.167999"
       x2="214.19701"
       y2="69.192001">
      <stop
         offset="0"
         stop-color="#919291"
         id="stop27022" />
      <stop
         offset="1"
         stop-color="#768285"
         id="stop27024" />
    </linearGradient>
    <clipPath
       id="Clip_3">
      <path
         d="M 149.585,349.236 H 266.889 V 265.011 H 149.585 Z"
         id="path27027" />
    </clipPath>
    <clipPath
       id="Clip_4">
      <path
         d="M 131.264,240.328 H 214.98 V 204.705 H 131.264 Z"
         id="path27030" />
    </clipPath>
  </defs>
  <g
     id="Layer_1"
     transform="translate(-11.309012,-10.127958)">
    <g
       id="publicdomainq-0003409flqgqo"
       transform="matrix(1.6463364,0,0,2.0235975,-433.25824,7.9328406)">
      <g
         id="g28105"
         transform="matrix(0.2558828,0,0,0.2558828,195.04154,0.05709098)">
        <path
           style="fill:#fefefe"
           inkscape:connector-curvature="0"
           id="path27219"
           d="m 294.568,100.915 c -1.695,-13.319 5.057,-35.418 40.885,-56.421 17.093,-10.021 40.91,-19.555 73.389,-28.211 39.3,-10.475 75.76,-13.142 104.666,-10.017 34.841,3.766 59.692,15.741 68.073,31.277 6.925,12.836 7.741,20.872 4.702,34.344 -3.287,14.57 -15.832,31.56 -31.277,47.018 -19.352,19.368 -50.985,36.917 -87.903,45.382 -48.556,11.131 -90.152,9.199 -129.81,-11.652 -29.312,-15.412 -41.294,-40.477 -42.725,-51.72" />
        <path
           style="fill-opacity:0;stroke:#d3d1ca;stroke-width:1"
           inkscape:connector-curvature="0"
           id="path27221"
           d="m 295.068,101.415 c -1.695,-13.319 5.057,-35.418 40.885,-56.421 17.093,-10.021 40.91,-19.555 73.389,-28.211 39.3,-10.475 75.76,-13.142 104.666,-10.017 34.841,3.766 59.692,15.741 68.073,31.277 6.925,12.836 7.741,20.872 4.702,34.344 -3.287,14.57 -15.832,31.56 -31.277,47.018 -19.352,19.368 -50.985,36.917 -87.903,45.382 -48.556,11.131 -90.152,9.199 -129.81,-11.652 -29.312,-15.412 -41.294,-40.477 -42.725,-51.72 z" />
        <path
           style="fill:#cfcdc5"
           inkscape:connector-curvature="0"
           id="path27223"
           d="m 302.881,119.382 c 0,0 39.292,32.376 102.624,34.751 58.195,2.181 91.447,-11.379 113.116,-20.579 25.859,-10.978 48.446,-29.777 48.446,-29.777 0,0 -4.167,6.722 -13.152,14.921 -13.628,12.439 -32.609,26.336 -60.374,36.524 -14.856,5.451 -23.899,7.883 -35.295,9.95 -24.804,4.497 -46.578,5.628 -65.961,3.406 -27.938,-3.202 -54.038,-15.397 -67.871,-25.891 -12.906,-9.792 -21.533,-23.305 -21.533,-23.305" />
        <path
           style="fill:#c8c6be"
           inkscape:connector-curvature="0"
           id="path27225"
           d="m 518.621,133.554 c -21.669,9.2 -54.921,22.76 -113.116,20.579 -32.43,-1.217 -58.558,-10.3 -76.334,-18.876 -0.237,-0.115 -0.472,-0.228 -0.707,-0.342 0,0 24.026,20.58 74.45,22.762 65.438,2.831 115.707,-24.123 115.707,-24.123" />
        <path
           style="fill:#dddbd5"
           inkscape:connector-curvature="0"
           id="path27227"
           d="m 414.77,16.487 c 82.792,-20.647 145.603,-5.818 163.131,18.194 20.443,28.007 2.284,77.866 -82.316,105.008 -38.799,12.448 -68.848,16.213 -121.291,7.835 -34.548,-5.519 -69.793,-24.442 -74.207,-41.294 -9.998,-38.164 32.192,-69.171 114.683,-89.743" />
        <path
           style="fill:#fefefe"
           inkscape:connector-curvature="0"
           id="path27229"
           d="m 558.277,105.342 -0.272,-3.815 c 0,0 1.636,-1.091 1.636,-2.998 0,-1.907 3.679,-2.041 1.499,-3.405 -2.18,-1.364 -4.226,1.223 -1.228,-0.412 2.998,-1.635 0.546,0 -0.271,-2.725 -0.818,-2.724 1.362,-1.906 1.089,-3.542 -0.273,-1.635 -0.818,-1.91 0.273,-4.363 1.091,-2.453 0.273,-1.362 0,-2.998 -0.273,-1.635 -1.362,-3.271 -3.271,-4.906 -1.908,-1.635 -4.906,-6.542 -5.179,-7.359 -0.273,-0.818 -2.725,-3.816 -4.906,-5.18 -2.182,-1.363 0,0 -3.543,-2.725 -3.542,-2.725 -10.358,-20.715 -11.176,-22.078 -0.818,-1.363 -0.272,-1.09 -0.818,-2.453 -0.546,-1.363 -1.362,-2.181 -4.36,-3.543 -2.997,-1.362 -4.635,-2.181 -4.635,-2.999 0,-0.817 -4.906,-2.18 -7.63,-4.36 -2.725,-2.18 -1.909,0.272 -5.18,-1.091 -3.27,-1.363 -3.815,-1.363 -5.179,-2.726 -1.364,-1.363 -2.453,-1.09 -6.542,-1.363 -4.088,-0.273 -5.995,0.818 -7.359,0 -1.364,-0.817 -1.089,-0.817 -2.18,-1.09 -1.091,-0.272 -2.18,3.271 -3.271,2.453 -1.09,-0.817 -2.453,0.818 -3.27,0.818 -0.818,0 -2.454,1.635 -5.18,3.543 -2.726,1.908 -0.817,0 -3.271,-0.818 -2.453,-0.817 -1.635,0.818 -3.815,2.727 -2.18,1.908 -1.909,1.362 -5.179,1.635 -3.271,0.273 -4.907,1.635 -6.542,1.908 -1.635,0.272 -0.818,0 -5.178,0 -4.36,0 -2.453,0 -3.817,-0.546 -1.364,-0.545 -2.453,-1.635 -4.088,-2.453 -1.636,-0.817 -1.908,0 -5.451,-0.272 -3.543,-0.272 -1.635,0 -2.453,0 -0.818,0 -0.818,1.635 -3.271,1.363 -2.453,-0.272 0,0 -1.635,-0.545 -1.636,-0.546 -2.181,-0.273 -3.271,-0.546 -1.09,-0.273 -3.816,2.181 -5.452,2.999 -1.635,0.817 -0.272,1.09 -3.815,1.363 -3.543,0.273 0,0 -1.363,-0.546 -1.363,-0.545 -1.363,1.364 -1.363,1.364 l -2.453,3.815 v 0.818 c 0,0 1.363,5.724 2.726,7.359 1.363,1.635 11.72,10.903 16.898,14.992 5.179,4.088 17.718,11.72 28.075,19.625 10.357,7.903 32.981,23.713 32.981,23.713 0,0 5.997,3.271 9.539,4.088 3.542,0.818 12.539,5.997 17.172,9.54 4.633,3.542 7.632,5.179 9.541,5.452 0.742,0.107 1.94,0.088 3.173,-0.006 7.373,-4.06 13.871,-8.329 19.529,-12.732 0.901,-0.931 1.645,-1.706 1.829,-1.98 0.546,-0.818 1.907,-3 1.907,-3" />
        <path
           style="fill:#6e4325"
           inkscape:connector-curvature="0"
           id="path27231"
           d="m 530.749,114.61 c -1.09,-3.271 -0.544,-0.545 -0.817,-5.724 -0.273,-5.179 -0.818,-9.268 -4.362,-10.086 -3.544,-0.817 -5.724,1.09 -8.177,-2.453 -2.453,-3.542 2.455,-3.542 -3.815,-5.45 -6.27,-1.909 -3.271,-1.363 -8.45,-4.089 -5.18,-2.726 -5.726,-3.271 -11.721,-4.088 -5.996,-0.818 -4.905,-2.454 -8.449,-5.997 -3.544,-3.544 -3.817,-6.814 -6.815,-7.087 -2.997,-0.273 -4.634,-2.998 -7.632,-4.634 -2.998,-1.635 -0.271,-1.636 -7.086,-3.816 -6.815,-2.18 -13.082,-4.905 -16.081,-8.721 -2.999,-3.817 -9.814,-7.905 -13.63,-10.358 -3.815,-2.453 -5.723,-4.634 -8.177,-4.906 -2.453,-0.273 -5.997,-1.364 -7.359,-1.364 -1.362,0 -1.362,-1.09 -4.633,0.546 -3.271,1.635 -3.815,1.363 -6.542,2.181 -2.726,0.817 -5.724,0.817 -7.632,1.09 -1.908,0.272 -7.087,-0.273 -10.63,-0.546 -3.543,-0.272 -8.177,0.818 -8.177,0.818 l -4.906,0.818 c 0,0 -24.805,10.63 -38.432,22.623 -13.628,11.993 -22.896,24.259 -25.621,34.071 -2.726,9.813 -1.908,18.263 0.545,22.351 0.669,1.115 2.222,3.18 4.6,5.697 14.441,10.039 36.123,18.615 57.544,22.038 52.443,8.378 82.492,4.613 121.291,-7.835 17.584,-5.641 32.286,-12.266 44.38,-19.47 -0.702,-0.379 -1.649,-0.872 -2.947,-1.521 -4.906,-2.453 -5.178,-0.817 -6.269,-4.088" />
        <path
           style="fill:#603b22"
           inkscape:connector-curvature="0"
           id="path27233"
           d="m 409.659,92.534 c 0,0 8.791,5.519 14.923,4.293 6.133,-1.227 15.946,-2.862 19.83,-3.067 3.884,-0.204 9.608,0 9.608,0 0,0 -18.399,4.293 -26.78,4.906 -8.381,0.614 -8.79,1.636 -12.674,-0.817 -3.884,-2.453 -4.907,-5.315 -4.907,-5.315" />
        <path
           style="fill:#603b22"
           inkscape:connector-curvature="0"
           id="path27235"
           d="m 476.507,118.087 c 0,0 -4.702,12.879 -9.609,13.492 -4.906,0.613 -8.381,-1.227 -12.674,-1.431 -4.293,-0.205 -9.812,0.818 -9.812,0.818 0,0 6.95,0.204 13.696,1.431 6.746,1.226 9.404,4.497 12.879,0.408 3.475,-4.088 5.52,-14.718 5.52,-14.718" />
        <path
           style="fill:#603b22"
           inkscape:connector-curvature="0"
           id="path27237"
           d="m 365.095,135.259 c 0,0 1.635,-0.818 4.088,0.817 2.453,1.636 5.111,3.68 9.199,3.884 4.089,0.205 21.465,0 21.465,0 0,0 -5.724,3.271 -12.266,3.067 -6.541,-0.205 -16.558,-1.84 -19.011,-4.293 -2.453,-2.453 -4.293,-3.884 -3.475,-3.475" />
        <path
           style="fill:#603b22"
           inkscape:connector-curvature="0"
           id="path27239"
           d="m 359.984,79.246 c 0,0 2.862,4.497 5.928,3.68 3.067,-0.818 8.995,-3.271 13.492,-3.271 4.498,0 -2.862,0.613 -7.359,2.657 -4.497,2.045 -9.403,1.431 -10.221,0.614 -0.818,-0.818 -1.84,-3.68 -1.84,-3.68" />
        <path
           style="fill:#603b22"
           inkscape:connector-curvature="0"
           id="path27241"
           d="m 347.31,108.888 c 0,0 1.226,-1.84 5.724,-1.022 4.497,0.817 7.563,1.635 7.563,1.635 0,0 0.409,0.409 -4.906,0.204 -5.315,-0.204 -8.381,-0.817 -8.381,-0.817" />
        <path
           style="fill:#603b22"
           inkscape:connector-curvature="0"
           id="path27243"
           d="m 402.913,63.096 c 0.614,0.205 1.636,1.023 7.973,1.023 h 12.674 c 0,0 -1.431,1.43 -8.381,1.635 -6.951,0.204 -12.266,-2.658 -12.266,-2.658" />
        <path
           style="fill:#603b22"
           inkscape:connector-curvature="0"
           id="path27245"
           d="m 473.236,92.125 c 1.431,-1.022 2.453,-1.431 7.768,-1.431 h 5.315 c 0,0 -1.227,1.022 -3.475,2.248 -2.249,1.227 -0.818,1.84 -4.293,1.636 -3.475,-0.205 -4.906,-1.636 -4.906,-1.636 z" />
        <path
           style="fill:#603b22"
           inkscape:connector-curvature="0"
           id="path27247"
           d="m 522.093,103.164 c 1.446,0 -1.431,2.657 -3.679,1.635 -2.249,-1.022 -3.067,-0.818 -1.84,-2.044 1.226,-1.227 3.066,-1.022 4.497,-1.431 1.431,-0.409 3.067,-1.227 3.067,-1.227 0,0 -6.542,3.067 -2.045,3.067" />
        <path
           style="fill:#603b22"
           inkscape:connector-curvature="0"
           id="path27249"
           d="m 323.187,105.617 c -0.408,1.226 -3.27,5.315 -3.27,5.315 0,0 -6.133,1.226 2.453,1.635 8.586,0.409 11.039,3.68 8.586,0.409 -2.453,-3.271 -3.68,1.227 -4.498,-3.679 l -0.817,-4.907 z" />
        <path
           style="fill:#603b22"
           inkscape:connector-curvature="0"
           id="path27251"
           d="m 344.857,65.549 c 0,0 -9.404,6.133 -12.675,11.039 -3.271,4.907 -8.177,12.675 -10.63,19.625 -2.453,6.951 -5.315,6.542 -4.088,0.409 1.226,-6.133 3.679,-10.63 10.221,-18.398 6.541,-7.768 18.398,-12.675 18.398,-12.675 z" />
        <path
           style="fill:#603b22"
           inkscape:connector-curvature="0"
           id="path27253"
           d="m 418.859,145.275 c 0,0 10.221,2.454 24.939,-1.226 14.719,-3.68 31.891,-5.724 31.891,-5.724 0,0 -26.984,13.083 -39.659,11.039 -12.674,-2.044 -18.398,-4.906 -17.171,-4.089" />
        <path
           style="fill:#603b22"
           inkscape:connector-curvature="0"
           id="path27255"
           d="m 369.796,48.378 c 2.454,-2.044 7.769,-4.089 12.266,-5.315 4.497,-1.227 15.945,-1.227 15.945,-1.227 z" />
        <path
           style="fill:#f3f0e9"
           inkscape:connector-curvature="0"
           id="path27257"
           d="m 547.135,79.655 c 0.205,0.306 0.818,0.818 0.818,1.124 0,0.307 0.102,1.227 0.102,1.636 0,0.408 -0.92,2.35 0,1.226 0.92,-1.124 0.716,-1.737 1.227,-1.635 0.511,0.102 0.715,-0.614 1.329,-0.102 0.613,0.511 1.328,0.715 1.635,0.511 0.307,-0.205 1.635,-0.307 0.511,-0.511 -1.124,-0.205 0.511,-1.943 0.409,-2.351 -0.102,-0.409 -0.511,-1.227 -1.329,-1.534 -0.817,-0.306 -3.271,-1.635 -3.577,-1.431 -0.307,0.205 -1.431,0.614 -1.329,0.92 0.102,0.307 0.204,2.147 0.204,2.147" />
        <path
           style="fill:#e52329"
           inkscape:connector-curvature="0"
           id="path27259"
           d="m 529.248,39.111 c 0,0 -1.907,0.135 -2.453,-0.137 -0.546,-0.272 -1.228,-1.09 -1.773,-0.681 -0.544,0.409 -0.955,0.953 -0.817,1.499 0.137,0.545 0.955,2.044 0.955,2.044 v 1.227 c 0,0 -3.137,-0.273 -3.408,0.272 -0.272,0.545 -1.225,1.227 -1.498,1.909 -0.274,0.681 -1.637,1.09 -0.547,2.044 1.091,0.953 1.5,2.044 1.5,2.725 0,0.681 1.091,2.453 1.091,2.453 -0.818,0.273 -1.089,-1.091 -1.227,0.273 -0.137,1.363 -0.137,2.997 -0.682,4.088 -0.544,1.091 -1.364,1.771 -0.273,2.453 1.091,0.682 2.455,0.682 3.817,0.682 1.363,0 1.227,-0.001 2.862,0.954 1.636,0.954 4.089,4.225 4.089,4.225 l -1.091,1.907 c 0,0 -1.091,0.954 -1.636,1.227 -0.544,0.273 -1.908,0 -2.453,0.409 -0.544,0.409 -1.225,1.09 -0.135,1.635 1.089,0.546 2.724,1.227 2.724,1.227 0,0 -2.316,1.09 0.273,0.409 2.589,-0.682 1.5,-0.817 3.271,-1.363 1.771,-0.545 2.862,-1.091 2.862,-0.545 0,0.545 -0.545,0.953 -1.635,1.908 -1.091,0.954 -3.68,2.317 -3.68,2.317 0,0 -0.545,1.635 1.091,1.908 1.635,0.272 2.453,1.362 4.224,2.725 1.771,1.363 2.862,2.18 3.68,2.044 0.817,-0.135 0.953,-0.954 1.226,-1.635 0.273,-0.681 -1.091,-1.907 0.136,-1.771 1.227,0.135 2.59,-0.273 3.817,0.409 1.227,0.681 0.546,1.634 2.453,0.953 1.907,-0.681 1.362,-1.907 2.589,-1.362 1.227,0.544 1.773,0.953 1.909,1.362 0.135,0.409 -1.499,1.636 0.408,1.909 1.907,0.272 0.818,0.408 2.453,0.135 1.636,-0.272 0.952,0.273 2.725,0.409 1.773,0.137 2.455,0.409 2.999,1.227 0.545,0.817 1.227,2.589 1.227,2.589 0,0 -0.546,3.135 -0.682,3.953 -0.136,0.818 -0.816,0.68 -0.545,2.18 0.272,1.5 0.409,2.18 0.954,3.271 0.544,1.091 -0.681,1.637 -0.545,2.317 0.136,0.681 1.498,0.818 1.907,0.954 0.409,0.135 -0.137,0.817 2.862,-0.818 2.999,-1.635 4.906,-3.542 5.724,-4.633 0.818,-1.091 4.635,-7.224 6.679,-10.086 2.044,-2.862 1.769,-5.316 2.316,-7.495 0.546,-2.18 1.908,-3.816 1.908,-4.77 0,-0.954 0.273,-3.68 0.273,-3.68 0,0 1.09,-6.133 1.771,-7.768 0.682,-1.635 0.956,-3.543 1.091,-4.77 0.136,-1.226 0.138,-2.726 -0.817,-2.18 -0.955,0.545 -2.728,2.861 -4.226,3.543 -1.498,0.682 -2.862,0.953 -2.998,0.409 -0.136,-0.545 0.136,-1.907 -0.273,-2.589 -0.409,-0.682 -0.955,-2.18 -1.227,-3.271 -0.271,-1.091 0.818,-5.044 0,-6.815 -0.817,-1.771 -1.633,-3.815 -3.133,-3.815 -1.5,0 -2.453,2.453 -2.726,0 -0.273,-2.453 -1.909,-3.135 -1.091,-4.225 0.818,-1.09 1.228,-2.453 1.364,-3.68 0.136,-1.227 1.091,-2.725 0,-2.725 -1.091,0 0,-1.09 -2.726,0 -2.727,1.09 -3.816,0.681 -5.724,1.498 -1.909,0.818 -1.909,1.499 -3.544,1.499 -1.636,0 -2.996,-0.271 -3.543,-0.544 -0.546,-0.273 -2.999,-0.955 -3.952,-0.955 -0.954,0 -2.318,-0.818 -3.68,0.273 -1.362,1.091 -2.999,2.589 -3.953,3.679 -0.953,1.091 -2.999,1.499 -4.497,1.636 -1.498,0.136 -3.542,0.137 -4.36,0.682 -0.818,0.544 -1.91,1.635 -1.773,2.044 0.138,0.409 -1.907,0.818 -1.907,0.818" />
        <path
           style="fill-opacity:0;stroke:#e52329;stroke-width:0.5"
           inkscape:connector-curvature="0"
           id="path27261"
           d="m 529.748,39.611 c 0,0 -1.907,0.135 -2.453,-0.137 -0.546,-0.272 -1.228,-1.09 -1.773,-0.681 -0.544,0.409 -0.955,0.953 -0.817,1.499 0.137,0.545 0.955,2.044 0.955,2.044 v 1.227 c 0,0 -3.137,-0.273 -3.408,0.272 -0.272,0.545 -1.225,1.227 -1.498,1.909 -0.274,0.681 -1.637,1.09 -0.547,2.044 1.091,0.953 1.5,2.044 1.5,2.725 0,0.681 1.091,2.453 1.091,2.453 -0.818,0.273 -1.089,-1.091 -1.227,0.273 -0.137,1.363 -0.137,2.997 -0.682,4.088 -0.544,1.091 -1.364,1.771 -0.273,2.453 1.091,0.682 2.455,0.682 3.817,0.682 1.363,0 1.227,-0.001 2.862,0.954 1.636,0.954 4.089,4.225 4.089,4.225 l -1.091,1.907 c 0,0 -1.091,0.954 -1.636,1.227 -0.544,0.273 -1.908,0 -2.453,0.409 -0.544,0.409 -1.225,1.09 -0.135,1.635 1.089,0.546 2.724,1.227 2.724,1.227 0,0 -2.316,1.09 0.273,0.409 2.589,-0.682 1.5,-0.817 3.271,-1.363 1.771,-0.545 2.862,-1.091 2.862,-0.545 0,0.545 -0.545,0.953 -1.635,1.908 -1.091,0.954 -3.68,2.317 -3.68,2.317 0,0 -0.545,1.635 1.091,1.908 1.635,0.272 2.453,1.362 4.224,2.725 1.771,1.363 2.862,2.18 3.68,2.044 0.817,-0.135 0.953,-0.954 1.226,-1.635 0.273,-0.681 -1.091,-1.907 0.136,-1.771 1.227,0.135 2.59,-0.273 3.817,0.409 1.227,0.681 0.546,1.634 2.453,0.953 1.907,-0.681 1.362,-1.907 2.589,-1.362 1.227,0.544 1.773,0.953 1.909,1.362 0.135,0.409 -1.499,1.636 0.408,1.909 1.907,0.272 0.818,0.408 2.453,0.135 1.636,-0.272 0.952,0.273 2.725,0.409 1.773,0.137 2.455,0.409 2.999,1.227 0.545,0.817 1.227,2.589 1.227,2.589 0,0 -0.546,3.135 -0.682,3.953 -0.136,0.818 -0.816,0.68 -0.545,2.18 0.272,1.5 0.409,2.18 0.954,3.271 0.544,1.091 -0.681,1.637 -0.545,2.317 0.136,0.681 1.498,0.818 1.907,0.954 0.409,0.135 -0.137,0.817 2.862,-0.818 2.999,-1.635 4.906,-3.542 5.724,-4.633 0.818,-1.091 4.635,-7.224 6.679,-10.086 2.044,-2.862 1.769,-5.316 2.316,-7.495 0.546,-2.18 1.908,-3.816 1.908,-4.77 0,-0.954 0.273,-3.68 0.273,-3.68 0,0 1.09,-6.133 1.771,-7.768 0.682,-1.635 0.956,-3.543 1.091,-4.77 0.136,-1.226 0.138,-2.726 -0.817,-2.18 -0.955,0.545 -2.728,2.861 -4.226,3.543 -1.498,0.682 -2.862,0.953 -2.998,0.409 -0.136,-0.545 0.136,-1.907 -0.273,-2.589 -0.409,-0.682 -0.955,-2.18 -1.227,-3.271 -0.271,-1.091 0.818,-5.044 0,-6.815 -0.817,-1.771 -1.633,-3.815 -3.133,-3.815 -1.5,0 -2.453,2.453 -2.726,0 -0.273,-2.453 -1.909,-3.135 -1.091,-4.225 0.818,-1.09 1.228,-2.453 1.364,-3.68 0.136,-1.227 1.091,-2.725 0,-2.725 -1.091,0 0,-1.09 -2.726,0 -2.727,1.09 -3.816,0.681 -5.724,1.498 -1.909,0.818 -1.909,1.499 -3.544,1.499 -1.636,0 -2.996,-0.271 -3.543,-0.544 -0.546,-0.273 -2.999,-0.955 -3.952,-0.955 -0.954,0 -2.318,-0.818 -3.68,0.273 -1.362,1.091 -2.999,2.589 -3.953,3.679 -0.953,1.091 -2.999,1.499 -4.497,1.636 -1.498,0.136 -3.542,0.137 -4.36,0.682 -0.818,0.544 -1.91,1.635 -1.773,2.044 0.138,0.409 -1.907,0.818 -1.907,0.818 z" />
        <path
           style="fill:#c42833"
           inkscape:connector-curvature="0"
           id="path27263"
           d="m 536.743,44.017 c 0,0 3.682,-3.408 5.18,-3.953 1.498,-0.544 1.769,-0.818 3.542,-1.09 1.773,-0.272 2.044,0.001 3.271,-0.272 1.226,-0.273 0.546,-2.317 2.317,-0.546 1.771,1.772 1.5,0.136 2.862,1.908 1.362,1.772 0.545,2.591 0.409,3.135 -0.136,0.545 -1.091,0.817 0,1.771 1.091,0.955 1.364,1.908 1.5,2.453 0.135,0.546 0.68,1.227 -1.091,-0.408 -1.771,-1.636 -2.725,-2.317 -3.816,-3.135 -1.09,-0.817 -1.635,-1.771 -2.453,-1.498 -0.817,0.272 -1.226,0.273 -2.453,0.817 -1.226,0.545 -3.408,0.818 -3.817,1.09 -0.409,0.273 -1.771,0.408 -2.589,0.273 -0.817,-0.136 -2.862,-0.545 -2.862,-0.545" />
        <path
           style="fill:#862026"
           inkscape:connector-curvature="0"
           id="path27265"
           d="m 536.608,48.378 c 1.427,0.476 2.999,-0.137 4.497,0.272 1.498,0.409 1.226,0.409 2.453,-0.272 1.227,-0.681 2.178,-1.363 2.316,-0.955 0.137,0.409 -0.816,0.546 0.137,1.772 0.954,1.227 1.364,1.227 2.044,1.636 0.681,0.409 1.091,-0.272 1.227,0.545 0.136,0.818 -0.272,1.499 -0.409,2.317 -0.137,0.818 -0.818,2.725 -0.682,3.134 0.136,0.409 -0.273,3.135 -0.273,3.135 0,0 0.545,-0.545 -0.818,-1.772 -1.362,-1.226 -0.135,-2.181 -2.18,-2.181 -2.044,0 -2.451,-0.817 -2.589,0.546 -0.137,1.363 -0.955,3.407 -1.09,2.181 -0.136,-1.227 -0.545,-3.272 -0.818,-3.953 -0.273,-0.681 0.68,-0.272 -1.091,-1.362 -1.771,-1.091 -1.908,-0.682 -2.044,-1.636 -0.136,-0.954 -0.272,-2.181 -0.272,-2.181 0,0 -2.044,-1.772 -0.408,-1.226" />
        <path
           style="fill:#862026"
           inkscape:connector-curvature="0"
           id="path27267"
           d="m 556.777,49.604 c 0,0 0.407,0.955 0.545,1.363 0.137,0.409 -0.272,0.817 0.546,1.772 0.818,0.954 1.498,0.953 1.771,1.635 0.273,0.682 0.546,1.09 0.273,1.635 -0.273,0.546 -1.501,1.227 -1.364,1.636 0.138,0.409 -0.273,1.499 -0.818,1.772 -0.544,0.272 -1.089,2.452 -1.089,0.272 0,-2.18 -1.091,-5.042 -1.091,-5.587 0,-0.546 -0.41,-1.091 -0.273,-1.772 0.138,-0.681 0.547,-1.5 0.682,-2.045 0.136,-0.544 0.682,-1.09 0.682,-1.09 z" />
        <path
           style="fill:#862026"
           inkscape:connector-curvature="0"
           id="path27269"
           d="m 561.956,65.958 -2.317,2.862 c 0,0 -0.816,0.546 1.091,0.409 1.907,-0.136 3.815,0 3.815,0 0,0 0.411,0.273 0.273,0.954 -0.137,0.682 0,1.772 -0.409,2.589 -0.408,0.818 -2.044,2.181 -2.044,2.59 0,0.409 -1.5,2.453 -1.5,2.453 0,0 0.409,-0.137 1.227,0.681 0.818,0.818 0.68,0.682 1.362,1.5 0.682,0.818 0.955,0.544 1.091,1.09 0.136,0.545 0.409,2.043 0.818,1.09 0.409,-0.954 0.544,-1.227 0.818,-2.317 0.273,-1.09 -0.136,-0.954 0.817,-1.635 0.954,-0.681 1.5,-1.5 1.909,-1.772 0.409,-0.272 0.546,-1.09 1.635,-1.499 1.089,-0.409 3.271,-1.772 3.271,-1.772 0,0 1.089,-1.09 -0.137,-1.09 -1.227,0 -2.043,0.001 -3.543,-0.272 -1.499,-0.273 -3.272,-1.091 -1.772,-1.5 1.499,-0.409 3.27,-0.953 3.27,-0.953 0,0 5.178,-0.41 5.724,-0.682 0.546,-0.273 3.271,0.272 1.5,-0.818 -1.771,-1.09 -2.589,-1.362 -2.18,-2.317 0.409,-0.954 0.68,-1.635 0.68,-1.635 0,0 1.093,-1.09 2.182,-1.635 1.089,-0.546 1.226,-1.772 1.226,-1.772 0,0 -2.181,-0.136 -2.999,0.545 -0.818,0.681 -2.18,1.636 -2.18,1.636 0,0 -1.089,0.816 -1.771,1.09 -0.682,0.273 -0.684,0.273 -1.364,1.363 -0.68,1.09 -2.316,2.044 -2.316,2.044 0,0 -1.635,0.136 -2.317,0.136 -0.682,0 -2.589,-0.408 -2.589,-0.408 l -1.773,-0.955 z" />
        <path
           style="fill:#862026"
           inkscape:connector-curvature="0"
           id="path27271"
           d="m 545.193,63.914 c 0,0 0.408,-1.634 1.907,-1.908 1.5,-0.273 1.229,-0.817 3,-0.408 1.771,0.408 0.817,-0.136 1.771,0.408 0.953,0.545 2.044,0.409 1.635,0.818 -0.409,0.409 -1.089,-0.272 -1.362,0.818 -0.273,1.09 -0.273,2.044 -0.273,2.862 v 2.589 c 0,0 0.953,1.635 0,0.408 -0.954,-1.226 -1.771,-2.044 -2.589,-2.453 -0.818,-0.409 -0.955,-1.089 -1.773,-0.953 -0.818,0.136 -1.089,0 -1.498,-0.409 -0.409,-0.409 -0.818,-1.772 -0.818,-1.772" />
        <path
           style="fill:#862026"
           inkscape:connector-curvature="0"
           id="path27273"
           d="m 537.152,63.914 1.227,-0.681 c 0,0 0.409,-0.954 1.635,-0.818 1.227,0.136 0.68,0.273 2.18,0 1.5,-0.273 2.862,-0.682 2.317,-0.545 -0.544,0.136 -1.633,0.136 -2.997,0 -1.364,-0.137 -3.68,-0.818 -3.68,-0.818 0,0 -1.226,10e-4 -1.091,0.546 0.136,0.544 0.409,2.316 0.409,2.316" />
        <path
           style="fill:#c42833"
           inkscape:connector-curvature="0"
           id="path27275"
           d="m 523.796,52.603 c 0.546,0.272 1.91,0.681 3.408,0.272 1.498,-0.409 1.907,-0.408 2.316,-1.499 0.409,-1.091 0.817,-2.453 0.817,-2.453 0,0 -0.134,-0.953 -0.271,-0.409 -0.137,0.545 -0.955,1.636 -1.5,2.045 -0.544,0.408 -0.135,0.408 -1.362,1.226 -1.227,0.818 -1.091,0.818 -1.909,0.818 z" />
        <path
           style="fill:#c42833"
           inkscape:connector-curvature="0"
           id="path27277"
           d="m 541.923,70.865 c 0.68,0.408 0.817,1.09 1.226,1.907 0.409,0.818 0.407,1.363 0.681,1.772 l 0.273,0.409 c 0,0 -0.816,0.136 -1.772,0.272 -0.955,0.137 -1.363,0.681 -1.908,0.818 -0.545,0.137 -0.953,0.955 -0.545,-0.953 0.409,-1.909 0,-1.637 0.409,-2.318 0.409,-0.681 0.273,-0.954 0.818,-1.226 0.545,-0.273 0.818,-0.681 0.818,-0.681" />
        <path
           style="fill:#862026"
           inkscape:connector-curvature="0"
           id="path27279"
           d="m 561.41,85.038 c 1.227,1.091 1.773,1.091 1.773,1.908 0,0.817 -2.589,1.226 0,1.635 2.589,0.409 1.635,0.409 2.589,0.409 h 0.953 c 0,0 -1.499,0.953 -2.044,1.635 -0.545,0.682 0.409,1.636 -1.771,1.909 -2.18,0.273 -2.318,1.772 -2.453,1.09 -0.136,-0.682 -0.409,-1.226 -0.409,-1.226 0,0 -0.681,-0.546 -0.136,-1.364 0.545,-0.818 0.68,-1.225 0.68,-1.907 0,-0.682 0.138,-2.181 0.138,-2.181 z" />
        <path
           style="fill:#862026"
           inkscape:connector-curvature="0"
           id="path27281"
           d="m 557.186,76.18 c 0,0 -1.5,-0.955 -2.453,-0.818 -0.954,0.136 -1.771,-0.272 -2.453,0.409 -0.682,0.681 -2.861,2.045 -2.18,0.954 0.68,-1.091 0.409,-1.499 1.226,-2.044 0.818,-0.546 1.091,-0.546 1.227,-1.091 0.136,-0.545 -1.093,-2.862 0.271,-1.09 1.364,1.772 -0.271,1.5 1.364,1.772 1.636,0.272 1.364,0.272 2.044,-0.545 0.681,-0.818 0.272,-1.772 0.954,-1.772 h 0.682 c 0,0 0.407,0.409 0.271,1.09 -0.135,0.682 -0.273,0.409 -0.409,1.227 -0.135,0.818 -0.544,1.908 -0.544,1.908" />
        <path
           style="fill:#c42833"
           inkscape:connector-curvature="0"
           id="path27283"
           d="m 563.454,48.65 c 0,0.545 -0.682,1.635 -0.817,2.453 -0.136,0.818 -0.954,1.636 -0.136,2.453 0.818,0.818 1.5,2.045 1.635,1.227 0.136,-0.818 0.136,-2.18 1.227,-2.18 1.091,0 0.682,0.273 2.317,0 1.636,-0.273 3.271,0.544 2.453,-0.546 -0.817,-1.09 0,-1.09 -1.635,-2.044 -1.635,-0.954 -1.5,-0.818 -2.317,-1.635 -0.818,-0.818 -2.18,-2.045 -2.18,-2.045 z" />
        <path
           style="fill:#c42833"
           inkscape:connector-curvature="0"
           id="path27285"
           d="m 566.863,38.156 c 0,0 -2.045,-1.635 -3.271,-1.635 -1.227,0 -1.498,0.682 -2.862,0.137 -1.364,-0.546 -3.682,-1.09 -3,-1.227 0.682,-0.136 0.138,0.136 1.909,-0.545 1.771,-0.681 2.453,-1.499 3.271,-1.636 0.817,-0.136 1.908,-0.681 1.908,-0.681 0,0 1.089,-0.682 1.089,0.136 0,0.818 0.138,2.862 0.138,2.862 z" />
        <path
           style="fill:#862026"
           inkscape:connector-curvature="0"
           id="path27287"
           d="m 566.725,56.964 c 0.262,0.075 0.422,0.078 0.548,0.068 0.337,-0.026 0.446,-0.143 1.634,0.749 1.635,1.227 0.409,1.363 2.044,1.363 h 2.18 c 0.953,0 1.907,-0.409 1.362,0.136 -0.544,0.546 -0.544,0.273 -1.771,1.363 -1.226,1.09 -1.771,1.636 -1.771,1.636 0,0 0.136,-1.09 -0.682,-1.908 -0.818,-0.818 -1.225,-0.954 -1.362,-1.363 -0.138,-0.409 -2.182,-2.044 -2.182,-2.044" />
        <path
           style="fill:#862026"
           inkscape:connector-curvature="0"
           id="path27289"
           d="m 563.454,59.144 c 0.409,0.409 1.5,1.226 1.909,1.772 0.409,0.545 1.226,1.498 1.635,1.635 0.409,0.137 0.682,0.818 0.682,0.818 0,0 -0.273,0.409 -1.499,0.409 -1.227,0 -2.18,0.136 -2.589,0.136 -0.409,0 -0.681,1.635 -0.409,0 0.271,-1.635 0.271,-0.681 0.271,-1.635 z" />
        <path
           style="fill:#c42833"
           inkscape:connector-curvature="0"
           id="path27291"
           d="m 534.29,52.057 c 0,0 -0.273,0.954 0.409,1.499 0.682,0.546 0.954,0.138 1.227,0.682 0.273,0.545 0.407,0.818 0.544,1.499 0.138,0.681 0.138,1.227 0.546,2.044 0.409,0.818 0.136,1.499 0.136,1.499 0,0 0.545,1.362 -0.818,0 -1.362,-1.362 -2.454,-0.817 -2.317,-1.771 0.137,-0.954 0.272,-0.955 0,-1.908 -0.271,-0.954 -0.271,-1.635 -0.271,-2.18 0,-0.546 0.544,-1.364 0.544,-1.364" />
        <path
           style="fill:#c42833"
           inkscape:connector-curvature="0"
           id="path27293"
           d="m 551.837,69.28 c 0,0 0.358,1.482 0.358,1.738 v 0.767 l 0.511,0.664 c 0,0 0.102,-0.051 -0.153,-0.869 -0.256,-0.818 -0.154,-1.073 -0.358,-1.636 -0.205,-0.562 -0.358,-0.664 -0.358,-0.664" />
        <path
           style="fill:#c42833"
           inkscape:connector-curvature="0"
           id="path27295"
           d="m 537.152,63.914 c 0,0 -0.544,1.431 -0.596,1.584 -0.051,0.154 -0.92,1.176 -0.868,1.432 0.05,0.255 -0.409,1.481 -0.461,1.737 -0.05,0.256 -0.715,1.226 -0.715,1.226 0,0 0.256,-0.459 0.306,-0.766 0.052,-0.307 -0.152,-0.971 0.103,-1.585 0.256,-0.612 0,-0.766 0.511,-1.43 0.511,-0.665 0.409,-0.665 0.817,-1.176 0.409,-0.511 1.023,-1.022 1.023,-1.022 z" />
        <path
           style="fill:#f3f0e9"
           inkscape:connector-curvature="0"
           id="path27297"
           d="m 511.803,65.958 c 0,0 -1.089,-0.272 -1.089,0.273 0,0.544 -0.41,0.817 0.272,0.953 0.682,0.137 1.772,0.818 1.772,0.818 0,0 -0.953,1.499 0,1.226 0.954,-0.272 0.409,-0.136 0.954,-0.817 l 0.545,-0.682 c 0,0 -0.274,0.136 -0.818,-0.136 -0.545,-0.272 -1.227,-0.954 -1.227,-0.954 z" />
        <path
           style="fill:#f3f0e9"
           inkscape:connector-curvature="0"
           id="path27299"
           d="m 491.498,66.775 c 0,0 -0.682,-0.409 0.136,-1.09 0.818,-0.681 1.226,-1.363 1.226,-1.363 1.091,0.137 1.091,-0.408 1.636,0.273 l 0.544,0.681 0.409,1.227 -1.362,0.272 z" />
        <path
           style="fill:#f3f0e9"
           inkscape:connector-curvature="0"
           id="path27301"
           d="m 499.402,72.499 c 0.136,0.409 -1.091,0.954 0,1.363 1.091,0.409 0.411,0.137 1.091,0.409 0.68,0.272 0.409,0.409 1.362,0.272 0.954,-0.136 1.091,-0.544 1.909,-0.272 0.817,0.272 2.315,0.545 2.315,0.545 0,0 2.182,0.272 0.138,-0.409 -2.044,-0.681 -1.498,-1.227 -2.453,-1.636 -0.955,-0.408 -0.409,-0.817 -1.091,-1.09 -0.682,-0.272 -1.635,-1.09 -2.044,-0.545 -0.409,0.545 -1.227,1.363 -1.227,1.363" />
        <path
           style="fill:#f3f0e9"
           inkscape:connector-curvature="0"
           id="path27303"
           d="m 488.499,35.839 c 0.544,0.273 1.773,0.954 1.908,0.409 0.136,-0.545 0.543,-1.227 1.09,-1.09 0.546,0.137 1.501,-0.137 1.772,0.272 0.272,0.409 1.634,10e-4 0.681,0.682 -0.954,0.681 -0.954,-0.136 -0.954,0.681 0,0.818 0.954,0.955 0,0.818 -0.953,-0.136 -2.18,-0.272 -2.453,-0.681 -0.273,-0.409 -2.044,-1.091 -2.044,-1.091" />
        <path
           style="fill:#f3f0e9"
           inkscape:connector-curvature="0"
           id="path27305"
           d="m 500.764,43.744 c 0.409,0.409 1.363,1.226 1.363,1.226 0,0 -0.681,1.09 -0.272,1.227 0.409,0.136 0.952,-0.136 1.498,0.136 0.547,0.273 0.684,0.136 0.955,0.545 0.272,0.409 -0.137,0.954 1.09,0.545 1.226,-0.408 1.226,-0.818 2.044,-0.954 0.817,-0.136 1.092,-0.273 1.773,-0.409 0.68,-0.135 2.181,-1.089 0.817,-0.953 -1.364,0.136 -1.501,-0.137 -3.408,-0.137 -1.907,0 -1.773,-0.408 -2.453,-0.408 -0.68,0 -1.635,-0.682 -1.635,-0.682 l -1.227,-0.682 z" />
        <path
           style="fill:#f3f0e9"
           inkscape:connector-curvature="0"
           id="path27307"
           d="m 481.548,58.326 c 0.274,0.545 0.545,0.682 1.772,1.091 1.226,0.409 0.546,0.136 1.772,0.409 1.227,0.272 1.771,0.544 1.771,0.544 0,0 0.82,0.818 0.682,1.227 -0.137,0.409 -0.546,0.136 -0.137,1.363 0.409,1.226 0.137,2.453 -0.545,1.226 -0.681,-1.226 -1.09,-2.18 -1.908,-2.18 -0.818,0 -1.089,-0.137 -1.498,0 -0.409,0.136 -1.362,-0.136 -1.635,0.273 -0.274,0.409 0.817,0.136 -0.274,-0.409 -1.09,-0.546 -1.637,-0.41 -2.317,-0.273 -0.68,0.136 -0.955,0.272 -1.635,0 -0.681,-0.273 -0.136,-0.545 -0.954,-0.954 -0.817,-0.409 -0.953,-0.681 -0.817,-2.044 l 0.135,-1.363 c 0,0 0.547,-1.363 0.682,-0.818 0.136,0.546 -0.273,0.273 0.409,1.227 0.682,0.954 0.546,0.681 1.091,0.817 0.544,0.137 0.271,-0.136 0.953,0 0.682,0.137 0.411,-0.136 1.091,-0.136 z" />
        <path
           style="fill:#f3f0e9"
           inkscape:connector-curvature="0"
           id="path27309"
           d="m 515.619,37.748 c 0.955,-0.409 1.092,-1.09 1.773,-0.818 0.68,0.272 1.498,0.271 2.18,0.545 0.682,0.273 1.089,0.408 1.771,0.817 0.682,0.409 1.091,0.273 1.091,0.818 0,0.545 0.135,1.363 0.135,1.363 0,0 -1.364,-0.408 -2.044,-1.09 -0.68,-0.682 -1.635,-1.091 -2.453,-1.091 -0.818,0 -1.907,0.273 -1.907,0.273 0,0 -0.546,0.409 -1.091,0.273 -0.544,-0.137 -1.225,-0.546 -0.136,-0.818 1.09,-0.272 0.681,-0.272 0.681,-0.272" />
        <path
           style="fill:#f3f0e9"
           inkscape:connector-curvature="0"
           id="path27311"
           d="m 519.98,51.24 c -0.135,0.409 -1.226,1.363 -2.044,1.635 -0.818,0.272 -1.226,0 -2.044,0.272 -0.818,0.273 -2.726,0.546 -1.5,0.818 1.227,0.272 0.275,-0.001 2.182,0.272 1.907,0.274 1.908,0 2.453,0.137 0.545,0.137 0.953,-0.137 0.953,-0.137 0,0 0.136,-0.273 0.136,-1.226 0,-0.954 -0.136,-1.771 -0.136,-1.771" />
        <path
           style="fill:#f3f0e9"
           inkscape:connector-curvature="0"
           id="path27313"
           d="m 532.315,88.036 c 0.408,-0.306 1.124,-1.737 2.146,-1.431 1.022,0.307 2.147,1.636 2.044,2.351 -0.102,0.716 1.431,3.884 1.84,4.6 0.409,0.715 2.044,1.737 1.533,0.715 -0.511,-1.022 -0.817,-1.124 -1.022,-2.453 -0.204,-1.329 -0.715,-3.271 -0.92,-3.986 -0.204,-0.716 -0.817,-1.636 -1.328,-2.044 -0.512,-0.409 -0.614,-1.942 -0.614,-1.942 0,0 -0.613,-1.023 -1.226,-0.307 -0.614,0.715 -1.329,1.533 -1.329,1.533 0,0 -0.307,0.307 -0.716,0.511 -0.408,0.205 -0.715,0.409 -0.613,0.716 0.102,0.306 0.205,1.737 0.205,1.737" />
        <path
           style="fill:#f3f0e9"
           inkscape:connector-curvature="0"
           id="path27315"
           d="m 537.016,96.316 c 0.205,0.511 0.716,1.533 1.84,1.635 1.125,0.102 1.636,-0.307 1.738,0.204 0.102,0.511 0.306,0.614 0,0.818 -0.307,0.204 -0.716,-0.204 -1.636,0.511 -0.919,0.716 -1.022,0.716 -1.839,0.92 -0.818,0.204 -1.227,0.716 -1.329,-0.102 l -0.205,-1.636 c 0,0 -1.022,-0.102 -0.102,-0.817 0.92,-0.716 1.533,-1.533 1.533,-1.533" />
        <path
           style="fill:#f3f0e9"
           inkscape:connector-curvature="0"
           id="path27317"
           d="m 538.039,108.99 c 0,0 1.635,0.409 2.044,0.409 0.409,0 0.715,-0.614 1.226,-0.511 0.511,0.102 1.84,0 1.84,0 0,0 0,0.102 -0.204,0.715 -0.205,0.613 -0.409,1.533 -0.409,1.84 0,0.307 -0.102,1.329 -0.102,1.329 0,0 -1.431,-0.102 -1.942,0.102 -0.511,0.204 -1.329,1.124 -2.351,1.124 -1.022,0 -0.716,-0.92 -0.205,-1.226 0.511,-0.307 1.022,-0.511 0.716,-1.227 -0.307,-0.715 -0.511,-0.511 -0.613,-1.226 -0.103,-0.716 0,-1.329 0,-1.329" />
        <path
           style="fill:#f3f0e9"
           inkscape:connector-curvature="0"
           id="path27319"
           d="m 534.666,101.222 c 0,0 -0.103,0.92 0.306,1.022 0.409,0.102 0.92,0.715 0.511,0.92 -0.409,0.204 -0.715,0 -1.124,0.715 -0.409,0.716 -0.716,0.818 -1.022,0.818 -0.307,0 -0.92,-0.307 -0.92,-0.307 0,0 -0.92,-1.022 -0.409,-1.226 0.511,-0.205 0.613,-1.022 1.329,-1.125 0.715,-0.102 1.329,-0.817 1.329,-0.817" />
        <path
           style="fill:#f3f0e9"
           inkscape:connector-curvature="0"
           id="path27321"
           d="m 543.558,84.357 -0.204,1.533 c 0,0 -0.307,1.431 -0.409,2.146 -0.102,0.716 -0.307,1.533 -0.307,1.533 0,0 -0.307,1.227 -0.715,0 -0.409,-1.226 -0.103,-1.43 -0.716,-2.044 -0.613,-0.613 -0.409,-0.511 -1.022,-1.022 -0.613,-0.511 -1.635,-1.329 -1.329,-1.329 0.307,0 -0.306,-0.817 1.227,-0.511 1.533,0.307 3.168,-0.511 3.168,-0.511 z" />
        <path
           style="fill:#f3f0e9"
           inkscape:connector-curvature="0"
           id="path27323"
           d="m 557.868,97.44 c 0.306,0 -0.92,1.329 -0.307,1.737 0.613,0.409 0.102,0.512 0.92,0.409 0.818,-0.102 1.329,-0.204 1.022,-0.715 -0.306,-0.511 -0.613,-1.022 -0.818,-1.329 -0.204,-0.307 -1.022,-0.102 -0.817,-0.102" />
        <path
           style="fill:#f3f0e9"
           inkscape:connector-curvature="0"
           id="path27325"
           d="m 457.904,42.756 c 0,0 1.124,-0.102 1.84,-0.613 0.715,-0.511 1.942,-1.227 1.942,-1.227 0,0 -0.307,-1.022 -1.636,-0.92 -1.329,0.103 -1.533,0.205 -2.453,0.409 -0.92,0.205 -1.84,0.307 -2.249,0.409 -0.408,0.102 0.614,0.613 -1.124,0.818 -1.737,0.204 -3.68,0.102 -0.92,0.306 2.76,0.205 3.987,0.205 4.293,0.205 0.307,0 0.102,0.511 0.307,0.613" />
        <path
           style="fill:#f3f0e9"
           inkscape:connector-curvature="0"
           id="path27327"
           d="m 432.759,38.668 c 0.307,-0.103 0.614,-1.125 2.045,-0.409 1.431,0.715 1.635,0.817 2.248,0.92 0.614,0.102 1.942,-0.103 1.942,-0.103 0,0 0.512,1.329 -0.715,1.125 -1.227,-0.205 -2.555,-0.409 -2.555,-0.409 l -1.125,-0.409 z" />
        <path
           style="fill:#f3f0e9"
           inkscape:connector-curvature="0"
           id="path27329"
           d="m 470.169,53.182 c 0,0.306 0.307,1.533 0.716,1.329 0.409,-0.205 1.737,-0.512 1.737,-0.512 l 0.409,-0.715 c 0,0 1.329,-0.818 -0.306,-0.716 -1.636,0.103 -1.738,0.103 -2.147,0 -0.409,-0.102 -0.715,-0.408 -1.124,-0.408 -0.409,0 0.715,0.715 0.715,1.022" />
        <path
           style="fill:#f3f0e9"
           inkscape:connector-curvature="0"
           id="path27331"
           d="m 468.841,59.315 c 0.102,0.511 -1.636,1.226 0,1.43 1.635,0.205 1.328,0.103 2.35,0.205 1.023,0.102 1.227,0.613 1.329,0.102 0.102,-0.511 -0.204,-1.226 0,-2.044 0.205,-0.818 0.409,-1.431 0.409,-1.431 0,0 -1.431,-0.102 -1.738,0.307 -0.306,0.408 -0.817,0.511 -1.124,0.715 -0.307,0.204 -1.124,-0.204 -1.124,-0.204 z" />
        <path
           style="fill:#f3f0e9"
           inkscape:connector-curvature="0"
           id="path27333"
           d="m 496.029,31.717 c 0,0 1.329,1.227 2.147,0.818 0.817,-0.409 0.817,-0.716 1.328,-0.613 0.511,0.102 2.147,0.102 2.147,0.102 0,0 0,0.613 -0.716,0.817 -0.715,0.205 -1.737,0.511 -2.044,0.818 -0.307,0.307 -0.204,0.511 -1.226,-0.204 -1.023,-0.716 -1.329,-1.125 -1.329,-1.125 z" />
        <path
           style="fill:#b68450"
           inkscape:connector-curvature="0"
           id="path27335"
           d="m 405.842,83.961 c 0,0 1.634,-7.189 3.923,-7.846 2.289,-0.654 3.594,-3.27 6.864,-3.596 3.269,-0.324 8.498,-1.308 10.459,-0.979 1.962,0.328 15.035,4.575 15.035,4.575 l 8.825,8.826 c 0,0 2.616,6.21 1.309,6.537 -1.309,0.328 -10.134,0.653 -17.324,1.961 -7.19,1.308 -13.728,1.634 -17.323,0.654 -3.596,-0.982 -11.768,-10.132 -11.768,-10.132" />
        <path
           style="fill:#b9462e"
           inkscape:connector-curvature="0"
           id="path27337"
           d="m 355.331,73.854 c 0.839,-1.259 10.493,-11.753 12.592,-12.593 2.101,-0.84 7.976,10e-4 10.496,0.84 2.517,0.838 13.433,4.616 13.433,4.616 l 1.678,9.656 c 0,0 -2.937,0.419 -7.975,1.259 -5.037,0.84 -20.151,3.778 -20.151,3.778 z" />
        <path
           style="fill:#b68450"
           inkscape:connector-curvature="0"
           id="path27339"
           d="m 346.766,105.072 c 0,-0.817 5.177,-8.72 6.268,-8.448 1.091,0.271 8.178,-1.091 10.086,-0.273 1.907,0.817 5.997,3.542 6.541,4.633 0.545,1.091 1.09,3.817 0.545,4.635 -0.545,0.817 -1.635,2.178 -4.361,1.906 -2.725,-0.271 -13.628,-1.908 -14.991,-1.635 -1.363,0.273 -4.088,0.273 -4.088,0.273 z" />
        <path
           style="fill:#612f26"
           inkscape:connector-curvature="0"
           id="path27341"
           d="m 466.151,128.786 c 0.818,-1.091 5.449,-7.633 5.449,-7.633 l 6.27,-14.99 c 0,0 -10.084,-3.545 -13.083,-2.182 -2.999,1.364 -13.901,7.087 -17.989,8.995 -4.089,1.909 -10.903,10.359 -11.72,11.177 -0.818,0.817 -2.726,2.451 0,2.724 2.725,0.273 13.901,0 17.172,0 3.271,0 6.542,2.453 8.177,2.726 1.636,0.273 5.724,-0.817 5.724,-0.817" />
        <path
           style="fill:#9a6233"
           inkscape:connector-curvature="0"
           id="path27343"
           d="m 415.65,84.941 c 0,0 0.653,2.942 8.497,2.942 7.844,0 16.669,-1.308 16.669,-1.308 0,0 -2.615,2.944 -12.747,3.269 -10.132,0.326 -11.44,0.979 -11.766,-0.655 -0.328,-1.634 -0.653,-4.248 -0.653,-4.248" />
        <path
           style="fill:#4e211e"
           inkscape:connector-curvature="0"
           id="path27345"
           d="m 440.801,124.153 c 1.09,0 8.723,-0.818 10.631,-0.545 1.907,0.273 4.634,0.818 7.904,-0.818 3.271,-1.635 6.815,-3.815 6.815,-3.815 l 6.27,-7.088 2.179,-2.725 c 0,0 -4.907,9.813 -6.542,12.266 -1.635,2.453 -1.089,4.087 -3.815,4.36 -2.727,0.273 -10.904,-0.272 -10.904,-0.272 z" />
        <path
           style="fill:#a23728"
           inkscape:connector-curvature="0"
           id="path27347"
           d="m 361.211,73.455 c 0,0 5.18,2.453 5.997,2.453 0.818,0 7.632,-1.091 9.267,-1.363 1.636,-0.272 9.54,-4.088 9.54,-4.088 l 2.998,1.363 c 0,0 -1.363,2.726 -4.088,3.27 -2.726,0.545 -5.997,0.818 -9.267,1.908 -3.271,1.09 -6.27,3.272 -8.723,2.181 -2.453,-1.091 -3.271,-1.362 -4.088,-2.453 -0.818,-1.091 -1.909,-4.089 -1.636,-3.271" />
        <path
           style="fill:#9a6233"
           inkscape:connector-curvature="0"
           id="path27349"
           d="m 349.763,103.165 c 0,0 4.634,-1.362 5.724,-0.817 1.091,0.544 1.909,1.089 1.909,1.089 0,0 -0.545,0.818 -2.453,0.818 -1.909,0 -4.634,-0.547 -5.452,0 -0.818,0.546 0.272,-1.09 0.272,-1.09" />
        <path
           style="fill:#612f26"
           inkscape:connector-curvature="0"
           id="path27351"
           d="m 398.008,53.829 12.538,-3.27 c 0,0 5.45,0 7.631,1.09 2.181,1.09 10.904,5.451 10.904,5.451 0,0 3.816,6.542 1.635,5.996 -2.181,-0.545 -19.625,0 -19.625,0 L 400.188,58.19 Z" />
        <path
           style="fill:#4e211e"
           inkscape:connector-curvature="0"
           id="path27353"
           d="m 407.275,56.555 c 0,0 4.361,3.271 6.541,3.271 h 7.088 l -8.177,2.725 z" />
        <path
           style="fill:#b9462e"
           inkscape:connector-curvature="0"
           id="path27355"
           d="m 369.389,121.425 13.9,-3.816 c 0,0 5.996,1.091 8.722,4.362 2.726,3.271 7.632,4.904 7.632,7.086 0,2.182 2.18,8.723 2.18,8.723 h -11.448 c 0,0 -13.082,1.636 -15.263,-1.09 -2.181,-2.727 -15.809,-4.362 -15.809,-4.362 z" />
        <path
           style="fill:#a23728"
           inkscape:connector-curvature="0"
           id="path27357"
           d="m 365.028,131.237 17.716,0.002 c 0,0 2.725,-0.546 5.996,0.544 3.271,1.091 8.722,2.18 8.722,2.18 l -7.358,2.18 c 0,0 -6.541,1.363 -9.267,0.818 -2.726,-0.545 -15.809,-5.724 -15.809,-5.724" />
        <path
           style="fill:#9a6233;fill-opacity:1"
           inkscape:connector-curvature="0"
           id="path27359"
           d="m 335.863,85.447 c 0,0 1.09,-3.544 3.543,-3.817 2.454,-0.272 5.452,1.091 5.452,2.727 0,1.635 -1.091,1.362 -2.726,1.09 -1.636,-0.273 -3.816,-0.273 -3.816,-0.273 z" />
        <path
           style="fill:#9a6233;fill-opacity:1"
           inkscape:connector-curvature="0"
           id="path27361"
           d="m 409.729,120.336 c 0,0 0.188,-0.175 0.489,-0.438 0.999,-0.881 3.242,-2.773 3.872,-2.562 0.817,0.273 4.361,-0.271 5.179,1.091 0.818,1.362 1.635,0.816 1.635,2.18 0,1.364 1.908,3.815 -0.545,2.453 -2.453,-1.362 -7.429,0.411 -9.064,0.137 -1.636,-0.273 -1.566,-2.861 -1.566,-2.861" />
        <path
           style="fill:#9a6233;fill-opacity:1"
           inkscape:connector-curvature="0"
           id="path27363"
           d="m 496.677,115.701 c 0,0 1.907,-3.269 4.089,-2.725 2.182,0.545 2.999,0.818 3.544,1.636 0.544,0.817 1.362,2.18 1.362,2.18 0,0 1.093,1.635 -1.089,0.817 -2.182,-0.817 -6.542,-1.362 -6.542,-1.362 z" />
        <path
           style="fill:#9a6233;fill-opacity:1"
           inkscape:connector-curvature="0"
           id="path27365"
           d="m 392.285,51.375 c 0,0 -1.091,10e-4 -1.091,-1.362 0,-1.363 -1.907,-2.454 0.273,-2.726 2.18,-0.272 1.635,-0.817 2.998,-0.545 1.363,0.273 2.181,-0.818 2.181,0.545 v 2.181 c 0,0.817 1.363,1.634 -0.273,1.907 -1.635,0.274 -2.998,0.274 -2.998,0.274 z" />
      </g>
    </g>
  </g>
</svg>
