<?xml version="1.0" encoding="UTF-8" standalone="no"?>
<!-- Created with Inkscape (http://www.inkscape.org/) -->

<svg
   width="125mm"
   height="88mm"
   viewBox="0 0 125 88"
   version="1.1"
   id="svg6471"
   inkscape:version="1.2.2 (732a01da63, 2022-12-09)"
   sodipodi:docname="earrings.svg"
   xmlns:inkscape="http://www.inkscape.org/namespaces/inkscape"
   xmlns:sodipodi="http://sodipodi.sourceforge.net/DTD/sodipodi-0.dtd"
   xmlns:xlink="http://www.w3.org/1999/xlink"
   xmlns="http://www.w3.org/2000/svg"
   xmlns:svg="http://www.w3.org/2000/svg"
   xmlns:rdf="http://www.w3.org/1999/02/22-rdf-syntax-ns#"
   xmlns:cc="http://creativecommons.org/ns#"
   xmlns:dc="http://purl.org/dc/elements/1.1/">
  <defs
     id="defs6465">
    <filter
       inkscape:collect="always"
       style="color-interpolation-filters:sRGB"
       id="filter4520"
       x="-0.035279314"
       width="1.0705586"
       y="-0.01818575"
       height="1.0363715">
      <feGaussianBlur
         inkscape:collect="always"
         stdDeviation="5.7993177"
         id="feGaussianBlur4522" />
    </filter>
    <filter
       inkscape:collect="always"
       style="color-interpolation-filters:sRGB"
       id="filter4564"
       x="-0.066863408"
       width="1.1337268"
       y="-0.014383462"
       height="1.0287669">
      <feGaussianBlur
         inkscape:collect="always"
         stdDeviation="0.57440796"
         id="feGaussianBlur4566" />
    </filter>
    <filter
       inkscape:collect="always"
       style="color-interpolation-filters:sRGB"
       id="filter4568"
       x="-0.052355941"
       width="1.1047119"
       y="-0.024180964"
       height="1.0483619">
      <feGaussianBlur
         inkscape:collect="always"
         stdDeviation="0.57440796"
         id="feGaussianBlur4570" />
    </filter>
    <pattern
       inkscape:collect="always"
       xlink:href="#Checkerboardwhite"
       id="pattern6230"
       patternTransform="matrix(2.6053535,-0.26546286,0.44317681,4.3495058,0,0)" />
    <pattern
       inkscape:stockid="Checkerboard white"
       id="Checkerboardwhite"
       patternTransform="translate(0,0) scale(10,10)"
       height="2"
       width="2"
       patternUnits="userSpaceOnUse"
       inkscape:collect="always">
      <rect
         id="rect5461"
         height="1"
         width="1"
         y="0"
         x="0"
         style="fill:white;stroke:none" />
      <rect
         id="rect5463"
         height="1"
         width="1"
         y="1"
         x="1"
         style="fill:white;stroke:none" />
    </pattern>
    <pattern
       inkscape:collect="always"
       xlink:href="#pattern6328"
       id="pattern6361"
       patternTransform="matrix(2.7986281,-0.85872369,0.9990013,3.2558006,0,0)" />
    <pattern
       inkscape:collect="always"
       xlink:href="#Checkerboardwhite"
       id="pattern6328"
       patternTransform="matrix(2.9184437,-2.1817201,1.4653381,1.9601537,0,0)" />
    <pattern
       inkscape:collect="always"
       xlink:href="#Wavywhite"
       id="pattern6109"
       patternTransform="matrix(-0.24986701,-0.07451348,0.21947559,-0.73597034,-267.76678,9.6962919)" />
    <pattern
       inkscape:isstock="true"
       inkscape:stockid="Wavy white"
       id="Wavywhite"
       height="5.1805778"
       width="30.066020"
       patternUnits="userSpaceOnUse"
       inkscape:collect="always">
      <path
         id="path6012"
         d="M 7.597,0.061 C 5.079,-0.187 2.656,0.302 -0.01,1.788 L -0.01,3.061 C 2.773,1.431 5.173,1.052 7.472,1.280 C 9.770,1.508 11.969,2.361 14.253,3.218 C 18.820,4.931 23.804,6.676 30.066,3.061 L 30.062,1.788 C 23.622,5.497 19.246,3.770 14.691,2.061 C 12.413,1.207 10.115,0.311 7.597,0.061 z "
         style="fill:white;stroke:none;" />
    </pattern>
    <pattern
       inkscape:collect="always"
       xlink:href="#Wavywhite"
       id="pattern6351"
       patternTransform="matrix(0.22259814,0.0665008,-0.2371965,0.79396788,0,0)" />
  </defs>
  <sodipodi:namedview
     id="base"
     pagecolor="#ffffff"
     bordercolor="#666666"
     borderopacity="1.0"
     inkscape:pageopacity="0.0"
     inkscape:pageshadow="2"
     inkscape:zoom="0.7"
     inkscape:cx="112.14286"
     inkscape:cy="287.85714"
     inkscape:document-units="mm"
     inkscape:current-layer="layer1"
     showgrid="false"
     inkscape:window-width="1600"
     inkscape:window-height="825"
     inkscape:window-x="-9"
     inkscape:window-y="-9"
     inkscape:window-maximized="1"
     inkscape:showpageshadow="0"
     inkscape:pagecheckerboard="0"
     inkscape:deskcolor="#d1d1d1" />
  <metadata
     id="metadata6468">
    <rdf:RDF>
      <cc:Work
         rdf:about="">
        <dc:format>image/svg+xml</dc:format>
        <dc:type
           rdf:resource="http://purl.org/dc/dcmitype/StillImage" />
      </cc:Work>
    </rdf:RDF>
  </metadata>
  <g
     inkscape:label="Layer 1"
     inkscape:groupmode="layer"
     id="layer1"
     transform="translate(-14.963196,-47.579958)">
    <g
       transform="matrix(0.32450382,0,0,0.32450382,183.77839,56.645306)"
       style="display:inline"
       id="g6390">
      <path
         style="display:inline;opacity:1;fill:#1c5c33;fill-opacity:1;stroke:none;stroke-width:1.18996;stroke-linecap:round;stroke-linejoin:round;stroke-miterlimit:4;stroke-dasharray:none;stroke-dashoffset:0;stroke-opacity:1"
         d="m -363.24601,118.75909 c 25.9453,77.90644 -20.79464,101.05509 -47.25459,102.81708 -26.36093,1.7554 -61.00243,-38.09571 -45.83151,-101.394 9.45728,-53.006801 35.75352,-103.937705 45.35715,-100.919646 13.19102,13.756483 43.22114,70.622582 47.72895,99.496566 z"
         id="path6125"
         inkscape:connector-curvature="0"
         sodipodi:nodetypes="csccc" />
      <path
         style="display:inline;opacity:0.54;fill:#268049;fill-opacity:1;stroke:none;stroke-width:4.49747;stroke-linecap:round;stroke-linejoin:round;stroke-miterlimit:4;stroke-dasharray:none;stroke-dashoffset:0;stroke-opacity:1;filter:url(#filter4520)"
         d="m -505.37695,120.24805 c -38.86292,1.10975 -133.2167,187.8282 -167.84375,381.9082 -57.33891,239.23763 73.58884,389.85529 173.2207,383.2207 79.71697,-5.30842 208.13585,-61.97886 207.29492,-233.89062 -22.03054,103.90063 -106.8015,140.36977 -162.34961,144.27734 -80.61562,5.67099 -186.55506,-123.07142 -140.16015,-327.5625 23.74239,-140.57693 82.18203,-276.60908 118.60156,-315.4375 -9.40193,-13.54528 -17.96053,-24.50849 -25.17969,-32.03711 -1.13429,-0.35646 -2.33034,-0.51431 -3.58398,-0.47851 z"
         id="path6127"
         inkscape:connector-curvature="0"
         transform="matrix(0.26458333,0,0,0.26458333,-278.20893,-12.679764)" />
      <path
         style="display:inline;fill:#66d3a3;fill-opacity:1;fill-rule:evenodd;stroke:none;stroke-width:0.264583px;stroke-linecap:butt;stroke-linejoin:miter;stroke-opacity:1;filter:url(#filter4564)"
         d="m -430.47895,59.472912 c -8.4935,25.753387 -19.56381,16.984378 -20.61784,93.669508 8.58352,5.57544 8.49859,-0.32396 10.2044,-9.12918 2.9841,-27.60174 -1.61728,-46.195734 10.41344,-84.540328 z"
         id="path6129"
         inkscape:connector-curvature="0"
         sodipodi:nodetypes="cccc" />
      <path
         style="display:inline;fill:#66d3a3;fill-opacity:1;fill-rule:evenodd;stroke:none;stroke-width:0.264583px;stroke-linecap:butt;stroke-linejoin:miter;stroke-opacity:1;filter:url(#filter4568)"
         d="m -365.9427,142.55968 c 6.37166,18.22469 9.34532,49.84375 -14.58245,56.65641 -9.83849,3.0017 -8.28942,-13.98034 -3.34679,-16.25585 13.48835,-5.16419 16.37881,-22.04183 17.92924,-40.40056 z"
         id="path6131"
         inkscape:connector-curvature="0"
         sodipodi:nodetypes="cccc" />
      <path
         style="opacity:1;fill:#808080;fill-opacity:1;fill-rule:evenodd;stroke:none;stroke-width:0.264583px;stroke-linecap:butt;stroke-linejoin:miter;stroke-opacity:1"
         d="m -412.2669,-25.289847 c -0.32317,-0.0019 -0.64276,0.0054 -0.95859,0.02119 -18.97537,2.124799 -23.51894,19.6711142 -17.40463,31.1169634 -18.91553,10.1172256 -32.06531,23.3894026 -23.58512,50.3354266 -19.7008,8.908028 -24.44398,24.407159 -17.32142,46.726857 -18.41327,16.16545 -15.58699,32.78819 -5.2741,48.3092 -13.55422,20.63909 -3.88174,38.24727 12.42663,45.35692 -0.44916,31.37458 16.58062,31.35831 35.14256,28.5905 15.37535,20.8854 35.56383,19.8938 50.2977,1.13792 25.71118,5.14589 34.04148,-8.9046 33.37471,-32.89257 21.28049,-12.25527 22.26537,-27.9655 6.45801,-46.53359 20.92923,-24.00413 1.14138,-44.30757 -9.24337,-46.62454 10.19253,-28.293077 -2.17576,-40.570831 -18.83864,-47.216241 5.84447,-39.401516 -18.76818,-43.5796716 -27.72131,-46.5599475 5.85218,-23.0314505 -7.33411,-31.7087595 -17.35243,-31.7680865 z m 0.34365,44.425712 c 0.3317,-0.0095 0.64815,0.03229 0.94827,0.126606 13.19101,13.756484 43.22106,70.622789 47.72886,99.496769 25.9453,77.90644 -20.79453,101.05499 -47.25447,102.81698 -26.36093,1.7554 -61.00223,-38.09552 -45.83131,-101.39381 9.16174,-51.350334 34.12617,-100.752923 44.40865,-101.046545 z"
         id="path6133"
         inkscape:connector-curvature="0" />
      <path
         inkscape:connector-curvature="0"
         id="path6135"
         d="m -412.2669,-25.289847 c -0.32317,-0.0019 -0.64276,0.0054 -0.95859,0.02119 -18.97537,2.124799 -23.51894,19.6711142 -17.40463,31.1169634 -18.91553,10.1172256 -32.06531,23.3894026 -23.58512,50.3354266 -19.7008,8.908028 -24.44398,24.407159 -17.32142,46.726857 -18.41327,16.16545 -15.58699,32.78819 -5.2741,48.3092 -13.55422,20.63909 -3.88174,38.24727 12.42663,45.35692 -0.44916,31.37458 16.58062,31.35831 35.14256,28.5905 15.37535,20.8854 35.56383,19.8938 50.2977,1.13792 25.71118,5.14589 34.04148,-8.9046 33.37471,-32.89257 21.28049,-12.25527 22.26537,-27.9655 6.45801,-46.53359 20.92923,-24.00413 1.14138,-44.30757 -9.24337,-46.62454 10.19253,-28.293077 -2.17576,-40.570831 -18.83864,-47.216241 5.84447,-39.401516 -18.76818,-43.5796716 -27.72131,-46.5599475 5.85218,-23.0314505 -7.33411,-31.7087595 -17.35243,-31.7680865 z m 0.34365,44.425712 c 0.3317,-0.0095 0.64815,0.03229 0.94827,0.126606 13.19101,13.756484 43.22106,70.622789 47.72886,99.496769 25.9453,77.90644 -20.79453,101.05499 -47.25447,102.81698 -26.36093,1.7554 -61.00223,-38.09552 -45.83131,-101.39381 9.16174,-51.350334 34.12617,-100.752923 44.40865,-101.046545 z"
         style="opacity:1;fill:url(#pattern6109);fill-opacity:1;fill-rule:evenodd;stroke:none;stroke-width:0.264583px;stroke-linecap:butt;stroke-linejoin:miter;stroke-opacity:1" />
      <path
         style="color:#000000;font-style:normal;font-variant:normal;font-weight:normal;font-stretch:normal;font-size:medium;line-height:normal;font-family:sans-serif;font-variant-ligatures:normal;font-variant-position:normal;font-variant-caps:normal;font-variant-numeric:normal;font-variant-alternates:normal;font-feature-settings:normal;text-indent:0;text-align:start;text-decoration:none;text-decoration-line:none;text-decoration-style:solid;text-decoration-color:#000000;letter-spacing:normal;word-spacing:normal;text-transform:none;writing-mode:lr-tb;direction:ltr;text-orientation:mixed;dominant-baseline:auto;baseline-shift:baseline;text-anchor:start;white-space:normal;shape-padding:0;clip-rule:nonzero;display:inline;overflow:visible;visibility:visible;opacity:1;isolation:auto;mix-blend-mode:normal;color-interpolation:sRGB;color-interpolation-filters:linearRGB;solid-color:#000000;solid-opacity:1;vector-effect:none;fill:#cccccc;fill-opacity:1;fill-rule:evenodd;stroke:none;stroke-width:5.29167;stroke-linecap:butt;stroke-linejoin:miter;stroke-miterlimit:4;stroke-dasharray:none;stroke-dashoffset:0;stroke-opacity:1;color-rendering:auto;image-rendering:auto;shape-rendering:auto;text-rendering:auto;enable-background:accumulate"
         d="m -412.25139,-27.93568 c -0.3732,-0.0022 -0.74191,0.006 -1.1064,0.02429 l -0.0811,0.0041 -0.0811,0.0093 c -10.2649,1.149429 -17.12194,6.717128 -20.22822,13.604337 -2.73749,6.0695375 -2.71368,13.033287 -0.30954,19.022611 -8.73875,4.908447 -16.33244,10.693224 -20.92947,18.653126 -4.71019,8.155834 -5.94703,18.486951 -2.34973,31.402216 -9.14567,4.595762 -15.2752,10.906813 -18.0914,18.84898 -2.88017,8.122552 -2.32374,17.654106 0.90123,28.46959 -8.69104,8.07981 -12.74301,16.62231 -13.06277,25.10441 -0.31572,8.37505 2.85763,16.44033 7.68119,24.05848 -6.27603,10.31794 -7.29105,20.2986 -4.38371,28.58223 2.86263,8.15625 9.3111,14.50293 17.29868,18.39526 0.0452,7.2282 0.99065,12.96991 2.85926,17.44545 2.01894,4.83559 5.15249,8.24318 8.92142,10.30738 7.12924,3.90461 15.95349,3.24633 24.83879,1.98127 7.82893,10.05023 17.11033,15.25035 26.51673,15.26987 9.37695,0.0195 18.43704,-5.06451 25.96121,-14.09888 12.54411,2.17799 21.80771,-0.189 27.50943,-6.60683 5.6896,-6.40421 7.61495,-16.05089 7.46982,-27.66756 10.19571,-6.1999 16.10107,-13.59131 17.11214,-22.04672 0.99191,-8.29523 -2.69072,-16.96295 -9.89965,-25.92865 9.58461,-11.99976 9.94839,-23.74161 6.14174,-32.51739 -3.43502,-7.91902 -9.68058,-13.50449 -15.46676,-15.826434 4.28479,-13.28639 3.71942,-23.535107 -0.33021,-31.255458 -3.9941,-7.6145 -11.07085,-12.487222 -18.95698,-15.906523 2.38138,-19.010061 -2.4176,-30.474721 -9.3462,-37.192044 -6.14702,-5.959571 -13.52225,-8.156096 -18.1653,-9.54412 2.20929,-10.7859443 0.36451,-18.889004 -3.69952,-24.271386 -4.37328,-5.791966 -10.95739,-8.286793 -16.72352,-8.320939 z m -0.031,5.291667 c 4.25218,0.02518 9.27014,1.898841 12.53154,6.218225 3.26139,4.319383 5.06196,11.2732414 2.27221,22.252388 l -0.60617,2.384867 2.33475,0.777213 c 4.81437,1.602587 12.49505,3.283036 18.40352,9.011337 5.90847,5.728301 10.37713,15.495971 7.53598,34.650082 l -0.30696,2.070155 1.94407,0.775666 c 8.01988,3.19845 14.63939,7.611671 18.12757,14.261661 3.48818,6.649987 4.14136,15.889591 -0.79788,29.600255 l -1.01751,2.825154 2.93057,0.65371 c 3.93784,0.87858 11.24387,6.11299 14.51332,13.65033 3.26946,7.53734 3.26238,17.2408 -6.68796,28.65303 l -1.4981,1.71824 1.47743,1.73581 c 7.64735,8.98294 10.8714,16.87409 10.06657,23.60477 -0.80483,6.73067 -5.5982,13.02837 -15.83004,18.9208 l -1.36839,0.78807 0.0439,1.5782 c 0.32448,11.67372 -1.64461,20.49365 -6.12883,25.54107 -4.48421,5.04742 -11.73445,7.15517 -24.08173,4.68396 l -1.59525,-0.31936 -1.00459,1.27899 c -7.01829,8.93411 -15.00357,13.3012 -22.82238,13.28497 -7.8188,-0.0162 -15.91616,-4.37538 -23.26421,-14.35674 l -0.94465,-1.28364 -1.57613,0.23512 c -9.16498,1.36661 -17.53419,1.81937 -23.03942,-1.19579 -2.75261,-1.50758 -4.95208,-3.80548 -6.57996,-7.70444 -1.62788,-3.89896 -2.59657,-9.43128 -2.4877,-17.03565 l 0.0253,-1.75958 -1.61334,-0.70332 c -7.59634,-3.31163 -13.49616,-8.99977 -15.97266,-16.05587 -2.47651,-7.0561 -1.72859,-15.63366 4.70048,-25.42325 l 0.95912,-1.46089 -0.96739,-1.45625 c -4.97715,-7.49066 -7.97126,-15.01004 -7.69462,-22.3485 0.27665,-7.33846 3.69256,-14.76587 12.51087,-22.50767 l 1.30173,-1.14308 -0.52659,-1.65003 c -3.45564,-10.828834 -3.91756,-19.675007 -1.42523,-26.703804 2.49233,-7.028796 7.91761,-12.558244 17.31574,-16.807759 l 2.13837,-0.966864 -0.70435,-2.238108 c -4.0852,-12.980813 -2.91965,-22.078397 1.28623,-29.360997 4.20587,-7.282604 11.76468,-12.895037 21.023,-17.846973 l 2.33164,-1.247469 -1.24592,-2.332158 c -2.66406,-4.987072 -3.00915,-11.4407817 -0.62838,-16.719392 2.37424,-5.264157 7.26033,-9.519808 15.92616,-10.51047 0.23663,-0.01033 0.47494,-0.01745 0.71623,-0.01602 z m 0.28371,39.135077 c -2.32809,0.06648 -4.2369,1.292106 -6.15518,2.976563 -1.91828,1.684459 -3.86595,3.972599 -5.90714,6.816637 -4.08237,5.688079 -8.50391,13.609211 -12.88965,23.120554 -8.76271,19.003652 -17.33887,44.322828 -21.97023,70.235512 -7.69553,32.18144 -2.78672,58.65896 7.63105,76.94414 10.42589,18.29941 26.38336,28.6029 40.96494,27.6319 13.89339,-0.92517 32.88729,-7.37916 45.22412,-23.91223 12.31858,-16.50863 17.49276,-42.82691 4.41833,-82.20946 -2.40674,-15.04722 -11.07062,-36.360671 -20.80286,-55.93095 -9.78511,-19.676581 -20.41787,-37.263816 -27.57971,-44.73267 l -0.46974,-0.489376 -0.64699,-0.203089 c -0.59448,-0.18682 -1.21543,-0.264708 -1.81694,-0.247531 z m -0.18501,5.415174 c 6.1459,6.833269 16.64662,23.88558 25.96018,42.613937 9.65462,19.414185 18.20648,40.833485 20.36309,54.647315 l 0.0341,0.21807 0.0698,0.20981 c 12.79734,38.42679 7.57644,62.58579 -3.58531,77.5441 -11.16175,14.95831 -28.76786,20.95979 -41.33442,21.7966 -11.77935,0.7844 -26.32311,-7.95983 -36.01538,-24.9716 -9.69226,-17.01176 -14.51701,-42.08267 -7.06726,-73.16556 l 0.0181,-0.0754 0.0134,-0.0765 c 4.53365,-25.410524 13.01035,-50.436679 21.58214,-69.026277 4.28589,-9.294799 8.60652,-16.98865 12.38322,-22.250839 1.88836,-2.631093 3.64907,-4.6517 5.09995,-5.925735 1.19544,-1.049727 2.03773,-1.410071 2.4784,-1.537891 z"
         id="path6137"
         inkscape:connector-curvature="0" />
      <path
         style="color:#000000;font-style:normal;font-variant:normal;font-weight:normal;font-stretch:normal;font-size:medium;line-height:normal;font-family:sans-serif;font-variant-ligatures:normal;font-variant-position:normal;font-variant-caps:normal;font-variant-numeric:normal;font-variant-alternates:normal;font-feature-settings:normal;text-indent:0;text-align:start;text-decoration:none;text-decoration-line:none;text-decoration-style:solid;text-decoration-color:#000000;letter-spacing:normal;word-spacing:normal;text-transform:none;writing-mode:lr-tb;direction:ltr;text-orientation:mixed;dominant-baseline:auto;baseline-shift:baseline;text-anchor:start;white-space:normal;shape-padding:0;clip-rule:nonzero;display:inline;overflow:visible;visibility:visible;opacity:1;isolation:auto;mix-blend-mode:normal;color-interpolation:sRGB;color-interpolation-filters:linearRGB;solid-color:#000000;solid-opacity:1;vector-effect:none;fill:#e6e6e6;fill-opacity:1;fill-rule:evenodd;stroke:none;stroke-width:5.29167;stroke-linecap:butt;stroke-linejoin:miter;stroke-miterlimit:4;stroke-dasharray:none;stroke-dashoffset:0;stroke-opacity:1;color-rendering:auto;image-rendering:auto;shape-rendering:auto;text-rendering:auto;enable-background:accumulate"
         d="m -412.79291,-25.931717 c -12.51654,0.251546 -23.08616,12.145093 -20.82813,24.542969 -0.0815,3.449843 4.16607,7.676298 -1.06445,8.783203 -12.88901,6.812153 -24.01719,19.537676 -22.70313,34.917969 0.16426,4.592371 1.14431,9.107887 2.40039,13.513671 -11.58021,4.795774 -20.99736,16.176743 -20.31054,29.289063 -0.011,6.046138 1.29952,11.816598 3.02734,17.607422 -10.00143,8.15381 -16.40769,22.21674 -11.9707,34.70313 1.45026,4.93727 3.91038,9.50399 6.67187,13.82031 -7.85269,10.93163 -8.95852,27.59172 0.94727,37.47852 3.28292,3.59192 7.24649,6.22689 11.61133,8.27539 -0.25184,10.85862 1.99264,24.75239 13.89257,28.61133 6.98331,2.2832 14.4801,1.1999 21.59961,0.22851 7.58061,10.9451 21.97972,19.39106 35.23243,13.49609 6.302,-2.57409 11.32242,-7.10365 15.59765,-12.34374 10.88486,2.54598 25.1294,0.72074 30.10938,-10.75391 3.3455,-6.96383 3.74675,-14.87872 3.66015,-22.47852 10.31916,-5.53808 20.22807,-16.62509 16.57813,-29.16797 -1.66273,-6.65512 -5.62724,-12.43557 -9.90625,-17.68164 9.08776,-9.73912 12.44351,-25.7221 3.97656,-36.89453 -3.21598,-4.67911 -7.82568,-8.43652 -13.21094,-10.318364 4.75608,-12.666057 5.75947,-29.33109 -5.48437,-38.945309 -3.90513,-3.581807 -8.6598,-6.069027 -13.50196,-8.132813 2.42004,-14.775293 0.17845,-33.245499 -14.23632,-41.285156 -4.14812,-2.504631 -8.81208,-3.937815 -13.43164,-5.28711 3.1043,-10.8291443 1.13945,-25.620899 -10.55079,-30.380859 -2.5478,-1.096723 -5.33024,-1.658579 -8.10546,-1.597656 z m 0.51953,1.287109 c 10.83884,-0.293124 18.92382,10.229708 18.17187,20.5488284 0.45834,3.6594956 -1.65955,8.2947106 -1.04297,11.1777346 11.10557,2.617295 22.69165,8.904867 26.13672,20.58789 2.77807,8.287549 2.36652,17.251051 1.10156,25.779297 11.55507,3.86974 22.51887,13.59944 22.57813,26.605469 0.33113,7.081758 -1.4708,14.068805 -3.88281,20.669929 14.62444,3.9409 23.48466,22.44032 16.08593,36.08008 -1.33594,3.86852 -5.35647,7.32193 -6.4707,10.5039 7.61245,8.54503 14.60572,21.60261 7.9668,32.67969 -3.195,6.00547 -9.64801,9.67054 -14.58594,13.46484 0.33091,11.35396 -1.13464,26.36625 -13.08008,31.52539 -6.34703,2.9275 -13.86607,1.33906 -20.16992,0.94336 -7.42408,10.3818 -21.61518,17.90256 -34.07422,11.9336 -6.57212,-2.59419 -11.35414,-8.56778 -15.80859,-13.32422 -9.97439,1.42632 -23.39232,3.13891 -29.89844,-6.59571 -4.43403,-6.39613 -4.01982,-15.02046 -4.90039,-21.95898 -12.59142,-4.86587 -21.61548,-19.04839 -17.57227,-32.51563 0.80223,-4.53595 4.02098,-8.75629 5.43165,-12.61914 -7.58991,-10.44483 -11.43624,-25.4792 -3.86524,-36.99804 2.21261,-4.30946 6.64215,-7.63635 9.22461,-11.1543 -4.45941,-12.640994 -5.21379,-29.094953 5.75391,-38.734378 3.41665,-3.173378 7.50059,-5.538707 11.74609,-7.419922 -4.70094,-12.711692 -3.9067,-28.527513 6.47461,-38.28125 4.92994,-5.05949 10.99697,-8.836762 17.19531,-12.140625 -6.46599,-10.5083057 -1.27204,-26.302985 11.01367,-29.558594 2.09509,-0.643497 4.27214,-1.152351 6.47071,-1.199219 z m 0.0332,43.154297 c -8.02351,2.721821 -11.72639,11.741331 -16.1041,18.342816 -17.16825,31.776188 -27.24724,67.457065 -31.89785,103.219685 -2.59218,27.93159 5.49462,60.4662 30.29882,76.73438 15.66618,10.42715 35.95021,4.1447 50.51758,-5.44141 19.05441,-12.68296 26.27469,-36.61502 24.11524,-58.47265 -1.07746,-16.48431 -6.90272,-32.18568 -10.6875,-48.22657 -9.46858,-28.272536 -22.74396,-55.228099 -39.53321,-79.791016 -2.09991,-1.987099 -3.48078,-6.326506 -6.70898,-6.365235 z m 1.56055,2.078125 c 16.28244,20.72446 27.77951,44.829538 37.91406,69.035152 4.79951,10.880964 7.28687,22.510964 10.36079,33.905514 7.07615,23.09028 10.37947,50.36718 -3.24556,71.79371 -10.59186,16.34028 -30.44876,26.39394 -49.85351,25.44141 -20.42341,-3.45 -33.88257,-22.79536 -39.63515,-41.39816 -6.9885,-21.56174 -4.27391,-44.62825 0.83046,-66.26395 6.50156,-29.266889 15.96542,-58.458237 32.19727,-83.867192 2.83514,-3.779298 5.68087,-8.361972 10.53125,-9.673828 l 0.65911,0.752045 z"
         id="path6139"
         inkscape:connector-curvature="0" />
      <g
         transform="translate(-277.89049,-11.763696)"
         id="g6345">
        <circle
           r="20.884315"
           cy="7.6030416"
           cx="-134.55161"
           id="circle6339"
           style="opacity:1;fill:#808080;fill-opacity:1;stroke:none;stroke-width:3.89912;stroke-linecap:round;stroke-linejoin:round;stroke-miterlimit:4;stroke-dasharray:none;stroke-dashoffset:0;stroke-opacity:1" />
        <circle
           style="opacity:1;fill:url(#pattern6351);fill-opacity:1;stroke:#cccccc;stroke-width:3.89912;stroke-linecap:round;stroke-linejoin:round;stroke-miterlimit:4;stroke-dasharray:none;stroke-dashoffset:0;stroke-opacity:1"
           id="circle6341"
           cx="-134.55161"
           cy="7.6030416"
           r="20.884315" />
        <circle
           r="20.884315"
           cy="7.6030416"
           cx="-134.55161"
           id="circle6343"
           style="opacity:1;fill:none;fill-opacity:1;stroke:#e6e6e6;stroke-width:1.32292;stroke-linecap:round;stroke-linejoin:round;stroke-miterlimit:4;stroke-dasharray:none;stroke-dashoffset:0;stroke-opacity:1" />
      </g>
    </g>
    <g
       transform="matrix(0.32387185,0,0,0.32387185,67.415772,45.687007)"
       style="display:inline"
       id="g6376">
      <g
         transform="translate(242.40725,21.630185)"
         id="g6258">
        <path
           sodipodi:nodetypes="csccc"
           inkscape:connector-curvature="0"
           id="path6242"
           d="m -85.037082,131.43885 c 25.945301,77.90644 -20.794638,101.05509 -47.254588,102.81708 -26.36093,1.7554 -61.00243,-38.09571 -45.83151,-101.394 9.45728,-53.006797 35.75352,-103.937701 45.35715,-100.919642 13.19102,13.756483 43.221143,70.622582 47.728948,99.496562 z"
           style="display:inline;opacity:1;fill:#1c5c33;fill-opacity:1;stroke:none;stroke-width:1.18996;stroke-linecap:round;stroke-linejoin:round;stroke-miterlimit:4;stroke-dasharray:none;stroke-dashoffset:0;stroke-opacity:1" />
        <path
           transform="scale(0.26458333)"
           inkscape:connector-curvature="0"
           id="path6244"
           d="m -505.37695,120.24805 c -38.86292,1.10975 -133.2167,187.8282 -167.84375,381.9082 -57.33891,239.23763 73.58884,389.85529 173.2207,383.2207 79.71697,-5.30842 208.13585,-61.97886 207.29492,-233.89062 -22.03054,103.90063 -106.8015,140.36977 -162.34961,144.27734 -80.61562,5.67099 -186.55506,-123.07142 -140.16015,-327.5625 23.74239,-140.57693 82.18203,-276.60908 118.60156,-315.4375 -9.40193,-13.54528 -17.96053,-24.50849 -25.17969,-32.03711 -1.13429,-0.35646 -2.33034,-0.51431 -3.58398,-0.47851 z"
           style="display:inline;opacity:0.54;fill:#268049;fill-opacity:1;stroke:none;stroke-width:4.49747;stroke-linecap:round;stroke-linejoin:round;stroke-miterlimit:4;stroke-dasharray:none;stroke-dashoffset:0;stroke-opacity:1;filter:url(#filter4520)" />
        <path
           sodipodi:nodetypes="cccc"
           inkscape:connector-curvature="0"
           id="path6246"
           d="m -152.27002,72.152676 c -8.4935,25.753387 -19.56381,16.984378 -20.61784,93.669504 8.58352,5.57544 8.49859,-0.32396 10.2044,-9.12918 2.9841,-27.60174 -1.61728,-46.19573 10.41344,-84.540324 z"
           style="display:inline;fill:#66d3a3;fill-opacity:1;fill-rule:evenodd;stroke:none;stroke-width:0.264583px;stroke-linecap:butt;stroke-linejoin:miter;stroke-opacity:1;filter:url(#filter4564)" />
        <path
           sodipodi:nodetypes="cccc"
           inkscape:connector-curvature="0"
           id="path6248"
           d="m -87.733768,155.23944 c 6.371654,18.22469 9.345315,49.84375 -14.582452,56.65641 -9.83849,3.0017 -8.28942,-13.98034 -3.34679,-16.25585 13.48835,-5.16419 16.378813,-22.04183 17.929242,-40.40056 z"
           style="display:inline;fill:#66d3a3;fill-opacity:1;fill-rule:evenodd;stroke:none;stroke-width:0.264583px;stroke-linecap:butt;stroke-linejoin:miter;stroke-opacity:1;filter:url(#filter4568)" />
        <path
           inkscape:connector-curvature="0"
           id="path6250"
           d="m -134.05797,-12.610083 c -0.32317,-0.0019 -0.64276,0.0054 -0.95859,0.02119 -18.97537,2.124799 -23.51894,19.6711142 -17.40463,31.116963 -18.91553,10.117226 -32.06531,23.389403 -23.58512,50.335427 -19.7008,8.908028 -24.44398,24.407159 -17.32142,46.726863 -18.41327,16.16544 -15.58699,32.78819 -5.2741,48.30919 -13.55422,20.63909 -3.88174,38.24728 12.42663,45.35692 -0.44916,31.37458 16.58062,31.35832 35.14256,28.59051 15.37535,20.8854 35.56383,19.89379 50.2977,1.13791 25.711181,5.14589 34.041478,-8.90459 33.374712,-32.89256 21.28049,-12.25527 22.26537,-27.96551 6.458003,-46.5336 20.929235,-24.00413 1.141381,-44.30757 -9.243364,-46.62454 10.192528,-28.293073 -2.175764,-40.570827 -18.838643,-47.216237 5.844474,-39.401516 -18.768178,-43.579672 -27.721308,-46.559948 5.85218,-23.0314498 -7.33411,-31.708759 -17.35243,-31.768086 z m 0.34365,44.425712 c 0.3317,-0.0095 0.64815,0.03229 0.94827,0.126606 13.19101,13.756484 43.22106,70.622785 47.728865,99.496765 25.945298,77.90644 -20.794535,101.05499 -47.254475,102.81698 -26.36093,1.7554 -61.00223,-38.09552 -45.83131,-101.39381 9.16174,-51.35033 34.12617,-100.752919 44.40865,-101.046541 z"
           style="opacity:1;fill:#808080;fill-opacity:1;fill-rule:evenodd;stroke:none;stroke-width:0.264583px;stroke-linecap:butt;stroke-linejoin:miter;stroke-opacity:1" />
        <path
           style="opacity:0.75;fill:url(#pattern6230);fill-opacity:1;fill-rule:evenodd;stroke:none;stroke-width:0.264583px;stroke-linecap:butt;stroke-linejoin:miter;stroke-opacity:1"
           d="m -134.05797,-12.610083 c -0.32317,-0.0019 -0.64276,0.0054 -0.95859,0.02119 -18.97537,2.124799 -23.51894,19.6711142 -17.40463,31.116963 -18.91553,10.117226 -32.06531,23.389403 -23.58512,50.335427 -19.7008,8.908028 -24.44398,24.407159 -17.32142,46.726863 -18.41327,16.16544 -15.58699,32.78819 -5.2741,48.30919 -13.55422,20.63909 -3.88174,38.24728 12.42663,45.35692 -0.44916,31.37458 16.58062,31.35832 35.14256,28.59051 15.37535,20.8854 35.56383,19.89379 50.2977,1.13791 25.711181,5.14589 34.041478,-8.90459 33.374712,-32.89256 21.28049,-12.25527 22.26537,-27.96551 6.458003,-46.5336 20.929235,-24.00413 1.141381,-44.30757 -9.243364,-46.62454 10.192528,-28.293073 -2.175764,-40.570827 -18.838643,-47.216237 5.844474,-39.401516 -18.768178,-43.579672 -27.721308,-46.559948 5.85218,-23.0314498 -7.33411,-31.708759 -17.35243,-31.768086 z m 0.34365,44.425712 c 0.3317,-0.0095 0.64815,0.03229 0.94827,0.126606 13.19101,13.756484 43.22106,70.622785 47.728865,99.496765 25.945298,77.90644 -20.794535,101.05499 -47.254475,102.81698 -26.36093,1.7554 -61.00223,-38.09552 -45.83131,-101.39381 9.16174,-51.35033 34.12617,-100.752919 44.40865,-101.046541 z"
           id="path6252"
           inkscape:connector-curvature="0" />
        <path
           inkscape:connector-curvature="0"
           id="path6254"
           d="m -134.04246,-15.255916 c -0.3732,-0.0022 -0.74191,0.006 -1.1064,0.02429 l -0.0811,0.0041 -0.0811,0.0093 c -10.2649,1.149429 -17.12194,6.717128 -20.22822,13.604337 -2.73749,6.0695375 -2.71368,13.033287 -0.30954,19.022611 -8.73875,4.908447 -16.33244,10.693224 -20.92947,18.653126 -4.71019,8.155834 -5.94703,18.486951 -2.34973,31.402216 -9.14567,4.595762 -15.2752,10.906813 -18.0914,18.84898 -2.88017,8.122552 -2.32374,17.654106 0.90123,28.469586 -8.69104,8.07981 -12.74301,16.62231 -13.06277,25.10441 -0.31572,8.37505 2.85763,16.44033 7.68119,24.05848 -6.27603,10.31794 -7.29105,20.2986 -4.38371,28.58223 2.86263,8.15625 9.3111,14.50293 17.29868,18.39526 0.0452,7.2282 0.99065,12.96991 2.85926,17.44545 2.01894,4.83559 5.15249,8.24318 8.92142,10.30738 7.12924,3.90461 15.95349,3.24633 24.83879,1.98127 7.82893,10.05023 17.11033,15.25035 26.51673,15.26987 9.37695,0.0195 18.43704,-5.06451 25.961207,-14.09888 12.54411,2.17799 21.807715,-0.189 27.50943,-6.60683 5.689608,-6.40421 7.614949,-16.05089 7.469828,-27.66756 10.195703,-6.1999 16.101068,-13.59131 17.112136,-22.04672 0.991912,-8.29523 -2.690717,-16.96295 -9.899655,-25.92865 9.584618,-11.99976 9.948396,-23.74161 6.141743,-32.51739 -3.435016,-7.91902 -9.680583,-13.50449 -15.466755,-15.82643 4.284786,-13.28639 3.719414,-23.535107 -0.330214,-31.255458 -3.994102,-7.6145 -11.070849,-12.487222 -18.956982,-15.906523 2.381387,-19.010061 -2.417599,-30.474721 -9.346198,-37.192044 -6.14702,-5.959571 -13.52225,-8.156096 -18.1653,-9.54412 2.20929,-10.7859443 0.36451,-18.8890036 -3.69952,-24.2713863 -4.37328,-5.7919657 -10.95739,-8.2867927 -16.72352,-8.3209387 z m -0.031,5.2916665 c 4.25218,0.025181 9.27014,1.8988416 12.53154,6.218225 3.26139,4.31938338 5.06196,11.2732419 2.27221,22.2523885 l -0.60617,2.384867 2.33475,0.777213 c 4.81437,1.602587 12.49505,3.283036 18.403523,9.011337 5.908471,5.728301 10.377125,15.495971 7.535974,34.650082 l -0.306957,2.070155 1.944066,0.775666 c 8.019886,3.19845 14.639396,7.611671 18.127575,14.261661 3.488182,6.649987 4.141359,15.889591 -0.797883,29.600255 l -1.017508,2.82515 2.93057,0.65371 c 3.937839,0.87858 11.243868,6.11299 14.513324,13.65033 3.269459,7.53734 3.262379,17.2408 -6.687962,28.65303 l -1.4981,1.71824 1.477428,1.73581 c 7.647347,8.98294 10.871398,16.87409 10.06657,23.60477 -0.804828,6.73067 -5.598197,13.02837 -15.830042,18.9208 l -1.368391,0.78807 0.04392,1.5782 c 0.324482,11.67372 -1.64461,20.49365 -6.128824,25.54107 -4.484214,5.04742 -11.734451,7.15517 -24.081733,4.68396 l -1.59525,-0.31936 -1.00459,1.27899 c -7.01829,8.93411 -15.00357,13.3012 -22.82238,13.28497 -7.8188,-0.0162 -15.91616,-4.37538 -23.26421,-14.35674 l -0.94465,-1.28364 -1.57613,0.23512 c -9.16498,1.36661 -17.53419,1.81937 -23.03942,-1.19579 -2.75261,-1.50758 -4.95208,-3.80548 -6.57996,-7.70444 -1.62788,-3.89896 -2.59657,-9.43128 -2.4877,-17.03565 l 0.0253,-1.75958 -1.61334,-0.70332 c -7.59634,-3.31163 -13.49616,-8.99977 -15.97266,-16.05587 -2.47651,-7.0561 -1.72859,-15.63366 4.70048,-25.42325 l 0.95912,-1.46089 -0.96739,-1.45625 c -4.97715,-7.49066 -7.97126,-15.01004 -7.69462,-22.3485 0.27665,-7.33846 3.69256,-14.76587 12.51087,-22.50767 l 1.30173,-1.14308 -0.52659,-1.65003 c -3.45564,-10.82883 -3.91756,-19.675003 -1.42523,-26.7038 2.49233,-7.028796 7.91761,-12.558244 17.31574,-16.807759 l 2.13837,-0.966864 -0.70435,-2.238108 c -4.0852,-12.980813 -2.91965,-22.078397 1.28623,-29.360997 4.20587,-7.282604 11.76468,-12.895037 21.023,-17.846973 l 2.33164,-1.247469 -1.24592,-2.332158 c -2.66406,-4.987072 -3.00915,-11.4407817 -0.62838,-16.71939242 2.37424,-5.26415628 7.26033,-9.51980718 15.92616,-10.51046938 0.23663,-0.010329 0.47494,-0.017449 0.71623,-0.01602 z m 0.28371,39.1350775 c -2.32809,0.06648 -4.2369,1.292106 -6.15518,2.976563 -1.91828,1.684459 -3.86595,3.972599 -5.90714,6.816637 -4.08237,5.688079 -8.50391,13.609211 -12.88965,23.120554 -8.76271,19.003652 -17.33887,44.322828 -21.97023,70.235508 -7.69553,32.18144 -2.78672,58.65896 7.63105,76.94414 10.42589,18.29941 26.38336,28.6029 40.96494,27.6319 13.89339,-0.92517 32.887291,-7.37916 45.224116,-23.91223 12.318585,-16.50863 17.492766,-42.82691 4.418335,-82.20946 -2.406742,-15.04722 -11.070618,-36.360667 -20.802861,-55.930946 -9.78511,-19.676581 -20.41787,-37.263816 -27.57971,-44.73267 l -0.46974,-0.489376 -0.64699,-0.203089 c -0.59448,-0.18682 -1.21543,-0.264708 -1.81694,-0.247531 z m -0.18501,5.415174 c 6.1459,6.833269 16.64662,23.88558 25.96018,42.613937 9.654618,19.414185 18.20648,40.833481 20.363094,54.647311 l 0.03411,0.21807 0.06976,0.20981 c 12.797332,38.42679 7.576439,62.58579 -3.585311,77.5441 -11.161753,14.95831 -28.767863,20.95979 -41.334423,21.7966 -11.77935,0.7844 -26.32311,-7.95983 -36.01538,-24.9716 -9.69226,-17.01176 -14.51701,-42.08267 -7.06726,-73.16556 l 0.0181,-0.0754 0.0134,-0.0765 c 4.53365,-25.41052 13.01035,-50.436675 21.58214,-69.026273 4.28589,-9.294799 8.60652,-16.98865 12.38322,-22.250839 1.88836,-2.631093 3.64907,-4.6517 5.09995,-5.925735 1.19544,-1.049727 2.03773,-1.410071 2.4784,-1.537891 z"
           style="color:#000000;font-style:normal;font-variant:normal;font-weight:normal;font-stretch:normal;font-size:medium;line-height:normal;font-family:sans-serif;font-variant-ligatures:normal;font-variant-position:normal;font-variant-caps:normal;font-variant-numeric:normal;font-variant-alternates:normal;font-feature-settings:normal;text-indent:0;text-align:start;text-decoration:none;text-decoration-line:none;text-decoration-style:solid;text-decoration-color:#000000;letter-spacing:normal;word-spacing:normal;text-transform:none;writing-mode:lr-tb;direction:ltr;text-orientation:mixed;dominant-baseline:auto;baseline-shift:baseline;text-anchor:start;white-space:normal;shape-padding:0;clip-rule:nonzero;display:inline;overflow:visible;visibility:visible;opacity:1;isolation:auto;mix-blend-mode:normal;color-interpolation:sRGB;color-interpolation-filters:linearRGB;solid-color:#000000;solid-opacity:1;vector-effect:none;fill:#cccccc;fill-opacity:1;fill-rule:evenodd;stroke:none;stroke-width:5.29167;stroke-linecap:butt;stroke-linejoin:miter;stroke-miterlimit:4;stroke-dasharray:none;stroke-dashoffset:0;stroke-opacity:1;color-rendering:auto;image-rendering:auto;shape-rendering:auto;text-rendering:auto;enable-background:accumulate" />
        <path
           inkscape:connector-curvature="0"
           id="path6256"
           d="m -134.58398,-13.251953 c -12.51654,0.251546 -23.08616,12.1450928 -20.82813,24.542969 -0.0815,3.449843 4.16607,7.676298 -1.06445,8.783203 -12.88901,6.812153 -24.01719,19.537676 -22.70313,34.917969 0.16426,4.592371 1.14431,9.107887 2.40039,13.513671 -11.58021,4.795774 -20.99736,16.176743 -20.31054,29.289063 -0.011,6.046138 1.29952,11.816598 3.02734,17.607418 -10.00143,8.15381 -16.40769,22.21674 -11.9707,34.70313 1.45026,4.93727 3.91038,9.50399 6.67187,13.82031 -7.85269,10.93163 -8.95852,27.59172 0.94727,37.47852 3.28292,3.59192 7.24649,6.22689 11.61133,8.27539 -0.25184,10.85862 1.99264,24.75239 13.89257,28.61133 6.98331,2.2832 14.4801,1.1999 21.59961,0.22851 7.58061,10.9451 21.97972,19.39106 35.23243,13.49609 6.302,-2.57409 11.32242,-7.10365 15.59765,-12.34374 10.884857,2.54598 25.129395,0.72074 30.109376,-10.75391 3.345501,-6.96383 3.746758,-14.87872 3.660156,-22.47852 10.319155,-5.53808 20.228073,-16.62509 16.578126,-29.16797 -1.662727,-6.65512 -5.627234,-12.43557 -9.90625,-17.68164 9.087766,-9.73912 12.443516,-25.7221 3.976562,-36.89453 -3.215977,-4.67911 -7.825683,-8.43652 -13.210938,-10.31836 4.756074,-12.666057 5.759471,-29.33109 -5.484374,-38.945309 -3.905123,-3.581807 -8.659801,-6.069027 -13.501954,-8.132813 2.420038,-14.775293 0.17845,-33.245499 -14.236324,-41.285156 -4.14812,-2.504631 -8.81208,-3.937815 -13.43164,-5.28711 3.1043,-10.8291443 1.13945,-25.6208987 -10.55079,-30.380859 -2.5478,-1.096723 -5.33024,-1.658579 -8.10546,-1.597656 z m 0.51953,1.287109 c 10.83884,-0.293124 18.92382,10.2297076 18.17187,20.5488284 0.45834,3.6594956 -1.65955,8.2947106 -1.04297,11.1777346 11.10557,2.617295 22.691653,8.904867 26.136722,20.58789 2.778072,8.287549 2.366522,17.251051 1.101562,25.779297 11.555064,3.86974 22.518867,13.59944 22.578125,26.605469 0.331128,7.081758 -1.470798,14.068805 -3.882812,20.669925 14.624442,3.9409 23.484662,22.44032 16.085937,36.08008 -1.33594,3.86852 -5.356472,7.32193 -6.470703,10.5039 7.612444,8.54503 14.605722,21.60261 7.966797,32.67969 -3.194998,6.00547 -9.648012,9.67054 -14.585937,13.46484 0.330909,11.35396 -1.134644,26.36625 -13.080079,31.52539 -6.347037,2.9275 -13.866071,1.33906 -20.169922,0.94336 -7.42408,10.3818 -21.61518,17.90256 -34.07422,11.9336 -6.57212,-2.59419 -11.35414,-8.56778 -15.80859,-13.32422 -9.97439,1.42632 -23.39232,3.13891 -29.89844,-6.59571 -4.43403,-6.39613 -4.01982,-15.02046 -4.90039,-21.95898 -12.59142,-4.86587 -21.61548,-19.04839 -17.57227,-32.51563 0.80223,-4.53595 4.02098,-8.75629 5.43165,-12.61914 -7.58991,-10.44483 -11.43624,-25.4792 -3.86524,-36.99804 2.21261,-4.30946 6.64215,-7.63635 9.22461,-11.1543 -4.45941,-12.64099 -5.21379,-29.094949 5.75391,-38.734374 3.41665,-3.173378 7.50059,-5.538707 11.74609,-7.419922 -4.70094,-12.711692 -3.9067,-28.527513 6.47461,-38.28125 4.92994,-5.05949 10.99697,-8.836762 17.19531,-12.140625 -6.46599,-10.5083057 -1.27204,-26.3029847 11.01367,-29.558594 2.09509,-0.643497 4.27214,-1.152351 6.47071,-1.199219 z m 0.0332,43.154297 c -8.02351,2.721821 -11.72639,11.741331 -16.1041,18.342816 -17.16825,31.776188 -27.24724,67.457061 -31.89785,103.219681 -2.59218,27.93159 5.49462,60.4662 30.29882,76.73438 15.66618,10.42715 35.95021,4.1447 50.51758,-5.44141 19.054409,-12.68296 26.274689,-36.61502 24.115238,-58.47265 -1.077455,-16.48431 -6.902713,-32.18568 -10.6875,-48.22657 -9.468582,-28.272532 -22.743958,-55.228095 -39.533208,-79.791012 -2.09991,-1.987099 -3.48078,-6.326506 -6.70898,-6.365235 z m 1.56055,2.078125 c 16.28244,20.72446 27.77951,44.829538 37.914059,69.035152 4.799507,10.88096 7.286867,22.51096 10.360795,33.90551 7.076149,23.09028 10.379464,50.36718 -3.24556,71.79371 -10.591864,16.34028 -30.448764,26.39394 -49.853514,25.44141 -20.42341,-3.45 -33.88257,-22.79536 -39.63515,-41.39816 -6.9885,-21.56174 -4.27391,-44.62825 0.83046,-66.26395 6.50156,-29.266885 15.96542,-58.458233 32.19727,-83.867188 2.83514,-3.779298 5.68087,-8.361972 10.53125,-9.673828 l 0.65911,0.752045 z"
           style="color:#000000;font-style:normal;font-variant:normal;font-weight:normal;font-stretch:normal;font-size:medium;line-height:normal;font-family:sans-serif;font-variant-ligatures:normal;font-variant-position:normal;font-variant-caps:normal;font-variant-numeric:normal;font-variant-alternates:normal;font-feature-settings:normal;text-indent:0;text-align:start;text-decoration:none;text-decoration-line:none;text-decoration-style:solid;text-decoration-color:#000000;letter-spacing:normal;word-spacing:normal;text-transform:none;writing-mode:lr-tb;direction:ltr;text-orientation:mixed;dominant-baseline:auto;baseline-shift:baseline;text-anchor:start;white-space:normal;shape-padding:0;clip-rule:nonzero;display:inline;overflow:visible;visibility:visible;opacity:1;isolation:auto;mix-blend-mode:normal;color-interpolation:sRGB;color-interpolation-filters:linearRGB;solid-color:#000000;solid-opacity:1;vector-effect:none;fill:#e6e6e6;fill-opacity:1;fill-rule:evenodd;stroke:none;stroke-width:5.29167;stroke-linecap:butt;stroke-linejoin:miter;stroke-miterlimit:4;stroke-dasharray:none;stroke-dashoffset:0;stroke-opacity:1;color-rendering:auto;image-rendering:auto;shape-rendering:auto;text-rendering:auto;enable-background:accumulate" />
      </g>
      <g
         transform="translate(242.18916,21.075588)"
         id="g6359">
        <circle
           r="20.884315"
           cy="7.6030416"
           cx="-134.55161"
           id="circle6353"
           style="opacity:1;fill:#808080;fill-opacity:1;stroke:none;stroke-width:3.89912;stroke-linecap:round;stroke-linejoin:round;stroke-miterlimit:4;stroke-dasharray:none;stroke-dashoffset:0;stroke-opacity:1" />
        <circle
           style="opacity:0.75;fill:url(#pattern6361);fill-opacity:1;stroke:#cccccc;stroke-width:3.89912;stroke-linecap:round;stroke-linejoin:round;stroke-miterlimit:4;stroke-dasharray:none;stroke-dashoffset:0;stroke-opacity:1"
           id="circle6355"
           cx="-134.55161"
           cy="7.6030416"
           r="20.884315" />
        <circle
           r="20.884315"
           cy="7.6030416"
           cx="-134.55161"
           id="circle6357"
           style="opacity:1;fill:none;fill-opacity:1;stroke:#e6e6e6;stroke-width:1.32292;stroke-linecap:round;stroke-linejoin:round;stroke-miterlimit:4;stroke-dasharray:none;stroke-dashoffset:0;stroke-opacity:1" />
      </g>
    </g>
  </g>
</svg>
