<?xml version="1.0" encoding="UTF-8" standalone="no"?>
<svg
   id="svg2"
   viewBox="0 0 332.59843 472.44093"
   version="1.1"
   sodipodi:docname="foot.svg"
   width="88mm"
   height="125mm"
   inkscape:version="1.2.2 (732a01da63, 2022-12-09)"
   xmlns:inkscape="http://www.inkscape.org/namespaces/inkscape"
   xmlns:sodipodi="http://sodipodi.sourceforge.net/DTD/sodipodi-0.dtd"
   xmlns="http://www.w3.org/2000/svg"
   xmlns:svg="http://www.w3.org/2000/svg"
   xmlns:rdf="http://www.w3.org/1999/02/22-rdf-syntax-ns#"
   xmlns:cc="http://creativecommons.org/ns#"
   xmlns:dc="http://purl.org/dc/elements/1.1/">
  <defs
     id="defs30" />
  <sodipodi:namedview
     pagecolor="#ffffff"
     bordercolor="#666666"
     borderopacity="1"
     objecttolerance="10"
     gridtolerance="10"
     guidetolerance="10"
     inkscape:pageopacity="0"
     inkscape:pageshadow="2"
     inkscape:window-width="1920"
     inkscape:window-height="1017"
     id="namedview28"
     showgrid="false"
     units="mm"
     inkscape:zoom="1.3552674"
     inkscape:cx="-9.9611339"
     inkscape:cy="240.17401"
     inkscape:window-x="-8"
     inkscape:window-y="-8"
     inkscape:window-maximized="1"
     inkscape:current-layer="g3050"
     inkscape:document-rotation="0"
     inkscape:showpageshadow="0"
     inkscape:pagecheckerboard="0"
     inkscape:deskcolor="#d1d1d1"
     inkscape:document-units="mm" />
  <g
     id="layer2"
     transform="matrix(0.50712295,0,0,0.50712295,-188.25388,-115.59168)">
    <g
       id="g3050"
       style="display:inline">
      <path
         id="path2997"
         style="color:#000000;display:inline;stroke-width:7.07556;stroke-miterlimit:4;stroke-dasharray:none"
         d="m 549.27323,846.74628 c 8.9714,87.81226 28.06193,175.90442 80.12758,239.24762 53.14448,64.6673 172.16072,54.3801 186.21442,-44.0138 10.15693,-71.09844 -58.03876,-169.32599 -53.04163,-274.24428 4.51141,-94.71829 64.22238,-142.55826 83.51243,-204.26294 24.4869,-78.3287 -29.34292,-146.70859 -29.34292,-146.70859 -9.02761,-173.79933 -85.50625,-161.1809 -113.98442,-142.19944 -39.49985,-11.28554 -47.39982,27.08475 -47.39982,27.08475 -44.01377,-18.05691 -50.78465,45.14165 -50.78465,45.14165 -30.4708,-2.25708 -36.11381,58.68464 -36.11381,58.68464 -39.49985,31.59987 -16.92782,116.24138 -16.92782,116.24138 -13.54298,116.24138 -13.30975,216.84548 -2.25708,325.02901 z"
         stroke="#deaa87"
         stroke-width="2.0208"
         fill="#ffe6d5" />
      <g
         id="g3018"
         stroke="#deaa87"
         stroke-width="2"
         fill="none"
         transform="matrix(1.208498,0,0,1.208498,198.28974,48.867325)"
         style="display:inline;stroke-width:5.85484;stroke-miterlimit:4;stroke-dasharray:none">
        <path
           id="path3002"
           style="color:#000000;stroke-width:5.85484;stroke-miterlimit:4;stroke-dasharray:none"
           d="M 317.62,380.89 C 388.28,299.67 306.39,295.7 306.39,295.7" />
        <path
           id="path3004"
           style="color:#000000;stroke-width:5.85484;stroke-miterlimit:4;stroke-dasharray:none"
           d="m 511.76,305.61 c -17.829,-14.527 -46.223,-1.3207 -46.223,-1.3207" />
        <path
           id="path3006"
           style="color:#000000;stroke-width:5.85484;stroke-miterlimit:4;stroke-dasharray:none"
           d="m 472.8,312.21 c -47.55,-54.8 -103.01,-7.26 -103.01,-7.26" />
        <path
           id="path3008"
           style="color:#000000;stroke-width:5.85484;stroke-miterlimit:4;stroke-dasharray:none"
           d="m 375.07,313.53 c -16.579,1.4758 -15.41,19.529 -25.753,28.394" />
        <path
           id="path3010"
           style="color:#000000;stroke-width:5.85484;stroke-miterlimit:4;stroke-dasharray:none"
           d="m 335.45,246.18 c 62.071,-3.962 25.093,66.033 25.093,66.033 2.6413,0.66033 1.3207,8.5843 1.3207,8.5843" />
        <path
           id="path3012"
           style="color:#000000;stroke-width:5.85484;stroke-miterlimit:4;stroke-dasharray:none"
           d="m 378.37,209.2 c 34.337,24.432 8.5843,62.071 8.5843,62.071 5.943,3.962 3.3017,17.169 3.3017,17.169" />
        <path
           id="path3014"
           style="color:#000000;stroke-width:5.85484;stroke-miterlimit:4;stroke-dasharray:none"
           d="m 417.99,186.75 c 36.318,19.81 10.565,58.77 10.565,58.77 2.6413,1.981 0,11.886 0,11.886" />
        <path
           id="path3016"
           style="color:#000000;stroke-width:5.85484;stroke-miterlimit:4;stroke-dasharray:none"
           d="m 421.29,257.41 c 14.527,0 11.886,27.074 11.886,27.074" />
      </g>
    </g>
  </g>
  <metadata
     id="metadata25">
    <rdf:RDF>
      <cc:Work>
        <dc:format>image/svg+xml</dc:format>
        <dc:type
           rdf:resource="http://purl.org/dc/dcmitype/StillImage" />
        <cc:license
           rdf:resource="http://creativecommons.org/publicdomain/zero/1.0/" />
        <dc:publisher>
          <cc:Agent
             rdf:about="http://openclipart.org/">
            <dc:title>Openclipart</dc:title>
          </cc:Agent>
        </dc:publisher>
        <dc:title>Feet Soles</dc:title>
        <dc:date>2013-08-29T01:22:32</dc:date>
        <dc:description>Just a female soles.</dc:description>
        <dc:source>http://openclipart.org/detail/182537/feet-soles-by-solvera-182537</dc:source>
        <dc:creator>
          <cc:Agent>
            <dc:title>SOlvera</dc:title>
          </cc:Agent>
        </dc:creator>
        <dc:subject>
          <rdf:Bag>
            <rdf:li>Beach</rdf:li>
            <rdf:li>Feet</rdf:li>
            <rdf:li>Female</rdf:li>
            <rdf:li>Soles</rdf:li>
            <rdf:li>Sun</rdf:li>
            <rdf:li>Toes</rdf:li>
          </rdf:Bag>
        </dc:subject>
      </cc:Work>
      <cc:License
         rdf:about="http://creativecommons.org/publicdomain/zero/1.0/">
        <cc:permits
           rdf:resource="http://creativecommons.org/ns#Reproduction" />
        <cc:permits
           rdf:resource="http://creativecommons.org/ns#Distribution" />
        <cc:permits
           rdf:resource="http://creativecommons.org/ns#DerivativeWorks" />
      </cc:License>
    </rdf:RDF>
  </metadata>
</svg>
