<?xml version="1.0" encoding="UTF-8" standalone="no"?>
<!-- Created with Inkscape (http://www.inkscape.org/) -->

<svg
   id="svg2"
   inkscape:export-ydpi="10.455132"
   inkscape:export-filename="/home/benj/gant.png"
   viewBox="0 0 332.59842 472.44096"
   sodipodi:version="0.32"
   inkscape:export-xdpi="10.455132"
   version="1.1"
   inkscape:output_extension="org.inkscape.output.svg.inkscape"
   inkscape:version="1.2.2 (732a01da63, 2022-12-09)"
   sodipodi:docname="glove.svg"
   width="88mm"
   height="125mm"
   xmlns:inkscape="http://www.inkscape.org/namespaces/inkscape"
   xmlns:sodipodi="http://sodipodi.sourceforge.net/DTD/sodipodi-0.dtd"
   xmlns="http://www.w3.org/2000/svg"
   xmlns:svg="http://www.w3.org/2000/svg"
   xmlns:rdf="http://www.w3.org/1999/02/22-rdf-syntax-ns#"
   xmlns:cc="http://creativecommons.org/ns#"
   xmlns:dc="http://purl.org/dc/elements/1.1/">
  <defs
     id="defs143" />
  <sodipodi:namedview
     id="base"
     bordercolor="#666666"
     inkscape:pageshadow="2"
     inkscape:window-y="0"
     pagecolor="#ffffff"
     inkscape:window-maximized="0"
     inkscape:window-width="674"
     inkscape:zoom="1.4"
     inkscape:window-x="0"
     showgrid="false"
     borderopacity="1.0"
     inkscape:current-layer="layer2"
     inkscape:cx="314.64286"
     inkscape:cy="229.64286"
     inkscape:window-height="645"
     inkscape:pageopacity="0.0"
     inkscape:document-units="px"
     inkscape:showpageshadow="0"
     inkscape:pagecheckerboard="0"
     inkscape:deskcolor="#d1d1d1" />
  <g
     id="layer2"
     inkscape:groupmode="layer"
     transform="translate(-142.66,-233.4)">
    <path
       id="path3158"
       inkscape:connector-curvature="0"
       sodipodi:nodetypes="ccccccccccccccccccccccccccccccccccccccccccccccccccccc"
       style="fill:#5fd35f;fill-rule:evenodd;stroke-width:0.721376"
       d="m 217.96339,330.43922 c 6.85994,25.86558 10.01594,52.64975 17.68023,78.36464 3.58467,15.41072 8.61833,30.82271 11.31021,46.22911 -3.03751,7.04048 -2.45947,14.16555 -0.21397,21.3324 2.08733,11.11242 6.2385,22.10697 3.53926,33.48659 -0.88678,9.23577 -1.77355,18.47154 -2.66532,27.70209 -12.33248,-12.50099 -27.92851,-21.14001 -40.93376,-32.9772 -4.96597,-4.10416 -9.49391,-9.56607 -16.57703,-6.95136 -10.0542,1.06464 -20.57874,1.01179 -30.30725,3.04282 -5.0041,4.35942 -13.97108,6.33065 -12.63035,14.50313 -3.86042,8.26731 4.78029,9.76345 10.51391,12.83346 14.13671,6.09157 26.35137,15.82971 38.09776,25.51674 13.24974,18.3529 34.07846,28.94374 48.54663,46.18055 10.28837,10.79275 16.28364,24.93503 26.52264,35.88486 5.68265,5.15566 2.52243,14.75981 6.34801,20.37463 13.00473,8.61265 29.10057,8.67576 43.79457,12.62648 13.0121,1.31676 26.30579,-1.81955 39.43328,-2.2707 17.61903,-1.45445 35.58005,-1.0595 53.00508,-3.43659 12.75336,-5.01557 26.48278,-8.70865 38.64191,-14.54343 6.29532,-8.32091 12.58543,-16.63682 18.87577,-24.96294 -3.47798,-4.02042 -15.21422,-5.12034 -12.59353,-11.30263 1.35697,-5.79169 8.00718,-13.31395 -0.87787,-15.76448 -9.33824,-2.95538 -5.232,-8.71213 -0.75134,-14.55759 3.77667,-20.46834 3.4836,-41.94455 5.03015,-62.8548 0.63951,-17.94544 0.1215,-35.92143 0.28686,-53.88239 -4.65047,-8.93917 -10.66007,-18.48474 -7.62492,-28.89778 3.30504,-27.09617 3.54481,-54.47403 8.28507,-81.40599 3.12673,-7.38546 -1.80911,-25.15757 -5.29559,-30.6476 -5.83537,0.8615 -13.88894,-3.90241 -18.09122,1.11751 -7.01183,6.10104 -8.71561,30.21707 -11.67716,38.4429 -6.04816,26.31645 -11.77151,52.71149 -17.24598,79.15791 -8.13874,0.27001 -12.29101,-2.78562 -10.01423,-11.1949 0.78164,-28.58536 0.91506,-57.15947 -1.03399,-85.69772 -0.60944,-21.24337 -2.96607,-42.3823 -4.65367,-63.55244 -6.30985,-6.33273 -12.48953,-14.40753 -20.74604,-17.59935 -6.07708,1.41233 -13.98098,-0.17987 -16.52277,7.05517 -5.84546,6.19302 -1.41726,15.49464 -2.27039,23.2005 2.08364,24.50544 -0.11279,48.98308 -1.03409,73.47856 -0.4137,21.13415 -0.8274,42.26828 -1.2411,63.40241 -6.1818,5.24682 -11.66699,-3.55252 -10.61353,-9.46313 -1.9196,-25.70084 -3.24085,-51.46504 -8.28089,-76.7957 -3.83441,-24.00821 -7.69964,-48.0069 -11.55465,-72.00535 -5.08204,-3.23426 -9.64119,-9.36523 -15.03063,-10.91743 -6.36592,2.94681 -15.7739,2.23482 -17.80008,10.3843 -3.6108,5.73192 -6.83037,11.53878 -4.25153,18.39663 4.38507,28.43366 7.56822,56.99907 9.23763,85.72505 2.29533,22.53557 2.33301,45.18475 2.82037,67.80301 -7.80239,6.08875 -9.38915,-1.56872 -11.47992,-8.11481 -6.25793,-14.95929 -4.02895,-32.09937 -10.96271,-46.95108 -8.01353,-20.73779 -10.91913,-42.89901 -16.06822,-64.43098 -7.19132,-4.53066 -14.38264,-9.06132 -21.56377,-13.59176 -6.39153,2.02276 -12.40535,4.50282 -14.80989,11.297 -1.51731,2.41055 -3.03463,4.82112 -4.55195,7.23168 z" />
    <path
       id="path2398"
       inkscape:connector-curvature="0"
       sodipodi:nodetypes="cccccccccccccccccccccccccccccccccccccccccccccccccc"
       style="fill:#d7f4d7;fill-rule:evenodd;stroke-width:0.721376"
       d="m 227.01451,316.05635 c -2.66354,5.11499 -7.37222,9.96052 -8.77917,15.2409 6.39091,24.45729 9.38088,49.74287 16.51991,74.05335 3.92263,16.51511 9.07486,33.03175 12.22712,49.54524 -2.00424,5.99175 -3.40672,11.99673 -0.95906,18.09147 1.99076,12.02358 7.00091,23.86356 4.42925,36.16947 l -3.39194,39.4006 c 4.69442,-2.80499 11.17061,-4.26975 14.76104,-7.91535 1.71761,-12.44715 5.18563,-24.91194 5.79061,-37.34273 -4.827,-22.48919 -7.2975,-45.87556 -17.67616,-66.71639 -2.91304,-14.16634 -3.27573,-28.996 -9.19921,-42.45813 -7.65303,-20.19415 -10.42931,-41.74027 -15.47966,-62.65783 4.02085,-6.51373 8.04193,-13.03767 12.0578,-19.55663 -3.42845,1.38381 -6.86188,2.76243 -10.30053,4.14603 z m 65.57911,-48.55887 c -2.37893,5.86107 -7.62917,11.20491 -8.15831,17.40256 3.85969,27.49862 8.03624,54.9736 9.4153,82.74931 2.51116,25.71384 3.24971,51.52645 3.54924,77.34982 5.50719,-0.78708 12.71571,-0.28671 9.12833,-7.91676 -1.66579,-31.67494 -1.07281,-63.51451 -5.65168,-94.9678 -2.03903,-19.80539 -4.63606,-39.52611 -8.01591,-59.14668 3.41736,-7.14438 6.99544,-14.17298 13.64429,-18.84829 3.76881,-3.63658 -8.7185,2.27262 -11.93275,2.73257 -0.65792,0.22023 -1.3156,0.43025 -1.97851,0.64527 z m 68.55052,-0.84982 c -3.32157,4.87604 -8.4832,9.2065 -6.50326,15.68893 0.87152,21.62158 2.35522,43.24643 0.40064,64.84669 -1.54467,28.01756 -1.27952,56.10041 -1.96246,84.14201 5.01567,-0.47645 13.88877,3.21362 11.69853,-5.07448 1.38704,-30.3629 3.43208,-60.71644 2.35587,-91.12839 0.31982,-19.41679 -1.03552,-38.75815 -2.72789,-58.08652 3.97855,-3.19829 11.53763,-5.87907 13.24282,-9.40796 -3.08087,-5.83825 -10.13965,-0.85053 -15.25002,-1.17208 l -0.9009,0.13325 z m 78.95981,55.25762 c -4.48292,3.86068 -7.44779,8.52516 -7.84529,14.53693 -6.94721,30.54167 -15.57185,75.64874 -21.87942,106.33712 4.99213,-0.33411 13.07601,3.28248 11.99413,-4.82819 6.26507,-30.14849 13.12031,-75.06997 19.23308,-105.25241 4.81014,-3.19532 9.63048,-6.39041 14.45082,-9.58548 -3.73236,-2.42905 -10.0977,-1.82923 -15.95332,-1.20797 z M 234.08908,589.01777 c 8.71994,8.79905 17.40884,17.61781 23.36642,28.60105 4.53284,8.02328 11.66614,14.49657 16.24969,22.30157 1.36655,5.14239 0.87691,11.63175 3.35272,15.98216 3.80433,1.01225 13.24574,9.94961 10.14131,1.23834 -2.38922,-10.14455 -0.93091,-21.70452 -7.85706,-30.1733 -4.64432,-6.89817 -8.41104,-14.72603 -13.58832,-21.05427 -10.54986,-5.63003 -21.10991,-11.26031 -31.66476,-16.89555 z" />
    <path
       id="path3214"
       inkscape:connector-curvature="0"
       sodipodi:nodetypes="cccccccccccccccccccccccccccccccccccccccccccccccccccccccccccccccc"
       style="fill:#00aa44;fill-rule:evenodd;stroke-width:0.721376"
       d="m 227.01451,316.05635 c 7.33589,5.3808 16.52594,9.50641 22.71744,15.65287 6.29717,36.6085 16.38873,72.36164 25.48559,108.33782 1.03007,4.66559 -5.41712,17.80468 2.56182,14.59231 10.0507,-2.52904 20.21984,-4.41261 30.4861,-5.83997 1.1398,-9.83735 -8.77622,-2.29505 -14.12078,-1.94317 -6.94455,3.04123 -6.17481,-9.45738 -9.54766,-13.61835 -4.52293,-14.04359 -3.34999,-29.56398 -9.61598,-43.22752 -8.03326,-20.76885 -10.94363,-42.94548 -16.09182,-64.51824 -7.18634,-4.52545 -14.38286,-9.05112 -21.57418,-13.58178 -3.42845,1.38381 -6.86188,2.76243 -10.30053,4.14603 z m 65.57911,-48.55887 c 6.62172,5.37529 14.97728,9.63053 20.51736,15.70143 4.64278,23.67394 10.31951,47.19714 11.41512,71.39002 2.10287,23.39871 6.02235,46.78633 7.37591,70.15324 -0.11404,5.65066 -3.50335,14.53546 -1.61471,18.20972 9.0314,-1.65348 18.15039,-1.95297 27.30805,-1.69039 3.80967,-5.26326 11.08099,-12.49125 -0.19615,-9.17793 -6.97553,2.36196 -11.5691,2.20482 -14.86816,-5.31172 -2.96337,-23.94314 -2.16704,-48.78832 -7.1927,-72.68497 -4.29787,-26.82968 -8.60097,-53.65435 -12.90406,-80.47904 -5.08181,-3.24445 -9.64163,-9.34482 -15.03561,-10.92265 -4.93336,1.60584 -9.86671,3.21168 -14.80505,4.81229 z m 82.38727,-2.92824 c -0.64089,7.10337 2.81405,12.40392 7.94354,16.96068 2.40435,14.79291 1.89061,30.73089 3.36716,45.9524 2.06957,25.37758 5.95709,50.68291 4.22259,76.19624 -0.79667,9.77858 0.85258,20.16196 -1.47133,29.55491 -4.09113,6.46117 -7.2216,12.39245 3.25385,10.9646 9.12151,0.7465 18.05177,2.76433 27.07055,4.23817 6.72958,-8.34706 -5.86018,-5.43507 -11.11607,-6.79556 -9.57322,2.16198 -6.82743,-6.92576 -7.08094,-13.26308 0.58745,-48.75836 -1.85587,-97.51192 -6.47771,-146.03788 -6.02319,-6.60706 -12.13991,-12.90492 -19.71164,-17.77048 z M 147.93091,506.81057 c 0.0863,5.58874 -5.01675,17.23184 4.52624,11.80382 11.90361,-3.26382 23.81221,-6.52243 35.71582,-9.78625 13.70586,11.99547 30.89103,19.13368 43.93984,32.00757 5.24487,3.71744 9.85289,9.48212 15.48844,11.9071 10.25941,-0.65197 20.73293,-3.6156 30.50423,0.9922 15.61614,4.47611 31.23228,8.95221 46.84842,13.42833 -16.23157,-10.59689 -32.45813,-21.18857 -48.68472,-31.78026 -9.5468,0.72887 -19.09859,1.45252 -28.64019,2.1764 -12.31275,-12.46995 -27.86865,-21.07745 -40.84377,-32.89358 -4.99679,-4.09464 -9.54098,-9.28139 -16.62901,-8.29948 -10.03217,-0.63387 -20.57543,0.62922 -30.32035,2.24661 -3.96826,2.72912 -7.93671,5.46843 -11.90495,8.19754 z M 440.19261,322.0501 c 5.91321,5.3444 15.00131,10.62596 17.60133,17.91286 -4.46897,23.87664 -10.73919,62.1476 -12.13559,86.43875 -1.73912,12.49771 -2.10044,24.98488 0.0949,37.45174 2.0606,20.91303 4.96252,41.84965 6.50838,62.73607 -4.33636,22.95097 -8.67275,45.90194 -13.0039,68.84793 11.3941,5.52105 11.46477,15.06868 9.07878,26.58786 5.26574,13.44256 21.66441,14.58377 20.20483,0.21469 -5.54671,-3.44856 -13.88034,-5.91756 -8.06327,-13.37141 5.07241,-7.00085 0.97158,-11.00436 -5.73461,-14.16208 -7.97019,-2.98652 3.3781,-9.30343 3.52106,-14.41262 3.43829,-34.08316 5.20724,-68.3561 3.96039,-102.60862 0.0482,-7.06539 0.68138,-14.28118 -4.12951,-20.10135 -3.26875,-6.80669 -5.88956,-13.84405 -3.68738,-21.4131 3.29917,-27.06058 5.41567,-68.7852 10.12962,-95.68203 3.15868,-7.44597 -3.29039,-11.15928 -6.86301,-16.67671 -6.50023,-5.33181 -12.16943,-1.35434 -17.48198,-1.76198 z" />
    <path
       id="path2386"
       inkscape:connector-curvature="0"
       sodipodi:nodetypes="ccccccccccccccccccccccccccccccccccc"
       style="fill:none;stroke:#000000;stroke-width:2.8855;stroke-linecap:round;stroke-linejoin:round"
       d="m 218.28558,329.94119 c 7.64659,39.28107 16.54968,78.26836 27.08863,116.87832 0.82021,14.44177 -1.22391,29.20832 4.47747,43.72169 1.90537,14.28194 0.92402,32.92396 -4.09042,44.48227 -15.006,-12.26896 -31.41757,-23.03308 -45.93304,-36.03106 -14.51155,-2.03851 -33.20912,-2.11802 -46.35547,5.91958 -21.30073,18.06766 12.07679,25.05682 24.16351,34.34828 17.76264,10.80913 28.69461,28.9937 45.65469,40.80051 18.9023,13.04343 30.7453,32.72256 43.84474,50.94969 9.30182,12.96498 8.05049,33.44293 29.9595,32.72568 14.90159,2.86344 29.86525,7.54459 45.13705,4.01299 24.0958,-2.48041 48.6703,-1.90432 72.53307,-5.38987 16.33752,-7.44702 37.8413,-8.06603 46.49312,-26.10061 10.33135,-9.02807 9.48023,-16.03161 -2.96569,-21.28497 2.26809,-8.71048 7.78576,-18.09442 -5.10645,-21.38306 4.64094,-16.38294 7.31412,-36.55411 7.6309,-55.36891 1.33924,-24.47609 2.28637,-48.9863 -0.34589,-74.99363 -9.17803,-16.73782 -4.20062,-34.50113 -3.62265,-52.89692 0.84874,-20.7317 6.21501,-57.33884 7.7791,-77.88646 -9.72212,-22.15803 -37.93116,-9.89035 -34.56406,12.39838 -6.05937,26.82641 -13.86363,69.66067 -19.39487,96.60074 -19.43319,3.21051 -6.58838,-25.68613 -9.78888,-37.22101 0.43774,-40.55741 -2.4572,-81.07077 -6.15126,-121.43842 -7.61812,-20.15768 -43.92942,-25.28784 -39.96724,2.42223 3.24806,43.48035 -1.92645,86.91327 -1.53622,130.42262 3.87697,10.23849 -5.43767,27.78909 -10.67091,9.85226 -2.04992,-33.46403 -5.46448,-66.82032 -11.82698,-99.76182 -2.71316,-17.22323 -5.45716,-34.43694 -8.24195,-51.65154 -8.48154,-13.8398 -28.89551,-13.82439 -34.71216,2.19594 -7.41172,14.54137 2.16733,31.60435 1.95635,47.23264 4.65178,39.97034 7.41496,80.21038 7.65236,120.46122 -16.42023,7.49621 -14.40906,-27.11834 -17.7527,-38.17675 -6.39479,-21.72773 -14.07802,-43.10114 -17.48098,-65.61514 1.05685,-18.59444 -29.81452,-38.85526 -39.70224,-16.82228 -1.38521,2.20427 -2.77022,4.39835 -4.16043,6.59741 z" />
  </g>
  <metadata
     id="metadata9">
    <rdf:RDF>
      <cc:Work>
        <dc:format>image/svg+xml</dc:format>
        <dc:type
           rdf:resource="http://purl.org/dc/dcmitype/StillImage" />
        <cc:license
           rdf:resource="http://creativecommons.org/publicdomain/zero/1.0/" />
        <dc:publisher>
          <cc:Agent
             rdf:about="http://openclipart.org/">
            <dc:title>Openclipart</dc:title>
          </cc:Agent>
        </dc:publisher>
      </cc:Work>
      <cc:License
         rdf:about="http://creativecommons.org/publicdomain/zero/1.0/">
        <cc:permits
           rdf:resource="http://creativecommons.org/ns#Reproduction" />
        <cc:permits
           rdf:resource="http://creativecommons.org/ns#Distribution" />
        <cc:permits
           rdf:resource="http://creativecommons.org/ns#DerivativeWorks" />
      </cc:License>
    </rdf:RDF>
  </metadata>
</svg>
