<?xml version="1.0" encoding="UTF-8" standalone="no"?>
<!-- Created with Inkscape (http://www.inkscape.org/) -->

<svg
   id="svg2"
   sodipodi:docname="goggles.svg"
   viewBox="0 0 472.44095 332.59843"
   version="1.1"
   inkscape:version="1.2.2 (732a01da63, 2022-12-09)"
   width="125mm"
   height="88mm"
   xmlns:inkscape="http://www.inkscape.org/namespaces/inkscape"
   xmlns:sodipodi="http://sodipodi.sourceforge.net/DTD/sodipodi-0.dtd"
   xmlns:xlink="http://www.w3.org/1999/xlink"
   xmlns="http://www.w3.org/2000/svg"
   xmlns:svg="http://www.w3.org/2000/svg"
   xmlns:rdf="http://www.w3.org/1999/02/22-rdf-syntax-ns#"
   xmlns:cc="http://creativecommons.org/ns#"
   xmlns:dc="http://purl.org/dc/elements/1.1/">
  <defs
     id="defs4">
    <linearGradient
       id="linearGradient10377"
       y2="593.29999"
       xlink:href="#linearGradient12438"
       gradientUnits="userSpaceOnUse"
       x2="526.69"
       gradientTransform="matrix(1.0611,0,0,0.97163,-34.985,19.599)"
       y1="588.23999"
       x1="526.69"
       inkscape:collect="always" />
    <linearGradient
       id="linearGradient12438">
      <stop
         id="stop12440"
         style="stop-color:#b3b3b3"
         offset="0" />
      <stop
         id="stop12442"
         style="stop-color:#333333"
         offset="1" />
    </linearGradient>
    <linearGradient
       id="linearGradient10379"
       y2="598.71002"
       xlink:href="#linearGradient12438"
       gradientUnits="userSpaceOnUse"
       x2="495.14999"
       y1="591.85999"
       x1="495.14999"
       inkscape:collect="always" />
    <linearGradient
       id="linearGradient10381"
       y2="596.39001"
       xlink:href="#linearGradient12438"
       gradientUnits="userSpaceOnUse"
       x2="496.82999"
       gradientTransform="translate(-0.30936)"
       y1="591.01001"
       x1="496.82999"
       inkscape:collect="always" />
    <linearGradient
       id="linearGradient10387"
       y2="156.97"
       gradientUnits="userSpaceOnUse"
       x2="501.16"
       gradientTransform="matrix(1.0314,0,0,1.0543,-16.283,-7.8324)"
       y1="127.4"
       x1="501.16"
       inkscape:collect="always">
      <stop
         id="stop21892"
         style="stop-color:#ffffff"
         offset="0" />
      <stop
         id="stop21894"
         style="stop-color:#1a1a1a"
         offset="1" />
    </linearGradient>
    <linearGradient
       id="linearGradient10389"
       y2="133.00999"
       gradientUnits="userSpaceOnUse"
       x2="510.17999"
       gradientTransform="matrix(1.0399,0,0,1.1086,-20.7,436.62)"
       y1="153.02"
       x1="510.17999"
       inkscape:collect="always">
      <stop
         id="stop21808"
         style="stop-color:#ffffff"
         offset="0" />
      <stop
         id="stop21810"
         style="stop-color:#ffffff;stop-opacity:0"
         offset="1" />
    </linearGradient>
    <linearGradient
       id="linearGradient10391"
       y2="125.75"
       gradientUnits="userSpaceOnUse"
       x2="538.19"
       gradientTransform="matrix(1,0,0,1.0219,0,449.45)"
       y1="146.82001"
       x1="538.19"
       inkscape:collect="always">
      <stop
         id="stop21877"
         style="stop-color:#ffffff"
         offset="0" />
      <stop
         id="stop21879"
         style="stop-color:#ffffff;stop-opacity:0"
         offset="1" />
    </linearGradient>
    <linearGradient
       inkscape:collect="always"
       xlink:href="#linearGradient12438"
       id="linearGradient1180"
       gradientUnits="userSpaceOnUse"
       x1="495.14999"
       y1="591.85999"
       x2="495.14999"
       y2="598.71002" />
    <linearGradient
       inkscape:collect="always"
       xlink:href="#linearGradient12438"
       id="linearGradient1182"
       gradientUnits="userSpaceOnUse"
       gradientTransform="translate(-0.30936)"
       x1="496.82999"
       y1="591.01001"
       x2="496.82999"
       y2="596.39001" />
  </defs>
  <sodipodi:namedview
     id="base"
     bordercolor="#666666"
     inkscape:pageshadow="2"
     inkscape:window-y="-8"
     pagecolor="#ffffff"
     inkscape:window-height="1017"
     inkscape:window-maximized="1"
     inkscape:zoom="0.98994949"
     inkscape:window-x="-8"
     showgrid="false"
     borderopacity="1.0"
     inkscape:current-layer="layer1"
     inkscape:cx="334.36049"
     inkscape:cy="84.347738"
     inkscape:window-width="1920"
     inkscape:pageopacity="0.0"
     inkscape:document-units="px"
     inkscape:showpageshadow="0"
     inkscape:pagecheckerboard="0"
     inkscape:deskcolor="#d1d1d1" />
  <g
     id="layer1"
     inkscape:label="Layer 1"
     inkscape:groupmode="layer"
     transform="translate(0,-732.36)">
    <g
       id="g21972"
       transform="matrix(11.262346,0,0,11.262346,-5555.7239,-5827.3278)">
      <path
         id="rect21916"
         d="m 494.5,593.03 h 39.684 c 0.30489,0 0.55032,0.37842 0.55032,0.84848 v 2.5539 c 0,0.47005 -0.24543,0.84848 -0.55032,0.84848 H 494.5 c -0.30488,0 -0.55031,-0.37843 -0.55031,-0.84848 v -2.5539 c 0,-0.47006 0.24543,-0.84848 0.55031,-0.84848 z"
         style="fill:url(#linearGradient10377)"
         inkscape:connector-curvature="0" />
      <g
         id="g21956"
         transform="translate(0.048191)">
        <g
           id="g21942">
          <path
             id="rect21923"
             d="m 495.66,592.36 c -0.27918,0 -0.5,0.20644 -0.5,0.46875 v 4.6562 c 0,0.26231 0.22082,0.46875 0.5,0.46875 h 2.1562 l -0.4375,-5.5938 z"
             sodipodi:nodetypes="ssssccs"
             style="fill:url(#linearGradient1180)"
             inkscape:connector-curvature="0" />
          <path
             id="rect21928"
             d="m 495.92,592.98 h 0.53764 c 0.0588,0 0.10618,0.0596 0.10618,0.13368 v 4.071 c 0,0.0741 -0.0474,0.1337 -0.10618,0.1337 H 495.92 c -0.0588,0 -0.10618,-0.0596 -0.10618,-0.1337 v -4.071 c 0,-0.0741 0.0474,-0.13368 0.10618,-0.13368 z"
             style="fill:url(#linearGradient1182)"
             inkscape:connector-curvature="0" />
        </g>
        <g
           id="g21946"
           transform="matrix(-1,0,0,1,1028.6,0)">
          <path
             id="path21948"
             sodipodi:nodetypes="ssssccs"
             style="fill:url(#linearGradient10379)"
             inkscape:connector-curvature="0"
             d="m 495.66,592.36 c -0.27918,0 -0.5,0.20644 -0.5,0.46875 v 4.6562 c 0,0.26231 0.22082,0.46875 0.5,0.46875 h 2.1562 l -0.4375,-5.5938 z" />
          <path
             id="path21950"
             style="fill:url(#linearGradient10381)"
             inkscape:connector-curvature="0"
             d="m 495.92,592.98 h 0.53764 c 0.0588,0 0.10618,0.0596 0.10618,0.13368 v 4.071 c 0,0.0741 -0.0474,0.1337 -0.10618,0.1337 H 495.92 c -0.0588,0 -0.10618,-0.0596 -0.10618,-0.1337 v -4.071 c 0,-0.0741 0.0474,-0.13368 0.10618,-0.13368 z" />
        </g>
      </g>
      <g
         id="g21905"
         transform="matrix(0.76355,0,0,0.76355,118.64,143)">
        <path
           id="path21900"
           style="fill:url(#linearGradient10387)"
           d="m 501.81,130.25 c -3.4012,0 -6.688,3.399 -6.1562,6.6533 l 1.9375,13.125 c 0.53174,3.2543 2.7238,3.9375 6.125,3.9375 0,0 7.5396,0.57594 10.281,-1.5938 0.56002,-0.4432 1.0921,-1.6353 1.5,-2.7188 0.0397,-0.10552 0.0568,-0.17863 0.0937,-0.28125 0.17029,-0.4425 0.29619,-0.81797 0.40625,-1.1562 0.0357,-0.11462 0.0366,-0.10069 0.0625,-0.1875 0.0835,-0.26233 0.10025,-0.3521 0.125,-0.4375 0.0821,-0.30415 0.20167,-0.59298 0.34375,-0.875 0.0401,-0.0858 0.0788,-0.16849 0.125,-0.25 0.1421,-0.23217 0.30422,-0.45498 0.5,-0.625 0.29367,-0.25504 0.6639,-0.41131 1.0938,-0.4375 0.42985,0.0262 0.80008,0.18246 1.0938,0.4375 0.19578,0.17002 0.3579,0.39283 0.5,0.625 0.0507,0.0828 0.0807,0.16201 0.125,0.25 0.0154,0.0328 0.048,0.0605 0.0625,0.0937 0.0936,0.20045 0.15447,0.41318 0.21875,0.625 0,0 0.0845,0.3029 0.21875,0.71875 0.11833,0.38563 0.30576,0.9011 0.53125,1.5 0.40794,1.0835 0.93998,2.2756 1.5,2.7188 2.7416,2.1697 10.281,1.5938 10.281,1.5938 3.4012,0 5.5933,-0.68316 6.125,-3.9375 l 1.9375,-13.125 c 0.53175,-3.2543 -2.755,-6.6533 -6.1562,-6.6533 0,0 -10.779,1.1533 -16.438,1.1875 -5.6586,-0.0341 -16.438,-1.1875 -16.438,-1.1875 z m 0.78125,3.5908 c 0,0 10.807,0.9706 15.656,1 4.849,-0.0295 15.656,-1 15.656,-1 2.9104,0 5.7363,2.2877 5.2812,5.0625 l -1.6562,10.031 c -0.45498,2.7748 -2.3709,3.3438 -5.2812,3.3438 0,0 -6.4142,0.47816 -8.7812,-1.3438 -0.39569,-0.30457 -0.75833,-0.83445 -1.0625,-1.4062 -0.0389,-0.0808 -0.057,-0.16898 -0.0937,-0.25 -0.0794,-0.15992 -0.14827,-0.30912 -0.21875,-0.46875 -0.38203,-0.93007 -0.625,-1.7188 -0.625,-1.7188 -0.28795,-0.76852 -0.48833,-1.5351 -0.9375,-2.0938 -0.0971,-0.12527 -0.18352,-0.24073 -0.3125,-0.34375 -0.007,-0.006 -0.0242,0.005 -0.0312,0 -0.14891,-0.11541 -0.29921,-0.20018 -0.5,-0.28125 -0.17443,-0.0734 -0.36808,-0.14596 -0.59375,-0.1875 -0.009,-0.002 -0.0221,0.002 -0.0312,0 -0.23935,-0.0418 -0.50595,-0.061 -0.8125,-0.0625 -0.60452,0.003 -1.068,0.10082 -1.4375,0.25 -0.20079,0.0811 -0.35109,0.16584 -0.5,0.28125 -0.007,0.005 -0.0243,-0.006 -0.0312,0 -0.12898,0.10302 -0.21537,0.21848 -0.3125,0.34375 -0.44917,0.55863 -0.64955,1.3252 -0.9375,2.0938 0,0 -0.24297,0.78868 -0.625,1.7188 -0.0648,0.14686 -0.11505,0.29016 -0.1875,0.4375 -0.0421,0.0935 -0.0802,0.18803 -0.125,0.28125 -0.30417,0.5718 -0.66681,1.1017 -1.0625,1.4062 -2.367,1.8219 -8.7812,1.3438 -8.7812,1.3438 -2.9104,0 -4.8263,-0.56895 -5.2812,-3.3438 l -1.6562,-10.031 c -0.45501,-2.7748 2.3709,-5.0625 5.2812,-5.0625 z"
           sodipodi:nodetypes="ccccscccccccccccccccsscccccccccccccscccccccccccccccccccsccccc"
           inkscape:connector-curvature="0"
           transform="translate(0,452.36)" />
        <path
           id="path21785"
           style="fill:url(#linearGradient10389);stroke:#ffffff;stroke-width:0.2"
           inkscape:connector-curvature="0"
           d="m 502.39,585.59 c -2.9501,0 -5.8234,2.4259 -5.3622,5.3697 l 1.6899,10.636 c 0.46121,2.9438 2.3796,3.5683 5.3297,3.5683 0,0 6.5051,0.47788 8.9045,-1.455 1.2411,-0.99982 2.1449,-4.2265 2.1449,-4.2265 0.54882,-1.4998 0.66644,-2.9669 3.1523,-2.9793 2.4859,0.0125 2.6035,1.4795 3.1523,2.9793 0,0 0.90378,3.2267 2.1449,4.2265 2.3994,1.9329 8.9045,1.455 8.9045,1.455 2.9501,0 4.8685,-0.62444 5.3297,-3.5683 l 1.6899,-10.636 c 0.46123,-2.9438 -2.4121,-5.3697 -5.3622,-5.3697 0,0 -10.944,1.0427 -15.859,1.074 -4.9152,-0.0313 -15.859,-1.074 -15.859,-1.074 z" />
        <path
           id="rect12236-0"
           style="fill:url(#linearGradient10391);fill-rule:evenodd"
           inkscape:connector-curvature="0"
           d="m 505.53,585.87 -8.0938,7.6959 0.25,1.5967 9.5625,-9.1329 c -0.85586,-0.0717 -1.0786,-0.1028 -1.7188,-0.15967 z m 2.5,0.22353 -10.219,9.7715 0.53125,3.4168 13.562,-12.933 c -1.4148,-0.096 -2.5703,-0.15004 -3.875,-0.25547 z m 29.438,0.60673 -15.406,14.689 c 0.17691,0.41922 0.3946,0.85161 0.625,1.2454 l 15.75,-15.072 c -0.27711,-0.32134 -0.61562,-0.6093 -0.96875,-0.8622 z m 1.3125,1.3412 -15.78,15.07 c 0.17119,0.23596 0.3737,0.45463 0.5625,0.60673 0.51852,0.41771 1.2051,0.70437 2,0.92606 l 13.812,-13.188 0.0937,-0.51093 c 0.16911,-1.0794 -0.12064,-2.0599 -0.6875,-2.9059 z" />
      </g>
    </g>
  </g>
  <metadata
     id="metadata33">
    <rdf:RDF>
      <cc:Work>
        <dc:format>image/svg+xml</dc:format>
        <dc:type
           rdf:resource="http://purl.org/dc/dcmitype/StillImage" />
        <cc:license
           rdf:resource="http://creativecommons.org/publicdomain/zero/1.0/" />
        <dc:publisher>
          <cc:Agent
             rdf:about="http://openclipart.org/">
            <dc:title>Openclipart</dc:title>
          </cc:Agent>
        </dc:publisher>
      </cc:Work>
      <cc:License
         rdf:about="http://creativecommons.org/publicdomain/zero/1.0/">
        <cc:permits
           rdf:resource="http://creativecommons.org/ns#Reproduction" />
        <cc:permits
           rdf:resource="http://creativecommons.org/ns#Distribution" />
        <cc:permits
           rdf:resource="http://creativecommons.org/ns#DerivativeWorks" />
      </cc:License>
    </rdf:RDF>
  </metadata>
</svg>
