<?xml version="1.0" encoding="UTF-8" standalone="no"?>
<svg
   version="1.1"
   x="0"
   y="0"
   width="125mm"
   height="88mm"
   viewBox="0 0 472.44095 332.59843"
   id="svg772"
   sodipodi:docname="grilled_fish.svg"
   inkscape:version="1.2.2 (732a01da63, 2022-12-09)"
   xmlns:inkscape="http://www.inkscape.org/namespaces/inkscape"
   xmlns:sodipodi="http://sodipodi.sourceforge.net/DTD/sodipodi-0.dtd"
   xmlns="http://www.w3.org/2000/svg"
   xmlns:svg="http://www.w3.org/2000/svg">
  <sodipodi:namedview
     id="namedview774"
     pagecolor="#505050"
     bordercolor="#eeeeee"
     borderopacity="1"
     inkscape:showpageshadow="0"
     inkscape:pageopacity="0"
     inkscape:pagecheckerboard="0"
     inkscape:deskcolor="#505050"
     showgrid="false"
     inkscape:zoom="2.2842808"
     inkscape:cx="227.42388"
     inkscape:cy="196.77966"
     inkscape:current-layer="svg772"
     inkscape:document-units="mm" />
  <defs
     id="defs451">
    <linearGradient
       id="Gradient_1"
       gradientUnits="userSpaceOnUse"
       x1="687.20599"
       y1="773.02301"
       x2="875.16498"
       y2="773.02301">
      <stop
         offset="0"
         stop-color="#B7282C"
         id="stop2" />
      <stop
         offset="1"
         stop-color="#69282C"
         id="stop4" />
    </linearGradient>
    <linearGradient
       id="Gradient_2"
       gradientUnits="userSpaceOnUse"
       x1="569.38202"
       y1="780.27002"
       x2="990.56299"
       y2="780.27002">
      <stop
         offset="0"
         stop-color="#666666"
         id="stop7" />
      <stop
         offset="1"
         stop-color="#000000"
         id="stop9" />
    </linearGradient>
    <linearGradient
       id="Gradient_3"
       gradientUnits="userSpaceOnUse"
       x1="NaN"
       y1="780.27002"
       x2="NaN"
       y2="780.27002">
      <stop
         offset="0"
         stop-color="#666666"
         id="stop12" />
      <stop
         offset="1"
         stop-color="#000000"
         id="stop14" />
    </linearGradient>
    <linearGradient
       id="Gradient_4"
       gradientUnits="userSpaceOnUse"
       x1="779.96301"
       y1="651.05499"
       x2="779.96301"
       y2="877.88098">
      <stop
         offset="0"
         stop-color="#B7282C"
         id="stop17" />
      <stop
         offset="1"
         stop-color="#69282C"
         id="stop19" />
    </linearGradient>
    <linearGradient
       id="Gradient_5"
       gradientUnits="userSpaceOnUse"
       x1="561.16302"
       y1="548.63501"
       x2="999.77002"
       y2="548.63501">
      <stop
         offset="0"
         stop-color="#734B23"
         id="stop22" />
      <stop
         offset="1"
         stop-color="#5E3719"
         id="stop24" />
    </linearGradient>
    <clipPath
       id="Clip_1">
      <path
         d="m 880.99,459.311 h 63.13 v 21.625 h -63.13 z"
         id="path27" />
    </clipPath>
    <linearGradient
       id="Gradient_6"
       gradientUnits="userSpaceOnUse"
       x1="596.97601"
       y1="601.33698"
       x2="961.67798"
       y2="601.33698">
      <stop
         offset="0"
         stop-color="#C1996B"
         id="stop30" />
      <stop
         offset="1"
         stop-color="#A17A51"
         id="stop32" />
    </linearGradient>
    <linearGradient
       id="Gradient_7"
       gradientUnits="userSpaceOnUse"
       x1="692.81201"
       y1="572.87299"
       x2="760.85999"
       y2="572.87299">
      <stop
         offset="0"
         stop-color="#FFFFFF"
         id="stop35" />
      <stop
         offset="1"
         stop-color="#F1F1F1"
         id="stop37" />
    </linearGradient>
    <linearGradient
       id="Gradient_8"
       gradientUnits="userSpaceOnUse"
       x1="781.01398"
       y1="554.39301"
       x2="849.06299"
       y2="554.39301">
      <stop
         offset="0"
         stop-color="#FFFFFF"
         id="stop40" />
      <stop
         offset="1"
         stop-color="#F1F1F1"
         id="stop42" />
    </linearGradient>
    <linearGradient
       id="Gradient_9"
       gradientUnits="userSpaceOnUse"
       x1="807.05499"
       y1="590.513"
       x2="875.10303"
       y2="590.513">
      <stop
         offset="0"
         stop-color="#FFFFFF"
         id="stop45" />
      <stop
         offset="1"
         stop-color="#F1F1F1"
         id="stop47" />
    </linearGradient>
    <linearGradient
       id="Gradient_10"
       gradientUnits="userSpaceOnUse"
       x1="634.85199"
       y1="599.52698"
       x2="682.74103"
       y2="599.52698">
      <stop
         offset="0"
         stop-color="#FFFFFF"
         id="stop50" />
      <stop
         offset="1"
         stop-color="#F1F1F1"
         id="stop52" />
    </linearGradient>
    <linearGradient
       id="Gradient_11"
       gradientUnits="userSpaceOnUse"
       x1="165.05499"
       y1="784.55701"
       x2="334.17499"
       y2="784.55701">
      <stop
         offset="0"
         stop-color="#F1F1F1"
         id="stop55" />
      <stop
         offset="0.988"
         stop-color="#CBCBCB"
         id="stop57" />
      <stop
         offset="1"
         stop-color="#CBCBCB"
         id="stop59" />
    </linearGradient>
    <linearGradient
       id="Gradient_12"
       gradientUnits="userSpaceOnUse"
       x1="253.617"
       y1="601.80298"
       x2="253.617"
       y2="736.30103">
      <stop
         offset="0"
         stop-color="#F1F1F1"
         id="stop62" />
      <stop
         offset="0.988"
         stop-color="#E6E6E5"
         id="stop64" />
      <stop
         offset="1"
         stop-color="#E6E6E5"
         id="stop66" />
    </linearGradient>
    <linearGradient
       id="Gradient_13"
       gradientUnits="userSpaceOnUse"
       x1="-49.27"
       y1="-672.46301"
       x2="164.146"
       y2="-672.46301"
       gradientTransform="scale(1,-1)">
      <stop
         offset="0"
         stop-color="#2DA0D2"
         id="stop69" />
      <stop
         offset="0.976"
         stop-color="#71C6D4"
         id="stop71" />
      <stop
         offset="1"
         stop-color="#71C6D4"
         id="stop73" />
    </linearGradient>
    <clipPath
       id="Clip_2">
      <path
         d="M 147.188,766.069 C 121.934,728.615 76.733,660.109 70.505,640.552 c -8.711,-27.352 0,-84.336 0,-84.336 l -60.95,-1.16 c 7.189,128.665 75.285,185.75 137.633,211.013 z"
         id="path76" />
    </clipPath>
    <linearGradient
       id="Gradient_14"
       gradientUnits="userSpaceOnUse"
       x1="159.77499"
       y1="-704.40399"
       x2="259.85699"
       y2="-704.40399"
       gradientTransform="scale(1,-1)">
      <stop
         offset="0"
         stop-color="#2DA0D2"
         id="stop79" />
      <stop
         offset="0.976"
         stop-color="#71C6D4"
         id="stop81" />
      <stop
         offset="1"
         stop-color="#71C6D4"
         id="stop83" />
    </linearGradient>
    <clipPath
       id="Clip_3">
      <path
         d="m 177,772.753 v 3.323 c 18.851,5.113 35.977,7.608 49.185,8.805 v 0 c 9.509,-42.539 35.364,-161.141 33.584,-185.357 v 0 l -99.993,-2.258 c 0,0 17.224,136.737 17.224,175.487 z"
         id="path86" />
    </clipPath>
    <linearGradient
       id="Gradient_15"
       gradientUnits="userSpaceOnUse"
       x1="283.922"
       y1="-695.25598"
       x2="410.23001"
       y2="-695.25598"
       gradientTransform="scale(1,-1)">
      <stop
         offset="0"
         stop-color="#2DA0D2"
         id="stop89" />
      <stop
         offset="0.976"
         stop-color="#71C6D4"
         id="stop91" />
      <stop
         offset="1"
         stop-color="#71C6D4"
         id="stop93" />
    </linearGradient>
    <clipPath
       id="Clip_4">
      <path
         d="m 327.476,608.641 c 0,0 -8.71,72.938 -23.954,109.408 v 0 c -9.341,22.346 -14.594,48.117 -17.261,64.725 v 0 c 16.796,-2.166 38.112,-6.402 60.683,-14.61 v 0 C 368.691,717.543 410.23,617.329 410.23,590.407 v 0 z"
         id="path96" />
    </clipPath>
    <linearGradient
       id="Gradient_16"
       gradientUnits="userSpaceOnUse"
       x1="403.69699"
       y1="-626.875"
       x2="530.00598"
       y2="-626.875"
       gradientTransform="scale(1,-1)">
      <stop
         offset="0"
         stop-color="#2DA0D2"
         id="stop99" />
      <stop
         offset="0.976"
         stop-color="#71C6D4"
         id="stop101" />
      <stop
         offset="1"
         stop-color="#71C6D4"
         id="stop103" />
    </linearGradient>
    <clipPath
       id="Clip_5">
      <path
         d="m 453.785,563.054 c 0,0 4.356,86.615 -13.066,118.525 v 0 c -7.29,13.352 -14.96,29.896 -21.417,44.623 v 0 c 41.497,-36.219 74.761,-94.661 76.48,-188.912 v 0 l -18.1,-0.056 z"
         id="path106" />
    </clipPath>
    <linearGradient
       id="Gradient_17"
       gradientUnits="userSpaceOnUse"
       x1="238.506"
       y1="371.901"
       x2="244.787"
       y2="550.91602">
      <stop
         offset="0"
         stop-color="#F2F1ED"
         id="stop109" />
      <stop
         offset="0.988"
         stop-color="#FFFFFF"
         id="stop111" />
      <stop
         offset="1"
         stop-color="#FFFFFF"
         id="stop113" />
    </linearGradient>
    <clipPath
       id="Clip_6">
      <path
         d="M 60.923,296.213 H 1368.75 v 77.548 H 60.923 Z"
         id="path116" />
    </clipPath>
    <clipPath
       id="Clip_7">
      <path
         d="M 231.769,62.79 H 822.828 V 90.637 H 231.769 Z"
         id="path119" />
    </clipPath>
    <clipPath
       id="Clip_8">
      <path
         d="m 684.639,121.589 h 591.321 v 26.896 H 684.639 Z"
         id="path122" />
    </clipPath>
    <clipPath
       id="Clip_9">
      <path
         d="m 435.639,259.589 h 591.321 v 26.896 H 435.639 Z"
         id="path125" />
    </clipPath>
    <clipPath
       id="Clip_10">
      <path
         d="M 231.769,62.79 H 1275.96 V 286.485 H 231.769 Z"
         id="path128" />
    </clipPath>
    <clipPath
       id="Clip_11">
      <path
         d="M 105.11,167.797 H 279.773 V 319.449 H 105.11 Z"
         id="path131" />
    </clipPath>
    <linearGradient
       id="Gradient_18"
       gradientUnits="userSpaceOnUse"
       x1="981.04102"
       y1="-75.683998"
       x2="298.71201"
       y2="403.931"
       gradientTransform="matrix(0.35644829,0,0,0.35644829,-18.581328,67.461241)">
      <stop
         offset="0"
         stop-color="#3DAB4A"
         id="stop134" />
      <stop
         offset="0.988"
         stop-color="#078B43"
         id="stop136" />
      <stop
         offset="1"
         stop-color="#078B43"
         id="stop138" />
    </linearGradient>
    <linearGradient
       id="Gradient_19"
       gradientUnits="userSpaceOnUse"
       x1="262.84799"
       y1="-119.604"
       x2="201.66499"
       y2="-172.31799"
       gradientTransform="scale(1,-1)">
      <stop
         offset="0"
         stop-color="#3DAB4A"
         id="stop141" />
      <stop
         offset="0.988"
         stop-color="#078B43"
         id="stop143" />
      <stop
         offset="1"
         stop-color="#078B43"
         id="stop145" />
    </linearGradient>
    <clipPath
       id="Clip_12">
      <path
         d="M 306.776,164.797 162.762,122.793 v 0 c 7.448,7.655 16.852,13.322 26.39,17.985 36.252,17.721 77.767,22.728 117.624,24.019 z"
         id="path148" />
    </clipPath>
    <clipPath
       id="Clip_13">
      <path
         d="M 188.297,131.071 H 1191.64 v 124.58 H 188.297 Z"
         id="path151" />
    </clipPath>
    <linearGradient
       id="Gradient_20"
       gradientUnits="userSpaceOnUse"
       x1="326.00601"
       y1="116.672"
       x2="1191.197"
       y2="84.625999"
       gradientTransform="matrix(0.35644829,0,0,0.35644829,-18.581328,67.461241)">
      <stop
         offset="0"
         stop-color="#030000"
         id="stop154" />
      <stop
         offset="1"
         stop-color="#CBCBCB"
         id="stop156" />
    </linearGradient>
    <linearGradient
       id="Gradient_21"
       gradientUnits="userSpaceOnUse"
       x1="1103.821"
       y1="149.245"
       x2="1120.319"
       y2="227.23399">
      <stop
         offset="0"
         stop-color="#F1E533"
         id="stop159" />
      <stop
         offset="1"
         stop-color="#F1D133"
         id="stop161" />
    </linearGradient>
    <clipPath
       id="Clip_14">
      <path
         d="m 1008.62,139.435 h 203.68 v 46.232 h -203.68 z"
         id="path164" />
    </clipPath>
    <clipPath
       id="Clip_15">
      <path
         d="m 1005.52,164.416 h 209.97 v 29.13 h -209.97 z"
         id="path167" />
    </clipPath>
    <linearGradient
       id="Gradient_22"
       gradientUnits="userSpaceOnUse"
       x1="1086.142"
       y1="206.12601"
       x2="1102.64"
       y2="284.11499">
      <stop
         offset="0"
         stop-color="#F1E533"
         id="stop170" />
      <stop
         offset="1"
         stop-color="#F1D133"
         id="stop172" />
    </linearGradient>
    <clipPath
       id="Clip_16">
      <path
         d="m 990.94,196.315 h 203.68 v 46.233 H 990.94 Z"
         id="path175" />
    </clipPath>
    <clipPath
       id="Clip_17">
      <path
         d="m 987.84,221.297 h 209.97 v 29.13 H 987.84 Z"
         id="path178" />
    </clipPath>
    <linearGradient
       id="Gradient_23"
       gradientUnits="userSpaceOnUse"
       x1="1261.225"
       y1="178.355"
       x2="1261.225"
       y2="311.60101"
       gradientTransform="matrix(0.35644829,0,0,0.35644829,-18.581328,67.461241)">
      <stop
         offset="0"
         stop-color="#FFFFFF"
         id="stop181" />
      <stop
         offset="1"
         stop-color="#F1F1F1"
         id="stop183" />
    </linearGradient>
    <linearGradient
       id="Gradient_24"
       gradientUnits="userSpaceOnUse"
       x1="653.97198"
       y1="183.07899"
       x2="653.97198"
       y2="316.72601"
       gradientTransform="matrix(0.35644829,0,0,0.35644829,-46.384295,35.380895)">
      <stop
         offset="0"
         stop-color="#DD2326"
         id="stop186" />
      <stop
         offset="1"
         stop-color="#EC8E25"
         id="stop188" />
    </linearGradient>
    <linearGradient
       id="Gradient_25"
       gradientUnits="userSpaceOnUse"
       x1="619.79901"
       y1="205.465"
       x2="548.65198"
       y2="266.76401"
       gradientTransform="matrix(0.35644829,0,0,0.35644829,-46.384295,35.380895)">
      <stop
         offset="0"
         stop-color="#DD2326"
         id="stop191" />
      <stop
         offset="1"
         stop-color="#EC8E25"
         id="stop193" />
    </linearGradient>
    <linearGradient
       id="Gradient_26"
       gradientUnits="userSpaceOnUse"
       x1="1317.85"
       y1="362.85101"
       x2="1091.564"
       y2="557.81299">
      <stop
         offset="0"
         stop-color="#E6E6E5"
         id="stop196" />
      <stop
         offset="0.988"
         stop-color="#CBCBCB"
         id="stop198" />
      <stop
         offset="1"
         stop-color="#CBCBCB"
         id="stop200" />
    </linearGradient>
    <linearGradient
       id="Gradient_27"
       gradientUnits="userSpaceOnUse"
       x1="1043.7791"
       y1="-497.35199"
       x2="1374.2209"
       y2="-497.35199"
       gradientTransform="scale(1,-1)">
      <stop
         offset="0"
         stop-color="#C1996B"
         id="stop203" />
      <stop
         offset="0.988"
         stop-color="#FFBA98"
         id="stop205" />
      <stop
         offset="1"
         stop-color="#FFBA98"
         id="stop207" />
    </linearGradient>
    <clipPath
       id="Clip_18">
      <path
         d="m 1212,588.155 c 30,-0.093 161.721,-4.235 162.221,-181.299 L 1206,406.548 v 0.951 l -162.221,0.298 C 1046.688,595.922 1212,588.006 1212,588.006 Z"
         id="path210" />
    </clipPath>
    <linearGradient
       id="Gradient_28"
       gradientUnits="userSpaceOnUse"
       x1="1203.6281"
       y1="338.95499"
       x2="1216.925"
       y2="530.43701">
      <stop
         offset="0"
         stop-color="#FFE8D4"
         id="stop213" />
      <stop
         offset="0.988"
         stop-color="#C1996B"
         id="stop215" />
      <stop
         offset="1"
         stop-color="#C1996B"
         id="stop217" />
    </linearGradient>
    <linearGradient
       id="Gradient_29"
       gradientUnits="userSpaceOnUse"
       x1="1217.332"
       y1="468.71301"
       x2="1217.332"
       y2="565.58698">
      <stop
         offset="0"
         stop-color="#A17A51"
         id="stop220" />
      <stop
         offset="0.988"
         stop-color="#734B23"
         id="stop222" />
      <stop
         offset="1"
         stop-color="#734B23"
         id="stop224" />
    </linearGradient>
    <linearGradient
       id="Gradient_30"
       gradientUnits="userSpaceOnUse"
       x1="1222.5811"
       y1="461.53799"
       x2="1222.5811"
       y2="489.85501">
      <stop
         offset="0"
         stop-color="#E45826"
         id="stop227" />
      <stop
         offset="0.988"
         stop-color="#EC8E25"
         id="stop229" />
      <stop
         offset="1"
         stop-color="#EC8E25"
         id="stop231" />
    </linearGradient>
    <linearGradient
       id="Gradient_31"
       gradientUnits="userSpaceOnUse"
       x1="1204.115"
       y1="460.88901"
       x2="1149.296"
       y2="551.07898">
      <stop
         offset="0"
         stop-color="#A17A51"
         id="stop234" />
      <stop
         offset="0.988"
         stop-color="#734B23"
         id="stop236" />
      <stop
         offset="1"
         stop-color="#734B23"
         id="stop238" />
    </linearGradient>
    <linearGradient
       id="Gradient_32"
       gradientUnits="userSpaceOnUse"
       x1="1172.228"
       y1="493.84299"
       x2="1085.425"
       y2="562.12402">
      <stop
         offset="0"
         stop-color="#A17A51"
         id="stop241" />
      <stop
         offset="0.988"
         stop-color="#734B23"
         id="stop243" />
      <stop
         offset="1"
         stop-color="#734B23"
         id="stop245" />
    </linearGradient>
    <linearGradient
       id="Gradient_33"
       gradientUnits="userSpaceOnUse"
       x1="1178.0601"
       y1="490.16901"
       x2="1187.387"
       y2="521.56598">
      <stop
         offset="0"
         stop-color="#E45826"
         id="stop248" />
      <stop
         offset="0.988"
         stop-color="#EC8E25"
         id="stop250" />
      <stop
         offset="1"
         stop-color="#EC8E25"
         id="stop252" />
    </linearGradient>
    <linearGradient
       id="Gradient_34"
       gradientUnits="userSpaceOnUse"
       x1="1206.824"
       y1="452.108"
       x2="1226.304"
       y2="354.401">
      <stop
         offset="0"
         stop-color="#A17A51"
         id="stop255" />
      <stop
         offset="0.988"
         stop-color="#734B23"
         id="stop257" />
      <stop
         offset="1"
         stop-color="#734B23"
         id="stop259" />
    </linearGradient>
    <linearGradient
       id="Gradient_35"
       gradientUnits="userSpaceOnUse"
       x1="1200.255"
       y1="459.29001"
       x2="1205.251"
       y2="434.229">
      <stop
         offset="0"
         stop-color="#E45826"
         id="stop262" />
      <stop
         offset="0.988"
         stop-color="#EC8E25"
         id="stop264" />
      <stop
         offset="1"
         stop-color="#EC8E25"
         id="stop266" />
    </linearGradient>
    <linearGradient
       id="Gradient_36"
       gradientUnits="userSpaceOnUse"
       x1="1218.4189"
       y1="462.271"
       x2="1291.858"
       y2="382.315">
      <stop
         offset="0"
         stop-color="#A17A51"
         id="stop269" />
      <stop
         offset="0.988"
         stop-color="#734B23"
         id="stop271" />
      <stop
         offset="1"
         stop-color="#734B23"
         id="stop273" />
    </linearGradient>
    <linearGradient
       id="Gradient_37"
       gradientUnits="userSpaceOnUse"
       x1="1257.004"
       y1="435.90201"
       x2="1356.603"
       y2="385.341">
      <stop
         offset="0"
         stop-color="#A17A51"
         id="stop276" />
      <stop
         offset="0.988"
         stop-color="#734B23"
         id="stop278" />
      <stop
         offset="1"
         stop-color="#734B23"
         id="stop280" />
    </linearGradient>
    <linearGradient
       id="Gradient_38"
       gradientUnits="userSpaceOnUse"
       x1="1250.423"
       y1="438.923"
       x2="1247.691"
       y2="409.315">
      <stop
         offset="0"
         stop-color="#E45826"
         id="stop283" />
      <stop
         offset="0.988"
         stop-color="#EC8E25"
         id="stop285" />
      <stop
         offset="1"
         stop-color="#EC8E25"
         id="stop287" />
    </linearGradient>
    <linearGradient
       id="Gradient_39"
       gradientUnits="userSpaceOnUse"
       x1="1205.447"
       y1="451.36401"
       x2="1274.759"
       y2="368.64001">
      <stop
         offset="0"
         stop-color="#A17A51"
         id="stop290" />
      <stop
         offset="0.988"
         stop-color="#734B23"
         id="stop292" />
      <stop
         offset="1"
         stop-color="#734B23"
         id="stop294" />
    </linearGradient>
    <linearGradient
       id="Gradient_40"
       gradientUnits="userSpaceOnUse"
       x1="1195.298"
       y1="456.47"
       x2="1209.671"
       y2="439.315">
      <stop
         offset="0"
         stop-color="#E45826"
         id="stop297" />
      <stop
         offset="0.988"
         stop-color="#EC8E25"
         id="stop299" />
      <stop
         offset="1"
         stop-color="#EC8E25"
         id="stop301" />
    </linearGradient>
    <linearGradient
       id="Gradient_41"
       gradientUnits="userSpaceOnUse"
       x1="1210.252"
       y1="466.67599"
       x2="1316.124"
       y2="430.73801">
      <stop
         offset="0"
         stop-color="#A17A51"
         id="stop304" />
      <stop
         offset="0.988"
         stop-color="#734B23"
         id="stop306" />
      <stop
         offset="1"
         stop-color="#734B23"
         id="stop308" />
    </linearGradient>
    <linearGradient
       id="Gradient_42"
       gradientUnits="userSpaceOnUse"
       x1="1257.847"
       y1="460.50699"
       x2="1366.9189"
       y2="463.87601">
      <stop
         offset="0"
         stop-color="#A17A51"
         id="stop311" />
      <stop
         offset="0.988"
         stop-color="#734B23"
         id="stop313" />
      <stop
         offset="1"
         stop-color="#734B23"
         id="stop315" />
    </linearGradient>
    <linearGradient
       id="Gradient_43"
       gradientUnits="userSpaceOnUse"
       x1="1250.2"
       y1="460.629"
       x2="1259.488"
       y2="439.17899">
      <stop
         offset="0"
         stop-color="#E45826"
         id="stop318" />
      <stop
         offset="0.988"
         stop-color="#EC8E25"
         id="stop320" />
      <stop
         offset="1"
         stop-color="#EC8E25"
         id="stop322" />
    </linearGradient>
    <linearGradient
       id="Gradient_44"
       gradientUnits="userSpaceOnUse"
       x1="1202.165"
       y1="472.436"
       x2="1116.13"
       y2="541.526">
      <stop
         offset="0"
         stop-color="#A17A51"
         id="stop325" />
      <stop
         offset="0.988"
         stop-color="#734B23"
         id="stop327" />
      <stop
         offset="1"
         stop-color="#734B23"
         id="stop329" />
    </linearGradient>
    <linearGradient
       id="Gradient_45"
       gradientUnits="userSpaceOnUse"
       x1="1213.168"
       y1="469.22299"
       x2="1195.109"
       y2="483.72501">
      <stop
         offset="0"
         stop-color="#E45826"
         id="stop332" />
      <stop
         offset="0.988"
         stop-color="#EC8E25"
         id="stop334" />
      <stop
         offset="1"
         stop-color="#EC8E25"
         id="stop336" />
    </linearGradient>
    <linearGradient
       id="Gradient_46"
       gradientUnits="userSpaceOnUse"
       x1="1201.024"
       y1="456.082"
       x2="1091.149"
       y2="470.49701">
      <stop
         offset="0"
         stop-color="#A17A51"
         id="stop339" />
      <stop
         offset="0.988"
         stop-color="#734B23"
         id="stop341" />
      <stop
         offset="1"
         stop-color="#734B23"
         id="stop343" />
    </linearGradient>
    <linearGradient
       id="Gradient_47"
       gradientUnits="userSpaceOnUse"
       x1="1153.149"
       y1="453.98901"
       x2="1049.6379"
       y2="430.008">
      <stop
         offset="0"
         stop-color="#A17A51"
         id="stop346" />
      <stop
         offset="0.988"
         stop-color="#734B23"
         id="stop348" />
      <stop
         offset="1"
         stop-color="#734B23"
         id="stop350" />
    </linearGradient>
    <linearGradient
       id="Gradient_48"
       gradientUnits="userSpaceOnUse"
       x1="1160.54"
       y1="455.35599"
       x2="1147.781"
       y2="473.79199">
      <stop
         offset="0"
         stop-color="#E45826"
         id="stop353" />
      <stop
         offset="0.988"
         stop-color="#EC8E25"
         id="stop355" />
      <stop
         offset="1"
         stop-color="#EC8E25"
         id="stop357" />
    </linearGradient>
    <linearGradient
       id="Gradient_49"
       gradientUnits="userSpaceOnUse"
       x1="1400.156"
       y1="642.47699"
       x2="1187.434"
       y2="825.75299">
      <stop
         offset="0"
         stop-color="#E6E6E5"
         id="stop360" />
      <stop
         offset="0.988"
         stop-color="#CBCBCB"
         id="stop362" />
      <stop
         offset="1"
         stop-color="#CBCBCB"
         id="stop364" />
    </linearGradient>
    <linearGradient
       id="Gradient_50"
       gradientUnits="userSpaceOnUse"
       x1="1301.376"
       y1="728.43799"
       x2="1301.376"
       y2="849.83002">
      <stop
         offset="0"
         stop-color="#F1F1F1"
         id="stop367" />
      <stop
         offset="0.988"
         stop-color="#CBCBCB"
         id="stop369" />
      <stop
         offset="1"
         stop-color="#CBCBCB"
         id="stop371" />
    </linearGradient>
    <clipPath
       id="Clip_19">
      <path
         d="m 1365.46,673.006 h 21.46 v 19.663 h -21.46 z"
         id="path374" />
    </clipPath>
    <clipPath
       id="Clip_20">
      <path
         d="m 1312.9,692.923 h 20.93 v 18.785 h -20.93 z"
         id="path377" />
    </clipPath>
    <linearGradient
       id="Gradient_51"
       gradientUnits="userSpaceOnUse"
       x1="1198.2"
       y1="724.40399"
       x2="1359.545"
       y2="724.40399">
      <stop
         offset="0"
         stop-color="#E45826"
         id="stop380" />
      <stop
         offset="0.976"
         stop-color="#F1AA3E"
         id="stop382" />
      <stop
         offset="1"
         stop-color="#F1AA3E"
         id="stop384" />
    </linearGradient>
    <linearGradient
       id="Gradient_52"
       gradientUnits="userSpaceOnUse"
       x1="1183.452"
       y1="-733.79498"
       x2="1369.8"
       y2="-733.79498"
       gradientTransform="scale(1,-1)">
      <stop
         offset="0"
         stop-color="#E45826"
         id="stop387" />
      <stop
         offset="0.976"
         stop-color="#F1AA3E"
         id="stop389" />
      <stop
         offset="1"
         stop-color="#F1AA3E"
         id="stop391" />
    </linearGradient>
    <clipPath
       id="Clip_21">
      <path
         d="m 1341.692,749.929 c 8.426,-0.289 15.25,-2.883 17.427,-11.619 -1.321,1.427 -2.599,2.919 -3.718,4.41 -5.372,7.164 -134.387,-25.061 -134.387,-25.061 l -20.134,4.813 v 0.005 c 18.847,13.012 52.621,17.817 74.909,21.038 21.009,3.037 42.183,5.161 63.376,6.356 z"
         id="path394" />
    </clipPath>
    <linearGradient
       id="Gradient_53"
       gradientUnits="userSpaceOnUse"
       x1="1211.3"
       y1="763.112"
       x2="1370.322"
       y2="735.83502">
      <stop
         offset="0"
         stop-color="#E45826"
         id="stop397" />
      <stop
         offset="0.976"
         stop-color="#F1AA3E"
         id="stop399" />
      <stop
         offset="1"
         stop-color="#F1AA3E"
         id="stop401" />
    </linearGradient>
    <linearGradient
       id="Gradient_54"
       gradientUnits="userSpaceOnUse"
       x1="1198.3521"
       y1="-774.862"
       x2="1382.016"
       y2="-743.35797"
       gradientTransform="scale(1,-1)">
      <stop
         offset="0"
         stop-color="#E45826"
         id="stop404" />
      <stop
         offset="0.976"
         stop-color="#F1AA3E"
         id="stop406" />
      <stop
         offset="1"
         stop-color="#F1AA3E"
         id="stop408" />
    </linearGradient>
    <clipPath
       id="Clip_22">
      <path
         d="m 1275.129,769.055 c 26.525,-0.147 53.056,-1.668 79.412,-4.674 9.025,-1.103 16.973,-4.823 17.709,-14.741 v -0.025 c -2.038,3.283 -1.066,1.625 -2.916,4.973 -4.083,7.969 -136.689,-1.98 -136.689,-1.98 l -19.035,8.149 v 0.001 c 9.733,4.93 20.93,6.236 31.665,7.175 9.939,0.868 19.886,1.011 29.854,1.122 z"
         id="path411" />
    </clipPath>
    <linearGradient
       id="Gradient_55"
       gradientUnits="userSpaceOnUse"
       x1="1191.045"
       y1="764.47198"
       x2="1352.374"
       y2="766.71198">
      <stop
         offset="0"
         stop-color="#E45826"
         id="stop414" />
      <stop
         offset="0.976"
         stop-color="#F1AA3E"
         id="stop416" />
      <stop
         offset="1"
         stop-color="#F1AA3E"
         id="stop418" />
    </linearGradient>
    <linearGradient
       id="Gradient_56"
       gradientUnits="userSpaceOnUse"
       x1="1176.168"
       y1="-773.65601"
       x2="1362.498"
       y2="-776.24402"
       gradientTransform="scale(1,-1)">
      <stop
         offset="0"
         stop-color="#E45826"
         id="stop421" />
      <stop
         offset="0.976"
         stop-color="#F1AA3E"
         id="stop423" />
      <stop
         offset="1"
         stop-color="#F1AA3E"
         id="stop425" />
    </linearGradient>
    <clipPath
       id="Clip_23">
      <path
         d="m 1334.179,791.986 c 8.406,-0.173 15.277,-2.669 17.571,-11.358 v -0.013 c -2.601,2.851 -1.344,1.399 -3.773,4.352 -4.427,2.965 -23.563,-1.232 -28.227,-2.102 -11.615,-2.166 -23.163,-4.666 -34.684,-7.286 -23.805,-5.415 -47.508,-11.313 -71.116,-17.536 v 0 l -20.2,4.532 v 0.004 c 18.666,13.274 52.369,18.547 74.612,22.079 20.964,3.328 42.106,5.746 63.281,7.236 l 2.51,0.092 z"
         id="path428" />
    </clipPath>
    <linearGradient
       id="Gradient_57"
       gradientUnits="userSpaceOnUse"
       x1="1126.6689"
       y1="983.604"
       x2="1062.75"
       y2="861.065"
       gradientTransform="matrix(-0.42882077,0,0,0.42882077,557.22689,-154.9202)">
      <stop
         offset="0"
         stop-color="#886138"
         id="stop431" />
      <stop
         offset="0.988"
         stop-color="#C1996B"
         id="stop433" />
      <stop
         offset="1"
         stop-color="#C1996B"
         id="stop435" />
    </linearGradient>
    <linearGradient
       id="Gradient_58"
       gradientUnits="userSpaceOnUse"
       x1="1127.691"
       y1="-986.59802"
       x2="1063.772"
       y2="-864.05701"
       gradientTransform="scale(1,-1)">
      <stop
         offset="0"
         stop-color="#886138"
         id="stop438" />
      <stop
         offset="0.988"
         stop-color="#C1996B"
         id="stop440" />
      <stop
         offset="1"
         stop-color="#C1996B"
         id="stop442" />
    </linearGradient>
    <clipPath
       id="Clip_24">
      <path
         d="m 1084.267,987.437 c 8.029,-0.061 16.059,-0.118 24.088,-0.179 0,0 26.624,-51.203 20.241,-93.225 -0.734,-0.217 -1.472,-0.418 -2.21,-0.621 v 0 c -1.599,26.307 -9.294,52.337 -21.163,75.868 0,0 -0.143,0 -24.144,0.179 -3.419,0.025 -5.873,-1.605 -7.563,-4.448 0.133,6.381 -0.116,17.946 6.64,21.492 1.708,0.897 2.407,0.823 4.051,0.934 z"
         id="path445" />
    </clipPath>
    <clipPath
       id="Clip_25">
      <path
         d="M 188.218,29.4 H 1191.57 V 255.578 H 188.218 Z"
         id="path448" />
    </clipPath>
  </defs>
  <g
     id="g567"
     transform="matrix(0.35644829,0,0,0.35644829,-18.581328,67.461241)">
    <path
       d="m 135.256,89.789 c -8.161,28.737 -18.001,59.846 -27.002,105.624 -9.001,45.777 -69.007,109.162 -39.004,133.81 30.003,24.649 336.033,52.82 489.048,42.256 153.016,-10.564 516.053,-17.606 588.059,-10.564 72.008,7.043 219.024,11.154 222.024,-31.102 3,-42.256 -12.002,-315.032 -54.006,-315.032 -42.004,0 -1128.114,-6 -1155.117,-6 -27.002,0 -21.002,70.445 -24.002,81.008"
       fill="#c1996b"
       id="path543" />
    <g
       clip-path="url(#Clip_6)"
       id="g547">
      <path
         d="m 1148.359,341.915 c -72.008,-7.042 -435.044,0 -588.06,10.563 -153.016,10.565 -459.045,-17.606 -489.049,-42.255 -4.64,-3.813 -7.122,-8.553 -7.978,-14.01 -3.987,13.666 -3.46,25.256 5.978,33.01 30.004,24.649 336.033,52.82 489.049,42.255 153.016,-10.563 516.052,-17.605 588.06,-10.563 72.006,7.043 219.021,11.153 222.021,-31.103 0.219,-3.087 0.342,-7.415 0.366,-12.768 -16.518,35.581 -152.135,31.547 -220.387,24.871"
         fill="#c1996b"
         id="path545" />
    </g>
    <g
       clip-path="url(#Clip_10)"
       opacity="0.22"
       id="g561">
      <g
         clip-path="url(#Clip_7)"
         id="g551">
        <path
           d="m 231.769,62.786 c 49.381,1.898 98.624,5.107 147.836,8.338 24.598,1.62 49.202,3.385 73.726,4.832 6.124,0.332 12.255,0.709 18.294,0.918 1.506,0.051 3.006,0.126 4.47,0.126 h 2.187 l 2.294,-0.039 9.228,-0.119 36.987,-0.38 c 49.334,-0.405 98.683,-0.298 148.036,0.564 24.676,0.456 49.355,1.073 74.032,2.052 12.338,0.555 24.676,1.051 37.011,1.79 12.33,0.75 24.674,1.513 36.959,2.92 -6.179,0.075 -12.344,0.199 -18.513,0.405 l -18.498,0.555 -36.987,1.203 c -24.657,0.785 -49.312,1.469 -73.968,2.081 -49.314,1.189 -98.63,2.037 -147.96,2.421 l -37.011,0.184 -9.272,-0.014 -2.33,-0.01 -2.438,-0.035 c -1.62,-0.04 -3.201,-0.104 -4.776,-0.178 -6.284,-0.304 -12.462,-0.731 -18.643,-1.227 -12.351,-0.987 -24.656,-2.075 -36.948,-3.3 C 403.191,84.688 390.914,83.388 378.643,82.052 329.571,76.592 280.586,70.49 231.769,62.786"
           fill="#c1996b"
           id="path549" />
      </g>
      <g
         clip-path="url(#Clip_8)"
         id="g555">
        <path
           d="m 684.639,134.096 c 49.411,-0.827 98.755,-0.337 148.071,0.175 24.649,0.262 49.313,0.667 73.88,0.76 6.132,-0.007 12.275,0.013 18.316,-0.111 1.507,-0.033 3.006,-0.075 4.469,-0.14 l 2.183,-0.12 2.29,-0.147 9.208,-0.619 36.911,-2.413 c 49.236,-3.126 98.515,-5.737 147.841,-7.596 24.664,-0.906 49.339,-1.648 74.033,-2.032 12.349,-0.126 24.696,-0.311 37.052,-0.253 12.353,0.069 24.722,0.15 37.065,0.879 -6.165,0.414 -12.315,0.879 -18.462,1.425 l -18.44,1.574 -36.864,3.24 c -24.576,2.144 -49.156,4.186 -73.741,6.156 -49.174,3.906 -98.367,7.472 -147.602,10.575 l -36.944,2.225 -9.259,0.497 -2.327,0.117 -2.436,0.101 c -1.619,0.049 -3.202,0.073 -4.778,0.085 -6.292,0.043 -12.484,-0.043 -18.683,-0.197 -12.387,-0.305 -24.733,-0.713 -37.074,-1.258 -12.34,-0.505 -24.67,-1.127 -36.997,-1.783 -49.297,-2.747 -98.544,-6.14 -147.712,-11.14"
           fill="#c1996b"
           id="path553" />
      </g>
      <g
         clip-path="url(#Clip_9)"
         id="g559">
        <path
           d="m 435.639,272.096 c 49.411,-0.827 98.756,-0.337 148.071,0.175 24.65,0.262 49.313,0.667 73.88,0.76 6.133,-0.006 12.275,0.013 18.316,-0.111 1.507,-0.032 3.006,-0.075 4.469,-0.14 l 2.184,-0.119 2.289,-0.148 9.208,-0.618 36.911,-2.414 c 49.235,-3.125 98.516,-5.737 147.842,-7.596 24.664,-0.906 49.339,-1.648 74.032,-2.032 12.35,-0.126 24.696,-0.311 37.053,-0.253 12.352,0.069 24.722,0.15 37.064,0.879 -6.165,0.414 -12.314,0.879 -18.462,1.425 l -18.439,1.574 -36.864,3.24 c -24.576,2.144 -49.157,4.186 -73.741,6.156 -49.174,3.906 -98.368,7.472 -147.602,10.575 l -36.944,2.225 -9.259,0.497 -2.328,0.118 -2.436,0.1 c -1.619,0.05 -3.202,0.073 -4.778,0.086 -6.291,0.042 -12.484,-0.043 -18.683,-0.198 -12.387,-0.304 -24.732,-0.712 -37.074,-1.258 -12.34,-0.505 -24.67,-1.127 -36.996,-1.783 -49.298,-2.747 -98.545,-6.14 -147.713,-11.14"
           fill="#c1996b"
           id="path557" />
      </g>
    </g>
    <g
       clip-path="url(#Clip_11)"
       opacity="0.27"
       id="g565">
      <path
         d="m 144.76,167.797 c -5.754,23.352 -12.62,46.259 -19.032,69.133 -1.605,5.71 -3.161,11.425 -4.611,17.092 -0.716,2.832 -1.368,5.669 -1.962,8.432 -0.561,2.531 -1.15,6.376 -0.796,5.664 0.116,0.351 0.468,1 1.029,1.74 0.555,0.738 1.317,1.545 2.183,2.336 1.75,1.591 3.905,3.124 6.189,4.547 4.589,2.872 9.696,5.409 14.945,7.681 5.239,2.324 10.65,4.415 16.138,6.348 5.471,1.988 11.045,3.762 16.646,5.481 11.211,3.431 22.608,6.403 34.094,9.112 22.998,5.397 46.334,9.462 70.19,12.449 -11.948,1.524 -24.041,1.844 -36.109,1.526 -12.073,-0.347 -24.131,-1.447 -36.115,-3.156 -11.987,-1.709 -23.889,-4.1 -35.667,-7.152 -5.891,-1.528 -11.732,-3.281 -17.55,-5.189 -5.799,-1.965 -11.558,-4.127 -17.256,-6.605 -5.673,-2.539 -11.302,-5.323 -16.782,-8.883 -2.728,-1.816 -5.427,-3.804 -8.033,-6.305 -1.298,-1.263 -2.578,-2.652 -3.77,-4.337 -1.184,-1.675 -2.298,-3.687 -2.945,-6.231 -0.154,-0.64 -0.279,-1.3 -0.353,-1.989 -0.031,-0.348 -0.07,-0.689 -0.074,-1.047 -0.008,-0.352 -0.019,-0.685 0.01,-1.168 l 0.046,-0.667 0.037,-0.282 0.069,-0.517 0.054,-0.323 0.234,-1.257 c 0.326,-1.642 0.7,-3.191 1.094,-4.718 0.778,-3.049 1.697,-5.974 2.623,-8.883 1.849,-5.811 3.904,-11.482 6.019,-17.121 4.266,-11.258 8.862,-22.337 13.748,-33.295 4.915,-10.945 10.024,-21.801 15.707,-32.416"
         fill="#c1996b"
         id="path563" />
    </g>
  </g>
  <path
     d="m 100.39362,163.63384 c 57.45127,5.67679 315.18229,-24.25524 315.18229,-24.25524 v 0 l -1.85781,-5.57164 c 0,0 -203.96151,-32.86774 -255.57415,-36.479275 v 0 c -18.94523,-1.325275 -38.35027,2.120867 -56.55694,5.567725 v 0 c -31.392754,5.9427 -59.222454,11.88541 -74.985666,-6.63707 v 0 c 0,0 16.341015,61.69799 73.792276,67.3755 z"
     fill="url(#Gradient_18)"
     id="path569"
     style="fill:url(#Gradient_18);stroke-width:0.356448" />
  <g
     id="g603"
     transform="matrix(0.35644829,0,0,0.35644829,-18.581328,67.461241)">
    <g
       clip-path="url(#Clip_12)"
       opacity="0.4"
       id="g573">
      <path
         d="m 162.762,122.793 c 0,0 33.003,39.004 144.014,42.004 z"
         fill="url(#Gradient_19)"
         id="path571"
         style="fill:url(#Gradient_19)" />
    </g>
    <path
       d="m 1107.015,110.175 c 0,0 -360.788,-13.658 -445.851,-40.531 -85.061,-26.873 -261.068,-77.398 -360.122,4.332 -99.052,81.73 -148.024,137.586 -83.95,165.236 64.073,27.651 423.972,17.322 570.11,-9.107 146.137,-26.429 238.193,-53.858 328.364,-51.192 90.169,2.664 115.043,-55.302 -8.551,-68.738"
       fill="#ffba98"
       id="path575" />
    <path
       d="m 348.29,230.37 47.538,-12.517 C 405.257,155.98 423.103,80.725 456.709,29.488 454.599,29.446 452.49,29.42 450.383,29.41 418.465,78.97 339.879,166.858 348.29,230.37"
       fill="#ffba98"
       id="path577" />
    <path
       d="M 859.159,95.86 C 843.394,94.621 827.732,93.302 812.46,91.903 l 2.018,15.721 z"
       fill="#ffba98"
       id="path579" />
    <path
       d="m 261.439,138.48 c 39.174,-31.711 90.31,-82.947 105.68,-98.541 -24.147,7.03 -46.604,17.968 -66.078,34.036 -99.052,81.731 -148.024,137.587 -83.95,165.237 6.862,2.961 17.124,5.485 30.142,7.602 -7.796,-22.082 -22.758,-78.408 14.206,-108.334"
       fill="#fff1ea"
       id="path581" />
    <path
       d="m 1107.015,110.175 c 0,0 -43.817,-1.659 -104.507,-4.958 -18.06,33.971 -21.744,64.485 -20.844,86.67 48.669,-8.824 91.495,-14.228 133.901,-12.974 90.17,2.664 115.044,-55.302 -8.55,-68.738"
       fill="#ffba98"
       id="path583" />
    <path
       d="M 1002.508,105.217 C 959.929,102.903 909.049,99.782 859.159,95.86 l -44.68,11.764 14.713,114.606 c 58.492,-11.328 107.934,-22.268 152.473,-30.343 -0.9,-22.186 2.782,-52.7 20.843,-86.67"
       fill="#ffd6c1"
       id="path585" />
    <path
       d="m 556.936,41.667 c -22.498,37.284 -59.719,103.218 -73.994,153.25 -5.253,18.409 -7.402,34.666 -4.564,46.547 1.144,4.793 2.196,9.192 3.162,13.246 13.871,-0.336 27.859,-0.767 41.86,-1.285 5.983,-19.09 15.34,-46.846 27.496,-76.4 C 568.68,133.792 592.455,86.729 620.428,57.358 601.121,51.881 579.627,46.351 556.936,41.667"
       fill="#ffba98"
       id="path587" />
    <path
       d="m 705.035,136.441 c -1.87,-18.555 0.858,-37.627 11.431,-55.516 -23.268,-3.458 -42.44,-7.217 -55.302,-11.281 -8.495,-2.683 -17.909,-5.604 -28.052,-8.606 -11.668,24.957 -28.604,65.74 -34.685,103.473 -5.846,36.25 -1.666,69.675 26.832,83.534 46.52,-3.231 90.025,-7.405 126.072,-12.332 -13.148,-16.299 -41.979,-56.398 -46.296,-99.272"
       fill="#ffc8ad"
       id="path589" />
    <path
       d="m 598.427,164.511 c 6.082,-37.732 23.018,-78.516 34.686,-103.473 -4.114,-1.216 -8.338,-2.445 -12.685,-3.679 -27.973,29.369 -51.748,76.433 -69.532,119.666 -12.156,29.554 -21.513,57.311 -27.496,76.401 34.41,-1.276 68.89,-3.091 101.86,-5.38 -28.498,-13.86 -32.678,-47.285 -26.833,-83.535"
       fill="#ffd6c1"
       id="path591" />
    <path
       d="m 451.55,30.531 c -28.669,-0.433 -56.999,2.274 -83.371,9.649 -15.533,15.43 -67.208,66.122 -106.716,97.417 -37.28,29.532 -22.913,86.014 -15.351,108.177 7.702,1.336 16.373,2.54 25.889,3.613 L 347.338,230.4 C 339.599,166.802 419.11,79.75 451.55,30.531"
       fill="#ffd6c1"
       id="path593" />
    <path
       d="m 814.478,107.624 -2.019,-15.721 c -35.306,-3.234 -68.509,-6.894 -95.993,-10.978 -10.574,17.889 -13.301,36.961 -11.431,55.516 4.317,42.874 33.148,82.973 46.297,99.272 12.993,-1.774 25.024,-3.647 35.87,-5.608 14.516,-2.625 28.489,-5.26 41.989,-7.875 z"
       fill="#ffba98"
       id="path595" />
    <path
       d="M 556.936,41.668 C 525,35.076 490.686,30.176 456.71,29.489 423.103,80.726 405.258,155.98 395.829,217.854 l -47.539,12.516 -75.13,19.783 c 23.257,2.375 51.526,3.929 82.915,4.741 11.22,0.291 22.839,0.486 34.771,0.592 28.819,0.254 59.455,-0.022 90.694,-0.776 -0.966,-4.053 -2.018,-8.453 -3.162,-13.245 -2.838,-11.882 -0.689,-28.139 4.564,-46.547 14.275,-50.033 51.496,-115.967 73.994,-153.25"
       fill="#ffc8ad"
       id="path597" />
    <g
       clip-path="url(#Clip_13)"
       opacity="0.34"
       id="g601">
      <path
         d="m 1179.844,131.071 c -13.104,7.056 -34,11.54 -60.576,10.754 -90.17,-2.665 -182.226,24.764 -328.363,51.193 -146.138,26.429 -506.037,36.758 -570.111,9.108 -13.007,-5.614 -21.356,-12.389 -25.573,-20.308 -13.311,25.229 -8.181,44.467 21.946,57.467 64.074,27.65 423.973,17.323 570.111,-9.107 146.136,-26.43 238.192,-53.858 328.363,-51.193 63.565,1.879 94.672,-26.372 64.203,-47.914"
         fill="#ffba98"
         id="path599" />
    </g>
  </g>
  <path
     d="M 96.841261,87.95167 C 132.99866,70.449703 185.14277,86.41716 212.1947,94.96372 v 0 c 30.3202,9.57883 158.92284,14.4472 158.92284,14.4472 v 0 c 28.31055,3.07794 34.76475,12.70952 27.23372,18.94951 v 0 c 14.76765,-5.4975 11.92889,-18.36101 -21.63962,-22.01033 v 0 c 0,0 -128.60264,-4.86837 -158.92284,-14.4472 v 0 C 199.57429,86.148755 169.9513,77.061462 141.52419,77.061106 v 0 c -16.02734,0 -31.67328,2.8883 -44.682929,10.890564 z"
     fill="url(#Gradient_20)"
     id="path605"
     style="fill:url(#Gradient_20);stroke-width:0.356448" />
  <path
     d="m 431.47706,129.57627 c -0.35288,0.3921 -0.70469,0.78419 -1.00554,0.76316 v 0 c -0.61487,-0.0424 -1.11996,-0.0413 -1.73768,-0.0107 v 0 c -0.30976,0.0157 -0.61523,-0.0994 -0.91572,-0.21458 v 0 c -0.32508,-0.1244 -0.64446,-0.24845 -0.95813,-0.20888 v 0 c -0.31082,0.0399 -0.65515,-0.12725 -0.99556,-0.29443 v 0 c -0.35859,-0.17644 -0.71325,-0.35253 -1.01873,-0.28658 v 0 c -0.62771,0.1358 -1.33989,0.13509 -1.92268,0.32116 v 0 c -0.60953,0.19426 -0.75139,1.62219 -1.31423,1.86779 v 0 c -0.5835,0.25486 -0.98237,0.6965 -1.51847,1.0034 v 0 c -0.54928,0.31403 -0.99342,0.62521 -1.49565,0.99021 v 0 c -0.50901,0.37 -1.19054,0.42453 -1.65357,0.843 v 0 c -0.2267,0.20496 -0.67048,0.20068 -1.11461,0.19712 v 0 c -0.46659,-0.004 -0.93354,-0.009 -1.14919,0.2292 v 0 c -0.41883,0.46231 0.42417,1.98363 0.0456,2.48587 v 0 c -0.37428,0.49724 -1.53665,0.43308 -1.87421,0.96597 v 0 c -0.33221,0.52469 -0.28445,1.28392 -0.58351,1.83998 v 0 c -0.29371,0.54679 0.0349,1.37803 -0.22884,1.9512 v 0 c -0.25985,0.56462 -1.42401,0.73001 -1.65677,1.31636 v 0 c -0.22919,0.57816 0.17644,1.38944 -0.0285,1.98542 v 0 c -0.20282,0.5885 -0.0759,1.26147 -0.25665,1.86494 v 0 c -0.17893,0.59669 -1.04795,0.98772 -1.208,1.59582 v 0 c -0.15862,0.60346 -0.77563,1.10249 -0.9175,1.71416 v 0 c -0.14151,0.60881 1.02051,1.49851 0.89398,2.11302 v 0 c -0.12654,0.61274 -1.95976,0.89362 -2.07346,1.50992 v 0 c -0.11335,0.61665 0.39565,1.35129 0.29264,1.96795 v 0 c -0.10194,0.60881 -0.37071,1.19517 -0.44984,1.78937 v 0 c -0.082,0.6138 0.80736,1.32171 0.75532,1.91698 v 0 c -0.0542,0.61915 -1.25328,1.16238 -1.26789,1.75907 v 0 c -0.0157,0.622 0.61879,1.24436 0.65373,1.83856 v 0 c 0.0367,0.62129 0.0107,1.23866 0.11192,1.82644 v 0 c 0.1048,0.6106 0.26199,1.20729 0.44699,1.77725 v 0 c 0.18891,0.58351 -0.1989,1.4814 0.0845,2.01928 v 0 c 0.28089,0.53289 1.53059,0.4919 1.9152,0.97631 v 0 c 0.36786,0.4641 1.08253,0.4805 1.55554,0.8954 v 0 c 0.43843,0.38639 0.50723,1.16773 1.04368,1.5092 v 0 c 0.48976,0.31154 0.62628,1.3709 1.20408,1.64359 v 0 c 0.26912,0.12761 0.62236,0.0913 0.98345,0.0553 v 0 c 0.34183,-0.0339 0.69044,-0.0681 0.98272,0.0356 v 0 c 0.54715,0.19427 0.92035,1.13244 1.53487,1.29783 v 0 c 0.28623,0.077 0.62913,-0.0292 0.97881,-0.13545 v 0 c 0.3372,-0.1023 0.68046,-0.2046 0.98593,-0.14329 v 0 c 0.57353,0.1162 1.05616,1.00732 1.68137,1.10071 v 0 c 0.29656,0.0446 0.62093,-0.0346 0.951,-0.11335 v 0 c 0.31653,-0.0759 0.63769,-0.15149 0.94423,-0.11905 v 0 c 0.29657,0.0317 0.61452,-0.11478 0.93711,-0.26164 v 0 c 0.31438,-0.14293 0.63412,-0.28587 0.94387,-0.26377 v 0 c 0.58885,0.0417 1.15097,0.92356 1.77797,0.94958 v 0 c 0.59099,0.0242 1.20586,0.40207 1.83178,0.4117 v 0 c 0.59242,0.009 1.2105,-1.3488 1.835,-1.35308 v 0 c 0.28516,-0.002 0.5721,0.0307 0.8626,0.0634 v 0 c 0.31511,0.0356 0.63448,0.0713 0.95921,0.0624 v 0 c 0.29228,-0.007 0.59028,0.0695 0.89183,0.1465 v 0 c 0.31154,0.0791 0.62664,0.15897 0.94352,0.14507 v 0 c 0.59527,-0.0264 1.18198,-0.41598 1.80327,-0.45305 v 0 c 0.28872,-0.0168 0.58208,0.006 0.879,0.0278 v 0 c 0.31475,0.0239 0.63234,0.0474 0.95172,0.0242 v 0 c 0.59669,-0.0435 1.19446,-0.17858 1.8129,-0.2317 v 0 c 0.59669,-0.0506 1.20051,-0.11263 1.81753,-0.17252 v 0 c 0.63519,-0.0613 1.23438,-0.10586 1.8243,-0.20389 v 0 c 0.62913,-0.10408 1.07148,-0.80557 1.65071,-0.94993 v 0 c 0.61915,-0.15399 1.09822,-0.4199 1.66176,-0.61701 v 0 c 0.29585,-0.10337 0.71646,0.12226 1.13137,0.34789 v 0 c 0.42916,0.23312 0.85262,0.46624 1.12744,0.33578 v 0 c 0.57424,-0.27233 0.85441,-1.10392 1.36057,-1.42544 v 0 c 0.53431,-0.33898 1.09928,-0.61345 1.56017,-1.00198 v 0 c 0.48049,-0.40492 1.14634,-0.64945 1.54913,-1.10392 v 0 c 0.41348,-0.46623 -0.257,-1.70204 0.0781,-2.21461 v 0 c 0.33827,-0.51721 1.5092,-0.50402 1.77083,-1.06364 v 0 c 0.26021,-0.5557 -0.0189,-1.30425 0.16932,-1.89631 v 0 c 0.18428,-0.58243 1.4044,-0.92462 1.52167,-1.53736 v 0 c 0.11442,-0.59812 -0.77884,-1.36377 -0.72537,-1.98613 v 0 c 0.052,-0.60667 -0.42168,-1.1916 -0.4256,-1.81646 v 0 c -0.004,-0.60846 0.72145,-1.22547 0.66727,-1.84783 v 0 c -0.0535,-0.60703 -0.2267,-1.19945 -0.32615,-1.81574 v 0 c -0.0969,-0.6024 0.12262,-1.27502 -0.0164,-1.88312 v 0 c -0.13617,-0.59491 0.11834,-1.32492 -0.0563,-1.92233 v 0 c -0.1711,-0.58707 -1.64359,-0.75745 -1.85068,-1.34381 v 0 c -0.20425,-0.57744 0.32508,-1.42294 0.088,-1.99646 v 0 c -0.2349,-0.56747 -0.81876,-0.97738 -1.0836,-1.53772 v 0 c -0.2627,-0.5557 -0.4976,-1.11319 -0.78882,-1.65962 v 0 c -0.28944,-0.54323 -0.0139,-1.41083 -0.33007,-1.94193 v 0 c -0.3151,-0.52969 -1.14135,-0.74641 -1.48211,-1.26147 v 0 c -0.3397,-0.51543 -0.46838,-1.17486 -0.83196,-1.67282 v 0 c -0.36464,-0.49902 -1.47569,-0.40136 -1.86208,-0.88042 v 0 c -0.38889,-0.48157 -0.67868,-0.99378 -1.08824,-1.45253 v 0 c -0.41276,-0.46196 -0.21101,-1.47676 -0.64232,-1.91306 v 0 c -0.43665,-0.44092 -0.47122,-1.33169 -0.92605,-1.74303 v 0 c -0.23383,-0.21101 -0.73001,-0.1105 -1.22511,-0.0107 v 0 c -0.48121,0.0977 -0.96099,0.19498 -1.1966,0.006 v 0 c -0.48513,-0.38888 -0.1604,-1.8325 -0.66121,-2.18431 v 0 c -0.25914,-0.18144 -0.72003,-0.0442 -1.17878,0.093 v 0 c -0.44306,0.1326 -0.88541,0.26519 -1.14277,0.11014 v 0 c -0.53325,-0.3208 -0.25094,-2.10055 -0.79773,-2.37466 v 0 c -0.28409,-0.14187 -0.71931,0.0517 -1.15311,0.24559 v 0 c -0.41598,0.18571 -0.83017,0.37178 -1.10855,0.26092 v 0 c -0.57745,-0.23062 -0.82803,-1.35735 -1.41582,-1.52952 v 0 c -0.59562,-0.17394 -1.14598,-0.79488 -1.74909,-0.90537 v 0 c -0.0196,-0.004 -0.0396,-0.005 -0.0595,-0.005 v 0 c -0.29727,-3.6e-4 -0.64125,0.38175 -0.98451,0.76386 z"
     fill="url(#Gradient_23)"
     id="path631"
     style="fill:url(#Gradient_23);stroke-width:0.356448" />
  <path
     d="m 230.47729,143.32591 c 18.18029,5.34708 27.8051,4.27774 17.11058,-4.27774 v 0 c 0,0 -75.93097,-24.59778 -90.90322,-29.94486 v 0 C 141.7124,103.75659 121.39271,98.408793 121.39271,98.408793 v 0 c 0,0 90.90358,39.570037 109.08458,44.917117 z"
     fill="url(#Gradient_24)"
     id="path633"
     style="fill:url(#Gradient_24);stroke-width:0.356448" />
  <path
     d="m 164.5258,142.94772 c 2.43347,8.58113 5.79834,11.33541 7.24659,3.80615 v 0 c 0,0 -8.95861,-36.87885 -10.46068,-44.37888 v 0 c -1.50208,-7.499669 -4.5572,-16.801899 -4.5572,-16.801899 v 0 c 0,0 5.3371,48.793139 7.77129,57.374629 z"
     fill="url(#Gradient_25)"
     id="path635"
     style="fill:url(#Gradient_25);stroke-width:0.356448" />
  <path
     d="m 91.727336,227.3242 c 1.248746,5.15486 11.296884,39.98196 1.005185,39.90563 v 0 c -10.29216,-0.0763 -10.353469,-0.0768 -10.353469,-0.0768 v 0 c 0,0 -11.416504,-21.95648 -8.678909,-39.97638 v 0 c 0,0 7.313534,-2.1827 12.642935,-2.18313 v 0 c 2.743155,0 4.960584,0.57848 5.384258,2.33064 z"
     fill="url(#Gradient_57)"
     id="path755"
     style="fill:url(#Gradient_57);stroke-width:0.428822" />
  <g
     clip-path="url(#Clip_24)"
     opacity="0.31"
     id="g759"
     transform="matrix(-0.42882076,0,0,0.42882076,557.22689,-154.92019)">
    <path
       d="m 1084.28,987.437 c 8.025,-0.062 16.05,-0.118 24.075,-0.179 0,0 26.624,-51.203 20.241,-93.225 0,0 -0.815,-0.242 -2.21,-0.621 -1.242,37.547 -21.163,75.868 -21.163,75.868 0,0 -0.143,0 -24.144,0.179 -3.419,0.025 -5.873,-1.605 -7.563,-4.448 0.133,6.381 -0.116,17.946 6.64,21.492 1.708,0.896 2.406,0.823 4.05,0.934 z"
       fill="url(#Gradient_58)"
       id="path757"
       style="fill:url(#Gradient_58)" />
  </g>
  <path
     d="m 70.124218,243.93715 c -0.02281,2.96872 2.393265,1.80962 5.362408,1.83149 l 339.549724,6.11069 c 2.96914,0.0219 5.39413,-2.36709 5.41645,-5.33624 0.0217,-2.96873 -2.36711,-5.39371 -5.33625,-5.41558 l -339.603761,1.0579 c -2.967895,-0.0223 -5.366685,-1.21699 -5.388571,1.75174"
     fill="#b7282c"
     id="path761"
     style="stroke-width:0.428822" />
  <path
     d="m 59.929013,242.60566 c 0.07888,2.96829 2.454146,1.72857 5.421578,1.65053 L 404.91404,238.9015 c 2.96786,-0.0776 5.31051,-2.54848 5.23202,-5.51592 -0.0776,-2.96787 -2.54761,-5.31094 -5.51547,-5.23247 L 65.255811,240.67339 c -2.967432,0.0785 -5.405288,-1.03474 -5.326798,1.93227"
     fill="#b7282c"
     id="path763"
     style="stroke-width:0.428822" />
  <g
     clip-path="url(#Clip_25)"
     opacity="0.18"
     id="g767"
     transform="matrix(0.35644829,0,0,0.35644829,-18.581328,67.461241)">
    <path
       d="m 1107.015,110.175 c 0,0 -360.788,-13.658 -445.85,-40.531 -85.062,-26.873 -261.069,-77.398 -360.123,4.332 -99.052,81.73 -148.024,137.586 -83.95,165.236 64.073,27.651 423.972,17.322 570.11,-9.107 146.137,-26.429 238.193,-53.858 328.364,-51.192 90.17,2.664 115.044,-55.302 -8.551,-68.738"
       fill="#ffba98"
       id="path765" />
  </g>
</svg>
