<?xml version="1.0" encoding="UTF-8" standalone="no"?>
<!-- Created with Inkscape (http://www.inkscape.org/) -->

<svg
   width="88mm"
   height="125mm"
   viewBox="0 0 88 125"
   version="1.1"
   id="svg5"
   inkscape:version="1.2.2 (732a01da63, 2022-12-09)"
   xml:space="preserve"
   sodipodi:docname="heater.svg"
   xmlns:inkscape="http://www.inkscape.org/namespaces/inkscape"
   xmlns:sodipodi="http://sodipodi.sourceforge.net/DTD/sodipodi-0.dtd"
   xmlns="http://www.w3.org/2000/svg"
   xmlns:svg="http://www.w3.org/2000/svg"><sodipodi:namedview
     id="namedview7"
     pagecolor="#f0f0f0"
     bordercolor="#ffffff"
     borderopacity="1"
     inkscape:showpageshadow="0"
     inkscape:pageopacity="0"
     inkscape:pagecheckerboard="0"
     inkscape:deskcolor="#505050"
     inkscape:document-units="mm"
     showgrid="true"
     inkscape:zoom="1.436055"
     inkscape:cx="214.12829"
     inkscape:cy="230.1444"
     inkscape:current-layer="layer1"><inkscape:grid
       type="xygrid"
       id="grid132"
       dotted="true"
       empspacing="10"
       units="mm"
       spacingx="1"
       spacingy="1"
       originx="-14.411441"
       originy="-151.77373" /></sodipodi:namedview><defs
     id="defs2" /><g
     inkscape:label="Layer 1"
     inkscape:groupmode="layer"
     id="layer1"
     transform="translate(-14.41144,-151.77372)"><g
       id="g250"><path
         style="display:inline;fill:#b8c2c1;fill-opacity:1;stroke-width:0.104793"
         d="m 77.6984,263.46165 c -8.743985,-0.18782 -12.958755,-0.32701 -21.901791,-0.72333 -5.76363,-0.25541 -12.860753,-0.60435 -15.771385,-0.7754 -2.910633,-0.17105 -6.683191,-0.3855 -8.383462,-0.47656 -8.472024,-0.45369 -13.290966,-1.10504 -14.574346,-1.96992 -1.266019,-0.85317 -1.44395,-3.26087 -0.335043,-4.53373 0.10226,-0.11733 0.987605,-0.77035 1.967422,-1.45105 0.979817,-0.68068 1.874951,-1.32782 1.989189,-1.43809 0.207056,-0.19985 0.206141,-0.31226 -0.293471,-36.06495 -0.579605,-41.4771 -0.563785,-39.09133 -0.268835,-40.53937 0.897406,-4.40578 4.055722,-7.05223 9.471616,-7.93658 5.531032,-0.90314 29.216257,-1.25795 43.07003,-0.64521 7.229204,0.31975 9.544085,0.45785 12.365605,0.73775 4.088027,0.40553 4.62177,0.48109 5.558832,0.78698 2.902899,0.94759 5.077128,2.87473 5.911995,5.2401 0.385419,1.09197 0.424487,1.49146 0.511884,5.23435 l 0.06851,2.9342 0.437753,0.21038 c 0.881174,0.42345 1.297759,1.1208 1.493691,2.50041 0.110144,0.7755 0.09444,0.79587 -0.883512,1.14682 -0.403454,0.14477 -0.816077,0.29602 -0.916941,0.33609 -0.174072,0.0692 -0.183389,1.62914 -0.183389,30.70474 v 30.63188 l 0.812149,0.0697 c 2.425679,0.20831 3.036969,0.50548 3.481029,1.69232 0.76412,2.04229 0.18535,3.57349 -3.188656,8.43589 -2.554031,3.68074 -5.332772,5.50041 -8.806826,5.76724 -1.256743,0.0965 -9.058919,0.18057 -11.632052,0.12531 z"
         id="path6069" /><path
         style="display:inline;fill:#cbd9da;fill-opacity:1;stroke-width:0.104793"
         d="m 77.279228,263.46161 c -8.306763,-0.1807 -12.639645,-0.32604 -21.587413,-0.72413 -5.763628,-0.25643 -12.436339,-0.58301 -14.828245,-0.72573 -2.391907,-0.14273 -6.164464,-0.35662 -8.383461,-0.47533 -6.058414,-0.32409 -12.382475,-0.93143 -13.712316,-1.31688 -2.082349,-0.60356 -2.641897,-1.21823 -2.719234,-2.98708 -0.07364,-1.68447 0.165056,-2.00479 2.91322,-3.90925 l 1.833881,-1.27088 0.0064,-3.66776 c 0.0036,-2.01728 -0.02586,-5.7191 -0.06534,-8.22628 -0.03948,-2.50717 -0.101604,-6.93993 -0.138029,-9.85055 -0.03643,-2.91064 -0.08919,-6.44741 -0.117249,-7.8595 -0.02806,-1.4121 -0.07718,-4.54803 -0.109154,-6.96876 -0.03198,-2.42072 -0.126362,-9.09343 -0.209747,-14.82824 -0.366317,-25.19341 -0.373493,-24.64314 0.347838,-26.66989 1.225626,-3.44367 4.340873,-5.64744 9.087857,-6.42886 9.136759,-1.50403 46.90515,-1.17761 59.394901,0.51333 3.384529,0.45823 6.520646,2.79899 7.511603,5.60658 0.408023,1.15602 0.430386,1.37775 0.512082,5.07705 l 0.06827,3.09139 0.437753,0.21038 c 0.881175,0.42345 1.297759,1.1208 1.493691,2.50041 0.111667,0.78631 0.117335,0.77983 -1.0669,1.2202 l -0.91694,0.34097 v 30.62327 30.62329 l 1.260935,0.12627 c 2.271669,0.22749 2.851089,0.64316 3.238329,2.32311 0.38579,1.67364 -0.20512,3.06144 -3.20862,7.53566 -2.484701,3.70139 -5.486357,5.71295 -8.940553,5.99152 -1.195711,0.0964 -9.489384,0.18256 -12.103621,0.12569 z m 15.82943,-7.8173 c 0.323277,-0.29546 0.78028,-0.82369 1.015562,-1.17384 0.235271,-0.35016 0.573324,-0.80278 0.751211,-1.00583 0.833662,-0.95157 1.256995,-2.09304 1.333986,-3.59695 0.185453,-3.62253 0.09705,-63.47959 -0.0936,-63.37789 -0.329784,0.17591 -2.104951,0.34526 -2.333998,0.22268 -0.233458,-0.12495 -0.321096,-3.25795 -0.102557,-3.6663 0.06817,-0.12737 0.529951,-0.33511 1.324157,-0.59566 l 1.219469,-0.40008 -0.0571,-3.35339 c -0.06153,-3.61303 -0.154245,-4.38636 -0.652119,-5.43876 -1.612579,-3.40872 -4.068273,-4.42064 -12.10404,-4.98773 -1.642634,-0.11586 -3.528913,-0.25648 -4.19173,-0.31235 -3.508516,-0.29576 -8.693385,-0.40689 -22.530551,-0.48291 -24.824639,-0.13639 -29.63896,0.38782 -33.362938,3.63272 -0.05009,0.0437 0.209269,-0.0292 0.576362,-0.1618 1.547,-0.55896 2.037077,-0.59612 14.657341,-1.11142 7.594513,-0.31008 18.889222,-0.38688 23.945261,-0.16282 2.132542,0.0946 5.928678,0.24378 8.435857,0.33171 14.759041,0.51761 15.7389,0.6064 17.343285,1.57139 1.4976,0.90079 2.357659,1.76783 3.005061,3.0295 0.883606,1.72196 0.896538,1.93545 0.806856,13.32057 -0.04039,5.12617 -0.108944,22.6863 -0.152369,39.02251 l -0.07894,29.70221 0.328872,-0.23418 c 0.180884,-0.12881 0.593382,-0.47593 0.916659,-0.77138 z M 63.739964,189.92846 c -0.04009,-0.0649 -0.009,-0.0687 0.08334,-0.01 0.199573,0.12635 0.341596,0.12474 0.43376,-0.005 0.05119,-0.072 0.07753,-0.0684 0.07859,0.0111 0.0021,0.15841 8.523666,0.0939 8.57661,-0.065 0.01953,-0.0585 0.08152,-0.10657 0.137753,-0.10657 0.05623,0 0.07929,0.0371 0.05122,0.0826 -0.02806,0.0454 0.07525,0.0895 0.2296,0.0979 0.244987,0.0134 0.254009,0.004 0.07104,-0.0752 -0.200072,-0.0865 -0.198882,-0.0909 0.0262,-0.0979 0.129681,-0.004 0.239507,0.0516 0.244057,0.12365 0.0067,0.10484 0.01885,0.10484 0.06113,0 0.02907,-0.072 0.09887,-0.13098 0.155101,-0.13098 0.05623,0 0.07866,0.0381 0.04982,0.0848 -0.04856,0.0786 0.544931,0.0279 1.559564,-0.13322 0.577155,-0.0916 0.704424,-0.14357 0.63338,-0.25852 -0.03744,-0.0605 0.05593,-0.0652 0.241306,-0.0124 0.166303,0.0477 0.363354,0.049 0.43789,0.002 0.07454,-0.046 0.206482,-0.0566 0.293209,-0.0233 0.09246,0.0355 0.13021,0.0161 0.09127,-0.0469 -0.0408,-0.066 0.02867,-0.0892 0.180112,-0.0603 0.135589,0.0259 0.278417,-0.005 0.317393,-0.0676 0.03897,-0.0631 0.16744,-0.11462 0.285479,-0.11462 0.136631,0 0.194976,-0.0511 0.160571,-0.14082 -0.03873,-0.10088 0.01762,-0.12713 0.198778,-0.0925 0.66863,0.12782 1.987267,-1.68728 2.28904,-3.15084 0.01433,-0.0696 0.05906,-0.2443 0.09941,-0.3884 0.04034,-0.14408 0.08631,-0.37986 0.102124,-0.52396 0.01583,-0.14409 0.08617,-0.36808 0.156312,-0.49777 0.07014,-0.12968 0.09652,-0.23579 0.05862,-0.23579 -0.0379,0 -0.01902,-0.0601 0.04197,-0.1336 0.06098,-0.0735 0.130245,-0.25031 0.15391,-0.39297 0.02366,-0.14266 0.07559,-0.33326 0.11538,-0.42355 0.03979,-0.0902 0.08241,-0.30249 0.09471,-0.47157 0.01225,-0.16907 0.05374,-0.33128 0.09209,-0.36049 0.03836,-0.0292 0.101319,-0.265 0.139939,-0.52397 0.03862,-0.25898 0.109797,-0.51859 0.158175,-0.57691 0.04838,-0.0583 0.103299,-0.24693 0.122038,-0.41916 0.01874,-0.17223 0.06397,-0.33672 0.100491,-0.36554 0.05539,-0.0437 0.157635,-0.57572 0.216506,-1.12653 0.0077,-0.072 0.06508,-0.1317 0.127525,-0.13259 0.06244,-8.3e-4 0.04318,-0.046 -0.04279,-0.10038 -0.133128,-0.0842 -0.134733,-0.11895 -0.01077,-0.23418 0.119787,-0.11139 0.130657,-0.10929 0.06153,0.0124 -0.05205,0.0912 -0.04331,0.12204 0.02297,0.0811 0.05882,-0.0364 0.08284,-0.19212 0.05339,-0.34615 -0.03701,-0.19359 -0.01649,-0.25716 0.06645,-0.20591 0.06944,0.0429 0.119984,0.009 0.119984,-0.0807 0,-0.0851 0.02802,-0.24118 0.06228,-0.34676 0.0518,-0.15964 0.04325,-0.16549 -0.0508,-0.0348 -0.175498,0.24397 -0.136336,0.0233 0.04497,-0.25347 0.08869,-0.13537 0.151938,-0.28696 0.140552,-0.33689 -0.01139,-0.0499 0.0087,-0.16152 0.04442,-0.24798 0.187517,-0.45258 0.352392,-1.63257 0.246736,-1.76586 -0.181413,-0.22887 -0.188445,-0.47262 -0.0094,-0.32398 0.08119,0.0673 0.117274,0.17162 0.08019,0.23162 -0.03708,0.06 -0.02285,0.0816 0.03164,0.0479 0.05448,-0.0337 0.111048,-0.2391 0.12569,-0.45649 0.01464,-0.21741 0.06489,-0.44471 0.111679,-0.50514 0.0923,-0.11919 0.301113,-1.13143 0.396451,-1.92179 0.03274,-0.27143 0.112521,-0.52816 0.17728,-0.57051 0.06476,-0.0423 0.08072,-0.0777 0.03546,-0.0786 -0.04525,-8.9e-4 -0.03181,-0.0959 0.02989,-0.21119 0.105243,-0.19665 0.08121,-0.20883 -0.389287,-0.19719 -0.451055,0.0111 -0.469857,0.0207 -0.187075,0.0953 0.286014,0.0754 0.274195,0.0819 -0.130992,0.0719 -0.244954,-0.006 -0.445371,-0.046 -0.445371,-0.0889 0,-0.15211 -1.345608,-0.23334 -5.816026,-0.35108 -0.518727,-0.0136 -1.391131,-0.0574 -1.938675,-0.0973 -0.547546,-0.0399 -1.561421,-0.0715 -2.253056,-0.0704 -2.065207,0.004 -2.56225,-0.0196 -2.502978,-0.11536 0.07107,-0.11498 -0.947015,-0.0439 -1.032189,0.0719 -0.04768,0.0649 -0.07761,0.055 -0.0786,-0.0262 -8.39e-4,-0.072 -0.05155,-0.131 -0.112583,-0.131 -0.06103,0 -0.0777,0.0589 -0.03702,0.131 0.05852,0.1036 0.04502,0.10422 -0.06468,0.002 -0.109476,-0.10149 -0.172044,-0.10149 -0.297473,0 -0.08736,0.0707 -0.129712,0.0797 -0.09412,0.0202 0.04268,-0.0714 -0.227196,-0.10446 -0.792032,-0.0967 -0.471219,0.006 -1.0267,-0.026 -1.234402,-0.072 -0.207703,-0.046 -0.525377,-0.0415 -0.705941,0.01 -0.180566,0.0517 -0.352913,0.0543 -0.382995,0.006 -0.05007,-0.0809 -1.312035,-0.11597 -5.520913,-0.1528 -0.846032,-0.007 -1.515236,0.0238 -1.48712,0.0692 0.02812,0.0455 0.0012,0.0827 -0.05986,0.0827 -0.06103,-1e-5 -0.110974,-0.037 -0.110974,-0.0823 0,-0.0453 -0.09085,-0.0823 -0.201892,-0.0823 -0.111036,0 -0.178994,0.037 -0.151005,0.0823 0.02799,0.0453 9.43e-4,0.0823 -0.06009,0.0823 -0.06103,0 -0.110974,-0.0369 -0.110974,-0.0819 0,-0.12217 -0.503514,-0.14073 -0.577355,-0.0213 -0.03508,0.0568 -0.190673,0.10248 -0.345772,0.10161 -0.191014,-0.001 -0.237578,-0.0298 -0.144326,-0.0889 0.08355,-0.053 -0.112125,-0.0948 -0.497768,-0.10632 -0.400185,-0.0124 -0.635437,0.0231 -0.635437,0.095 0,0.0628 0.04716,0.085 0.104797,0.0494 0.05764,-0.0357 0.104797,-0.0148 0.104797,0.0462 0,0.061 -0.09936,0.11102 -0.220798,0.11102 -0.14525,0 -0.201708,-0.0498 -0.165005,-0.1454 0.04515,-0.1177 -0.152514,-0.14844 -1.036721,-0.16138 -0.696803,-0.01 -1.092514,0.0235 -1.092514,0.093 0,0.0599 -0.07073,0.10904 -0.15719,0.10904 -0.08645,0 -0.15719,-0.0472 -0.15719,-0.10483 0,-0.0577 -0.07073,-0.10484 -0.157189,-0.10484 -0.08646,0 -0.15719,0.0477 -0.15719,0.10595 0,0.13114 -1.663797,0.10447 -1.745652,-0.028 -0.07279,-0.11771 -0.884136,-0.0731 -1.057568,0.0581 -0.07205,0.0546 -0.131047,0.0581 -0.131112,0.007 -2.09e-4,-0.16118 -2.919582,-0.18104 -3.116761,-0.0212 -0.127921,0.10372 -0.151514,0.10533 -0.09215,0.006 0.06185,-0.10285 -0.0456,-0.12093 -0.477652,-0.0803 -0.704732,0.0663 -5.608287,0.19415 -6.792642,0.17706 -0.661284,-0.01 -0.85025,0.0162 -0.733553,0.1 0.126296,0.0907 0.115999,0.0984 -0.05239,0.0391 -0.332522,-0.11697 -0.613163,-0.12407 -0.824795,-0.0208 -0.136053,0.0665 -0.17424,0.0604 -0.124806,-0.0196 0.04401,-0.0712 -0.02121,-0.11462 -0.170742,-0.11363 -0.199865,0.001 -0.214616,0.0211 -0.08478,0.11326 0.120343,0.0855 0.08757,0.0964 -0.139773,0.0465 -0.225851,-0.0495 -0.277495,-0.0327 -0.215668,0.0701 0.06447,0.10718 0.04613,0.10669 -0.0886,-0.002 -0.213621,-0.17309 -3.353642,-0.10137 -3.413428,0.078 -0.02055,0.0616 -0.139521,0.11127 -0.264399,0.1104 -0.186613,-0.001 -0.199056,-0.0203 -0.06987,-0.10669 0.153377,-0.1026 -0.53647,-0.0855 -2.934211,0.0727 -0.489909,0.0323 -1.022019,0.0553 -1.182468,0.0511 -0.419832,-0.0111 -0.839942,0.17088 -0.776556,0.33607 0.02935,0.0765 0.0072,0.2055 -0.04918,0.28671 -0.07351,0.10595 -0.09074,0.0514 -0.06085,-0.19288 0.03367,-0.27516 0.005,-0.34058 -0.149764,-0.34058 -0.224853,0 -0.271561,0.50672 -0.06569,0.7126 0.06916,0.0692 0.09771,0.12575 0.06343,0.12575 -0.03427,0 -0.01862,0.17683 0.03479,0.39298 0.05341,0.21613 0.120244,0.51086 0.14853,0.65495 0.09723,0.4954 0.371906,1.62449 0.433385,1.78149 0.06415,0.16382 0.127801,0.46453 0.155269,0.73354 0.0088,0.0865 0.09091,0.21964 0.182402,0.29597 0.128845,0.10743 0.130912,0.12067 0.0092,0.0584 -0.124841,-0.0637 -0.133003,-0.0491 -0.03966,0.0708 0.06465,0.0831 0.102855,0.24273 0.08489,0.35472 -0.01795,0.11201 -0.0015,0.25345 0.03671,0.31438 0.08156,0.1303 0.09549,0.18643 0.183553,0.73954 0.03671,0.23055 0.09378,0.48991 0.126839,0.57636 0.03306,0.0865 0.05096,0.19752 0.03978,0.24682 -0.01114,0.0493 0.03256,0.15332 0.09717,0.23119 0.06462,0.0778 0.08908,0.18754 0.05436,0.2437 -0.03472,0.0562 -0.01443,0.13224 0.04508,0.16903 0.05952,0.0368 0.07613,0.11882 0.03692,0.18224 -0.04608,0.0745 -0.0088,0.0913 0.105503,0.0475 0.150406,-0.0577 0.159591,-0.0357 0.06151,0.14757 -0.06341,0.11845 -0.08085,0.29425 -0.03875,0.39061 0.04209,0.0964 0.0857,0.22236 0.0969,0.28 0.01114,0.0577 0.03357,0.12837 0.04971,0.15719 0.01613,0.0288 0.04255,0.1467 0.05872,0.26198 0.105318,0.75138 0.193153,1.05384 0.336476,1.15865 0.116098,0.0849 0.128331,0.14077 0.04245,0.19386 -0.06637,0.041 -0.119947,0.13073 -0.119068,0.19938 9.43e-4,0.077 0.04461,0.0646 0.113882,-0.0324 0.0903,-0.12642 0.102223,-0.11127 0.06091,0.0775 -0.05722,0.26132 0.223438,1.62176 0.351611,1.70436 0.04499,0.029 0.0823,0.17047 0.08288,0.31438 0.0011,0.27354 0.09732,0.77896 0.199396,1.0476 0.03285,0.0865 0.07129,0.21126 0.08543,0.27733 0.01413,0.0661 0.12806,0.22248 0.253168,0.34758 0.19137,0.19138 0.205769,0.25361 0.09074,0.39221 -0.152751,0.18406 -0.128316,0.65592 0.04229,0.81677 0.07674,0.0724 0.08517,0.0593 0.02719,-0.0423 -0.05757,-0.10087 -0.04434,-0.12266 0.04211,-0.0693 0.0945,0.0584 0.09629,0.11374 0.0072,0.22119 -0.140657,0.16948 -0.04838,0.36203 0.17349,0.36203 0.08646,0 0.128047,-0.0472 0.09242,-0.10483 -0.03562,-0.0577 -0.01483,-0.10484 0.04622,-0.10484 0.143929,0 0.141852,0.13679 -0.0043,0.28294 -0.08383,0.0838 -0.05239,0.17815 0.115268,0.34582 0.16767,0.16766 0.261984,0.1991 0.345818,0.11523 0.146147,-0.14615 0.282942,-0.14821 0.282942,-0.004 0,0.061 -0.05169,0.079 -0.11486,0.04 -0.07135,-0.0441 -0.100589,0.004 -0.07716,0.1248 0.02074,0.10768 0.09773,0.1958 0.171085,0.1958 0.07336,0 0.178094,0.0708 0.232745,0.15719 0.05465,0.0864 0.100094,0.11449 0.100973,0.0624 8.38e-4,-0.0521 0.08795,-0.0167 0.193497,0.0789 0.10554,0.0956 0.223433,0.14211 0.261983,0.10359 0.03855,-0.0385 0.07009,-0.0151 0.07009,0.0521 0,0.0672 0.144254,0.12229 0.320565,0.12229 0.17631,0 0.295628,0.0404 0.265153,0.0896 -0.03047,0.0493 0.07285,0.0692 0.2296,0.0442 0.195172,-0.0311 0.241586,-0.0148 0.147245,0.0517 -0.09625,0.0679 0.0457,0.13402 0.471023,0.21944 0.405626,0.0814 0.620628,0.0868 0.644267,0.0158 0.01951,-0.0586 0.128644,-0.10644 0.242516,-0.10644 0.114675,0 0.177431,0.0479 0.140668,0.10743 -0.0365,0.059 -0.0275,0.098 0.02001,0.0866 0.04752,-0.0111 0.345747,0.0124 0.662747,0.0519 1.078814,0.13594 3.353384,0.16994 3.353384,0.0501 0,-0.0761 0.04207,-0.0782 0.130991,-0.006 0.289417,0.23315 2.105035,0.31439 9.090816,0.40675 1.757907,0.0233 3.627894,0.053 4.155526,0.066 0.52763,0.013 0.944779,2.1e-4 0.926995,-0.0286 -0.01779,-0.0288 0.08826,-0.0597 0.235658,-0.0686 0.192021,-0.0111 0.226305,0.01 0.120937,0.076 -0.08737,0.0547 0.95878,0.10372 2.57757,0.12093 5.459309,0.0578 6.541539,0.0483 6.47625,-0.0574 z m -9.510075,-2.48955 c 0.02066,-0.0334 -0.453889,-0.0651 -1.054557,-0.0703 -0.600669,-0.005 -1.142869,-0.041 -1.204888,-0.0792 -0.06202,-0.0384 -0.190485,-0.006 -0.285478,0.0703 -0.09499,0.077 -0.141283,0.0875 -0.102867,0.0234 0.04984,-0.0833 -0.27462,-0.11325 -1.13256,-0.10484 -0.661328,0.006 -1.214225,-0.0188 -1.228661,-0.0563 -0.02192,-0.0569 -3.403863,-0.18771 -6.209049,-0.24001 -0.403454,-0.007 -0.789569,-0.0483 -0.858034,-0.0907 -0.06847,-0.0423 -0.257092,-0.0769 -0.419173,-0.0766 -0.769278,9.6e-4 -1.264855,-0.0571 -1.212461,-0.14184 0.0324,-0.0525 -0.1772,-0.0708 -0.478072,-0.042 -0.309005,0.0297 -0.510811,0.0111 -0.476801,-0.0439 0.03389,-0.0548 -0.188907,-0.0772 -0.523807,-0.0526 -0.342269,0.0251 -0.558,0.002 -0.522739,-0.0543 0.03509,-0.0568 -0.136639,-0.0766 -0.413305,-0.0478 -0.26034,0.0271 -0.513012,0.0139 -0.561497,-0.0296 -0.134866,-0.12068 -0.976932,-0.30581 -1.197822,-0.26326 -0.110565,0.0213 -0.185478,-0.0166 -0.171906,-0.0869 0.01323,-0.0686 -0.04617,-0.12457 -0.132008,-0.12457 -0.08583,0 -0.316455,-0.15575 -0.512491,-0.34614 -0.196035,-0.19037 -0.419974,-0.32175 -0.497638,-0.29195 -0.07767,0.0298 -0.129986,-9.4e-4 -0.116271,-0.0682 0.01371,-0.0673 -0.03008,-0.1246 -0.09732,-0.12722 -0.06724,-0.002 -0.161555,-0.0477 -0.209586,-0.10013 -0.05073,-0.0554 -0.03244,-0.0639 0.04367,-0.02 0.07205,0.0415 0.130991,0.0254 0.130991,-0.0357 0,-0.061 -0.05502,-0.11102 -0.122262,-0.11102 -0.06724,0 -0.09402,-0.0282 -0.05948,-0.0627 0.03452,-0.0345 -0.03136,-0.24338 -0.14641,-0.4641 -0.115045,-0.22073 -0.228082,-0.53437 -0.251184,-0.69698 -0.0231,-0.16261 -0.07013,-0.41355 -0.1045,-0.55764 -0.0748,-0.31356 -0.154358,-0.87757 -0.184785,-1.30991 -0.01317,-0.18708 -0.07517,-0.30378 -0.153116,-0.28819 -0.07205,0.0145 -0.130991,-0.0473 -0.130991,-0.13718 0,-0.0899 0.04716,-0.13423 0.104798,-0.0986 0.05843,0.0361 0.104079,-0.0422 0.103188,-0.17721 -9.43e-4,-0.14339 -0.03297,-0.19267 -0.07859,-0.12092 -0.04234,0.0666 -0.08382,-0.12204 -0.09216,-0.41918 -0.05548,-1.97505 -0.218769,-3.55647 -0.35833,-3.47022 -0.05494,0.0339 -0.09347,-0.11486 -0.08762,-0.33854 0.0093,-0.35468 0.01985,-0.36997 0.09492,-0.13718 0.06374,0.19767 0.08139,0.12881 0.0719,-0.28049 -0.0069,-0.29836 -0.04107,-0.52488 -0.07586,-0.50336 -0.03481,0.0215 -0.04989,-0.46531 -0.03354,-1.08183 0.01957,-0.7378 -0.0043,-1.06721 -0.06986,-0.96374 -0.07962,0.12568 -0.09991,0.128 -0.101196,0.0111 -8.38e-4,-0.0801 0.08092,-0.21328 0.181784,-0.29595 0.110453,-0.0905 0.120875,-0.11968 0.0262,-0.0734 -0.09086,0.0444 -0.1209,0.0373 -0.07119,-0.0171 0.104351,-0.11412 0.09638,-0.11338 1.308703,-0.13317 0.536538,-0.009 0.951236,-0.0552 0.921551,-0.10322 -0.02968,-0.048 0.01261,-0.0874 0.094,-0.0874 0.08138,0 0.123685,0.0394 0.094,0.0874 -0.02968,0.048 0.05492,0.0866 0.188,0.0858 0.195482,-0.001 0.211769,-0.0214 0.08478,-0.10471 -0.109315,-0.0717 -0.04547,-0.0803 0.209586,-0.0285 0.201727,0.041 0.46109,0.0675 0.576363,0.0588 0.958735,-0.0722 4.373265,-0.14507 9.221807,-0.19674 3.169996,-0.0338 8.487256,-0.0923 11.816133,-0.13019 3.328879,-0.0379 6.181875,-0.037 6.339993,0.001 0.246493,0.0604 2.197875,0.10917 8.897932,0.22239 0.701204,0.0124 1.310315,0.0569 1.353579,0.10013 0.04327,0.0432 0.271221,0.0724 0.50657,0.0647 l 0.427906,-0.0137 -0.366776,-0.0772 -0.366777,-0.0772 0.372016,-0.0137 c 0.204609,-0.007 0.423456,0.0376 0.486327,0.10051 0.06357,0.0636 0.549681,0.12166 1.095089,0.13098 0.539428,0.009 1.019738,0.0639 1.067353,0.12142 0.05608,0.0679 0.105292,0.0587 0.139723,-0.0262 0.06029,-0.14858 0.517819,-0.17866 0.603709,-0.0397 0.03103,0.0503 0.196802,0.075 0.368372,0.055 0.171569,-0.0199 0.340371,0.01 0.375117,0.0658 0.03474,0.0562 0.153042,0.10224 0.262884,0.10224 0.270224,0 0.440965,0.35354 0.368736,0.76351 -0.03264,0.18526 -0.08493,0.59618 -0.116197,0.91318 -0.04995,0.50634 -0.150322,1.00848 -0.317223,1.58707 -0.02734,0.0948 0.0213,0.24336 0.108114,0.33016 0.140572,0.14058 0.138761,0.17329 -0.01656,0.29923 -0.147605,0.11968 -0.160762,0.11882 -0.08567,-0.006 0.06193,-0.10273 0.05014,-0.1234 -0.03909,-0.0682 -0.07029,0.0434 -0.117967,0.20399 -0.105948,0.35677 0.01201,0.15279 -0.0045,0.34853 -0.03652,0.43498 -0.124088,0.33418 -0.183671,0.89481 -0.07796,0.73355 0.0882,-0.13454 0.103275,-0.13078 0.104649,0.0262 8.38e-4,0.10087 -0.04181,0.18339 -0.09486,0.18339 -0.10908,0 -0.220809,0.43663 -0.265679,1.03825 -0.01663,0.22304 -0.06713,0.46523 -0.112224,0.53818 -0.05681,0.092 -0.03988,0.10657 0.0552,0.0479 0.09993,-0.0618 0.111877,-0.0448 0.04399,0.0624 -0.05125,0.081 -0.0998,0.22971 -0.10788,0.33057 -0.008,0.10087 -0.02453,0.19517 -0.03654,0.20958 -0.01201,0.0145 -0.0391,0.12056 -0.06021,0.23579 -0.02111,0.11523 -0.0832,0.41881 -0.137967,0.67454 -0.05477,0.25572 -0.07893,0.57883 -0.05369,0.71802 0.02524,0.13918 -0.0087,0.31875 -0.07525,0.39903 -0.06663,0.0803 -0.09642,0.24054 -0.06619,0.35612 0.03023,0.1156 0.01225,0.21013 -0.04003,0.21013 -0.05224,0 -0.09498,0.0499 -0.09498,0.11103 0,0.061 0.04716,0.0818 0.104797,0.0462 0.05764,-0.0356 0.104798,-0.0148 0.104798,0.0462 0,0.061 -0.04494,0.11102 -0.09987,0.11102 -0.09905,0 -0.34907,0.73872 -0.275066,0.81274 0.0212,0.0212 -0.07269,0.1586 -0.208675,0.30532 -0.135979,0.14673 -0.237133,0.31851 -0.224788,0.38175 0.01238,0.0632 -0.02582,0.11708 -0.08481,0.11968 -0.05899,0.002 -0.215515,0.10558 -0.347835,0.22891 -0.132321,0.12327 -0.381913,0.25239 -0.55465,0.28695 -0.172737,0.0345 -0.291081,0.10001 -0.262986,0.14546 0.0281,0.0454 -0.08561,0.16111 -0.252697,0.25699 -0.174604,0.10026 -0.329683,0.13243 -0.364701,0.0757 -0.09017,-0.1459 -0.326847,-0.11968 -0.502147,0.0556 -0.09285,0.0928 -0.335506,0.14982 -0.610045,0.14321 -0.250726,-0.006 -0.738805,0.0157 -1.084623,0.0485 -0.345818,0.0327 -1.181718,0.0925 -1.857558,0.13287 -0.675838,0.0404 -1.20357,0.11424 -1.172739,0.16411 0.03083,0.0499 -0.161714,0.0907 -0.427881,0.0907 -0.335781,0 -0.461317,-0.0366 -0.410049,-0.11956 0.05431,-0.0879 -0.145306,-0.10075 -0.753566,-0.0488 -1.617127,0.13831 -14.625198,0.28131 -14.550195,0.15997 z m 17.757279,-1.1401 c 3.096714,-0.15725 4.082391,-0.43351 4.803904,-1.34645 0.291156,-0.36839 2.169942,-10.47688 1.982158,-10.66466 -0.09087,-0.0909 -9.132453,-0.46038 -13.859607,-0.56642 -9.458085,-0.21213 -23.41698,-0.0363 -29.801034,0.37546 l -0.982885,0.0634 0.06971,1.6397 c 0.10294,2.42147 0.6422,7.09569 0.919593,7.97087 0.509229,1.60663 2.176942,1.98565 10.879437,2.47261 4.711547,0.26363 21.196462,0.29883 25.988729,0.0554 z m -19.543943,-1.06067 c -1.861324,-0.62869 -3.049017,-1.64485 -3.664542,-3.13531 -0.32377,-0.78399 -0.379387,-7.01176 -0.06542,-7.32573 0.247174,-0.24717 11.485823,-0.3532 12.114214,-0.11424 l 0.276417,0.10508 -0.03693,3.43168 c -0.04383,4.07316 -0.05644,4.12976 -1.193768,5.35818 -1.718499,1.85613 -4.827703,2.55932 -7.429971,1.68038 z m 3.470649,-0.57002 c 0.511867,-0.0876 1.001404,-0.18965 1.087858,-0.22672 0.08645,-0.0371 0.180768,-0.0738 0.209586,-0.0816 1.01882,-0.27615 2.381108,-1.45894 2.789801,-2.42222 0.268803,-0.63355 0.279253,-0.75232 0.324373,-3.68588 l 0.04232,-2.75082 H 54.859821 49.35183 l 8.3e-5,2.90801 8.3e-5,2.90801 0.311268,0.65796 c 0.307007,0.64896 1.300484,1.7523 1.478662,1.64218 0.04712,-0.0291 0.13901,0.0468 0.204209,0.16855 0.0652,0.12179 0.145426,0.1946 0.178283,0.16174 0.03286,-0.0328 0.111568,0.002 0.174898,0.0791 0.157757,0.19013 1.083337,0.51963 1.264434,0.45015 0.0809,-0.0311 0.161932,-0.0141 0.180064,0.0376 0.02912,0.083 1.008033,0.26491 1.617341,0.3004 0.122138,0.007 0.640858,-0.0588 1.152725,-0.1464 z m -1.42718,-0.58045 c -0.547546,-0.0333 -1.10164,-0.11795 -1.231322,-0.18803 -0.129681,-0.0701 -0.236506,-0.0905 -0.237389,-0.0452 -8.38e-4,0.0453 -0.03625,0.0327 -0.07859,-0.0281 -0.04234,-0.0606 -0.255142,-0.21859 -0.472884,-0.35093 -0.954993,-0.58039 -0.837587,-1.57691 0.259616,-2.20354 0.276529,-0.15793 0.467474,-0.32609 0.424322,-0.37368 -0.04315,-0.0475 -0.0313,-0.0609 0.02634,-0.0294 0.05764,0.0313 0.405181,0.0152 0.772321,-0.0359 0.423262,-0.0589 0.940942,-0.0525 1.414709,0.0176 0.41095,0.0607 0.848782,0.11981 0.97296,0.13124 0.124177,0.0111 0.207029,0.0513 0.184112,0.0883 -0.04706,0.0761 0.476923,0.24288 0.638043,0.20303 0.05764,-0.0142 0.07159,0.007 0.03102,0.0479 -0.04057,0.0406 0.04195,0.24409 0.183388,0.45223 0.308678,0.45427 0.325975,0.91704 0.04758,1.27294 -0.234117,0.29931 -0.271113,0.46696 -0.07859,0.35617 0.07205,-0.0415 0.09427,-0.035 0.04936,0.0144 -0.04489,0.0494 -0.139208,0.0991 -0.209586,0.11077 -0.145608,0.024 -1.304574,0.43491 -1.542668,0.54702 -0.08645,0.0407 -0.605181,0.0468 -1.152725,0.0135 z m -4.027055,-4.03579 c -0.19546,-0.19546 -0.241797,-2.74401 -0.05619,-3.0908 0.180094,-0.33651 8.604541,-0.31368 8.841032,0.024 0.08732,0.12466 0.139313,0.25814 0.115541,0.29659 -0.02378,0.0385 -0.05024,0.68675 -0.0588,1.44063 -0.01487,1.30696 -0.02604,1.3735 -0.240591,1.43106 -0.589509,0.15817 -8.433891,0.0656 -8.60098,-0.10149 z m -12.235196,3.66679 c -2.1734,-0.6688 -1.670956,-3.92129 0.60576,-3.92129 2.336576,0 2.845214,3.18075 0.626188,3.91586 -0.605799,0.20068 -0.597558,0.20064 -1.231948,0.005 z m 5.374731,3.2e-4 c -1.475131,-0.46305 -1.836653,-2.27441 -0.680423,-3.40916 1.771639,-1.73873 4.531789,0.97366 2.84879,2.79949 -0.624822,0.67786 -1.324472,0.87457 -2.168367,0.60967 z m 20.233427,-0.98866 c -1.331443,-0.27964 -2.003652,-1.3788 -1.331641,-2.17744 0.984258,-1.16973 4.567589,-1.13951 5.60962,0.0473 1.192475,1.35816 -1.52087,2.70922 -4.277979,2.13015 z m 7.735393,-2.21312 c -2.141774,-0.94698 -2.051588,-4.05461 0.14379,-4.95476 1.659922,-0.68061 3.579618,0.67172 3.557166,2.50584 -0.02386,1.94919 -1.949447,3.22336 -3.700956,2.44892 z m -7.421691,-1.66503 c -1.625164,-0.22492 -2.453413,-1.42737 -1.56433,-2.27111 1.523834,-1.44609 5.842224,-0.88901 5.842224,0.75367 0,1.09697 -2.053324,1.82532 -4.277894,1.51744 z m -25.968942,-0.065 c -0.892353,-0.1962 -1.554705,-1.5377 -1.255947,-2.54373 0.659125,-2.21951 3.942156,-1.74015 3.942156,0.5756 0,1.36465 -1.253594,2.28313 -2.686209,1.96813 z m 5.253643,-0.0761 c -1.298785,-0.6052 -1.61777,-2.42071 -0.592347,-3.37136 1.388087,-1.28687 3.693806,-0.11796 3.443814,1.7459 -0.163738,1.22075 -1.763259,2.13255 -2.851467,1.62546 z"
         id="path6071" /><path
         id="path6075"
         style="display:inline;fill:#56b98d;fill-opacity:1;stroke-width:0.104793"
         d="m 56.786163,173.64659 c 1.131193,0.001 2.229897,0.006 3.273509,0.0153 0.0041,4e-5 0.0087,-3e-5 0.0128,0 0.262428,0.002 0.485543,0.007 0.740665,0.01 0.758466,0.009 1.519667,0.0163 2.200889,0.0295 1.487458,0.0285 3.208841,0.072 4.956316,0.1234 0.0011,4e-5 0.0021,-2e-5 0.0032,0 1.746416,0.0514 3.518697,0.11065 5.108544,0.16951 0.0016,5e-5 0.0036,-6e-5 0.0051,0 1.588354,0.0588 2.995354,0.11795 4.011617,0.16885 6.47e-4,3e-5 0.0019,-4e-5 0.0026,0 0.10507,0.005 0.152954,0.01 0.249447,0.0147 0.834697,0.0443 1.392266,0.0829 1.419928,0.10805 0.138864,0.15059 -1.264549,7.92409 -1.785783,10.08724 -0.03732,0.15465 -0.06981,0.28038 -0.09722,0.37289 -0.02742,0.0927 -0.04953,0.15141 -0.06524,0.17206 -0.178674,0.23482 -0.377037,0.42912 -0.624897,0.59036 -0.06195,0.0403 -0.126479,0.0781 -0.19508,0.11449 -0.754672,0.40018 -1.939381,0.56862 -4.172798,0.67607 -2.267534,0.10904 -17.846782,0.2107 -21.272699,0.13879 -0.626896,-0.0131 -1.297131,-0.0349 -1.989819,-0.0634 -0.207765,-0.009 -0.427369,-0.021 -0.638968,-0.0307 -0.500903,-0.0231 -1.001871,-0.0464 -1.515229,-0.0755 -0.174927,-0.01 -0.349725,-0.0222 -0.525118,-0.0327 -0.554139,-0.0332 -1.109643,-0.0671 -1.657862,-0.10558 -0.173878,-0.0124 -0.338789,-0.0264 -0.511046,-0.039 -0.544229,-0.0399 -1.0869,-0.0807 -1.604134,-0.12409 -0.219736,-0.0184 -0.419038,-0.038 -0.631933,-0.0569 -0.414478,-0.0368 -0.828848,-0.0734 -1.210137,-0.11127 -0.332232,-0.0332 -0.621779,-0.0662 -0.922954,-0.0998 -0.238972,-0.0265 -0.493816,-0.0528 -0.709323,-0.0793 -0.278683,-0.0343 -0.501189,-0.0686 -0.736189,-0.10236 -0.192695,-0.0277 -0.410149,-0.0556 -0.567971,-0.0825 -0.0895,-0.0152 -0.171925,-0.0305 -0.250087,-0.0454 -0.06369,-0.0124 -0.128507,-0.0244 -0.183567,-0.0365 -0.05564,-0.0124 -0.100985,-0.0241 -0.148388,-0.0358 -0.06278,-0.016 -0.119787,-0.0313 -0.165019,-0.0467 -0.122001,-0.0473 -0.309419,-0.18957 -0.514245,-0.37864 -0.08268,-0.0781 -0.16559,-0.15618 -0.250726,-0.24626 -0.07757,-0.0803 -0.143203,-0.162 -0.214907,-0.24433 -0.0808,-0.0939 -0.166497,-0.18917 -0.233457,-0.27759 -0.0155,-0.0208 -0.02985,-0.0406 -0.04414,-0.0608 -0.02651,-0.0364 -0.05039,-0.0711 -0.07291,-0.10484 -0.03786,-0.0598 -0.0704,-0.11647 -0.09082,-0.16438 -0.135248,-0.31724 -0.328991,-1.51018 -0.509127,-2.94795 -0.206673,-1.69316 -0.400214,-3.72687 -0.4554,-5.05673 l -0.06908,-1.65019 0.246888,-0.005 c 0.135749,-0.002 1.614851,-0.0708 3.286302,-0.15223 0.727783,-0.0355 1.555644,-0.0692 2.46057,-0.0998 1.154633,-0.039 2.463553,-0.0722 3.825491,-0.10236 3.929177,-0.0869 8.49916,-0.13553 12.67126,-0.1324 0.05269,4e-5 0.108622,-6.9e-4 0.161182,-6.3e-4 z m -0.05052,0.87817 c -1.016548,0.002 -2.094562,0.0163 -3.140472,0.0339 l -4.762516,-6.4e-4 -0.169495,0.25841 c -0.109711,0.16742 -0.160241,1.09399 -0.166298,2.23415 -6.15e-4,0.11572 3.17e-4,0.23325 6.4e-4,0.35306 -0.0088,1.93018 0.109179,4.29475 0.327478,4.83543 0.03218,0.0797 0.06765,0.15864 0.10554,0.23665 0.113697,0.23405 0.25234,0.45963 0.415105,0.67607 0.433953,0.57714 1.036512,1.08732 1.777469,1.50371 1.62e-4,1e-4 4.79e-4,-9e-5 6.4e-4,0 0.370347,0.2081 0.775232,0.39312 1.210777,0.55134 v -6.3e-4 c 0.195971,0.0712 0.3953,0.13302 0.596753,0.18548 4.54e-4,1.1e-4 8.25e-4,5.2e-4 0.0012,6.5e-4 0.201016,0.0522 0.404135,0.0949 0.608907,0.12919 8.66e-4,1.5e-4 0.0017,4.9e-4 0.0026,6.4e-4 0.615239,0.10273 1.243302,0.12496 1.861257,0.0741 0.152046,-0.0125 0.302344,-0.0338 0.452843,-0.0549 0.05443,-0.007 0.109562,-0.0111 0.163738,-0.0204 6.22e-4,-1.1e-4 0.0012,1e-4 0.002,0 0.04248,-0.007 0.08371,-0.0179 0.126003,-0.0256 0.160146,-0.0286 0.3201,-0.0584 0.477147,-0.0965 1.78478,-0.43419 3.342314,-1.47841 4.051272,-2.9294 l 0.0097,-0.0204 0.19572,-0.39976 0.152866,-0.31277 v -6.4e-4 l 0.03454,-3.52232 0.03453,-3.52231 -0.24433,-0.0652 c -0.290133,-0.0777 -2.039758,-0.10669 -4.125468,-0.101 z m -17.957614,0.25072 c -0.07986,8.3e-4 -0.156808,0.007 -0.232817,0.0173 -4.21e-4,5e-5 -8.59e-4,-6e-5 -0.0012,0 -0.0051,6.2e-4 -0.0097,0.002 -0.0147,0.002 -0.05187,0.007 -0.103535,0.0157 -0.153506,0.0269 -0.05067,0.0111 -0.09977,0.0248 -0.148389,0.0396 -0.0076,0.002 -0.01551,0.004 -0.02302,0.006 -0.05778,0.0184 -0.114155,0.0396 -0.168856,0.0634 -0.503881,0.21778 -0.873946,0.64719 -1.061748,1.15129 -0.04106,0.11015 -0.07356,0.22376 -0.09658,0.33962 -3.48e-4,0.001 -9.34e-4,0.004 -0.0012,0.005 -0.01765,0.09 -0.02511,0.18135 -0.03134,0.27311 -0.0021,0.0296 -0.0088,0.0585 -0.0097,0.0882 -0.0014,0.0507 0.0061,0.10137 0.0083,0.15223 0.0031,0.0719 0.0028,0.14393 0.01343,0.21554 1.6e-4,0.001 4.78e-4,0.002 6.4e-4,0.004 0.07098,0.47509 0.309288,0.93573 0.750899,1.28945 8.15e-4,6.6e-4 0.0017,0.001 0.0026,0.002 0.0032,0.002 0.0071,0.005 0.01027,0.007 0.05269,0.0416 0.107236,0.0824 0.165658,0.12093 0.0618,0.0407 0.12672,0.0796 0.19508,0.11634 0.115603,0.0621 0.264745,0.1036 0.431097,0.12601 0.166351,0.0224 0.349657,0.0256 0.534072,0.0111 0.368828,-0.0295 0.741301,-0.13054 0.986273,-0.29294 0.09248,-0.0613 0.178038,-0.12768 0.256483,-0.19827 0.07717,-0.0693 0.147333,-0.14261 0.211071,-0.21939 0.0011,-0.001 0.0021,-0.002 0.0032,-0.004 0.06307,-0.0764 0.119464,-0.15635 0.169495,-0.23858 2.51e-4,-4.1e-4 3.9e-4,-8.7e-4 6.4e-4,-0.001 0.02844,-0.0468 0.04992,-0.0962 0.0742,-0.14455 0.01966,-0.0391 0.0425,-0.077 0.05948,-0.11709 0.01213,-0.0286 0.01998,-0.058 0.03071,-0.087 0.02297,-0.0618 0.04649,-0.12352 0.06332,-0.18676 1.19e-4,-4.4e-4 5.21e-4,-8.4e-4 6.4e-4,-0.001 0.0016,-0.006 0.0022,-0.0129 0.0038,-0.0192 0.255872,-1.00128 -0.249632,-2.14001 -1.38539,-2.45802 -0.22499,-0.063 -0.439997,-0.091 -0.642806,-0.0889 z m 5.589528,0.0416 c -0.309851,-0.023 -0.623073,0.0168 -0.912079,0.12601 -0.231344,0.0874 -0.446814,0.2193 -0.632572,0.39911 -0.04643,0.0449 -0.09122,0.0923 -0.133678,0.14327 -0.04245,0.051 -0.08284,0.10471 -0.120888,0.16182 -0.114278,0.17137 -0.20728,0.37067 -0.273752,0.59931 -0.01727,0.0594 -0.03164,0.11932 -0.04285,0.17973 -0.03364,0.18118 -0.04036,0.36551 -0.02302,0.54815 2e-5,2.1e-4 -2.1e-5,4.3e-4 0,6.4e-4 0.01163,0.12155 0.03364,0.24206 0.06588,0.3601 5.5e-5,2e-4 -5.5e-5,4.4e-4 0,6.3e-4 0.03227,0.11808 0.07462,0.23357 0.126003,0.34476 0.154407,0.33432 0.391986,0.63011 0.691415,0.84236 0.09976,0.0707 0.206403,0.13245 0.319164,0.18292 0.21049,0.0942 0.433427,0.14286 0.658156,0.15223 0.149821,0.006 0.299918,-0.005 0.448365,-0.0325 0.296892,-0.0547 0.585378,-0.17328 0.839804,-0.34284 0.127213,-0.0848 0.24571,-0.18245 0.353063,-0.29102 0.107483,-0.10867 0.203229,-0.22826 0.284625,-0.35754 0.04067,-0.0645 0.07764,-0.13113 0.110652,-0.2002 0.06601,-0.13812 0.116358,-0.28503 0.147109,-0.43877 0.04669,-0.23341 0.05565,-0.45224 0.03326,-0.65624 -0.0074,-0.068 -0.01842,-0.13381 -0.03261,-0.19827 -0.04263,-0.19356 -0.114228,-0.37121 -0.209791,-0.53151 -0.03181,-0.0533 -0.06619,-0.10471 -0.102978,-0.15414 -0.03687,-0.0496 -0.07626,-0.097 -0.117682,-0.14264 -0.04122,-0.0454 -0.08456,-0.0886 -0.12984,-0.12985 -0.36322,-0.3311 -0.849818,-0.52859 -1.345735,-0.56541 z m 28.266165,0.57948 c -0.08815,1.7e-4 -0.174777,0.005 -0.25904,0.0124 -0.168526,0.0151 -0.329185,0.0442 -0.481625,0.0864 -0.152439,0.0421 -0.296722,0.097 -0.432375,0.16311 -0.271453,0.1321 -0.508033,0.3089 -0.708045,0.51744 -0.04987,0.052 -0.09806,0.10545 -0.143272,0.16119 -0.271999,0.33529 -0.458344,0.73492 -0.550701,1.15576 -0.03082,0.14044 -0.05135,0.28308 -0.06076,0.42662 -0.0094,0.14333 -0.0075,0.28722 0.0051,0.43045 0.0063,0.0717 0.0149,0.14265 0.02686,0.21363 0.02391,0.1422 0.05972,0.2823 0.106815,0.41959 0.02352,0.0686 0.04989,0.13604 0.07931,0.20275 8e-5,1.8e-4 -8.1e-5,4.6e-4 0,6.4e-4 0.02936,0.0666 0.0619,0.13203 0.09722,0.19637 0.07088,0.12916 0.153351,0.25311 0.248808,0.37096 0.04766,0.0589 0.0983,0.11598 0.152226,0.17141 0.107941,0.11103 0.228469,0.21471 0.362018,0.30958 0.133411,0.0948 0.279737,0.18099 0.43941,0.25648 0.09429,0.0446 0.192011,0.0806 0.291022,0.11251 0.584507,0.20219 1.164656,0.1879 1.680888,0.01 0.0031,-8.9e-4 0.0059,-0.002 0.0089,-0.004 0.637035,-0.18805 1.192523,-0.58243 1.473655,-1.12763 0.336441,-0.65247 0.396952,-1.34507 0.253285,-1.97255 -0.01003,-0.0537 -0.01381,-0.10632 -0.02686,-0.16055 -0.18725,-0.77724 -0.761384,-1.41145 -1.494761,-1.73014 -0.02188,-0.01 -0.04493,-0.0171 -0.06716,-0.0262 -0.06976,-0.0281 -0.140734,-0.0538 -0.212989,-0.0761 -0.0344,-0.0111 -0.06852,-0.0214 -0.103621,-0.0307 -0.09006,-0.0239 -0.182099,-0.0432 -0.275032,-0.0576 -0.02979,-0.005 -0.05998,-0.007 -0.09018,-0.0111 -0.105478,-0.0127 -0.211274,-0.022 -0.319164,-0.0218 z m -7.443749,0.36267 c -0.855982,9.6e-4 -1.694091,0.14279 -2.174025,0.42405 -0.08961,0.0525 -0.171175,0.10756 -0.24497,0.16503 -0.07367,0.0573 -0.13936,0.11721 -0.197639,0.17845 -0.05848,0.0615 -0.109501,0.12414 -0.152866,0.18868 -8.8e-5,1.3e-4 8.9e-5,5e-4 0,6.4e-4 -0.04315,0.0642 -0.07892,0.12935 -0.107459,0.19572 -0.02872,0.0667 -0.05026,0.13422 -0.0646,0.20212 -0.01433,0.068 -0.02143,0.13588 -0.02175,0.20402 -3.71e-4,0.068 0.0061,0.13552 0.01919,0.20277 0.01319,0.0672 0.03312,0.13332 0.05948,0.19891 7.7e-5,2e-4 -7.8e-5,4.5e-4 0,6.4e-4 0.02634,0.0655 0.05944,0.12968 0.0985,0.19252 1.02e-4,1.7e-4 -1.04e-4,4.8e-4 0,6.4e-4 0.0391,0.0629 0.08477,0.12423 0.136235,0.18357 1.16e-4,1.3e-4 -1.15e-4,5.1e-4 0,6.4e-4 0.05151,0.0594 0.109191,0.11647 0.172695,0.17141 0.06372,0.0551 0.133089,0.10768 0.208512,0.15735 0.225849,0.14875 0.503601,0.27116 0.827651,0.35434 0.108016,0.0277 0.220819,0.0511 0.338992,0.0697 0.624184,0.098 1.218807,0.10842 1.757002,0.0525 0.17862,-0.0184 0.351002,-0.0444 0.516162,-0.0767 6.86e-4,-1.4e-4 0.0012,-5.1e-4 0.002,-6.3e-4 0.165051,-0.0324 0.322401,-0.0712 0.47203,-0.11573 6.74e-4,-1.9e-4 0.0012,-4.3e-4 0.0019,-6.3e-4 0.149709,-0.0447 0.291138,-0.0949 0.42342,-0.15031 4.62e-4,-1.9e-4 8.18e-4,-4.4e-4 0.0012,-6.4e-4 0.132179,-0.0555 0.254982,-0.11573 0.367773,-0.18037 4.34e-4,-2.5e-4 8.47e-4,-3.9e-4 0.0012,-6.5e-4 0.0228,-0.0131 0.04009,-0.0281 0.06205,-0.0416 0.196103,-0.11969 0.363429,-0.25076 0.486101,-0.39207 0.375429,-0.4325 0.379478,-0.94436 -0.153506,-1.40522 -0.03445,-0.03 -0.07358,-0.0595 -0.11257,-0.0889 -0.01441,-0.0111 -0.02654,-0.0219 -0.04158,-0.0327 -0.0571,-0.041 -0.119167,-0.0817 -0.185487,-0.12155 -0.06795,-0.0408 -0.140208,-0.0814 -0.218105,-0.12092 -0.204646,-0.1036 -0.455321,-0.18752 -0.73427,-0.25201 -0.466251,-0.10917 -1.008383,-0.1637 -1.543372,-0.1631 z m -0.257122,3.91823 c -0.334458,0.0111 -0.663289,0.0495 -0.970285,0.11573 -0.383744,0.0829 -0.733346,0.21039 -1.018894,0.38569 -0.114216,0.0701 -0.217943,0.14772 -0.30957,0.23345 -0.04581,0.0428 -0.08913,0.0875 -0.128561,0.13432 -9.8e-5,1.1e-4 9.8e-5,5.2e-4 0,6.4e-4 -0.04127,0.049 -0.07791,0.0993 -0.109377,0.15031 -0.411245,0.65682 -0.03221,1.42867 0.853236,1.84078 0.02266,0.0111 0.04384,0.0224 0.06716,0.0327 0.139878,0.0611 0.291258,0.11312 0.453482,0.1535 0.0045,0.001 0.009,0.001 0.01343,0.002 0.127504,0.0313 0.257195,0.0581 0.388242,0.0793 6.63e-4,1.1e-4 0.0012,5.3e-4 0.002,6.3e-4 1.840952,0.30277 3.947954,-0.36428 4.220769,-1.33614 5.8e-5,-1.9e-4 -5.7e-5,-4.3e-4 0,-6.3e-4 0.0196,-0.0693 0.03006,-0.14022 0.03006,-0.21235 0,-0.10335 -0.01854,-0.20218 -0.05309,-0.29678 -0.01714,-0.047 -0.03837,-0.0927 -0.06332,-0.13751 -8.6e-5,-1.6e-4 8.5e-5,-5e-4 0,-6.4e-4 -0.02508,-0.0449 -0.0539,-0.0885 -0.08634,-0.13113 -0.129795,-0.17037 -0.316809,-0.32159 -0.544946,-0.4522 -0.228138,-0.13059 -0.497445,-0.24044 -0.792473,-0.32747 -0.295029,-0.087 -0.615511,-0.15155 -0.94598,-0.19124 -0.330469,-0.0397 -0.671004,-0.055 -1.005462,-0.0435 z m -20.811543,0.10558 c -0.298896,0.0139 -0.588156,0.098 -0.851957,0.22962 -0.69313,0.34583 -1.18696,1.06103 -1.061748,1.99238 0.0541,0.66661 0.421098,1.30678 1.15641,1.631 0.0026,0.001 0.0051,0.002 0.0077,0.004 0.06298,0.0275 0.128707,0.0521 0.197,0.0749 0.01077,0.004 0.02052,0.009 0.03134,0.0124 0.0017,5.4e-4 0.0033,7.4e-4 0.0051,0.001 0.0014,4.2e-4 0.0025,8.8e-4 0.0038,0.001 v -6.5e-4 c 8.63e-4,2.7e-4 0.0017,3.9e-4 0.0026,6.5e-4 0.561881,0.17557 0.69207,0.17795 1.193507,0.0111 0.06918,-0.0202 0.135431,-0.0459 0.201477,-0.0729 0.02371,-0.01 0.04862,-0.0179 0.07164,-0.0281 0.03771,-0.0171 0.07416,-0.0358 0.110652,-0.055 0.06825,-0.0348 0.133502,-0.072 0.19508,-0.11189 0.232242,-0.15028 0.41183,-0.33677 0.551981,-0.54239 0.02579,-0.0364 0.05212,-0.0722 0.07548,-0.11003 0.01427,-0.0245 0.02719,-0.0493 0.0403,-0.0741 0.287416,-0.51191 0.348218,-1.13791 0.05821,-1.73269 -0.209602,-0.49806 -0.611467,-0.91777 -1.190309,-1.10652 -0.260101,-0.0952 -0.531401,-0.13584 -0.79823,-0.1234 z m -5.290831,0.0147 c -2.25086,0 -2.788544,3.25504 -0.649202,3.93038 v -6.3e-4 c 0.574638,0.18193 0.673136,0.18218 1.277936,0.002 2.225806,-0.66099 1.702745,-3.93231 -0.628734,-3.93231 z"
         sodipodi:nodetypes="cscccscscscccccssccsccsccsscccsscccccccccccscccccscsccccccscsscscccscscscsccccccccccccccsccccccscccccscsccssscscscscsscsccscccssccssscsccssccsscssssscscccccccsssssssscssssscccscccccccccccscsscssccscscscsssscscscscsccscccsccccsccssccccscscscsssccssssscccccccscccccccsccccccccccccc" /><path
         style="display:inline;fill:#8e8684;fill-opacity:1;stroke-width:0.104793"
         d="m 56.268179,237.57815 c -34.916401,-0.88213 -31.953125,-0.76441 -32.478885,-1.29018 -0.55316,-0.55316 -0.528685,0.0438 -0.528685,-12.89659 0,-12.89764 -0.0228,-12.31018 0.497901,-12.83088 0.541598,-0.5416 -1.336166,-0.55859 32.460999,0.29359 35.489279,0.89484 31.930552,0.70865 32.429787,1.69667 l 0.261984,0.51848 0.02763,11.84163 0.02764,11.84165 -0.221502,0.54599 c -0.248663,0.613 -0.645809,0.91641 -1.313573,1.00361 -0.223555,0.0292 -14.24703,-0.29661 -31.163283,-0.72397 z"
         id="path10532" /><path
         style="display:inline;fill:#4a4546;fill-opacity:1;stroke-width:0.104793"
         d="m 69.629318,237.84633 c -8.472535,-0.21919 -21.228494,-0.54227 -28.346576,-0.71796 -18.868578,-0.46573 -17.151537,-0.35397 -17.68248,-1.1511 l -0.237168,-0.35607 v -12.15089 c 0,-13.40965 -0.04297,-12.55648 0.658945,-13.08238 0.386892,-0.28988 0.166775,-0.28718 7.776912,-0.0953 2.247815,0.0567 5.996794,0.14951 8.331064,0.20628 2.33427,0.0568 5.187266,0.12819 6.339993,0.1587 1.152726,0.0306 3.039004,0.0792 4.19173,0.10818 1.152726,0.029 2.96827,0.0766 4.034541,0.10595 1.066271,0.0293 3.87211,0.0988 6.235199,0.15434 2.363088,0.0556 5.145349,0.12643 6.182802,0.15755 1.037453,0.0311 5.75315,0.14859 10.479326,0.26104 10.224343,0.24329 10.06642,0.23596 10.503502,0.48697 0.806541,0.46319 0.761773,-0.30545 0.761773,13.08073 v 11.90428 l -0.256963,0.50709 c -0.362752,0.71585 -0.745038,0.85228 -2.338787,0.83467 -0.676062,-0.007 -8.161278,-0.19291 -16.633813,-0.41211 z m 18.181631,-0.51745 c 0.180905,-0.18091 0.350827,-3.00291 0.183388,-3.0457 -0.08584,-0.0219 -25.496569,-0.69032 -25.521639,-0.6713 -0.01687,0.0128 -0.05946,0.20596 -0.09464,0.42923 -0.158108,1.00364 -0.679697,1.29513 -2.319042,1.29601 -2.03175,0.001 -33.032452,-0.82386 -33.494893,-0.89132 -0.838667,-0.12228 -1.314755,-0.63982 -1.314755,-1.42908 0,-0.29225 -0.01253,-0.29874 -0.576364,-0.29874 h -0.576363 v 1.34271 1.3427 l 0.320108,0.30669 0.320109,0.30668 29.257789,0.7475 c 33.797517,0.86347 33.522047,0.85887 33.816298,0.56462 z m 0.209586,-4.55851 v -0.78595 l -0.75975,-9e-5 c -0.417864,-5e-5 -14.175909,-0.32782 -30.573434,-0.72837 -16.397526,-0.40056 -30.426723,-0.7424 -31.175996,-0.75966 l -1.362311,-0.0314 -0.03098,0.70736 -0.03099,0.70735 0.76454,0.006 c 0.420496,0.004 14.44006,0.37502 31.154584,0.82512 16.714526,0.45012 30.755513,0.82436 31.202193,0.83163 l 0.812149,0.0132 z m 0,-2.4519 v -0.9324 l -1.38851,-0.0641 c -0.763682,-0.0353 -6.127787,-0.18148 -11.920234,-0.32493 -5.792447,-0.14345 -10.920775,-0.27269 -11.396282,-0.28721 l -0.864559,-0.0264 1.5e-5,0.96934 1.5e-5,0.96934 0.759751,0.007 c 0.417863,0.004 5.451869,0.13943 11.18668,0.30023 5.734812,0.1608 11.146074,0.29875 12.025027,0.30652 l 1.598097,0.0141 z m 0,-2.63057 c 0,-0.71885 -0.02537,-0.83834 -0.177981,-0.83834 -1.384036,0 -62.802273,-1.58298 -63.200297,-1.6289 l -0.554718,-0.064 0.03076,0.82026 0.03076,0.82025 1.100329,0.0338 c 0.605181,0.0186 14.799428,0.40171 31.54277,0.85135 16.743344,0.44962 30.619281,0.82344 30.835418,0.8307 l 0.392974,0.0132 z m 0,-2.72462 v -1.04794 l -0.969338,-6.3e-4 c -0.533135,-4.2e-4 -6.250917,-0.14143 -12.706182,-0.31346 -6.455265,-0.17204 -11.772213,-0.31322 -11.815441,-0.31371 -0.04323,-5.5e-4 -0.07859,0.47061 -0.07859,1.04698 v 1.04792 l 1.440907,0.009 c 0.7925,0.005 6.133026,0.1396 11.867837,0.30001 5.734811,0.16041 10.839552,0.29813 11.343871,0.30604 l 0.91694,0.0144 z m 0,-2.55689 v -0.6706 l -1.283717,-0.0637 c -1.168351,-0.0579 -61.331833,-1.6387 -62.247197,-1.63549 l -0.392975,0.001 v 0.68117 c 0,0.37463 0.01176,0.68448 0.0262,0.68854 0.09202,0.026 61.012805,1.64536 62.299592,1.65604 l 1.598098,0.0132 z m 0,-2.68278 c 0,-1.02764 -0.0199,-1.15281 -0.183388,-1.15358 -0.100862,-4.2e-4 -5.441389,-0.14144 -11.867837,-0.31329 -6.426446,-0.17184 -12.097071,-0.31293 -12.601389,-0.31352 l -0.916941,-0.001 v 1.10033 c 0,0.60518 0.01176,1.10419 0.0262,1.1089 0.01441,0.005 5.590721,0.16348 12.391803,0.35279 6.801083,0.18931 12.542443,0.3505 12.758579,0.35819 l 0.392975,0.014 z m 0,-2.65535 v -0.66428 l -3.181544,-0.0697 c -1.749855,-0.0384 -15.625793,-0.37601 -30.835421,-0.75042 -15.209628,-0.37441 -28.160805,-0.68074 -28.780396,-0.68074 l -1.126528,-1e-5 v 0.57635 0.57637 l 0.812148,0.007 c 0.446682,0.004 14.464091,0.37503 31.149797,0.82487 16.685707,0.44983 30.703116,0.82396 31.149796,0.83137 l 0.812148,0.0135 z m 0,-2.74627 c 0,-1.97622 0.110999,-1.88551 -2.418199,-1.97611 -13.194884,-0.47263 -60.819862,-1.52111 -61.120406,-1.34558 l -0.332886,0.19441 v 1.40884 1.40883 l 0.550164,0.0317 0.550165,0.0317 v -0.59566 c 0,-0.86196 0.415155,-1.46064 1.140715,-1.64501 0.410128,-0.10422 34.717567,0.83667 35.01296,0.96024 0.631618,0.26422 0.920999,0.71254 1.010088,1.5649 0.03723,0.35625 0.09636,0.65132 0.131368,0.65571 0.03502,0.005 5.675344,0.16313 12.534064,0.35275 6.858719,0.18963 12.576501,0.35109 12.706183,0.3588 0.233605,0.0139 0.235784,8.3e-4 0.235784,-1.40546 z"
         id="path5971"
         sodipodi:nodetypes="ssscsssscssscssscsssssssssssscccccssccsscccccssccccsssccccssccssscccssscscccsssccsscccccccscsccscsscscsscscccssccccssccssscccccsssscssss" /><path
         style="display:inline;fill:#ffa20c;fill-opacity:1;stroke-width:0.104793"
         d="m 50.459639,180.05188 c -0.19546,-0.19546 -0.241797,-2.74401 -0.05619,-3.0908 0.104538,-0.19534 0.264326,-0.2027 4.397631,-0.2027 4.133305,0 4.293091,0.007 4.39763,0.2027 0.1856,0.34679 0.139264,2.89534 -0.05619,3.0908 -0.249162,0.24916 -8.433709,0.24916 -8.68287,0 z"
         id="path10548" /><path
         style="display:inline;fill:#fa3441;fill-opacity:1;stroke-width:0.104793"
         d="m 71.672788,180.56643 c -2.198817,-0.94112 -2.174227,-4.09652 0.039,-5.00398 1.65181,-0.67729 3.579509,0.68068 3.557167,2.50584 -0.02299,1.87717 -1.938352,3.20772 -3.596162,2.49814 z"
         id="path10556" /><path
         style="display:inline;fill:#000000;stroke-width:0.104793"
         d="m 75.707329,263.35134 c -7.482207,-0.17233 -11.719114,-0.32017 -20.539479,-0.7167 -5.705993,-0.25653 -11.930713,-0.56082 -13.832711,-0.67621 -1.901997,-0.11536 -5.627398,-0.32873 -8.278668,-0.47407 -5.762477,-0.3159 -12.175903,-0.88143 -13.590084,-1.19835 -2.481749,-0.55618 -3.328127,-1.35694 -3.330702,-3.1512 -0.0024,-1.6202 0.107533,-1.76051 2.904689,-3.70991 l 1.912476,-1.33285 -7.33e-4,-1.06779 c -4.2e-4,-0.58728 -0.235025,-17.48933 -0.52143,-37.56009 l -0.520738,-36.4923 0.256606,-1.25993 c 0.722313,-3.54658 2.497848,-5.60647 6.189197,-7.18041 3.779327,-1.61145 13.120172,-2.0687 35.780849,-1.75157 13.067941,0.18289 18.574911,0.45301 26.250712,1.28765 3.831221,0.4166 7.063306,2.78664 8.136169,5.96615 l 0.335926,0.99553 0.03683,3.039 c 0.04744,3.91354 0.04151,3.86844 0.534509,4.06822 0.800746,0.32448 1.355061,1.27168 1.52472,2.60537 l 0.06243,0.49078 -0.99258,0.38459 -0.992571,0.38458 v 30.72651 30.7265 l 1.254428,0.11795 c 3.471136,0.32656 4.239316,2.59532 2.113536,6.24221 -3.392076,5.81931 -6.154406,8.45396 -9.686023,9.23831 -1.445224,0.32098 -8.192175,0.45494 -15.007369,0.29797 z m 12.837174,-0.66013 c 4.431759,-0.35384 6.560058,-1.79868 9.72123,-6.59944 2.393217,-3.63449 2.546167,-3.93039 2.616797,-5.06243 0.0718,-1.15076 -0.0691,-1.46298 -0.3618,-0.80178 -0.28527,0.64439 -2.039804,3.83156 -2.735201,4.96857 -1.499445,2.45167 -4.514986,5.22359 -6.39154,5.87519 -2.076814,0.72114 -6.389811,0.80015 -22.131446,0.40538 -11.621793,-0.29145 -28.102529,-0.99493 -35.577312,-1.51862 -12.286487,-0.86079 -15.166802,-1.20088 -16.471202,-1.94481 -0.540835,-0.30845 -0.539874,-0.30847 -0.478033,0.015 0.117781,0.61616 1.494878,1.43172 2.837812,1.68065 1.604181,0.29737 10.405818,0.99947 17.674394,1.4099 4.092176,0.23107 8.996501,0.51457 10.898499,0.63 5.200396,0.3156 23.24933,0.97493 29.708889,1.08527 3.107911,0.0531 9.26514,-0.0292 10.688913,-0.1429 z m -2.305451,-1.68205 c 4.202943,-0.23764 4.445382,-0.27569 5.666297,-0.88905 1.54898,-0.77816 3.777587,-2.94653 4.910591,-4.77783 0.95082,-1.53682 3.061577,-5.24821 3.012628,-5.29716 -0.110466,-0.11041 -1.563547,-0.34721 -2.140853,-0.34882 l -0.654958,-0.001 v 0.71031 c 0,2.93264 -4.695115,7.83036 -8.265212,8.62186 -3.309194,0.73367 -23.41244,0.81739 -36.429113,0.15171 -1.613817,-0.0825 -4.490392,-0.20149 -6.39239,-0.26436 -1.901997,-0.0629 -4.731415,-0.20328 -6.287595,-0.31203 -1.55618,-0.1088 -3.513194,-0.22682 -4.34892,-0.26241 -1.789615,-0.0761 -4.518207,-0.35725 -7.650334,-0.78805 -4.523769,-0.62223 -5.569206,-1.08256 -6.182427,-2.7223 l -0.237301,-0.63454 -0.274299,0.17737 c -1.132184,0.73207 -3.251254,2.66923 -3.257575,2.97792 -0.02872,1.40266 34.771112,3.39888 65.178075,3.73879 0.893364,0.01 2.402387,-0.0259 3.353386,-0.0796 z m -5.501647,-2.03935 c 5.328224,-0.25306 5.718883,-0.27742 6.817252,-0.42501 1.120512,-0.15058 2.637835,-0.64092 3.344036,-1.08065 l 0.422831,-0.26329 -0.0071,-40.03785 c -0.0067,-37.88137 -0.01703,-40.08301 -0.192274,-40.8762 -0.356087,-1.61168 -1.578144,-3.21647 -2.989763,-3.92612 -0.968215,-0.48675 -2.916689,-1.1203 -3.040597,-0.98865 -0.07843,0.0833 -1.146289,4.40468 -2.418636,9.78765 -1.325923,5.60964 -2.059995,7.36868 -3.447733,8.26171 -2.524871,1.62478 -8.869094,1.77534 -38.047519,0.90287 -6.501083,-0.19438 -7.35402,-0.33143 -9.043909,-1.45311 -1.119743,-0.74325 -0.984391,-0.34125 -3.163055,-9.39431 -1.074145,-4.46343 -1.969008,-8.16597 -1.988584,-8.22786 -0.04483,-0.14173 -1.436175,9.4e-4 -2.250113,0.23081 -3.027447,0.85481 -4.185745,2.85828 -4.202911,7.26965 -0.01257,3.23092 1.064948,72.0106 1.150846,73.46007 0.193143,3.25924 0.784362,3.88627 4.145514,4.39655 5.738267,0.87118 13.541753,1.43545 26.145918,1.89062 1.584998,0.0572 4.084317,0.15631 5.554042,0.22016 7.877873,0.34228 18.820446,0.46152 23.211708,0.25296 z M 55.744213,237.4806 c -33.903354,-0.86564 -31.418271,-0.76776 -31.907237,-1.25672 -0.504416,-0.50442 -0.486807,0.01 -0.452509,-13.23301 l 0.03103,-11.98017 0.441313,-0.41164 0.441313,-0.41163 1.340172,0.004 c 0.737095,0.001 14.993585,0.34893 31.681088,0.7714 34.198958,0.8658 30.826962,0.68595 31.28448,1.6686 l 0.252981,0.54334 0.001,11.80146 c 0.0012,13.27001 0.04255,12.56002 -0.760003,13.0341 -0.495043,0.29244 0.377508,0.30671 -32.35364,-0.529 z m 31.833907,0.0503 c 0.449741,-0.15678 0.54721,-0.52222 0.54721,-2.05152 v -1.29428 l -1.231321,-8.3e-4 c -0.677226,-4.2e-4 -1.820783,-0.0257 -2.541236,-0.0561 -0.720455,-0.0303 -4.98816,-0.14701 -9.483791,-0.25917 -4.495631,-0.11214 -9.14549,-0.23456 -10.333022,-0.27196 l -2.159147,-0.0681 -0.07017,0.52894 c -0.08137,0.6134 -0.550178,1.11968 -1.137144,1.22804 -0.188551,0.0348 -6.661852,-0.10409 -14.385115,-0.30871 -7.723264,-0.2046 -15.197643,-0.39698 -16.609732,-0.42751 -4.50617,-0.0974 -4.689218,-0.15147 -4.87662,-1.43881 l -0.07246,-0.49777 h -0.564456 -0.564465 v 1.45779 1.4578 L 24.419072,235.8 c 0.218701,0.18403 0.44625,0.27135 0.707355,0.27142 0.211714,8e-5 3.07288,0.0702 6.358149,0.15594 3.285269,0.0857 10.73607,0.27286 16.557336,0.41594 5.821265,0.14306 11.50368,0.28625 12.627587,0.31819 1.123908,0.0319 3.811855,0.10273 5.973216,0.15739 7.145795,0.18058 9.227245,0.23434 14.094694,0.36411 6.573388,0.17524 6.477135,0.17456 6.840715,0.0478 z m -26.223244,-3.24564 c 0.291856,-0.3225 0.300994,-0.61178 0.02105,-0.66632 -0.129173,-0.0251 -7.379139,-0.2166 -16.111038,-0.42541 -8.731898,-0.2088 -16.642479,-0.40852 -17.579069,-0.44382 -1.891238,-0.0713 -1.917632,-0.0608 -1.523444,0.60653 0.251239,0.42532 -0.720523,0.37811 15.74913,0.76512 18.886684,0.4438 19.187771,0.44633 19.443373,0.1639 z m 26.770454,-1.51484 v -0.78595 l -0.812148,-0.007 c -0.446682,-0.005 -0.882883,-0.0213 -0.969338,-0.0375 -0.08645,-0.0162 -1.71337,-0.06 -3.615367,-0.0973 -1.901998,-0.0373 -4.236268,-0.0931 -5.187267,-0.12407 -0.950999,-0.0309 -6.586256,-0.17157 -12.522794,-0.31254 -5.936538,-0.14096 -12.679984,-0.30331 -14.985437,-0.36078 -2.30545,-0.0574 -5.205604,-0.12935 -6.444785,-0.15975 -1.23918,-0.0305 -3.125459,-0.078 -4.19173,-0.10583 -1.066272,-0.0278 -2.999708,-0.0765 -4.296524,-0.10817 -1.296817,-0.0317 -4.102656,-0.10236 -6.235198,-0.15706 -2.132544,-0.0547 -4.077768,-0.0998 -4.322722,-0.10025 l -0.445372,-7.8e-4 v 0.72462 0.72461 l 0.759751,0.0593 c 0.417863,0.0326 3.023286,0.11239 5.789828,0.17741 2.766542,0.065 16.041228,0.41329 29.499303,0.77406 13.458073,0.36079 25.259104,0.66223 26.224513,0.66989 l 1.755287,0.0139 z m 0,-2.46263 v -1.04794 l -0.759752,-0.001 c -0.417862,-5.2e-4 -5.994174,-0.14146 -12.391802,-0.31311 -6.397629,-0.17163 -11.857756,-0.31264 -12.133614,-0.31334 l -0.501563,-10e-4 0.02999,1.02174 0.02999,1.02173 1.414709,0.034 c 0.77809,0.0187 6.22472,0.16568 12.103622,0.32666 5.878902,0.16098 11.0308,0.29896 11.448663,0.30661 l 0.759752,0.0139 z m -26.566604,-0.70728 0.0015,-0.96927 -0.819079,-8e-5 c -0.927863,-8e-5 -6.407019,-0.17362 -8.271736,-0.262 l -1.231322,-0.0583 v 0.99848 0.99849 l 0.969338,0.0111 c 0.533136,0.006 2.596254,0.0704 4.584706,0.14362 1.988452,0.0731 3.87405,0.12736 4.190218,0.12043 l 0.574851,-0.0126 0.0015,-0.96925 z m -12.835662,-0.28827 v -0.99553 l -0.602561,-0.002 c -0.331409,-0.001 -2.724625,-0.071 -5.318259,-0.15513 -2.593633,-0.084 -4.847148,-0.15371 -5.007811,-0.15484 l -0.292113,-0.002 0.03013,0.96934 0.03013,0.96933 5.29206,0.16736 c 2.910632,0.0921 5.421741,0.17458 5.580241,0.18339 l 0.288181,0.0161 z m -13.727917,-0.36677 c 0,-0.68362 -0.03604,-0.94367 -0.130992,-0.94507 -0.07205,-0.001 -1.85222,-0.0709 -3.955945,-0.15526 -2.103725,-0.0843 -4.072529,-0.15418 -4.375119,-0.15525 l -0.550165,-0.002 v 0.99553 c 0,0.54755 0.01176,1.00262 0.0262,1.01129 0.0515,0.0309 4.988852,0.15406 6.968751,0.17376 l 2.017271,0.02 z m 53.130183,-1.24918 v -0.83 l -0.654958,-0.0559 c -0.360227,-0.0308 -4.82835,-0.15428 -9.929162,-0.27445 -5.100812,-0.12019 -11.938572,-0.28626 -15.195022,-0.36909 -3.256451,-0.0828 -7.877833,-0.19852 -10.26974,-0.2571 -2.391905,-0.0585 -5.221323,-0.13216 -6.287596,-0.1635 -1.897064,-0.0557 -11.985132,-0.3044 -16.871714,-0.41586 -1.354453,-0.0309 -2.993158,-0.0823 -3.641566,-0.11437 l -1.178924,-0.0582 v 0.84592 c 0,0.73536 0.02396,0.84605 0.183388,0.84699 0.100862,6.2e-4 1.739569,0.0459 3.641566,0.10075 5.39756,0.15557 7.323834,0.20773 13.727917,0.37165 3.285269,0.084 7.741602,0.20035 9.902963,0.25834 2.161361,0.0581 5.768869,0.15204 8.016685,0.20897 2.247815,0.0569 4.865027,0.12835 5.816025,0.15869 0.950999,0.0303 4.605664,0.12846 8.121479,0.21804 3.515813,0.0896 7.642047,0.19968 9.169409,0.24467 1.527363,0.0449 3.378274,0.0891 4.113136,0.0982 l 1.336114,0.0163 z m 0,-2.72811 v -1.03072 l -1.598097,-0.0656 c -1.591862,-0.0653 -20.934633,-0.56734 -23.028319,-0.59763 l -1.100329,-0.016 -0.02987,1.06211 -0.02987,1.0621 0.344245,0.007 c 0.189333,0.004 5.955922,0.15986 12.814641,0.34625 6.85872,0.18637 12.505766,0.32174 12.548994,0.30081 0.04323,-0.0209 0.07859,-0.50188 0.07859,-1.06877 z m -26.571392,-0.61764 c 0.0035,-0.53853 -0.02289,-0.99717 -0.05856,-1.01921 -0.06039,-0.0374 -8.826947,-0.35778 -9.811902,-0.35867 l -0.44537,-4.1e-4 v 1.04794 c 0,0.57636 0.01176,1.05519 0.0262,1.06406 0.03197,0.0197 9.920169,0.26858 10.132447,0.25504 0.11939,-0.007 0.152204,-0.21404 0.15719,-0.98875 z m -12.830874,-0.38275 c 0,-0.54755 -0.01176,-0.9978 -0.0262,-1.00057 -0.135591,-0.0261 -9.297327,-0.30315 -10.11255,-0.30582 l -1.07413,-0.004 v 1.04793 1.04793 l 0.445371,0.0144 c 1.713878,0.0555 6.790182,0.15901 8.593048,0.17541 l 2.174459,0.0198 z m -13.727917,-0.31243 c 0,-1.21042 0.546839,-1.05904 -4.34892,-1.20402 -2.132544,-0.0631 -4.05419,-0.1374 -4.270326,-0.16499 l -0.392975,-0.0501 v 1.10157 1.10156 l 0.759752,0.0137 c 0.417863,0.007 1.844361,0.0461 3.169995,0.0855 1.325636,0.0395 3.011498,0.0805 3.74636,0.0911 l 1.336114,0.0193 z m 53.108574,-1.23332 -0.03079,-0.75975 -4.558507,-0.12701 c -2.507179,-0.0698 -10.971854,-0.29283 -18.81039,-0.49551 -7.838536,-0.20266 -15.07713,-0.39391 -16.085766,-0.42499 -1.008634,-0.0311 -3.673003,-0.10199 -5.920818,-0.15765 -2.247816,-0.0556 -4.865027,-0.12554 -5.816026,-0.15537 -0.950999,-0.0298 -3.756838,-0.101 -6.235199,-0.15828 -2.478361,-0.0572 -4.965892,-0.12818 -5.527845,-0.15769 l -1.021735,-0.0536 v 0.78647 0.78648 l 1.126528,0.007 c 0.619591,0.004 14.77847,0.37504 31.464177,0.82471 16.685707,0.44969 30.587287,0.82374 30.892403,0.83124 l 0.554754,0.0136 -0.03078,-0.75974 z m 0.02161,-2.70171 c 0,-0.8342 -0.03646,-1.16686 -0.130993,-1.19495 -0.07205,-0.0214 -5.176786,-0.16253 -11.343869,-0.31359 -6.167085,-0.15105 -11.908445,-0.3041 -12.75858,-0.34009 l -1.5457,-0.0655 v 1.22067 1.22066 l 0.864544,0.007 c 0.475499,0.004 5.580241,0.13932 11.34387,0.30001 5.763629,0.16068 11.174891,0.29862 12.025026,0.30652 l 1.545702,0.0144 z m -26.608756,0.37926 c 0.02401,-0.0238 0.02009,-0.53071 -0.0088,-1.12653 l -0.05241,-1.08333 -3.929747,-0.12142 c -2.161361,-0.0668 -4.460263,-0.14056 -5.108671,-0.16393 l -1.178925,-0.0425 v 1.18567 1.18567 l 0.445371,0.0139 c 4.397526,0.13654 9.765118,0.21982 9.833102,0.15256 z m -12.793512,-1.42391 v -1.15273 h -0.865866 c -0.908393,0 -6.300393,-0.15929 -8.853708,-0.26157 l -1.493304,-0.0598 v 1.20863 1.20863 l 1.07413,0.0147 c 0.590772,0.009 2.465261,0.0463 4.165532,0.0848 1.700271,0.0385 3.73981,0.0791 4.532308,0.0901 l 1.440908,0.0199 z m -13.727917,-0.35296 v -1.1913 l -2.384047,-0.0672 c -1.311226,-0.037 -3.338975,-0.0965 -4.50611,-0.13249 l -2.122064,-0.0652 v 1.21899 1.219 l 1.283718,0.0137 c 0.706045,0.007 2.368328,0.046 3.693962,0.0855 1.325635,0.0395 2.775712,0.0805 3.222393,0.0911 l 0.812148,0.0193 z m 53.130183,-1.27134 v -0.68115 l -1.126528,-0.007 c -0.61959,-0.005 -1.197263,-0.0215 -1.283717,-0.038 -0.08646,-0.0165 -1.831263,-0.0613 -3.87735,-0.0994 -2.046089,-0.0381 -4.191731,-0.091 -4.768094,-0.11734 -0.576363,-0.0264 -2.274013,-0.0735 -3.772558,-0.10459 -1.498543,-0.0312 -4.540167,-0.10124 -6.759165,-0.15581 -2.218997,-0.0546 -5.142729,-0.12479 -6.497182,-0.15608 -1.354453,-0.0313 -3.240732,-0.0795 -4.191731,-0.10719 -0.950998,-0.0277 -2.860856,-0.0749 -4.244127,-0.10483 -1.383271,-0.03 -3.293128,-0.077 -4.244127,-0.10446 -0.950999,-0.0275 -2.884434,-0.0745 -4.296523,-0.10459 -1.412089,-0.0301 -3.298367,-0.0772 -4.191731,-0.10496 -0.893362,-0.0277 -2.850376,-0.0771 -4.348919,-0.10966 -1.498545,-0.0325 -4.327963,-0.10335 -6.287596,-0.15729 -1.959634,-0.054 -3.692653,-0.0984 -3.851152,-0.0988 -0.281875,-7.4e-4 -0.288182,0.0127 -0.288182,0.61699 v 0.61776 l 0.445372,0.0467 c 0.244954,0.0256 0.940519,0.0555 1.5457,0.0661 1.174431,0.0208 11.268454,0.28151 14.671056,0.37897 1.123908,0.0322 4.754994,0.12685 8.069082,0.21036 3.314086,0.0835 6.82728,0.17698 7.807097,0.20772 0.979818,0.0307 4.68164,0.1305 8.226272,0.22169 3.544632,0.0912 9.439252,0.24959 13.099157,0.35197 3.659904,0.10236 7.44425,0.19271 8.409659,0.20071 l 1.755287,0.0145 z m -0.018,-2.71765 c -0.03372,-1.38909 -0.04023,-1.42334 -0.324943,-1.70775 l -0.290529,-0.29023 -5.106319,-0.12581 c -2.808475,-0.0692 -8.94961,-0.2227 -13.646969,-0.34115 -4.697358,-0.11845 -12.289629,-0.30735 -16.871715,-0.41981 -4.582085,-0.1125 -9.01484,-0.22809 -9.850566,-0.25698 -8.325341,-0.28781 -17.196123,-0.40985 -17.54929,-0.24143 l -0.370358,0.17661 v 1.4688 1.46879 h 0.576363 0.576364 l 6.29e-4,-0.39297 c 9.43e-4,-0.66478 0.192042,-1.14231 0.600493,-1.50094 l 0.3864,-0.33927 3.147827,0.0699 c 3.400744,0.0756 17.538469,0.44117 20.700697,0.5353 1.066272,0.0317 3.824955,0.10458 6.130405,0.16184 6.09315,0.15135 6.130406,0.16303 6.130406,1.92139 v 0.56684 l 3.169997,0.0776 c 1.743498,0.0427 6.989711,0.18092 11.65825,0.30717 4.66854,0.12625 9.046047,0.24079 9.72778,0.25453 l 1.239536,0.025 -0.03441,-1.41752 z m -26.599495,0.0479 c 0,-0.97288 0.142291,-0.93638 -4.101073,-1.05186 -1.980677,-0.0538 -4.178905,-0.0991 -4.884948,-0.10063 l -1.283718,-0.002 v 0.73355 0.73355 l 0.759751,0.01 c 0.417864,0.006 2.363088,0.0692 4.322722,0.14121 1.959634,0.072 3.928437,0.1381 4.375119,0.14689 l 0.812147,0.016 z m -12.806569,-0.50019 -0.03061,-0.81215 -3.772558,-0.0707 c -2.074906,-0.0389 -4.586015,-0.0869 -5.580241,-0.10669 l -1.807684,-0.0362 v 0.76167 0.76165 l 1.178925,0.01 c 0.648408,0.005 2.94731,0.069 5.108671,0.14123 2.161361,0.0723 4.155726,0.13866 4.431922,0.14743 l 0.502177,0.016 -0.03061,-0.81215 z m -13.706123,-0.32859 v -0.82631 l -3.169996,-0.0781 c -6.226297,-0.15344 -5.782569,-0.21994 -5.787243,0.86736 l -0.0026,0.6014 4.296523,0.11288 c 2.363088,0.062 4.379048,0.12105 4.479912,0.13099 0.160685,0.016 0.183389,-0.0842 0.183389,-0.80815 z m 58.483222,41.83677 c 0.206442,-0.22168 0.595184,-0.70959 0.863864,-1.08422 0.268678,-0.37465 0.601795,-0.82264 0.740259,-0.99555 0.138463,-0.17291 0.457076,-0.71521 0.708035,-1.20511 l 0.45628,-0.89075 0.06555,-4.50611 c 0.186018,-12.78821 0.09897,-60.42461 -0.110207,-60.31266 -0.35462,0.18979 -2.305251,0.36832 -2.449709,0.22421 -0.08232,-0.0821 -0.137069,-0.64277 -0.159233,-1.63028 -0.04562,-2.03325 -0.07416,-1.98577 1.506036,-2.50566 l 1.231876,-0.40529 -0.07432,-3.30854 c -0.0892,-3.97155 -0.182057,-4.59735 -0.878755,-5.92221 -1.59686,-3.03664 -4.410245,-4.17357 -11.44444,-4.62489 -0.547545,-0.0351 -2.221617,-0.15651 -3.720161,-0.26971 -4.606123,-0.34798 -6.996442,-0.41095 -20.225099,-0.53283 -26.327296,-0.24258 -32.174887,0.24814 -35.907195,3.01326 -1.164059,0.86241 -1.333281,1.05723 -0.672158,0.77384 0.714253,-0.30616 2.060223,-0.63154 2.61244,-0.63154 0.261332,0 0.701467,-0.0443 0.978076,-0.0985 0.505848,-0.0992 1.455523,-0.14623 10.877459,-0.5397 6.46358,-0.26992 20.02696,-0.39107 23.840467,-0.21295 1.412089,0.066 4.548027,0.18936 6.968751,0.27422 14.987683,0.52543 16.980155,0.64399 18.3353,1.09106 1.967399,0.64906 3.854883,2.42039 4.572507,4.29112 0.485612,1.2659 0.507242,2.13168 0.404869,16.20583 -0.0524,7.20455 -0.09657,24.80864 -0.09813,39.12022 l -0.0028,26.02106 0.602561,-0.4676 c 0.331409,-0.25717 0.771478,-0.64897 0.97792,-0.87067 z M 73.349481,190.06184 c 4.833623,-0.43862 6.147202,-1.06138 7.06216,-3.34811 0.596652,-1.49119 3.836338,-14.43013 3.836338,-15.32189 0,-0.15629 -0.0916,-0.18756 -0.550164,-0.18789 -0.302591,-2.1e-4 -3.049484,-0.11609 -6.104207,-0.25754 -11.522358,-0.53351 -27.689398,-0.70045 -37.568384,-0.38795 -10.000338,0.31635 -12.330382,0.46866 -12.28437,0.80307 0.01586,0.11523 0.868712,3.74635 1.895225,8.06907 l 1.866386,7.8595 0.53604,0.55459 c 1.267734,1.31161 2.286992,1.54466 7.879539,1.80166 8.066547,0.37067 30.810282,0.65334 33.431437,0.41549 z m -24.940797,-2.98405 c -3.351237,-0.1347 -6.443831,-0.30924 -7.125941,-0.40218 -0.662818,-0.0904 -1.72385,-0.2166 -2.357848,-0.28064 -2.537136,-0.25628 -3.681947,-0.80833 -4.349057,-2.09717 -0.58713,-1.13433 -1.514975,-10.60407 -1.066165,-10.88145 0.584833,-0.36145 31.122695,-0.64909 37.377166,-0.35205 7.077239,0.3361 8.588882,0.46131 8.688022,0.71967 0.06864,0.17889 -1.538738,10.29921 -1.737364,10.9387 -0.301401,0.97038 -1.440404,1.73534 -3.035335,2.03854 -3.143543,0.59759 -15.665363,0.7478 -26.393478,0.31658 z m 23.002121,-0.67627 c 3.620908,-0.15676 4.648179,-0.41975 5.422413,-1.38819 l 0.358054,-0.44785 0.862047,-5.17261 c 0.474125,-2.84494 0.847591,-5.18604 0.829927,-5.20243 -0.09845,-0.0914 -10.980186,-0.48551 -16.261384,-0.58894 -6.821941,-0.13363 -18.497825,-9.5e-4 -24.530278,0.27863 -1.789494,0.0829 -3.430141,0.15146 -3.645881,0.15223 l -0.392253,10e-4 0.05924,1.59811 c 0.110293,2.9752 0.715322,7.72677 1.071873,8.4179 0.731101,1.41715 2.086022,1.73285 9.451562,2.20223 5.493868,0.3501 20.239531,0.43246 26.774678,0.14953 z m -18.915184,-1.21706 c -1.72388,-0.58433 -3.082616,-1.70785 -3.582554,-2.96236 -0.274461,-0.68872 -0.438336,-6.88598 -0.194152,-7.34225 0.12324,-0.23028 11.785299,-0.35217 12.140554,-0.12688 0.11012,0.0698 0.131036,0.77524 0.104797,3.53516 l -0.03279,3.44793 -0.285038,0.60835 c -1.16945,2.49596 -5.112552,3.86989 -8.15082,2.84005 z m 3.772558,-0.48166 c 1.806873,-0.30205 3.32966,-1.44757 3.892119,-2.92784 0.173043,-0.45542 0.194818,-0.84056 0.194818,-3.44581 v -2.93309 h -5.559865 -5.559862 l 0.03202,3.0652 0.03202,3.06521 0.287986,0.5463 c 0.733879,1.39213 2.10324,2.34504 3.798951,2.6436 1.198917,0.21108 1.547841,0.20944 2.881814,-0.0136 z m -2.253055,-0.71114 c -2.069927,-0.23821 -2.718007,-1.83194 -1.103891,-2.71466 1.086,-0.5939 2.522605,-0.54879 3.963089,0.12446 0.906229,0.42353 0.635158,2.27327 -0.333138,2.27327 -0.09824,0 -0.305959,0.0644 -0.461597,0.14296 -0.340863,0.17219 -1.344794,0.25679 -2.064463,0.17397 z M 50.525509,179.986 c -0.144083,-0.14408 -0.178021,-2.77346 -0.03863,-2.99303 0.06577,-0.10359 1.011386,-0.12626 4.373515,-0.10483 l 4.289602,0.0273 0.02923,1.45271 c 0.01975,0.98187 -0.0099,1.49984 -0.09143,1.5981 -0.164785,0.19855 -8.36457,0.21735 -8.562291,0.0197 z m 7.943328,-1.55229 v -1.04929 l -3.641566,0.0276 -3.641565,0.0276 -0.02999,1.02173 -0.02999,1.02174 h 3.671559 3.671558 z m -20.225099,5.22372 c -1.419555,-0.3994 -1.775432,-2.38265 -0.607007,-3.38279 1.249771,-1.06976 3.122045,-0.16214 3.122045,1.51345 0,1.40939 -1.139517,2.25635 -2.515038,1.86934 z m 5.335151,-0.0199 c -0.961063,-0.30667 -1.512588,-1.41935 -1.18797,-2.39669 0.558959,-1.68287 2.560452,-1.91687 3.515436,-0.41102 0.967347,1.52534 -0.562522,3.37088 -2.327466,2.80771 z m 20.769928,-0.91909 c -2.019187,-0.23182 -2.722785,-1.67906 -1.238047,-2.54654 0.85704,-0.50074 3.223733,-0.53397 4.171579,-0.0585 2.401393,1.20443 0.393929,2.98715 -2.933532,2.60512 z m 7.166781,-2.30905 c -2.441656,-1.26426 -1.566527,-4.91667 1.175559,-4.90625 1.392419,0.005 2.544602,1.16677 2.544602,2.56513 0,1.85514 -2.102924,3.17853 -3.720161,2.34112 z m 1.964235,-0.59435 c 0.995189,-0.39413 1.336185,-1.96183 0.62887,-2.89116 -1.533384,-2.01471 -4.448985,0.28783 -2.975085,2.34951 0.380294,0.53196 1.637722,0.82226 2.346215,0.54165 z m -9.467122,-1.05978 c -1.55417,-0.28614 -2.179494,-1.40432 -1.253289,-2.24109 1.098251,-0.9922 4.512039,-0.85023 5.356039,0.22273 0.989466,1.2579 -1.522097,2.49348 -4.10275,2.01836 z M 37.981755,178.5846 c -2.082813,-1.08325 -0.86723,-4.2567 1.389991,-3.62876 1.681636,0.46781 1.933366,2.63104 0.415343,3.56924 -0.441062,0.27258 -1.338757,0.30219 -1.805334,0.0595 z m 5.449249,0.0431 c -1.623656,-0.89405 -1.454898,-3.18053 0.272112,-3.68678 1.67937,-0.4923 3.11999,1.32588 2.240141,2.82723 -0.479993,0.81904 -1.778788,1.26342 -2.512253,0.85955 z"
         id="path5969" /></g></g></svg>
