<?xml version="1.0" encoding="UTF-8" standalone="no"?>
<!-- Created with Inkscape (http://www.inkscape.org/) -->

<svg
   width="125mm"
   height="88mm"
   viewBox="0 0 125 87.999999"
   version="1.1"
   id="svg5"
   inkscape:version="1.2.2 (732a01da63, 2022-12-09)"
   xml:space="preserve"
   sodipodi:docname="hula-hoop.svg"
   xmlns:inkscape="http://www.inkscape.org/namespaces/inkscape"
   xmlns:sodipodi="http://sodipodi.sourceforge.net/DTD/sodipodi-0.dtd"
   xmlns="http://www.w3.org/2000/svg"
   xmlns:svg="http://www.w3.org/2000/svg"><sodipodi:namedview
     id="namedview7"
     pagecolor="#f0f0f0"
     bordercolor="#ffffff"
     borderopacity="1"
     inkscape:showpageshadow="0"
     inkscape:pageopacity="0"
     inkscape:pagecheckerboard="0"
     inkscape:deskcolor="#505050"
     inkscape:document-units="mm"
     showgrid="true"
     inkscape:zoom="1.436055"
     inkscape:cx="335.98992"
     inkscape:cy="169.56175"
     inkscape:current-layer="layer1"><inkscape:grid
       type="xygrid"
       id="grid132"
       dotted="true"
       empspacing="10"
       units="mm"
       spacingx="1"
       spacingy="1"
       originx="-101.11787"
       originy="-109.52961" /></sodipodi:namedview><defs
     id="defs2" /><g
     inkscape:label="Layer 1"
     inkscape:groupmode="layer"
     id="layer1"
     transform="translate(-101.11787,-109.5296)"><g
       id="g292"><path
         style="fill:#000000;stroke-width:0.117111"
         d="m 161.21561,196.62405 c -0.0281,-0.0193 -0.64885,-0.0636 -1.37955,-0.0986 -2.18113,-0.1045 -3.30183,-0.17344 -3.65344,-0.22465 -0.18267,-0.0266 -0.63105,-0.0741 -0.99639,-0.10559 -2.79165,-0.24052 -5.25148,-0.59064 -8.03757,-1.14401 -1.90823,-0.37902 -2.03022,-0.40639 -3.60934,-0.80945 -0.5603,-0.143 -1.12824,-0.26149 -1.26211,-0.26329 -0.13384,-0.002 -0.35944,-0.0715 -0.50127,-0.15485 -0.14185,-0.0834 -0.38395,-0.15158 -0.53805,-0.15158 -0.15409,0 -0.33696,-0.0435 -0.40637,-0.0967 -0.0694,-0.0532 -0.59277,-0.21463 -1.16301,-0.35883 -1.14505,-0.28957 -3.83207,-1.19356 -3.96003,-1.33226 -0.0447,-0.0484 -0.13432,-0.089 -0.19928,-0.0902 -0.065,-0.002 -0.61715,-0.18305 -1.22723,-0.40411 -0.61007,-0.22107 -1.15809,-0.40195 -1.21781,-0.40195 -0.0598,0 -0.12851,-0.0349 -0.15283,-0.0774 -0.0243,-0.0426 -0.43288,-0.23146 -0.90782,-0.41972 -1.07764,-0.42714 -3.07209,-1.30979 -3.27087,-1.44752 -0.0819,-0.0567 -0.47701,-0.24705 -0.87813,-0.42295 -0.40111,-0.1759 -0.83661,-0.41199 -0.96779,-0.52462 -0.13118,-0.11266 -0.31891,-0.20477 -0.41718,-0.20477 -0.0982,0 -0.17869,-0.0423 -0.17869,-0.094 0,-0.0517 -0.26903,-0.19522 -0.59784,-0.31891 -0.32881,-0.12369 -0.59784,-0.25718 -0.59784,-0.29665 0,-0.0395 -0.16439,-0.14854 -0.36534,-0.24236 -0.20094,-0.0939 -0.56333,-0.3129 -0.80532,-0.48682 -0.24197,-0.17391 -0.52161,-0.31622 -0.6214,-0.31622 -0.0998,0 -0.2904,-0.10461 -0.42357,-0.23248 -0.13322,-0.12786 -0.59914,-0.46467 -1.03547,-0.74844 -0.43632,-0.28377 -0.9716,-0.63209 -1.1895,-0.77404 -1.73776,-1.13204 -4.79617,-3.57677 -6.32824,-5.05845 -0.44032,-0.42585 -0.90643,-0.86717 -1.03581,-0.98073 -0.72671,-0.63786 -3.59684,-4.04255 -4.17721,-4.95521 -0.14436,-0.22712 -0.45035,-0.64521 -0.67984,-0.9291 -0.2295,-0.28389 -0.53068,-0.72522 -0.66929,-0.98072 -0.13871,-0.25551 -0.39853,-0.72005 -0.57755,-1.03234 -0.73678,-1.28518 -1.54835,-2.91732 -2.079,-4.18097 -0.48696,-1.15967 -0.72956,-1.87481 -1.40077,-4.12935 -0.37585,-1.26243 -0.76509,-3.71518 -0.92564,-5.8327 -0.37079,-4.89044 0.62639,-10.28002 2.80757,-15.17421 0.95054,-2.13289 3.07647,-5.67034 4.35283,-7.24295 0.26033,-0.32076 0.86194,-1.06364 1.33689,-1.65083 1.84782,-2.28449 4.49517,-4.82234 7.37062,-7.06575 3.60739,-2.81447 4.87166,-3.63734 9.19507,-5.98478 2.14714,-1.16581 6.91049,-3.20497 9.60626,-4.11237 6.1894,-2.08338 13.15399,-3.56548 19.72861,-4.19832 3.1419,-0.30244 8.39403,-0.37651 11.29247,-0.15929 1.24216,0.0932 2.64708,0.21551 3.12202,0.272 8.25686,0.98212 13.95837,2.36865 20.79144,5.05617 5.58062,2.19491 10.04351,4.61577 14.68019,7.9631 7.16668,5.1738 12.75382,12.05409 15.41278,18.98008 0.16348,0.42584 0.3444,0.86717 0.40205,0.98072 0.14248,0.2808 0.3717,0.98101 0.62502,1.90982 0.11611,0.42584 0.25556,0.79762 0.30981,0.8262 0.0543,0.0285 0.0982,0.16793 0.0977,0.3097 0,0.14176 0.0309,0.42035 0.07,0.61908 0.0391,0.19872 0.13745,0.70973 0.21875,1.13557 0.0813,0.42583 0.17406,0.90511 0.20615,1.06506 0.17888,0.89164 0.35624,2.52591 0.37365,3.44281 0.011,0.57724 0.0588,1.07976 0.10639,1.11672 0.0476,0.0369 0.0363,0.21503 -0.0249,0.39573 -0.0614,0.18071 -0.14938,0.9557 -0.19584,1.72221 -0.0464,0.76651 -0.11266,1.67238 -0.14718,2.01305 -0.0345,0.34068 -0.0659,0.68909 -0.0698,0.77426 -0.0157,0.33686 -0.25936,1.62048 -0.37273,1.96144 -0.10466,0.31478 -0.25567,0.87582 -0.46823,1.73969 -0.0328,0.13355 -0.12129,0.30041 -0.19648,0.37082 -0.0752,0.0703 -0.10529,0.15242 -0.067,0.18225 0.0819,0.0636 -0.11832,0.84469 -0.40452,1.5785 -0.49996,1.28189 -1.30164,3.13373 -1.5195,3.50995 -0.13149,0.22711 -0.36645,0.63309 -0.52211,0.90217 -0.15566,0.26908 -0.28302,0.50883 -0.28302,0.53277 0,0.0239 -0.21572,0.40772 -0.4794,0.85281 -0.26366,0.44509 -0.6304,1.06476 -0.81496,1.37705 -0.18456,0.31228 -0.37328,0.59101 -0.41938,0.61939 -0.0461,0.0284 -0.20246,0.24852 -0.34748,0.48919 -0.14499,0.24065 -0.30854,0.43809 -0.36333,0.43873 -0.0548,6.3e-4 -0.0996,0.0544 -0.0996,0.1195 0,0.14221 -1.55483,2.12079 -1.88957,2.40458 -0.12992,0.11011 -0.23608,0.24209 -0.23608,0.29338 0,0.0514 -0.12192,0.21674 -0.27098,0.36767 -1.25006,1.26583 -1.68794,1.76567 -1.61164,1.83969 0.049,0.0476 0.0364,0.0533 -0.0281,0.0127 -0.0645,-0.0406 -0.36187,0.16845 -0.661,0.46455 -0.29912,0.29612 -0.57521,0.56161 -0.61354,0.59 -0.0383,0.0284 -0.33609,0.30712 -0.66172,0.61939 -0.32562,0.31229 -0.98324,0.88465 -1.46138,1.27193 -0.47813,0.38726 -1.10848,0.90127 -1.40076,1.14222 -0.29227,0.24094 -0.97743,0.73705 -1.52257,1.10245 -0.54513,0.36541 -1.0839,0.73405 -1.19724,0.81922 -0.11329,0.0852 -0.50408,0.34067 -0.86831,0.56779 -0.36422,0.22712 -1.0861,0.69167 -1.60416,1.03234 -1.37399,0.90351 -1.47143,0.96125 -2.22474,1.31813 -0.37783,0.179 -0.70691,0.36215 -0.73126,0.40697 -0.0243,0.0448 -0.10764,0.0814 -0.18494,0.0814 -0.0773,0 -0.51927,0.18582 -0.98205,0.41293 -0.4628,0.22712 -0.87529,0.41295 -0.91666,0.41295 -0.0414,0 -0.18858,0.0813 -0.32709,0.18065 -0.13855,0.0994 -0.86837,0.43059 -1.62189,0.73605 -0.75353,0.30546 -1.45973,0.61304 -1.56933,0.68347 -0.37099,0.23845 -3.24359,1.25777 -5.38053,1.90926 -1.16909,0.35642 -2.30498,0.70867 -2.52419,0.78277 -0.2192,0.0741 -0.66758,0.18809 -0.99639,0.2533 -0.32881,0.0653 -0.77719,0.1793 -0.9964,0.25353 -0.49698,0.16829 -2.32079,0.57506 -4.91555,1.09633 -2.53247,0.50877 -3.49604,0.65719 -6.50978,1.00276 -3.09105,0.35443 -6.33728,0.55257 -9.71365,0.59291 -1.76212,0.0211 -3.22682,0.0225 -3.25488,0.004 z m 6.45877,-3.32156 c 6.3742,-0.25472 14.32173,-1.59055 19.72521,-3.31541 0.61922,-0.19767 1.39605,-0.43068 1.72629,-0.5178 1.2131,-0.32004 5.96945,-2.20281 7.77605,-3.07813 4.03181,-1.95342 6.77067,-3.62155 9.89374,-6.02583 2.22315,-1.71149 2.91038,-2.3106 4.55827,-3.97381 6.21866,-6.27647 9.85082,-14.03485 10.10615,-21.58702 0.10984,-3.24897 -0.44296,-6.8908 -1.52784,-10.06528 -0.40069,-1.17248 -1.59472,-3.99899 -2.02786,-4.80037 -0.5716,-1.05752 -0.72715,-1.32203 -1.50639,-2.56134 -1.22451,-1.94746 -2.54637,-3.6927 -4.11289,-5.43013 -0.78901,-0.87508 -2.16343,-2.29499 -2.61616,-2.70271 -0.22645,-0.20395 -0.68076,-0.61673 -1.00957,-0.91731 -1.39726,-1.27728 -4.38356,-3.51562 -6.24407,-4.68019 -0.69415,-0.4345 -1.46744,-0.93161 -1.71842,-1.1047 -0.25099,-0.17308 -0.87871,-0.52972 -1.39496,-0.79255 -0.51624,-0.26281 -0.96851,-0.50524 -1.00505,-0.53873 -0.16021,-0.14684 -1.31923,-0.73191 -1.44987,-0.73191 -0.0794,0 -0.14436,-0.0465 -0.14436,-0.10327 0,-0.0568 -0.0898,-0.10327 -0.19928,-0.10327 -0.10968,0 -0.19928,-0.0383 -0.19928,-0.085 0,-0.0467 -0.25407,-0.18706 -0.56462,-0.31187 -0.31054,-0.1248 -0.80375,-0.34105 -1.09603,-0.48054 -0.29228,-0.13951 -0.83034,-0.3769 -1.19567,-0.52756 -0.36534,-0.15066 -0.69415,-0.30361 -0.7307,-0.33992 -0.0852,-0.0846 -3.54406,-1.38248 -4.78269,-1.7946 -0.25574,-0.0851 -0.82368,-0.28375 -1.2621,-0.44146 -0.43841,-0.15771 -0.85689,-0.2992 -0.92997,-0.31441 -0.0731,-0.0152 -0.73068,-0.1887 -1.46137,-0.38554 -2.19056,-0.59011 -2.62099,-0.69978 -3.45416,-0.88005 -0.43842,-0.0949 -0.8569,-0.20034 -0.92998,-0.2344 -0.12929,-0.0602 -1.06207,-0.22773 -1.32853,-0.23851 -0.0731,-0.002 -0.16323,-0.0365 -0.20039,-0.0744 -0.0372,-0.0379 -0.51541,-0.13987 -1.06281,-0.22653 -0.54741,-0.0867 -1.59312,-0.25326 -2.32381,-0.37019 -1.32618,-0.21224 -4.54356,-0.55805 -6.17765,-0.66397 -2.34626,-0.15208 -6.53627,-0.18742 -8.10399,-0.0683 -0.91338,0.0694 -1.89981,0.14029 -2.19207,0.15758 -1.16917,0.0692 -2.30756,0.17837 -3.2549,0.31229 -0.54802,0.0774 -1.56434,0.21841 -2.25849,0.31321 -2.56417,0.35017 -8.90751,1.65078 -9.83108,2.01571 -0.48031,0.18979 -1.18149,0.40581 -1.3172,0.40581 -0.0813,0 -0.2516,0.0457 -0.37848,0.10157 -0.12694,0.0559 -1.09755,0.38092 -2.15706,0.72232 -2.80691,0.90448 -2.95657,0.96159 -5.48884,2.09469 -0.79027,0.35362 -1.59735,0.70849 -1.79351,0.78858 -0.19617,0.0801 -0.5958,0.26538 -0.88808,0.41173 -0.29226,0.14634 -0.68086,0.32382 -0.86353,0.39439 -0.38941,0.15044 -0.83566,0.36575 -0.92998,0.44872 -0.0366,0.0322 -0.33544,0.20143 -0.66425,0.37621 -0.77401,0.41143 -3.7643,2.25575 -4.2748,2.63656 -0.13322,0.0994 -0.28703,0.18159 -0.34184,0.18272 -0.25253,0.005 -4.82904,3.6542 -6.54372,5.21746 -0.49066,0.44733 -1.24199,1.2068 -1.39421,1.40933 -0.17063,0.22702 -1.9714,2.28424 -2.05921,2.35248 -0.20013,0.15552 -0.66427,0.72964 -0.66427,0.82169 0,0.0591 -0.0449,0.10778 -0.0996,0.10827 -0.0548,4.2e-4 -0.16292,0.10498 -0.24028,0.23228 -0.32406,0.53335 -1.03666,1.47281 -1.14132,1.50469 -0.0621,0.0189 -0.11298,0.0884 -0.11298,0.1543 0,0.066 -0.44152,0.81696 -0.98116,1.66894 -0.85771,1.35418 -1.12925,1.80699 -1.2075,2.0136 -0.011,0.0284 -0.12224,0.23474 -0.24783,0.45854 -0.12553,0.2238 -0.26563,0.52576 -0.3113,0.67102 -0.0457,0.14526 -0.13102,0.2888 -0.18955,0.319 -0.10497,0.0542 -0.16874,0.2171 -0.84725,2.16463 -0.18791,0.5394 -0.45277,1.213 -0.58854,1.49689 -0.20805,0.43502 -0.42185,1.05617 -0.74441,2.16275 -0.0323,0.11071 -0.069,0.44923 -0.0819,0.75227 -0.0126,0.30304 -0.073,0.57484 -0.13369,0.60404 -0.0607,0.0291 -0.083,0.21981 -0.0494,0.4236 0.0336,0.2038 0.0243,0.41667 -0.0206,0.47306 -0.0893,0.1123 -0.18437,0.6725 -0.19666,1.15889 -0.005,0.17034 -0.0621,0.33606 -0.12851,0.36825 -0.30405,0.14741 -0.18866,5.63869 0.15931,7.58076 0.0814,0.45423 0.16755,0.94201 0.19148,1.08395 0.0905,0.53696 0.60463,2.44685 0.79195,2.94217 0.10733,0.28388 0.22878,0.67353 0.26982,0.86588 0.0411,0.19233 0.28804,0.86593 0.54891,1.49688 2.42102,5.85568 6.64786,11.12968 12.43008,15.50952 2.2281,1.6877 3.27596,2.38639 5.56991,3.71391 4.02972,2.33201 7.80448,4.01855 12.34123,5.51396 2.00168,0.65979 5.84254,1.75366 6.15759,1.75366 0.10011,0 0.44356,0.0727 0.7633,0.16151 0.31972,0.0889 1.50796,0.34129 2.64054,0.56103 6.50909,1.26284 12.41706,1.67777 19.7286,1.38558 z"
         id="path248" /><path
         style="fill:#ea5378;fill-opacity:1;stroke-width:0.117111"
         d="m 164.45602,195.94413 c -0.58996,-0.1062 -0.8427,-0.25477 -2.32654,-1.368 l -1.29362,-0.97051 3.28641,-0.0124 c 3.76922,-0.0141 3.22521,-0.1263 5.74879,1.18531 0.93444,0.48568 1.55236,0.86835 1.44502,0.8949 -0.68535,0.16949 -6.21074,0.38749 -6.86006,0.27065 z m -7.14414,-0.16361 c -0.87683,-0.0695 -2.20977,-0.18452 -2.9621,-0.25574 -1.87555,-0.17756 -2.24104,-0.36849 -3.46399,-1.80968 -0.51916,-0.61183 -0.92126,-1.13004 -0.89355,-1.15158 0.0278,-0.0216 0.69955,0.0534 1.49294,0.16651 0.79341,0.11315 2.01051,0.26188 2.70466,0.33058 0.69415,0.0686 1.44089,0.19489 1.65942,0.28041 0.21852,0.0855 0.8708,0.52047 1.44951,0.96655 0.5787,0.44608 1.30977,0.96171 1.62457,1.14588 0.90373,0.52867 0.91221,0.52694 -1.61146,0.32707 z m 18.29649,-0.86267 c -0.31271,-0.11339 -0.91055,-0.40928 -1.32853,-0.65752 -0.41798,-0.24822 -1.04664,-0.58071 -1.39701,-0.73884 -0.35038,-0.15814 -0.61141,-0.30745 -0.58006,-0.33181 0.0314,-0.0244 0.85607,-0.13194 1.83273,-0.23909 0.97665,-0.10718 2.29505,-0.28494 2.92977,-0.39507 1.40628,-0.244 1.77774,-0.20117 3.34236,0.38545 0.64629,0.24231 1.4798,0.52104 1.85221,0.61942 0.37244,0.0984 0.69745,0.2262 0.72227,0.28408 0.0249,0.0583 -0.85961,0.2762 -1.98507,0.48888 -4.58578,0.86658 -4.60502,0.86868 -5.38867,0.5845 z m -28.32687,-0.42736 c -0.18266,-0.0488 -1.34845,-0.30698 -2.59063,-0.57386 -1.24216,-0.26686 -2.46773,-0.56618 -2.72346,-0.66517 -0.71923,-0.27837 -1.13384,-0.68996 -1.65618,-1.64415 -0.2642,-0.48262 -0.5377,-0.95815 -0.60776,-1.05675 -0.14185,-0.19958 -0.17055,-0.49175 -0.0483,-0.49175 0.0435,0 0.23784,0.0678 0.43178,0.15068 0.19394,0.0829 1.36895,0.41409 2.61112,0.73603 2.43095,0.63002 2.75915,0.78548 3.35871,1.5909 0.42978,0.57731 1.48485,1.67509 1.71643,1.78591 0.0949,0.0454 0.17254,0.1267 0.17254,0.18065 0,0.11474 -0.20183,0.11096 -0.66427,-0.0124 z m 39.11986,-1.93404 c -0.29515,-0.0962 -0.74945,-0.27887 -1.00956,-0.40595 -0.26011,-0.12709 -0.81389,-0.34825 -1.23063,-0.49145 -0.67648,-0.23248 -0.88874,-0.46467 -0.42478,-0.46467 0.0938,0 1.17578,-0.27873 2.40448,-0.61941 1.22872,-0.34067 2.45742,-0.6194 2.73046,-0.6194 0.27305,0 0.90628,0.0942 1.4072,0.20954 1.45056,0.33373 2.21197,0.50102 2.60818,0.57304 0.29576,0.0538 0.33865,0.0953 0.21622,0.21003 -0.0839,0.0786 -0.20351,0.14297 -0.26563,0.14297 -0.0621,0 -0.42845,0.11449 -0.81406,0.25433 -1.54602,0.56086 -4.38481,1.39706 -4.72436,1.39163 -0.19849,-0.004 -0.60237,-0.0845 -0.89752,-0.18066 z m -50.6116,-1.17274 c -1.43509,-0.49477 -4.19952,-1.61292 -4.48636,-1.81463 -0.40593,-0.28546 -0.60243,-0.65872 -0.89191,-1.69415 -0.14828,-0.53062 -0.30034,-1.06927 -0.33778,-1.19704 -0.0375,-0.12774 -0.009,-0.23227 0.0634,-0.23227 0.0723,0 0.59661,0.21408 1.165,0.47571 0.56838,0.26163 1.60137,0.69774 2.29553,0.96913 0.69415,0.27138 1.36969,0.58615 1.50122,0.69949 0.13149,0.11339 0.44324,0.61012 0.69275,1.10397 0.24949,0.49385 0.63512,1.1271 0.85691,1.4072 0.22181,0.28012 0.40328,0.53183 0.40328,0.55936 0,0.11095 -0.37765,0.0281 -1.26209,-0.27677 z m 60.78005,-2.26352 c -0.32881,-0.0403 -1.04622,-0.19052 -1.59424,-0.33374 -0.54801,-0.14322 -1.23049,-0.29378 -1.51659,-0.33459 -0.47795,-0.0681 -0.50015,-0.0856 -0.27353,-0.21434 0.13573,-0.0771 0.38681,-0.14016 0.5581,-0.14016 0.32127,0 0.83413,-0.21728 1.29845,-0.55014 0.23979,-0.17189 0.5775,-0.33289 1.64378,-0.78369 0.19077,-0.0806 0.42478,-0.20718 0.51999,-0.28116 0.3429,-0.26647 1.26305,-0.37162 2.72231,-0.31114 0.78756,0.0327 1.47937,0.0822 1.53736,0.10998 0.0581,0.0278 0.35522,0.0621 0.66053,0.0761 0.30527,0.014 0.55504,0.0547 0.55504,0.0905 0,0.15902 -1.12991,0.78942 -3.45416,1.92714 -1.51078,0.73952 -1.87385,0.84135 -2.65704,0.74524 z m -70.24606,-1.90572 c -1.92144,-1.03391 -3.21372,-1.83057 -3.13335,-1.93161 0.0499,-0.0626 0.0218,-0.0772 -0.067,-0.0345 -0.22635,0.10864 -0.79704,-0.42281 -0.96053,-0.89457 -0.1453,-0.41916 -0.11297,-2.28648 0.0417,-2.4066 0.077,-0.0598 0.82432,0.38781 2.45794,1.47251 0.31009,0.20591 0.74028,0.45777 0.95597,0.55968 0.59831,0.28274 0.79731,0.60245 0.99696,1.60171 0.10074,0.50392 0.30474,1.18334 0.45345,1.50982 0.14875,0.32648 0.22878,0.58841 0.17791,0.58207 -0.0508,-0.006 -0.46624,-0.21261 -0.92307,-0.45844 z m 78.08435,-2.93091 c -0.25574,-0.048 -0.9419,-0.12047 -1.5248,-0.16087 -1.18472,-0.0821 -1.18374,-0.007 -0.009,-0.72245 0.27952,-0.17034 0.57464,-0.3576 0.65583,-0.41614 0.68776,-0.49591 2.22458,-1.493 2.42372,-1.5725 0.13651,-0.0545 0.54699,-0.13124 0.91233,-0.17058 1.02936,-0.11083 3.65346,-0.18659 3.65346,-0.10547 0,0.10425 -2.86988,2.30011 -3.62877,2.77643 -0.53186,0.33383 -0.7556,0.40629 -1.32852,0.43021 -0.37893,0.0159 -0.8982,-0.011 -1.15393,-0.0587 z m -87.14753,-2.96988 c -1.03971,-0.83964 -1.97831,-1.65849 -2.08579,-1.81966 -0.10749,-0.16116 -0.19542,-0.54218 -0.19542,-0.84671 0,-0.63283 0.41938,-2.31859 0.57682,-2.31859 0.0576,0 0.28646,0.19492 0.50856,0.43315 0.34911,0.37451 0.9345,0.90811 2.23176,2.0343 0.72056,0.62556 0.75563,0.71451 0.72271,1.83258 -0.0171,0.58134 0.0279,1.29928 0.10027,1.59544 0.0723,0.29614 0.10889,0.55592 0.0814,0.57727 -0.0275,0.0214 -0.90064,-0.64814 -1.94034,-1.48778 z m 91.93022,-2.46003 c 0,-0.0384 0.11439,-0.16929 0.25436,-0.29085 0.54679,-0.47515 1.17466,-1.07349 1.7426,-1.66063 1.27566,-1.31881 1.58546,-1.47215 3.65104,-1.80734 1.41407,-0.22946 1.79174,-0.25648 1.79174,-0.12819 0,0.30495 -2.85508,3.3199 -3.41275,3.60385 -0.2403,0.12233 -0.71522,0.16904 -1.87547,0.18446 -0.85453,0.011 -1.68819,0.0539 -1.8526,0.0946 -0.1644,0.0407 -0.29892,0.0426 -0.29892,0.004 z M 111.3321,175.6319 c -1.6033,-1.88754 -1.62335,-1.91279 -1.84099,-2.31945 -0.11298,-0.21109 -0.20543,-0.49981 -0.20543,-0.64161 0,-0.53719 0.98632,-2.43291 1.26581,-2.43291 0.0916,0 0.25886,0.17895 0.37148,0.39768 0.11266,0.21871 0.62727,0.94694 1.14367,1.61828 1.03758,1.34892 1.09845,1.56288 0.72062,2.5334 -0.12004,0.30839 -0.2247,0.89718 -0.2325,1.30841 -0.008,0.41123 -0.0543,0.74803 -0.10325,0.74844 -0.049,4.1e-4 -0.55271,-0.54509 -1.1194,-1.21224 z m 103.44145,-2.79939 c 0.002,-0.036 0.11988,-0.18149 0.26275,-0.32344 0.14295,-0.14194 0.26113,-0.28817 0.26277,-0.32496 0.002,-0.0368 0.22713,-0.36198 0.50114,-0.72268 0.274,-0.36069 0.64766,-0.88169 0.83032,-1.15776 0.18268,-0.27607 0.51834,-0.61356 0.74592,-0.74998 0.38517,-0.23089 3.35827,-1.1162 3.4664,-1.0322 0.11721,0.0911 -1.71024,3.17058 -2.09571,3.5315 -0.25309,0.23696 -0.60677,0.32372 -1.86574,0.45766 -0.60648,0.0645 -1.32952,0.17804 -1.60675,0.25227 -0.27723,0.0743 -0.50272,0.10558 -0.5011,0.0696 z M 107.19581,169.825 c -0.15644,-0.25551 -0.38463,-0.65037 -0.50692,-0.87749 -1.22778,-2.27999 -1.31804,-2.64844 -0.84716,-3.45833 0.39396,-0.67761 1.34309,-1.7788 1.45033,-1.6827 0.0507,0.0455 0.25407,0.47745 0.45194,0.96006 0.19788,0.48262 0.51753,1.20268 0.71036,1.60013 0.4204,0.8666 0.41379,1.01613 -0.0788,1.78156 -0.39851,0.6193 -0.76972,1.44284 -0.84887,1.88323 -0.0417,0.23254 -0.0745,0.21211 -0.33093,-0.20646 z m 112.0417,-4.34808 c 0.31981,-0.68809 0.58148,-1.33573 0.58148,-1.43919 0,-0.1034 0.0598,-0.21682 0.13291,-0.2519 0.0731,-0.0351 0.1329,-0.14868 0.1329,-0.25241 0,-0.40061 1.61005,-1.34914 2.88203,-1.69787 l 0.52583,-0.14416 -0.17636,0.73751 c -0.097,0.40564 -0.32572,1.14608 -0.50825,1.64543 -0.18255,0.49935 -0.3319,0.97292 -0.3319,1.05239 0,0.34092 -0.6287,0.6844 -1.87373,1.02369 -0.70172,0.19123 -1.40025,0.39941 -1.55228,0.46263 -0.15205,0.0633 -0.30288,0.11498 -0.33523,0.11498 -0.0323,0 0.20285,-0.56298 0.52269,-1.25107 z m -114.91566,-2.13283 c -0.14342,-0.18034 -0.88169,-3.11722 -0.88169,-3.50746 0,-0.52352 0.3256,-0.97128 1.3026,-1.79126 0.84116,-0.70599 0.87796,-0.72408 0.99652,-0.49008 0.0676,0.13364 0.14028,0.73075 0.16115,1.32693 0.0235,0.6715 0.11361,1.21975 0.23653,1.44082 0.24301,0.43691 0.16448,0.62256 -0.62886,1.48645 -0.32333,0.3521 -0.7024,0.86671 -0.84236,1.14359 -0.13997,0.27689 -0.29472,0.45284 -0.34389,0.39101 z m 116.76253,-3.35211 c 0.0337,-0.0709 0.17568,-0.81964 0.31539,-1.66371 0.30175,-1.82313 0.46861,-2.06549 2.02298,-2.93829 l 0.97965,-0.5501 0.0435,0.49847 c 0.024,0.27417 -0.0243,1.10172 -0.10733,1.839 -0.16749,1.4883 -0.20741,1.55455 -1.1981,1.98778 -0.32891,0.14383 -0.91094,0.41775 -1.29343,0.6087 -0.76732,0.38309 -0.85273,0.40752 -0.76266,0.21815 z m -118.17562,-5.24423 c 0,-2.14254 0.0353,-2.238 1.10314,-2.98606 0.72272,-0.50627 1.42875,-0.93165 1.5465,-0.93177 0.0846,-9e-5 0.0309,3.03834 -0.0595,3.36346 -0.0328,0.11815 -0.45398,0.53622 -0.93586,0.9291 -0.48188,0.3929 -1.00245,0.88855 -1.15684,1.10148 -0.1544,0.21291 -0.32945,0.38713 -0.38908,0.38713 -0.0596,0 -0.10843,-0.8385 -0.10843,-1.86334 z m 118.8136,-2.18907 c -0.0126,-0.63849 -0.0488,-1.34594 -0.0803,-1.57211 -0.0315,-0.22617 6e-5,-0.57458 0.0703,-0.77425 0.2531,-0.72014 1.9222,-2.26064 2.14536,-1.98005 0.1169,0.14693 0.47841,2.59373 0.47841,3.23771 v 0.59454 l -1.02039,0.6252 c -0.56123,0.34385 -1.10265,0.71646 -1.2032,0.828 -0.10058,0.11157 -0.22428,0.20261 -0.27493,0.20234 -0.0507,-3e-4 -0.10246,-0.52288 -0.11517,-1.16138 z m -118.5479,-2.76432 c 0,-0.23399 0.54691,-2.85042 0.67219,-3.21585 0.1639,-0.47797 0.99913,-1.06307 2.24211,-1.57061 l 0.92147,-0.37626 -0.13134,0.33767 c -0.0722,0.18572 -0.18268,0.54673 -0.24547,0.80224 -0.35089,1.42784 -0.59081,2.13677 -0.77954,2.3036 -0.11659,0.10303 -0.57829,0.39045 -1.02607,0.63874 -0.44776,0.24828 -1.00297,0.61855 -1.23375,0.82281 -0.23081,0.20425 -0.41964,0.3202 -0.41964,0.25766 z m 117.53766,-3.48083 c -0.12725,-0.49682 -0.25832,-1.02326 -0.29132,-1.16988 -0.0329,-0.1466 -0.12208,-0.39351 -0.19806,-0.54869 -0.21344,-0.43624 -0.16435,-0.78822 0.19318,-1.38498 0.34425,-0.57461 1.11207,-1.46455 1.26357,-1.46455 0.18746,0 1.32796,2.94815 1.32796,3.43272 0,0.14372 -0.28894,0.4781 -0.7376,0.85359 -0.40565,0.33951 -0.82568,0.74504 -0.93336,0.90118 -0.10764,0.15615 -0.24017,0.28389 -0.29441,0.28389 -0.0543,0 -0.2027,-0.40647 -0.32996,-0.90328 z m -115.82556,-3.07991 c 0.81723,-2.19724 1.30438,-3.14266 1.79024,-3.4744 0.34575,-0.23606 1.99844,-0.86752 2.52804,-0.96592 l 0.38415,-0.0713 -0.20182,0.29875 c -0.11109,0.16432 -0.33396,0.57748 -0.49542,0.91815 -0.16148,0.34068 -0.34419,0.71232 -0.40603,0.82587 -0.0618,0.11351 -0.18454,0.37282 -0.27265,0.57613 -0.23822,0.54973 -0.35357,0.63549 -1.58445,1.17818 -0.62108,0.27384 -1.29232,0.61438 -1.49163,0.75674 l -0.36239,0.25887 z m 113.69673,-2.47216 c -0.11031,-0.28211 -0.39412,-0.86133 -0.63085,-1.28717 -0.59432,-1.06907 -0.63584,-1.57638 -0.20129,-2.46004 0.40107,-0.81559 0.6419,-1.10888 0.83457,-1.01636 0.0745,0.0358 0.53532,0.74168 1.02393,1.56861 l 0.8884,1.50352 -0.3006,0.38278 c -0.16531,0.21055 -0.46757,0.56399 -0.67165,0.78542 -0.20408,0.22144 -0.37107,0.45645 -0.37107,0.52226 0,0.0658 -0.0835,0.20833 -0.18551,0.31675 -0.17223,0.18303 -0.19985,0.16043 -0.38593,-0.31577 z m -110.759,-3.49749 c 0,-0.14329 0.3062,-0.52616 0.48718,-0.60915 0.10043,-0.0461 0.14797,-0.12749 0.10545,-0.18091 -0.0761,-0.0957 0.92718,-1.63163 1.43066,-2.18997 0.31638,-0.35088 1.25052,-0.72625 2.22803,-0.89532 0.40187,-0.0695 0.84427,-0.1509 0.98311,-0.18085 0.24541,-0.0529 0.24522,-0.0462 -0.006,0.24128 -0.14263,0.16267 -0.40573,0.52119 -0.58456,0.79669 -0.17882,0.27551 -0.39985,0.52437 -0.49118,0.55302 -0.0913,0.0287 -0.16608,0.11535 -0.16608,0.19272 0,0.25205 -0.51631,0.91634 -0.87648,1.12771 -0.19352,0.11351 -0.8663,0.35985 -1.49508,0.5473 -0.62878,0.18746 -1.24916,0.41531 -1.37862,0.50636 -0.12945,0.0911 -0.2354,0.13205 -0.2354,0.0911 z m 107.54733,-1.94484 c -0.10984,-0.18452 -0.5649,-0.80006 -1.0113,-1.36785 -0.4464,-0.56778 -0.84097,-1.17169 -0.87681,-1.34203 -0.0689,-0.3273 0.44671,-2.21953 0.60474,-2.21953 0.13997,0 2.67514,2.96269 2.67514,3.12626 0,0.0783 -0.14923,0.37076 -0.33173,0.65007 -0.18244,0.27933 -0.42639,0.72854 -0.5421,0.99823 -0.11565,0.26969 -0.23463,0.49035 -0.26431,0.49035 -0.0297,0 -0.14373,-0.15097 -0.25363,-0.3355 z m -103.07228,-4.07318 c 0.13275,-0.16865 0.37472,-0.44191 0.53788,-0.60724 0.16316,-0.16534 0.64,-0.66158 1.05964,-1.10276 0.53487,-0.56232 0.92822,-0.86431 1.31559,-1.01002 0.57425,-0.21602 1.77429,-0.40573 2.57299,-0.40675 l 0.4622,-6.2e-4 -0.29209,0.23227 c -0.58494,0.4652 -1.89439,1.72053 -1.89439,1.8161 0,0.16872 -0.91714,0.73293 -1.29776,0.79838 -0.62054,0.10668 -2.21074,0.43904 -2.46406,0.51497 -0.23306,0.0699 -0.23306,0.0619 0,-0.23433 z m 98.56235,-1.31707 c -0.20617,-0.25346 -0.72774,-0.75285 -1.15906,-1.10976 -0.43133,-0.3569 -0.87239,-0.80558 -0.98017,-0.99705 -0.19895,-0.3535 -0.24402,-1.53771 -0.0807,-2.11741 l 0.0839,-0.29764 0.93096,0.76218 c 0.51202,0.41921 1.2395,1.0504 1.61661,1.40263 0.7336,0.68525 0.72128,0.62982 0.36065,1.62363 -0.10168,0.28 -0.18475,0.66326 -0.18475,0.85168 0,0.18842 -0.0479,0.34258 -0.10639,0.34258 -0.0585,0 -0.27505,-0.20739 -0.48123,-0.46084 z m -93.3733,-3.71177 c 0.73116,-0.67675 2.68329,-2.16596 3.02332,-2.30639 0.27595,-0.114 0.86858,-0.17714 1.92637,-0.20537 l 1.52779,-0.0407 -0.46497,0.28834 c -0.57981,0.35955 -1.44576,0.98556 -2.15615,1.55873 -0.55904,0.45104 -1.13887,0.64224 -1.96229,0.64707 -0.25573,0.002 -0.83874,0.0635 -1.29558,0.13797 l -0.83058,0.13525 z m 87.9161,-0.95902 c -2.74551,-1.90993 -2.75908,-1.92588 -2.90184,-3.41139 -0.0656,-0.68233 -0.0519,-0.74009 0.15283,-0.64977 0.20427,0.0901 1.46084,0.89511 2.94128,1.88441 l 0.57245,0.38254 -0.024,1.01112 c -0.0126,0.55611 -0.0658,1.04298 -0.11659,1.08194 -0.051,0.039 -0.33172,-0.0956 -0.62401,-0.29885 z m -81.83717,-3.4895 c 0.2192,-0.14819 1.1135,-0.69091 1.98729,-1.20603 l 1.58874,-0.93661 1.38016,0.0548 c 0.75908,0.0301 1.4408,0.10181 1.51494,0.15947 0.0912,0.0709 -0.0529,0.19929 -0.44469,0.39677 -0.31872,0.16061 -0.60937,0.31875 -0.64591,0.35143 -0.0366,0.0327 -0.36534,0.21585 -0.73068,0.40709 -0.36536,0.19122 -0.69417,0.37505 -0.7307,0.4085 -0.34067,0.31189 -0.89603,0.42719 -2.2934,0.47613 -0.82109,0.0288 -1.61246,0.0761 -1.75859,0.1051 -0.20534,0.0409 -0.17517,-0.009 0.1329,-0.21662 z m 75.60574,-0.5206 c -0.43019,-0.25007 -0.89299,-0.48201 -1.02845,-0.51542 -0.13542,-0.0334 -0.24629,-0.10412 -0.24629,-0.15702 0,-0.0529 -0.0832,-0.0963 -0.18489,-0.0963 -0.38145,0 -1.48844,-0.90187 -1.66974,-1.36032 -0.0971,-0.24544 -0.25752,-0.64532 -0.35658,-0.88863 -0.19463,-0.47797 -0.22922,-0.74483 -0.0965,-0.74483 0.16604,0 3.41156,1.60674 3.78499,1.87382 0.29654,0.21209 0.38268,0.36468 0.38268,0.67787 0,0.2223 0.0639,0.67276 0.14201,1.00102 0.0781,0.32828 0.12239,0.61207 0.0985,0.63066 -0.0238,0.0186 -0.39547,-0.17081 -0.82567,-0.42087 z m -66.53124,-2.88792 c -0.0386,-0.03 -0.63065,-0.088 -1.31567,-0.12904 l -1.24547,-0.0745 0.92818,-0.42355 c 2.41673,-1.10283 3.19646,-1.38303 3.84842,-1.38303 0.67262,0 2.75372,0.39778 2.66497,0.50937 -0.0532,0.0669 -0.61577,0.2926 -1.93177,0.77489 -0.40188,0.14729 -0.96983,0.38237 -1.26211,0.52241 -0.48763,0.23363 -1.49183,0.35478 -1.68655,0.20346 z m 58.85093,-0.70492 c -0.85607,-0.35607 -1.68672,-0.73735 -1.84591,-0.84727 -0.26441,-0.18258 -0.49615,-0.52741 -1.19222,-1.774 l -0.24489,-0.43856 0.49338,0.1601 c 1.61769,0.52492 3.4576,1.24899 3.71504,1.46197 0.16442,0.13601 0.29892,0.3567 0.29892,0.49043 0,0.13371 0.11878,0.5376 0.26401,0.89753 0.14514,0.35992 0.26475,0.66602 0.2657,0.68022 0.005,0.0811 -0.35326,-0.0478 -1.75403,-0.63042 z m -51.11957,-2.02923 c -0.25576,-0.0416 -0.82132,-0.15127 -1.25681,-0.24363 -0.4355,-0.0923 -0.94366,-0.1694 -1.12924,-0.17121 -0.32095,-0.004 -0.32518,-0.011 -0.0869,-0.15068 0.13777,-0.0811 1.11551,-0.41023 2.17268,-0.73146 1.63834,-0.49783 2.01654,-0.577 2.56166,-0.53631 0.58674,0.0438 2.84957,0.68487 2.73413,0.77458 -0.0775,0.0602 -3.82472,1.02806 -4.19843,1.08436 -0.18267,0.0276 -0.54138,0.016 -0.79711,-0.0256 z m 45.39253,-0.011 c -0.13322,-0.0602 -0.839,-0.26564 -1.5683,-0.45648 -1.83044,-0.479 -2.12812,-0.6468 -3.06197,-1.726 l -0.80738,-0.93303 0.44865,0.0692 c 0.24674,0.0381 1.30893,0.28811 2.36042,0.55564 l 1.9118,0.48639 0.606,0.98259 c 0.33331,0.54043 0.62881,1.01743 0.65669,1.06002 0.0737,0.11266 -0.26416,0.089 -0.54591,-0.0384 z m -8.65881,-2.07156 c -2.714,-0.49907 -2.53313,-0.43089 -3.73955,-1.4097 -0.88602,-0.71886 -1.05125,-0.89997 -0.84488,-0.92609 0.2868,-0.0364 3.8548,0.46319 4.34663,0.60849 0.17337,0.0512 0.41736,0.23855 0.54221,0.4163 0.1249,0.17775 0.48524,0.60079 0.80085,0.94008 0.31563,0.33928 0.55477,0.62751 0.53142,0.64048 -0.0234,0.0129 -0.75985,-0.10827 -1.63668,-0.26956 z m -28.63756,0.12799 c -0.18698,-0.0441 -0.55854,-0.16075 -0.82572,-0.25927 -0.26716,-0.0985 -0.82509,-0.2607 -1.23983,-0.36041 -0.41473,-0.0997 -0.69907,-0.2077 -0.63188,-0.23997 0.0671,-0.0323 1.07326,-0.25278 2.23568,-0.49004 1.38253,-0.28215 2.26612,-0.41212 2.55466,-0.37572 0.53781,0.0678 2.99298,1.01989 2.85951,1.10888 -0.0526,0.035 -0.54384,0.12131 -1.09185,0.19184 -0.54802,0.0705 -1.45474,0.21693 -2.01493,0.3254 -1.09298,0.21161 -1.31794,0.22372 -1.84564,0.0993 z m 7.05425,-1.68028 c -1.50184,-0.59599 -1.59213,-0.64832 -1.24406,-0.72111 0.70457,-0.14737 4.49807,-0.42573 4.85448,-0.35623 0.33543,0.0655 2.55758,1.29326 2.46738,1.36334 -0.0232,0.018 -0.60921,0.0615 -1.30229,0.0966 -0.69309,0.0351 -1.61885,0.10766 -2.05727,0.16116 -0.43841,0.0535 -0.86501,0.0977 -0.948,0.098 -0.083,4.1e-4 -0.87959,-0.28841 -1.77024,-0.64184 z m 13.74502,0.53832 c -0.43842,-0.0429 -1.47137,-0.1062 -2.29546,-0.1406 -1.67375,-0.0699 -1.91063,-0.13711 -2.96806,-0.84312 -0.39316,-0.26251 -0.8942,-0.55287 -1.11341,-0.64525 l -0.39855,-0.16799 0.73067,-0.0781 c 1.1578,-0.12386 5.16012,0.0867 5.56486,0.29277 0.33665,0.17141 2.1406,1.55355 2.1406,1.64009 0,0.0619 -0.68122,0.0383 -1.66065,-0.0577 z"
         id="path246" /></g></g></svg>
