<?xml version="1.0" encoding="UTF-8" standalone="no"?>
<svg
   id="svg2"
   viewBox="0 0 332.59843 472.44095"
   version="1.1"
   sodipodi:docname="jug.svg"
   width="88mm"
   height="125mm"
   inkscape:version="1.2.2 (732a01da63, 2022-12-09)"
   xmlns:inkscape="http://www.inkscape.org/namespaces/inkscape"
   xmlns:sodipodi="http://sodipodi.sourceforge.net/DTD/sodipodi-0.dtd"
   xmlns="http://www.w3.org/2000/svg"
   xmlns:svg="http://www.w3.org/2000/svg"
   xmlns:rdf="http://www.w3.org/1999/02/22-rdf-syntax-ns#"
   xmlns:cc="http://creativecommons.org/ns#"
   xmlns:dc="http://purl.org/dc/elements/1.1/">
  <defs
     id="defs16" />
  <sodipodi:namedview
     id="namedview14"
     pagecolor="#505050"
     bordercolor="#eeeeee"
     borderopacity="1"
     inkscape:showpageshadow="0"
     inkscape:pageopacity="0"
     inkscape:pagecheckerboard="0"
     inkscape:deskcolor="#505050"
     showgrid="false"
     inkscape:zoom="0.67166667"
     inkscape:cx="155.58313"
     inkscape:cy="203.22581"
     inkscape:current-layer="svg2"
     inkscape:document-units="mm" />
  <g
     id="g2818"
     transform="matrix(0.78879344,0,0,0.78879344,35.941679,-6.5474033e-4)">
    <path
       id="path2832"
       fill="#a7a89b"
       d="m 133,599.34 c -7.9606,-0.78452 -32.062,-5.6878 -41.5,-8.4429 -14.491,-4.24 -36.707,-13.61 -43,-18.16 -3.978,-2.87 -20.43,-20.18 -23.202,-24.41 -2.617,-3.99 -7.104,-23.55 -8.795,-38.33 -0.91211,-7.975 -2.0728,-15.28 -2.5793,-16.234 -0.50653,-0.95365 -1.3798,-10.629 -1.9405,-21.5 -0.56,-10.88 -1.47,-24.95 -2.0214,-31.27 -0.5513,-6.32 -1.4341,-18.02 -1.9616,-26 -0.5275,-7.98 -1.4183,-19.68 -1.9794,-26 -0.5611,-6.32 -1.4781,-20.05 -2.0379,-30.5 -0.5597,-10.45 -1.4675,-23.28 -2.0173,-28.5 -0.5498,-5.22 -1.2791,-33.5 -1.6207,-62.83 l -0.62103,-53.33 5.3881,-5.5 c 5.5859,-5.7056 13.336,-10.306 20.708,-12.291 3.4926,-0.94045 4.8998,-2.0959 7.7328,-6.3491 1.9048,-2.8597 5.2794,-7.6744 7.4993,-10.699 2.2198,-3.025 5.1258,-7.075 6.4578,-9 5.2441,-7.579 17.375,-23.277 24.999,-32.35 5.8878,-7.0065 8.0944,-9.7752 14.71,-18.457 1.804,-2.36 5.756,-7.13 8.781,-10.58 13.561,-15.471 25,-32.007 25,-36.142 0,-1.7449 0.45926,-4.4899 1.0206,-6.1001 0.56132,-1.6102 1.3488,-15.373 1.75,-30.584 l 0.73,-27.654 2.78,-2.8967 c 4.16,-4.3473 11.22,-5.2333 41.68,-5.2333 20.8,0 27.34,0.32276 31.6,1.5597 7.21,2.0964 10.44,5.9077 10.44,12.317 0,4.745 1.25,7.123 3.74,7.123 0.7377,0 4.8564,-1.7229 9.1526,-3.8288 11.666,-5.7182 15.198,-6.439 29.268,-5.974 11.665,0.38552 12.693,0.59142 18.838,3.7719 11.436,5.9188 20.484,12.662 28.349,21.128 13.008,14.002 16.101,23.827 15.393,48.903 -0.4,14.163 -0.71237,16.307 -3.6221,24.862 -1.7514,5.1492 -3.903,10.774 -4.7813,12.5 -3.3913,6.6637 -21.808,35.325 -24.99,38.891 -1.8418,2.0641 -3.3487,4.0253 -3.3487,4.3582 0,0.33293 2.192,3.3691 4.8711,6.7471 2.6791,3.378 7.1656,9.7418 9.97,14.142 7.654,12.009 8.0684,12.5 10.546,12.5 3.8653,0 14.471,5.9545 20.347,11.424 l 5.5728,5.1871 -1.149,17.626 c -0.63195,9.6943 -1.5864,19.794 -2.121,22.445 -0.5346,2.6502 -1.448,18.544 -2.0297,35.319 -0.58173,16.775 -1.7092,49.625 -2.5056,73 -0.79634,23.375 -1.925,53.3 -2.5081,66.5 -1.3405,30.345 -6.4696,92.625 -8.4415,102.5 -0.82367,4.125 -1.7488,9.1537 -2.0557,11.175 -0.80364,5.2912 -9.7124,16.799 -17.567,22.692 -21.479,16.114 -53.462,27.036 -93.929,32.077 -7.6478,0.95266 -56.33,1.2457 -65,0.39126 z M 100.53,225.96 c 0.62452,-1.0105 22.47,-102.5 22.473,-104.41 9.3e-4,-0.6 -0.32754,-0.6 -0.89157,0 -1.7048,1.8135 -55.978,98.274 -56.292,100.05 -0.38243,2.1637 2.2342,2.9392 14.185,4.204 12.241,1.2956 19.786,1.3535 20.525,0.15754 z m 163.21,-88.21 c 4.1715,-4.4895 18.373,-29.411 20.372,-35.75 1.3659,-4.3308 2.2361,-10.542 2.6074,-18.611 0.52231,-11.35 0.40719,-12.417 -1.8322,-16.976 -3.2222,-6.5606 -14.574,-18.374 -21.09,-21.947 -6.9572,-3.8151 -13.629,-3.8249 -24.019,-0.03542 -8.683,3.1668 -13.866,7.0578 -17.923,13.456 -2.77,4.363 -2.86,4.914 -2.86,17.586 0,14.608 -0.28408,13.804 8.4909,24.027 2.8326,3.3 7.5009,9.15 10.374,13 2.8731,3.85 6.9962,9.25 9.1624,12 2.1662,2.75 5.7846,7.3625 8.0407,10.25 2.2562,2.8875 4.6604,5.25 5.3428,5.25 0.68234,0 2.1814,-1.0125 3.3312,-2.25 z m 21.696,-17.813 c 3.7671,-7.2044 1.673,-6.0276 -2.3569,1.3245 -1.8806,3.431 -2.7006,5.6474 -1.822,4.9255 0.87852,-0.72196 2.759,-3.5345 4.179,-6.25 z M 140.796,89.599 c 5.0455,-2.6091 6.3378,-4.9046 6.004,-10.664 -0.2768,-4.7761 -0.57293,-5.3692 -3.099,-6.207 -4.03,-1.338 -7.7,-0.17 -7.7,2.45 0,1.1787 -0.74183,4.4964 -1.6485,7.3727 -0.90668,2.8763 -1.3708,5.9534 -1.0314,6.8379 0.75963,1.9795 3.8907,2.0677 7.4819,0.21059 z m 3.2,-65.288 c 0,-2.0788 0.57649,-3.5976 1.5,-3.952 2.8871,-1.1079 1.4661,-2.4796 -2.25,-2.172 -3.7288,0.30861 -3.7518,0.33796 -4.0598,5.1833 -0.1704,2.6801 -0.0485,5.5539 0.27085,6.3861 1.03,2.687 4.54,-1.521 4.54,-5.445 z" />
    <path
       id="path2830"
       fill="#ac9978"
       d="m 131.04,599.3 c -3.4931,-0.2663 -4.9729,-0.71903 -4.1046,-1.2557 0.90081,-0.55673 -0.62674,-1.2123 -4.5375,-1.9474 -24.924,-4.69 -39.431,-9 -58.4,-17.35 -10.033,-4.418 -12.963,-6.101 -18.661,-10.719 -0.6383,-0.51743 -1.4237,-4.4482 -1.7453,-8.7349 -0.321,-4.29 -1.039,-12.3 -1.595,-17.8 -0.556,-5.5 -1.008,-14.59 -1.005,-20.19 0.004,-5.72 -0.433,-10.46 -0.994,-10.81 -0.552,-0.34 -0.989,-4.73 -0.976,-9.81 0.013,-5.05 -0.649,-19.31 -1.472,-31.69 -0.8229,-12.375 -1.9864,-30.375 -2.5856,-40 -0.5992,-9.625 -1.9691,-28.89 -3.0442,-42.81 -1.0751,-13.921 -2.8396,-39.571 -3.921,-57 -2.059,-33.18 -4.624,-70.79 -5.806,-85.13 l -0.695,-8.43 -5.5,-2.82 c -3.025,-1.5517 -7.2311,-4.2895 -9.3469,-6.0841 -3.1695,-2.6883 -3.9382,-4.0727 -4.3653,-7.8624 -0.47972,-4.256 -0.22976,-4.9206 3.3469,-8.898 4.959,-5.5147 11.03,-9.3553 18.962,-11.995 5.491,-1.8273 6.7091,-2.7114 9.3475,-6.7845 1.6686,-2.5758 4.8585,-7.1584 7.0888,-10.183 2.2303,-3.025 5.1449,-7.075 6.4768,-9 5.2441,-7.579 17.375,-23.277 24.999,-32.35 5.9545,-7.086 8.365,-10.113 14.71,-18.475 1.8048,-2.3784 5.4189,-6.6969 8.0313,-9.5965 8.0598,-8.9459 24.655,-31.862 26.128,-36.079 2.8334,-8.1137 3.7865,-17.45 4.3522,-42.637 l 0.57923,-25.785 2.5952,-2.432 c 4.139,-3.8787 10.856,-4.6475 40.394,-4.6237 25.185,0.020334 27.533,0.17264 31.683,2.055 6.7,3.0406 8.02,4.6073 8.02,9.5157 0,5.6512 1.369,9.0119 3.9458,9.6857 1.3051,0.34129 5.9681,-1.2147 12.327,-4.1133 l 10.23,-4.662 h 15.041 c 14.054,0 15.366,0.16396 20,2.5 10.847,5.4682 21.662,13.403 29.085,21.341 13.18,14.094 15.929,23.091 15.142,49.56 -0.42282,14.227 -0.74312,16.422 -3.6394,24.936 -3.3607,9.8801 -4.9848,13.202 -10.931,22.357 -2.0337,3.1313 -6.1394,9.6563 -9.1239,14.5 -2.9845,4.8437 -7.147,10.709 -9.25,13.034 -2.103,2.3252 -3.8237,4.6945 -3.8237,5.2651 0,0.57062 2.5875,4.3025 5.75,8.2931 4.892,6.173 10.543,14.49 15.849,23.329 0.77334,1.2881 3.1522,2.5852 6.0852,3.3182 5.596,1.3985 13.202,5.8886 18.614,10.988 2.089,1.9685 4.114,3.5791 4.5,3.5791 0.90984,0 0.21724,27.841 -0.70899,28.5 -1.6239,1.1549 -3.1651,18.349 -4.1232,46 -0.56219,16.225 -1.6721,48.625 -2.4664,72 -0.79432,23.375 -1.9098,53.075 -2.4787,66 -1.3972,31.739 -6.748,96.181 -8.5578,103.07 -0.8047,3.0611 -1.4828,6.8861 -1.507,8.5 -0.21508,14.378 -20.604,32.237 -49.584,43.43 -16.74,6.46 -47.15,14 -56.5,14 -1.4862,0 -2.8894,0.5625 -3.1182,1.25 -0.32009,0.96158 -7.6652,1.2746 -31.833,1.3568 -17.279,0.0588 -33.875,-0.0806 -36.88,-0.30963 z M 102,226.36 c 0,-0.9002 4.95,-24.873 11,-53.274 10.872,-51.034 11.868,-56.414 10.107,-54.54 -0.86723,0.92255 -54.051,94.57 -57.537,101.31 -1.2652,2.4472 -1.4397,3.6649 -0.63966,4.4649 1.2917,1.2917 18.226,3.3309 29.32,3.5306 6.5668,0.11824 7.75,-0.11034 7.75,-1.4972 z m 162.17,-88.11 c 2.7746,-3.0035 12.9,-19.497 17.343,-28.25 4.0791,-8.0365 5.4904,-14.139 6.1733,-26.692 0.58976,-10.841 0.52043,-11.374 -2.2139,-17 -6.43,-13.229 -22.6,-25.762 -32.97,-25.555 -6.8303,0.1367 -20.779,5.6008 -25.741,10.083 -6.5989,5.9617 -8.9407,11.914 -9.5234,24.207 -0.60814,12.831 -0.0684,14.246 9.952,26.106 3.8807,4.5929 9.1384,11.232 11.684,14.754 2.5454,3.5217 5.9922,8.0217 7.6594,10 1.6672,1.9783 4.9845,6.1843 7.3716,9.3468 2.3871,3.1625 5.1013,5.75 6.0315,5.75 0.93021,0 2.8345,-1.2375 4.2318,-2.75 z m 11.944,-1 c 8.3848,-13.625 12.669,-21.848 11.828,-22.7 -0.59245,-0.6 -1.2687,-0.6 -1.8356,0 -1.46,1.55 -13.1,24.01 -13.1,25.28 0,1.927 0.68503,1.3581 3.1102,-2.5827 z M 140.284,90.618 c 5.93,-2.547 7.72,-5.107 7.72,-11.035 0,-5.842 -0.81,-6.992 -5.69,-8.034 -4.15,-0.887 -7.31,0.821 -7.31,3.951 0,1.3364 -0.71607,4.539 -1.5913,7.1168 -1.2056,3.551 -1.332,5.256 -0.52144,7.0349 1.2289,2.6972 2.8664,2.911 7.3948,0.96556 z m 161.84,-40.435 c -1.727,-2.6914 -4.0945,-5.746 -5.261,-6.788 l -2.12,-1.895 2.0845,4.1165 c 2.3712,4.6826 7.1777,10.719 7.9332,9.9638 0.27731,-0.27732 -0.90882,-2.7062 -2.6359,-5.3976 z M 290.504,36 c -2.7086,-2.75 -5.1498,-5 -5.4248,-5 -0.275,0 1.7162,2.25 4.4248,5 2.7086,2.75 5.1498,5 5.4248,5 0.275,0 -1.7162,-2.25 -4.4248,-5 z m -146.47,-7.052 c 0.53,-0.999 0.97,-3.206 0.97,-4.904 0,-2.3226 0.61918,-3.3693 2.5,-4.2263 3.97,-1.809 2.93,-2.818 -2.89,-2.818 -6.16,0 -6.61,0.541 -6.61,7.882 0,6.7397 3.3776,9.0182 6.0278,4.0663 z m 31.77,-23.691 c -4.2364,-0.18698 -11.436,-0.18802 -16,-0.0023 -4.57,0.1863 -1.1,0.3392 7.7,0.3405 8.8,0.00127 12.534,-0.15068 8.2975,-0.33766 z" />
    <path
       id="path2828"
       fill="#95938a"
       d="m 131.04,599.3 c -3.4931,-0.2663 -4.9729,-0.71903 -4.1046,-1.2557 0.90081,-0.55673 -0.62674,-1.2123 -4.5375,-1.9474 -24.924,-4.69 -39.431,-9 -58.4,-17.35 -10.033,-4.418 -12.963,-6.101 -18.661,-10.719 -0.6383,-0.51743 -1.4237,-4.4482 -1.7453,-8.7349 -0.321,-4.29 -1.039,-12.3 -1.595,-17.8 -0.556,-5.5 -1.008,-14.59 -1.005,-20.19 0.004,-5.72 -0.433,-10.46 -0.994,-10.81 -0.552,-0.34 -0.989,-4.73 -0.976,-9.81 0.013,-5.05 -0.649,-19.31 -1.472,-31.69 -0.8229,-12.375 -1.9864,-30.375 -2.5856,-40 -0.5992,-9.625 -1.9668,-28.861 -3.0392,-42.746 -1.0724,-13.885 -2.8535,-39.76 -3.9581,-57.5 -1.8112,-29.088 -3.5882,-55.581 -5.564,-82.952 l -0.70006,-9.6984 4.8974,1.3534 c 2.6936,0.74436 7.5974,2.2903 10.897,3.4354 3.3,1.1451 13.65,3.6423 23,5.5492 14.19,2.894 20.968,3.6814 41,4.7629 56.968,3.0758 152.41,-0.25963 181,-6.3256 19.081,-4.048 34.003,-9.8695 40.963,-15.98 3.0893,-2.7124 3.5389,-3.6935 3.5522,-7.7519 0.0166,-5.0268 1.2383,-8.1632 2.4291,-6.2363 0.85689,1.3865 -0.46754,29.09 -1.3907,29.09 -1.4747,0 -3.158,19.054 -4.108,46.5 -0.55207,15.95 -1.6532,48.125 -2.447,71.5 -0.7938,23.375 -1.9088,53.075 -2.4778,66 -1.3972,31.739 -6.748,96.181 -8.5578,103.07 -0.8047,3.0611 -1.4828,6.8861 -1.507,8.5 -0.21508,14.378 -20.604,32.237 -49.584,43.43 -16.73,6.46 -47.14,14 -56.49,14 -1.4862,0 -2.8894,0.5625 -3.1182,1.25 -0.32009,0.96158 -7.6652,1.2746 -31.833,1.3568 -17.279,0.0588 -33.875,-0.0806 -36.88,-0.30963 z M 125.5,231 c -0.33992,-0.55 -4.6122,-1 -9.4939,-1 -9.79,0 -14.01,-1.09 -14.01,-3.61 0,-0.91381 4.95,-24.898 11,-53.298 10.872,-51.034 11.868,-56.414 10.107,-54.54 -0.96403,1.0255 -54.576,95.529 -57.989,102.22 l -2.0642,4.0462 -6.2768,-0.53659 c -3.452,-0.3 -7.852,-1.2 -9.777,-2 -1.925,-0.80477 -5.5718,-2.0946 -8.1039,-2.8664 -2.5322,-0.77174 -6.6947,-3.2435 -9.25,-5.4928 -4.015,-3.53 -4.646,-4.61 -4.646,-7.94 0,-5.1488 1.4497,-8.6707 3.8877,-9.4444 1.1012,-0.34952 3.372,-2.7505 5.0462,-5.3356 1.6742,-2.585 4.8688,-7.1751 7.0991,-10.2 2.2303,-3.025 5.1449,-7.075 6.4768,-9 5.2441,-7.579 17.375,-23.277 24.999,-32.35 5.9545,-7.086 8.365,-10.113 14.71,-18.475 1.8048,-2.3784 5.4189,-6.6969 8.0313,-9.5965 8.0598,-8.9459 24.655,-31.862 26.128,-36.079 2.8334,-8.1137 3.7865,-17.45 4.3522,-42.637 l 0.57923,-25.785 2.5952,-2.432 c 4.139,-3.8787 10.856,-4.6475 40.394,-4.6237 25.185,0.020334 27.533,0.17264 31.683,2.055 6.6193,3.0025 8.016,4.6246 8.0316,9.328 0.0373,11.198 2.4353,12.057 16.173,5.796 l 10.32,-4.698 h 15.041 c 14.054,0 15.366,0.16396 20,2.5 10.847,5.4682 21.662,13.403 29.085,21.341 13.18,14.094 15.929,23.091 15.142,49.56 -0.42282,14.227 -0.74312,16.422 -3.6394,24.936 -3.3607,9.8801 -4.9848,13.202 -10.931,22.357 -2.0337,3.1313 -6.1394,9.6563 -9.1239,14.5 -2.9845,4.8437 -7.147,10.709 -9.25,13.034 -2.1,2.33 -3.82,4.72 -3.82,5.31 0,0.59163 2.4218,4.0892 5.3818,7.7724 2.96,3.6832 7.6474,10.297 10.417,14.697 2.7691,4.4 6.0848,9.1097 7.3682,10.466 7.6373,8.0711 5.9612,14.054 -5.1665,18.443 -2.475,0.97621 -5.85,2.3933 -7.5,3.1492 -1.65,0.75584 -5.8226,1.6736 -9.2724,2.0396 -3.4498,0.36592 -6.5139,1.056 -6.809,1.5336 -0.3,0.48 -2.28,0.87 -4.42,0.87 -2.1351,0 -4.1601,0.45 -4.5,1 -0.33992,0.55 -2.0765,1 -3.859,1 -1.7825,0 -3.7321,0.49115 -4.3324,1.0914 -0.69517,0.69517 -9.8574,1.2951 -25.235,1.6524 -13.279,0.30854 -24.379,0.94238 -24.668,1.4086 -0.76457,1.2371 -79.139,1.0876 -79.906,-0.15242 z m 138.67,-92.75 c 2.7746,-3.0035 12.9,-19.497 17.343,-28.25 4.0791,-8.0365 5.4904,-14.139 6.1733,-26.692 0.58976,-10.841 0.52043,-11.374 -2.2139,-17 -6.43,-13.229 -22.6,-25.762 -32.97,-25.555 -6.8303,0.1367 -20.779,5.6008 -25.741,10.083 -6.5989,5.9617 -8.9407,11.914 -9.5234,24.207 -0.60814,12.831 -0.0684,14.246 9.952,26.106 3.8807,4.5929 9.1384,11.232 11.684,14.754 2.5454,3.5217 5.9922,8.0217 7.6594,10 1.6672,1.9783 4.9845,6.1843 7.3716,9.3468 2.3871,3.1625 5.1013,5.75 6.0315,5.75 0.93021,0 2.8345,-1.2375 4.2318,-2.75 z m 11.944,-1 c 8.3848,-13.625 12.669,-21.848 11.828,-22.7 -0.59245,-0.6 -1.2687,-0.6 -1.8356,0 -1.46,1.55 -13.1,24.01 -13.1,25.28 0,1.927 0.68503,1.3581 3.1102,-2.5827 z M 140.284,90.618 c 5.93,-2.547 7.72,-5.107 7.72,-11.035 0,-5.842 -0.81,-6.992 -5.69,-8.034 -4.15,-0.887 -7.31,0.821 -7.31,3.951 0,1.3364 -0.71607,4.539 -1.5913,7.1168 -1.2056,3.551 -1.332,5.256 -0.52144,7.0349 1.2289,2.6972 2.8664,2.911 7.3948,0.96556 z m 161.84,-40.435 c -1.727,-2.6914 -4.0945,-5.746 -5.261,-6.788 l -2.12,-1.895 2.0845,4.1165 c 2.3712,4.6826 7.1777,10.719 7.9332,9.9638 0.27731,-0.27732 -0.90882,-2.7062 -2.6359,-5.3976 z M 290.504,36 c -2.7086,-2.75 -5.1498,-5 -5.4248,-5 -0.275,0 1.7162,2.25 4.4248,5 2.7086,2.75 5.1498,5 5.4248,5 0.275,0 -1.7162,-2.25 -4.4248,-5 z m -146.47,-7.052 c 0.53,-0.999 0.97,-3.206 0.97,-4.904 0,-2.3226 0.61918,-3.3693 2.5,-4.2263 3.97,-1.809 2.93,-2.818 -2.89,-2.818 -6.16,0 -6.61,0.541 -6.61,7.882 0,6.7397 3.3776,9.0182 6.0278,4.0663 z m 31.77,-23.691 c -4.2364,-0.18698 -11.436,-0.18802 -16,-0.0023 -4.57,0.1863 -1.1,0.3392 7.7,0.3405 8.8,0.00127 12.534,-0.15068 8.2975,-0.33766 z" />
    <path
       id="path2826"
       fill="#99907e"
       d="m 131,599 -5.5,-0.67401 5.5,-0.31001 5.5,-0.31002 -5.5,-0.74076 c -11.207,-1.5095 -28.382,-5.1088 -38.5,-8.0687 -14.464,-4.2313 -36.521,-13.542 -43.152,-18.217 l -4.181,-2.947 -0.60338,-9.6162 c -0.333,-5.29 -1.045,-13.48 -1.584,-18.19 -0.539,-4.71 -0.98,-13.35 -0.98,-19.19 0,-6 -0.435,-10.89 -1,-11.24 -0.552,-0.34 -0.989,-4.73 -0.976,-9.81 0.013,-5.05 -0.649,-19.31 -1.472,-31.69 -0.8229,-12.375 -1.9864,-30.375 -2.5856,-40 -0.5992,-9.625 -1.9691,-28.89 -3.0442,-42.81 -1.0751,-13.921 -2.8396,-39.571 -3.921,-57 -2.6176,-42.187 -4.8771,-74.981 -5.8078,-84.292 l -0.75985,-7.6023 4.5332,1.2573 c 2.4933,0.69153 7.2332,2.1942 10.533,3.3394 3.3,1.1451 13.65,3.6423 23,5.5492 14.19,2.894 20.968,3.6814 41,4.7629 56.968,3.0758 152.41,-0.25963 181,-6.3256 19.081,-4.048 34.003,-9.8695 40.963,-15.98 3.0893,-2.7124 3.5389,-3.6935 3.5522,-7.7519 0.0166,-5.0268 1.2383,-8.1632 2.4291,-6.2363 0.87485,1.4155 -0.4813,29.185 -1.3976,28.619 -1.4372,-0.88824 -3.1397,18.196 -4.1011,45.971 -0.55207,15.95 -1.6532,48.125 -2.447,71.5 -0.7938,23.375 -1.9088,53.075 -2.4778,66 -1.3972,31.739 -6.748,96.181 -8.5578,103.07 -0.8047,3.0611 -1.4828,6.8861 -1.507,8.5 -0.0684,4.5743 -2.1969,9.4921 -6.8125,15.74 -10.1,13.672 -32.236,26.021 -62.809,35.041 -11.85,3.49 -32.26,7.64 -37.59,7.64 -1.5645,0 -2.6043,0.38866 -2.3107,0.8637 0.29359,0.47503 -1.8174,1.1461 -4.691,1.4913 -6.72,0.8 -56.51,0.52 -63.73,-0.36 z m -5.55,-367.92 c -0.5225,-0.50361 -5.5409,-1.0661 -11.152,-1.25 -6.1408,-0.20124 -10.676,-0.80942 -11.393,-1.5278 -0.92207,-0.92366 1.344,-13.132 10.024,-54 6.1684,-29.044 11.457,-53.819 11.752,-55.057 0.29516,-1.2375 0.0936,-2.25 -0.448,-2.25 -0.95977,0 -58.244,100.27 -60.154,105.29 -0.92073,2.4217 -1.2231,2.5044 -7.2695,1.9874 -3.471,-0.29 -7.885,-1.19 -9.81,-1.99 -1.925,-0.80477 -5.5718,-2.0946 -8.1039,-2.8664 -2.5322,-0.77174 -6.6947,-3.2435 -9.25,-5.4928 -4.1711,-3.6716 -4.6389,-4.5154 -4.5758,-8.2546 0.09264,-5.4896 0.9776,-7.5059 3.9434,-8.9845 1.3496,-0.67284 4.0361,-3.541 5.97,-6.3738 11.276,-16.516 32.002,-44.1 40.43,-53.807 4.5525,-5.2433 8.6997,-10.521 16.022,-20.391 1.0647,-1.435 4.2147,-5.1194 7,-8.1874 10.485,-11.551 23.245,-29.419 24.075,-33.726 0.29,-1.482 1,-4.719 1.57,-7.194 0.57871,-2.475 1.3192,-16.87 1.6456,-31.988 l 0.59344,-27.488 2.635,-2.635 c 4.14,-4.1384 10.32,-4.889 40.24,-4.889 26.884,0 27.148,0.020456 32.425,2.5169 6.26,2.9601 7.38,4.6642 7.38,11.262 0,5.151 1.98,8.221 5.31,8.221 0.90854,0 5.3731,-1.7575 9.9213,-3.9056 12.393,-5.8531 14.883,-6.3615 28.85,-5.8913 12.077,0.40661 12.613,0.52149 19.42,4.1606 12.044,6.4393 20.459,12.74 27.76,20.787 12.204,13.451 15.313,23.902 14.504,48.769 -0.42349,13.021 -0.81253,15.577 -3.6366,23.899 -3.3563,9.8896 -5.9533,15.192 -11.928,24.355 -2.0346,3.1204 -6.312,9.9229 -9.5054,15.117 -3.1934,5.1938 -7.1309,10.713 -8.75,12.264 -1.6191,1.5512 -2.9438,3.4957 -2.9438,4.3211 0,0.82537 1.9627,4.0037 4.3616,7.0629 5.1,6.53 16.63,23.92 16.63,25.11 0,0.45275 0.90494,1.1104 2.011,1.4614 2.352,0.74648 4.989,5.3767 4.989,8.7598 0,3.0061 -4.221,6.8666 -10,9.1461 -2.475,0.97621 -5.85,2.3933 -7.5,3.1492 -1.65,0.75584 -5.8226,1.6736 -9.2724,2.0396 -3.4498,0.36592 -6.5139,1.056 -6.809,1.5336 -0.3,0.48 -2.28,0.87 -4.42,0.87 -2.1351,0 -4.1601,0.45 -4.5,1 -0.33992,0.55 -2.0765,1 -3.859,1 -1.7825,0 -3.7321,0.49115 -4.3324,1.0914 -0.69517,0.69517 -9.8574,1.2951 -25.235,1.6524 -13.279,0.30854 -24.379,0.94238 -24.668,1.4086 -0.71573,1.1581 -78.753,1.0916 -79.956,-0.0681 z m 150.23,-92.33 c 1.4885,-2.3375 3.6317,-5.8936 4.7626,-7.9026 1.1309,-2.0089 3.5488,-6.2181 5.3733,-9.3538 3.6041,-6.1945 3.7382,-10.53 0.21412,-6.9269 -2.33,2.38 -14.03,24.82 -14.03,26.91 0,2.402 0.78137,1.8221 3.6813,-2.7318 z m -10.578,-1.4139 c 2.6688,-2.9074 12.801,-19.291 16.906,-27.336 3.6658,-7.1849 5.0465,-13.661 5.68,-26.643 0.55194,-11.309 0.43328,-12.477 -1.7279,-17 -3.04,-6.371 -16.12,-19.861 -22.46,-23.163 -13.14,-6.85 -36.02,1.667 -43.79,16.302 -1.7008,3.205 -2.2028,6.2364 -2.5254,15.252 -0.22152,6.1884 -0.14143,12.293 0.17796,13.565 0.31939,1.2726 3.4269,5.6593 6.9056,9.7483 3.4787,4.089 8.6859,10.585 11.572,14.435 6.1751,8.2388 11.831,15.48 18.453,23.624 5.2718,6.4835 5.9039,6.5544 10.808,1.2121 z m -120.58,-48.925 c 3.5196,-2.6845 3.5587,-2.796 3.27,-9.315 l -0.29,-6.598 -4.37,-0.919 c -2.7913,-0.58668 -4.9392,-0.56124 -5.9405,0.07035 -1.3919,0.87798 -3.2187,6.3615 -4.8658,14.606 -1.2572,6.2927 5.266,7.4454 12.201,2.156 z m 160.45,-33.991 c -2.46,-6.476 -18.82,-25.424 -21.96,-25.424 -0.80337,0 1.5197,3.0375 5.1624,6.75 3.6427,3.7125 7.5466,8.6024 8.6754,10.866 3.7438,7.5093 10.462,13.97 8.1191,7.8079 z m -161.8,-24.079 c 1.07,-0.971 1.83,-3.029 1.83,-4.977 0,-2.4399 0.66378,-3.7569 2.5,-4.96 3.9341,-2.5777 2.9671,-3.5322 -3.25,-3.2079 l -5.75,0.3 -0.30402,5.888 c -0.44885,8.6929 0.92868,10.619 4.9753,6.957 z m 130.39,-6.8768 c -1.0676,-0.80751 -2.4176,-1.4539 -3,-1.4364 -0.58238,0.01749 -0.18536,0.69249 0.88226,1.5 1.06762,0.80751 2.4176,1.4539 3,1.4364 0.58238,-0.01749 0.18536,-0.69249 -0.88226,-1.5 z M 140.842,7.7553 c 1.8961,-1.8961 51.243,-1.7647 53.541,0.1425 2.2934,1.9034 3.4061,0.4574 1.2823,-1.6664 -1.5346,-1.5346 -4.4503,-1.7153 -27.44,-1.7009 -25.39,0.0159 -30.22,0.5757 -30.22,3.5007 0,1.3379 1.3589,1.2059 2.8407,-0.27592 z" />
    <path
       id="path2824"
       fill="#88826c"
       d="m 171.51,542.25 c -0.28827,-31.762 -0.74926,-109.47 -1.0244,-172.69 -0.39918,-91.703 -0.24595,-115.1 0.75807,-115.73 0.69211,-0.43938 8.0084,-0.80212 16.258,-0.80607 28.095,-0.0135 83.555,-4.099 95.5,-7.0352 20.219,-4.9698 33.416,-10.018 40.683,-15.56 l 3.32,-2.52 v 6.9199 c 0,3.8059 -0.6457,10.691 -1.4349,15.301 -1.3875,8.1043 -1.9633,20.829 -5.0629,111.88 -0.79573,23.375 -1.9123,53.075 -2.4813,66 -1.3972,31.739 -6.748,96.181 -8.5578,103.07 -0.8047,3.0611 -1.4656,6.6611 -1.4687,8 -0.0256,11.184 -11.528,24.125 -30.767,34.611 -20.269,11.049 -44.259,18.117 -78.728,23.197 -5.5021,0.81087 -5.6681,0.90466 -2,1.1302 l 4,0.2459 -4.5,0.80071 c -2.475,0.44039 -8.8803,0.83407 -14.234,0.87484 l -9.74,0.07 -0.52,-57.75 z m 156.64,-313.2 c -0.11013,-11.204 0.1494,-15.149 0.94432,-14.354 0.78169,0.78169 0.82526,5.2144 0.15187,15.45 l -0.95,14.35 -0.15,-15.45 z M 124,230.01 c -0.825,-0.53998 -5.55,-0.99558 -10.5,-1.0124 -4.95,-0.0168 -9.6309,-0.43009 -10.402,-0.91832 -1.1627,-0.73614 0.51416,-9.9102 9.8218,-53.735 6.1731,-29.066 11.465,-53.859 11.76,-55.097 0.29516,-1.2375 0.0898,-2.25 -0.45635,-2.25 -0.54615,0 -14.629,24.094 -31.294,53.542 l -30.301,53.542 -7.0641,-0.65258 c -3.886,-0.36 -7.965,-1.21 -9.065,-1.89 -1.1,-0.67987 -4.2992,-1.9954 -7.1093,-2.9233 -2.8101,-0.92792 -7.0219,-3.3243 -9.3596,-5.3252 -4.1698,-3.5692 -4.242,-3.7384 -3.8107,-8.9387 0.35476,-4.278 0.96079,-5.7106 3.1412,-7.4257 1.4859,-1.1688 4.2335,-4.4438 6.1058,-7.2777 8.029,-12.15 31.128,-42.9 39.55,-52.65 4.9079,-5.681 8.9562,-10.832 16.419,-20.891 1.0647,-1.435 4.2147,-5.1194 7,-8.1874 10.484,-11.551 23.244,-29.419 24.074,-33.726 0.29,-1.482 1,-4.719 1.57,-7.194 0.57871,-2.475 1.3192,-16.87 1.6456,-31.988 l 0.59344,-27.488 2.635,-2.635 c 4.14,-4.1384 10.32,-4.889 40.24,-4.889 26.884,0 27.148,0.020456 32.425,2.5169 6.26,2.9601 7.38,4.6642 7.38,11.262 0,5.151 1.98,8.221 5.31,8.221 0.90854,0 5.3731,-1.7575 9.9213,-3.9056 12.393,-5.8531 14.883,-6.3615 28.85,-5.8913 12.077,0.40661 12.613,0.52149 19.42,4.1606 12.044,6.4393 20.459,12.74 27.76,20.787 12.204,13.451 15.313,23.902 14.504,48.769 -0.42349,13.021 -0.81253,15.577 -3.6366,23.899 -3.3563,9.8896 -5.9533,15.192 -11.928,24.355 -2.0346,3.1204 -6.312,9.9229 -9.5054,15.117 -3.1934,5.1938 -7.1309,10.713 -8.75,12.264 -1.6191,1.5512 -2.9438,3.4957 -2.9438,4.3211 0,0.82537 1.9627,4.0037 4.3616,7.0629 2.3989,3.0592 7.1182,9.8372 10.487,15.062 3.3692,5.225 6.9777,10.4 8.0188,11.5 4.6686,4.9324 5.3596,9.9982 1.8177,13.326 -1.28,1.2 -2.63,2.18 -3,2.18 -0.37559,0 -3.4966,1.3144 -6.9356,2.9209 -3.439,1.6065 -8.9527,3.3889 -12.253,3.9608 -3.3,0.57198 -8.025,1.483 -10.5,2.0244 -2.475,0.54147 -6.3347,1.3844 -8.5771,1.8733 -2.2424,0.48883 -4.628,1.2293 -5.3015,1.6455 -3.3534,2.0726 -129.14,4.5361 -132.12,2.5875 z m 151.68,-91.26 c 1.4885,-2.3375 3.6317,-5.8936 4.7626,-7.9026 1.1309,-2.0089 3.5488,-6.2181 5.3733,-9.3538 3.6041,-6.1945 3.7382,-10.53 0.21412,-6.9269 -2.33,2.38 -14.03,24.82 -14.03,26.91 0,2.402 0.78137,1.8221 3.6813,-2.7318 z m -10.578,-1.4139 c 2.6688,-2.9074 12.801,-19.291 16.906,-27.336 3.6658,-7.1849 5.0465,-13.661 5.68,-26.643 0.55194,-11.309 0.43328,-12.477 -1.7279,-17 -3.04,-6.371 -16.12,-19.861 -22.46,-23.163 -13.14,-6.85 -36.02,1.667 -43.79,16.302 -1.7008,3.205 -2.2028,6.2364 -2.5254,15.252 -0.22152,6.1884 -0.14143,12.293 0.17796,13.565 0.31939,1.2726 3.4269,5.6593 6.9056,9.7483 3.4787,4.089 8.6859,10.585 11.572,14.435 6.1751,8.2388 11.831,15.48 18.453,23.624 5.2718,6.4835 5.9039,6.5544 10.808,1.2121 z m -120.58,-48.925 c 3.5196,-2.6845 3.5587,-2.796 3.27,-9.315 l -0.29,-6.598 -4.37,-0.919 c -2.7913,-0.58668 -4.9392,-0.56124 -5.9405,0.07035 -1.3919,0.87798 -3.2187,6.3615 -4.8658,14.606 -1.2572,6.2927 5.266,7.4454 12.201,2.156 z m 160.45,-33.991 c -2.46,-6.476 -18.82,-25.424 -21.96,-25.424 -0.80337,0 1.5197,3.0375 5.1624,6.75 3.6427,3.7125 7.5466,8.6024 8.6754,10.866 3.7438,7.5093 10.462,13.97 8.1191,7.8079 z m -161.8,-24.079 c 1.07,-0.971 1.83,-3.029 1.83,-4.977 0,-2.4399 0.66378,-3.7569 2.5,-4.96 3.9341,-2.5777 2.9671,-3.5322 -3.25,-3.2079 l -5.75,0.3 -0.30402,5.888 c -0.44885,8.6929 0.92868,10.619 4.9753,6.957 z m 130.39,-6.8768 c -1.0676,-0.80751 -2.4176,-1.4539 -3,-1.4364 -0.58238,0.01749 -0.18536,0.69249 0.88226,1.5 1.06762,0.80751 2.4176,1.4539 3,1.4364 0.58238,-0.01749 0.18536,-0.69249 -0.88226,-1.5 z M 140.842,7.7553 c 1.8961,-1.8961 51.243,-1.7647 53.541,0.1425 2.2934,1.9034 3.4061,0.4574 1.2823,-1.6664 -1.5346,-1.5346 -4.4503,-1.7153 -27.44,-1.7009 -25.39,0.0159 -30.22,0.5757 -30.22,3.5007 0,1.3379 1.3589,1.2059 2.8407,-0.27592 z" />
    <path
       id="path2822"
       fill="#646564"
       d="m 126.61,230.27 c -0.42324,-0.42487 -5.4489,-1.0041 -11.168,-1.2871 -7.3534,-0.36393 -10.815,-0.94961 -11.82,-2 -1.2335,-1.2888 0.0821,-8.5008 9.9394,-54.485 6.2486,-29.15 11.379,-53.6 11.401,-54.333 0.0218,-0.73334 -0.4558,-1.1682 -1.0612,-0.9664 -0.60545,0.20182 -14.314,23.752 -30.464,52.333 -16.151,28.59 -29.8,52.48 -30.333,53.1 -1.651,1.94 -17.104,-0.45 -17.104,-2.64 0,-0.46832 -2.4667,-1.5686 -5.4817,-2.445 -3.6204,-1.0525 -6.8919,-2.9351 -9.6352,-5.5447 -3.8707,-3.6821 -4.1157,-4.2336 -3.5973,-8.0984 0.36185,-2.6978 1.591,-5.2408 3.5169,-7.2762 1.6283,-1.721 4.1385,-4.929 5.5781,-7.129 1.4396,-2.2 4.4377,-6.475 6.6624,-9.5 2.2247,-3.025 5.1346,-7.075 6.4665,-9 5.2441,-7.579 17.375,-23.277 24.999,-32.35 5.9829,-7.1198 8.4664,-10.24 14.71,-18.483 1.8048,-2.3826 5.5491,-6.8826 8.3208,-10 7.5878,-8.5342 18.944,-23.349 23.009,-30.016 4.261,-6.9889 6.2616,-24.491 6.382,-55.829 l 0.07,-18.165 2.54,-1.9983 c 4.34,-3.4153 11.36,-4.1467 39.76,-4.1465 l 27.2,2.5726e-4 5.5,2.90540004 5.5,2.9054 0.83959,6.8443997 c 0.46178,3.7644 1.3044,7.4069 1.8724,8.0944 1.7284,2.0918 5.3659,1.4278 14.02,-2.5594 12.38,-5.704 16.062,-6.4674 28.947,-6.0027 10.428,0.37606 11.834,0.66955 17.821,3.7198 11.901,6.0633 22.655,13.907 29.403,21.448 11.701,13.073 15.045,24.178 14.351,47.645 -0.40181,13.579 -0.67239,15.224003 -4.2579,25.885003 -2.1059,6.2618 -5.4793,13.912 -7.4966,17 -2.0172,3.0882 -7.2001,11.24 -11.517,18.115 -4.3173,6.875 -9.342,14.094 -11.166,16.042 -1.8239,1.9482 -3.3162,3.8586 -3.3162,4.2453 0,0.38673 3.0646,4.7396 6.8102,9.6732 3.7456,4.9335 8.5132,11.798 10.595,15.255 2.0815,3.4566 5.161,8.4291 6.8433,11.05 4.0508,6.3112 3.0452,8.7348 -5.2525,12.659 -3.3053,1.5631 -6.6975,3.413 -7.5384,4.1109 -0.84087,0.69785 -5.0003,1.8887 -9.2431,2.6462 -4.2428,0.75757 -9.5143,1.7895 -11.714,2.2932 -10.214,2.3385 -12.111,2.8211 -13.683,3.481 -4.4257,1.858 -125.49,4.5387 -127.21,2.8166 z m 153.87,-99.486 c 4.3513,-7.2676 7.9368,-14.13 7.9678,-15.25 0.13559,-4.8923 -3.1431,-1.1302 -9.4662,10.862 -6.36,12.07 -8.58,17.61 -7.06,17.61 0.35392,0 4.2036,-5.9462 8.5549,-13.214 z m -16.27,7.47 c 1.9895,-2.0625 6.2023,-8.0163 9.3618,-13.231 11.915,-19.665 14.405,-27.573 14.419,-45.809 0.01,-11.73 -1.445,-14.811 -12.21,-25.859 -13.507,-13.862 -20.965,-15.791 -37.263,-9.6363 -8.3248,3.1435 -15.54,9.4176 -19.25,16.74 -2.0808,4.1063 -2.6202,6.8753 -3.0321,15.564 -0.58711,12.387 -0.19065,13.481 8.5988,23.741 3.1756,3.7068 8.1316,9.8896 11.013,13.74 13.55,18.103 22.124,28.5 23.503,28.5 0.68316,0 2.8699,-1.6875 4.8594,-3.75 z m -120.32,-49.289 4.2,-3.038 -0.3,-6.712 -0.29,-6.711 -3.61,-0.893 c -6.8429,-1.6911 -8.166,-0.62817 -10.244,8.2297 -1.0212,4.3533 -1.5534,8.8709 -1.1826,10.039 1.0268,3.2352 6.2862,2.8144 11.434,-0.91469 z M 302.85,50.386 c -5.11,-8.44 -16.33,-20.084 -22.23,-23.065 -2.81,-1.423 -6.19,-3.426 -7.5,-4.452 -1.32,-1.026 -2.83,-1.865 -3.38,-1.865 -1.9992,0 1.6143,3.0275 7.6263,6.3896 7.0295,3.9311 16.358,13.196 19.512,19.377 2.6691,5.2319 8.4089,11.864 8.9258,10.313 0.21305,-0.63915 -1.1188,-3.653 -2.9597,-6.6974 z M 143.17,30.349 c 1.09,-0.984 1.83,-3.031 1.83,-5.046 0,-2.7205 0.59216,-3.7285 2.9931,-5.095 1.6462,-0.93692 2.8489,-2.1535 2.6727,-2.7035 -0.38432,-1.1994 -7.0315,-1.876 -10.321,-1.0505 -2.17,0.545 -2.34,1.088 -2.34,7.402 0,8.5551 1.2115,10.076 5.1713,6.4926 z M 166.75,7.221 c 17.312,-0.19396 25.916,0.071031 27.357,0.84264 2.7859,1.491 4.6004,-0.22391 2.2772,-2.1521 -2.458,-2.04 -54.28,-2.0722 -56.735,-0.035174 -2.2218,1.8438 -2.1544,3.5867 0.0962,2.4845 0.9625,-0.47134 13.114,-0.98431 27.004,-1.1399 z" />
    <path
       id="path2820"
       fill="#0a120f"
       d="m 124.5,228.01 c -1.1,-0.47905 -6.1359,-0.90263 -11.191,-0.94128 -5.055,-0.0387 -9.3901,-0.40779 -9.6334,-0.82029 -0.24331,-0.4125 4.6623,-24.6 10.901,-53.75 6.2391,-29.15 11.362,-54.518 11.383,-56.372 0.0328,-2.7942 -0.20272,-3.1714 -1.3735,-2.1997 -0.77717,0.645 -15.028,25.23 -31.668,54.633 l -30.255,53.46 -6.582,-0.63138 c -3.6201,-0.34726 -7.1392,-1.1504 -7.8203,-1.7847 -0.96879,-0.90227 1.119,-5.066 9.5918,-19.129 22.753,-37.77 33.886,-56.26 38.521,-63.98 2.6411,-4.4 7.7044,-12.725 11.252,-18.5 3.5474,-5.775 8.8958,-14.597 11.885,-19.605 2.9896,-5.0079 6.1227,-9.6755 6.9625,-10.372 0.83976,-0.69694 1.5335,-2.4496 1.5416,-3.8947 0.008,-1.4452 0.64796,-5.3276 1.4218,-8.6276 0.79897,-3.407 1.8922,-17.417 2.5297,-32.418 0.61747,-14.53 1.342,-26.772 1.6102,-27.206 0.26812,-0.43384 1.1306,-0.54203 1.9165,-0.24043 1.0415,0.39965 1.5074,2.7578 1.718,8.6953 0.24773,6.9844 0.55141,8.1971 2.1282,8.4985 2.9,0.544 6.66,-3.671 6.66,-7.479 0,-2.4043 0.60597,-3.6008 2.25,-4.4427 1.2375,-0.63372 2.925,-1.9752 3.75,-2.9811 1.376,-1.6777 3.6906,-1.8465 28,-2.0423 l 26.5,-0.2134 0.5,7.3307 c 0.55408,8.1236 2.1379,10.031 3.5681,4.297 0.75783,-3.0384 1.4923,-3.8528 3.9319,-4.3599 1.65,-0.34297 6.375,-2.186 10.5,-4.0956 11.537,-5.3407 15.441,-6.1253 28.179,-5.664 10.939,0.39613 11.591,0.5489 19.321,4.525 11.689,6.0125 19.462,11.818 27.205,20.317 11.521,12.647 14.746,23.428 14.049,46.969 -0.40181,13.579 -0.67239,15.224 -4.2579,25.885 -2.1059,6.2618 -5.4751,13.912 -7.4872,17 -7.0342,10.796 -15.737,24.634 -16.95,26.953 -1.64,3.16 -8.04,10.17 -9.27,10.17 -0.54038,0 -2.5094,-0.72454 -4.3755,-1.6101 -7.2152,-3.4238 -8.8036,1.9946 -2.604,8.8824 5.8859,6.5392 9.5477,13.176 14.471,26.228 7.1596,18.979 7.0909,19.791 -1.7767,20.987 -2.75,0.371 -6.35,1.0364 -8,1.4787 -1.65,0.4423 -5.7,1.354 -9,2.0261 -3.3,0.67204 -7.2368,1.678 -8.7484,2.2355 -6.0657,2.2371 -126.64,4.7944 -131.25,2.7839 z M 258,147.93 c 0,-1.1415 2.4265,-4.6266 5.3959,-7.75 2.9677,-3.1217 7.9892,-9.942 11.159,-15.156 11.916,-19.603 14.423,-27.557 14.438,-45.809 0.01,-11.825 -1.4268,-14.803 -12.713,-26.361 -14.08,-14.423 -21.28,-16.354 -37.78,-10.137 -8.8431,3.3321 -17.29,10.995 -20.493,18.592 -1.204,2.8551 -3.3342,7.6551 -4.7338,10.667 -2.3329,5.0197 -2.4941,6.2269 -1.9355,14.5 0.74461,11.029 2.0039,15.156 7.1627,23.475 4.22,6.81 35.94,40.05 38.21,40.05 0.71,0 1.29,-0.93 1.29,-2.07 z m 17.257,-6.1852 c 1.3294,-2.3323 5.2224,-9.0832 8.6514,-15.002 6.3248,-10.918 7.1595,-14.239 3.5784,-14.239 -1.5043,0 -3.5026,2.7904 -8.2353,11.5 -7.3174,13.466 -9.7289,19.312 -8.8796,21.526 0.83096,2.1654 2.0174,1.2462 4.8851,-3.7851 z m -131.09,-52.041 4.33,-3.301 v -14.898 l -4.739,-0.91554 c -7.1455,-1.3805 -9.1214,-0.06676 -10.618,7.0591 -0.67643,3.221 -1.4788,7.0422 -1.7831,8.4916 -1.5301,7.2879 5.4018,9.2161 12.812,3.564 z m 161,-37.171 c -4.0696,-7.8491 -17.753,-22.716 -24.058,-26.14 -2.5346,-1.3763 -6.5148,-3.6319 -8.8449,-5.0125 -4.6493,-2.7549 -7.483,-2.3804 -4.7595,0.62915 0.89893,0.9933 5.0918,3.8149 9.3174,6.2701 8.4027,4.8823 14.319,10.66 18.729,18.288 4.4653,7.7255 10.611,14.676 11.866,13.42 0.75164,-0.75164 0.0914,-2.939 -2.2502,-7.4555 z m -172.92,-40.65 c -2.34,-1.075 -4.25,-2.6117 -4.25,-3.4158 0,-2.1445 3.68,-5.4622 6.06,-5.4622 1.1325,0 1.8164,-0.39257 1.5198,-0.87238 -0.29653,-0.47981 1.1394,-1.1499 3.191,-1.489 5.65,-0.93468 57.44,-0.62135 59.73,0.3614 1.1,0.47269 1.55,0.89846 1,0.94617 -0.55,0.047705 0.8,1.1061 3,2.3521 2.2,1.246 4,2.8575 4,3.5813 0,0.72377 -1.9246,2.3969 -4.2768,3.7182 -4.2678,2.3972 -4.3419,2.4021 -35,2.318 -28.26,-0.078 -31.06,-0.241 -34.97,-2.038 z m 9.281,-2.5894 c 1.12,-1.5356 3.8,-1.7117 25.97,-1.7117 22.175,0 24.846,0.17607 25.969,1.7115 1.5454,2.1134 2.9048,2.171 4.5466,0.19278 1.0293,-1.2402 0.94833,-1.8636 -0.44135,-3.3992 -1.4487,-1.6008 -3.8482,-1.9878 -16.135,-2.602 -20.196,-1.0096 -40.789,0.17337 -43.673,2.5087 -1.883,1.5247 -2.0072,2.0152 -0.86071,3.3967 1.7194,2.0718 3.0609,2.0437 4.6261,-0.096923 z" />
  </g>
  <metadata
     id="metadata11">
    <rdf:RDF>
      <cc:Work>
        <dc:format>image/svg+xml</dc:format>
        <dc:type
           rdf:resource="http://purl.org/dc/dcmitype/StillImage" />
        <cc:license
           rdf:resource="http://creativecommons.org/publicdomain/zero/1.0/" />
        <dc:publisher>
          <cc:Agent
             rdf:about="http://openclipart.org/">
            <dc:title>Openclipart</dc:title>
          </cc:Agent>
        </dc:publisher>
        <dc:title>Jug</dc:title>
        <dc:date>2010-06-06T16:34:36</dc:date>
        <dc:description>clip art, clipart, container, drink, instrument, music, wind, </dc:description>
        <dc:source>http://openclipart.org/detail/64669/jug-by-deluge</dc:source>
        <dc:creator>
          <cc:Agent>
            <dc:title>Deluge</dc:title>
          </cc:Agent>
        </dc:creator>
        <dc:subject>
          <rdf:Bag>
            <rdf:li>clip art</rdf:li>
            <rdf:li>clipart</rdf:li>
            <rdf:li>container</rdf:li>
            <rdf:li>drink</rdf:li>
            <rdf:li>instrument</rdf:li>
            <rdf:li>music</rdf:li>
            <rdf:li>wind</rdf:li>
          </rdf:Bag>
        </dc:subject>
      </cc:Work>
      <cc:License
         rdf:about="http://creativecommons.org/publicdomain/zero/1.0/">
        <cc:permits
           rdf:resource="http://creativecommons.org/ns#Reproduction" />
        <cc:permits
           rdf:resource="http://creativecommons.org/ns#Distribution" />
        <cc:permits
           rdf:resource="http://creativecommons.org/ns#DerivativeWorks" />
      </cc:License>
    </rdf:RDF>
  </metadata>
</svg>
