<?xml version="1.0" encoding="UTF-8" standalone="no"?>
<!-- Created with Inkscape (http://www.inkscape.org/) -->

<svg
   id="svg2"
   sodipodi:modified="true"
   viewBox="0 0 332.59843 472.44095"
   inkscape:export-ydpi="98"
   inkscape:export-xdpi="98"
   version="1.0"
   inkscape:output_extension="org.inkscape.output.svg.inkscape"
   sodipodi:docname="laptop.svg"
   inkscape:export-filename="C:\Documents and Settings\Mete  İslam\Desktop\MyLaptop.png"
   inkscape:version="1.2.2 (732a01da63, 2022-12-09)"
   sodipodi:version="0.32"
   width="88mm"
   height="125mm"
   xmlns:inkscape="http://www.inkscape.org/namespaces/inkscape"
   xmlns:sodipodi="http://sodipodi.sourceforge.net/DTD/sodipodi-0.dtd"
   xmlns="http://www.w3.org/2000/svg"
   xmlns:svg="http://www.w3.org/2000/svg"
   xmlns:rdf="http://www.w3.org/1999/02/22-rdf-syntax-ns#"
   xmlns:cc="http://creativecommons.org/ns#"
   xmlns:dc="http://purl.org/dc/elements/1.1/">
  <sodipodi:namedview
     id="base"
     inkscape:zoom="1"
     height="400px"
     borderopacity="1.0"
     inkscape:current-layer="layer1"
     inkscape:cx="273.5"
     inkscape:cy="203.5"
     width="400px"
     inkscape:guide-bbox="true"
     showguides="true"
     bordercolor="#666666"
     inkscape:window-x="0"
     guidetolerance="10"
     objecttolerance="10"
     inkscape:window-y="22"
     inkscape:window-width="1277"
     inkscape:pageopacity="0.0"
     inkscape:pageshadow="2"
     pagecolor="#ffffff"
     gridtolerance="10000"
     inkscape:document-units="px"
     inkscape:window-height="751"
     inkscape:showpageshadow="0"
     inkscape:pagecheckerboard="0"
     inkscape:deskcolor="#d1d1d1"
     showgrid="false" />
  <defs
     id="defs4">
    <filter
       id="filter16257"
       inkscape:collect="always"
       x="-0.061799318"
       y="-0.08654056"
       width="1.1235986"
       height="1.1730811">
      <feGaussianBlur
         id="feGaussianBlur16259"
         stdDeviation="0.41431294"
         inkscape:collect="always" />
    </filter>
    <filter
       id="filter3497"
       height="1.2407306"
       width="1.2154567"
       y="-0.12047335"
       x="-0.10787131"
       inkscape:collect="always">
      <feGaussianBlur
         id="feGaussianBlur3499"
         stdDeviation="11.145"
         inkscape:collect="always" />
    </filter>
    <linearGradient
       id="linearGradient2490"
       y2="275.20001"
       gradientUnits="userSpaceOnUse"
       x2="322.26001"
       gradientTransform="matrix(1.0228,0,0,1.0228,-6.1273,-1.9736)"
       y1="261.41"
       x1="280.28"
       inkscape:collect="always">
      <stop
         id="stop26776"
         style="stop-color:#ffffff;stop-opacity:.11224"
         offset="0" />
      <stop
         id="stop26778"
         style="stop-color:#ffffff;stop-opacity:.89796"
         offset="1" />
    </linearGradient>
    <linearGradient
       id="linearGradient2500"
       y2="12.597"
       gradientUnits="userSpaceOnUse"
       x2="138.87"
       gradientTransform="matrix(1.0228,0,0,1.0228,-6.1273,-1.9736)"
       y1="126.95"
       x1="159.39"
       inkscape:collect="always">
      <stop
         id="stop4453"
         style="stop-color:#fffbfb;stop-opacity:.82653"
         offset="0" />
      <stop
         id="stop4455"
         style="stop-color:#000000;stop-opacity:0"
         offset="1" />
    </linearGradient>
    <linearGradient
       id="linearGradient2777"
       y2="285.25"
       gradientUnits="userSpaceOnUse"
       x2="313.75"
       gradientTransform="matrix(1.0228,0,0,1.0228,-6.1273,-1.9736)"
       y1="161.5"
       x1="136.5"
       inkscape:collect="always">
      <stop
         id="stop17247"
         style="stop-color:#ffefef;stop-opacity:.58163"
         offset="0" />
      <stop
         id="stop17249"
         style="stop-color:#ffefef;stop-opacity:.14286"
         offset="1" />
    </linearGradient>
    <radialGradient
       id="radialGradient3763"
       gradientUnits="userSpaceOnUse"
       cy="209.17"
       cx="170.31"
       gradientTransform="matrix(1.0744,-0.88115,0.89487,1.0911,-193.9,134.77)"
       r="104.54"
       inkscape:collect="always">
      <stop
         id="stop3759"
         style="stop-color:#70ffea"
         offset="0" />
      <stop
         id="stop3761"
         style="stop-color:#0055f6"
         offset="1" />
    </radialGradient>
  </defs>
  <g
     id="layer1"
     inkscape:label="Layer 1"
     inkscape:groupmode="layer">
    <g
       id="g2491"
       transform="matrix(0.78572738,0,0,0.78572738,18.226894,71.382602)">
      <path
         id="path2486"
         style="fill:#1a1a1a;fill-rule:evenodd;stroke:#000000;stroke-width:1px;filter:url(#filter3497)"
         d="M 183,323 53,296 1,150 196,96 255,237 Z"
         inkscape:export-ydpi="98"
         sodipodi:nodetypes="cccccc"
         transform="matrix(0.97473,0,0,0.97473,8.1233,4.8259)"
         inkscape:export-xdpi="98" />
      <path
         id="path5140"
         sodipodi:nodetypes="ccccc"
         style="fill:none;stroke:#000000;stroke-width:1.0228px"
         d="m 103.95,273.26 8.88,4.87 17.32,-11.46 -8.69,-4.58 z" />
      <path
         id="path5128"
         sodipodi:nodetypes="ccccc"
         style="fill:none;stroke:#000000;stroke-width:1.0228px"
         d="m 156.01,239.64 8.59,4.22 15.55,-10.14 -8.61,-4.08 z" />
      <path
         id="path5132"
         sodipodi:nodetypes="ccccc"
         style="fill:none;stroke:#000000;stroke-width:1.0228px"
         d="m 171.6,229.61 8.49,4.01 14.99,-9.95 -8.4,-3.83 z" />
      <path
         id="path5130"
         sodipodi:nodetypes="ccccc"
         style="fill:none;stroke:#000000;stroke-width:1.0228px"
         d="m 186.54,219.85 8.61,3.92 12.81,-8.47 -8.43,-3.73 z" />
      <path
         id="path5134"
         sodipodi:nodetypes="ccccc"
         style="fill:none;stroke:#000000;stroke-width:1.0228px"
         d="m 199.54,211.55 8.47,3.75 11.6,-7.81 -8.17,-3.51 z" />
      <path
         id="path5136"
         sodipodi:nodetypes="ccccc"
         style="fill:none;stroke:#000000;stroke-width:1.0228px"
         d="m 211.48,203.99 8,3.44 11.65,-7.41 -7.67,-3.76 z" />
      <path
         id="path2172"
         sodipodi:nodetypes="ccccc"
         style="fill:#000000;fill-rule:evenodd;stroke:#333333;stroke-width:0.81824;stroke-linecap:round;stroke-linejoin:round"
         d="m 68.308,278.6 165.04,96.41 159.75,-155.46 -143,-53.43 z" />
      <path
         id="path16273"
         sodipodi:nodetypes="cccccc"
         style="fill:url(#linearGradient2777);fill-rule:evenodd"
         d="m 277.7,176.51 c -100.4,58.92 -38.1,45.44 -175.99,121.07 l 87.77,51.81 c 83.78,-25.6 176.93,-74.41 165.6,-144.16 l -59.51,-22.11 z" />
      <path
         id="path2174"
         sodipodi:nodetypes="ccccc"
         style="fill:#000000;fill-rule:evenodd;stroke:#333333;stroke-width:0.81824;stroke-linecap:round;stroke-linejoin:round"
         d="m 68.172,278.57 0.131,13.22 164.28,99.39 c 3.25,-1.75 4.65,-12.08 1.05,-16.18 L 68.173,278.57 Z" />
      <path
         id="path2176"
         sodipodi:nodetypes="ccccc"
         style="fill:#000000;fill-rule:evenodd;stroke:#333333;stroke-width:0.81824;stroke-linecap:round;stroke-linejoin:round"
         d="m 393.08,219.63 c 0.98,3.03 2.03,9.63 -0.84,12.35 l -159.4,158.94 c 4.22,-4.83 2.92,-10.44 0.79,-16.18 z" />
      <path
         id="path2178"
         sodipodi:nodetypes="csccc"
         style="fill:#1a1a1a;fill-rule:evenodd;stroke:#333333;stroke-width:0.81824;stroke-linecap:round;stroke-linejoin:round"
         d="m 34.974,77.099 c 0,0 28.455,202.73 30.563,200.57 2.108,-2.16 183.9,-113.04 183.9,-113.04 l 0.53,-155.84 -215,68.309 z" />
      <path
         id="path2182"
         style="fill:#1a1a1a;fill-rule:evenodd;stroke:#333333;stroke-width:0.81824;stroke-linecap:round;stroke-linejoin:round"
         d="m 243.63,7.361 c 5.02,-1.4087 4.9,0.5064 6.31,1.4342 L 34.97,76.5722 c -1.929,-1.724 -2.738,-1.02 -7.072,-0.887 l 215.73,-68.324 z"
         inkscape:export-ydpi="98"
         sodipodi:nodetypes="ccccc"
         inkscape:export-xdpi="98" />
      <path
         id="path3155"
         sodipodi:nodetypes="ccccc"
         style="fill:url(#radialGradient3763);fill-rule:evenodd;stroke:#000000;stroke-width:1.0228px;stroke-linejoin:round"
         d="m 41.128,89.516 205.92,-67.659 -1.48,133.18 -178.68,107.9 -25.762,-173.42 z" />
      <path
         id="path4130"
         sodipodi:nodetypes="ccccc"
         style="fill:none;stroke:#999999;stroke-width:1.0228px"
         d="m 270.3,173.9 -178.24,117.98 -8.996,-5.03 179.48,-116.03 7.76,3.08 z" />
      <path
         id="path5126"
         sodipodi:nodetypes="ccc"
         style="opacity:0.3;fill:none;stroke:#000000;stroke-width:1.0228px"
         d="m 113.88,277.35 19.54,-12.78 z" />
      <path
         id="rect2179"
         sodipodi:nodetypes="cccccccccc"
         style="opacity:0.89;fill:#999999;stroke:#000000;stroke-width:0.97446;stroke-linecap:round;stroke-linejoin:round"
         d="m 260.56,282.16 38.78,-32.43 c 2.23,-1.86 6.91,-2.09 10.55,-0.52 0,0 19.51,8.7 19.51,8.7 3.88,1.67 5.36,4.65 3.28,6.68 l -35.86,34.69 c -2.48,2.43 -7.85,2.79 -11.98,0.78 l -22.13,-10.54 c -3.85,-1.87 -4.79,-5.15 -2.15,-7.36" />
      <path
         id="path5322"
         sodipodi:nodetypes="ccc"
         style="opacity:0.9972;fill:#666666;fill-rule:evenodd;stroke:#000000;stroke-width:0.20456;stroke-linecap:round;stroke-linejoin:round"
         d="m 156.31,239.62 c 2.54,-1.95 8.94,1.78 8.57,4.12 z" />
      <path
         id="path6299"
         sodipodi:nodetypes="ccccc"
         style="fill:#808080;fill-rule:evenodd;stroke:#000000;stroke-width:0.20456;stroke-linejoin:round"
         d="m 112.55,278.27 17.52,-11.66 c -1.47,-3 -4.21,-5.16 -8.6,-4.76 l -17.42,11.44 c 3.03,-2.08 8.94,2.52 8.5,4.98 z" />
      <path
         id="path4349"
         sodipodi:nodetypes="ccc"
         style="opacity:0.69;fill:none;stroke:#000000;stroke-width:0.20456;stroke-linecap:round;stroke-linejoin:round"
         d="m 104.03,273.3 c 3.47,-2.24 9.4,3.31 8.49,5.06 z" />
      <path
         id="path8239"
         sodipodi:nodetypes="ccccc"
         style="fill:#4d4d4d;fill-rule:evenodd;stroke:#000000;stroke-width:0.20456;stroke-linejoin:round"
         d="m 164.84,243.75 14.8,-9.78 c -0.75,-2.81 -2.97,-4.64 -8.22,-4.18 l -15.15,9.84 c 2.68,-2.12 9.3,2.13 8.57,4.12 z" />
      <path
         id="path8241"
         sodipodi:nodetypes="ccccc"
         style="fill:#4d4d4d;fill-rule:evenodd;stroke:#000000;stroke-width:0.20456;stroke-linejoin:round"
         d="m 179.54,233.99 14.96,-9.75 c -1.03,-2.91 -3.53,-4.8 -8.53,-3.95 l -15.12,9.82 c 3.03,-1.33 8.2,0.34 8.69,3.88 z" />
      <path
         id="path8243"
         sodipodi:nodetypes="ccccc"
         style="fill:#4d4d4d;fill-rule:evenodd;stroke:#000000;stroke-width:0.20456;stroke-linejoin:round"
         d="m 194.44,224.23 13.26,-8.83 c -1.73,-2.69 -3.9,-3.81 -8.24,-3.67 l -13.56,8.58 c 3.2,-0.75 7.73,0.35 8.54,3.92 z" />
      <path
         id="path8245"
         sodipodi:nodetypes="ccccc"
         style="fill:#4d4d4d;fill-rule:evenodd;stroke:#000000;stroke-width:0.20456;stroke-linejoin:round"
         d="m 207.75,215.39 11.59,-7.72 c -2,-2.5 -4.29,-3.56 -8.06,-3.55 l -11.87,7.62 c 3.33,-0.3 6.4,0.66 8.34,3.65 z" />
      <path
         id="path8247"
         sodipodi:nodetypes="ccccc"
         style="fill:#4d4d4d;fill-rule:evenodd;stroke:#000000;stroke-width:0.20456;stroke-linejoin:round"
         d="m 219.3,207.7 11.73,-7.73 c -1.48,-3.46 -4.4,-4.07 -7.73,-3.78 l -12.26,8.07 c 2.97,-0.33 5.63,0.16 8.26,3.44 z" />
      <path
         id="rect2202"
         sodipodi:nodetypes="cccccccccc"
         style="fill:#808080"
         d="m 221.69,286.68 50.09,-40.3 c 0.61,-0.48 1.85,-0.49 2.79,-0.02 l 7.66,3.76 c 0.95,0.48 1.25,1.25 0.66,1.74 l -49.34,41.46 c -0.74,0.61 -2.16,0.64 -3.18,0.07 l -8.22,-4.62 c -1.01,-0.56 -1.21,-1.49 -0.46,-2.09" />
      <path
         id="path2449"
         style="fill:#ff00ff;fill-rule:evenodd;stroke:#000000;stroke-width:1.0228px"
         d="m 219.03,288.29 11.37,6.46 -8.37,7.05 -11.55,-6.52 z" />
      <path
         id="path2451"
         style="fill:#ff00ff;fill-rule:evenodd;stroke:#000000;stroke-width:1.0228px"
         d="m 209.42,296.08 11.66,6.48 -8.7,7.31 -11.36,-7.02 z" />
      <path
         id="path2453"
         style="fill:#ff00ff;fill-rule:evenodd;stroke:#000000;stroke-width:1.0228px"
         d="m 200.12,303.55 11.37,7 -8.95,7.45 -11.94,-6.82 z" />
      <path
         id="path2455"
         style="fill:#ff00ff;fill-rule:evenodd;stroke:#000000;stroke-width:1.0228px"
         d="m 189.71,311.96 11.98,6.82 -10.98,9.27 -12.18,-6.97 z" />
      <path
         id="path2457"
         sodipodi:nodetypes="ccccc"
         style="fill:#ff00ff;fill-rule:evenodd;stroke:#000000;stroke-width:1.0228px"
         d="m 273.68,244.43 10.51,5.2 7.97,-6.6 -10.56,-4.92 z" />
      <path
         id="path2459"
         sodipodi:nodetypes="ccccc"
         style="fill:#ff00ff;fill-rule:evenodd;stroke:#000000;stroke-width:1.0228px"
         d="m 282.59,237.36 7.55,-6.09 10.8,4.62 -7.85,6.37 z" />
      <path
         id="path2461"
         sodipodi:nodetypes="ccccc"
         style="fill:#ff00ff;fill-rule:evenodd;stroke:#000000;stroke-width:1.0228px"
         d="m 291.16,230.49 10.71,4.63 7.5,-6.25 -10.34,-4.78 z" />
      <path
         id="path2463"
         sodipodi:nodetypes="ccccc"
         style="fill:#ff00ff;fill-rule:evenodd;stroke:#000000;stroke-width:1.0228px"
         d="m 289.94,230.02 -9,-4.46 8.1,-6.3 8.92,4.33 z" />
      <path
         id="path2465"
         style="fill:#ff00ff;fill-rule:evenodd;stroke:#000000;stroke-width:1.0228px"
         d="m 177.42,320.42 -10.93,-6.16 22.24,-17.02 10.3,5.67 z" />
      <path
         id="path2467"
         sodipodi:nodetypes="ccccc"
         style="fill:#ff00ff;fill-rule:evenodd;stroke:#000000;stroke-width:1.0228px"
         d="m 290.08,218.44 8.78,4.3 21.02,-16.98 -9.1,-3.56 z" />
      <path
         id="path2469"
         sodipodi:nodetypes="ccccccc"
         style="fill:#ff00ff;fill-rule:evenodd;stroke:#000000;stroke-width:1.0228px"
         d="m 298.09,210.76 11.54,-9.06 -21.59,-8.38 -14.4,10.64 9.83,3.94 2.72,-2.09 z" />
      <path
         id="path2471"
         sodipodi:nodetypes="ccccc"
         style="fill:#ff00ff;fill-rule:evenodd;stroke:#000000;stroke-width:1.0228px"
         d="m 286.62,192.75 -19.71,14.64 -9.32,-3.98 20.15,-14.08 z" />
      <path
         id="path2473"
         style="fill:#ff00ff;fill-rule:evenodd;stroke:#000000;stroke-width:1.0228px"
         d="m 165.36,313.64 19.11,-14.65 -12.14,-6.4 -19.14,14.25 z" />
      <path
         id="path2475"
         style="fill:#ff00ff;fill-rule:evenodd;stroke:#000000;stroke-width:1.0228px"
         d="m 151.96,306.24 15.13,-11.3 -10.99,-5.92 -15.21,10.89 z" />
      <path
         id="path2477"
         style="fill:#ff00ff;fill-rule:evenodd;stroke:#000000;stroke-width:1.0228px"
         d="m 139.75,299.33 11.11,-7.99 -10.51,-5.8 -10.99,7.89 z" />
      <path
         id="path2497"
         style="fill:#ff00ff;fill-rule:evenodd;stroke:#000000;stroke-width:1.0228px"
         d="m 141.45,284.84 9.04,-6.41 10.44,5.48 -9.13,6.68 z" />
      <path
         id="path2499"
         style="fill:#ff00ff;fill-rule:evenodd;stroke:#000000;stroke-width:1.0228px"
         d="m 200.07,302.08 8.24,-6.58 -10.67,-5.44 -7.96,6.38 z" />
      <path
         id="path2501"
         style="fill:#ff00ff;fill-rule:evenodd;stroke:#000000;stroke-width:1.0228px"
         d="m 185.44,298.2 8.42,-6.61 -11.9,-6.34 -8.49,6.38 z" />
      <path
         id="path2503"
         style="fill:#ff00ff;fill-rule:evenodd;stroke:#000000;stroke-width:1.0228px"
         d="m 168.25,294.18 8.45,-6.41 -11.05,-5.85 -8.45,6.28 z" />
      <path
         id="path2505"
         sodipodi:nodetypes="ccccc"
         style="fill:#ff00ff;fill-rule:evenodd;stroke:#000000;stroke-width:1.0228px"
         d="m 151.56,277.72 8.8,-6.09 10.2,5.38 -8.61,6.18 z" />
      <path
         id="path2507"
         style="fill:#ff00ff;fill-rule:evenodd;stroke:#000000;stroke-width:1.0228px"
         d="m 177.75,287.01 8.49,-6.55 -10.7,-5.52 -8.9,6.28 z" />
      <path
         id="path2509"
         style="fill:#ff00ff;fill-rule:evenodd;stroke:#000000;stroke-width:1.0228px"
         d="m 161.45,270.89 8.6,-6.06 10.15,5.24 -8.52,6.18 z" />
      <path
         id="path2511"
         style="fill:#ff00ff;fill-rule:evenodd;stroke:#000000;stroke-width:1.0228px"
         d="m 194.72,290.9 8.62,-6.74 -11.83,-6.08 -8.49,6.38 z" />
      <path
         id="path2513"
         style="fill:#ff00ff;fill-rule:evenodd;stroke:#000000;stroke-width:1.0228px"
         d="m 209.45,294.74 8.56,-7 -10.51,-5.3 -8.8,6.72 z" />
      <path
         id="path2515"
         style="fill:#ff00ff;fill-rule:evenodd;stroke:#000000;stroke-width:1.0228px"
         d="m 219.03,287 8.92,-7.16 -10.37,-5.17 -9.04,6.95 z" />
      <path
         id="path2517"
         style="fill:#ff00ff;fill-rule:evenodd;stroke:#000000;stroke-width:1.0228px"
         d="m 229.01,279.06 7.63,-5.97 -10.45,-5.07 -7.6,5.86 z" />
      <path
         id="path2519"
         style="fill:#ff00ff;fill-rule:evenodd;stroke:#000000;stroke-width:1.0228px"
         d="m 237.61,272.25 8.51,-6.76 -10.3,-4.98 -8.58,6.68 z" />
      <path
         id="path2521"
         sodipodi:nodetypes="ccccc"
         style="fill:#ff00ff;fill-rule:evenodd;stroke:#000000;stroke-width:1.0228px"
         d="m 246.93,264.7 8.39,-6.67 -10.11,-4.83 -8.41,6.52 z" />
      <path
         id="path2523"
         sodipodi:nodetypes="ccccc"
         style="fill:#ff00ff;fill-rule:evenodd;stroke:#000000;stroke-width:1.0228px"
         d="m 256.25,257.31 7.75,-6.17 -10.08,-4.64 -7.68,5.97 z" />
      <path
         id="path2525"
         sodipodi:nodetypes="ccccc"
         style="fill:#ff00ff;fill-rule:evenodd;stroke:#000000;stroke-width:1.0228px"
         d="m 264.94,250.38 6.85,-5.81 -9.65,-4.5 -7.26,5.68 z" />
      <path
         id="path2527"
         sodipodi:nodetypes="ccccc"
         style="fill:#ff00ff;fill-rule:evenodd;stroke:#000000;stroke-width:1.0228px"
         d="m 272.68,243.8 7.77,-6.18 -9.55,-4.3 -7.72,5.98 z" />
      <path
         id="path2529"
         sodipodi:nodetypes="ccccc"
         style="fill:#ff00ff;fill-rule:evenodd;stroke:#000000;stroke-width:1.0228px"
         d="m 281.41,236.85 7.51,-6.01 -9.06,-4.43 -7.82,6.04 z" />
      <path
         id="path2531"
         style="fill:#ff00ff;fill-rule:evenodd;stroke:#000000;stroke-width:1.0228px"
         d="m 171.19,264.05 9.34,-6.54 9.73,5.06 -8.93,6.79 z" />
      <path
         id="path2533"
         sodipodi:nodetypes="ccccc"
         style="fill:#ff00ff;fill-rule:evenodd;stroke:#000000;stroke-width:1.0228px"
         d="m 181.56,256.75 8.6,-6.07 9.45,5.16 -8.38,5.89 z" />
      <path
         id="path2535"
         sodipodi:nodetypes="ccccc"
         style="fill:#ff00ff;fill-rule:evenodd;stroke:#000000;stroke-width:1.0228px"
         d="m 191.14,249.97 8.99,-6.3 9.45,5.1 -9,6.36 z" />
      <path
         id="path2537"
         sodipodi:nodetypes="ccccc"
         style="fill:#ff00ff;fill-rule:evenodd;stroke:#000000;stroke-width:1.0228px"
         d="m 201.14,242.95 7.83,-5.44 9.8,4.5 -8.15,6.06 z" />
      <path
         id="path2539"
         sodipodi:nodetypes="ccccc"
         style="fill:#ff00ff;fill-rule:evenodd;stroke:#000000;stroke-width:1.0228px"
         d="m 209.94,236.71 8.55,-5.93 9.68,4.41 -8.37,6.13 z" />
      <path
         id="path2541"
         sodipodi:nodetypes="ccccc"
         style="fill:#ff00ff;fill-rule:evenodd;stroke:#000000;stroke-width:1.0228px"
         d="m 219.49,230.09 8.45,-5.9 9.69,4.2 -8.44,6.08 z" />
      <path
         id="path2543"
         sodipodi:nodetypes="ccccc"
         style="fill:#ff00ff;fill-rule:evenodd;stroke:#000000;stroke-width:1.0228px"
         d="m 229.05,223.35 8.59,-6.07 9.55,4.22 -8.52,6.18 z" />
      <path
         id="path2545"
         sodipodi:nodetypes="ccccc"
         style="fill:#ff00ff;fill-rule:evenodd;stroke:#000000;stroke-width:1.0228px"
         d="m 238.76,216.51 7.71,-5.48 9.57,4.13 -7.75,5.59 z" />
      <path
         id="path2547"
         sodipodi:nodetypes="ccccc"
         style="fill:#ff00ff;fill-rule:evenodd;stroke:#000000;stroke-width:1.0228px"
         d="m 247.53,210.3 9,-6.16 9.43,4.01 -8.72,6.34 z" />
      <path
         id="path2242"
         style="fill:#ff00ff;fill-rule:evenodd;stroke:#000000;stroke-width:1.0228px"
         d="m 192.43,277.38 8.61,-6.45 11.78,6.01 -8.56,6.52 z" />
      <path
         id="path2244"
         style="fill:#ff00ff;fill-rule:evenodd;stroke:#000000;stroke-width:1.0228px"
         d="m 202.02,270.13 8.19,-6.03 11.71,5.83 -8.17,6.28 z" />
      <path
         id="path2246"
         style="fill:#ff00ff;fill-rule:evenodd;stroke:#000000;stroke-width:1.0228px"
         d="m 211.22,263.35 8.3,-6.21 11.54,5.66 -8.2,6.41 z" />
      <path
         id="path2248"
         sodipodi:nodetypes="ccccc"
         style="fill:#ff00ff;fill-rule:evenodd;stroke:#000000;stroke-width:1.0228px"
         d="m 220.49,256.41 11.5,5.64 7.52,-5.8 -11.43,-5.53 c 0,0 -7.56,5.72 -7.59,5.69 z" />
      <path
         id="path2250"
         sodipodi:nodetypes="ccccc"
         style="fill:#ff00ff;fill-rule:evenodd;stroke:#000000;stroke-width:1.0228px"
         d="m 228.98,249.9 11.51,5.64 7.52,-5.8 -11.43,-5.53 c 0,0 -7.56,5.72 -7.6,5.69 z" />
      <path
         id="path2252"
         sodipodi:nodetypes="ccccc"
         style="fill:#ff00ff;fill-rule:evenodd;stroke:#000000;stroke-width:1.0228px"
         d="m 237.57,243.45 11.41,5.54 8.09,-6.41 -11.05,-5.21 z" />
      <path
         id="path2254"
         sodipodi:nodetypes="ccccc"
         style="fill:#ff00ff;fill-rule:evenodd;stroke:#000000;stroke-width:1.0228px"
         d="m 247.07,236.57 11,5.28 7.91,-6.15 -11.27,-4.88 z" />
      <path
         id="path2256"
         sodipodi:nodetypes="ccccc"
         style="fill:#ff00ff;fill-rule:evenodd;stroke:#000000;stroke-width:1.0228px"
         d="m 255.9,229.99 11.05,4.92 7.43,-5.71 -11.07,-4.77 z" />
      <path
         id="path2258"
         sodipodi:nodetypes="ccccc"
         style="fill:#ff00ff;fill-rule:evenodd;stroke:#000000;stroke-width:1.0228px"
         d="m 264.32,223.68 10.99,4.77 7.59,-5.86 -10.99,-4.6 z" />
      <path
         id="path2260"
         sodipodi:nodetypes="ccccc"
         style="fill:#ff00ff;fill-rule:evenodd;stroke:#000000;stroke-width:1.0228px"
         d="m 272.93,217.23 10.94,4.6 6.44,-4.94 -10.85,-4.61 z" />
      <path
         id="path2262"
         sodipodi:nodetypes="ccccc"
         style="fill:#ff00ff;fill-rule:evenodd;stroke:#000000;stroke-width:1.0228px"
         d="m 280.51,211.48 10.7,4.69 5.94,-4.62 -10.76,-4.49 z" />
      <path
         id="path2264"
         style="fill:#ff00ff;fill-rule:evenodd;stroke:#000000;stroke-width:1.0228px"
         d="m 187.21,279.65 8.49,-6.54 -10.7,-5.52 -8.9,6.28 z" />
      <path
         id="path2266"
         style="fill:#ff00ff;fill-rule:evenodd;stroke:#000000;stroke-width:1.0228px"
         d="m 196.93,272.24 8.76,-6.45 -10.97,-5.62 -8.9,6.29 z" />
      <path
         id="path2268"
         sodipodi:nodetypes="ccccc"
         style="fill:#ff00ff;fill-rule:evenodd;stroke:#000000;stroke-width:1.0228px"
         d="m 206.76,265.04 8.85,-6.4 -10.7,-5.21 -8.68,6.1 z" />
      <path
         id="path2270"
         sodipodi:nodetypes="ccccc"
         style="fill:#ff00ff;fill-rule:evenodd;stroke:#000000;stroke-width:1.0228px"
         d="m 216.56,257.79 9.17,-6.67 -10.43,-5.14 -9.35,6.67 z" />
      <path
         id="path2272"
         sodipodi:nodetypes="ccccc"
         style="fill:#ff00ff;fill-rule:evenodd;stroke:#000000;stroke-width:1.0228px"
         d="m 226.62,250.28 7.81,-5.81 -10.28,-4.98 -7.74,5.64 z" />
      <path
         id="path2274"
         sodipodi:nodetypes="ccccc"
         style="fill:#ff00ff;fill-rule:evenodd;stroke:#000000;stroke-width:1.0228px"
         d="m 235.32,243.66 7.6,-5.45 -10.04,-4.99 -7.68,5.56 z" />
      <path
         id="path2276"
         sodipodi:nodetypes="ccccc"
         style="fill:#ff00ff;fill-rule:evenodd;stroke:#000000;stroke-width:1.0228px"
         d="m 244.04,237.41 7.43,-5.71 -9.74,-4.93 -7.72,5.58 z" />
      <path
         id="path2278"
         sodipodi:nodetypes="ccccc"
         style="fill:#ff00ff;fill-rule:evenodd;stroke:#000000;stroke-width:1.0228px"
         d="m 252.65,231.11 7.65,-5.83 -9.71,-4.64 -7.69,5.45 z" />
      <path
         id="path2280"
         sodipodi:nodetypes="ccccc"
         style="fill:#ff00ff;fill-rule:evenodd;stroke:#000000;stroke-width:1.0228px"
         d="m 261.24,224.42 7.22,-5.21 -9.65,-4.38 -7.09,4.96 z" />
      <path
         id="path2282"
         sodipodi:nodetypes="ccccc"
         style="fill:#ff00ff;fill-rule:evenodd;stroke:#000000;stroke-width:1.0228px"
         d="m 269.53,218.44 6.31,-4.83 -9.48,-4.3 -6.55,4.79 z" />
      <path
         id="path2284"
         sodipodi:nodetypes="ccccc"
         style="fill:#ff00ff;fill-rule:evenodd;stroke:#000000;stroke-width:1.0228px"
         d="m 276.8,212.88 5.46,-4.24 -9.61,-3.81 -5.24,3.8 z" />
      <path
         id="rect3291"
         style="opacity:0.9972;fill:#808080"
         d="m 302.88,234.28 5.5,-4.58 c 0.55,-0.46 0.39,-1.1 -0.35,-1.44 l -7.59,-3.52 c -0.78,-0.36 -1.88,-0.28 -2.45,0.19 l -5.77,4.7 c -0.59,0.48 -0.4,1.14 0.41,1.49 l 7.86,3.4 c 0.77,0.33 1.83,0.22 2.39,-0.24" />
      <path
         id="rect3293"
         style="opacity:0.9972;fill:#808080"
         d="m 235.37,272.48 -7.95,-3.86 c -0.68,-0.33 -1.63,-0.29 -2.13,0.1 l -5.79,4.45 c -0.5,0.39 -0.36,0.98 0.32,1.32 l 7.93,3.95 c 0.7,0.34 1.67,0.3 2.18,-0.1 l 5.8,-4.54 c 0.5,-0.39 0.34,-0.98 -0.36,-1.32" />
      <path
         id="rect3299"
         style="opacity:0.9972;fill:#808080"
         d="m 247.44,211.44 7.6,3.29 c 0.55,0.23 0.65,0.68 0.21,0.99 l -6.16,4.45 c -0.44,0.32 -1.24,0.38 -1.79,0.14 l -7.58,-3.37 c -0.53,-0.24 -0.61,-0.68 -0.17,-0.99 l 6.13,-4.36 c 0.44,-0.31 1.22,-0.38 1.76,-0.15" />
      <path
         id="rect3301"
         style="opacity:0.9972;fill:#808080"
         d="m 211.39,264.69 9.31,4.63 c 0.67,0.34 0.85,0.89 0.4,1.24 l -6.5,4.99 c -0.47,0.37 -1.4,0.37 -2.08,0.02 l -9.33,-4.83 c -0.65,-0.34 -0.79,-0.89 -0.32,-1.24 l 6.52,-4.79 c 0.46,-0.34 1.35,-0.35 2,-0.02" />
      <path
         id="rect3305"
         style="opacity:0.9972;fill:#808080"
         d="m 190.8,251.04 8.2,4.46 c 0.34,0.19 0.36,0.51 0.05,0.73 l -7.26,5.11 c -0.31,0.22 -0.83,0.25 -1.18,0.07 l -8.39,-4.32 c -0.36,-0.19 -0.4,-0.52 -0.09,-0.74 l 7.46,-5.26 c 0.31,-0.23 0.85,-0.25 1.21,-0.05" />
      <path
         id="rect3309"
         style="opacity:0.9972;fill:#808080"
         d="m 200.87,319.48 -9.31,7.85 c -0.47,0.4 -1.26,0.48 -1.78,0.18 l -10.32,-5.9 c -0.51,-0.29 -0.54,-0.85 -0.06,-1.24 l 9.47,-7.73 c 0.47,-0.38 1.25,-0.45 1.75,-0.16 l 10.16,5.78 c 0.5,0.29 0.55,0.83 0.09,1.22" />
      <path
         id="rect3311"
         style="opacity:0.9972;fill:#808080"
         d="m 227.03,279.38 -8.56,-4.27 c -0.49,-0.24 -1.24,-0.18 -1.67,0.15 l -7.45,5.74 c -0.45,0.34 -0.4,0.83 0.1,1.08 l 8.65,4.44 c 0.52,0.27 1.29,0.19 1.73,-0.16 l 7.36,-5.91 c 0.42,-0.34 0.35,-0.82 -0.16,-1.07" />
      <path
         id="rect3313"
         style="opacity:0.9972;fill:#808080"
         d="m 200.88,244.07 7.94,4.29 c 0.42,0.22 0.44,0.63 0.05,0.91 l -7.57,5.35 c -0.4,0.28 -1.06,0.32 -1.48,0.1 l -7.93,-4.34 c -0.42,-0.23 -0.43,-0.63 -0.03,-0.91 l 7.56,-5.3 c 0.39,-0.28 1.04,-0.32 1.46,-0.1" />
      <path
         id="rect3317"
         style="opacity:0.9972;fill:#808080"
         d="m 168.98,312.35 17.54,-13.42 c 1.23,-0.94 2.69,-1.43 3.29,-1.1 l 8.13,4.48 c 0.61,0.33 0.14,1.37 -1.05,2.33 l -17.04,13.82 c -1.34,1.08 -2.94,1.67 -3.58,1.31 l -8.63,-4.86 c -0.64,-0.36 -0.04,-1.5 1.34,-2.56" />
      <path
         id="rect3319"
         style="opacity:0.9972;fill:#808080"
         d="m 192.51,290.87 -9.24,-4.92 c -0.72,-0.39 -1.73,-0.39 -2.24,0 l -6.59,4.95 c -0.54,0.4 -0.38,1.05 0.35,1.45 l 9.29,5.1 c 0.76,0.41 1.79,0.41 2.32,-0.01 l 6.54,-5.12 c 0.51,-0.4 0.32,-1.05 -0.43,-1.45" />
      <path
         id="rect3321"
         style="opacity:0.9972;fill:#808080"
         d="m 185.14,279.9 -8.51,-4.4 c -0.6,-0.31 -1.48,-0.29 -1.97,0.06 l -7.07,4.99 c -0.53,0.37 -0.44,0.94 0.18,1.26 l 8.84,4.6 c 0.63,0.33 1.55,0.28 2.05,-0.1 l 6.74,-5.2 c 0.46,-0.36 0.35,-0.9 -0.26,-1.21" />
      <path
         id="rect3323"
         style="opacity:0.9972;fill:#808080"
         d="m 161.12,272.03 8.68,4.58 c 0.42,0.22 0.47,0.6 0.12,0.86 l -7.32,5.25 c -0.36,0.26 -1,0.29 -1.43,0.06 l -8.84,-4.65 c -0.43,-0.23 -0.48,-0.62 -0.11,-0.87 l 7.49,-5.19 c 0.36,-0.24 0.99,-0.26 1.41,-0.04" />
      <path
         id="rect3325"
         style="opacity:0.9972;fill:#808080"
         d="m 220.29,303.22 -7.1,5.96 c -0.45,0.38 -1.3,0.38 -1.91,0.01 l -9.27,-5.73 c -0.55,-0.34 -0.64,-0.89 -0.21,-1.24 l 6.86,-5.53 c 0.42,-0.34 1.21,-0.36 1.77,-0.05 l 9.52,5.29 c 0.62,0.34 0.78,0.92 0.34,1.29" />
      <path
         id="rect3327"
         style="opacity:0.9972;fill:#808080"
         d="m 250.18,231.05 -7.15,-3.62 c -0.72,-0.37 -1.74,-0.34 -2.3,0.06 l -5.67,4.1 c -0.58,0.42 -0.45,1.06 0.29,1.43 l 7.36,3.72 c 0.74,0.37 1.78,0.32 2.34,-0.11 l 5.46,-4.19 c 0.53,-0.41 0.39,-1.03 -0.33,-1.39" />
      <path
         id="rect3329"
         style="opacity:0.9972;fill:#808080"
         d="m 241.74,237.62 -7.64,-3.79 c -0.67,-0.34 -1.63,-0.31 -2.14,0.06 l -5.84,4.23 c -0.51,0.37 -0.37,0.93 0.31,1.25 l 7.7,3.72 c 0.66,0.31 1.59,0.28 2.1,-0.08 l 5.78,-4.15 c 0.51,-0.36 0.38,-0.92 -0.27,-1.24" />
      <path
         id="rect3331"
         style="opacity:0.9972;fill:#808080"
         d="m 291.07,231.67 8.87,3.79 c 0.55,0.24 0.69,0.68 0.3,1 l -6.45,5.23 c -0.39,0.32 -1.14,0.37 -1.68,0.11 l -8.62,-4.02 c -0.5,-0.23 -0.6,-0.67 -0.23,-0.97 l 6.2,-5 c 0.38,-0.3 1.09,-0.37 1.61,-0.14" />
      <path
         id="rect3333"
         style="opacity:0.9972;fill:#808080"
         d="m 214.66,258.18 -8.87,-4.32 c -0.49,-0.24 -1.21,-0.2 -1.61,0.08 l -7.2,5.06 c -0.41,0.29 -0.36,0.73 0.12,0.98 l 8.73,4.57 c 0.52,0.27 1.27,0.24 1.69,-0.06 l 7.34,-5.31 c 0.41,-0.3 0.32,-0.75 -0.2,-1" />
      <path
         id="rect3335"
         style="opacity:0.9972;fill:#808080"
         d="m 238.62,217.71 7.58,3.36 c 0.55,0.24 0.61,0.71 0.13,1.06 l -6.77,4.91 c -0.49,0.35 -1.33,0.44 -1.88,0.19 l -7.65,-3.44 c -0.54,-0.24 -0.58,-0.72 -0.09,-1.07 l 6.84,-4.83 c 0.48,-0.34 1.3,-0.42 1.84,-0.18" />
      <path
         id="rect3337"
         style="opacity:0.9972;fill:#808080"
         d="m 228.92,224.61 7.7,3.34 c 0.56,0.24 0.63,0.71 0.16,1.05 l -6.71,4.83 c -0.49,0.35 -1.33,0.43 -1.89,0.18 l -7.71,-3.48 c -0.55,-0.25 -0.59,-0.72 -0.1,-1.06 l 6.72,-4.69 c 0.47,-0.33 1.29,-0.4 1.83,-0.17" />
      <path
         id="rect3339"
         style="opacity:0.9972;fill:#808080"
         d="m 257.15,204.4 8.18,3.48 c 0.34,0.15 0.38,0.45 0.07,0.68 l -7.56,5.49 c -0.33,0.25 -0.89,0.31 -1.25,0.16 l -8.42,-3.63 c -0.36,-0.16 -0.37,-0.47 -0.03,-0.7 l 7.81,-5.35 c 0.32,-0.22 0.85,-0.27 1.2,-0.13" />
      <path
         id="rect3341"
         style="opacity:0.9972;fill:#808080"
         d="m 201.85,271.35 10.15,5.18 c 0.45,0.23 0.56,0.61 0.23,0.86 l -7.38,5.62 c -0.33,0.25 -0.96,0.27 -1.41,0.03 l -10.2,-5.24 c -0.45,-0.23 -0.55,-0.62 -0.21,-0.86 l 7.42,-5.56 c 0.33,-0.25 0.95,-0.26 1.4,-0.03" />
      <path
         id="rect3343"
         style="opacity:0.9972;fill:#808080"
         d="m 219.22,231.11 8.2,3.74 c 0.42,0.18 0.47,0.54 0.13,0.79 l -7.1,5.2 c -0.36,0.26 -0.99,0.32 -1.41,0.12 l -8.36,-3.9 c -0.41,-0.2 -0.44,-0.56 -0.07,-0.82 l 7.24,-5.02 c 0.35,-0.24 0.96,-0.29 1.37,-0.11" />
      <path
         id="rect3345"
         style="opacity:0.9972;fill:#808080"
         d="m 166.11,294.41 -9.07,-4.89 c -0.52,-0.28 -1.52,-0.09 -2.23,0.42 0,0 -12.55,8.99 -12.55,8.99 -0.76,0.55 -0.95,1.23 -0.42,1.53 l 9.13,5.21 c 0.55,0.32 1.59,0.11 2.35,-0.45 l 12.48,-9.33 c 0.72,-0.53 0.85,-1.19 0.31,-1.48" />
      <path
         id="rect3349"
         style="opacity:0.9972;fill:#808080"
         d="m 151.01,278.7 9.36,4.92 c 0.31,0.16 0.35,0.45 0.09,0.63 l -8.18,5.99 c -0.27,0.2 -0.73,0.22 -1.04,0.05 l -9.27,-5.15 c -0.29,-0.17 -0.31,-0.45 -0.04,-0.63 l 8.09,-5.75 c 0.26,-0.19 0.7,-0.21 0.99,-0.06" />
      <path
         id="rect3351"
         style="opacity:0.9972;fill:#808080"
         d="m 175.52,287.15 -8.72,-4.62 c -0.64,-0.34 -1.55,-0.32 -2.04,0.05 l -6.66,4.96 c -0.5,0.37 -0.38,0.94 0.26,1.29 l 8.71,4.71 c 0.66,0.35 1.58,0.33 2.08,-0.04 l 6.67,-5.06 c 0.49,-0.37 0.36,-0.95 -0.3,-1.29" />
      <path
         id="rect3353"
         style="opacity:0.9972;fill:#808080"
         d="m 201.97,283.46 -9.18,-4.72 c -0.71,-0.36 -1.7,-0.34 -2.22,0.05 l -6.59,4.95 c -0.53,0.4 -0.4,1.03 0.3,1.42 l 9.09,4.99 c 0.75,0.41 1.79,0.41 2.34,-0.02 l 6.68,-5.22 c 0.53,-0.42 0.34,-1.06 -0.42,-1.45" />
      <path
         id="rect3355"
         style="opacity:0.9972;fill:#808080"
         d="m 183.21,298.32 -9.65,-5.08 c -0.68,-0.36 -2.08,-0.01 -3.14,0.78 l -15.22,11.32 c -1.11,0.83 -1.46,1.8 -0.78,2.18 l 9.68,5.41 c 0.7,0.39 2.16,0.02 3.27,-0.83 l 15.19,-11.65 c 1.06,-0.81 1.35,-1.76 0.65,-2.13" />
      <path
         id="rect3357"
         style="opacity:0.9972;fill:#808080"
         d="m 181.25,257.89 8.28,4.3 c 0.4,0.21 0.44,0.6 0.09,0.87 l -7.6,5.77 c -0.38,0.29 -1.03,0.35 -1.45,0.13 l -8.63,-4.52 c -0.42,-0.22 -0.43,-0.62 -0.03,-0.9 l 7.95,-5.56 c 0.37,-0.26 0.99,-0.3 1.39,-0.09" />
      <path
         id="rect3359"
         style="opacity:0.9972;fill:#808080"
         d="m 207.3,294.98 -8.71,-4.44 c -0.53,-0.27 -1.28,-0.22 -1.68,0.1 l -6.5,5.21 c -0.41,0.33 -0.32,0.81 0.19,1.09 l 8.48,4.61 c 0.55,0.29 1.32,0.26 1.74,-0.07 l 6.73,-5.38 c 0.42,-0.33 0.31,-0.84 -0.25,-1.12" />
      <path
         id="rect3361"
         style="opacity:0.9972;fill:#808080"
         d="m 210.32,311.53 -6.57,5.47 c -0.67,0.55 -1.89,0.61 -2.74,0.13 l -8.77,-5.01 c -0.9,-0.52 -1.07,-1.4 -0.36,-1.97 l 7,-5.6 c 0.69,-0.55 1.94,-0.57 2.81,-0.04 l 8.34,5.14 c 0.81,0.5 0.94,1.34 0.29,1.88" />
      <path
         id="rect3363"
         style="opacity:0.9972;fill:#808080"
         d="m 229.41,295.58 -6.37,5.37 c -0.56,0.47 -1.62,0.5 -2.38,0.07 l -8.8,-4.95 c -0.76,-0.44 -0.92,-1.16 -0.35,-1.63 l 6.51,-5.32 c 0.56,-0.46 1.62,-0.48 2.38,-0.05 l 8.64,4.91 c 0.75,0.43 0.92,1.14 0.37,1.6" />
      <path
         id="rect3365"
         style="opacity:0.9972;fill:#808080"
         d="m 217.05,287.26 -8.62,-4.35 c -0.51,-0.26 -1.27,-0.21 -1.69,0.11 l -7.23,5.52 c -0.45,0.34 -0.39,0.84 0.14,1.11 l 8.82,4.58 c 0.54,0.28 1.33,0.22 1.77,-0.14 l 7.02,-5.74 c 0.41,-0.34 0.32,-0.82 -0.21,-1.09" />
      <path
         id="rect3367"
         style="opacity:0.9972;fill:#808080"
         d="m 170.91,265.27 8.42,4.35 c 0.48,0.25 0.55,0.68 0.15,0.97 l -7.06,5.13 c -0.41,0.29 -1.13,0.32 -1.61,0.07 l -8.49,-4.44 c -0.48,-0.25 -0.54,-0.69 -0.12,-0.98 l 7.12,-5.03 c 0.4,-0.29 1.11,-0.32 1.59,-0.07" />
      <path
         id="rect3369"
         style="opacity:0.9972;fill:#808080"
         d="m 204.55,265.21 -8.72,-4.47 c -0.61,-0.31 -1.51,-0.29 -2.01,0.06 l -7.08,5 c -0.51,0.36 -0.42,0.92 0.21,1.24 l 8.83,4.6 c 0.64,0.33 1.56,0.3 2.06,-0.07 l 6.97,-5.13 c 0.48,-0.36 0.37,-0.91 -0.26,-1.23" />
      <path
         id="rect3371"
         style="opacity:0.9972;fill:#808080"
         d="m 194.6,272.55 -8.51,-4.4 c -0.6,-0.31 -1.48,-0.29 -1.97,0.06 l -7.07,4.99 c -0.53,0.37 -0.44,0.93 0.18,1.26 l 8.84,4.6 c 0.64,0.33 1.55,0.28 2.05,-0.1 l 6.74,-5.2 c 0.47,-0.36 0.35,-0.9 -0.26,-1.21" />
      <path
         id="rect3373"
         style="opacity:0.9972;fill:#808080"
         d="m 284.73,249.18 6.91,-5.72 c 0.29,-0.24 0.2,-0.58 -0.2,-0.77 l -9.16,-4.26 c -0.37,-0.18 -0.91,-0.14 -1.2,0.09 l -6.86,5.48 c -0.3,0.24 -0.23,0.58 0.14,0.76 l 9.12,4.52 c 0.39,0.19 0.95,0.15 1.25,-0.1" />
      <path
         id="rect3375"
         style="opacity:0.9972;fill:#808080"
         d="m 266.26,207.11 -8.04,-3.43 c -0.35,-0.15 0.04,-0.74 0.87,-1.32 l 17.37,-12.14 c 0.71,-0.49 1.55,-0.79 1.88,-0.66 l 7.66,2.95 c 0.35,0.14 0.07,0.66 -0.63,1.18 l -16.99,12.61 c -0.81,0.6 -1.76,0.96 -2.12,0.81" />
      <path
         id="rect3377"
         style="opacity:0.9972;fill:#808080"
         d="m 150.05,290.89 -8.91,-4.91 c -0.44,-0.25 -1.16,-0.17 -1.63,0.16 l -9.31,6.69 c -0.46,0.33 -0.49,0.8 -0.05,1.05 l 8.79,5 c 0.45,0.25 1.18,0.18 1.65,-0.16 l 9.42,-6.78 c 0.47,-0.33 0.49,-0.8 0.04,-1.05" />
      <path
         id="rect3379"
         sodipodi:nodetypes="cccccssssccccc"
         style="fill:#808080"
         d="m 308.02,201.07 -17.77,-6.89 c -1.21,-0.47 -2.76,-0.46 -3.44,0.05 l -11.88,8.78 c -0.72,0.52 -0.86,0.98 0.52,1.36 l 6.76,2.76 c 1.09,0.45 1.09,0.47 2.04,-0.22 l 1.26,-0.92 c 0.28,-0.2 1.11,-0.28 2,0.1 l 9.15,3.95 c 1.01,0.28 1.88,0.36 2.45,-0.08 l 9.53,-7.49 c 0.54,-0.43 0.28,-1.05 -0.62,-1.4" />
      <path
         id="rect3381"
         style="opacity:0.9972;fill:#808080"
         d="m 263,250.95 -8.48,-3.91 c -0.43,-0.2 -1.05,-0.15 -1.39,0.11 l -6.45,5.02 c -0.34,0.27 -0.27,0.65 0.16,0.86 l 8.41,4.06 c 0.46,0.22 1.1,0.18 1.44,-0.1 l 6.52,-5.18 c 0.34,-0.27 0.24,-0.65 -0.21,-0.86" />
      <path
         id="rect3385"
         style="opacity:0.9972;fill:#808080"
         d="m 224.64,250.58 -8.23,-4.05 c -0.61,-0.31 -1.54,-0.24 -2.08,0.15 l -7.38,5.26 c -0.55,0.39 -0.49,0.95 0.13,1.25 l 8.37,4.06 c 0.61,0.3 1.54,0.22 2.08,-0.17 l 7.24,-5.26 c 0.53,-0.39 0.47,-0.94 -0.13,-1.24" />
      <path
         id="rect3387"
         style="opacity:0.9972;fill:#808080"
         d="m 220.8,257.76 8.95,4.4 c 0.73,0.36 0.91,0.96 0.41,1.35 l -6.37,4.97 c -0.52,0.4 -1.52,0.43 -2.25,0.06 L 212.51,264 c -0.72,-0.36 -0.87,-0.96 -0.34,-1.36 l 6.44,-4.82 c 0.5,-0.38 1.48,-0.4 2.19,-0.06" />
      <path
         id="rect3389"
         style="opacity:0.9972;fill:#808080"
         d="m 209.9,237.94 7.79,3.58 c 0.6,0.27 0.72,0.76 0.27,1.1 l -6.48,4.81 c -0.47,0.35 -1.33,0.39 -1.9,0.08 l -7.54,-4.07 c -0.5,-0.27 -0.53,-0.75 -0.07,-1.06 l 6.22,-4.33 c 0.43,-0.3 1.19,-0.35 1.71,-0.11" />
      <path
         id="rect3391"
         style="opacity:0.9972;fill:#808080"
         d="m 300.49,221.42 17.88,-14.45 c 0.84,-0.67 1.19,-1.33 0.81,-1.49 l -7.74,-3.03 c -0.36,-0.14 -1.32,0.26 -2.14,0.91 l -17.61,13.81 c -0.89,0.7 -1.33,1.4 -0.97,1.58 l 7.46,3.66 c 0.37,0.18 1.41,-0.26 2.31,-0.99" />
      <path
         id="path13125"
         style="opacity:0.9972;fill:#808080"
         d="m 258.97,224.64 -7.14,-3.4 c -0.69,-0.33 -1.68,-0.29 -2.23,0.1 l -5.65,4.01 c -0.58,0.41 -0.5,1.03 0.2,1.39 l 7.16,3.68 c 0.74,0.38 1.81,0.34 2.39,-0.11 l 5.62,-4.28 c 0.55,-0.42 0.39,-1.04 -0.35,-1.39" />
      <path
         id="path13127"
         style="opacity:0.9972;fill:#808080"
         d="m 245.03,264.96 -8.13,-3.93 c -0.6,-0.29 -1.48,-0.21 -1.98,0.17 l -6.76,5.28 c -0.51,0.39 -0.43,0.94 0.17,1.24 l 8.18,4 c 0.61,0.29 1.51,0.21 2.01,-0.19 l 6.71,-5.34 c 0.5,-0.39 0.41,-0.94 -0.2,-1.23" />
      <path
         id="path13129"
         style="opacity:0.9972;fill:#808080"
         d="m 241.34,254.89 5.84,-4.5 c 0.46,-0.36 0.26,-0.92 -0.46,-1.27 l -8.87,-4.29 c -0.71,-0.34 -1.65,-0.34 -2.12,0.01 l -5.89,4.42 c -0.47,0.36 -0.28,0.92 0.42,1.27 l 8.93,4.38 c 0.72,0.35 1.68,0.34 2.15,-0.02" />
      <path
         id="path13131"
         style="opacity:0.9972;fill:#808080"
         d="m 250.1,248.11 5.94,-4.71 c 0.57,-0.46 0.37,-1.13 -0.45,-1.52 l -8.12,-3.82 c -0.8,-0.38 -1.93,-0.34 -2.53,0.09 l -6.21,4.46 c -0.64,0.46 -0.5,1.16 0.33,1.56 l 8.38,4.08 c 0.85,0.41 2.04,0.35 2.66,-0.14" />
      <path
         id="path13133"
         style="opacity:0.9972;fill:#808080"
         d="m 270.78,244.1 -7.61,-3.55 c -0.57,-0.26 -1.36,-0.22 -1.77,0.1 l -5.73,4.48 c -0.44,0.35 -0.31,0.84 0.28,1.11 l 7.94,3.66 c 0.58,0.27 1.39,0.2 1.8,-0.15 l 5.4,-4.59 c 0.39,-0.32 0.25,-0.8 -0.31,-1.06" />
      <path
         id="path13135"
         style="opacity:0.9972;fill:#808080"
         d="m 279.36,237.13 -7.41,-3.34 c -0.58,-0.26 -1.43,-0.17 -1.9,0.19 l -5.99,4.64 c -0.49,0.38 -0.42,0.9 0.16,1.17 l 7.38,3.49 c 0.6,0.29 1.48,0.2 1.96,-0.18 l 6.03,-4.79 c 0.48,-0.38 0.38,-0.91 -0.23,-1.18" />
      <path
         id="path14377"
         style="opacity:0.9972;fill:#808080"
         d="m 259.14,241.02 5.8,-4.52 c 0.58,-0.44 0.34,-1.11 -0.53,-1.48 l -8.27,-3.58 c -0.79,-0.34 -1.87,-0.28 -2.43,0.14 l -5.62,4.22 c -0.57,0.42 -0.41,1.06 0.37,1.44 l 8.08,3.87 c 0.85,0.41 2.01,0.37 2.6,-0.09" />
      <path
         id="path14379"
         style="opacity:0.9972;fill:#808080"
         d="m 232.79,261.44 5.94,-4.58 c 0.43,-0.34 0.24,-0.87 -0.43,-1.19 l -9.02,-4.37 c -0.67,-0.32 -1.56,-0.31 -1.99,0.02 l -5.99,4.49 c -0.45,0.33 -0.28,0.86 0.39,1.19 l 9.08,4.45 c 0.68,0.34 1.58,0.33 2.02,-0.01" />
      <path
         id="path14381"
         style="opacity:0.9972;fill:#808080"
         d="m 254.17,257.49 -7.84,-3.76 c -0.62,-0.3 -1.54,-0.21 -2.05,0.19 l -6.53,5.06 c -0.52,0.41 -0.45,0.98 0.17,1.29 l 7.86,3.87 c 0.63,0.31 1.57,0.23 2.1,-0.19 l 6.51,-5.18 c 0.51,-0.41 0.42,-0.98 -0.22,-1.28" />
      <path
         id="path14383"
         style="opacity:0.9972;fill:#808080"
         d="m 233.04,243.79 -7.55,-3.65 c -0.75,-0.36 -1.8,-0.32 -2.36,0.09 l -5.68,4.15 c -0.58,0.42 -0.45,1.05 0.29,1.43 l 7.5,3.78 c 0.77,0.38 1.85,0.35 2.43,-0.08 l 5.73,-4.28 c 0.57,-0.42 0.41,-1.06 -0.36,-1.44" />
      <path
         id="path14385"
         style="opacity:0.9972;fill:#808080"
         d="m 282.03,224.71 5.95,-4.63 c 0.59,-0.45 1.58,-0.57 2.23,-0.25 l 6.56,3.18 c 0.66,0.32 0.72,0.95 0.14,1.42 l -5.89,4.72 c -0.6,0.48 -1.62,0.6 -2.29,0.27 l -6.61,-3.28 c -0.65,-0.32 -0.69,-0.96 -0.09,-1.43" />
      <path
         id="path20314"
         style="opacity:0.9972;fill:#808080"
         d="m 274.59,213.05 -6.96,-3.17 c -0.7,-0.32 -1.65,-0.29 -2.12,0.05 l -4.81,3.52 c -0.49,0.36 -0.31,0.91 0.41,1.23 l 7.14,3.19 c 0.71,0.31 1.66,0.28 2.13,-0.08 l 4.63,-3.55 c 0.46,-0.35 0.27,-0.88 -0.42,-1.19" />
      <path
         id="path20316"
         style="opacity:0.9972;fill:#808080"
         d="m 292,215.55 4.37,-3.39 c 0.43,-0.34 0.12,-0.88 -0.69,-1.22 l -7.9,-3.3 c -0.77,-0.32 -1.74,-0.32 -2.16,0 l -4.32,3.25 c -0.43,0.33 -0.17,0.86 0.6,1.2 l 7.85,3.44 c 0.8,0.36 1.81,0.37 2.25,0.02" />
      <path
         id="path20318"
         style="opacity:0.9972;fill:#808080"
         d="m 284.73,221.17 4.72,-3.63 c 0.48,-0.36 0.22,-0.92 -0.58,-1.26 l -7.97,-3.38 c -0.8,-0.34 -1.83,-0.32 -2.31,0.04 l -4.79,3.63 c -0.48,0.36 -0.22,0.93 0.59,1.27 l 8.03,3.38 c 0.8,0.34 1.83,0.32 2.31,-0.05" />
      <path
         id="path20320"
         style="opacity:0.9972;fill:#808080"
         d="m 280.71,208.19 -7.06,-2.8 c -0.66,-0.26 -1.49,-0.25 -1.87,0.03 l -3.84,2.79 c -0.4,0.28 -0.2,0.74 0.44,1.03 l 6.9,3.12 c 0.74,0.33 1.67,0.35 2.08,0.03 l 4.01,-3.11 c 0.39,-0.3 0.09,-0.79 -0.66,-1.09" />
      <path
         id="path20322"
         style="opacity:0.9972;fill:#808080"
         d="m 267.13,218.61 -7.08,-3.21 c -0.69,-0.32 -1.66,-0.28 -2.17,0.08 l -5.21,3.64 c -0.52,0.37 -0.4,0.93 0.28,1.27 l 6.98,3.4 c 0.73,0.35 1.74,0.32 2.28,-0.07 l 5.3,-3.83 c 0.53,-0.38 0.36,-0.95 -0.38,-1.28" />
      <path
         id="path20324"
         style="opacity:0.9972;fill:#808080"
         d="M 287.74,230.26 281.08,227 c -0.67,-0.33 -1.67,-0.24 -2.24,0.19 l -5.75,4.44 c -0.58,0.45 -0.49,1.08 0.21,1.41 l 6.89,3.23 c 0.68,0.32 1.67,0.22 2.23,-0.23 l 5.52,-4.42 c 0.54,-0.43 0.45,-1.04 -0.2,-1.36" />
      <path
         id="path20326"
         style="opacity:0.9972;fill:#808080"
         d="m 267.95,234.14 5.45,-4.19 c 0.55,-0.42 0.32,-1.04 -0.51,-1.4 l -8.14,-3.49 c -0.8,-0.35 -1.88,-0.3 -2.42,0.1 l -5.44,4.08 c -0.55,0.41 -0.35,1.03 0.45,1.39 l 8.12,3.61 c 0.83,0.37 1.94,0.32 2.49,-0.1" />
      <path
         id="path21282"
         style="opacity:0.9972;fill:#808080"
         d="m 276.33,227.66 5.57,-4.3 c 0.55,-0.43 0.33,-1.05 -0.49,-1.39 l -8.06,-3.38 c -0.8,-0.33 -1.88,-0.27 -2.43,0.15 l -5.58,4.18 c -0.56,0.42 -0.38,1.04 0.42,1.38 l 8.07,3.51 c 0.82,0.35 1.94,0.29 2.5,-0.15" />
      <g
         id="g5349"
         transform="matrix(1.0228,0,0,1.0228,-6.1273,-1.9736)">
        <path
           id="path3281"
           style="opacity:0.9972;fill:#4d4d4d"
           d="m 200.53,313.05 -7.5,6.32 c -0.38,0.32 -1.02,0.39 -1.43,0.15 l -8.31,-4.75 c -0.42,-0.24 -0.44,-0.69 -0.05,-1 l 7.63,-6.23 c 0.37,-0.3 1,-0.36 1.41,-0.13 l 8.18,4.66 c 0.4,0.23 0.44,0.67 0.07,0.98" />
        <path
           id="path3283"
           style="opacity:0.9972;fill:#4d4d4d"
           d="m 172.42,306.04 15.61,-11.95 c 1.09,-0.84 2.39,-1.27 2.92,-0.98 l 7.24,3.98 c 0.54,0.3 0.13,1.23 -0.93,2.08 l -15.17,12.3 c -1.19,0.96 -2.62,1.48 -3.19,1.16 l -7.68,-4.32 c -0.57,-0.32 -0.03,-1.34 1.2,-2.27" />
        <path
           id="path3285"
           style="opacity:0.9972;fill:#4d4d4d"
           d="m 183.72,293.09 -8.5,-4.47 c -0.6,-0.32 -1.83,-0.01 -2.76,0.68 l -13.4,9.97 c -0.98,0.73 -1.29,1.59 -0.69,1.92 l 8.52,4.77 c 0.62,0.34 1.9,0.01 2.88,-0.74 l 13.38,-10.25 c 0.93,-0.72 1.18,-1.55 0.57,-1.88" />
        <path
           id="path3287"
           style="opacity:0.9972;fill:#4d4d4d"
           d="m 166.83,289.13 -7.69,-4.15 c -0.45,-0.24 -1.29,-0.08 -1.9,0.36 l -10.65,7.63 c -0.64,0.46 -0.8,1.03 -0.35,1.29 l 7.75,4.43 c 0.46,0.26 1.35,0.09 1.99,-0.39 l 10.59,-7.91 c 0.61,-0.45 0.72,-1.02 0.26,-1.26" />
        <path
           id="path3289"
           style="opacity:0.9972;fill:#4d4d4d"
           d="m 151.36,285.66 -7.51,-4.15 c -0.37,-0.2 -0.98,-0.14 -1.38,0.14 l -7.85,5.64 c -0.4,0.29 -0.42,0.68 -0.05,0.89 l 7.42,4.22 c 0.38,0.21 1,0.15 1.39,-0.13 l 7.95,-5.72 c 0.4,-0.29 0.41,-0.69 0.03,-0.89" />
        <path
           id="path3291"
           style="opacity:0.9972;fill:#4d4d4d"
           d="m 210.7,305.78 -5.77,4.8 c -0.59,0.49 -1.66,0.54 -2.4,0.11 l -7.7,-4.39 c -0.8,-0.46 -0.94,-1.23 -0.32,-1.73 l 6.15,-4.92 c 0.6,-0.49 1.7,-0.5 2.46,-0.03 l 7.33,4.51 c 0.71,0.44 0.82,1.17 0.25,1.65" />
        <path
           id="path3293"
           style="opacity:0.9972;fill:#4d4d4d"
           d="m 220.37,297.65 -6.17,5.19 c -0.39,0.33 -1.14,0.33 -1.67,0 l -8.06,-4.98 c -0.47,-0.29 -0.55,-0.77 -0.17,-1.08 l 5.95,-4.8 c 0.37,-0.3 1.06,-0.32 1.55,-0.04 l 8.27,4.59 c 0.54,0.3 0.68,0.8 0.3,1.12" />
        <path
           id="path3295"
           style="opacity:0.9972;fill:#4d4d4d"
           d="m 229.28,290.15 -5.51,4.64 c -0.48,0.41 -1.41,0.44 -2.07,0.07 l -7.6,-4.29 c -0.67,-0.37 -0.8,-1 -0.3,-1.4 l 5.63,-4.61 c 0.48,-0.39 1.4,-0.41 2.05,-0.04 l 7.48,4.25 c 0.65,0.37 0.79,0.99 0.32,1.38" />
        <path
           id="path3297"
           style="opacity:0.9972;fill:#4d4d4d"
           d="m 207.64,289.76 -7.44,-3.79 c -0.45,-0.23 -1.09,-0.19 -1.43,0.09 l -5.55,4.44 c -0.35,0.28 -0.27,0.69 0.17,0.93 l 7.23,3.94 c 0.47,0.25 1.13,0.22 1.49,-0.06 l 5.74,-4.59 c 0.36,-0.29 0.26,-0.72 -0.21,-0.96" />
        <path
           id="path3299"
           style="opacity:0.9972;fill:#4d4d4d"
           d="m 193.31,285.78 -8.09,-4.3 c -0.64,-0.34 -1.51,-0.34 -1.97,0 l -5.76,4.33 c -0.47,0.35 -0.33,0.92 0.31,1.27 l 8.13,4.46 c 0.66,0.36 1.56,0.36 2.03,0 l 5.72,-4.49 c 0.45,-0.35 0.28,-0.92 -0.37,-1.27" />
        <path
           id="path3301"
           style="opacity:0.9972;fill:#4d4d4d"
           d="m 153.66,274.41 8.1,4.25 c 0.26,0.14 0.3,0.39 0.08,0.55 l -7.09,5.18 c -0.23,0.17 -0.63,0.19 -0.89,0.04 l -8.03,-4.46 c -0.25,-0.14 -0.27,-0.38 -0.04,-0.54 l 7.01,-4.98 c 0.22,-0.15 0.6,-0.17 0.86,-0.04" />
        <path
           id="path3303"
           style="opacity:0.9972;fill:#4d4d4d"
           d="m 176.68,282.15 -7.59,-4.02 c -0.56,-0.29 -1.35,-0.27 -1.77,0.05 l -5.8,4.31 c -0.43,0.32 -0.33,0.82 0.22,1.12 l 7.59,4.11 c 0.57,0.3 1.37,0.29 1.8,-0.04 l 5.81,-4.4 c 0.42,-0.33 0.31,-0.83 -0.26,-1.13" />
        <path
           id="path3305"
           style="opacity:0.9972;fill:#4d4d4d"
           d="m 186.06,275.08 -7.39,-3.81 c -0.53,-0.28 -1.29,-0.25 -1.71,0.04 l -6.15,4.34 c -0.46,0.33 -0.38,0.81 0.16,1.1 l 7.68,3.99 c 0.55,0.29 1.34,0.25 1.77,-0.09 l 5.86,-4.51 c 0.41,-0.31 0.3,-0.78 -0.22,-1.06" />
        <path
           id="path3307"
           style="opacity:0.9972;fill:#4d4d4d"
           d="m 163.52,267.88 7.64,4.04 c 0.38,0.2 0.43,0.53 0.12,0.75 l -6.46,4.64 c -0.32,0.23 -0.88,0.25 -1.26,0.05 l -7.79,-4.1 c -0.38,-0.2 -0.43,-0.55 -0.1,-0.77 l 6.6,-4.57 c 0.32,-0.22 0.87,-0.24 1.25,-0.04" />
        <path
           id="path3309"
           style="opacity:0.9972;fill:#4d4d4d"
           d="m 173.08,261.27 7.34,3.79 c 0.42,0.22 0.48,0.6 0.13,0.85 l -6.15,4.47 c -0.36,0.25 -0.98,0.28 -1.41,0.06 l -7.4,-3.87 c -0.42,-0.22 -0.46,-0.6 -0.11,-0.85 l 6.22,-4.39 c 0.35,-0.25 0.97,-0.28 1.38,-0.06" />
        <path
           id="path3311"
           style="opacity:0.9972;fill:#4d4d4d"
           d="m 183.16,254.06 7.38,3.84 c 0.36,0.19 0.4,0.53 0.08,0.77 l -6.78,5.15 c -0.34,0.26 -0.92,0.31 -1.29,0.11 l -7.7,-4.03 c -0.37,-0.19 -0.38,-0.55 -0.02,-0.8 l 7.08,-4.96 c 0.34,-0.23 0.89,-0.27 1.25,-0.08" />
        <path
           id="path3313"
           style="opacity:0.9972;fill:#4d4d4d"
           d="m 195.51,268 -7.59,-3.92 c -0.54,-0.28 -1.32,-0.25 -1.76,0.05 l -6.31,4.46 c -0.47,0.33 -0.39,0.83 0.17,1.12 l 7.88,4.1 c 0.57,0.3 1.38,0.26 1.83,-0.09 l 6.01,-4.63 c 0.42,-0.32 0.31,-0.81 -0.23,-1.09" />
        <path
           id="path3315"
           style="opacity:0.9972;fill:#4d4d4d"
           d="m 202.55,278.56 -8.03,-4.13 c -0.62,-0.32 -1.49,-0.3 -1.94,0.04 l -5.76,4.33 c -0.47,0.35 -0.35,0.9 0.27,1.24 l 7.94,4.37 c 0.65,0.36 1.57,0.35 2.04,-0.02 l 5.85,-4.57 c 0.46,-0.36 0.29,-0.92 -0.37,-1.26" />
        <path
           id="path3317"
           style="opacity:0.9972;fill:#4d4d4d"
           d="m 217.28,282.31 -7.51,-3.79 c -0.45,-0.23 -1.11,-0.19 -1.48,0.09 l -6.3,4.81 c -0.39,0.3 -0.34,0.73 0.12,0.97 l 7.69,4 c 0.47,0.24 1.16,0.18 1.54,-0.13 l 6.13,-5 c 0.35,-0.3 0.27,-0.72 -0.19,-0.95" />
        <path
           id="path5259"
           sodipodi:nodetypes="cccccccccc"
           style="fill:#4d4d4d"
           d="m 223.63,280.97 47.57,-38.16 c 0.57,-0.46 1.74,-0.46 2.63,-0.03 l 6.33,3.11 c 0.91,0.45 1.19,1.18 0.63,1.64 l -46.86,39.26 c -0.69,0.57 -2.03,0.6 -3,0.06 l -6.87,-3.91 c -0.94,-0.53 -1.13,-1.41 -0.43,-1.97" />
        <path
           id="path5261"
           style="opacity:0.9972;fill:#4d4d4d"
           d="m 227.04,274.62 -7.47,-3.72 c -0.43,-0.22 -1.08,-0.16 -1.45,0.13 l -6.51,5 c -0.39,0.3 -0.35,0.72 0.09,0.94 l 7.55,3.88 c 0.45,0.23 1.12,0.16 1.5,-0.15 l 6.42,-5.15 c 0.37,-0.3 0.31,-0.71 -0.13,-0.93" />
        <path
           id="path5263"
           style="opacity:0.9972;fill:#4d4d4d"
           d="m 192.52,247.36 7.26,3.96 c 0.3,0.16 0.33,0.45 0.05,0.64 l -6.43,4.53 c -0.28,0.19 -0.74,0.22 -1.05,0.06 l -7.43,-3.83 c -0.33,-0.16 -0.36,-0.46 -0.08,-0.65 l 6.6,-4.67 c 0.28,-0.19 0.76,-0.22 1.08,-0.04" />
        <path
           id="path5265"
           style="opacity:0.9972;fill:#4d4d4d"
           d="m 204.96,260.68 -7.51,-3.85 c -0.53,-0.27 -1.3,-0.25 -1.73,0.06 l -6.09,4.3 c -0.45,0.31 -0.37,0.79 0.17,1.07 l 7.61,3.96 c 0.54,0.28 1.34,0.25 1.77,-0.07 l 5.99,-4.41 c 0.42,-0.31 0.33,-0.78 -0.21,-1.06" />
        <path
           id="path5267"
           style="opacity:0.9972;fill:#4d4d4d"
           d="m 203.43,267.21 8.8,4.49 c 0.39,0.2 0.48,0.54 0.2,0.75 l -6.4,4.88 c -0.29,0.22 -0.83,0.23 -1.23,0.03 l -8.84,-4.55 c -0.39,-0.2 -0.48,-0.54 -0.19,-0.75 l 6.44,-4.83 c 0.29,-0.21 0.83,-0.22 1.22,-0.02" />
        <path
           id="path5269"
           style="opacity:0.9972;fill:#4d4d4d"
           d="m 212.73,260.69 8.09,4.03 c 0.59,0.29 0.74,0.77 0.35,1.08 l -5.65,4.33 c -0.41,0.32 -1.22,0.33 -1.81,0.02 l -8.1,-4.2 c -0.57,-0.3 -0.69,-0.78 -0.28,-1.08 l 5.66,-4.16 c 0.4,-0.29 1.17,-0.3 1.74,-0.02" />
        <path
           id="path5271"
           style="opacity:0.9972;fill:#4d4d4d"
           d="m 235.38,267.95 -7.02,-3.41 c -0.6,-0.29 -1.44,-0.25 -1.88,0.09 l -5.11,3.93 c -0.45,0.35 -0.33,0.87 0.28,1.17 l 7,3.48 c 0.62,0.31 1.47,0.27 1.92,-0.08 l 5.13,-4.02 c 0.44,-0.34 0.3,-0.86 -0.32,-1.16" />
        <path
           id="path5273"
           style="opacity:0.9972;fill:#4d4d4d"
           d="m 202.34,240.55 7.07,3.81 c 0.37,0.2 0.39,0.56 0.04,0.81 l -6.73,4.75 c -0.36,0.25 -0.94,0.29 -1.31,0.09 l -7.06,-3.85 c -0.37,-0.21 -0.38,-0.57 -0.02,-0.82 l 6.71,-4.7 c 0.36,-0.25 0.94,-0.29 1.3,-0.09" />
        <path
           id="path5275"
           style="opacity:0.9972;fill:#4d4d4d"
           d="m 214.96,253.89 -7.75,-3.78 c -0.43,-0.21 -1.06,-0.17 -1.41,0.07 l -6.29,4.43 c -0.36,0.25 -0.32,0.63 0.11,0.85 l 7.62,4 c 0.45,0.23 1.11,0.21 1.48,-0.06 l 6.41,-4.64 c 0.36,-0.26 0.28,-0.65 -0.17,-0.87" />
        <path
           id="path5277"
           style="opacity:0.9972;fill:#4d4d4d"
           d="m 221.9,253.92 7.85,3.85 c 0.63,0.32 0.79,0.84 0.35,1.18 l -5.58,4.36 c -0.45,0.35 -1.33,0.38 -1.97,0.05 l -7.91,-3.98 c -0.62,-0.31 -0.76,-0.84 -0.3,-1.18 l 5.64,-4.23 c 0.45,-0.33 1.3,-0.35 1.92,-0.05" />
        <path
           id="path5279"
           style="opacity:0.9972;fill:#4d4d4d"
           d="m 244.76,260.59 -7.17,-3.47 c -0.53,-0.25 -1.31,-0.18 -1.75,0.16 l -5.96,4.65 c -0.45,0.34 -0.38,0.83 0.16,1.09 l 7.21,3.52 c 0.53,0.27 1.32,0.19 1.76,-0.16 l 5.93,-4.7 c 0.43,-0.35 0.35,-0.84 -0.18,-1.09" />
        <path
           id="path5281"
           style="opacity:0.9972;fill:#4d4d4d"
           d="m 233.29,256.42 5.17,-3.98 c 0.37,-0.3 0.21,-0.76 -0.38,-1.04 l -7.85,-3.8 c -0.57,-0.28 -1.34,-0.27 -1.73,0.02 l -5.21,3.9 c -0.39,0.29 -0.23,0.76 0.35,1.04 l 7.9,3.87 c 0.58,0.29 1.37,0.28 1.75,-0.01" />
        <path
           id="path5283"
           style="opacity:0.9972;fill:#4d4d4d"
           d="m 224.85,246.56 -7.32,-3.62 c -0.55,-0.27 -1.38,-0.21 -1.86,0.14 l -6.56,4.68 c -0.5,0.35 -0.44,0.85 0.11,1.12 l 7.45,3.61 c 0.55,0.27 1.38,0.2 1.86,-0.15 l 6.44,-4.68 c 0.47,-0.35 0.42,-0.84 -0.12,-1.1" />
        <path
           id="path5285"
           style="opacity:0.9972;fill:#4d4d4d"
           d="m 211.22,234.55 6.92,3.18 c 0.53,0.25 0.64,0.68 0.24,0.98 l -5.76,4.28 c -0.42,0.31 -1.18,0.34 -1.69,0.06 l -6.7,-3.61 c -0.44,-0.24 -0.47,-0.66 -0.07,-0.95 l 5.53,-3.84 c 0.39,-0.27 1.07,-0.31 1.53,-0.1" />
        <path
           id="path5287"
           style="opacity:0.9972;fill:#4d4d4d"
           d="m 233.16,239.94 -6.72,-3.25 c -0.66,-0.32 -1.59,-0.28 -2.09,0.09 l -5.05,3.68 c -0.51,0.37 -0.4,0.94 0.26,1.27 l 6.67,3.36 c 0.68,0.35 1.64,0.31 2.15,-0.07 l 5.1,-3.8 c 0.51,-0.38 0.36,-0.95 -0.32,-1.28" />
        <path
           id="path5289"
           style="opacity:0.9972;fill:#4d4d4d"
           d="m 220.3,227.88 7.16,3.26 c 0.37,0.16 0.41,0.47 0.11,0.69 l -6.19,4.53 c -0.31,0.23 -0.87,0.28 -1.23,0.11 l -7.29,-3.41 c -0.36,-0.16 -0.39,-0.48 -0.07,-0.7 l 6.32,-4.39 c 0.31,-0.21 0.84,-0.25 1.19,-0.09" />
        <path
           id="path5291"
           style="opacity:0.9972;fill:#4d4d4d"
           d="m 253.83,253.35 -7.02,-3.36 c -0.56,-0.27 -1.38,-0.19 -1.84,0.17 l -5.85,4.53 c -0.47,0.37 -0.4,0.88 0.16,1.16 l 7.03,3.46 c 0.57,0.28 1.41,0.21 1.88,-0.17 l 5.84,-4.63 c 0.46,-0.37 0.37,-0.88 -0.2,-1.16" />
        <path
           id="path5293"
           style="opacity:0.9972;fill:#4d4d4d"
           d="m 241.69,250.19 5.17,-3.99 c 0.41,-0.31 0.23,-0.81 -0.4,-1.12 l -7.86,-3.8 c -0.63,-0.31 -1.46,-0.3 -1.88,0.01 l -5.21,3.91 c -0.43,0.32 -0.26,0.82 0.37,1.13 l 7.91,3.88 c 0.64,0.31 1.48,0.3 1.9,-0.02" />
        <path
           id="path5295"
           style="opacity:0.9972;fill:#4d4d4d"
           d="m 262.3,246.87 -7.42,-3.42 c -0.38,-0.18 -0.92,-0.13 -1.22,0.09 l -5.64,4.4 c -0.3,0.23 -0.24,0.57 0.14,0.75 l 7.36,3.55 c 0.4,0.2 0.96,0.16 1.26,-0.08 l 5.7,-4.54 c 0.3,-0.23 0.22,-0.57 -0.18,-0.75" />
        <path
           id="path5297"
           style="opacity:0.9972;fill:#4d4d4d"
           d="m 269.92,240.18 -6.61,-3.08 c -0.49,-0.23 -1.17,-0.19 -1.53,0.09 l -4.97,3.89 c -0.38,0.3 -0.28,0.73 0.23,0.96 l 6.9,3.17 c 0.51,0.24 1.2,0.18 1.56,-0.12 l 4.69,-3.99 c 0.34,-0.28 0.22,-0.69 -0.27,-0.92" />
        <path
           id="path5299"
           style="opacity:0.9972;fill:#4d4d4d"
           d="m 284.16,244.26 5.93,-4.91 c 0.25,-0.21 0.17,-0.5 -0.17,-0.66 l -7.86,-3.66 c -0.33,-0.15 -0.78,-0.12 -1.03,0.08 l -5.89,4.7 c -0.26,0.2 -0.2,0.5 0.12,0.66 l 7.82,3.87 c 0.34,0.17 0.82,0.13 1.08,-0.08" />
        <path
           id="path5301"
           style="opacity:0.9972;fill:#4d4d4d"
           d="m 290.63,228.42 7.85,3.35 c 0.49,0.22 0.61,0.61 0.27,0.89 l -5.71,4.62 c -0.34,0.28 -1.01,0.33 -1.48,0.11 l -7.63,-3.56 c -0.44,-0.21 -0.53,-0.59 -0.2,-0.86 l 5.48,-4.42 c 0.33,-0.27 0.97,-0.33 1.42,-0.13" />
        <path
           id="path5303"
           style="opacity:0.9972;fill:#4d4d4d"
           d="m 301.87,230.06 4.86,-4.05 c 0.48,-0.4 0.34,-0.97 -0.31,-1.27 l -6.7,-3.1 c -0.69,-0.32 -1.66,-0.24 -2.16,0.17 l -5.1,4.14 c -0.51,0.42 -0.35,1.01 0.36,1.32 l 6.94,3 c 0.68,0.29 1.62,0.19 2.11,-0.21" />
        <path
           id="path5305"
           style="opacity:0.9972;fill:#4d4d4d"
           d="m 229.76,221.52 6.54,2.83 c 0.48,0.21 0.54,0.61 0.14,0.9 l -5.7,4.1 c -0.42,0.3 -1.13,0.37 -1.61,0.15 l -6.55,-2.96 c -0.46,-0.2 -0.5,-0.6 -0.09,-0.89 l 5.71,-3.99 c 0.41,-0.28 1.1,-0.34 1.56,-0.14" />
        <path
           id="path5307"
           style="opacity:0.9972;fill:#4d4d4d"
           d="m 241.43,233.77 -6.56,-3.26 c -0.58,-0.28 -1.4,-0.26 -1.84,0.06 l -5.02,3.64 c -0.44,0.31 -0.32,0.79 0.26,1.07 l 6.62,3.19 c 0.57,0.28 1.37,0.25 1.8,-0.06 l 4.98,-3.57 c 0.43,-0.31 0.33,-0.79 -0.24,-1.07" />
        <path
           id="path5309"
           style="opacity:0.9972;fill:#4d4d4d"
           d="m 250.22,243.4 5.17,-4.1 c 0.5,-0.39 0.32,-0.98 -0.39,-1.32 l -7.07,-3.33 c -0.7,-0.33 -1.68,-0.29 -2.2,0.08 l -5.4,3.89 c -0.56,0.4 -0.44,1.01 0.28,1.36 l 7.3,3.54 c 0.74,0.36 1.77,0.31 2.31,-0.12" />
        <path
           id="path5311"
           style="opacity:0.9972;fill:#4d4d4d"
           d="m 259.03,236.38 4.97,-3.86 c 0.49,-0.39 0.29,-0.95 -0.45,-1.27 l -7.09,-3.07 c -0.67,-0.29 -1.6,-0.24 -2.07,0.12 l -4.81,3.61 c -0.49,0.37 -0.35,0.92 0.31,1.23 l 6.92,3.32 c 0.72,0.35 1.72,0.32 2.22,-0.08" />
        <path
           id="path5313"
           style="opacity:0.9972;fill:#4d4d4d"
           d="m 249.93,227.48 -6.35,-3.22 c -0.64,-0.32 -1.55,-0.29 -2.04,0.06 l -5.03,3.64 c -0.52,0.37 -0.41,0.94 0.25,1.27 l 6.54,3.3 c 0.65,0.33 1.58,0.28 2.07,-0.1 l 4.85,-3.71 c 0.47,-0.37 0.34,-0.92 -0.29,-1.24" />
        <path
           id="path5315"
           style="opacity:0.9972;fill:#4d4d4d"
           d="m 278.38,233.43 -6.51,-2.93 c -0.51,-0.23 -1.26,-0.16 -1.68,0.16 l -5.26,4.08 c -0.43,0.33 -0.36,0.79 0.15,1.03 l 6.47,3.06 c 0.53,0.25 1.3,0.18 1.73,-0.16 l 5.3,-4.21 c 0.42,-0.33 0.33,-0.79 -0.2,-1.03" />
        <path
           id="path5317"
           style="opacity:0.9972;fill:#4d4d4d"
           d="m 286.65,226.74 -5.9,-2.89 c -0.59,-0.29 -1.48,-0.21 -1.98,0.17 l -5.09,3.94 c -0.52,0.4 -0.44,0.95 0.18,1.25 l 6.1,2.86 c 0.6,0.28 1.49,0.19 1.98,-0.21 l 4.89,-3.91 c 0.48,-0.39 0.4,-0.93 -0.18,-1.21" />
        <path
           id="path5319"
           style="opacity:0.9972;fill:#4d4d4d"
           d="m 267.68,229.91 4.79,-3.67 c 0.47,-0.37 0.27,-0.91 -0.45,-1.23 l -7.14,-3.07 c -0.7,-0.3 -1.65,-0.26 -2.12,0.1 l -4.78,3.58 c -0.48,0.36 -0.3,0.9 0.4,1.21 l 7.12,3.17 c 0.72,0.32 1.7,0.28 2.18,-0.09" />
        <path
           id="path5321"
           style="opacity:0.9972;fill:#4d4d4d"
           d="m 258.51,221.23 -6.32,-3.02 c -0.61,-0.29 -1.5,-0.25 -1.98,0.1 l -5.01,3.55 c -0.51,0.36 -0.44,0.91 0.18,1.23 l 6.35,3.27 c 0.65,0.33 1.6,0.29 2.11,-0.1 l 4.98,-3.8 c 0.49,-0.37 0.35,-0.92 -0.31,-1.23" />
        <path
           id="path5323"
           style="opacity:0.9972;fill:#4d4d4d"
           d="m 239.23,214.77 6.53,2.89 c 0.47,0.21 0.52,0.61 0.11,0.91 l -5.83,4.23 c -0.42,0.3 -1.14,0.38 -1.61,0.16 L 231.84,220 c -0.47,-0.21 -0.5,-0.62 -0.07,-0.92 l 5.88,-4.15 c 0.41,-0.29 1.12,-0.36 1.58,-0.16" />
        <path
           id="path5325"
           style="opacity:0.9972;fill:#4d4d4d"
           d="m 247.91,208.65 6.63,2.86 c 0.48,0.2 0.56,0.59 0.18,0.87 l -5.37,3.87 c -0.39,0.28 -1.08,0.33 -1.56,0.12 l -6.6,-2.93 c -0.47,-0.21 -0.54,-0.6 -0.15,-0.87 l 5.34,-3.8 c 0.38,-0.27 1.06,-0.33 1.53,-0.12" />
        <path
           id="path5327"
           style="opacity:0.9972;fill:#4d4d4d"
           d="m 266.54,215.36 -6.3,-2.85 c -0.61,-0.28 -1.47,-0.25 -1.92,0.07 l -4.62,3.24 c -0.47,0.32 -0.36,0.82 0.24,1.11 l 6.2,3.02 c 0.64,0.32 1.55,0.29 2.02,-0.05 l 4.71,-3.4 c 0.47,-0.34 0.32,-0.85 -0.33,-1.14" />
        <path
           id="path5329"
           style="opacity:0.9972;fill:#4d4d4d"
           d="m 275.86,223.5 4.84,-3.74 c 0.47,-0.37 0.29,-0.91 -0.43,-1.21 l -7,-2.92 c -0.69,-0.29 -1.63,-0.24 -2.11,0.12 l -4.83,3.63 c -0.49,0.37 -0.33,0.9 0.36,1.2 l 7,3.04 c 0.71,0.31 1.68,0.26 2.17,-0.12" />
        <path
           id="path5331"
           style="opacity:0.9972;fill:#4d4d4d"
           d="m 282.59,221.05 5.13,-3.99 c 0.51,-0.4 1.36,-0.49 1.93,-0.22 l 5.65,2.74 c 0.57,0.28 0.62,0.82 0.12,1.22 l -5.08,4.07 c -0.52,0.42 -1.4,0.52 -1.97,0.24 l -5.7,-2.83 c -0.56,-0.28 -0.6,-0.83 -0.08,-1.23" />
        <path
           id="path5333"
           style="opacity:0.9972;fill:#4d4d4d"
           d="m 273.82,209.91 -6.14,-2.8 c -0.62,-0.28 -1.46,-0.26 -1.88,0.05 l -4.25,3.11 c -0.43,0.31 -0.27,0.8 0.37,1.08 l 6.3,2.81 c 0.63,0.28 1.46,0.25 1.88,-0.07 l 4.1,-3.13 c 0.4,-0.3 0.23,-0.78 -0.38,-1.05" />
        <path
           id="path5335"
           style="opacity:0.9972;fill:#4d4d4d"
           d="m 257.37,201.77 7.27,3.09 c 0.31,0.13 0.34,0.4 0.06,0.6 l -6.71,4.89 c -0.3,0.21 -0.79,0.28 -1.11,0.14 l -7.49,-3.23 c -0.32,-0.14 -0.33,-0.42 -0.03,-0.62 l 6.94,-4.75 c 0.29,-0.2 0.77,-0.25 1.07,-0.12" />
        <path
           id="path5337"
           style="opacity:0.9972;fill:#4d4d4d"
           d="m 284.09,217.4 4.2,-3.22 c 0.41,-0.32 0.18,-0.82 -0.52,-1.12 l -7.07,-3 c -0.71,-0.3 -1.63,-0.29 -2.05,0.04 l -4.26,3.22 c -0.43,0.32 -0.19,0.83 0.52,1.13 l 7.14,3 c 0.71,0.29 1.62,0.27 2.04,-0.05" />
        <path
           id="path5339"
           style="opacity:0.9972;fill:#4d4d4d"
           d="m 300.1,217.07 16.22,-13.1 c 0.76,-0.61 1.08,-1.22 0.73,-1.35 l -7.02,-2.75 c -0.33,-0.13 -1.19,0.23 -1.94,0.82 l -15.97,12.53 c -0.81,0.63 -1.21,1.27 -0.89,1.43 l 6.77,3.32 c 0.34,0.16 1.28,-0.24 2.1,-0.9" />
        <path
           id="path5341"
           style="opacity:0.9972;fill:#4d4d4d"
           d="m 291.15,211.82 3.81,-2.96 c 0.38,-0.3 0.11,-0.77 -0.6,-1.07 l -6.9,-2.88 c -0.67,-0.28 -1.51,-0.28 -1.88,0 l -3.77,2.84 c -0.38,0.29 -0.15,0.75 0.52,1.05 l 6.85,3 c 0.71,0.31 1.59,0.32 1.97,0.02" />
        <path
           id="path5343"
           style="opacity:0.9972;fill:#4d4d4d"
           d="m 279.79,205.16 -6.14,-2.44 c -0.58,-0.22 -1.3,-0.21 -1.63,0.02 l -3.35,2.43 c -0.34,0.25 -0.17,0.65 0.39,0.91 l 6,2.71 c 0.65,0.29 1.46,0.3 1.82,0.03 l 3.48,-2.71 c 0.35,-0.27 0.09,-0.69 -0.57,-0.95" />
        <path
           id="path5345"
           style="opacity:0.9972;fill:#4d4d4d"
           d="m 266.64,203.45 -7.42,-3.16 c -0.32,-0.14 0.04,-0.68 0.81,-1.22 l 16.02,-11.19 c 0.65,-0.46 1.43,-0.74 1.74,-0.62 l 7.06,2.73 c 0.32,0.12 0.06,0.6 -0.58,1.08 L 268.6,202.7 c -0.75,0.56 -1.63,0.9 -1.96,0.75" />
        <path
           id="path5347"
           sodipodi:nodetypes="cccccssssccccc"
           style="fill:#4d4d4d"
           d="m 306.09,198.05 c 0,0 -16.23,-6.29 -16.23,-6.29 -1.11,-0.43 -2.52,-0.42 -3.14,0.04 l -10.85,8.02 c -0.65,0.48 -0.78,0.89 0.48,1.25 l 6.17,2.52 c 1,0.41 0.99,0.43 1.86,-0.21 l 1.15,-0.84 c 0.26,-0.18 1.01,-0.25 1.83,0.1 l 8.35,3.6 c 0.93,0.26 1.73,0.33 2.25,-0.08 l 8.69,-6.83 c 0.5,-0.39 0.26,-0.96 -0.56,-1.28" />
      </g>
      <path
         id="path2379"
         sodipodi:nodetypes="czzz"
         style="fill:#ffffff;fill-rule:evenodd"
         d="m 195.84,316.18 c 2.18,1.34 1.89,2.3 -0.57,4.51 -2.48,2.22 0.73,-0.99 1.4,-2.02 0.71,-1.06 -2.96,-3.81 -0.83,-2.49 z" />
      <path
         id="path3350"
         sodipodi:nodetypes="czzz"
         style="fill:#ffffff;fill-rule:evenodd"
         d="m 216.17,300.17 c 2.18,1.34 2.62,2.01 0.16,4.22 -2.48,2.22 0.48,-0.96 1.28,-2.05 0.78,-1.06 -3.57,-3.49 -1.44,-2.17 z" />
      <path
         id="path3352"
         sodipodi:nodetypes="czzz"
         style="fill:#ffffff;fill-rule:evenodd"
         d="m 206.46,308.32 c 2.17,1.34 2.74,1.82 0.28,4.03 -2.48,2.22 0.61,-1.22 1.09,-1.86 0.56,-0.75 -3.51,-3.49 -1.37,-2.17 z" />
      <path
         id="path3354"
         sodipodi:nodetypes="czzz"
         style="fill:#ffffff;fill-rule:evenodd"
         d="m 225.51,292.47 c 2.17,1.34 2.74,1.82 0.28,4.02 -2.48,2.23 1.22,-0.86 0.99,-2.08 -0.22,-1.2 -3.41,-3.26 -1.27,-1.94 z" />
      <path
         id="path3356"
         sodipodi:nodetypes="czzz"
         style="fill:#ffffff;fill-rule:evenodd"
         d="m 203.5,293.36 c 2.13,1.32 2.52,1.77 -0.02,3.9 -2.55,2.13 1.06,-1.49 1.31,-1.98 0.25,-0.48 -3.43,-3.24 -1.29,-1.92 z" />
      <path
         id="path3358"
         sodipodi:nodetypes="czzz"
         style="fill:#ffffff;fill-rule:evenodd"
         d="m 189,289.3 c 2.59,1.44 2.95,1.91 0.29,4.03 -2.67,2.13 1.09,-1.12 1.09,-2.11 0,-1.02 -3.95,-3.35 -1.38,-1.92 z" />
      <path
         id="path3360"
         sodipodi:nodetypes="czzz"
         style="fill:#ffffff;fill-rule:evenodd"
         d="m 171.17,285.43 c 2.3,1.22 3,1.95 0.29,4.03 -2.72,2.07 1.37,-1.12 1.15,-2.08 -0.24,-1.02 -3.72,-3.15 -1.44,-1.95 z" />
      <path
         id="path3362"
         sodipodi:nodetypes="czzz"
         style="fill:#ffffff;fill-rule:evenodd"
         d="m 155.95,281.5 c 2.18,1.28 2.88,2.05 0.29,4.03 -2.6,1.99 1.18,-0.86 0.96,-2.14 -0.22,-1.28 -3.45,-3.18 -1.25,-1.89 z" />
      <path
         id="path3364"
         sodipodi:nodetypes="czzz"
         style="fill:#ffffff;fill-rule:evenodd"
         d="m 161.1,292.56 c 2.17,1.34 2.87,1.93 0.29,4.03 -2.58,2.09 -4.23,3.21 -0.74,0.13 3.52,-3.1 -1.69,-5.48 0.45,-4.16 z" />
      <path
         id="path3366"
         sodipodi:nodetypes="czzz"
         style="fill:#ffffff;fill-rule:evenodd"
         d="m 178.74,296.62 c 3.62,1.92 3.07,1.69 -2.62,6.23 -5.67,4.53 2.64,-2.76 3.49,-3.7 0.81,-0.92 -4.45,-4.43 -0.87,-2.53 z" />
      <path
         id="path3368"
         sodipodi:nodetypes="czzz"
         style="fill:#ffffff;fill-rule:evenodd"
         d="m 193.22,300.42 c 2.18,1.35 2.27,2.94 -3.83,7.87 -6.13,4.93 5.67,-4.4 4.12,-6.4 -1.5,-1.94 -2.42,-2.79 -0.29,-1.47 z" />
      <path
         id="path3370"
         sodipodi:nodetypes="czzz"
         style="fill:#ffffff;fill-rule:evenodd"
         d="m 145.18,288.69 c 2.62,1.54 2.69,2.21 0,4.22 -2.65,1.99 1.44,-1.28 1.22,-2.23 -0.22,-0.93 -3.81,-3.51 -1.22,-1.99 z" />
      <path
         id="path3372"
         sodipodi:nodetypes="czzz"
         style="fill:#ffffff;fill-rule:evenodd"
         d="m 165.74,274.57 c 2.17,1.34 2.87,2.01 0.28,4.02 -2.62,2.04 0.77,-1.34 1.19,-1.85 0.38,-0.47 -3.61,-3.49 -1.47,-2.17 z" />
      <path
         id="path3374"
         sodipodi:nodetypes="czzz"
         style="fill:#ffffff;fill-rule:evenodd"
         d="m 181.27,278.15 c 2.17,1.34 2.75,1.82 0.29,4.02 -2.48,2.23 1.02,-0.83 0.8,-2.11 -0.23,-1.27 -3.23,-3.23 -1.09,-1.91 z" />
      <path
         id="path3376"
         sodipodi:nodetypes="czzz"
         style="fill:#ffffff;fill-rule:evenodd"
         d="m 198.27,281.88 c 2.17,1.35 2.74,1.83 0.28,4.03 -2.48,2.22 1.03,-0.83 0.8,-2.11 -0.22,-1.27 -3.22,-3.24 -1.08,-1.92 z" />
      <path
         id="path3378"
         sodipodi:nodetypes="czzz"
         style="fill:#ffffff;fill-rule:evenodd"
         d="m 213.09,285.58 c 2.81,1.38 3.2,1.77 0.29,4.02 -2.87,2.22 1.34,-1.33 1.25,-2.2 -0.09,-0.82 -4.38,-3.23 -1.54,-1.82 z" />
      <path
         id="path3380"
         sodipodi:nodetypes="czzz"
         style="fill:#ffffff;fill-rule:evenodd"
         d="m 175.13,267.66 c 2.18,1.34 2.87,1.97 0.29,4.03 -2.55,2.03 1.02,-0.9 0.99,-2.05 -0.03,-1.15 -3.41,-3.3 -1.28,-1.98 z" />
      <path
         id="path3382"
         sodipodi:nodetypes="czzz"
         style="fill:#ffffff;fill-rule:evenodd"
         d="m 190.73,270.86 c 2.24,1.21 2.88,1.88 0.29,4.03 -2.55,2.1 1.21,-0.77 0.99,-2.05 -0.22,-1.27 -3.53,-3.2 -1.28,-1.98 z" />
      <path
         id="path3384"
         sodipodi:nodetypes="czzz"
         style="fill:#ffffff;fill-rule:evenodd"
         d="m 207.56,274.68 c 2.17,1.34 2.75,1.82 0.29,4.03 -2.49,2.22 1.02,-0.84 0.79,-2.11 -0.22,-1.28 -3.22,-3.24 -1.08,-1.92 z" />
      <path
         id="path3386"
         sodipodi:nodetypes="czzz"
         style="fill:#ffffff;fill-rule:evenodd"
         d="m 223.2,277.63 c 3.04,1.66 2.75,1.83 0.29,4.03 -2.48,2.23 1.26,-1.42 1.16,-2.24 -0.09,-0.73 -4.44,-3.43 -1.45,-1.79 z" />
      <path
         id="path3388"
         sodipodi:nodetypes="czzz"
         style="fill:#ffffff;fill-rule:evenodd"
         d="m 277.38,248.7 c 4.57,2.57 4.11,1.43 -6.49,10.22 -10.51,8.72 3.45,-4.23 6.23,-6.78 2.76,-2.52 -4.38,-6.04 0.26,-3.44 z" />
      <path
         id="path3390"
         sodipodi:nodetypes="czzz"
         style="fill:#ffffff;fill-rule:evenodd"
         d="m 231.58,270.35 c 2.17,1.34 2.75,1.82 0.29,4.02 -2.49,2.23 1.02,-0.83 0.79,-2.11 -0.22,-1.27 -3.22,-3.23 -1.08,-1.91 z" />
      <path
         id="path3392"
         sodipodi:nodetypes="czzz"
         style="fill:#ffffff;fill-rule:evenodd"
         d="m 241.29,263.7 c 2.18,1.34 2.75,1.82 0.29,4.03 -2.48,2.22 1.03,-0.83 0.8,-2.11 -0.22,-1.28 -3.22,-3.24 -1.09,-1.92 z" />
      <path
         id="path3394"
         sodipodi:nodetypes="czzz"
         style="fill:#ffffff;fill-rule:evenodd"
         d="m 250.24,256.54 c 2.18,1.34 2.75,1.82 0.29,4.03 -2.48,2.22 1.02,-0.83 0.8,-2.11 -0.22,-1.28 -3.22,-3.24 -1.09,-1.92 z" />
      <path
         id="path3396"
         sodipodi:nodetypes="czzz"
         style="fill:#ffffff;fill-rule:evenodd"
         d="m 258.68,249.38 c 2.18,1.34 2.75,1.82 0.29,4.03 -2.48,2.22 1.02,-0.83 0.8,-2.11 -0.22,-1.28 -3.22,-3.24 -1.09,-1.92 z" />
      <path
         id="path3398"
         sodipodi:nodetypes="czzz"
         style="fill:#ffffff;fill-rule:evenodd"
         d="m 215.09,267.41 c 2.17,1.34 2.74,1.82 0.28,4.02 -2.48,2.23 1.03,-0.83 0.8,-2.11 -0.22,-1.27 -3.22,-3.23 -1.08,-1.91 z" />
      <path
         id="path3400"
         sodipodi:nodetypes="czzz"
         style="fill:#ffffff;fill-rule:evenodd"
         d="m 200.55,263.45 c 3.77,1.98 3.13,1.95 0.29,4.03 -2.79,2.03 0.43,-0.83 1.2,-1.93 0.74,-1.06 -5.24,-4.07 -1.49,-2.1 z" />
      <path
         id="path3402"
         sodipodi:nodetypes="czzz"
         style="fill:#ffffff;fill-rule:evenodd"
         d="m 185.49,260.5 c 2.81,1.66 3.19,1.76 0.29,4.03 -2.87,2.24 1.27,-0.77 1.05,-2.05 -0.22,-1.27 -4.11,-3.61 -1.34,-1.98 z" />
      <path
         id="path3404"
         sodipodi:nodetypes="czzz"
         style="fill:#ffffff;fill-rule:evenodd"
         d="m 194.5,253.47 c 2.17,1.34 2.75,1.82 0.29,4.03 -2.48,2.22 1.02,-0.83 0.8,-2.11 -0.22,-1.27 -3.22,-3.24 -1.09,-1.92 z" />
      <path
         id="path3406"
         sodipodi:nodetypes="czzz"
         style="fill:#ffffff;fill-rule:evenodd"
         d="m 204.79,246.89 c 2.18,1.34 2.75,1.82 0.29,4.02 -2.48,2.23 1.02,-0.83 0.8,-2.11 -0.22,-1.27 -3.22,-3.23 -1.09,-1.91 z" />
      <path
         id="path3408"
         sodipodi:nodetypes="czzz"
         style="fill:#ffffff;fill-rule:evenodd"
         d="m 209.97,256.35 c 2.17,1.34 2.75,1.82 0.29,4.02 -2.48,2.23 1.02,-0.83 0.8,-2.1 -0.22,-1.28 -3.22,-3.24 -1.09,-1.92 z" />
      <path
         id="path3410"
         sodipodi:nodetypes="czzz"
         style="fill:#ffffff;fill-rule:evenodd"
         d="m 219.94,249 c 2.18,1.34 2.75,1.82 0.29,4.02 -2.48,2.23 1.02,-0.83 0.8,-2.11 -0.22,-1.27 -3.22,-3.23 -1.09,-1.91 z" />
      <path
         id="path3412"
         sodipodi:nodetypes="czzz"
         style="fill:#ffffff;fill-rule:evenodd"
         d="m 226.08,260.57 c 2.17,1.34 2.75,1.82 0.29,4.02 -2.48,2.23 1.02,-0.83 0.8,-2.11 -0.23,-1.27 -3.23,-3.23 -1.09,-1.91 z" />
      <path
         id="path3414"
         sodipodi:nodetypes="czzz"
         style="fill:#ffffff;fill-rule:evenodd"
         d="m 234.39,254.11 c 2.17,1.34 2.75,1.82 0.29,4.03 -2.48,2.22 1.02,-0.83 0.8,-2.11 -0.23,-1.28 -3.23,-3.24 -1.09,-1.92 z" />
      <path
         id="path3416"
         sodipodi:nodetypes="czzz"
         style="fill:#ffffff;fill-rule:evenodd"
         d="m 229.28,242.22 c 2.17,1.34 2.75,1.82 0.28,4.03 -2.48,2.22 1.03,-0.83 0.8,-2.11 -0.22,-1.28 -3.22,-3.24 -1.08,-1.92 z" />
      <path
         id="path3418"
         sodipodi:nodetypes="czzz"
         style="fill:#ffffff;fill-rule:evenodd"
         d="m 243.01,247.59 c 2.38,1.2 2.84,1.82 0.38,4.03 -2.48,2.22 1.3,-1.51 1.21,-2.2 -0.09,-0.69 -4.04,-3.06 -1.59,-1.83 z" />
      <path
         id="path3420"
         sodipodi:nodetypes="czzz"
         style="fill:#ffffff;fill-rule:evenodd"
         d="m 213.87,239.98 c 2.17,1.35 2.75,1.82 0.29,4.03 -2.48,2.22 1.02,-0.83 0.8,-2.11 -0.23,-1.27 -3.23,-3.24 -1.09,-1.92 z" />
      <path
         id="path3422"
         sodipodi:nodetypes="czzz"
         style="fill:#ffffff;fill-rule:evenodd"
         d="m 222.92,233.04 c 2.4,1.16 3.02,1.96 0.29,4.03 -2.73,2.06 1.43,-1.65 1.34,-2.29 -0.1,-0.74 -4.01,-2.89 -1.63,-1.74 z" />
      <path
         id="path3424"
         sodipodi:nodetypes="czzz"
         style="fill:#ffffff;fill-rule:evenodd"
         d="m 246.65,229.49 c 2.35,1.25 3.24,1.6 0.28,4.03 -2.93,2.41 1.43,-0.92 1.21,-2.2 -0.22,-1.27 -3.83,-3.07 -1.49,-1.83 z" />
      <path
         id="path3426"
         sodipodi:nodetypes="czzz"
         style="fill:#ffffff;fill-rule:evenodd"
         d="m 237.71,235.85 c 2.31,1.18 2.93,2 0.29,4.02 -2.64,2.03 1.38,-1.37 1.25,-2.2 -0.15,-0.92 -3.84,-3 -1.54,-1.82 z" />
      <path
         id="path3428"
         sodipodi:nodetypes="czzz"
         style="fill:#ffffff;fill-rule:evenodd"
         d="m 284.38,228.84 c 2.29,1.21 2.67,2.01 0.29,4.03 -2.39,2.03 0.84,-1.13 1.18,-1.8 0.34,-0.64 -3.74,-3.43 -1.47,-2.23 z" />
      <path
         id="path3430"
         sodipodi:nodetypes="czzz"
         style="fill:#ffffff;fill-rule:evenodd"
         d="m 232.52,226.41 c 2.27,1.12 2.89,1.73 0.29,3.76 -2.62,2.04 1.43,-1.38 1.25,-2.07 -0.17,-0.68 -3.76,-2.79 -1.54,-1.69 z" />
      <path
         id="path3432"
         sodipodi:nodetypes="czzz"
         style="fill:#ffffff;fill-rule:evenodd"
         d="m 242.5,219.69 c 3.37,1.84 2.25,1.55 -0.3,3.62 -2.52,2.05 1.56,-1.47 1.34,-2.2 -0.22,-0.72 -4.41,-3.25 -1.04,-1.42 z" />
      <path
         id="path3434"
         sodipodi:nodetypes="czzz"
         style="fill:#ffffff;fill-rule:evenodd"
         d="m 255.29,223.29 c 2.47,1.3 3,1.96 0.29,4.03 -2.71,2.07 1.32,-1.44 1.23,-2.11 -0.09,-0.69 -3.97,-3.2 -1.52,-1.92 z" />
      <path
         id="path3436"
         sodipodi:nodetypes="czzz"
         style="fill:#ffffff;fill-rule:evenodd"
         d="m 269.1,227.39 c 2.18,1.34 2.75,1.82 0.29,4.03 -2.48,2.22 1.02,-0.83 0.8,-2.11 -0.22,-1.28 -3.22,-3.24 -1.09,-1.92 z" />
      <path
         id="path3438"
         sodipodi:nodetypes="czzz"
         style="fill:#ffffff;fill-rule:evenodd"
         d="m 260.47,233.78 c 2.18,1.34 2.75,1.82 0.29,4.03 -2.48,2.22 1.02,-0.83 0.8,-2.11 -0.22,-1.27 -3.22,-3.24 -1.09,-1.92 z" />
      <path
         id="path3440"
         sodipodi:nodetypes="czzz"
         style="fill:#ffffff;fill-rule:evenodd"
         d="m 252,240.42 c 2.77,1.43 2.89,1.87 0.29,4.03 -2.59,2.15 1.3,-1.47 1.21,-2.29 -0.1,-0.89 -4.17,-3.13 -1.5,-1.74 z" />
      <path
         id="path3442"
         sodipodi:nodetypes="czzz"
         style="fill:#ffffff;fill-rule:evenodd"
         d="m 266.74,242.22 c 2.17,1.34 2.75,1.82 0.28,4.03 -2.48,2.22 1.03,-0.83 0.8,-2.11 -0.22,-1.28 -3.22,-3.24 -1.08,-1.92 z" />
      <path
         id="path3444"
         sodipodi:nodetypes="czzz"
         style="fill:#ffffff;fill-rule:evenodd"
         d="m 275.78,235.81 c 2.51,1.21 2.91,1.75 0.31,3.89 -2.58,2.13 1.43,-1.4 1.34,-2.2 -0.09,-0.78 -4.11,-2.87 -1.65,-1.69 z" />
      <path
         id="path3446"
         sodipodi:nodetypes="czzz"
         style="fill:#ffffff;fill-rule:evenodd"
         d="m 286.95,240.94 c 2.69,1.44 2.98,1.81 0.29,4.03 -2.67,2.21 0.2,-0.57 1.01,-1.6 0.78,-1 -3.96,-3.86 -1.3,-2.43 z" />
      <path
         id="path3448"
         sodipodi:nodetypes="czzz"
         style="fill:#ffffff;fill-rule:evenodd"
         d="m 295.77,234.09 c 2.52,1.14 2.93,1.77 0.29,4.02 -2.62,2.24 -0.01,-0.48 1.05,-1.72 1.04,-1.22 -3.82,-3.43 -1.34,-2.3 z" />
      <path
         id="path3450"
         sodipodi:nodetypes="czzz"
         style="fill:#ffffff;fill-rule:evenodd"
         d="m 304.37,227.14 c 2.46,1.3 2.75,1.83 0.28,4.03 -2.48,2.23 0.08,-0.67 0.71,-1.86 0.68,-1.27 -3.43,-3.45 -0.99,-2.17 z" />
      <path
         id="path3452"
         sodipodi:nodetypes="czzz"
         style="fill:#ffffff;fill-rule:evenodd"
         d="m 293.12,221.54 c 2.35,1.15 2.86,1.89 0.29,4.03 -2.57,2.14 1.2,-1.43 1.13,-2.24 -0.06,-0.79 -3.77,-2.94 -1.42,-1.79 z" />
      <path
         id="path3454"
         sodipodi:nodetypes="czzz"
         style="fill:#ffffff;fill-rule:evenodd"
         d="m 277.51,220.7 c 2.86,1.62 2.89,2.01 0.29,4.03 -2.62,2.04 -1.03,0.14 0.76,-1.25 1.81,-1.41 -3.79,-4.33 -1.05,-2.78 z" />
      <path
         id="path3456"
         sodipodi:nodetypes="czzz"
         style="fill:#ffffff;fill-rule:evenodd"
         d="m 263.22,217.42 c 2.17,1.34 2.75,1.82 0.29,4.02 -2.48,2.23 1.02,-0.83 0.8,-2.11 -0.23,-1.27 -3.23,-3.23 -1.09,-1.91 z" />
      <path
         id="path3458"
         sodipodi:nodetypes="czzz"
         style="fill:#ffffff;fill-rule:evenodd"
         d="m 251.16,213.32 c 3.23,1.46 3.2,1.55 0.19,3.66 -3.02,2.13 1.52,-1.13 1.25,-2.06 -0.26,-0.96 -4.64,-3.05 -1.44,-1.6 z" />
      <path
         id="path3460"
         sodipodi:nodetypes="czzz"
         style="fill:#ffffff;fill-rule:evenodd"
         d="m 260.86,206.1 c 2.17,1.34 2.74,1.82 0.28,4.03 -2.48,2.22 1.03,-0.83 0.8,-2.11 -0.22,-1.27 -3.22,-3.24 -1.08,-1.92 z" />
      <path
         id="path3462"
         sodipodi:nodetypes="czzz"
         style="fill:#ffffff;fill-rule:evenodd"
         d="m 271.02,211.73 c 2.17,1.34 2.75,1.82 0.29,4.03 -2.48,2.22 1.02,-0.84 0.8,-2.11 -0.23,-1.28 -3.23,-3.24 -1.09,-1.92 z" />
      <path
         id="path3464"
         sodipodi:nodetypes="czzz"
         style="fill:#ffffff;fill-rule:evenodd"
         d="m 284.99,215 c 2.72,1.25 3.11,1.82 0.29,4.03 -2.77,2.16 -0.24,0.07 1.07,-1.75 1.21,-1.68 -4,-3.5 -1.36,-2.28 z" />
      <path
         id="path3466"
         sodipodi:nodetypes="czzz"
         style="fill:#ffffff;fill-rule:evenodd"
         d="m 276.9,206.81 c 2.17,1.34 2.75,1.82 0.29,4.02 -2.48,2.23 1.02,-0.83 0.8,-2.11 -0.23,-1.27 -3.23,-3.23 -1.09,-1.91 z" />
      <path
         id="path3468"
         sodipodi:nodetypes="czzz"
         style="fill:#ffffff;fill-rule:evenodd"
         d="m 292.18,209.68 c 2.17,1.34 2.75,1.82 0.29,4.03 -2.48,2.22 1.02,-0.83 0.8,-2.11 -0.23,-1.27 -3.23,-3.24 -1.09,-1.92 z" />
      <path
         id="path3470"
         sodipodi:nodetypes="czzz"
         style="fill:#ffffff;fill-rule:evenodd"
         d="m 314.68,204.25 c 3.07,1.15 3.2,1.31 -3.29,6.55 -6.46,5.21 1.59,-1.72 3.77,-3.77 2.19,-2.06 -3.54,-3.93 -0.48,-2.78 z" />
      <path
         id="path3472"
         sodipodi:nodetypes="czzz"
         style="fill:#ffffff;fill-rule:evenodd"
         d="m 303.62,199.97 c 2.17,1.34 2.75,1.82 0.29,4.02 -2.48,2.23 1.02,-0.83 0.8,-2.11 -0.22,-1.27 -3.22,-3.23 -1.09,-1.91 z" />
      <path
         id="path3474"
         sodipodi:nodetypes="czzz"
         style="fill:#ffffff;fill-rule:evenodd"
         d="m 281.08,191.31 c 3.89,1.56 3.74,1.41 -2.38,6.1 -6.12,4.69 2.69,-2.55 3.96,-3.78 1.27,-1.23 -5.51,-3.91 -1.58,-2.32 z" />
      <path
         id="path3477"
         style="fill:url(#linearGradient2500);fill-rule:evenodd"
         d="M 247.05,21.87 41.11,89.503 48.497,139.14 c 68.053,-35 144.38,-12.53 197.65,-35.41 l 0.9,-81.86 z" />
      <path
         id="path2180"
         style="fill:#1a1a1a;fill-rule:evenodd;stroke:#333333;stroke-width:0.81824;stroke-linecap:round;stroke-linejoin:round"
         d="m 27.882,75.747 c 4.183,-1.54 5.507,-0.966 7.068,0.887 l 30.138,201.16 -8.447,-4.25 -28.759,-197.79 z"
         inkscape:transform-center-x="21.926591"
         inkscape:transform-center-y="-98.60823"
         sodipodi:nodetypes="ccccc" />
      <path
         id="path13298"
         sodipodi:nodetypes="ccccc"
         style="fill:#808080;fill-rule:evenodd"
         d="m 92.829,259.35 138.08,-84.63 c 1.74,1.06 3.26,2.26 3.32,4.34 l -137.57,84.77 c -0.239,-1.97 -1.543,-3.45 -3.831,-4.48 z" />
      <path
         id="path14269"
         d="m 166.44,236.84 62.49,-41.19 0.53,0.88 -61.43,41.72 z"
         sodipodi:nodetypes="ccccc"
         style="opacity:0.67;fill:#ffffff;fill-rule:evenodd;filter:url(#filter16257)"
         transform="matrix(1.0228,0,0,1.0228,-6.1273,-1.9736)" />
      <path
         id="path16261"
         sodipodi:nodetypes="ccccc"
         style="opacity:0.67;fill:#ffffff;fill-rule:evenodd;filter:url(#filter16257)"
         transform="matrix(1.0228,0,0,1.0228,-6.1273,-1.9736)"
         d="m 114.55,270.07 15.56,-10.08 0.53,0.89 -14.5,10.6 z" />
      <path
         id="path16263"
         sodipodi:nodetypes="ccccc"
         style="opacity:0.67;fill:#ffffff;fill-rule:evenodd;filter:url(#filter16257)"
         transform="matrix(1.0228,0,0,1.0228,-6.1273,-1.9736)"
         d="m 114.55,270.07 15.56,-10.08 0.53,0.89 -14.5,10.6 z" />
      <path
         id="path16267"
         sodipodi:nodetypes="ccccc"
         style="opacity:0.67;fill:#ffffff;fill-rule:evenodd;filter:url(#filter16257)"
         transform="matrix(1.0228,0,0,1.0228,-6.1273,-1.9736)"
         d="m 166.44,236.84 62.49,-41.19 0.53,0.88 -61.43,41.72 z" />
      <path
         id="path16269"
         sodipodi:nodetypes="ccc"
         style="opacity:0.9972;fill:#666666;fill-rule:evenodd;stroke:#000000;stroke-width:0.20456;stroke-linecap:round;stroke-linejoin:round"
         d="m 104.06,273.38 c 2.54,-2.35 9.08,2.06 8.43,4.99 z" />
      <path
         id="path25800"
         sodipodi:nodetypes="ccsccccc"
         style="fill:url(#linearGradient2490)"
         d="m 304.07,248.2 c -1.9,0.09 -3.62,0.6 -4.73,1.53 l -38.77,32.44 c -2.64,2.21 -1.71,5.49 2.14,7.35 0,0 5.03,2.41 9.97,4.77 33.99,-6.14 11.32,-41.26 41.27,-43.28 -1.34,-0.59 -4.06,-1.79 -4.06,-1.79 -1.82,-0.78 -3.92,-1.12 -5.82,-1.02 z" />
    </g>
  </g>
  <metadata
     id="metadata9753">
    <rdf:RDF>
      <cc:Work>
        <dc:format>image/svg+xml</dc:format>
        <dc:type
           rdf:resource="http://purl.org/dc/dcmitype/StillImage" />
        <cc:license
           rdf:resource="http://creativecommons.org/publicdomain/zero/1.0/" />
        <dc:publisher>
          <cc:Agent
             rdf:about="http://openclipart.org/">
            <dc:title>Openclipart</dc:title>
          </cc:Agent>
        </dc:publisher>
        <dc:title>Laptop</dc:title>
        <dc:date>2007-08-27T04:44:25</dc:date>
        <dc:description>its a detailed clip art of a laptop, with buttons, touch pad and a shiny monitor, \n\nyou can modify this in any way you like, you can use this any way you like with no conditions\n\nthe thumbnail makes it look a little messed up,the shadow of the monitor is unblurred :(, open it with inkscape for best results</dc:description>
        <dc:source>https://openclipart.org/detail/5012/laptop-by-metalmarious</dc:source>
        <dc:creator>
          <cc:Agent>
            <dc:title>metalmarious</dc:title>
          </cc:Agent>
        </dc:creator>
        <dc:subject>
          <rdf:Bag>
            <rdf:li>black</rdf:li>
            <rdf:li>computer</rdf:li>
            <rdf:li>how i did it</rdf:li>
            <rdf:li>laptop</rdf:li>
            <rdf:li>technology</rdf:li>
          </rdf:Bag>
        </dc:subject>
      </cc:Work>
      <cc:License
         rdf:about="http://creativecommons.org/publicdomain/zero/1.0/">
        <cc:permits
           rdf:resource="http://creativecommons.org/ns#Reproduction" />
        <cc:permits
           rdf:resource="http://creativecommons.org/ns#Distribution" />
        <cc:permits
           rdf:resource="http://creativecommons.org/ns#DerivativeWorks" />
      </cc:License>
    </rdf:RDF>
  </metadata>
</svg>
