<?xml version="1.0" encoding="UTF-8" standalone="no"?>
<svg
   id="svg2"
   viewBox="0 0 332.59843 472.44095"
   version="1.0"
   sodipodi:docname="lilly.svg"
   width="88mm"
   height="125mm"
   inkscape:version="1.2.2 (732a01da63, 2022-12-09)"
   xmlns:inkscape="http://www.inkscape.org/namespaces/inkscape"
   xmlns:sodipodi="http://sodipodi.sourceforge.net/DTD/sodipodi-0.dtd"
   xmlns:xlink="http://www.w3.org/1999/xlink"
   xmlns="http://www.w3.org/2000/svg"
   xmlns:svg="http://www.w3.org/2000/svg"
   xmlns:rdf="http://www.w3.org/1999/02/22-rdf-syntax-ns#"
   xmlns:cc="http://creativecommons.org/ns#"
   xmlns:dc="http://purl.org/dc/elements/1.1/">
  <sodipodi:namedview
     id="namedview189"
     pagecolor="#505050"
     bordercolor="#eeeeee"
     borderopacity="1"
     inkscape:showpageshadow="0"
     inkscape:pageopacity="0"
     inkscape:pagecheckerboard="0"
     inkscape:deskcolor="#505050"
     showgrid="false"
     inkscape:zoom="1.4654545"
     inkscape:cx="219.72705"
     inkscape:cy="237.81017"
     inkscape:current-layer="svg2"
     inkscape:document-units="mm" />
  <defs
     id="defs4">
    <linearGradient
       id="linearGradient12287">
      <stop
         id="stop12289"
         stop-color="#f0efd1"
         offset="0" />
      <stop
         id="stop12291"
         stop-color="#f0efd1"
         stop-opacity="0"
         offset="1" />
    </linearGradient>
    <linearGradient
       id="linearGradient3291"
       y2="718.08002"
       gradientUnits="userSpaceOnUse"
       x2="341.89001"
       gradientTransform="matrix(1.1197,0,0,1.0322,-41.813,-18.271)"
       y1="718.08002"
       x1="307.59">
      <stop
         id="stop3287"
         stop-color="#a4f951"
         offset="0" />
      <stop
         id="stop3293"
         stop-color="#57aa05"
         offset=".35294" />
      <stop
         id="stop3299"
         stop-color="#428104"
         offset=".5" />
      <stop
         id="stop3297"
         stop-color="#75e607"
         offset=".77941" />
      <stop
         id="stop3289"
         stop-color="#b9fb79"
         offset="1" />
    </linearGradient>
    <linearGradient
       id="linearGradient5252"
       y2="752.77002"
       gradientUnits="userSpaceOnUse"
       x2="320.54999"
       gradientTransform="matrix(1.1197,0,0,1.0322,-41.813,-18.271)"
       y1="682.63"
       x1="323.03">
      <stop
         id="stop5248"
         stop-color="#8ae234"
         offset="0" />
      <stop
         id="stop5250"
         stop-color="#eeeeec"
         stop-opacity="0"
         offset="1" />
    </linearGradient>
    <filter
       id="filter6229"
       y="-0.012587755"
       width="1.5127023"
       x="-0.25635115"
       height="1.0251755">
      <feGaussianBlur
         id="feGaussianBlur6231"
         stdDeviation="0.6425" />
    </filter>
    <radialGradient
       id="radialGradient7208"
       gradientUnits="userSpaceOnUse"
       cy="719.10999"
       cx="314.01001"
       gradientTransform="matrix(1,0,0,20.365,0,-13926)"
       r="3.0076001">
      <stop
         id="stop7204"
         stop-color="#d5f5b6"
         offset="0" />
      <stop
         id="stop7206"
         stop-color="#d5f5b6"
         stop-opacity="0"
         offset="1" />
    </radialGradient>
    <filter
       id="filter8285"
       x="-0.11900001"
       y="-0.064909094"
       width="1.238"
       height="1.1298182">
      <feGaussianBlur
         id="feGaussianBlur8287"
         stdDeviation="2.38" />
    </filter>
    <filter
       id="filter8356"
       x="-0.059477124"
       y="-0.08689236"
       width="1.1189542"
       height="1.1737847">
      <feGaussianBlur
         id="feGaussianBlur8358"
         stdDeviation="2.3171296" />
    </filter>
    <linearGradient
       id="linearGradient8361"
       y2="518.35999"
       gradientUnits="userSpaceOnUse"
       x2="458"
       y1="545.85999"
       x1="389.5">
      <stop
         id="stop8294"
         stop-color="#cbc7aa"
         offset="0" />
      <stop
         id="stop8296"
         stop-color="#cbc7aa"
         stop-opacity="0"
         offset="1" />
    </linearGradient>
    <linearGradient
       id="linearGradient9404"
       y2="400.60999"
       gradientUnits="userSpaceOnUse"
       x2="342.5"
       gradientTransform="matrix(1.1197,0,0,1.0322,-41.813,-18.271)"
       y1="415.35999"
       x1="332">
      <stop
         id="stop9400"
         stop-color="#c4a000"
         offset="0" />
      <stop
         id="stop9402"
         stop-color="#c4a000"
         stop-opacity="0"
         offset="1" />
    </linearGradient>
    <filter
       id="filter9555"
       y="-0.11611111"
       width="1.8708333"
       x="-0.43541665"
       height="1.2322222">
      <feGaussianBlur
         id="feGaussianBlur9557"
         stdDeviation="0.72569444" />
    </filter>
    <filter
       id="filter9655"
       y="-0.084656082"
       width="1.3232323"
       x="-0.16161616"
       height="1.1693122">
      <feGaussianBlur
         id="feGaussianBlur9657"
         stdDeviation="0.37037037" />
    </filter>
    <filter
       id="filter9779"
       y="-0.10075758"
       width="1.6820513"
       x="-0.34102564"
       height="1.2015152">
      <feGaussianBlur
         id="feGaussianBlur9781"
         stdDeviation="0.92361111" />
    </filter>
    <filter
       id="filter9827"
       x="-0.10239652"
       y="-0.038118411"
       width="1.204793"
       height="1.0762368">
      <feGaussianBlur
         id="feGaussianBlur9829"
         stdDeviation="1.087963" />
    </filter>
    <filter
       id="filter10838"
       x="-0.050991634"
       y="-0.076241511"
       width="1.1019833"
       height="1.152483">
      <feGaussianBlur
         id="feGaussianBlur10840"
         stdDeviation="4.9398148" />
    </filter>
    <linearGradient
       id="linearGradient10849"
       y2="446.35999"
       gradientUnits="userSpaceOnUse"
       x2="388.5"
       y1="336.85999"
       x1="253">
      <stop
         id="stop10845"
         stop-color="#deddc9"
         offset="0" />
      <stop
         id="stop10851"
         stop-color="#c3c19c"
         offset="0" />
      <stop
         id="stop10853"
         stop-color="#c3c19c"
         offset=".17215" />
      <stop
         id="stop10847"
         stop-color="#deddc9"
         stop-opacity="0"
         offset="1" />
    </linearGradient>
    <filter
       id="filter10922"
       y="-0.033196093"
       width="1.7694604"
       x="-0.38473019"
       height="1.0663922">
      <feGaussianBlur
         id="feGaussianBlur10924"
         stdDeviation="0.67969" />
    </filter>
    <radialGradient
       id="radialGradient10932"
       gradientUnits="userSpaceOnUse"
       cy="350.03"
       cx="306.53"
       gradientTransform="matrix(2.6667,1.2768e-6,-7.7006e-6,16.083,-510.88,-5279.6)"
       r="2.1213">
      <stop
         id="stop10928"
         stop-color="#f8f4d9"
         offset="0" />
      <stop
         id="stop10930"
         stop-color="#f8f4d9"
         stop-opacity="0"
         offset="1" />
    </radialGradient>
    <filter
       id="filter10977"
       y="-0.38546161"
       width="1.5374134"
       x="-0.26870668"
       height="1.7709232">
      <feGaussianBlur
         id="feGaussianBlur10979"
         stdDeviation="16.467241" />
    </filter>
    <filter
       id="filter11045"
       x="-0.0332"
       y="-0.05714754"
       width="1.0664"
       height="1.1142951">
      <feGaussianBlur
         id="feGaussianBlur11047"
         stdDeviation="2.905" />
    </filter>
    <linearGradient
       id="linearGradient11096"
       y2="455.20999"
       gradientUnits="userSpaceOnUse"
       x2="455.01999"
       gradientTransform="matrix(1.1197,0,0,1.0322,-41.813,-18.271)"
       y1="494.35999"
       x1="427">
      <stop
         id="stop11092"
         stop-color="#f9f5f5"
         offset="0" />
      <stop
         id="stop11094"
         stop-color="#f9f5f5"
         stop-opacity="0"
         offset="1" />
    </linearGradient>
    <filter
       id="filter11130"
       x="-0.11661625"
       y="-0.081574082"
       width="1.2332325"
       height="1.1631482">
      <feGaussianBlur
         id="feGaussianBlur11132"
         stdDeviation="5.1194532" />
    </filter>
    <radialGradient
       id="radialGradient12132"
       fx="319.26001"
       fy="553.77002"
       gradientUnits="userSpaceOnUse"
       cy="520.62"
       cx="322.79001"
       gradientTransform="matrix(1.1197,-2.0333e-8,7.0944e-8,3.3197,-41.813,-1209.2)"
       r="86.621002">
      <stop
         id="stop11157"
         stop-color="#e0d6a3"
         offset="0" />
      <stop
         id="stop11159"
         stop-color="#e0d6a3"
         stop-opacity="0"
         offset="1" />
    </radialGradient>
    <filter
       id="filter12274"
       y="-0.069875497"
       width="1.2913073"
       x="-0.14565363"
       height="1.139751">
      <feGaussianBlur
         id="feGaussianBlur12276"
         stdDeviation="6.9185475" />
    </filter>
    <linearGradient
       id="linearGradient12298"
       y2="613.57001"
       xlink:href="#linearGradient12287"
       gradientUnits="userSpaceOnUse"
       x2="349.91"
       y1="653.97998"
       x1="341.17999" />
    <filter
       id="filter12392"
       y="-0.072563528"
       width="1.2836306"
       x="-0.14181529"
       height="1.1451271">
      <feGaussianBlur
         id="feGaussianBlur12394"
         stdDeviation="2.7577164" />
    </filter>
    <linearGradient
       id="linearGradient12451"
       y2="437.87"
       gradientUnits="userSpaceOnUse"
       x2="398.47"
       gradientTransform="translate(4.1945)"
       y1="452.29001"
       x1="407.91">
      <stop
         id="stop12455"
         stop-color="#dbd9c9"
         offset="0" />
      <stop
         id="stop12457"
         stop-color="#eceede"
         stop-opacity="0"
         offset="1" />
    </linearGradient>
    <filter
       id="filter12619"
       y="-0.085635706"
       width="1.240279"
       x="-0.12013952"
       height="1.1712714">
      <feGaussianBlur
         id="feGaussianBlur12621"
         stdDeviation="1.8896946" />
    </filter>
    <filter
       id="filter12676"
       y="-0.13444897"
       width="1.3100235"
       x="-0.15501176"
       height="1.2688979">
      <feGaussianBlur
         id="feGaussianBlur12678"
         stdDeviation="5.49" />
    </filter>
    <filter
       id="filter12687"
       y="-0.095206615"
       width="1.5907693"
       x="-0.29538463"
       height="1.1904132">
      <feGaussianBlur
         id="feGaussianBlur12689"
         stdDeviation="4.8" />
    </filter>
    <filter
       id="filter12743"
       y="-0.14431034"
       width="1.4782857"
       x="-0.23914285"
       height="1.2886207">
      <feGaussianBlur
         id="feGaussianBlur12745"
         stdDeviation="6.975" />
    </filter>
    <filter
       id="filter12806"
       y="-0.18105056"
       width="1.6140301"
       x="-0.30701507"
       height="1.3621011">
      <feGaussianBlur
         id="feGaussianBlur12808"
         stdDeviation="16.757906" />
    </filter>
    <filter
       id="filter12906"
       y="-0.54295011"
       width="1.3143395"
       x="-0.15716977"
       height="2.0859002">
      <feGaussianBlur
         id="feGaussianBlur12908"
         stdDeviation="4.9770425" />
    </filter>
    <linearGradient
       id="linearGradient12912"
       y2="456.35999"
       gradientUnits="userSpaceOnUse"
       x2="436"
       gradientTransform="matrix(1.1197,0,0,1.0322,-41.813,-18.271)"
       y1="435.35999"
       x1="516.42999">
      <stop
         id="stop12627"
         stop-color="#abab8a"
         stop-opacity=".74902"
         offset="0" />
      <stop
         id="stop12629"
         stop-color="#eeeeec"
         stop-opacity="0"
         offset="1" />
    </linearGradient>
    <linearGradient
       id="linearGradient12914"
       y2="630.57001"
       xlink:href="#linearGradient12287"
       gradientUnits="userSpaceOnUse"
       x2="353.91"
       gradientTransform="matrix(1.1197,0,0,1.0322,-41.813,-18.271)"
       y1="625.97998"
       x1="336.57999" />
    <filter
       id="filter3341"
       y="-0.36500001"
       width="1.9125"
       x="-0.45625001"
       height="1.73">
      <feGaussianBlur
         id="feGaussianBlur3343"
         stdDeviation="83.645833" />
    </filter>
    <clipPath
       id="clipPath3350">
      <rect
         id="rect3352"
         height="550"
         width="440"
         stroke="#000000"
         stroke-linecap="round"
         y="273"
         x="132.10001"
         stroke-width="3" />
    </clipPath>
    <clipPath
       id="clipPath3354">
      <rect
         id="rect3356"
         transform="matrix(0.98577,-0.16812,0.26628,0.9639,0,0)"
         height="315.28"
         width="389.57001"
         stroke="#000000"
         stroke-linecap="round"
         y="387.45999"
         x="39.733002"
         stroke-width="2.1372" />
    </clipPath>
    <clipPath
       id="clipPath3358">
      <rect
         id="rect3360"
         height="532.87"
         width="392.95999"
         stroke="#000000"
         stroke-linecap="round"
         y="282.20001"
         x="155.32001"
         stroke-width="2.7906" />
    </clipPath>
    <clipPath
       id="clipPath3362">
      <rect
         id="rect3364"
         height="532.87"
         width="392.95999"
         stroke="#000000"
         stroke-linecap="round"
         y="282.20001"
         x="155.32001"
         stroke-width="2.7906" />
    </clipPath>
    <clipPath
       id="clipPath3366">
      <rect
         id="rect3368"
         height="532.87"
         width="392.95999"
         stroke="#000000"
         stroke-linecap="round"
         y="282.20001"
         x="155.32001"
         stroke-width="2.7906" />
    </clipPath>
    <clipPath
       id="clipPath3370">
      <rect
         id="rect3372"
         height="532.87"
         width="392.95999"
         stroke="#000000"
         stroke-linecap="round"
         y="282.20001"
         x="155.32001"
         stroke-width="2.7906" />
    </clipPath>
    <clipPath
       id="clipPath3374">
      <rect
         id="rect3376"
         height="532.87"
         width="392.95999"
         stroke="#000000"
         stroke-linecap="round"
         y="282.20001"
         x="155.32001"
         stroke-width="2.7906" />
    </clipPath>
    <clipPath
       id="clipPath3378">
      <rect
         id="rect3380"
         height="550"
         width="440"
         stroke="#000000"
         stroke-linecap="round"
         y="273"
         x="132.10001"
         stroke-width="3" />
    </clipPath>
    <clipPath
       id="clipPath3382">
      <rect
         id="rect3384"
         height="532.87"
         width="392.95999"
         stroke="#000000"
         stroke-linecap="round"
         y="282.20001"
         x="155.32001"
         stroke-width="2.7906" />
    </clipPath>
    <clipPath
       id="clipPath3386">
      <rect
         id="rect3388"
         height="550"
         width="440"
         stroke="#000000"
         stroke-linecap="round"
         y="273"
         x="132.10001"
         stroke-width="3" />
    </clipPath>
    <clipPath
       id="clipPath3390">
      <rect
         id="rect3392"
         height="532.87"
         width="392.95999"
         stroke="#000000"
         stroke-linecap="round"
         y="282.20001"
         x="155.32001"
         stroke-width="2.7906" />
    </clipPath>
    <clipPath
       id="clipPath3394">
      <rect
         id="rect3396"
         height="550"
         width="440"
         stroke="#000000"
         stroke-linecap="round"
         y="273"
         x="132.10001"
         stroke-width="3" />
    </clipPath>
    <clipPath
       id="clipPath3398">
      <rect
         id="rect3400"
         height="532.87"
         width="392.95999"
         stroke="#000000"
         stroke-linecap="round"
         y="282.20001"
         x="155.32001"
         stroke-width="2.7906" />
    </clipPath>
    <clipPath
       id="clipPath3402">
      <rect
         id="rect3404"
         height="532.87"
         width="392.95999"
         stroke="#000000"
         stroke-linecap="round"
         y="282.20001"
         x="155.32001"
         stroke-width="2.7906" />
    </clipPath>
    <clipPath
       id="clipPath3406">
      <rect
         id="rect3408"
         height="532.87"
         width="392.95999"
         stroke="#000000"
         stroke-linecap="round"
         y="282.20001"
         x="155.32001"
         stroke-width="2.7906" />
    </clipPath>
    <clipPath
       id="clipPath3410">
      <rect
         id="rect3412"
         height="550"
         width="440"
         stroke="#000000"
         stroke-linecap="round"
         y="273"
         x="132.10001"
         stroke-width="3" />
    </clipPath>
    <clipPath
       id="clipPath3414">
      <rect
         id="rect3416"
         height="532.87"
         width="392.95999"
         stroke="#000000"
         stroke-linecap="round"
         y="282.20001"
         x="155.32001"
         stroke-width="2.7906" />
    </clipPath>
    <clipPath
       id="clipPath3418">
      <rect
         id="rect3420"
         height="532.87"
         width="392.95999"
         stroke="#000000"
         stroke-linecap="round"
         y="282.20001"
         x="155.32001"
         stroke-width="2.7906" />
    </clipPath>
    <clipPath
       id="clipPath3422">
      <rect
         id="rect3424"
         height="532.87"
         width="392.95999"
         stroke="#000000"
         stroke-linecap="round"
         y="282.20001"
         x="155.32001"
         stroke-width="2.7906" />
    </clipPath>
    <clipPath
       id="clipPath3426">
      <rect
         id="rect3428"
         height="532.87"
         width="392.95999"
         stroke="#000000"
         stroke-linecap="round"
         y="282.20001"
         x="155.32001"
         stroke-width="2.7906" />
    </clipPath>
    <clipPath
       id="clipPath3430">
      <rect
         id="rect3432"
         height="550"
         width="440"
         stroke="#000000"
         stroke-linecap="round"
         y="273"
         x="132.10001"
         stroke-width="3" />
    </clipPath>
    <clipPath
       id="clipPath3434">
      <rect
         id="rect3436"
         height="532.87"
         width="392.95999"
         stroke="#000000"
         stroke-linecap="round"
         y="282.20001"
         x="155.32001"
         stroke-width="2.7906" />
    </clipPath>
    <clipPath
       id="clipPath3438">
      <rect
         id="rect3440"
         height="532.87"
         width="392.95999"
         stroke="#000000"
         stroke-linecap="round"
         y="282.20001"
         x="155.32001"
         stroke-width="2.7906" />
    </clipPath>
    <clipPath
       id="clipPath3442">
      <rect
         id="rect3444"
         height="532.87"
         width="392.95999"
         stroke="#000000"
         stroke-linecap="round"
         y="282.20001"
         x="155.32001"
         stroke-width="2.7906" />
    </clipPath>
    <clipPath
       id="clipPath3446">
      <rect
         id="rect3448"
         height="532.87"
         width="392.95999"
         stroke="#000000"
         stroke-linecap="round"
         y="282.20001"
         x="155.32001"
         stroke-width="2.7906" />
    </clipPath>
    <clipPath
       id="clipPath3450">
      <rect
         id="rect3452"
         height="550"
         width="440"
         stroke="#000000"
         stroke-linecap="round"
         y="273"
         x="132.10001"
         stroke-width="3" />
    </clipPath>
    <clipPath
       id="clipPath3454">
      <rect
         id="rect3456"
         height="532.87"
         width="392.95999"
         stroke="#000000"
         stroke-linecap="round"
         y="282.20001"
         x="155.32001"
         stroke-width="2.7906" />
    </clipPath>
    <clipPath
       id="clipPath3458">
      <rect
         id="rect3460"
         height="550"
         width="440"
         stroke="#000000"
         stroke-linecap="round"
         y="273"
         x="132.10001"
         stroke-width="3" />
    </clipPath>
    <clipPath
       id="clipPath3462">
      <rect
         id="rect3464"
         height="550"
         width="440"
         stroke="#000000"
         stroke-linecap="round"
         y="273"
         x="132.10001"
         stroke-width="3" />
    </clipPath>
    <clipPath
       id="clipPath3466">
      <rect
         id="rect3468"
         height="550"
         width="440"
         stroke="#000000"
         stroke-linecap="round"
         y="273"
         x="132.10001"
         stroke-width="3" />
    </clipPath>
    <clipPath
       id="clipPath3470">
      <rect
         id="rect3472"
         height="550"
         width="440"
         stroke="#000000"
         stroke-linecap="round"
         y="273"
         x="132.10001"
         stroke-width="3" />
    </clipPath>
    <radialGradient
       id="radialGradient4457"
       fx="289.95999"
       fy="550.76001"
       gradientUnits="userSpaceOnUse"
       cy="548"
       cx="352.10001"
       gradientTransform="matrix(1,0,0,1.25,0,-137)"
       r="220">
      <stop
         id="stop4453"
         stop-color="#a9d6e6"
         offset="0" />
      <stop
         id="stop4455"
         stop-color="#d2e8f0"
         stop-opacity="0"
         offset="1" />
    </radialGradient>
  </defs>
  <rect
     id="rect3267"
     clip-path="url(#clipPath3470)"
     transform="matrix(0.75590555,0,0,0.75590555,-99.855122,-176.36222)"
     height="550"
     filter="url(#filter3341)"
     width="440"
     y="273"
     x="132.10001"
     fill="url(#radialGradient4457)"
     style="fill:url(#radialGradient4457)" />
  <g
     id="g4481"
     transform="matrix(0.75590555,0,0,0.75590555,-99.855122,-176.36222)">
    <path
       id="rect2313"
       d="m 305.76,656.3 h 32.07 c -2.37,45.23 -4.89,126.14 -4.36,168.71 l -23.35,0.08 z"
       fill="url(#linearGradient3291)"
       clip-path="url(#clipPath3466)"
       style="fill:url(#linearGradient3291)" />
    <path
       id="path3302"
       d="m 319.42,688.59 c -3.41,-0.77 -8.9,-13.28 -8.91,-17.33 v -1.46 l -3.16,-1.83 c -1.17,-11.66 -1.2,-16.87 -10.3,-29.19 -9.47,-37.42 -6.28,-73.96 -9.89,-110.94 -6.43,-58.49 -23.01,-116 -57.8,-158.01 -22.5,-10.67 -45.25,-21.7 -65.72,-29.56 -14.24,-41.3 83.77,-21.59 132.23,-28.82 l 232.37,56.92 0.4,61.31 c 5.7,26.32 11.77,62.52 4.35,80.65 -7.42,18.13 -94.53,52.56 -148.85,67.51 -7.95,23.58 -19.05,45.71 -30.08,67.87 -8.71,10.3 -16.96,20.09 -22.35,27.95 -5.39,7.86 -7.92,13.8 -12.29,14.93 z"
       fill="#eeeeec"
       clip-path="url(#clipPath3462)" />
    <path
       id="path12623"
       opacity="0.35"
       d="m 319.42,688.59 c -3.41,-0.77 -8.9,-13.28 -8.91,-17.33 v -1.46 l -3.16,-1.83 c -1.17,-11.66 -1.2,-16.87 -10.3,-29.19 -9.47,-37.42 -6.28,-73.96 -9.89,-110.94 -6.43,-58.49 -23.01,-116 -57.8,-158.01 -22.5,-10.67 -45.25,-21.7 -65.72,-29.56 -14.24,-41.3 83.77,-21.59 132.23,-28.82 l 232.37,56.92 0.4,61.31 c 5.7,26.32 11.77,62.52 4.35,80.65 -7.42,18.13 -94.53,52.56 -148.85,67.51 -7.95,23.58 -19.05,45.71 -30.08,67.87 -8.71,10.3 -16.96,20.09 -22.35,27.95 -5.39,7.86 -7.92,13.8 -12.29,14.93 z"
       fill="url(#linearGradient12912)"
       clip-path="url(#clipPath3458)"
       style="fill:url(#linearGradient12912)" />
    <path
       id="path12396"
       opacity="0.9"
       d="m 412.63,478.77 18.35,-35.65 -9.96,-12.59 -9.96,-4.72 -7.87,2.63 -5.76,4.71 -4.2,9.97 3.15,12.06 z"
       clip-path="url(#clipPath3454)"
       transform="matrix(1.1197,0,0,1.0322,-41.813,-18.271)"
       filter="url(#filter12619)"
       fill="url(#linearGradient12451)"
       style="fill:url(#linearGradient12451)" />
    <path
       id="path4274"
       d="m 320.87,764.14 c -0.73,-13.26 1.01,-68.06 -0.99,-75.42 4.24,-2.63 6.83,-8.29 10.02,-12.86 l -7.41,13.66 c -0.23,25.16 -0.65,48.32 -1.62,74.62 z"
       fill="url(#linearGradient5252)"
       clip-path="url(#clipPath3450)"
       style="fill:url(#linearGradient5252)" />
    <path
       id="path5254"
       opacity="0.85648"
       d="m 314,780.36 c -1,-40.14 -2,-81.03 -3,-122.5 2.08,19.6 6.3,24.23 6,60.5 -2.42,13.55 -2,41.34 -3,62 z"
       clip-path="url(#clipPath3446)"
       transform="matrix(1.1197,0,0,1.0322,-41.813,-18.271)"
       filter="url(#filter6229)"
       fill="url(#radialGradient7208)"
       style="fill:url(#radialGradient7208)" />
    <path
       id="path7210"
       opacity="0.7"
       d="m 330.5,665.36 20.5,-21.5 27.5,-66.5 -16,9.5 -12,44 -20,31 z"
       clip-path="url(#clipPath3442)"
       transform="matrix(1.1197,0,0,1.0322,-41.813,-18.271)"
       filter="url(#filter8285)"
       fill="#cac8a2" />
    <path
       id="path9831"
       opacity="0.7"
       d="m 304.5,323.36 -2.5,-2.5 -4,4.5 -9,5 -18,1 -18,-1 h -15 l -8,4 -4.5,5.5 -1,7 12.5,10.5 21,11.5 22,12 18.5,8 22,12 12.5,6 30.5,17 14.5,10.5 10,9 14,17 8.5,13.5 2.5,2.5 19,-35.5 -8,-5 -7.5,-10.5 3,-10 9,-5 c 0,0 8.5,-1.5 9.5,-4 1,-2.5 5.5,-12.5 5.5,-12.5 l 9.5,-8.5 4,-11 -10,5 -16.5,-6 -12.5,2 -15,-6.5 -8,-10.5 h -6 c 0,0 -14,6 -16.5,6.5 -2.5,0.5 -12,-1.5 -12,-1.5 l -9,-2.5 -13,2 c 0,0 -8.5,2 -10,-0.5 -1.5,-2.5 -22.5,-34.5 -22.5,-34.5 z"
       clip-path="url(#clipPath3438)"
       transform="matrix(1.1197,0,0,1.0322,-41.813,-18.271)"
       filter="url(#filter10838)"
       fill="url(#linearGradient10849)"
       style="fill:url(#linearGradient10849)" />
    <path
       id="path10934"
       d="m 331.28,405.01 -20.51,-12.38 -16.61,-7.78 -12.38,-6.71 -13.79,-6.72 -13.08,-5.3 -6.72,-6.37 -5.65,-3.53 9.19,-10.61 8.49,-4.95 14.49,-1.06 8.13,-1.42 9.55,-5.65 9.19,-8.84 8.49,6.72 7.77,14.85 10.26,14.14 10.25,4.24 c 0,0 10.96,-4.24 13.44,-4.24 2.47,0 8.83,0.7 8.83,0.7 l 11.32,4.6 15.91,14.5 -3.54,12.02 5.31,8.84 -4.25,13.08 -17.32,6.36 0.71,5.3 -2.48,1.42 -10.25,-7.78 -12.73,-6.01 z"
       clip-path="url(#clipPath3434)"
       transform="matrix(1.1197,0,0,1.0322,-41.813,-18.271)"
       filter="url(#filter10977)"
       fill="#f8f4d9" />
    <path
       id="path9379"
       d="m 357.36,413.03 1.12,-25.81 0.56,-27.35 -1.68,-13.93 -2.8,-3.62 -4.48,-1.54 h -3.92 l -2.8,2.58 -3.36,4.64 -3.92,13.42 -2.8,14.45 -2.24,17.03 -0.56,6.19 z"
       fill="#fce94f"
       clip-path="url(#clipPath3430)" />
    <path
       id="path9384"
       d="m 332,403.36 2.5,-20.5 5.5,17.5 5,-1.5 -1,-7 -1,-8 v -3.5 l -1,-3.5 3.5,-4 1.5,-3 -2,-4.5 v -4.5 l 3.5,2.5 1.5,-0.5 v -4 l -2.5,-0.5 -5.5,2.5 1.5,-4.5 4,-1.5 3,-0.5 v -2.5 l 1.5,-1.5 4,4.5 1.5,7 -0.5,18 -0.5,35 v 4 z"
       clip-path="url(#clipPath3426)"
       transform="matrix(1.1197,0,0,1.0322,-41.813,-18.271)"
       filter="url(#filter9827)"
       fill="#edd400" />
    <path
       id="path9387"
       d="m 348.5,355.36 2.5,5.5 -2.5,3.5 v 4 l 2.5,2 -1.5,4 1.5,3 2.5,-3 v -5 l 1.5,-2.5 -2.5,-1 1.5,-3 -1.5,-3.5 1,-3.5 z"
       clip-path="url(#clipPath3422)"
       transform="matrix(1.1197,0,0,1.0322,-41.813,-18.271)"
       filter="url(#filter9779)"
       fill="#c4a000" />
    <path
       id="path9390"
       d="m 349,376.86 -2.5,4 1.5,3.5 -1,3 4,-2 -0.5,-4 1.5,-2 z"
       clip-path="url(#clipPath3418)"
       transform="matrix(1.1197,0,0,1.0322,-41.813,-18.271)"
       filter="url(#filter9655)"
       fill="#c4a000" />
    <path
       id="path9393"
       d="m 348,398.36 -2,5.5 2,3 v 3.5 l 2,3 v -5 l -1.5,-4 -1.5,-1.5 2.5,-1 z"
       clip-path="url(#clipPath3414)"
       transform="matrix(1.1197,0,0,1.0322,-41.813,-18.271)"
       filter="url(#filter9555)"
       fill="#c4a000" />
    <path
       id="path9396"
       d="m 353.44,406.32 v 3.61 l -1.68,0.52 -21.84,-11.36 3.36,-19.09 4.48,14.96 h 4.48 l 2.8,-4.12 v 5.67 l -3.36,2.58 3.92,5.68 7.84,4.64 z"
       fill="url(#linearGradient9404)"
       clip-path="url(#clipPath3410)"
       style="fill:url(#linearGradient9404)" />
    <path
       id="path10855"
       d="m 304.41,325.46 c 0,1.76 2.12,49.14 2.12,49.14 l 0.71,-17.68 1.41,-15.91 z"
       clip-path="url(#clipPath3406)"
       transform="matrix(1.1197,0,0,1.0322,-41.813,-18.271)"
       filter="url(#filter10922)"
       fill="url(#radialGradient10932)"
       style="fill:url(#radialGradient10932)" />
    <path
       id="path8363"
       opacity="0.6"
       d="m 408,473.36 -10,-12.5 c -62.67,-37.13 -130.72,-73.19 -200,-109 l 3.5,-0.5 44,20.5 18.5,8 17,1 15,5 61.5,33.5 c 15.52,12.5 34.08,25 43.5,37.5 z"
       clip-path="url(#clipPath3402)"
       transform="matrix(1.1197,0,0,1.0322,-41.813,-18.271)"
       filter="url(#filter11045)"
       fill="#989a75" />
    <path
       id="path11049"
       opacity="0.6"
       d="m 402.34,523.45 6.37,-14.15 2.12,-17.67 -0.71,-16.27 16.27,-38.18 -23.34,-16.26 2.12,-7.08 8.49,-3.53 12.02,3.53 6.36,-4.24 7.07,-4.95 9.2,-16.97 7.77,-7.78 24.05,10.61 12.02,22.63 12.02,27.57 3.53,29.7 -8.48,13.44 -9.2,9.19 c 0,0 9.2,11.31 9.2,14.85 0,3.54 -3.54,10.61 -3.54,10.61 l -14.85,9.19 c 0,0 -11.31,2.83 -14.14,2.83 -2.83,0 -10.61,-2.12 -14.14,-4.95 -3.54,-2.83 -10.61,-13.44 -10.61,-13.44 h -12.73 l -10.6,3.54 z"
       clip-path="url(#clipPath3398)"
       transform="matrix(1.1197,0,0,1.0322,-41.813,-18.271)"
       filter="url(#filter11130)"
       fill="#f9f5f5" />
    <path
       id="path11084"
       d="m 408.69,522.01 7.12,-14.6 2.38,-18.25 -0.79,-16.78 18.21,-39.42 -26.13,-16.78 2.38,-7.3 9.5,-3.65 13.46,3.65 7.12,-4.38 7.92,-5.11 10.29,-17.51 8.71,-8.03 26.92,10.95 13.46,23.35 13.46,28.46 3.96,30.66 -9.5,13.86 -10.3,9.49 c 0,0 10.3,11.68 10.3,15.33 0,3.65 -3.96,10.95 -3.96,10.95 l -16.63,9.48 c 0,0 -12.67,2.92 -15.83,2.92 -3.17,0 -11.88,-2.19 -15.84,-5.11 -3.96,-2.91 -11.87,-13.86 -11.87,-13.86 h -14.26 l -11.87,3.65 z"
       fill="url(#linearGradient11096)"
       clip-path="url(#clipPath3394)"
       style="fill:url(#linearGradient11096)" />
    <path
       id="path8290"
       opacity="0.7"
       d="m 368,573.36 20.5,-25.5 11.5,-21 12.5,-10 21.5,-7 4.5,-0.5 23,25.5 -12,12.5 -37,10.5 z"
       clip-path="url(#clipPath3390)"
       transform="matrix(1.1197,0,0,1.0322,-41.813,-18.271)"
       filter="url(#filter8356)"
       fill="url(#linearGradient8361)"
       style="fill:url(#linearGradient8361)" />
    <path
       id="path11152"
       opacity="0.7"
       d="m 310.51,671.62 4.75,-10.94 3.96,-14.6 5.54,-14.6 5.55,-13.14 3.95,-4.37 3.96,-5.11 3.96,-7.3 9.5,-10.22 8.71,-10.22 19.8,-19.7 9.5,-9.49 9.5,-16.79 13.46,-25.54 3.96,-12.41 v -16.06 l -1.59,-9.48 -3.96,-5.84 -11.08,-11.68 -11.09,-5.11 -17.41,-10.22 -30.09,-15.32 -40.38,-19.71 -10.29,-5.11 -13.46,-7.3 -12.67,-5.11 -10.29,-4.37 -11.88,-5.84 -19.79,-9.49 14.25,13.87 21.66,35.55 c 16.68,33.8 22.17,74.46 28.22,106.04 l 3.17,45.98 c -2.1,-1.62 3.23,60.16 6.94,70.16 l 8.84,14.75 1.64,13.61 z"
       fill="url(#radialGradient12132)"
       clip-path="url(#clipPath3386)"
       style="fill:url(#radialGradient12132)" />
    <path
       id="rect12134"
       opacity="0.45"
       d="m 250.5,380.86 c 45.73,33.4 86.83,67.46 114,103.5 l -17,69 -23.38,65.13 -5.87,-79.88 L 292,491.86 c -3.62,-42.57 -23.86,-76.07 -41.5,-111 z"
       clip-path="url(#clipPath3382)"
       transform="matrix(1.1197,0,0,1.0322,-41.813,-18.271)"
       filter="url(#filter12274)"
       fill="#a39f6f" />
    <path
       id="path12284"
       d="m 366.33,587.69 -13.86,9.12 -9.89,12.41 -9.11,12.41 -6.33,13.87 -6.34,15.69 -3.95,9.12 -2.77,8.76 5.14,0.36 0.4,3.29 0.79,6.2 1.98,2.92 5.94,-5.84 c 0,0 -2.38,-0.36 0.39,-4.74 2.77,-4.38 7.13,-10.58 7.13,-10.58 l 11.87,-15.33 6.34,-11.68 5.14,-11.68 0.4,-10.21 4.36,-8.76 0.79,-8.03 z"
       fill="url(#linearGradient12914)"
       clip-path="url(#clipPath3378)"
       style="fill:url(#linearGradient12914)" />
    <path
       id="path12296"
       d="m 364.51,587.09 -12.37,8.83 -8.84,12.03 -8.13,12.02 -5.66,13.43 -5.66,15.2 -3.53,8.84 -2.48,8.49 4.6,0.35 0.35,3.18 0.71,6.01 1.77,2.83 5.3,-5.65 c 0,0 -2.12,-0.36 0.36,-4.6 2.47,-4.24 6.36,-10.25 6.36,-10.25 l 10.61,-14.85 5.65,-11.32 4.6,-11.31 0.35,-9.9 3.89,-8.48 0.71,-7.78 z"
       clip-path="url(#clipPath3374)"
       transform="matrix(1.1197,0,0,1.0322,-41.813,-18.271)"
       filter="url(#filter12392)"
       fill="url(#linearGradient12298)"
       style="fill:url(#linearGradient12298)" />
    <path
       id="path12633"
       opacity="0.6"
       d="m 267,393.36 51,49 31,33 3,16 -16,-12 -14,-6 -4,-12 -17,-13 -7,-8 -19,-21 z"
       clip-path="url(#clipPath3370)"
       fill-opacity="0.74902"
       transform="matrix(1.1197,0,0,1.0322,-41.813,-18.271)"
       filter="url(#filter12676)"
       fill="#abab8a" />
    <path
       id="path12680"
       opacity="0.6"
       d="m 288,464.36 14,41 13,31 v 22 l 6,-10 2,10 4,-20 -1,-32 -12,-24 -15,-25 -11,-20 z"
       clip-path="url(#clipPath3366)"
       fill-opacity="0.74902"
       transform="matrix(1.1197,0,0,1.0322,-41.813,-18.271)"
       filter="url(#filter12687)"
       fill="#abab8a" />
    <path
       id="path12691"
       opacity="0.75"
       d="m 366,487.38 -13,2 -8,21 -6,27 -6,14 3,12 -3,12 4,9 -5,10 v 9 l 10,-2 3.34,-4 6.66,-10 4.66,-4.66 2.34,-3.34 8,-8 1,-1 6,-6 9,-10 1.66,-1.66 1.34,-2.34 6,-12 10,-19 -20,-21 z"
       clip-path="url(#clipPath3362)"
       transform="matrix(1.1197,0,0,1.0322,-41.813,-18.271)"
       filter="url(#filter12743)"
       fill="#e6e0ad" />
    <path
       id="path12750"
       opacity="0.45833"
       d="m 403,465.36 -15,-12 -31,-18 -26,-14 -16,-7 -5,10 -3,14 -7,15 -14,-6 -8,-2 9,31 6,40 12,31 11,13 c 0,0 6,16 5,20 -1,4 -7,22 -7,22 l -3,21 5,13 c 0,0 8,2 8,-9 0,-11 6,-35 6,-35 l 7,-19 13,-6 26,-26 23,-19 10,-19 v -20 z"
       clip-path="url(#clipPath3358)"
       transform="matrix(1.1197,0,0,1.0322,-41.813,-18.271)"
       filter="url(#filter12806)"
       fill="#9ba087" />
    <path
       id="path12823"
       opacity="0.72685"
       d="m 439,389.36 a 38,11 0 1 1 -76,0 38,11 0 1 1 76,0 z"
       clip-path="url(#clipPath3354)"
       transform="matrix(1.0942,0.29476,-0.30228,1.7284,87.219,-402.91)"
       filter="url(#filter12906)"
       fill="#d2d5c0" />
  </g>
  <metadata
     id="metadata186">
    <rdf:RDF>
      <cc:Work>
        <dc:format>image/svg+xml</dc:format>
        <dc:type
           rdf:resource="http://purl.org/dc/dcmitype/StillImage" />
        <cc:license
           rdf:resource="http://creativecommons.org/publicdomain/zero/1.0/" />
        <dc:publisher>
          <cc:Agent
             rdf:about="http://openclipart.org/">
            <dc:title>Openclipart</dc:title>
          </cc:Agent>
        </dc:publisher>
        <dc:title>The Lily</dc:title>
        <dc:date>2007-08-20T03:28:07</dc:date>
        <dc:description>This lily was drawn from a photo reference.</dc:description>
        <dc:source>http://openclipart.org/detail/4847/the-lily-by-darth_gimp</dc:source>
        <dc:creator>
          <cc:Agent>
            <dc:title>Darth_Gimp</dc:title>
          </cc:Agent>
        </dc:creator>
        <dc:subject>
          <rdf:Bag>
            <rdf:li>clip art</rdf:li>
            <rdf:li>clipart</rdf:li>
            <rdf:li>externalsource</rdf:li>
            <rdf:li>flower</rdf:li>
            <rdf:li>image</rdf:li>
            <rdf:li>lily</rdf:li>
            <rdf:li>media</rdf:li>
            <rdf:li>plant</rdf:li>
            <rdf:li>public domain</rdf:li>
            <rdf:li>svg</rdf:li>
          </rdf:Bag>
        </dc:subject>
      </cc:Work>
      <cc:License
         rdf:about="http://creativecommons.org/publicdomain/zero/1.0/">
        <cc:permits
           rdf:resource="http://creativecommons.org/ns#Reproduction" />
        <cc:permits
           rdf:resource="http://creativecommons.org/ns#Distribution" />
        <cc:permits
           rdf:resource="http://creativecommons.org/ns#DerivativeWorks" />
      </cc:License>
    </rdf:RDF>
  </metadata>
</svg>
