<?xml version="1.0" encoding="UTF-8" standalone="no"?>
<!-- Generator: Adobe Illustrator 20.0.0, SVG Export Plug-In . SVG Version: 6.00 Build 0)  -->

<svg
   version="1.1"
   id="Layer_1"
   x="0px"
   y="0px"
   viewBox="0 0 332.59843 472.44094"
   enable-background="new 0 0 1132.632 1600.094"
   xml:space="preserve"
   inkscape:version="1.2.2 (732a01da63, 2022-12-09)"
   sodipodi:docname="nightstand.svg"
   width="88mm"
   height="125mm"
   xmlns:inkscape="http://www.inkscape.org/namespaces/inkscape"
   xmlns:sodipodi="http://sodipodi.sourceforge.net/DTD/sodipodi-0.dtd"
   xmlns="http://www.w3.org/2000/svg"
   xmlns:svg="http://www.w3.org/2000/svg"
   xmlns:rdf="http://www.w3.org/1999/02/22-rdf-syntax-ns#"
   xmlns:cc="http://creativecommons.org/ns#"
   xmlns:dc="http://purl.org/dc/elements/1.1/"><metadata
     id="metadata19143"><rdf:RDF><cc:Work
         rdf:about=""><dc:format>image/svg+xml</dc:format><dc:type
           rdf:resource="http://purl.org/dc/dcmitype/StillImage" /><cc:license
           rdf:resource="http://creativecommons.org/publicdomain/zero/1.0/" /><dc:creator><cc:Agent><dc:title>j4p4n</dc:title></cc:Agent></dc:creator></cc:Work><cc:License
         rdf:about="http://creativecommons.org/publicdomain/zero/1.0/"><cc:permits
           rdf:resource="http://creativecommons.org/ns#Reproduction" /><cc:permits
           rdf:resource="http://creativecommons.org/ns#Distribution" /><cc:permits
           rdf:resource="http://creativecommons.org/ns#DerivativeWorks" /></cc:License></rdf:RDF></metadata><defs
     id="defs19141" /><sodipodi:namedview
     pagecolor="#ffffff"
     bordercolor="#666666"
     borderopacity="1"
     objecttolerance="10"
     gridtolerance="10"
     guidetolerance="10"
     inkscape:pageopacity="0"
     inkscape:pageshadow="2"
     inkscape:window-width="1916"
     inkscape:window-height="1035"
     id="namedview19139"
     showgrid="false"
     inkscape:zoom="1.1486984"
     inkscape:cx="131.88841"
     inkscape:cy="267.6943"
     inkscape:window-x="4"
     inkscape:window-y="1"
     inkscape:window-maximized="1"
     inkscape:current-layer="Layer_1"
     fit-margin-top="0"
     fit-margin-left="0"
     fit-margin-right="0"
     fit-margin-bottom="0"
     inkscape:showpageshadow="0"
     inkscape:pagecheckerboard="0"
     inkscape:deskcolor="#d1d1d1"
     inkscape:document-units="mm" /><g
     id="g21044"
     transform="matrix(0.90385987,0,0,0.90385987,-664.95673,-523.96562)"><path
       d="m 787.286,584.61 c 2.253,-0.4 4.566,-0.159 6.855,-0.204 38.914,-0.005 77.833,0.009 116.752,0.023 3.334,0.114 6.705,-0.286 10.017,0.191 1.077,5.579 2.008,11.198 3.253,16.745 1.045,5.878 2.108,11.757 3.289,17.617 5.065,26.335 10.067,52.684 15.11,79.023 0.509,2.748 1.386,5.465 1.345,8.291 -2.194,0.468 -4.443,0.363 -6.664,0.345 -7.423,0.005 -14.842,0.032 -22.26,-0.032 -17.999,-0.291 -36.007,-0.009 -54.01,-0.073 -4.552,-0.077 -9.104,-0.073 -13.651,0.005 -18.621,0.05 -37.243,-0.082 -55.859,0.068 -5.769,0.068 -11.539,0.027 -17.308,0.045 -2.38,-0.009 -4.793,0.218 -7.119,-0.363 0.05,-0.536 0.059,-1.068 0.036,-1.59 6.835,-40.004 13.536,-80.059 20.214,-120.091 z"
       id="path18957"
       inkscape:connector-curvature="0"
       style="fill:#883c3e;stroke:#883c3e;stroke-width:0.5;stroke-opacity:1" /><path
       id="path18959"
       d="m 901.48047,706.48438 c -13.50197,-0.0465 -27.00752,0.0988 -40.50977,0.0508 -0.027,39.346 0.001,78.69696 -0.008,118.04296 0.059,3.248 -0.35903,6.52977 0.16797,9.75977 7.033,0.286 14.10158,-0.11801 21.14258,0.20899 3.194,1.12199 6.24643,3.30668 7.52344,6.55468 1.17199,3.021 0.78482,6.34063 0.79882,9.51563 l 0.004,0.48242 c 2.958,-0.414 5.95055,-0.29644 8.93555,-0.27344 7.264,-0.01 14.53364,10e-4 21.80664,-0.004 4.738,-0.082 9.48475,0.21334 14.21875,-0.22266 -6.874,-47.85 -13.73721,-95.70155 -20.53321,-143.56055 0,0 -0.002,0 -0.002,0 l -0.0449,-0.42968 c -4.49975,-0.0728 -8.99934,-0.10952 -13.5,-0.125 z m -82.0918,0.0527 c -9.31,-0.008 -18.61923,-0.003 -27.92773,0.0723 -0.877,7.814 -2.25842,15.55775 -3.35742,23.34374 -5.997,40.222 -12.07049,80.43207 -18.02149,120.66407 4.225,0.373 8.46317,0.16289 12.70117,0.21289 8.178,-0.005 16.35621,-0.009 24.53321,0 3.434,0.028 6.8915,-0.19456 10.3125,0.27344 l 0.0254,-0.48633 c 0.059,-2.312 -0.0766,-4.63374 0.1914,-6.92774 0.541,-4.734 4.70266,-8.77728 9.47266,-9.11328 6.597,-0.472 13.22908,0.0976 19.83008,-0.23437 0.541,-2.462 0.27659,-5.00319 0.30859,-7.49219 -0.01,-34.072 -8.6e-4,-68.14284 -0.006,-102.21484 -0.068,-6.033 0.15514,-12.06975 -0.13086,-18.09375 -9.3105,0.025 -18.62164,0.004 -27.93164,-0.004 z m 59.54883,0.79492 c 1.11125,0.006 2.22548,0.0637 3.33398,0.0547 -1.66275,0.0135 -3.33925,-0.1193 -4.99609,-0.0117 0.55228,-0.0359 1.10649,-0.0461 1.66211,-0.043 z"
       style="opacity:0.379;fill:#ecedb5;fill-opacity:1;stroke:none;stroke-width:0.5"
       inkscape:connector-curvature="0" /><path
       d="m 847.32,706.541 c 4.547,-0.077 9.099,-0.082 13.651,-0.005 -0.027,39.346 0,78.696 -0.009,118.042 0.059,3.248 -0.359,6.528 0.168,9.758 7.032,0.286 14.101,-0.118 21.143,0.209 3.194,1.122 6.246,3.307 7.523,6.555 1.172,3.021 0.786,6.342 0.799,9.517 -11.103,0.177 -22.206,0.023 -33.308,0.073 -13.211,-0.045 -26.426,0.095 -39.632,-0.073 0.059,-2.312 -0.077,-4.634 0.191,-6.928 0.541,-4.734 4.702,-8.777 9.472,-9.113 6.596,-0.472 13.229,0.095 19.83,-0.236 0.541,-2.462 0.277,-5.002 0.309,-7.491 -0.009,-34.072 0,-68.143 -0.005,-102.215 -0.068,-6.032 0.154,-12.069 -0.132,-18.093 z"
       id="path18961"
       inkscape:connector-curvature="0"
       style="fill:#cd8a53;stroke:#cd8a53;stroke-width:0.5" /><path
       d="m 952.71,740.549 c 0.104,-2.98 3.898,-4.852 6.333,-3.13 1.617,0.895 1.926,2.862 1.972,4.552 -1.831,0.99 -3.639,2.017 -5.474,2.985 -1.663,-0.832 -3.099,-2.44 -2.831,-4.407 z"
       id="path18977"
       inkscape:connector-curvature="0"
       style="fill:#f3eaad;fill-opacity:1;stroke:none;stroke-width:0.5;stroke-opacity:1" /><path
       d="m 1034.586,739.309 c 0.868,-1.367 2.208,-2.667 3.966,-2.539 2.549,-0.073 4.611,2.562 3.993,5.024 -0.195,1.517 -1.545,2.43 -2.739,3.171 -1.84,-0.963 -3.643,-1.972 -5.433,-2.998 0.041,-0.896 0.109,-1.782 0.213,-2.658 z"
       id="path18979"
       inkscape:connector-curvature="0"
       style="fill:#f3eaad;fill-opacity:1;stroke:none;stroke-width:0.5;stroke-opacity:1" /><path
       d="m 961.015,741.971 c 5.665,-2.685 12.856,-4.116 18.449,-0.5 1.745,1.286 4.098,2.535 4.52,4.856 -4.447,1.136 -8.827,2.626 -12.893,4.775 -3.521,1.663 -6.951,3.598 -9.913,6.146 -3.307,2.671 -6.442,5.769 -8.145,9.735 -0.586,-0.064 -0.954,-0.572 -1.317,-0.936 -3.103,-3.68 -4.052,-9.109 -2.031,-13.529 1.258,-2.989 3.598,-5.311 5.856,-7.564 1.835,-0.966 3.643,-1.993 5.474,-2.983 z"
       id="path18981"
       inkscape:connector-curvature="0"
       style="fill:#f0b12e;stroke:#f0b12e;stroke-width:0.5" /><path
       d="m 1017.955,740.381 c 5.356,-2.212 11.353,-0.718 16.418,1.585 1.79,1.027 3.593,2.035 5.433,2.998 2.24,2.262 4.575,4.584 5.856,7.559 2.167,4.811 0.886,10.917 -2.998,14.474 l -0.377,-0.064 c -1.813,-3.88 -4.797,-7.069 -8.136,-9.681 -2.876,-2.521 -6.242,-4.366 -9.622,-6.083 -4.234,-2.249 -8.859,-3.543 -13.351,-5.115 1.453,-2.639 4.101,-4.424 6.777,-5.673 z"
       id="path18983"
       inkscape:connector-curvature="0"
       style="fill:#f0b12e;stroke:#f0b12e;stroke-width:0.5" /><path
       d="m 1011.177,746.055 c 4.493,1.572 9.118,2.867 13.351,5.115 -1.513,1.281 -2.571,2.998 -4.039,4.307 -3.202,-3.035 -6.832,-5.724 -9.312,-9.422 z"
       id="path18985"
       inkscape:connector-curvature="0"
       style="fill:#ba812b;stroke:#ba812b;stroke-width:0.5" /><path
       d="m 971.091,751.102 c 4.066,-2.149 8.445,-3.639 12.893,-4.775 -2.535,3.543 -6.046,6.21 -9.195,9.172 -1.291,-1.421 -2.49,-2.921 -3.698,-4.397 z"
       id="path18987"
       inkscape:connector-curvature="0"
       style="fill:#bb802c;stroke:#bb802c;stroke-width:0.5" /><path
       d="m 991.761,751.329 c 9.295,-1.149 19.157,0.141 27.389,4.775 3.598,2.748 7.11,5.66 11.094,7.855 2.844,2.117 4.961,5.02 6.96,7.914 9.44,13.869 10.521,32.872 2.744,47.737 -3.925,7.732 -10.085,14.278 -17.472,18.807 -1.831,0.727 -3.553,1.708 -5.22,2.739 -12.329,5.506 -27.144,5.551 -39.305,-0.441 -2.058,-1.072 -4.048,-2.271 -6.092,-3.353 -8.3,-5.411 -14.71,-13.615 -18.153,-22.892 -3.793,-10.399 -3.898,-22.142 -0.082,-32.55 2.503,-6.764 6.46,-13.083 11.843,-17.922 3.489,-2.408 6.819,-5.038 10.299,-7.455 4.887,-2.824 10.407,-4.501 15.995,-5.214 m 0.636,8.541 c -13.715,1.826 -25.908,11.707 -30.66,24.681 -3.507,9.249 -3.23,19.852 0.695,28.929 3.253,7.637 9.081,14.128 16.291,18.24 6.392,3.693 13.865,5.447 21.233,5.052 9.263,-0.432 18.321,-4.352 24.936,-10.857 6.047,-5.783 10.044,-13.624 11.312,-21.883 1.09,-7.364 0.127,-15.055 -2.998,-21.829 -3.471,-7.782 -9.635,-14.328 -17.186,-18.271 -7.174,-3.835 -15.591,-5.207 -23.623,-4.062 z"
       id="path18989"
       inkscape:connector-curvature="0"
       style="fill:#eb7488;stroke:#eb7488;stroke-width:0.5" /><path
       d="m 961.178,757.248 c 2.962,-2.549 6.392,-4.484 9.913,-6.146 1.208,1.476 2.408,2.976 3.698,4.397 0.309,0.341 0.632,0.69 0.977,1.045 -3.48,2.417 -6.81,5.047 -10.299,7.455 -0.327,-0.622 -0.663,-1.227 -1.022,-1.804 -1.05,-1.676 -2.168,-3.311 -3.267,-4.947 z"
       id="path18991"
       inkscape:connector-curvature="0"
       style="fill:#b2ad8d;stroke:#b2ad8d;stroke-width:0.5" /><path
       d="m 1020.49,755.477 c 1.467,-1.308 2.526,-3.026 4.039,-4.307 3.38,1.717 6.746,3.562 9.622,6.083 -1.031,1.681 -2.38,3.18 -3.212,4.984 -0.245,0.563 -0.463,1.145 -0.695,1.722 -3.984,-2.194 -7.496,-5.106 -11.094,-7.855 0.431,-0.223 0.876,-0.432 1.34,-0.627 z"
       id="path18993"
       inkscape:connector-curvature="0"
       style="fill:#b2ad8d;stroke:#b2ad8d;stroke-width:0.5" /><path
       d="m 953.033,766.984 c 1.704,-3.966 4.838,-7.064 8.145,-9.735 1.099,1.635 2.217,3.271 3.266,4.947 -3.797,1.612 -7.35,3.888 -11.411,4.788 z"
       id="path18995"
       inkscape:connector-curvature="0"
       style="fill:#ba802b;stroke:#ba802b;stroke-width:0.5" /><path
       d="m 1034.15,757.253 c 3.339,2.612 6.324,5.801 8.136,9.681 -4.043,-0.84 -7.582,-3.107 -11.348,-4.697 0.832,-1.804 2.181,-3.303 3.212,-4.984 z"
       id="path18997"
       inkscape:connector-curvature="0"
       style="fill:#bb802b;stroke:#bb802b;stroke-width:0.5" /><path
       d="m 992.397,759.87 c 8.032,-1.145 16.45,0.227 23.623,4.061 7.55,3.943 13.715,10.49 17.186,18.271 3.125,6.773 4.089,14.465 2.998,21.829 -1.267,8.259 -5.265,16.1 -11.312,21.883 -6.615,6.505 -15.673,10.426 -24.936,10.857 -7.369,0.395 -14.842,-1.358 -21.233,-5.052 -7.21,-4.111 -13.038,-10.603 -16.291,-18.24 -3.925,-9.077 -4.202,-19.68 -0.695,-28.929 4.752,-12.973 16.945,-22.854 30.66,-24.68 m 4.593,4.125 c -1.272,0.568 -1.154,2.162 -1.168,3.325 0.073,2.063 -0.209,4.17 0.209,6.206 0.704,1.899 3.834,1.635 4.17,-0.368 0.145,-2.521 0.114,-5.052 0.027,-7.568 -0.063,-1.523 -2.003,-2.318 -3.238,-1.595 m -14.306,5.665 c -0.182,1.853 0.818,4.27 2.717,4.915 0.736,-1.695 -0.572,-3.457 -1.54,-4.766 -0.296,-0.04 -0.882,-0.113 -1.177,-0.149 m 32.223,1.735 c -0.918,1.113 -2.34,2.449 -1.722,4.029 1.772,0.014 2.485,-1.999 3.221,-3.303 0.758,-1.017 -0.95,-1.489 -1.499,-0.726 m -7.378,4.443 c -1.622,2.312 -2.526,5.038 -3.834,7.532 -1.467,3.235 -3.262,6.328 -4.57,9.631 -3.253,-0.6 -6.655,1.949 -6.655,5.324 -3.839,2.417 -7.673,4.847 -11.475,7.314 -3.044,1.713 0.577,7.287 3.407,5.206 3.825,-2.367 7.559,-4.879 11.407,-7.219 2.639,0.931 6.001,-0.136 7.128,-2.821 0.895,-1.808 0.413,-3.866 -0.277,-5.642 1.24,-1.64 1.94,-3.602 2.857,-5.424 1.681,-3.353 3.221,-6.769 4.911,-10.112 0.613,-1.277 1.195,-2.867 0.477,-4.207 -0.855,-1.177 -2.704,-0.704 -3.376,0.418 m -36.656,4.675 c 0.059,0.572 0.068,1.268 0.636,1.635 1.063,0.872 2.235,1.963 3.73,1.844 0.009,-0.273 0.027,-0.827 0.036,-1.099 -1.082,-1.263 -2.631,-2.608 -4.402,-2.38 m 51.52,4.556 c 0.204,0.2 0.609,0.6 0.813,0.8 1.536,-0.509 3.434,-1.049 4.184,-2.626 -0.195,-0.195 -0.586,-0.591 -0.781,-0.786 -1.581,0.477 -3.339,1.117 -4.216,2.612 m -58.698,11.902 c -1.935,0.722 -1.535,3.93 0.531,4.125 2.426,0.145 4.888,0.182 7.319,-0.036 2.017,-0.3 2.162,-3.684 0.159,-4.102 -2.662,-0.173 -5.361,-0.214 -8.009,0.013 m 57.226,-0.013 c -2.09,0.609 -1.626,4.093 0.55,4.161 2.399,0.086 4.838,0.177 7.237,-0.059 1.953,-0.359 2.126,-3.562 0.209,-4.102 -2.658,-0.191 -5.347,-0.191 -7.996,0 m 1.745,14.51 c -0.041,0.209 -0.127,0.627 -0.173,0.836 1.054,1.463 2.721,2.812 4.634,2.676 -0.309,-2.027 -2.517,-3.471 -4.461,-3.512 m -50.908,2.221 c -0.65,0.318 -0.745,1.099 -0.359,1.676 1.585,-0.068 3.089,-0.849 4.302,-1.844 0.032,-0.3 0.095,-0.909 0.127,-1.208 -1.494,-0.164 -2.861,0.608 -4.07,1.376 m 40.523,7.337 c -0.186,1.781 0.768,3.434 1.863,4.77 0.263,-0.014 0.79,-0.036 1.054,-0.045 0.2,-1.704 -0.709,-3.371 -1.817,-4.579 -0.273,-0.037 -0.823,-0.11 -1.1,-0.146 m -30.41,5.756 c 0.591,0.35 1.313,0.25 1.731,-0.341 0.963,-1.118 2.181,-2.485 1.713,-4.07 -1.918,0.486 -3.181,2.544 -3.444,4.411 m 15.082,-3.839 c -1.14,0.522 -1.136,1.899 -1.127,2.971 0.036,2.099 -0.15,4.225 0.154,6.319 0.459,1.976 3.816,1.949 4.207,-0.073 0.173,-2.521 0.114,-5.061 0.041,-7.582 0.055,-1.594 -2.039,-2.462 -3.275,-1.635 z"
       id="path18999"
       inkscape:connector-curvature="0"
       style="fill:#ffffff;stroke:#ffffff;stroke-width:0.5" /><path
       d="m 996.99,763.995 c 1.236,-0.722 3.175,0.073 3.239,1.595 0.086,2.517 0.118,5.047 -0.027,7.568 -0.336,2.003 -3.466,2.267 -4.17,0.368 -0.418,-2.035 -0.136,-4.143 -0.209,-6.206 0.013,-1.163 -0.105,-2.757 1.167,-3.325 z"
       id="path19001"
       inkscape:connector-curvature="0"
       style="fill:#a55243;stroke:#a55243;stroke-width:0.5" /><path
       d="m 982.684,769.66 c 0.295,0.036 0.881,0.109 1.177,0.15 0.968,1.308 2.276,3.071 1.54,4.766 -1.899,-0.646 -2.899,-3.063 -2.717,-4.916 z"
       id="path19003"
       inkscape:connector-curvature="0"
       style="fill:#f1ac43;stroke:#f1ac43;stroke-width:0.5" /><path
       d="m 1014.907,771.395 c 0.55,-0.763 2.258,-0.291 1.499,0.727 -0.736,1.304 -1.449,3.316 -3.221,3.303 -0.618,-1.581 0.804,-2.917 1.722,-4.03 z"
       id="path19005"
       inkscape:connector-curvature="0"
       style="fill:#f0ac45;stroke:#f0ac45;stroke-width:0.5" /><path
       d="m 1007.529,775.838 c 0.672,-1.122 2.521,-1.595 3.375,-0.418 0.718,1.34 0.136,2.93 -0.477,4.207 -1.69,3.344 -3.23,6.76 -4.911,10.112 -0.918,1.822 -1.617,3.784 -2.857,5.424 -1.131,-0.804 -2.29,-1.567 -3.534,-2.162 1.308,-3.303 3.103,-6.396 4.57,-9.631 1.308,-2.494 2.212,-5.22 3.834,-7.532 z"
       id="path19007"
       inkscape:connector-curvature="0"
       style="fill:#f8ab36;stroke:#f8ab36;stroke-width:0.5" /><path
       d="m 970.873,780.513 c 1.772,-0.227 3.321,1.118 4.402,2.38 -0.009,0.273 -0.027,0.827 -0.036,1.099 -1.495,0.118 -2.667,-0.972 -3.73,-1.844 -0.568,-0.368 -0.577,-1.063 -0.636,-1.635 z"
       id="path19009"
       inkscape:connector-curvature="0"
       style="fill:#f0ad44;stroke:#f0ad44;stroke-width:0.5" /><path
       d="m 1022.393,785.069 c 0.877,-1.495 2.635,-2.135 4.216,-2.612 0.195,0.195 0.586,0.591 0.781,0.786 -0.75,1.576 -2.648,2.117 -4.184,2.626 -0.204,-0.2 -0.608,-0.6 -0.813,-0.8 z"
       id="path19011"
       inkscape:connector-curvature="0"
       style="fill:#f0ad43;stroke:#f0ad43;stroke-width:0.5" /><path
       d="m 992.469,798.325 c 0,-3.375 3.403,-5.924 6.655,-5.324 1.245,0.595 2.403,1.358 3.534,2.162 0.69,1.776 1.172,3.834 0.277,5.642 -1.127,2.685 -4.488,3.752 -7.128,2.821 -1.957,-1.099 -3.288,-3.02 -3.338,-5.301 m 4.493,-3.021 c -2.43,0.631 -3.085,4.143 -1.177,5.706 1.799,1.649 5.156,0.522 5.456,-1.949 0.541,-2.344 -2.044,-4.579 -4.279,-3.757 z"
       id="path19013"
       inkscape:connector-curvature="0"
       style="fill:#a25344;stroke:#a25344;stroke-width:0.5" /><path
       d="m 996.962,795.304 c 2.235,-0.822 4.82,1.413 4.279,3.757 -0.3,2.471 -3.657,3.598 -5.456,1.949 -1.907,-1.563 -1.253,-5.074 1.177,-5.706 z"
       id="path19015"
       inkscape:connector-curvature="0"
       style="fill:#fffdfd;stroke:#fffdfd;stroke-width:0.5" /><path
       d="m 963.695,796.971 c 2.649,-0.227 5.347,-0.186 8.009,-0.014 2.003,0.418 1.858,3.802 -0.159,4.102 -2.431,0.218 -4.893,0.182 -7.319,0.036 -2.067,-0.194 -2.466,-3.401 -0.531,-4.124 z"
       id="path19017"
       inkscape:connector-curvature="0"
       style="fill:#a55242;stroke:#a55242;stroke-width:0.5" /><path
       d="m 1020.921,796.958 c 2.649,-0.191 5.338,-0.191 7.996,0 1.917,0.541 1.744,3.743 -0.209,4.102 -2.399,0.236 -4.838,0.145 -7.237,0.059 -2.176,-0.068 -2.639,-3.553 -0.55,-4.161 z"
       id="path19019"
       inkscape:connector-curvature="0"
       style="fill:#a55242;stroke:#a55242;stroke-width:0.5" /><path
       d="m 980.994,805.639 c 3.802,-2.467 7.637,-4.897 11.475,-7.314 0.05,2.281 1.381,4.202 3.339,5.302 -3.848,2.34 -7.582,4.852 -11.407,7.219 -2.83,2.08 -6.451,-3.494 -3.407,-5.207 z"
       id="path19021"
       inkscape:connector-curvature="0"
       style="fill:#f9ab35;stroke:#f9ab35;stroke-width:0.5" /><path
       d="m 1022.666,811.468 c 1.944,0.041 4.152,1.486 4.461,3.512 -1.913,0.136 -3.58,-1.213 -4.634,-2.676 0.046,-0.209 0.132,-0.627 0.173,-0.836 z"
       id="path19023"
       inkscape:connector-curvature="0"
       style="fill:#f3ab45;stroke:#f3ab45;stroke-width:0.5" /><path
       d="m 971.758,813.689 c 1.208,-0.768 2.576,-1.54 4.07,-1.377 -0.032,0.3 -0.095,0.909 -0.127,1.208 -1.213,0.995 -2.717,1.776 -4.302,1.844 -0.386,-0.576 -0.29,-1.357 0.359,-1.675 z"
       id="path19025"
       inkscape:connector-curvature="0"
       style="fill:#f1ad41;stroke:#f1ad41;stroke-width:0.5" /><path
       d="m 1012.281,821.026 c 0.277,0.036 0.827,0.109 1.099,0.145 1.108,1.208 2.017,2.876 1.817,4.579 -0.263,0.009 -0.79,0.032 -1.054,0.045 -1.094,-1.335 -2.048,-2.988 -1.862,-4.769 z"
       id="path19027"
       inkscape:connector-curvature="0"
       style="fill:#f3ac47;stroke:#f3ac47;stroke-width:0.5" /><path
       d="m 981.871,826.782 c 0.263,-1.867 1.526,-3.925 3.444,-4.411 0.468,1.585 -0.75,2.953 -1.713,4.07 -0.418,0.591 -1.141,0.69 -1.731,0.341 z"
       id="path19029"
       inkscape:connector-curvature="0"
       style="fill:#f2ab44;stroke:#f2ab44;stroke-width:0.5" /><path
       d="m 996.953,822.943 c 1.236,-0.827 3.33,0.041 3.275,1.635 0.073,2.521 0.132,5.061 -0.041,7.582 -0.391,2.022 -3.748,2.049 -4.207,0.073 -0.304,-2.094 -0.118,-4.22 -0.154,-6.319 -0.009,-1.072 -0.013,-2.449 1.127,-2.971 z"
       id="path19031"
       inkscape:connector-curvature="0"
       style="fill:#a55243;stroke:#a55243;stroke-width:0.5" /><path
       sodipodi:nodetypes="ccccccccccccccccccccccccccccccccccccccccccccccccccccccc"
       d="m 736.174,851.032 c 2.739,-0.79 5.633,-0.35 8.45,-0.422 5.302,0.014 10.608,-0.023 15.914,-0.005 2.708,0.145 5.429,0.209 8.145,0.077 0.454,-0.027 0.922,-0.055 1.399,-0.064 4.225,0.373 8.463,0.164 12.702,0.214 8.177,-0.005 16.354,-0.009 24.532,0 3.434,0.027 6.892,-0.195 10.312,0.273 2.299,0.345 4.616,0.641 6.951,0.441 19.684,-0.018 39.373,-0.018 59.057,0 2.331,0.2 4.656,-0.095 6.964,-0.445 2.957,-0.413 5.951,-0.295 8.936,-0.273 7.264,-0.009 14.533,0 21.806,-0.005 4.738,-0.082 9.485,0.214 14.219,-0.223 7.064,0.354 14.142,0.077 21.215,0.177 3.643,-0.041 8.1845,0.0263 13.00788,0.42612 3.016,1.236 4.29112,1.13188 6.93012,-0.65812 8.495,0.168 16.995,0.05 25.49,0.086 4.852,-0.041 9.704,0.109 14.555,-0.145 1.808,1.476 3.4447,0.62587 5.9567,0.39387 2.48,0.182 4.8603,1.01413 6.7043,-0.39887 5.915,0.263 11.834,0.064 17.758,0.123 14.083,-0.018 28.166,0.023 42.249,0.027 4.656,0.114 9.336,-0.277 13.983,0.241 -0.123,21.147 -0.032,42.303 -0.046,63.455 -0.272,7.782 -0.054,15.577 -0.123,23.368 -0.136,4.225 0.268,8.477 -0.173,12.688 -2.571,0.318 -5.165,0.095 -7.737,0.136 -4.229,-0.082 -8.468,0.2 -12.684,-0.195 -3.248,-0.441 -6.533,-0.427 -9.781,-0.045 -8.422,0.463 -16.872,0.041 -25.304,0.227 -51.462,0.032 -102.928,0.005 -154.39,0.014 -33.14,-0.027 -66.281,0.055 -99.416,-0.041 -11.662,-0.132 -23.328,-0.123 -34.985,0.005 -6.083,0.096 -12.161,-0.018 -18.24,0.064 -1.486,0 -2.971,0.054 -4.429,-0.173 -0.282,-11.975 -0.018,-23.977 -0.118,-35.961 0.005,-1.308 0,-2.608 -0.009,-3.898 0.05,-17.136 0.009,-34.276 0.018,-51.412 0.036,-2.689 -0.241,-5.406 0.181,-8.072 m 34.517,21.819 c -0.132,17.49 -0.014,35.003 -0.055,52.497 l 0.409,0.009 c -0.204,2.112 -0.336,4.243 -0.227,6.369 2.008,0.223 4.039,0.082 6.06,0.109 h 283.93 c 4.938,-0.114 9.899,0.223 14.823,-0.159 0.182,-6.773 0.01,-13.556 0.073,-20.329 -0.05,-12.834 0.086,-25.672 -0.064,-38.496 -1.163,-0.214 -2.344,-0.245 -3.503,-0.218 -0.763,0.068 -1.731,-0.127 -2.167,0.668 l -0.05,-0.441 c -3.175,-0.441 -6.383,-0.091 -9.567,-0.191 H 777.332 c -2.216,0.014 -4.447,-0.182 -6.641,0.182 z"
       id="path19043"
       inkscape:connector-curvature="0"
       style="fill:#376b80;stroke:#376b80;stroke-width:0.5" /><path
       d="m 1017.255,841.155 c 1.667,-1.031 3.389,-2.012 5.22,-2.739 2.644,0.727 5.597,1.735 7.023,4.284 1.404,2.39 0.659,5.292 -0.077,7.782 -1.844,1.413 -3.839,3.085 -6.319,2.903 -2.512,0.232 -4.534,-1.422 -6.342,-2.898 -0.554,-1.858 -1.476,-3.871 -0.736,-5.792 0.118,-1.273 0.754,-2.386 1.231,-3.54 z"
       id="path19035"
       inkscape:connector-curvature="0"
       style="fill:#a75142;stroke:#a75142;stroke-width:0.5" /><path
       d="m 971.858,837.362 c 2.044,1.081 4.034,2.281 6.092,3.353 -0.763,0.872 -0.055,2.035 0.054,3.021 0.722,2.358 -0.577,4.625 -1.29,6.81 -2.639,1.79 -6.033,2.471 -9.049,1.236 -1.554,-1.14 -3.039,-2.544 -3.634,-4.425 -0.65,-2.231 -0.318,-4.797 1.172,-6.628 1.554,-2.122 4.261,-2.722 6.655,-3.367 z"
       id="path19033"
       inkscape:connector-curvature="0"
       style="fill:#a75142;stroke:#a75142;stroke-width:0.5" /><path
       d="m 817.655,850.618 c 13.206,0.168 26.421,0.027 39.632,0.073 11.103,-0.05 22.206,0.104 33.308,-0.073 l 0.005,0.482 c -4.888,-0.354 -9.794,-0.1 -14.687,-0.168 -13.783,-0.05 -27.562,-0.009 -41.34,-0.023 -5.651,0.082 -11.307,-0.209 -16.945,0.195 z"
       id="path19045"
       inkscape:connector-curvature="0"
       style="fill:#448490;stroke:#448490;stroke-width:0.5" /><path
       d="m 817.628,851.104 c 5.638,-0.404 11.294,-0.114 16.945,-0.195 13.779,0.014 27.557,-0.027 41.34,0.023 4.893,0.068 9.799,-0.186 14.687,0.168 -2.308,0.35 -4.634,0.645 -6.964,0.445 -19.684,-0.018 -39.373,-0.018 -59.057,0 -2.336,0.2 -4.652,-0.095 -6.951,-0.441 z"
       id="path19047"
       inkscape:connector-curvature="0"
       style="fill:#4d6569;stroke:#4d6569;stroke-width:0.5" /><path
       d="m 770.691,872.851 c 2.194,-0.363 4.425,-0.168 6.642,-0.182 94.342,0 188.679,0 283.021,0 3.185,0.1 6.392,-0.25 9.567,0.191 l 0.05,0.441 c 0.241,15.859 -0.01,31.723 0.127,47.582 -0.023,1.449 0.059,2.93 -0.245,4.37 -5.124,0.286 -10.276,-0.005 -15.405,0.1 -94.469,0.005 -188.938,-0.009 -283.403,0.005 l -0.409,-0.009 c 0.041,-17.495 -0.077,-35.008 0.055,-52.498 m 124.184,18.83 c -4.607,2.698 -5.338,9.79 -1.681,13.561 l 0.263,-0.023 c 1.763,2.253 4.661,3.171 7.45,3.094 14.378,-0.018 28.765,0.05 43.148,-0.032 4.893,0.15 9.376,-4.279 9.122,-9.199 0.136,-4.002 -2.785,-7.777 -6.651,-8.741 l -0.118,-0.195 c -1.54,-0.241 -3.094,-0.064 -4.625,-0.073 -12.875,-0.023 -25.745,0.023 -38.614,-0.023 -2.829,-0.081 -5.873,-0.054 -8.294,1.631 z"
       id="path19051"
       inkscape:connector-curvature="0"
       style="fill:#448490;stroke:#448490;stroke-width:0.5" /><path
       d="m 1069.971,873.301 c 0.436,-0.795 1.404,-0.6 2.167,-0.668 1.158,-0.027 2.34,0.005 3.503,0.218 0.15,12.825 0.014,25.663 0.064,38.496 -0.064,6.773 0.109,13.556 -0.073,20.329 -4.924,0.382 -9.885,0.045 -14.823,0.159 -94.642,0 -189.288,0 -283.93,0 -2.022,-0.027 -4.052,0.114 -6.06,-0.109 -0.109,-2.126 0.023,-4.257 0.227,-6.369 94.464,-0.014 188.934,0 283.403,-0.005 5.129,-0.104 10.281,0.186 15.405,-0.1 0.304,-1.44 0.223,-2.921 0.245,-4.37 -0.137,-15.858 0.113,-31.722 -0.128,-47.581 z"
       id="path19053"
       inkscape:connector-curvature="0"
       style="fill:#1b4257;stroke:#1b4257;stroke-width:0.5" /><path
       d="m 894.875,891.681 c 2.421,-1.685 5.465,-1.713 8.295,-1.631 12.87,0.045 25.74,0 38.614,0.023 1.531,0.009 3.085,-0.168 4.625,0.073 l 0.118,0.195 c 0.731,1.635 1.154,3.384 1.576,5.124 0.205,3.957 -2.349,8.023 -6.228,9.145 -2.549,0.686 -5.215,0.427 -7.814,0.45 -11.961,-0.032 -23.923,0.027 -35.884,-0.027 -1.576,0.059 -3.153,0.059 -4.72,0.186 l -0.263,0.023 c -3.657,-3.771 -2.926,-10.862 1.681,-13.561 z"
       id="path19057"
       inkscape:connector-curvature="0"
       style="fill:#376b80;stroke:#376b80;stroke-width:0.5" /><path
       d="m 948.104,895.465 c -0.422,-1.74 -0.845,-3.489 -1.576,-5.124 3.866,0.963 6.787,4.738 6.651,8.741 0.254,4.92 -4.229,9.349 -9.122,9.199 -14.383,0.082 -28.77,0.014 -43.148,0.032 -2.789,0.077 -5.688,-0.84 -7.45,-3.094 1.567,-0.127 3.144,-0.127 4.72,-0.186 11.961,0.055 23.923,-0.005 35.884,0.027 2.599,-0.023 5.265,0.236 7.814,-0.45 3.878,-1.122 6.431,-5.188 6.227,-9.145 z"
       id="path19059"
       inkscape:connector-curvature="0"
       style="fill:#1b4357;stroke:#1b4357;stroke-width:0.5" /><path
       d="m 1072.869,950.28 c 3.248,-0.382 6.533,-0.395 9.781,0.045 -0.264,3.048 -0.155,6.115 -0.159,9.177 0,33.617 0,67.234 0,100.852 -0.082,11.625 0.173,23.255 -0.141,34.871 -3.975,0.527 -8.005,0.086 -11.998,0.227 -7.573,-0.091 -15.16,0.173 -22.719,-0.118 -0.227,-1.813 -0.168,-3.639 -0.127,-5.447 5.329,-0.531 10.685,-0.218 16.032,-0.313 2.989,-0.064 6.024,0.291 8.99,-0.223 0.422,-2.376 0.186,-4.802 0.214,-7.191 -0.01,-36.497 0,-72.99 -0.01,-109.483 0.074,-7.465 -0.158,-14.938 0.137,-22.397 z"
       id="path19069"
       inkscape:connector-curvature="0"
       style="fill:#103140;stroke:#103140;stroke-width:0.5" /><path
       d="m 758.775,950.484 c 11.657,-0.127 23.323,-0.136 34.985,-0.005 0.009,0.731 0.027,1.476 0.05,2.235 -3.125,0.154 -6.278,-0.214 -9.372,0.263 -0.422,2.294 -0.2,4.652 -0.214,6.978 0.027,41.186 -0.018,82.376 0.018,123.566 0.032,2.04 0.132,4.116 -0.309,6.137 -2.321,0.473 -4.706,0.286 -7.055,0.273 -6.028,-0.055 -12.057,0.073 -18.085,-0.068 0.036,-2.858 0.041,-5.71 0.014,-8.563 0.014,-1.953 0.032,-3.902 0,-5.851 0.027,-6.546 0.032,-13.093 0,-19.634 0.004,-35.112 0.072,-70.224 -0.032,-105.331 z"
       id="path19071"
       inkscape:connector-curvature="0"
       style="fill:#1c4257;stroke:#1c4257;stroke-width:0.5" /><path
       d="m 1047.565,950.507 c 8.431,-0.186 16.881,0.236 25.304,-0.227 -0.295,7.459 -0.064,14.932 -0.136,22.396 0.01,36.493 0,72.986 0.01,109.483 -0.027,2.39 0.209,4.816 -0.214,7.191 -2.967,0.513 -6.001,0.159 -8.99,0.223 -5.347,0.095 -10.703,-0.218 -16.032,0.313 0.063,-46.459 -0.064,-92.919 0.063,-139.379 z"
       id="path19073"
       inkscape:connector-curvature="0"
       style="fill:#1c4257;stroke:#1c4257;stroke-width:0.5" /><path
       d="m 784.438,952.978 c 3.094,-0.477 6.246,-0.109 9.372,-0.263 0.141,16.341 0.018,32.686 0.059,49.031 0,26.049 0.005,52.093 -0.014,78.142 -0.014,5.138 0.204,10.294 -0.209,15.423 -4.066,0.264 -8.15,0.014 -12.225,0.1 -7.509,-0.073 -15.028,0.141 -22.533,-0.114 -0.177,-1.813 -0.141,-3.63 -0.095,-5.433 6.028,0.141 12.057,0.014 18.085,0.068 2.349,0.014 4.734,0.2 7.055,-0.273 0.441,-2.021 0.341,-4.098 0.309,-6.137 -0.036,-41.19 0.009,-82.381 -0.018,-123.566 0.014,-2.326 -0.209,-4.684 0.214,-6.978 z"
       id="path19075"
       inkscape:connector-curvature="0"
       style="fill:#103140;stroke:#103140;stroke-width:0.5" /></g><g
     id="g19785"
     transform="matrix(0.125,0,0,-0.125,997.0246,858.45305)"
     style="fill:#3c3c3c;fill-opacity:1;stroke:none"><g
       id="g19871"
       transform="matrix(0.55443227,0,0,0.58377148,-13075.387,-2590.2953)" /></g></svg>
