<?xml version="1.0" encoding="UTF-8" standalone="no"?>
<!-- Created with Inkscape (http://www.inkscape.org/) -->

<svg
   width="88mm"
   height="125mm"
   id="svg5495"
   version="1.1"
   inkscape:version="1.2.2 (732a01da63, 2022-12-09)"
   sodipodi:docname="notebook.svg"
   xmlns:inkscape="http://www.inkscape.org/namespaces/inkscape"
   xmlns:sodipodi="http://sodipodi.sourceforge.net/DTD/sodipodi-0.dtd"
   xmlns:xlink="http://www.w3.org/1999/xlink"
   xmlns="http://www.w3.org/2000/svg"
   xmlns:svg="http://www.w3.org/2000/svg"
   xmlns:rdf="http://www.w3.org/1999/02/22-rdf-syntax-ns#"
   xmlns:cc="http://creativecommons.org/ns#"
   xmlns:dc="http://purl.org/dc/elements/1.1/">
  <defs
     id="defs5497">
    <inkscape:perspective
       sodipodi:type="inkscape:persp3d"
       inkscape:vp_x="0 : -382.05905 : 1"
       inkscape:vp_y="0 : 1000 : 0"
       inkscape:vp_z="1 : -382.05905 : 1"
       inkscape:persp3d-origin="0.5 : -382.22572 : 1"
       id="perspective8110" />
    <inkscape:perspective
       id="perspective8160"
       inkscape:persp3d-origin="372.04724 : -31.771666 : 1"
       inkscape:vp_z="744.09448 : 143.62204 : 1"
       inkscape:vp_y="0 : 1000 : 0"
       inkscape:vp_x="0 : 143.62204 : 1"
       sodipodi:type="inkscape:persp3d" />
  </defs>
  <sodipodi:namedview
     id="base"
     pagecolor="#ffffff"
     bordercolor="#666666"
     borderopacity="1.0"
     inkscape:pageopacity="0.0"
     inkscape:pageshadow="2"
     inkscape:zoom="0.67719298"
     inkscape:cx="339.63731"
     inkscape:cy="445.22021"
     inkscape:document-units="px"
     inkscape:current-layer="layer1"
     showgrid="false"
     inkscape:window-width="1270"
     inkscape:window-height="797"
     inkscape:window-x="175"
     inkscape:window-y="23"
     inkscape:window-maximized="0"
     inkscape:showpageshadow="0"
     inkscape:pagecheckerboard="0"
     inkscape:deskcolor="#d1d1d1" />
  <metadata
     id="metadata5500">
    <rdf:RDF>
      <cc:Work
         rdf:about="">
        <dc:format>image/svg+xml</dc:format>
        <dc:type
           rdf:resource="http://purl.org/dc/dcmitype/StillImage" />
      </cc:Work>
    </rdf:RDF>
  </metadata>
  <g
     inkscape:label="Layer 1"
     inkscape:groupmode="layer"
     id="layer1"
     transform="translate(0,-197.36218)">
    <path
       inkscape:connector-curvature="0"
       id="path8098"
       d="m 24.270806,224.37073 v 20.40305 365.70199 20.40295 h 20.403208 228.715866 37.90935 c 11.29998,0 20.36115,-9.10296 20.36115,-20.40295 V 244.77378 c 0,-11.30001 -9.06117,-20.40305 -20.36115,-20.40305 H 273.38988 44.674014 Z"
       style="fill:#ffffff;stroke:#030000;stroke-width:1.47297;stroke-miterlimit:4;stroke-dasharray:none;stroke-opacity:1" />
    <path
       style="fill:none;stroke:#030000;stroke-width:0.49099;stroke-miterlimit:4;stroke-dasharray:none;stroke-opacity:1"
       d="m 23.174279,226.55576 v 20.40306 365.70201 20.40295 H 43.577487 272.29336 310.2027 c 11.29998,0 20.36115,-9.10296 20.36115,-20.40295 V 246.95882 c 0,-11.30001 -9.06117,-20.40306 -20.36115,-20.40306 H 272.29336 43.577487 Z"
       id="path6790"
       inkscape:connector-curvature="0" />
    <path
       inkscape:connector-curvature="0"
       id="path6792"
       d="m 22.046867,227.54223 v 20.40305 365.70205 20.40294 h 20.403208 228.715865 37.90935 c 11.29998,0 20.36115,-9.10296 20.36115,-20.40294 V 247.94528 c 0,-11.30001 -9.06117,-20.40305 -20.36115,-20.40305 H 271.16594 42.450075 Z"
       style="fill:none;stroke:#030000;stroke-width:0.49099;stroke-miterlimit:4;stroke-dasharray:none;stroke-opacity:1" />
    <path
       style="fill:none;stroke:#030000;stroke-width:0.49099;stroke-miterlimit:4;stroke-dasharray:none;stroke-opacity:1"
       d="m 20.919451,228.52874 v 20.40306 365.70197 20.40295 h 20.403208 228.715871 37.90934 c 11.29998,0 20.36115,-9.10296 20.36115,-20.40295 V 248.9318 c 0,-11.30002 -9.06117,-20.40306 -20.36115,-20.40306 H 270.03853 41.322659 Z"
       id="path6794"
       inkscape:connector-curvature="0" />
    <path
       inkscape:connector-curvature="0"
       id="path6796"
       d="m 19.792039,229.51521 v 20.40305 365.70201 20.40295 h 20.403208 228.715873 37.90934 c 11.29998,0 20.36115,-9.10296 20.36115,-20.40295 V 249.91826 c 0,-11.30001 -9.06117,-20.40305 -20.36115,-20.40305 H 268.91112 40.195247 Z"
       style="fill:none;stroke:#030000;stroke-width:0.49099;stroke-miterlimit:4;stroke-dasharray:none;stroke-opacity:1" />
    <path
       inkscape:connector-curvature="0"
       style="fill:#008000;stroke:#030000;stroke-width:1.47297;stroke-linejoin:round;stroke-miterlimit:4;stroke-dasharray:none;stroke-opacity:1"
       d="m 16.986161,231.6554 v 20.40307 365.70207 20.40296 h 20.403197 228.715882 37.90934 c 11.29997,0 20.36115,-9.10296 20.36115,-20.40296 V 252.05847 c 0,-11.30002 -9.06118,-20.40307 -20.36115,-20.40307 H 266.10524 37.389358 Z"
       id="rect8093" />
    <g
       id="g6838"
       transform="matrix(0.49099025,0,0,0.49099025,0.10259752,124.63379)">
      <path
         inkscape:tile-y0="286.73838"
         inkscape:tile-x0="-206.34837"
         inkscape:tile-h="21.988252"
         inkscape:tile-w="40.20004"
         inkscape:tile-cy="297.7325"
         inkscape:tile-cx="-186.24835"
         inkscape:connector-curvature="0"
         id="path5919"
         d="m 32.230399,255.94187 c -16.179112,0 -29.287066,7.10413 -29.287066,15.86483 0,8.76069 13.107954,15.86482 29.287066,15.86482 14.178255,0 26.013811,-5.45316 28.72307,-12.69835 h -6.025242 c -2.601997,5.4757 -11.776911,9.53188 -22.697828,9.53188 -12.943289,0 -23.426894,-5.68979 -23.426894,-12.69835 0,-7.00857 10.483605,-12.68211 23.426894,-12.68211 0.09293,0 0.182414,-5.2e-4 0.275129,0 v -3.18272 c -0.0925,-4.6e-4 -0.182356,0 -0.275129,0 z"
         style="fill:#000000;fill-opacity:1;stroke:#000000;stroke-width:5.48354;stroke-linecap:round;stroke-miterlimit:4;stroke-dasharray:none;stroke-opacity:1" />
      <use
         height="1052.3622"
         width="744.09448"
         transform="translate(0,25.137498)"
         id="use6435"
         xlink:href="#path5919"
         inkscape:tiled-clone-of="#path5919"
         y="0"
         x="0" />
      <use
         height="1052.3622"
         width="744.09448"
         id="use6437"
         transform="translate(0,50.275044)"
         xlink:href="#path5919"
         inkscape:tiled-clone-of="#path5919"
         y="0"
         x="0" />
      <use
         height="1052.3622"
         width="744.09448"
         id="use6439"
         transform="translate(0,75.41259)"
         xlink:href="#path5919"
         inkscape:tiled-clone-of="#path5919"
         y="0"
         x="0" />
      <use
         height="1052.3622"
         width="744.09448"
         id="use6441"
         transform="translate(0,100.55014)"
         xlink:href="#path5919"
         inkscape:tiled-clone-of="#path5919"
         y="0"
         x="0" />
      <use
         height="1052.3622"
         width="744.09448"
         id="use6443"
         transform="translate(0,125.68768)"
         xlink:href="#path5919"
         inkscape:tiled-clone-of="#path5919"
         y="0"
         x="0" />
      <use
         height="1052.3622"
         width="744.09448"
         id="use6445"
         transform="translate(0,150.82524)"
         xlink:href="#path5919"
         inkscape:tiled-clone-of="#path5919"
         y="0"
         x="0" />
      <use
         height="1052.3622"
         width="744.09448"
         id="use6447"
         transform="translate(0,175.96276)"
         xlink:href="#path5919"
         inkscape:tiled-clone-of="#path5919"
         y="0"
         x="0" />
      <use
         height="1052.3622"
         width="744.09448"
         id="use6449"
         transform="translate(0,201.10032)"
         xlink:href="#path5919"
         inkscape:tiled-clone-of="#path5919"
         y="0"
         x="0" />
      <use
         height="1052.3622"
         width="744.09448"
         id="use6451"
         transform="translate(0,226.23787)"
         xlink:href="#path5919"
         inkscape:tiled-clone-of="#path5919"
         y="0"
         x="0" />
      <use
         height="1052.3622"
         width="744.09448"
         id="use6453"
         transform="translate(0,251.3754)"
         xlink:href="#path5919"
         inkscape:tiled-clone-of="#path5919"
         y="0"
         x="0" />
      <use
         height="1052.3622"
         width="744.09448"
         id="use6455"
         transform="translate(0,276.51294)"
         xlink:href="#path5919"
         inkscape:tiled-clone-of="#path5919"
         y="0"
         x="0" />
      <use
         height="1052.3622"
         width="744.09448"
         id="use6457"
         transform="translate(0,301.65047)"
         xlink:href="#path5919"
         inkscape:tiled-clone-of="#path5919"
         y="0"
         x="0" />
      <use
         height="1052.3622"
         width="744.09448"
         id="use6459"
         transform="translate(0,326.788)"
         xlink:href="#path5919"
         inkscape:tiled-clone-of="#path5919"
         y="0"
         x="0" />
      <use
         height="1052.3622"
         width="744.09448"
         id="use6461"
         transform="translate(0,351.92555)"
         xlink:href="#path5919"
         inkscape:tiled-clone-of="#path5919"
         y="0"
         x="0" />
      <use
         height="1052.3622"
         width="744.09448"
         id="use6463"
         transform="translate(0,377.06308)"
         xlink:href="#path5919"
         inkscape:tiled-clone-of="#path5919"
         y="0"
         x="0" />
      <use
         height="1052.3622"
         width="744.09448"
         id="use6465"
         transform="translate(0,402.20068)"
         xlink:href="#path5919"
         inkscape:tiled-clone-of="#path5919"
         y="0"
         x="0" />
      <use
         height="1052.3622"
         width="744.09448"
         id="use6467"
         transform="translate(0,427.33819)"
         xlink:href="#path5919"
         inkscape:tiled-clone-of="#path5919"
         y="0"
         x="0" />
      <use
         height="1052.3622"
         width="744.09448"
         id="use6469"
         transform="translate(0,452.47576)"
         xlink:href="#path5919"
         inkscape:tiled-clone-of="#path5919"
         y="0"
         x="0" />
      <use
         height="1052.3622"
         width="744.09448"
         id="use6471"
         transform="translate(0,477.61328)"
         xlink:href="#path5919"
         inkscape:tiled-clone-of="#path5919"
         y="0"
         x="0" />
      <use
         height="1052.3622"
         width="744.09448"
         id="use6473"
         transform="translate(0,502.75086)"
         xlink:href="#path5919"
         inkscape:tiled-clone-of="#path5919"
         y="0"
         x="0" />
      <use
         height="1052.3622"
         width="744.09448"
         id="use6475"
         transform="translate(0,527.88836)"
         xlink:href="#path5919"
         inkscape:tiled-clone-of="#path5919"
         y="0"
         x="0" />
      <use
         height="1052.3622"
         width="744.09448"
         id="use6477"
         transform="translate(0,553.02593)"
         xlink:href="#path5919"
         inkscape:tiled-clone-of="#path5919"
         y="0"
         x="0" />
      <use
         height="1052.3622"
         width="744.09448"
         id="use6479"
         transform="translate(0,578.16346)"
         xlink:href="#path5919"
         inkscape:tiled-clone-of="#path5919"
         y="0"
         x="0" />
      <use
         height="1052.3622"
         width="744.09448"
         id="use6481"
         transform="translate(0,628.43854)"
         xlink:href="#path5919"
         inkscape:tiled-clone-of="#path5919"
         y="0"
         x="0" />
      <use
         height="1052.3622"
         width="744.09448"
         id="use6483"
         transform="translate(0,653.57613)"
         xlink:href="#path5919"
         inkscape:tiled-clone-of="#path5919"
         y="0"
         x="0" />
      <use
         height="1052.3622"
         width="744.09448"
         id="use6485"
         transform="translate(0,603.30104)"
         xlink:href="#path5919"
         inkscape:tiled-clone-of="#path5919"
         y="0"
         x="0" />
      <use
         height="1052.3622"
         width="744.09448"
         id="use6487"
         transform="translate(0,678.71361)"
         xlink:href="#path5919"
         inkscape:tiled-clone-of="#path5919"
         y="0"
         x="0" />
      <use
         height="1052.3622"
         width="744.09448"
         id="use6489"
         transform="translate(0,703.8512)"
         xlink:href="#path5919"
         inkscape:tiled-clone-of="#path5919"
         y="0"
         x="0" />
      <use
         height="1052.3622"
         width="744.09448"
         id="use6491"
         transform="translate(0,728.98872)"
         xlink:href="#path5919"
         inkscape:tiled-clone-of="#path5919"
         y="0"
         x="0" />
      <use
         height="1052.3622"
         width="744.09448"
         id="use6493"
         transform="translate(0,754.12628)"
         xlink:href="#path5919"
         inkscape:tiled-clone-of="#path5919"
         y="0"
         x="0" />
      <path
         style="fill:#000000;fill-opacity:1;stroke:#000000;stroke-width:5.48354;stroke-linecap:round;stroke-miterlimit:4;stroke-dasharray:none;stroke-opacity:1"
         d="m 32.230399,230.80433 c -16.179112,0 -29.287066,7.10412 -29.287066,15.86483 0,8.76069 13.107954,15.86482 29.287066,15.86482 14.178255,0 26.013811,-5.45317 28.72307,-12.69835 h -6.025242 c -2.601997,5.4757 -11.776911,9.53188 -22.697828,9.53188 -12.943289,0 -23.426894,-5.6898 -23.426894,-12.69835 0,-7.00857 10.483605,-12.68211 23.426894,-12.68211 0.09293,0 0.182414,-5.2e-4 0.275129,0 v -3.18272 c -0.0925,-4.7e-4 -0.182356,0 -0.275129,0 z"
         id="path6559"
         inkscape:connector-curvature="0"
         inkscape:tile-cx="-186.24835"
         inkscape:tile-cy="297.7325"
         inkscape:tile-w="40.20004"
         inkscape:tile-h="21.988252"
         inkscape:tile-x0="-206.34837"
         inkscape:tile-y0="286.73838" />
      <path
         sodipodi:nodetypes="csssccssssscccssc"
         inkscape:tile-y0="286.73838"
         inkscape:tile-x0="-206.34837"
         inkscape:tile-h="21.988252"
         inkscape:tile-w="40.20004"
         inkscape:tile-cy="297.7325"
         inkscape:tile-cx="-186.24835"
         inkscape:connector-curvature="0"
         id="path6561"
         d="m 40.25833,212.80266 c 2.695448,-1.41907 -5.822394,-8.80623 -15.825005,-7.36434 -10.002611,1.44191 -21.489992,11.71289 -21.489992,16.09324 0,8.76069 13.107954,15.86482 29.287066,15.86482 14.178255,0 26.013811,-5.45317 28.72307,-12.69835 h -6.025242 c -2.601997,5.4757 -11.776911,9.53188 -22.697828,9.53188 -12.943289,0 -23.426894,-5.68979 -23.426894,-12.69835 0,-3.50429 10.952923,-12.27004 17.198718,-12.78052 6.245795,-0.51047 7.784462,7.23434 14.256107,7.23434 0.04647,0 0.09207,-1.3e-4 0.137666,-1.9e-4 0.0456,-7e-5 0.0912,-7e-5 0.137521,1.9e-4 v -1.59135 -1.59137 c 0.07547,0.32413 -0.01443,0.33494 -0.111835,0.25931 -0.09784,-0.0756 -0.204378,-0.23769 -0.163323,-0.25931 z"
         style="fill:#000000;fill-opacity:1;stroke:#000000;stroke-width:5.48354;stroke-linecap:round;stroke-miterlimit:4;stroke-dasharray:none;stroke-opacity:1" />
    </g>
    <rect
       style="fill:#ffffff;fill-opacity:1;stroke:#030000;stroke-width:4.43326;stroke-linejoin:round;stroke-miterlimit:4;stroke-dasharray:none;stroke-opacity:1"
       id="rect8100"
       width="135.49524"
       height="77.217728"
       x="104.39536"
       y="336.57227"
       ry="20.397137" />
  </g>
</svg>
