<?xml version="1.0" encoding="UTF-8" standalone="no"?>
<!-- Created with Inkscape (http://www.inkscape.org/) -->

<svg
   width="88mm"
   height="125mm"
   viewBox="0 0 88 125"
   version="1.1"
   id="svg5"
   inkscape:version="1.2.2 (732a01da63, 2022-12-09)"
   xml:space="preserve"
   sodipodi:docname="oil.svg"
   xmlns:inkscape="http://www.inkscape.org/namespaces/inkscape"
   xmlns:sodipodi="http://sodipodi.sourceforge.net/DTD/sodipodi-0.dtd"
   xmlns="http://www.w3.org/2000/svg"
   xmlns:svg="http://www.w3.org/2000/svg"><sodipodi:namedview
     id="namedview7"
     pagecolor="#f0f0f0"
     bordercolor="#ffffff"
     borderopacity="1"
     inkscape:showpageshadow="0"
     inkscape:pageopacity="0"
     inkscape:pagecheckerboard="0"
     inkscape:deskcolor="#505050"
     inkscape:document-units="mm"
     showgrid="true"
     inkscape:zoom="1.0154442"
     inkscape:cx="360.92578"
     inkscape:cy="181.69388"
     inkscape:current-layer="layer1"><inkscape:grid
       type="xygrid"
       id="grid132"
       dotted="true"
       empspacing="10"
       units="mm"
       spacingx="1"
       spacingy="1"
       originx="-38.585948"
       originy="-145.0765" /></sodipodi:namedview><defs
     id="defs2" /><g
     inkscape:label="Layer 1"
     inkscape:groupmode="layer"
     id="layer1"
     transform="translate(-38.585945,-145.0765)"><g
       id="g296"
       transform="matrix(1.5023292,0.57919754,-0.57919754,1.5023292,71.077188,-97.257216)"><path
         style="display:inline;fill:#fef6d2;fill-opacity:1;stroke-width:0.0846667"
         d="m 98.040453,205.05298 c -0.235221,-0.0837 -0.540021,-0.21073 -0.677334,-0.28219 -0.137312,-0.0714 -3.587953,-2.79097 -7.668087,-6.04337 -4.080138,-3.25241 -13.395588,-10.67318 -20.701,-16.49062 -14.07434,-11.20766 -14.463785,-11.53562 -15.499607,-13.05265 -0.603604,-0.88402 -0.836567,-1.37859 -1.246115,-2.64544 -0.280106,-0.86645 -0.592879,-2.42966 -0.512244,-2.56013 0.08395,-0.13582 -0.363271,-1.41511 -0.599883,-1.716 -0.244138,-0.31046 -0.640067,-0.64948 -4.461706,-3.82044 -1.748367,-1.45069 -1.848532,-1.52005 -2.162347,-1.49739 -0.314741,0.0227 -0.447285,-0.0704 -3.046406,-2.14152 -2.996118,-2.38741 -3.003048,-2.39508 -2.810507,-3.11012 0.128323,-0.47656 0.348297,-0.90116 0.869398,-1.67816 1.385625,-2.06605 3.432317,-4.38106 4.248848,-4.80587 0.1397,-0.0727 0.408814,-0.13234 0.598032,-0.13258 0.322259,-4.2e-4 0.507128,0.12962 2.921,2.05443 1.417332,1.13017 2.662693,2.1483 2.767468,2.2625 0.118889,0.12958 0.1905,0.31502 0.1905,0.4933 0,0.26271 0.06634,0.33528 0.8255,0.90292 0.454025,0.33949 1.2446,0.94478 1.756833,1.34509 2.027318,1.58437 3.742702,2.84266 4.079812,2.99269 0.39781,0.17703 1.344447,0.22153 2.185521,0.10273 0.538769,-0.0761 1.754128,-0.084 2.667,-0.0173 0.514744,0.0376 1.666989,0.32892 2.243667,0.56725 0.1397,0.0577 0.27305,0.11136 0.296333,0.11917 0.533491,0.17881 0.899346,0.37602 1.820334,0.9812 0.600991,0.39491 34.223867,27.1026 41.920167,33.29848 0.44847,0.36104 0.98237,1.0383 1.23645,1.56845 0.21873,0.45641 0.20052,1.42582 -0.0372,1.98217 -0.12399,0.29012 -1.42372,1.98978 -3.83195,5.01103 -2.00439,2.5146 -3.82999,4.80937 -4.0569,5.09949 -0.97411,1.24551 -2.083774,1.65143 -3.315547,1.21287 z"
         id="path309" /><path
         style="display:inline;fill:#b0bf24;fill-opacity:1;stroke-width:0.0846667"
         d="m 98.002463,205.02265 c -0.256117,-0.095 -0.618067,-0.27314 -0.804334,-0.39592 -0.186266,-0.12277 -2.719916,-2.12311 -5.630333,-4.44518 -2.910417,-2.32208 -5.729817,-4.57101 -6.265333,-4.99763 -22.045884,-17.56271 -29.626982,-23.6263 -30.155052,-24.11892 -1.032071,-0.96278 -1.887075,-2.10069 -2.36255,-3.14429 -0.418834,-0.91928 -0.821592,-2.26936 -0.921537,-3.08909 -0.167147,-1.3709 -0.33074,-1.99044 -0.653584,-2.47521 -0.207859,-0.3121 -0.805997,-0.86472 -1.994581,-1.84279 -0.933728,-0.76835 -2.310596,-1.90296 -3.059705,-2.52135 -1.189682,-0.98208 -1.391099,-1.11796 -1.591871,-1.07386 -0.126421,0.0278 -0.313087,0.006 -0.414815,-0.0485 -0.254379,-0.13614 -5.165594,-4.03582 -5.349472,-4.24767 -0.196792,-0.22673 -0.191552,-0.79762 0.01206,-1.31419 0.538111,-1.3652 3.488518,-5.03365 4.738772,-5.89205 0.344,-0.23619 0.538884,-0.31161 0.804333,-0.31129 0.330179,4.2e-4 0.503735,0.12247 3.016924,2.12195 1.466626,1.16684 2.702755,2.18583 2.746955,2.26441 0.0442,0.0786 0.102173,0.27619 0.12883,0.43913 0.04385,0.26803 0.20955,0.41934 1.740379,1.58921 5.38234,4.11321 4.862228,3.78243 5.925245,3.76835 4.218042,-0.0559 4.134121,-0.0576 4.783667,0.10119 0.34925,0.0854 0.6731,0.18246 0.719666,0.21567 0.04657,0.0332 0.395908,0.16283 0.776312,0.28803 0.46127,0.15182 1.030296,0.44465 1.708367,0.87914 0.677908,0.43439 7.924252,6.15792 21.745021,17.17531 11.400565,9.0881 20.809223,16.61285 20.908123,16.72167 0.0989,0.10882 0.32751,0.4231 0.508,0.69839 0.30202,0.46064 0.3305,0.55541 0.3573,1.18873 0.0262,0.61904 0.004,0.73887 -0.21585,1.19279 -0.15542,0.32013 -1.72446,2.36176 -4.29192,5.58461 -2.22581,2.794 -4.10545,5.1181 -4.17698,5.16467 -0.0715,0.0466 -0.22972,0.16443 -0.35155,0.26192 -0.555288,0.4444 -1.584394,0.558 -2.380489,0.26277 z m 2.137837,-11.64949 c 1.15252,-1.44646 2.0955,-2.66456 2.0955,-2.70689 0,-0.0423 -1.95263,-1.63286 -4.339171,-3.53452 -2.386541,-1.90167 -6.404102,-5.10428 -8.927911,-7.11692 -2.523809,-2.01264 -4.570129,-3.61083 -4.547377,-3.55154 0.184945,0.48196 -0.833521,1.28942 -1.828212,1.44944 -0.404102,0.065 -0.612713,0.14853 -0.600253,0.24034 0.0577,0.42506 -0.01597,0.65517 -0.300979,0.94018 l -0.308566,0.30857 0.220581,0.23024 c 0.121319,0.12663 0.285892,0.43246 0.365717,0.67962 0.125169,0.38757 0.129797,0.49181 0.03364,0.75772 -0.06132,0.16959 -0.161226,0.35807 -0.222009,0.41885 -0.09091,0.0909 -0.06506,0.18364 0.14571,0.5227 0.226724,0.36472 0.243269,0.433 0.143692,0.59303 -0.164161,0.26383 -0.311113,0.19128 -0.670507,-0.33103 -0.176233,-0.25611 -0.360909,-0.47042 -0.410392,-0.47625 -0.04948,-0.006 -0.109018,-0.0201 -0.132301,-0.0317 -0.02328,-0.0116 -0.08043,-0.0307 -0.127,-0.0423 -0.04657,-0.0116 -0.103717,-0.0307 -0.127,-0.0423 -0.02328,-0.0116 -0.07091,-0.0292 -0.105834,-0.0391 -0.225059,-0.0634 -0.417587,-0.18291 -0.51655,-0.32055 -0.108021,-0.15025 -0.133923,-0.13847 -0.465667,0.21179 -0.417528,0.44084 -0.781071,0.50995 -1.297231,0.24663 -0.263829,-0.1346 -0.357266,-0.25114 -0.484073,-0.60378 -0.103041,-0.28655 -0.142642,-0.56559 -0.115029,-0.81056 l 0.04211,-0.37358 -0.306862,0.0369 c -0.168773,0.0203 -0.535461,0.0588 -0.814861,0.0856 -0.75348,0.0722 -1.376039,0.20882 -1.812711,0.39772 -0.213742,0.0925 -0.445773,0.18047 -0.515623,0.19557 -0.06985,0.0151 -0.193675,0.0539 -0.275166,0.0861 -0.352466,0.13959 -0.115047,-0.32652 0.539579,-1.05933 0.133973,-0.14998 0.243587,-0.30213 0.243587,-0.33812 0,-0.036 0.1143,-0.11279 0.254,-0.17066 0.1397,-0.0579 0.254,-0.14503 0.254,-0.19371 0,-0.0487 0.02359,-0.0649 0.05241,-0.0361 0.02883,0.0288 0.106741,-0.002 0.173143,-0.0683 0.293569,-0.29357 1.70894,-0.43214 2.250944,-0.22037 0.128059,0.05 0.232834,0.0583 0.232834,0.0183 0,-0.0598 -0.149715,-0.13344 -0.423334,-0.20824 -0.306049,-0.0837 -1.578688,-1.18931 -1.749791,-1.52018 l -0.129387,-0.25021 0.622089,0.0463 c 0.342149,0.0255 0.717339,0.0834 0.833756,0.12862 0.116417,0.0452 0.234386,0.0773 0.262154,0.0712 0.02777,-0.006 0.113492,0.0413 0.1905,0.10518 0.07701,0.0639 0.140013,0.0933 0.140013,0.0652 0,-0.028 0.123825,0.0233 0.275166,0.11414 0.151342,0.0908 0.389467,0.21749 0.529167,0.2815 0.1397,0.064 0.30629,0.17943 0.3702,0.25649 0.06391,0.0771 0.151574,0.14011 0.194809,0.14011 0.07432,0 -0.233496,-0.45469 -0.533224,-0.78766 -0.241962,-0.2688 -0.771444,-1.42631 -0.934807,-2.04361 -0.209705,-0.79241 -0.300223,-1.9475 -0.159433,-2.03451 0.166282,-0.10277 1.026319,0.85523 1.386945,1.54492 0.45264,0.86567 0.745029,1.74142 0.807443,2.41841 l 0.0534,0.57921 0.203455,-0.17705 c 0.184112,-0.16021 0.293462,-0.20783 0.439581,-0.19144 0.0277,0.003 0.139162,-0.15431 0.247686,-0.34981 0.108524,-0.1955 0.219565,-0.37451 0.246756,-0.39779 0.02719,-0.0233 0.151975,-0.20059 0.277295,-0.39402 0.12532,-0.19343 0.3556,-0.47918 0.511734,-0.635 0.156134,-0.15582 0.363223,-0.3877 0.460197,-0.51529 0.148099,-0.19485 0.192296,-0.21272 0.276154,-0.11168 0.05491,0.0662 0.120674,0.32295 0.146142,0.57064 0.03702,0.36005 0.0031,0.55645 -0.168916,0.97952 -0.118372,0.29104 -0.203639,0.52916 -0.189483,0.52916 0.01416,0 0.194035,-0.0941 0.399732,-0.20902 0.332205,-0.18568 0.596409,-0.24634 1.446636,-0.33217 0.128133,-0.0129 0.253036,-0.0436 0.277562,-0.0681 0.02453,-0.0245 -1.490009,-1.26708 -3.365636,-2.76122 -1.875625,-1.49414 -5.104012,-4.06602 -7.174191,-5.7153 -2.716469,-2.16416 -3.788858,-2.9724 -3.853419,-2.90426 -0.0492,0.0519 -0.298029,0.36112 -0.552951,0.68708 -0.254923,0.32597 -0.502084,0.63359 -0.549248,0.6836 -0.04716,0.05 -0.181002,0.21523 -0.297419,0.36715 -0.116417,0.15192 -0.250991,0.32055 -0.299054,0.37473 -0.04806,0.0542 -0.352245,0.44142 -0.67596,0.86052 -0.323715,0.4191 -0.627291,0.80456 -0.674613,0.85658 -0.194084,0.21332 -0.454839,0.53718 -1.014653,1.26018 -0.324469,0.41905 -0.629269,0.80283 -0.677333,0.85284 -0.04806,0.05 -0.182637,0.21523 -0.299054,0.36715 -0.116416,0.15192 -0.250255,0.32055 -0.297418,0.37473 -0.04716,0.0542 -0.285958,0.35242 -0.530653,0.66273 l -0.444901,0.56421 7.844586,6.25146 c 12.924895,10.30003 19.148697,15.26127 21.911447,17.46652 l 2.617394,2.08921 1.065606,-1.33223 c 0.586079,-0.73273 2.008581,-2.51571 3.161111,-3.96217 z m -8.689412,0.64398 c -0.195427,-0.1429 -0.123097,-0.43312 0.204978,-0.82239 0.137262,-0.16287 0.335526,-0.40277 0.44058,-0.53311 0.105063,-0.13033 0.229735,-0.28273 0.277055,-0.33866 0.04732,-0.0559 0.350901,-0.44459 0.674615,-0.86369 0.323715,-0.4191 0.627897,-0.80292 0.675962,-0.85294 0.04806,-0.05 0.182635,-0.21523 0.299051,-0.36714 0.116417,-0.15192 0.250258,-0.32055 0.297417,-0.37473 0.04717,-0.0542 0.294327,-0.36523 0.54925,-0.69119 0.254923,-0.32597 0.502082,-0.63843 0.54925,-0.69436 0.04716,-0.0559 0.171704,-0.20833 0.276766,-0.33867 0.105055,-0.13033 0.30447,-0.37032 0.443146,-0.53331 0.138675,-0.16298 0.252738,-0.32153 0.253483,-0.35234 0.0021,-0.0874 0.223825,-0.0332 0.373812,0.0913 0.163093,0.13535 0.173296,0.29415 0.02863,0.44554 -0.05881,0.0615 -0.315494,0.37858 -0.570416,0.70454 -0.254923,0.32597 -0.502082,0.63359 -0.54925,0.68361 -0.04716,0.05 -0.181,0.21522 -0.297417,0.36714 -0.116417,0.15192 -0.250258,0.32055 -0.297417,0.37473 -0.04717,0.0542 -0.294327,0.36522 -0.54925,0.69119 -0.254923,0.32597 -0.502082,0.637 -0.549249,0.69119 -0.04716,0.0542 -0.181001,0.22282 -0.297417,0.37473 -0.116417,0.15192 -0.250385,0.31713 -0.297705,0.36715 -0.04732,0.05 -0.351486,0.43383 -0.675911,0.85293 -0.684937,0.88481 -0.979907,1.22767 -1.0562,1.22767 -0.02996,0 -0.121658,-0.0491 -0.203759,-0.10915 z m -1.53377,-1.24516 c -0.148192,-0.16375 -0.120015,-0.41395 0.06913,-0.61369 0.08523,-0.09 0.805976,-0.98768 1.750881,-2.18067 0.675674,-0.85307 1.660712,-2.08651 1.735269,-2.17285 0.04679,-0.0542 0.167538,-0.20659 0.268343,-0.33867 0.100795,-0.13208 0.265599,-0.33502 0.366225,-0.45098 0.100635,-0.11596 0.321259,-0.39218 0.490296,-0.61383 0.169029,-0.22165 0.353932,-0.403 0.410888,-0.403 0.11143,0 0.369646,0.22764 0.369646,0.32587 0,0.0792 -0.233375,0.41728 -0.551417,0.7989 -0.04717,0.0566 -0.294327,0.36959 -0.54925,0.69556 -0.254923,0.32597 -0.502082,0.63359 -0.549249,0.6836 -0.04716,0.05 -0.181001,0.21523 -0.297417,0.36715 -0.116417,0.15191 -0.250995,0.32054 -0.299052,0.37473 -0.04806,0.0542 -0.352865,0.44138 -0.677333,0.86044 -0.566843,0.73207 -0.82892,1.05725 -1.015627,1.26018 -0.04786,0.052 -0.326373,0.40569 -0.618914,0.78596 -0.292548,0.38026 -0.583184,0.71107 -0.645862,0.73512 -0.06269,0.0241 -0.178131,-0.0272 -0.256557,-0.11382 z m -1.562695,-1.26296 c -0.07189,-0.13432 -0.004,-0.26783 0.398255,-0.78316 0.266704,-0.34168 0.549703,-0.69744 0.628887,-0.79057 0.258373,-0.3039 0.446881,-0.53614 0.662231,-0.81585 0.417669,-0.54252 1.56072,-1.979 1.607752,-2.02049 0.0264,-0.0233 0.312403,-0.38523 0.635567,-0.80433 0.323165,-0.4191 0.626898,-0.80288 0.674963,-0.85286 0.04806,-0.05 0.198874,-0.23077 0.335136,-0.40178 0.233308,-0.2928 0.25676,-0.30278 0.402167,-0.17119 0.204131,0.18473 0.195487,0.4636 -0.02214,0.71438 -0.09711,0.1119 -0.259038,0.31152 -0.359834,0.4436 -0.100804,0.13208 -0.221767,0.28448 -0.268808,0.33866 -0.04703,0.0542 -0.447082,0.55542 -0.889,1.11384 -0.441909,0.55842 -0.866038,1.09182 -0.942509,1.18533 -0.111955,0.1369 -1.279246,1.60288 -1.637725,2.05679 -0.04725,0.0598 -0.125383,0.15508 -0.173638,0.21167 -0.04825,0.0566 -0.195651,0.24577 -0.327549,0.42039 -0.267888,0.35467 -0.581161,0.42201 -0.723755,0.15557 z m -1.426504,-1.12514 c -0.0558,-0.0558 -0.101456,-0.15692 -0.101456,-0.2247 0,-0.10979 0.312195,-0.57919 0.547264,-0.82283 0.04825,-0.05 0.182986,-0.21523 0.299402,-0.36714 0.116417,-0.15192 0.250255,-0.32055 0.297419,-0.37473 0.04716,-0.0542 0.294535,-0.36523 0.549714,-0.69119 0.623824,-0.79688 0.602991,-0.77092 0.867642,-1.08129 0.128209,-0.15036 0.261966,-0.31148 0.297236,-0.35805 0.384708,-0.50791 1.261617,-1.62886 1.329605,-1.6996 0.04806,-0.05 0.182634,-0.21438 0.299051,-0.36526 0.559918,-0.72569 0.665243,-0.81792 0.822782,-0.72049 0.280323,0.17337 0.215926,0.41059 -0.286969,1.05699 -0.268588,0.34524 -0.527592,0.67203 -0.575573,0.72622 -0.04798,0.0542 -0.18249,0.22282 -0.298907,0.37473 -0.116416,0.15192 -0.250384,0.31713 -0.297705,0.36715 -0.04732,0.05 -0.350901,0.43383 -0.674615,0.85293 -0.323714,0.4191 -0.627896,0.80292 -0.675959,0.85294 -0.04806,0.05 -0.182637,0.21522 -0.299054,0.36714 -0.116417,0.15192 -0.250255,0.32055 -0.297419,0.37473 -0.06784,0.0779 -0.694843,0.87292 -1.079364,1.36852 -0.347461,0.44784 -0.541514,0.54551 -0.723094,0.36393 z m -1.53365,-1.19499 c -0.138143,-0.13814 -0.11079,-0.37266 0.0684,-0.58646 0.08811,-0.10513 0.477863,-0.59119 0.86611,-1.08014 0.388247,-0.48895 0.74478,-0.93334 0.792294,-0.98752 0.04751,-0.0542 0.18164,-0.22294 0.298056,-0.375 0.178649,-0.23335 0.729225,-0.92525 1.554512,-1.95353 0.09964,-0.12414 0.466905,-0.58593 0.816155,-1.02618 0.530056,-0.66818 0.662982,-0.79028 0.804333,-0.73882 0.231877,0.0844 0.2561,0.42977 0.04784,0.68205 -0.230945,0.27977 -0.224155,0.27113 -0.895342,1.13933 -0.323994,0.4191 -0.6278,0.80292 -0.675121,0.85293 -0.04732,0.05 -0.18129,0.21523 -0.297707,0.36715 -0.116417,0.15192 -0.250255,0.32055 -0.297419,0.37473 -0.04716,0.0542 -0.294325,0.36522 -0.549248,0.69119 -0.254923,0.32597 -0.502083,0.63359 -0.549248,0.6836 -0.04716,0.05 -0.181002,0.21523 -0.297418,0.36715 -0.116417,0.15191 -0.250256,0.32054 -0.297419,0.37473 -0.04717,0.0542 -0.284967,0.35117 -0.528451,0.65996 -0.446046,0.56568 -0.691304,0.72385 -0.860324,0.55483 z M 71.258003,177.393 c -0.313943,-0.13694 -1.849801,-1.34881 -2.253874,-1.77842 -0.338266,-0.35964 -0.444268,-0.54625 -0.50426,-0.8877 -0.04111,-0.23398 -0.0077,-0.3324 0.184708,-0.54459 0.202534,-0.22332 0.287362,-0.25661 0.615886,-0.24165 0.20955,0.01 0.40005,0.0258 0.423333,0.0362 0.02328,0.0104 0.06138,0.0178 0.08467,0.0165 0.02328,-10e-4 0.575733,0.42281 1.227666,0.94247 1.537947,1.22592 1.869152,1.80534 1.35124,2.36388 -0.247861,0.26731 -0.653662,0.30085 -1.129366,0.0933 z m 0.370793,-0.94224 c 0,-0.12405 -1.919597,-1.63771 -2.030222,-1.60088 -0.237562,0.0791 -0.05249,0.32558 0.678517,0.90374 0.441581,0.34925 0.888262,0.68203 0.992623,0.73951 0.211254,0.11636 0.359082,0.0989 0.359082,-0.0424 z m -0.861418,-2.37537 c -1.31198,-1.05606 -2.412095,-1.94707 -2.444702,-1.98003 -0.03261,-0.033 0.0384,-0.17601 0.157789,-0.3179 l 0.217073,-0.25797 0.638154,0.48723 c 2.445739,1.86733 4.271874,3.38016 4.277095,3.54328 0.0057,0.17775 -0.235571,0.46294 -0.381991,0.45155 -0.0429,-0.003 -1.151438,-0.87011 -2.463418,-1.92616 z m 1.411894,-0.39891 c -0.954538,-0.76634 -1.745063,-1.4221 -1.756723,-1.45726 -0.04361,-0.13151 0.391796,-0.54583 0.503161,-0.47879 0.34052,0.20497 3.384931,2.68336 3.425244,2.78841 0.05772,0.15041 -0.185518,0.54878 -0.332276,0.54421 -0.05713,-0.002 -0.884868,-0.63024 -1.839406,-1.39657 z m 2.646274,0.008 c -0.104455,-0.0578 -0.26638,-0.17425 -0.359833,-0.25882 -0.09345,-0.0846 -0.169917,-0.12623 -0.169917,-0.0926 0,0.0337 -0.110657,-0.0176 -0.245903,-0.11387 -0.135247,-0.0963 -0.281742,-0.1751 -0.325545,-0.1751 -0.0438,0 -0.148812,-0.0764 -0.233355,-0.16985 -0.08454,-0.0934 -0.171873,-0.1517 -0.194066,-0.12951 -0.02219,0.0222 -0.145783,-0.0347 -0.274644,-0.12648 -0.128862,-0.0918 -0.270132,-0.16683 -0.313935,-0.16683 -0.0438,0 -0.147232,-0.0747 -0.229844,-0.16597 -0.08261,-0.0913 -0.174242,-0.15979 -0.203623,-0.15222 -0.06393,0.0165 -1.048984,-0.52215 -1.162444,-0.63561 -0.05128,-0.0513 0.09839,-0.36789 0.252645,-0.53442 0.108895,-0.11756 0.468605,0.031 0.792881,0.32755 0.104775,0.0958 0.1905,0.14656 0.1905,0.11279 0,-0.0338 0.134387,0.0411 0.298638,0.16638 0.314122,0.23959 0.543511,0.20683 0.251695,-0.036 -0.09313,-0.0775 -0.373212,-0.35819 -0.622397,-0.62379 l -0.453064,-0.4829 0.183662,-0.25793 c 0.101015,-0.14186 0.21535,-0.25793 0.254079,-0.25793 0.03873,0 0.31236,0.25103 0.608068,0.55785 0.295708,0.30682 1.004286,1.04025 1.574617,1.62984 0.57033,0.58959 1.037008,1.11008 1.037063,1.15664 8.4e-5,0.0872 -0.374931,0.55685 -0.432879,0.54204 -0.01787,-0.005 -0.117945,-0.0556 -0.222399,-0.11335 z m 0.773623,-1.51548 c -0.134772,-0.0434 -0.293088,-0.11694 -0.351815,-0.16339 -0.05872,-0.0464 -0.220622,-0.1461 -0.359769,-0.22146 -0.139148,-0.0754 -0.632008,-0.47569 -1.095245,-0.88963 -1.090623,-0.97455 -1.320754,-1.46787 -0.908538,-1.9476 0.172057,-0.20024 0.24511,-0.2244 0.583666,-0.19306 0.212846,0.0197 0.438669,0.0662 0.501827,0.10329 0.307802,0.18084 1.511834,1.17674 1.511834,1.25049 0,0.0972 -0.424977,0.67871 -0.527379,0.72162 -0.06881,0.0288 0.169788,0.22718 0.486018,0.40402 0.257878,0.14421 0.524184,-0.0181 0.588016,-0.35832 0.02953,-0.15739 0.08053,-0.28606 0.113348,-0.28593 0.03281,8e-5 0.227142,0.14465 0.431838,0.32116 l 0.372175,0.32094 -0.109788,0.33266 c -0.208628,0.63215 -0.583234,0.81555 -1.236188,0.60521 z m -1.13404,-2.13063 c 0,-0.0585 -0.113037,-0.15319 -0.251192,-0.21041 -0.138157,-0.0572 -0.293342,-0.15484 -0.344858,-0.21691 -0.105638,-0.12729 -0.335283,-0.0727 -0.335283,0.0797 0,0.0549 0.158648,0.22176 0.352552,0.37079 0.269422,0.20707 0.379224,0.24882 0.465667,0.17708 0.06221,-0.0516 0.113114,-0.14174 0.113114,-0.20023 z m -5.0165,1.46999 c -0.221191,-0.18949 -0.402166,-0.37273 -0.402166,-0.40721 0,-0.0345 0.09236,-0.17017 0.205235,-0.30153 l 0.205235,-0.23885 0.429765,0.32774 c 0.236371,0.18026 0.429765,0.37678 0.429765,0.4367 0,0.11304 -0.332603,0.53583 -0.417436,0.53063 -0.02653,-0.002 -0.229206,-0.15799 -0.450398,-0.34748 z m 10.154961,7.7628 c -0.193121,-0.19312 -0.279856,-0.15956 -0.100324,0.0388 0.08454,0.0934 0.171183,0.15238 0.192534,0.13103 0.02135,-0.0214 -0.02014,-0.0978 -0.09221,-0.16985 z m -1.111787,-0.38694 c -0.23008,-0.0898 -0.432992,-0.14866 -0.450916,-0.13074 -0.06126,0.0613 0.445498,0.28401 0.657576,0.28904 0.147933,0.004 0.08571,-0.0442 -0.20666,-0.1583 z M 63.303374,169.9409 c 0.439905,-0.39811 -0.168579,-1.06249 -0.712745,-0.77822 -0.19001,0.0993 -0.206937,0.70748 -0.02256,0.81066 0.2257,0.12631 0.577022,0.11081 0.735307,-0.0324 z m -6.75217,-1.09683 c 0.251675,-0.0966 0.156229,-0.48513 -0.206073,-0.83891 -0.704004,-0.68744 -1.358498,-2.11721 -1.491553,-3.25837 -0.07286,-0.62489 -0.15463,-0.762 -0.454449,-0.762 -0.350643,0 -0.434041,0.20542 -0.348458,0.85829 0.184287,1.40585 0.834271,2.82961 1.660792,3.63787 0.412302,0.4032 0.564167,0.46887 0.839741,0.36312 z m 8.576733,-1.21127 c 0.228341,-0.29741 0.037,-0.68793 -0.358327,-0.73132 -0.338163,-0.0371 -0.525695,0.0858 -0.592088,0.38808 -0.1278,0.58187 0.572907,0.83493 0.950415,0.34324 z m 1.584699,-2.00361 c 0.289155,-0.28915 0.320051,-0.44966 0.136244,-0.70779 -0.184853,-0.25961 -0.395484,-0.2881 -0.745385,-0.10084 -0.125676,0.0673 -0.189261,0.1791 -0.188403,0.33138 0.0017,0.29411 0.07975,0.41284 0.339761,0.5166 0.286495,0.11434 0.305754,0.11268 0.457783,-0.0394 z m -14.628087,-4.90406 c 0.172691,-0.34925 0.345018,-0.635 0.382948,-0.635 0.03793,0 0.06897,-0.0413 0.06897,-0.0918 0,-0.0776 1.001644,-1.42281 1.565688,-2.10273 0.459565,-0.55398 1.150378,-1.29292 1.40709,-1.50511 0.647802,-0.53548 0.630698,-0.47478 0.226058,-0.80223 -0.199377,-0.16134 -0.533953,-0.41043 -0.743503,-0.55354 -0.20955,-0.1431 -1.055958,-0.7882 -1.880907,-1.43354 -0.824949,-0.64534 -1.809747,-1.40195 -2.188441,-1.68135 -0.378694,-0.2794 -0.773206,-0.57286 -0.876694,-0.65213 -0.186103,-0.14256 -0.191755,-0.13793 -0.516899,0.42333 -0.319488,0.5515 -1.177747,1.79057 -1.536649,2.21847 -1.190847,1.41977 -2.008401,2.286 -2.15755,2.286 -0.04617,0 -0.07162,0.0559 -0.05657,0.12427 0.02704,0.12274 0.88933,0.8552 4.154875,3.52931 0.919691,0.75312 1.672166,1.40121 1.672166,1.4402 0,0.2308 0.206522,-0.0122 0.47942,-0.56411 z"
         id="path304" /><path
         id="path2470"
         style="fill:#116845;fill-opacity:1;stroke-width:0.0846667"
         d="m 44.794165,146.39003 -0.346749,0.64802 c -0.106142,0.19845 -0.2299,0.41037 -0.367419,0.63097 -0.137519,0.2206 -0.288649,0.45016 -0.450102,0.68368 -0.161453,0.23353 -0.333137,0.47126 -0.51108,0.70849 -0.177943,0.23723 -0.362331,0.47367 -0.54932,0.70538 -0.18699,0.23171 -0.37623,0.45844 -0.564824,0.67541 -0.188593,0.21697 -0.376385,0.42454 -0.559139,0.61753 -0.182753,0.193 -0.36073,0.37143 -0.5302,0.53124 -0.08474,0.0799 -0.167512,0.15543 -0.24753,0.22531 -0.08002,0.0699 -0.15714,0.13405 -0.23151,0.19275 -0.116499,0.0919 -0.222417,0.18029 -0.299207,0.24856 -0.07679,0.0683 -0.12453,0.11652 -0.12454,0.12816 -5e-6,0.006 0.04582,0.0474 0.128157,0.11731 0.08233,0.0699 0.201364,0.16823 0.348299,0.28783 0.293874,0.23922 0.699263,0.56337 1.14515,0.91468 l 1.62109,1.27744 0.256832,-0.21911 c 0.07061,-0.0603 0.182757,-0.16292 0.306441,-0.27957 0.123684,-0.11665 0.259154,-0.24707 0.376204,-0.3638 0.164316,-0.16387 0.332835,-0.33921 0.503329,-0.52297 0.170493,-0.18376 0.342843,-0.37615 0.514697,-0.57361 0.171854,-0.19745 0.343198,-0.40018 0.511597,-0.60513 0.168398,-0.20494 0.333901,-0.41182 0.494027,-0.61805 0.160124,-0.20622 0.314951,-0.41157 0.461987,-0.61288 0.147036,-0.20131 0.286349,-0.39892 0.415478,-0.58911 0.12913,-0.19019 0.248095,-0.37336 0.354501,-0.54622 0.106406,-0.17286 0.200186,-0.3354 0.279052,-0.48473 l 0.303341,-0.57412 -0.351916,-0.29094 c -0.193335,-0.16001 -0.921883,-0.74574 -1.619023,-1.30173 z m -1.520837,0.57671 c -0.01338,0 -0.03567,0.012 -0.06563,0.0346 -0.02996,0.0226 -0.06775,0.0561 -0.112138,0.0987 -0.08878,0.0851 -0.20441,0.20718 -0.337964,0.35605 -0.133554,0.14886 -0.2849,0.32449 -0.445968,0.51573 -0.161068,0.19123 -0.331488,0.39807 -0.502811,0.6103 -0.171325,0.21221 -0.343655,0.42997 -0.50798,0.64182 -0.164325,0.21184 -0.320885,0.41815 -0.460954,0.60823 -0.140067,0.19008 -0.263696,0.36362 -0.362251,0.51056 -0.04928,0.0735 -0.09198,0.14028 -0.127641,0.19896 -0.03566,0.0587 -0.06434,0.10916 -0.08423,0.15037 -0.0068,0.0141 -0.01038,0.0247 -0.01085,0.0315 -4.76e-4,0.007 0.0024,0.01 0.0078,0.01 0.01079,-9e-5 0.03251,-0.0136 0.06408,-0.0383 0.06313,-0.0494 0.164295,-0.14385 0.288872,-0.26975 0.124576,-0.12589 0.272797,-0.28306 0.429948,-0.4563 0.15715,-0.17324 0.323355,-0.36256 0.484208,-0.55397 0.17708,-0.21072 0.381439,-0.46944 0.586527,-0.73846 0.20509,-0.26901 0.410767,-0.54869 0.591179,-0.80202 0.180411,-0.25331 0.335687,-0.48023 0.438733,-0.64388 0.05152,-0.0818 0.08984,-0.14774 0.112137,-0.19327 0.01115,-0.0228 0.01806,-0.0402 0.02067,-0.0522 0.0026,-0.012 0.0011,-0.0186 -0.0057,-0.0186 z m 5.571753,2.62 -0.356051,0.68006 c -0.09851,0.18817 -0.213949,0.38854 -0.343132,0.59789 -0.129181,0.20936 -0.272225,0.42767 -0.42633,0.65113 -0.154105,0.22345 -0.319197,0.45218 -0.492477,0.68264 -0.173278,0.23046 -0.354345,0.46261 -0.541052,0.69298 -0.186707,0.23037 -0.378707,0.45894 -0.573091,0.68213 -0.194386,0.22319 -0.391245,0.44118 -0.587561,0.65009 -0.196317,0.20892 -0.392478,0.4088 -0.584978,0.59635 -0.192499,0.18755 -0.381371,0.36232 -0.564306,0.52141 l -0.328662,0.28629 0.201538,0.15503 c 0.06217,0.0478 0.108699,0.0834 0.147278,0.10749 0.01929,0.012 0.03631,0.0217 0.05271,0.0279 0.0164,0.006 0.03203,0.009 0.04754,0.01 0.01551,4.4e-4 0.03092,-0.002 0.04754,-0.007 0.01662,-0.005 0.03452,-0.0134 0.05426,-0.0243 0.03948,-0.0219 0.08692,-0.055 0.150896,-0.0992 0.07625,-0.0527 0.169645,-0.12804 0.275952,-0.22118 0.106307,-0.0931 0.225826,-0.20455 0.353983,-0.32918 0.128158,-0.12463 0.264892,-0.26263 0.406694,-0.40979 0.141802,-0.14716 0.288392,-0.30332 0.435632,-0.46405 0.14724,-0.16074 0.295294,-0.3261 0.439767,-0.49145 0.144471,-0.16535 0.285598,-0.33043 0.419095,-0.49144 0.133499,-0.16101 0.259303,-0.3179 0.373621,-0.4656 0.114318,-0.14771 0.216926,-0.28642 0.303857,-0.41187 0.229388,-0.33102 0.425855,-0.61769 0.592729,-0.86609 0.166874,-0.2484 0.304333,-0.45876 0.415995,-0.63614 0.111664,-0.17738 0.197727,-0.3218 0.261483,-0.43977 0.03188,-0.059 0.05831,-0.11131 0.07958,-0.15761 0.02127,-0.0463 0.037,-0.0869 0.04858,-0.12196 0.0221,-0.0669 0.03843,-0.11992 0.04702,-0.16484 0.0086,-0.0449 0.0099,-0.0816 0.0026,-0.11576 -0.0037,-0.0171 -0.0095,-0.0336 -0.01757,-0.0501 -0.0081,-0.0165 -0.01871,-0.0328 -0.03152,-0.0501 -0.02563,-0.0346 -0.06113,-0.0725 -0.107487,-0.11886 z m 28.710392,23.66935 -0.02481,0.56379 c -0.04895,1.11043 0.339179,2.1604 1.319299,3.56878 0.442269,0.63549 0.46485,0.65482 0.582911,0.48627 0.427206,-0.60993 -0.476965,-3.21987 -1.453658,-4.19561 z m 4.759916,1.72599 -0.538985,0.5762 c -0.515631,0.55109 -1.04907,1.27247 -1.150834,1.55649 -0.03475,0.097 0.0019,0.12947 0.134358,0.11937 0.244257,-0.0186 0.717922,0.18535 1.01906,0.43874 0.134972,0.11357 0.300536,0.18558 0.367936,0.15968 0.0674,-0.0259 0.266437,-0.0701 0.44235,-0.0982 0.769494,-0.12305 1.933168,-0.93569 1.618506,-1.13016 -0.06475,-0.0403 -0.159016,-0.0601 -0.209806,-0.0444 -0.05079,0.0157 -0.316465,0.05 -0.590145,0.0765 -0.361789,0.035 -0.627456,0.12786 -0.973584,0.34003 -0.261837,0.16056 -0.487088,0.26159 -0.500228,0.22479 -0.01314,-0.0368 0.09073,-0.40814 0.230477,-0.82527 0.185743,-0.5544 0.240251,-0.84369 0.202571,-1.07591 z m -6.362402,1.9017 c -0.02835,6e-4 -0.04858,0.0305 -0.04858,0.0796 0,0.29518 1.282708,1.2971 1.92598,1.5043 0.174826,0.0563 0.365537,0.13983 0.423747,0.18603 0.05821,0.0462 0.10542,0.0559 0.10542,0.0212 0,-0.0347 0.05727,-0.0156 0.127124,0.0424 0.06985,0.0579 0.127124,0.0765 0.127124,0.0418 0,-0.0347 0.05727,-0.0156 0.127124,0.0424 0.06985,0.058 0.127124,0.0849 0.127124,0.0599 0,-0.0249 0.104486,-0.0137 0.232544,0.0248 v 5.2e-4 c 0.128059,0.0386 0.243552,0.073 0.256832,0.077 0.01328,0.004 -0.01535,-0.0665 -0.06356,-0.15658 -0.0482,-0.0901 -0.08733,-0.23916 -0.08733,-0.33176 0,-0.47111 -1.706505,-1.40435 -2.736267,-1.49655 -0.22427,-0.0201 -0.443302,-0.0584 -0.486792,-0.0853 -0.01087,-0.007 -0.02104,-0.01 -0.03049,-0.01 z" /><path
         style="display:inline;fill:#000000;stroke-width:0.0846667"
         d="m 98.125119,204.96831 c -0.235221,-0.0838 -0.540021,-0.21073 -0.677333,-0.28218 -0.137313,-0.0714 -3.588063,-2.79097 -7.668336,-6.04338 -29.246044,-23.31216 -34.376029,-27.41819 -34.803256,-27.85644 -1.436858,-1.47394 -2.033764,-2.45311 -2.67516,-4.38836 -0.254722,-0.76856 -0.41142,-1.55687 -0.479647,-2.413 -0.09668,-1.21312 -0.483423,-1.84311 -1.737591,-2.83045 -0.505598,-0.39802 -0.932108,-0.75449 -0.947801,-0.79213 -0.01569,-0.0376 -0.733382,-0.63643 -1.594866,-1.33064 -0.861483,-0.69421 -1.805801,-1.47916 -2.098484,-1.74434 -0.499139,-0.45222 -0.557058,-0.48135 -0.933609,-0.46945 l -0.401458,0.0127 -2.537725,-2.0215 c -1.395747,-1.11182 -2.601296,-2.1012 -2.678994,-2.1986 -0.454946,-0.57034 -0.129096,-1.38042 1.40165,-3.48457 1.87474,-2.57699 3.573435,-4.14115 4.277924,-3.93911 0.281933,0.0809 5.342098,4.09165 5.486529,4.34874 0.05656,0.10067 0.104184,0.28366 0.105833,0.40663 0.0024,0.17879 0.159912,0.34943 0.786168,0.85169 1.440429,1.15522 2.769005,2.18439 2.819881,2.18439 0.0277,0 0.647575,0.47126 1.377494,1.04726 0.729918,0.57599 1.422375,1.07595 1.538791,1.11103 0.116417,0.0351 0.265192,0.10673 0.330613,0.15924 0.07999,0.0642 0.482017,0.084 1.227666,0.0604 0.609797,-0.0193 1.756421,-0.0319 2.548055,-0.028 1.295443,0.006 1.515343,0.0295 2.199662,0.23086 0.41818,0.12305 0.87538,0.27685 1.016,0.34178 0.140619,0.0649 0.471275,0.19734 0.734791,0.29425 0.263516,0.0969 0.525356,0.23192 0.581867,0.30001 0.05651,0.0681 0.133774,0.1238 0.171695,0.1238 0.09192,0 1.097201,0.68692 1.730651,1.18257 2.535554,1.98397 40.816131,32.52844 41.105671,32.79864 0.20955,0.19556 0.52387,0.60134 0.6985,0.90175 0.28267,0.48628 0.3175,0.60969 0.3175,1.12509 0,0.40917 -0.055,0.70761 -0.18762,1.01793 -0.12398,0.29011 -1.42372,1.98978 -3.83195,5.01102 -2.00439,2.5146 -3.82999,4.80938 -4.0569,5.09949 -0.95265,1.21807 -1.99885,1.62138 -3.146211,1.21287 z m 1.602783,-0.8322 c 0.264947,-0.11246 0.642168,-0.53285 1.951458,-2.17478 0.89266,-1.11946 2.72606,-3.41768 4.07423,-5.10717 1.34816,-1.68949 2.51788,-3.19385 2.59937,-3.34301 0.10182,-0.18638 0.14817,-0.45967 0.14817,-0.87367 0,-0.52894 -0.0296,-0.64338 -0.24295,-0.93784 -0.33118,-0.45717 0.0332,-0.16051 -10.806051,-8.79699 -5.3086,-4.22976 -13.5001,-10.75754 -18.203333,-14.50618 -4.703233,-3.74864 -9.566453,-7.62451 -10.807154,-8.61305 -3.450236,-2.749 -4.308431,-3.22341 -6.564234,-3.62866 -0.608849,-0.10938 -1.589306,-0.11018 -2.906279,-0.002 -0.20955,0.0172 -0.654521,0.0339 -0.988825,0.0372 l -0.607826,0.006 -0.140852,0.48684 c -0.21684,0.74947 -0.579015,1.31949 -1.878645,2.95678 -1.439878,1.81396 -2.286211,2.65183 -2.778906,2.7511 -0.185828,0.0374 -0.188937,0.0954 -0.04918,0.91728 0.05147,0.30269 0.14848,0.95039 0.215575,1.43934 0.297502,2.16802 1.253649,4.01422 2.898797,5.59721 0.421964,0.40603 2.88526,2.38686 10.78053,8.66906 0.814917,0.64842 7.196667,5.73481 14.181667,11.30308 6.985,5.56828 13.70965,10.92514 14.943666,11.90414 1.983867,1.57388 2.448789,1.90213 2.963334,2.09217 0.197349,0.0729 0.854202,-0.0223 1.217439,-0.17651 z M 77.453107,185.17528 c -11.058513,-8.80689 -18.496122,-14.78592 -18.527584,-14.89415 -0.05048,-0.17366 0.157586,-0.46012 1.938515,-2.66885 0.09978,-0.12375 1.334834,-1.67211 2.744555,-3.4408 1.409722,-1.76869 2.633371,-3.23417 2.71922,-3.25662 0.163553,-0.0428 -0.149472,-0.2893 17.842014,14.05187 4.8952,3.90201 11.246289,8.96146 14.113534,11.24322 2.867249,2.28177 5.232689,4.19521 5.256559,4.2521 0.0239,0.0569 -0.44763,0.72363 -1.04775,1.48166 -4.084891,5.15974 -6.30894,7.90083 -6.427092,7.92124 -0.07761,0.0134 -8.141096,-6.35077 -18.611971,-14.68967 z m 19.329478,12.63441 c 0.368249,-0.46544 0.733603,-0.92264 0.811903,-1.016 0.0783,-0.0933 0.472533,-0.58884 0.876088,-1.10107 0.403547,-0.51223 0.840986,-1.06468 0.972067,-1.22767 0.131089,-0.16298 0.512157,-0.63923 0.846817,-1.05833 0.33466,-0.4191 0.67137,-0.8382 0.74823,-0.93133 0.74915,-0.90762 1.37327,-1.76528 1.35164,-1.85742 -0.0146,-0.0622 -7.322684,-5.92852 -16.240201,-13.03638 l -16.213666,-12.92338 -0.156059,0.19259 c -0.326049,0.40237 -0.668807,0.83209 -1.875698,2.35159 -0.684249,0.86148 -1.307125,1.64266 -1.384167,1.73595 -0.07704,0.0933 -0.272442,0.34093 -0.434222,0.55033 -0.16178,0.20939 -0.315091,0.39977 -0.340692,0.42305 -0.0256,0.0233 -0.254273,0.30903 -0.508162,0.635 -0.253889,0.32597 -0.482563,0.61172 -0.508163,0.635 -0.0256,0.0233 -0.177927,0.21378 -0.338504,0.42333 -0.160577,0.20955 -0.312977,0.40005 -0.338667,0.42334 -0.221137,0.20042 -0.600789,0.78804 -0.566639,0.87704 0.02358,0.0615 3.561147,2.9161 7.861257,6.34366 4.300111,3.42756 11.590282,9.24035 16.200382,12.9173 6.221425,4.96211 8.405834,6.66014 8.474456,6.58751 0.05086,-0.0538 0.39376,-0.47866 0.762,-0.94411 z m -5.301691,-3.93878 c -0.08099,-0.0501 -0.08857,-0.10281 -0.02625,-0.18267 2.146783,-2.75076 5.067791,-6.33529 5.162584,-6.33529 0.07836,0 0.116646,0.0626 0.09996,0.16336 -0.02844,0.17169 -4.870467,6.31914 -5.030072,6.38619 -0.05079,0.0213 -0.143587,0.007 -0.206223,-0.0316 z m -1.514949,-1.21808 c -0.07746,-0.0933 0.415603,-0.75915 2.444572,-3.30106 1.397889,-1.75128 2.599292,-3.18415 2.669777,-3.18415 0.07049,0 0.128169,0.0565 0.128169,0.12559 0,0.11558 -4.889407,6.31828 -5.067055,6.42808 -0.04313,0.0267 -0.122089,-0.004 -0.175463,-0.0685 z m -1.424982,-1.12261 c -0.221171,-0.0893 -0.446936,0.21736 3.407833,-4.62817 1.410538,-1.77307 1.820333,-2.17794 1.820333,-1.79843 0,0.10232 -5.034793,6.4955 -5.100001,6.47598 -0.01228,-0.004 -0.06996,-0.0259 -0.128165,-0.0494 z m -1.536338,-1.20845 c -0.06499,-0.0402 -0.09829,-0.12453 -0.07399,-0.18744 0.03489,-0.0903 3.776333,-4.82698 4.370506,-5.53304 0.07837,-0.0931 0.251155,-0.31221 0.383955,-0.48684 0.232825,-0.30613 0.560138,-0.42986 0.559943,-0.21166 -8.5e-5,0.0868 -4.686204,6.05019 -5.02082,6.38927 -0.06224,0.0631 -0.147068,0.0746 -0.219591,0.0297 z m -1.558124,-1.24433 c -0.03265,-0.0327 -0.05937,-0.0883 -0.05937,-0.12358 0,-0.0492 3.194801,-4.10438 3.964254,-5.03182 0.07814,-0.0942 0.362797,-0.44662 0.632562,-0.78317 0.471805,-0.58861 0.737184,-0.76067 0.737184,-0.47796 0,0.1572 -4.958982,6.41629 -5.111672,6.4518 -0.05697,0.0133 -0.130302,-0.003 -0.162956,-0.0353 z M 71.236785,177.24506 c -0.355431,-0.18546 -2.215167,-1.70644 -2.409561,-1.97066 -0.296431,-0.4029 -0.303544,-0.68338 -0.02537,-1.00021 0.231094,-0.2632 0.262001,-0.27346 0.621532,-0.20629 0.449598,0.084 0.773484,0.28137 1.755808,1.06997 0.781358,0.62726 1.070317,0.93543 1.236063,1.31823 0.149182,0.34455 0.127146,0.51489 -0.09342,0.7221 -0.229198,0.21532 -0.740183,0.2468 -1.085054,0.0669 z m 0.48642,-0.68196 c 0.07291,-0.19 -0.04357,-0.32707 -0.786562,-0.92567 -1.053491,-0.84874 -1.301206,-1.00215 -1.436701,-0.88969 -0.244756,0.20313 -0.106504,0.4116 0.710687,1.07169 0.454025,0.36674 0.9017,0.71036 0.994834,0.76359 0.23446,0.13401 0.462032,0.12525 0.517742,-0.0199 z m -0.898742,-2.52252 c -1.280584,-1.02832 -2.339111,-1.89599 -2.352283,-1.92817 -0.01317,-0.0322 0.04445,-0.14297 0.128061,-0.24621 l 0.152012,-0.18773 2.159231,1.72007 c 1.187577,0.94605 2.265751,1.80359 2.395943,1.90567 0.230052,0.18036 0.232719,0.19168 0.0948,0.40216 -0.07805,0.11912 -0.166103,0.21372 -0.195672,0.21023 -0.02957,-0.004 -1.101512,-0.84771 -2.382095,-1.87602 z m 1.384726,-0.42408 c -1.693719,-1.35874 -1.704636,-1.36961 -1.566333,-1.56063 0.0766,-0.1058 0.183668,-0.17677 0.237929,-0.15772 0.05426,0.0191 0.848451,0.63086 1.764865,1.35955 l 1.666208,1.32491 -0.192123,0.20451 c -0.105667,0.11247 -0.195007,0.20296 -0.198531,0.20108 -0.0035,-0.002 -0.773931,-0.61915 -1.712015,-1.3717 z m 2.50994,-0.13988 c -0.116416,-0.0852 -0.402166,-0.26163 -0.635,-0.39199 -0.797141,-0.44634 -0.903084,-0.50614 -1.046451,-0.59068 -0.07897,-0.0466 -0.534535,-0.30862 -1.01237,-0.58234 -0.86215,-0.49388 -0.86764,-0.49906 -0.71822,-0.67734 0.08281,-0.0988 0.157667,-0.19269 0.16634,-0.20863 0.0087,-0.0159 0.46176,0.24124 1.006856,0.5715 1.322825,0.80148 1.441715,0.80614 0.645439,0.0253 -0.965165,-0.94643 -1.137279,-1.17408 -1.033817,-1.36739 0.124429,-0.2325 0.293162,-0.21959 0.495729,0.0379 0.09174,0.11663 0.742203,0.80822 1.445478,1.53687 0.703276,0.72865 1.278683,1.37027 1.278683,1.42583 0,0.0939 -0.265211,0.3846 -0.345333,0.37857 -0.01962,-0.001 -0.130917,-0.0724 -0.247334,-0.15765 z m 0.697963,-1.53096 c -0.422748,-0.19189 -0.776604,-0.44693 -1.586645,-1.1436 -0.682819,-0.58725 -0.807998,-0.73575 -0.951035,-1.12823 -0.08615,-0.23638 -0.08213,-0.32791 0.02334,-0.53186 0.112287,-0.21714 0.172967,-0.24635 0.511783,-0.24635 0.211416,0 0.467612,0.0443 0.569326,0.0985 0.319448,0.17019 1.327934,1.00512 1.327934,1.0994 0,0.0495 -0.118091,0.23915 -0.262424,0.42138 -0.144333,0.18224 -0.244384,0.37822 -0.222334,0.43552 0.05211,0.13543 0.709042,0.48518 0.911292,0.48518 0.178586,0 0.420133,-0.30289 0.420133,-0.52684 0,-0.20992 0.0897,-0.18876 0.399605,0.0943 0.304661,0.27826 0.294495,0.50954 -0.03921,0.89212 -0.232682,0.26676 -0.589265,0.28309 -1.101764,0.0505 z m -0.78721,-1.93293 c -0.0072,-0.0924 -0.826048,-0.60911 -0.965196,-0.60911 -0.06871,0 -0.160905,0.0672 -0.204873,0.14937 -0.09746,0.1821 0.0075,0.34171 0.462782,0.7035 l 0.328326,0.26092 0.191771,-0.22295 c 0.105473,-0.12262 0.189709,-0.2494 0.18719,-0.28173 z m -5.138919,1.43445 c -0.316555,-0.27099 -0.33486,-0.35463 -0.120142,-0.54894 0.145813,-0.13196 0.174747,-0.12323 0.486834,0.14687 0.32955,0.28522 0.33071,0.28839 0.170518,0.46584 -0.200899,0.22255 -0.203046,0.22229 -0.53721,-0.0638 z m -6.096,-1.43455 c 0.344162,-0.29558 0.0037,-1.05351 -0.473205,-1.05351 -0.699522,0 -0.786256,1.08045 -0.0983,1.22447 0.210658,0.0441 0.380123,-0.007 0.5715,-0.17096 z m 1.718348,-2.17149 c 0.282838,-0.28284 0.267457,-0.59987 -0.04318,-0.89005 -0.252335,-0.23572 -0.5763,-0.2646 -0.819644,-0.0731 -0.148352,0.11675 -0.218673,0.63799 -0.112769,0.83588 0.193502,0.36156 0.678081,0.42477 0.975594,0.12726 z m 1.81072,-2.23942 c 0.216874,-0.30457 0.217835,-0.40713 0.0068,-0.72777 -0.201814,-0.30664 -0.474176,-0.3924 -0.77396,-0.24368 -0.389559,0.19326 -0.44761,0.68186 -0.119942,1.00953 0.293794,0.2938 0.662022,0.27799 0.887083,-0.0381 z m -14.973319,-4.34727 c 0.249617,-0.61258 0.754391,-1.35977 1.817585,-2.69049 1.011357,-1.26584 2.223118,-2.53767 2.417815,-2.53767 0.157329,0 0.06758,-0.26144 -0.114816,-0.33445 -0.104775,-0.0419 -0.8001,-0.55961 -1.545167,-1.15038 -0.745066,-0.59077 -1.564216,-1.21847 -1.820333,-1.3949 -0.256117,-0.17642 -0.996722,-0.74147 -1.64579,-1.25565 -0.649067,-0.51419 -1.207876,-0.91774 -1.241796,-0.89678 -0.03392,0.021 -0.23337,0.33579 -0.443222,0.69961 -0.389841,0.67587 -1.255479,1.87184 -1.848965,2.55455 -1.08472,1.24778 -1.491922,1.68614 -1.69915,1.82915 -0.127924,0.0883 -0.232699,0.20363 -0.232833,0.25632 -1.7e-4,0.0527 0.504581,0.50781 1.121589,1.01138 0.617009,0.50356 1.441671,1.18435 1.832585,1.51286 2.014266,1.69272 3.189395,2.66041 3.237144,2.66571 0.02927,0.003 0.103684,-0.11791 0.165354,-0.26926 z m 1.789809,-0.93133 c 1.018083,-1.18046 2.182608,-2.71957 2.182608,-2.88468 0,-0.26755 -2.161437,2.27893 -2.606028,3.07027 -0.281119,0.50037 -0.09955,0.42079 0.42342,-0.18559 z m -8.991064,-4.52616 c 0.610006,-0.42153 2.313119,-2.28075 3.008578,-3.28434 0.917551,-1.32409 1.305781,-1.94081 1.398385,-2.22141 0.08839,-0.26781 0.07842,-0.31436 -0.10699,-0.49977 l -0.204457,-0.20446 -0.355842,0.6797 c -0.788092,1.50536 -2.649618,3.80221 -4.113101,5.07496 l -0.328766,0.28592 0.201766,0.15515 c 0.248668,0.19121 0.244518,0.19109 0.500427,0.0143 z m -0.554969,-1.67681 c 1.314527,-1.31093 2.903811,-3.35779 3.534739,-4.55243 l 0.303272,-0.57424 -0.351518,-0.29092 c -0.193335,-0.16001 -0.921908,-0.74583 -1.61905,-1.30182 l -1.267531,-1.0109 -0.346796,0.64839 c -0.849136,1.58759 -2.82144,4.03158 -4.011386,4.97072 -0.232997,0.18388 -0.423648,0.35339 -0.423669,0.37667 -2.1e-5,0.0233 0.729597,0.6172 1.621374,1.31981 l 1.621413,1.27747 0.256756,-0.21914 c 0.141214,-0.12053 0.448293,-0.41015 0.682396,-0.64361 z m -2.664692,-4.70518 c 0.708322,-0.84289 1.851467,-2.44802 1.743439,-2.44802 -0.214059,0 -2.689083,3.0659 -3.007373,3.72534 -0.108767,0.22534 0.620521,-0.51166 1.263934,-1.27732 z"
         id="path2378" /></g></g></svg>
