<?xml version="1.0" encoding="UTF-8" standalone="no"?>
<!-- Created with Inkscape (http://www.inkscape.org/) -->

<svg
   width="125mm"
   height="88mm"
   viewBox="0 0 125 88"
   version="1.1"
   id="svg5"
   inkscape:version="1.2.2 (732a01da63, 2022-12-09)"
   xml:space="preserve"
   sodipodi:docname="paper_towels.svg"
   xmlns:inkscape="http://www.inkscape.org/namespaces/inkscape"
   xmlns:sodipodi="http://sodipodi.sourceforge.net/DTD/sodipodi-0.dtd"
   xmlns="http://www.w3.org/2000/svg"
   xmlns:svg="http://www.w3.org/2000/svg"><sodipodi:namedview
     id="namedview7"
     pagecolor="#f0f0f0"
     bordercolor="#ffffff"
     borderopacity="1"
     inkscape:showpageshadow="0"
     inkscape:pageopacity="0"
     inkscape:pagecheckerboard="0"
     inkscape:deskcolor="#505050"
     inkscape:document-units="mm"
     showgrid="true"
     inkscape:zoom="1.436055"
     inkscape:cx="268.44376"
     inkscape:cy="146.58213"
     inkscape:current-layer="layer1"><inkscape:grid
       type="xygrid"
       id="grid132"
       dotted="true"
       empspacing="10"
       units="mm"
       spacingx="1"
       spacingy="1"
       originx="-10.830611"
       originy="-111.77954" /></sodipodi:namedview><defs
     id="defs2" /><g
     inkscape:label="Layer 1"
     inkscape:groupmode="layer"
     id="layer1"
     transform="translate(-10.830611,-111.77953)"><g
       id="g392"
       transform="matrix(1.1465944,0,0,1.1465944,-1.0585405,-13.211254)"><path
         style="display:inline;fill:#ffffff;fill-opacity:1;stroke-width:0.0846667"
         d="m 45.308108,182.79256 c -1.328243,-1.2088 -2.97348,-2.85197 -4.516288,-4.51063 -2.545429,-2.73656 -4.334417,-4.61917 -5.304969,-5.58258 -1.836891,-1.82338 -4.165907,-3.80584 -5.727323,-4.87511 -0.169999,-0.11642 -0.646363,-0.44297 -1.058587,-0.72567 -4.100441,-2.81203 -9.543159,-5.17653 -16.160994,-7.02087 -0.923343,-0.25733 -1.689938,-0.47901 -1.703546,-0.49261 -0.01361,-0.0136 -0.0024,-0.16262 0.02498,-0.33113 0.05887,-0.36278 -0.107995,-0.31077 2.104062,-0.65588 7.565188,-1.18028 13.09107,-2.18954 16.467666,-3.0077 0.675217,-0.1636 2.504017,-0.48562 4.064,-0.7156 1.559984,-0.22997 3.632866,-0.53548 4.606405,-0.6789 7.169371,-1.05622 13.379676,-2.29494 18.228564,-3.63591 1.601181,-0.4428 5.265409,-1.63561 5.98197,-1.9473 l 0.411272,-0.17889 -0.669071,-0.66459 c -1.68473,-1.67345 -2.795615,-4.0304 -3.257449,-6.91129 -0.162727,-1.01508 -0.137794,-4.00001 0.04385,-5.24933 0.418408,-2.87777 1.229641,-5.26366 2.35182,-6.91685 0.180019,-0.26521 0.327307,-0.53605 0.327307,-0.60188 0,-0.11237 -0.235164,-0.76279 -1.023852,-2.83177 -0.181948,-0.47731 -0.479188,-1.25836 -0.660534,-1.73567 -0.181346,-0.4773 -0.526738,-1.38218 -0.76754,-2.01083 -0.240802,-0.62865 -0.647865,-1.7145 -0.904582,-2.413 -0.471484,-1.28285 -1.656635,-4.40161 -1.813943,-4.77344 -0.04687,-0.11079 -0.07329,-0.21337 -0.05871,-0.22795 0.02665,-0.0266 3.473946,-0.58058 5.525498,-0.88786 0.605367,-0.0907 1.291167,-0.20036 1.524,-0.24374 0.232834,-0.0434 1.071034,-0.17969 1.862667,-0.3029 0.791633,-0.12321 2.348532,-0.37233 3.459776,-0.55359 l 2.020442,-0.32956 1.662558,0.25533 c 1.627024,0.24988 3.760354,0.58693 8.012557,1.26591 3.295737,0.52626 6.743904,1.07526 9.059334,1.44239 1.164166,0.18458 3.183466,0.50625 4.487333,0.71481 2.461235,0.39368 4.899296,0.7823 9.017009,1.43728 3.96113,0.63007 6.52486,1.042 8.74361,1.4049 1.1535,0.18867 2.16947,0.32012 2.25771,0.29212 0.0882,-0.028 0.18202,-0.016 0.20842,0.0267 0.0446,0.0722 -0.11267,1.59608 -0.83533,8.09414 l -0.28187,2.53459 0.22422,0.17083 c 0.50214,0.38257 1.67286,1.57514 2.17015,2.21067 1.51455,1.93554 2.63478,4.47502 3.18137,7.21192 0.22639,1.13357 0.2743,1.59348 0.31175,2.99263 0.0512,1.91421 -0.0313,2.80192 -0.44839,4.82378 -1.73634,8.41672 -5.48563,14.09538 -10.95964,16.59944 -0.62865,0.28757 -1.1811,0.55244 -1.22767,0.5886 -0.19011,0.14761 -7.455701,3.74618 -8.593672,4.25635 -5.83952,2.61795 -10.585738,4.2553 -18.669,6.44041 -1.888512,0.51051 -6.454447,1.61541 -9.144,2.21274 -0.834146,0.18526 -2.200513,0.59165 -3.556,1.05765 -5.009301,1.72214 -9.59922,3.04972 -16.267286,4.70513 -2.148274,0.53332 -3.919924,0.96934 -3.937,0.96891 -0.01708,-4.2e-4 -0.373948,-0.31283 -0.793048,-0.69424 z m 52.451,-56.83781 c 0,-0.0511 -1.698565,-4.38884 -1.732686,-4.42484 -0.03404,-0.0359 -25.568621,-4.66139 -25.595256,-4.63648 -0.02952,0.0276 -0.611943,5.19545 -0.612009,5.43037 -4.8e-5,0.17381 0.01099,0.17499 0.571451,0.0613 0.314325,-0.0637 1.12395,-0.13813 1.799167,-0.16533 1.329165,-0.0535 0.998258,-0.0921 6.307667,0.73574 1.210733,0.18878 3.153833,0.49126 4.318,0.67218 5.636996,0.87603 6.652666,1.03451 8.424333,1.31446 1.04775,0.16556 2.53365,0.39702 3.302,0.51435 0.76835,0.11733 1.7399,0.28307 2.159,0.3683 0.833289,0.16947 1.058333,0.1971 1.058333,0.12991 z"
         id="path308" /><path
         style="display:inline;fill:#7c7c7c;fill-opacity:1;stroke-width:0.0846667"
         d="m 45.386193,182.70041 c -1.309124,-1.18881 -2.962752,-2.84003 -4.509706,-4.50315 -2.545429,-2.73656 -4.334417,-4.61917 -5.304969,-5.58258 -1.836892,-1.82337 -4.165907,-3.80584 -5.727323,-4.87511 -0.169999,-0.11642 -0.646363,-0.44296 -1.058588,-0.72566 -4.360584,-2.99044 -10.283113,-5.4902 -17.520098,-7.39482 -0.318273,-0.0838 -0.342425,-0.11023 -0.308922,-0.3385 0.04328,-0.29491 -0.08742,-0.25758 2.093521,-0.59784 7.565189,-1.18029 13.091071,-2.18955 16.467667,-3.0077 0.675217,-0.16361 2.504017,-0.48562 4.064,-0.7156 1.559983,-0.22997 3.632866,-0.53548 4.606404,-0.67891 6.959248,-1.02526 13.148563,-2.249 17.830263,-3.52537 9.795894,-2.26814 4.951805,-1.92982 3.266943,-8.17421 -0.435316,-1.67752 -0.510082,-2.29318 -0.507426,-4.17839 0.0053,-3.73067 0.939191,-7.32507 2.501176,-9.62619 0.180019,-0.2652 0.327307,-0.5297 0.327307,-0.58777 0,-0.0581 -0.690545,-1.91753 -1.534544,-4.13214 -0.843999,-2.21461 -1.915896,-5.03622 -2.381995,-6.27023 -0.466098,-1.23402 -0.956516,-2.52942 -1.089817,-2.87867 -0.1333,-0.34925 -0.242502,-0.67551 -0.24267,-0.72502 -1.7e-4,-0.0504 0.512501,-0.17093 1.163859,-0.27369 0.640292,-0.10102 2.497667,-0.396 4.1275,-0.6555 1.629833,-0.25951 3.439583,-0.54425 4.021667,-0.63275 0.582083,-0.0885 1.877483,-0.29654 2.878666,-0.4623 1.001184,-0.16575 1.953684,-0.30482 2.116667,-0.30905 0.273864,-0.007 2.657423,0.35751 9.482667,1.45053 1.46685,0.23491 3.25755,0.51959 3.979333,0.63263 0.721783,0.11304 2.017183,0.31936 2.878667,0.45849 0.861483,0.13914 2.537883,0.40723 3.725333,0.59576 4.974387,0.78979 7.097996,1.12802 9.059333,1.44286 1.140882,0.18314 3.160182,0.50627 4.487332,0.71807 1.32715,0.21179 3.95111,0.63263 5.83101,0.93519 1.87992,0.30256 3.5481,0.55011 3.70709,0.55011 h 0.28907 l -0.0427,0.40217 c -0.0235,0.22119 -0.0649,0.68792 -0.0919,1.03717 -0.027,0.34925 -0.16026,1.64465 -0.29609,2.87866 -0.13583,1.23402 -0.34666,3.16991 -0.46852,4.30197 l -0.22158,2.0583 0.90165,0.85444 c 1.82273,1.7273 3.06141,3.69631 3.96635,6.30488 0.6005,1.73101 0.91126,3.45585 0.96598,5.36166 0.0523,1.82177 -0.0338,2.73275 -0.44801,4.74075 -1.73633,8.41673 -5.48563,14.09539 -10.95964,16.59944 -0.62865,0.28757 -1.1811,0.55244 -1.22767,0.5886 -0.19011,0.14761 -7.455694,3.74618 -8.593665,4.25635 -5.839519,2.61795 -10.585738,4.2553 -18.669,6.44041 -1.888512,0.51051 -6.454446,1.61542 -9.144,2.21274 -0.834145,0.18526 -2.200513,0.59166 -3.556,1.05766 -5.001575,1.71948 -9.661901,3.06786 -16.129,4.66664 -2.072217,0.51229 -3.808728,0.94498 -3.858915,0.96154 -0.05019,0.0166 -0.431187,-0.27858 -0.846667,-0.65587 z m 2.080915,-0.27139 c 1.37251,-0.30913 6.913366,-1.72844 8.932334,-2.28805 3.830081,-1.06159 8.726402,-2.59934 9.459802,-2.97095 0.220258,-0.1116 0.429808,-0.19815 0.465667,-0.19232 0.178224,0.029 0.280634,-0.0195 0.226446,-0.10721 -0.03605,-0.0583 -0.02336,-0.0748 0.03144,-0.041 0.05052,0.0312 0.33263,-0.0197 0.626915,-0.11323 0.294286,-0.0935 1.316114,-0.34368 2.270731,-0.55595 6.524676,-1.45089 12.221914,-2.95549 16.678029,-4.40456 l 1.734371,-0.56399 -0.400871,-0.20373 c -0.220472,-0.11205 -0.400863,-0.26014 -0.400863,-0.3291 0,-0.17941 0.10911,-0.15822 0.686689,0.13335 l 0.512539,0.25872 0.860882,-0.29291 c 1.635582,-0.55651 4.127661,-1.513 5.942042,-2.28064 1.109768,-0.46953 2.513186,-1.12414 2.200182,-1.02625 -0.09313,0.0291 -0.790287,0.25673 -1.549231,0.50578 -0.758943,0.24905 -1.587974,0.49129 -1.842296,0.5383 -0.447057,0.0827 -1.202427,-0.26726 -1.202427,-0.26726 -12.232722,-5.39301 -35.919051,-16.81318 -35.919051,-16.81318 0,0 0.210452,-0.15884 1.421006,-0.58128 0.478871,-0.16711 0.854046,-0.32046 0.833724,-0.34078 -0.02032,-0.0203 -0.602625,0.13231 -1.294007,0.33918 -1.172021,0.3507 -2.962067,0.82725 -5.278723,1.40533 l -0.973667,0.24296 0.358972,0.15784 c 0.218185,0.0959 0.35931,0.21421 0.359834,0.30156 7.62e-4,0.12293 -0.08144,0.10521 -0.567885,-0.12243 l -0.568747,-0.26615 -2.204086,0.44231 c -4.14365,0.83153 -9.101535,1.65063 -15.454421,2.55324 -1.36214,0.19353 -2.149938,0.34543 -4.148667,0.79993 -3.284234,0.7468 -8.577086,1.72213 -13.843,2.55089 -1.397,0.21986 -2.569722,0.42592 -2.606048,0.4579 -0.03633,0.032 0.363722,0.18125 0.889,0.33171 6.16264,1.76511 11.418515,4.1433 15.814048,7.15556 3.1952,2.18968 5.954503,4.69375 9.857329,8.94554 3.594733,3.91614 6.702375,6.98355 6.989022,6.89855 0.07112,-0.0211 0.567466,-0.13704 1.102982,-0.25765 z m 38.2905,-12.29346 c -0.44798,-0.21329 -0.613833,-0.33626 -0.613833,-0.45512 0,-0.0896 0.01181,-0.16287 0.02625,-0.16287 0.03132,0 1.273301,0.60444 1.315016,0.63999 0.01591,0.0136 -0.0031,0.0799 -0.04233,0.14745 -0.05929,0.10218 -0.174397,0.0737 -0.685098,-0.16945 z m -2.081046,-1.04996 c -0.547337,-0.27977 -0.645465,-0.35982 -0.562966,-0.45922 0.08448,-0.1018 0.202243,-0.067 0.762486,0.22537 0.451556,0.23564 0.648188,0.38325 0.617407,0.46346 -0.06046,0.15755 -0.05836,0.15814 -0.816927,-0.22961 z m -1.938063,-1.01626 c -0.457394,-0.23041 -0.639698,-0.3655 -0.607265,-0.45002 0.03748,-0.0977 0.154414,-0.0725 0.611276,0.1316 0.635017,0.28367 0.798061,0.41019 0.710037,0.55099 -0.04172,0.0667 -0.262909,-0.005 -0.714048,-0.23257 z m -1.904617,-0.94771 c -0.369556,-0.19036 -0.506303,-0.30322 -0.459308,-0.37909 0.09747,-0.15736 1.105883,0.30626 1.109735,0.5102 0.0037,0.19463 -0.03202,0.18743 -0.650427,-0.13111 z m -1.693117,-0.84649 c -0.267822,-0.14026 -0.338041,-0.21694 -0.281868,-0.30783 0.06267,-0.10141 0.137719,-0.0877 0.46251,0.0846 0.213236,0.11312 0.387701,0.25336 0.387701,0.31165 0,0.15073 -0.158793,0.12602 -0.568343,-0.0884 z m -1.654157,-0.86923 c -0.334444,-0.17167 -0.5715,-0.3479 -0.5715,-0.42488 0,-0.16722 0.210417,-0.1051 0.853464,0.25198 0.268606,0.14915 0.458081,0.30868 0.437935,0.36873 -0.04831,0.14397 -0.06864,0.13844 -0.719899,-0.19583 z m -1.735666,-0.864 c -0.405672,-0.20446 -0.591033,-0.44301 -0.344231,-0.44301 0.248627,0 0.831064,0.36132 0.831064,0.51556 0,0.089 -0.0095,0.15946 -0.02117,0.15663 -0.01164,-0.003 -0.221191,-0.10597 -0.465666,-0.22918 z m -1.728188,-0.85914 c -0.348293,-0.16935 -0.460305,-0.2639 -0.409679,-0.34581 0.05587,-0.0904 0.167605,-0.0704 0.564022,0.10075 0.27189,0.11742 0.494345,0.26343 0.494345,0.32446 0,0.18326 -0.144961,0.16551 -0.648688,-0.0794 z m -1.613484,-0.85795 c -0.338016,-0.17449 -0.469787,-0.28742 -0.43652,-0.37412 0.03902,-0.10169 0.137721,-0.0787 0.545055,0.12691 0.355608,0.17951 0.483497,0.28732 0.448627,0.37819 -0.02683,0.0699 -0.05422,0.12527 -0.06088,0.12303 -0.0067,-0.002 -0.229985,-0.11654 -0.49628,-0.25401 z m -1.650634,-0.82999 c -0.319572,-0.16234 -0.422145,-0.2555 -0.371475,-0.33742 0.05591,-0.0904 0.15751,-0.0688 0.504972,0.10726 0.410637,0.20809 0.51685,0.32693 0.371475,0.41567 -0.03493,0.0213 -0.262162,-0.0622 -0.504972,-0.18551 z m -1.654028,-0.82249 c -0.385959,-0.20091 -0.462073,-0.28731 -0.350983,-0.3984 0.08023,-0.0802 0.964817,0.38394 0.964817,0.50627 0,0.15748 -0.157118,0.12987 -0.613834,-0.10787 z m -1.566333,-0.8207 c -0.323614,-0.16257 -0.488686,-0.4014 -0.277431,-0.4014 0.181323,0 0.848931,0.37947 0.848931,0.48254 0,0.15191 -0.149944,0.13063 -0.5715,-0.0811 z m -1.502833,-0.75466 c -0.427375,-0.22209 -0.429755,-0.22452 -0.323993,-0.33028 0.104849,-0.10485 0.893086,0.24626 0.8491,0.37822 -0.04825,0.14476 -0.176896,0.13302 -0.525107,-0.0479 z m -1.524,-0.762 c -0.427375,-0.22209 -0.429755,-0.22452 -0.323993,-0.33028 0.104849,-0.10485 0.893086,0.24626 0.8491,0.37822 -0.04825,0.14476 -0.176896,0.13302 -0.525107,-0.0479 z m -1.502834,-0.75339 c -0.323318,-0.17046 -0.417609,-0.33269 -0.193372,-0.33269 0.201984,0 0.728069,0.27975 0.697658,0.37098 -0.04818,0.14455 -0.175873,0.13485 -0.504286,-0.0383 z m -1.47851,-0.78135 c -0.235427,-0.12314 -0.334929,-0.22175 -0.2927,-0.29007 0.04833,-0.0782 0.161796,-0.0585 0.463941,0.0805 0.364521,0.1677 0.46956,0.31595 0.264811,0.37374 -0.04366,0.0123 -0.239879,-0.0615 -0.436052,-0.16415 z m -1.484823,-0.74243 c -0.174625,-0.0922 -0.3175,-0.22703 -0.3175,-0.29965 0,-0.0726 0.02857,-0.11661 0.0635,-0.0978 0.03493,0.0188 0.225425,0.104 0.423333,0.18923 0.197909,0.0852 0.359834,0.20633 0.359834,0.26912 0,0.15552 -0.152377,0.13797 -0.529167,-0.0609 z m -1.469437,-0.73862 c -0.144615,-0.0795 -0.247436,-0.18858 -0.228491,-0.24231 0.04559,-0.12931 0.701025,0.13968 0.702234,0.28819 0.0012,0.14317 -0.158053,0.12775 -0.473743,-0.0459 z m -1.515063,-0.76389 c -0.232833,-0.12507 -0.433755,-0.23147 -0.446493,-0.23644 -0.01274,-0.005 -0.0014,-0.0658 0.02526,-0.13524 0.0399,-0.10398 0.137014,-0.08 0.551581,0.13604 0.45851,0.23898 0.582635,0.38632 0.372355,0.44202 -0.04366,0.0116 -0.269875,-0.0813 -0.502708,-0.20638 z m -1.5875,-0.82878 c -0.221192,-0.11341 -0.402167,-0.23721 -0.402167,-0.27513 0,-0.1725 0.135678,-0.15946 0.497981,0.0479 0.49601,0.28385 0.478454,0.26758 0.385375,0.35728 -0.04726,0.0455 -0.240672,-0.007 -0.481189,-0.13003 z m -1.427394,-0.70478 c -0.2489,-0.11123 -0.284777,-0.15596 -0.193472,-0.24125 0.08952,-0.0836 0.16269,-0.0739 0.363428,0.0481 0.354311,0.21547 0.220453,0.36756 -0.169956,0.19311 z m 50.819529,10.67734 c -0.0969,-0.0148 -0.31977,0.0784 -0.49537,0.207 -0.52625,0.3854 -0.5149,0.39813 0.0914,0.10256 0.41593,-0.20274 0.53021,-0.29032 0.40393,-0.30956 z m 1.69042,-2.17087 c 0.96025,-0.14475 1.93906,-0.48599 2.90616,-1.01316 2.75847,-1.50364 5.45091,-4.82081 7.08354,-8.72715 1.31882,-3.15551 1.95757,-6.26472 1.9742,-9.60966 0.0156,-3.1287 -0.0487,-3.86068 -0.49369,-5.62748 -0.64899,-2.57654 -1.89712,-4.71074 -3.50073,-5.98597 l -0.6532,-0.51944 -0.0623,0.49961 c -0.0343,0.27479 -0.25333,2.27126 -0.48682,4.43661 -0.23351,2.16535 -0.46069,4.26924 -0.50487,4.67531 -0.0802,0.73687 -0.0797,0.73956 0.21157,1.37009 0.32897,0.71198 0.60699,1.77119 0.68001,2.5906 0.027,0.30268 0.0607,0.66463 0.0749,0.80433 0.0142,0.1397 0.0302,0.52411 0.0355,0.85425 0.009,0.54944 0.0271,0.6082 0.21594,0.69423 0.17204,0.0784 0.21257,0.0701 0.24418,-0.0499 0.0208,-0.0791 0.0423,0.001 0.0477,0.1786 0.005,0.17737 -0.0247,0.30114 -0.0669,0.27505 -0.0422,-0.0261 -0.0568,0.0289 -0.0324,0.12228 0.14118,0.53989 -0.6495,3.35055 -1.35758,4.82584 -0.81833,1.70495 -2.22362,3.44816 -3.36363,4.17242 -2.49859,1.5874 -4.83639,0.94568 -6.16599,-1.69255 -0.19687,-0.39064 -0.21982,-0.48269 -0.10221,-0.41001 0.0426,0.0263 0.0967,0 0.12031,-0.0585 0.0251,-0.0623 0.0456,-0.043 0.0496,0.0468 0.004,0.0842 0.0448,0.12962 0.0913,0.10084 0.0466,-0.0288 0.0847,-0.008 0.0847,0.0472 0,0.0579 0.0709,0.081 0.16933,0.0553 0.0931,-0.0244 0.16934,-0.006 0.16934,0.0415 0,0.0472 0.0559,0.0643 0.12429,0.0381 0.0684,-0.0262 0.14395,-0.0159 0.16801,0.0231 0.0709,0.11473 0.39488,0.17626 0.32712,0.0621 -0.26823,-0.45178 -0.61202,-0.88263 -0.66571,-0.83428 -0.036,0.0324 -0.0417,0.0171 -0.0125,-0.0341 0.0292,-0.0512 -0.0626,-0.3683 -0.20391,-0.70465 -0.49986,-1.18969 -0.76599,-3.43373 -0.59269,-4.9976 0.0374,-0.33753 0.0209,-0.75698 -0.0433,-1.09849 -0.0571,-0.30386 -0.0819,-0.58791 -0.0551,-0.63123 0.0268,-0.0433 0.003,-0.0506 -0.0525,-0.0162 -0.0711,0.044 -0.0882,0.004 -0.0576,-0.13509 0.0239,-0.10868 0.12196,-0.53915 0.21779,-0.95661 0.26258,-1.14374 0.0776,-1.68701 -0.29866,-0.87707 -0.17953,0.38648 -0.20723,0.41453 -0.19429,0.19675 0.008,-0.1397 -0.0136,-0.34048 -0.0488,-0.44619 -0.039,-0.11729 -0.009,-0.35636 0.076,-0.61347 0.11636,-0.3503 0.12269,-0.47352 0.0376,-0.73132 l -0.10232,-0.31003 -0.20026,0.33084 c -0.18274,0.30188 -0.20047,0.31231 -0.20256,0.11917 -0.001,-0.11641 -0.0769,-0.37597 -0.168,-0.5768 -0.0911,-0.20082 -0.16199,-0.39132 -0.15745,-0.42333 0.005,-0.032 9.3e-4,-0.0772 -0.008,-0.10053 -0.009,-0.0233 -0.0335,-0.13593 -0.0545,-0.25033 -0.021,-0.11439 -0.0658,-0.22869 -0.0995,-0.254 -0.0642,-0.0481 -0.11744,-0.21064 -0.14047,-0.42849 -0.007,-0.0707 -0.0436,-0.17707 -0.0803,-0.23645 -0.0576,-0.0932 -0.11832,-0.52629 -0.13278,-0.9474 -0.002,-0.0699 -0.0996,-0.2377 -0.21592,-0.373 -0.212948,-0.24761 -0.24916,-0.38783 -0.220704,-0.85467 0.0085,-0.1397 -0.05513,-0.46023 -0.141435,-0.7123 l -0.156913,-0.45829 -0.174235,0.24663 c -1.000574,1.41634 -2.419477,5.11742 -2.902264,7.5703 -0.410498,2.08559 -0.468393,2.6996 -0.467013,4.953 0.0014,2.32323 0.09018,3.10549 0.552137,4.86625 1.229479,4.68622 4.120017,7.48127 7.870857,7.61085 0.16299,0.006 0.66161,-0.0448 1.10806,-0.11213 z m -2.63913,-0.76753 c -2.26564,-0.5501 -4.134632,-2.59797 -5.130287,-5.62127 -0.34163,-1.03737 -0.702995,-2.68173 -0.703969,-3.20334 -0.0012,-0.61498 0.19685,-0.4315 0.365447,0.33867 0.08411,0.38417 0.287274,1.11607 0.451485,1.62643 1.159806,3.60464 3.707774,5.80307 6.725744,5.80307 2.16209,0 4.17788,-0.96171 6.13543,-2.92714 2.15614,-2.16482 3.72166,-4.9984 4.828,-8.73865 0.25378,-0.85797 0.42896,-0.94515 0.28287,-0.14076 -0.13613,0.74951 -0.9391,3.1001 -1.43384,4.19735 -2.02873,4.49936 -5.3754,7.83941 -8.63882,8.62171 -0.83929,0.20119 -2.15196,0.2212 -2.88206,0.0439 z m 0.46741,-1.56116 c -0.1892,-0.0405 -0.57727,-0.1685 -0.86237,-0.28435 -2.11284,-0.85852 -3.739765,-3.18614 -4.374342,-6.25833 -0.165582,-0.80162 -0.16731,-0.87172 -0.01784,-0.72225 0.06404,0.0641 0.359317,0.18587 0.656167,0.27071 0.296841,0.0849 0.659773,0.20662 0.806509,0.2706 0.146744,0.064 0.324688,0.11634 0.395444,0.11634 0.07684,0 0.151912,0.1108 0.186412,0.27516 0.10959,0.52196 0.71575,1.97023 1.08968,2.6035 1.73375,2.93625 4.82524,3.67879 7.65981,1.83979 0.88938,-0.57701 2.2895,-2.01455 3.03421,-3.1153 1.28253,-1.89568 2.09274,-3.86571 2.78339,-6.76782 0.10529,-0.44238 0.19454,-0.74173 0.19834,-0.66522 0.004,0.0765 0.0597,0.15935 0.12419,0.1841 0.14613,0.0561 0.0803,0.44936 -0.28548,1.70493 -1.53138,5.25693 -4.85504,9.26597 -8.63712,10.41817 -0.5347,0.16289 -2.23032,0.24283 -2.757,0.12997 z m 1.29842,-1.40494 c -1.51257,-0.36666 -2.76237,-1.65067 -3.52102,-3.61741 -0.45016,-1.16698 -0.47647,-1.29465 -0.2668,-1.29465 0.0915,0 0.1664,0.0258 0.1664,0.0574 0,0.0315 0.0934,0.0808 0.20763,0.10946 0.15118,0.0379 0.27751,0.19853 0.46468,0.59072 0.63136,1.3229 1.48014,2.24661 2.51791,2.74021 1.28088,0.60923 2.43336,0.58175 3.78715,-0.0903 2.63764,-1.3094 4.79275,-4.69327 5.63743,-8.85166 0.23893,-1.17623 0.3392,-1.50895 0.3392,-1.1255 0,0.10662 0.0532,0.18345 0.127,0.18345 0.18461,0 0.16179,0.28834 -0.12397,1.56641 -0.72798,3.25594 -2.09978,5.8879 -4.04008,7.75134 -1.77683,1.70645 -3.6053,2.39032 -5.29553,1.98059 z m -3.41082,-4.54144 c 0.046,-0.0334 0.003,-0.0546 -0.0965,-0.0472 -0.11262,0.008 -0.16383,0.056 -0.13664,0.1269 0.0239,0.0623 0.0674,0.0836 0.0965,0.0472 0.0292,-0.0364 0.0907,-0.0935 0.13665,-0.1269 z m 0.84425,-0.0739 c -0.0307,-0.0497 -0.0376,-0.10846 -0.0155,-0.13065 0.0222,-0.0222 0.0629,0.0184 0.0905,0.0903 0.0573,0.14919 0.008,0.17543 -0.075,0.0403 z m -0.14805,-0.4177 c -0.0243,-0.0931 -0.01,-0.16933 0.0325,-0.16933 0.0422,0 0.0767,0.0762 0.0767,0.16933 0,0.0931 -0.0146,0.16933 -0.0325,0.16933 -0.0179,0 -0.0524,-0.0762 -0.0767,-0.16933 z m -4.951159,-1.69333 c 0,-0.16299 0.01742,-0.22966 0.03872,-0.14817 0.0213,0.0815 0.0213,0.21484 0,0.29633 -0.02129,0.0815 -0.03872,0.0148 -0.03872,-0.14816 z m 0.156371,0.0353 c 0.0041,-0.0986 0.02413,-0.1187 0.05116,-0.0512 0.02446,0.0611 0.02145,0.13415 -0.0067,0.16228 -0.02814,0.0281 -0.04815,-0.0219 -0.04448,-0.11112 z m 4.565318,-5.41162 c 0,-0.0699 0.015,-0.127 0.0333,-0.127 0.0183,0 0.0552,0.0572 0.082,0.127 0.0268,0.0699 0.0118,0.127 -0.0333,0.127 -0.0451,0 -0.082,-0.0572 -0.082,-0.127 z m 4.98522,9.38908 c 0.0177,-0.015 -0.19183,-0.0238 -0.46567,-0.0196 -0.32186,0.005 -0.43801,0.03 -0.32855,0.071 0.15031,0.0562 0.70992,0.02 0.79422,-0.0514 z m -2.36055,-0.62608 c -0.16581,-0.10715 -0.27789,-0.10715 -0.21167,0 0.0288,0.0466 0.11676,0.0841 0.1955,0.0834 0.12338,-10e-4 0.12562,-0.0126 0.0162,-0.0834 z m -9.571009,-6.05421 c 0.324993,-4.48146 1.544345,-8.48259 3.753713,-12.31727 0.281331,-0.4883 0.510549,-0.92645 0.509363,-0.97367 -0.0019,-0.0761 -0.854388,-2.36149 -1.042661,-2.79518 -0.0672,-0.15481 -1.884994,-4.93566 -2.253454,-5.92667 -0.08657,-0.23283 -0.149395,-0.44839 -0.139616,-0.47901 0.03507,-0.10982 -0.865039,-0.26514 -7.724004,-1.33279 -4.329182,-0.67387 -7.229222,-1.12494 -9.313334,-1.44858 -1.164166,-0.18078 -2.745316,-0.42644 -3.513666,-0.54592 -2.73709,-0.42561 -4.885807,-0.2272 -7.056261,0.65159 -2.647882,1.0721 -4.902172,3.01915 -6.439098,5.56151 -1.161152,1.92076 -1.912016,4.46498 -2.163234,7.32987 -0.07806,0.89017 -0.05554,2.80309 0.04243,3.60665 l 0.05779,0.47398 35.123051,9.44654 c 0,0 0.07093,-0.0368 0.158979,-1.25099 z m 2.15734,-25.11257 c -0.48089,-1.21593 -0.895274,-2.23171 -0.920852,-2.25729 -0.02559,-0.0256 -5.676002,-1.06679 -12.556496,-2.31379 -6.880492,-1.24701 -12.631829,-2.28998 -12.78075,-2.31772 -0.253292,-0.0472 -0.274011,-0.0325 -0.321065,0.22774 -0.078,0.43135 -0.62161,5.35491 -0.594439,5.38388 0.01326,0.0141 0.361796,-0.0334 0.774523,-0.10557 1.37286,-0.24014 2.902437,-0.18084 5.40708,0.2096 1.210733,0.18874 3.191933,0.49731 4.402666,0.68571 1.210734,0.1884 3.153834,0.49218 4.318,0.67508 1.164167,0.18289 2.250017,0.35 2.413,0.37136 0.162984,0.0214 1.363134,0.20849 2.667,0.41583 1.303867,0.20735 3.056467,0.48007 3.894667,0.60604 0.8382,0.12597 2.0193,0.31432 2.624667,0.41856 0.605366,0.10423 1.200946,0.19443 1.323509,0.20043 l 0.222834,0.0109 z"
         id="path306"
         sodipodi:nodetypes="ssssscssssccccsssssssssscsssssssscsssscssscssssssssssssssssscscssscsssscccssssccsscssssscssssssssscssssssscssscsssssssssssssssssscssssssssssscsscssscsssssssssssssscssscssssssssssssssssssscsssssccsssssssscsccccsscccssccsccsscsscsscscssssccsscssccsssssscssscccscscsccsccsccsscsssscccsscsssssssssscssccssssssscscsccssssssssssssccscscssccsccssssssssscssccsscsssccssscsssssssssssssssccsssssssscssscsssscs" /><path
         style="display:inline;fill:#ffff01;fill-opacity:1;stroke-width:0.0846667"
         d="m 105.46378,155.0737 c -1.15675,-0.30818 -2.14393,-1.46827 -2.6948,-3.1668 -0.59922,-1.84759 -0.67991,-3.91101 -0.12644,-6.29793 0.55347,-2.38692 1.75427,-4.85375 1.75427,-4.85375 0,0 -4.764414,-16.3936 -6.337182,-18.75888 -0.122436,-0.11839 -27.537969,-5.19492 -27.619293,-5.11359 -0.07567,0.0757 -0.14556,0.59572 -0.450561,3.35252 -0.141295,1.27713 -0.268403,2.33355 -0.282461,2.34761 -0.01406,0.0141 -0.35356,0.12061 -0.75445,0.23678 -0.908248,0.2632 -2.033692,0.74665 -2.843881,1.22163 -1.427703,0.83699 -3.099359,2.30651 -4.033457,3.54573 -0.269331,0.35731 -0.356158,0.42378 -0.441741,0.3382 -0.09601,-0.096 -1.655689,-4.11884 -3.668355,-9.46166 -0.412234,-1.09432 -0.944059,-2.50081 -1.181834,-3.12553 -0.237774,-0.62473 -0.402437,-1.16267 -0.365916,-1.19543 0.03652,-0.0328 1.056999,-0.21674 2.267733,-0.40885 1.210733,-0.19211 4.011083,-0.63881 6.223,-0.99266 2.211916,-0.35386 4.440766,-0.70262 4.953,-0.77504 l 0.931333,-0.13167 1.735667,0.27185 c 1.978044,0.30982 10.777866,1.70896 13.885333,2.20773 1.140883,0.18312 3.293533,0.52637 4.783667,0.76279 2.774416,0.44017 6.366349,1.01293 15.155338,2.41661 2.74743,0.43879 5.35728,0.87427 5.79966,0.96773 0.44239,0.0935 1.01697,0.20981 1.27684,0.25856 l 0.47251,0.0886 0.0183,0.82248 c 0.0119,0.53427 -0.14463,2.3355 -0.44662,5.14047 -0.25567,2.3749 -0.50329,4.67995 -0.55024,5.12233 -0.0469,0.44238 -0.14363,1.29963 -0.21484,1.905 -0.33987,2.88928 -0.90741,8.2135 -0.95218,8.93251 -0.0448,0.71864 -0.0275,0.86776 0.16147,1.397 0.35703,0.99984 0.44715,1.66213 0.43778,3.21716 -0.01,1.62069 -0.1646,2.56521 -0.6683,4.07681 -1.01056,3.03272 -3.02796,5.335 -4.99007,5.69474 -0.61485,0.11274 -0.65345,0.11139 -1.23328,-0.0431 z"
         id="path302"
         sodipodi:nodetypes="cszccssssssssscssscsssscccsscscscsscc" /><path
         style="display:inline;fill:#aba400;fill-opacity:1;stroke-width:0.0846667"
         d="m 96.951241,123.80635 c 0,0 -0.941984,-2.38596 -1.088644,-2.48388 -0.05124,-0.0342 0.254415,-0.0628 0.679222,-0.0635 l 0.772388,-0.001 0.354695,0.3848 c 0.19508,0.21164 0.467901,0.63712 0.606264,0.9455 0.138362,0.30839 0.417559,0.83055 0.620437,1.16037 0.262094,0.42609 0.99883,2.25393 2.545227,6.31466 1.19699,3.14325 4.91924,16.61198 4.91924,16.61198 z m -35.253872,4.18222 c 0.01112,-0.0466 -0.07546,-0.29422 -0.192381,-0.55033 -0.116925,-0.25612 -0.393914,-0.98002 -0.615532,-1.60867 -0.221616,-0.62865 -0.708395,-1.9431 -1.081729,-2.921 -1.274529,-3.33846 -1.332999,-3.53203 -0.961417,-3.18295 0.217057,0.20391 0.508219,0.84086 1.067961,2.33628 0.889029,2.37516 1.231125,2.92137 1.829168,2.92056 0.393731,-5.1e-4 0.591183,-0.12141 1.402619,-0.85862 0.753663,-0.68472 1.935543,-1.48392 3.096023,-2.09356 1.509969,-0.79325 2.235893,-1.62873 2.365426,-2.72243 0.0674,-0.56907 -0.07605,-0.86244 -0.595962,-1.21884 -0.579242,-0.39708 -0.617006,-0.40758 -3.06077,-0.85066 -1.164167,-0.21108 -2.459567,-0.44698 -2.878667,-0.52422 -0.4191,-0.0772 -1.077057,-0.24645 -1.462127,-0.37601 -0.385069,-0.12957 -1.032769,-0.29781 -1.439333,-0.37387 -0.748474,-0.14003 -1.230992,-0.35865 -1.323472,-0.59965 -0.09791,-0.25516 -0.04833,-0.37637 0.224432,-0.54862 0.23918,-0.15104 0.361811,-0.16716 0.937679,-0.12325 3.834546,0.72977 11.398342,2.1977 11.398342,2.1977 l -0.649268,5.69829 c 0,0 -0.375419,0.14066 -1.07061,0.36898 -2.061271,0.677 -4.014909,1.91879 -5.599609,3.55927 -0.465667,0.48206 -0.871587,0.86878 -0.902046,0.85939 -0.03046,-0.009 -0.106659,0.0462 -0.169334,0.12346 -0.0802,0.0989 -0.08261,0.12171 -0.0081,0.077 0.187157,-0.11244 0.112803,0.0797 -0.112808,0.29149 -0.120254,0.11289 -0.209548,0.16716 -0.198432,0.12059 z M 98.478775,117.7411 c -0.465667,-0.0617 -1.684867,-0.24864 -2.709333,-0.41543 -1.024467,-0.16679 -2.472267,-0.40039 -3.217334,-0.51911 -0.745066,-0.11872 -1.811866,-0.28915 -2.370666,-0.37875 -2.995007,-0.48018 -7.703019,-1.2309 -9.525,-1.51882 -1.140884,-0.18028 -3.293534,-0.52462 -4.783667,-0.7652 -3.980244,-0.64259 -4.832849,-0.75766 -5.630333,-0.75989 -0.877099,-0.002 -2.838251,-0.30503 -3.683,-0.56825 -0.147573,-0.046 -0.136691,-0.062 0.08467,-0.1248 1.45497,-0.3151 2.59559,-0.48755 4.140038,-0.73045 l 36.1613,5.78302 -0.84666,0.0516 c -1.6398,0.0998 -6.731454,0.0639 -7.620005,-0.0539 z"
         id="path304"
         sodipodi:nodetypes="csccsssscccssssssssssscsssscccsscscsccssscsscsccccss" /></g></g></svg>
