<?xml version="1.0" encoding="UTF-8" standalone="no"?>
<svg
   version="1.1"
   viewBox="0 0 472.44095 332.59843"
   id="svg12086"
   sodipodi:docname="picnic_table.svg"
   width="125mm"
   height="88mm"
   inkscape:version="1.2.2 (732a01da63, 2022-12-09)"
   xmlns:inkscape="http://www.inkscape.org/namespaces/inkscape"
   xmlns:sodipodi="http://sodipodi.sourceforge.net/DTD/sodipodi-0.dtd"
   xmlns="http://www.w3.org/2000/svg"
   xmlns:svg="http://www.w3.org/2000/svg">
  <defs
     id="defs12090" />
  <sodipodi:namedview
     id="namedview12088"
     pagecolor="#505050"
     bordercolor="#eeeeee"
     borderopacity="1"
     inkscape:showpageshadow="0"
     inkscape:pageopacity="0"
     inkscape:pagecheckerboard="0"
     inkscape:deskcolor="#505050"
     showgrid="false"
     inkscape:zoom="0.439"
     inkscape:cx="645.78588"
     inkscape:cy="322.32346"
     inkscape:current-layer="svg12086"
     inkscape:document-units="mm" />
  <g
     transform="matrix(0.52191349,0,0,0.52191349,-24.388131,-119.10033)"
     id="g12084">
    <g
       transform="matrix(1.1285,0,0,1.1285,96.951,-12.96)"
       stroke="#000000"
       stroke-linecap="round"
       stroke-linejoin="round"
       stroke-width="0.5"
       id="g12082">
      <path
         d="m 425.22,375.45 19.008,1.1644 -41.839,111.02 -19.312,-2.6569 z"
         fill="#624521"
         id="path11984" />
      <path
         d="m 444.22,376.61 8.9479,0.54825 -41.434,111.76 -9.3527,-1.2867 z"
         fill="#624521"
         id="path11986" />
      <path
         d="m 441.44,493.01 -16.736,3.1228 -369.77,-52.229 7.6149,-3.0194 z"
         fill="#805a2a"
         id="path11988" />
      <path
         d="M 424.7,537.25 54.93,472.916 V 443.9 l 369.77,52.229 z"
         fill="#543b1c"
         id="path11990" />
      <path
         d="m 6.7978,445.69 v 9.4656 l 402.74,-51.774 -4.0263,-2.831 z"
         fill="#805a2a"
         id="path11992" />
      <path
         d="m 344.62,410.39 -2.3998,2.013 344.44,36.928 9.3222,-1.7968 z"
         fill="#805a2a"
         id="path11994" />
      <path
         d="m 686.66,449.33 v 31.797 L 334.7,436.163 v -24.567 z"
         fill="#543b1c"
         id="path11996" />
      <path
         d="m 36.973,450.27 2e-5,9.7695 413.55,-49.854 -0.75413,-7.6718 z"
         fill="#805a2a"
         id="path11998" />
      <path
         d="m 453.17,357.09 3e-5,20.069 -148.45,-9.0946 v -5.7675 l 115.82,-7.352 z"
         fill="#543b1c"
         id="path12000" />
      <path
         d="m 90.833,349.86 441.18,-19.291 28.507,0.97208 -469.68,29.18 z"
         fill="#805a2a"
         id="path12002" />
      <path
         d="m 129.94,351.29 430.58,-19.754 32.191,1.0977 -462.77,30.162 z"
         fill="#805a2a"
         id="path12004" />
      <path
         d="m 173.32,352.88 419.39,-20.249 39.222,1.3375 -458.61,31.132 z"
         fill="#805a2a"
         id="path12006" />
      <path
         d="m 54.932,348.54 442.96,-19.137 34.117,1.1634 -441.18,19.291 z"
         fill="#805a2a"
         id="path12008" />
      <path
         d="m 95.836,350.04 436.17,-19.475 28.507,0.97208 -430.58,19.754 z"
         fill="#805a2a"
         id="path12010" />
      <path
         d="m 134.39,351.46 426.12,-19.918 32.191,1.0977 -419.39,20.249 z"
         fill="#805a2a"
         id="path12012" />
      <path
         d="m 176.45,353 44.318,1.6263 411.16,-20.652 -39.222,-1.3375 z"
         fill="#805a2a"
         id="path12014" />
      <path
         d="m 54.932,348.54 v 10.404 l 35.9,1.7739 1e-5,-10.86 z"
         fill="#543b1c"
         id="path12016" />
      <path
         d="m 95.836,350.04 -1e-5,10.943 34.104,1.8142 v -11.505 z"
         fill="#543b1c"
         id="path12018" />
      <path
         d="m 134.39,351.46 v 11.579 l 38.922,2.0705 -4e-5,-12.221 z"
         fill="#543b1c"
         id="path12020" />
      <path
         d="m 176.45,353 -2e-5,12.273 44.318,2.3576 v -13.004 z"
         fill="#543b1c"
         id="path12022" />
      <path
         d="m 220.76,354.62 v 13.004 l 411.16,-26.098 v -7.5588 z"
         fill="#725025"
         id="path12024" />
      <path
         d="m 115.33,362.02 v 16.831 l 163.17,13.602 v -28.49 l -57.739,3.665 z"
         fill="#543b1c"
         id="path12026" />
      <path
         d="m 584.11,365.7 2e-5,-7.5378 12.336,-1.028 -1.458,7.6135 64.082,202.48 -10.133,3.6378 z"
         fill="#805a2a"
         id="path12028" />
      <path
         d="m 584.11,344.57 -2e-5,21.133 -163.57,-10.751 z"
         fill="#543b1c"
         id="path12030" />
      <path
         d="m -20.484,441.56 27.282,4.1364 410.22,-46.396 -21.817,-2.1416 z"
         fill="#805a2a"
         id="path12032" />
      <path
         d="m 9.5077,446.1 27.465,4.1642 412.79,-47.756 -30.226,-2.967 z"
         fill="#805a2a"
         id="path12034" />
      <path
         d="m 216.57,463.68 16.129,2.4048 131.98,-107.59 -19.096,1.2121 z"
         fill="#543b1c"
         id="path12036" />
      <path
         d="m 453.17,357.09 v 20.069 l 20.032,-1.7537 v -16.999 z"
         fill="#805a2a"
         id="path12038" />
      <path
         d="m 384.6,376.85 -5.844,4.9021 104.35,73.374 16.231,2.0736 v -0.87011 z"
         fill="#543b1c"
         id="path12040" />
      <path
         d="m 232.7,466.09 5.9649,-0.75208 34.397,5.0761 115.86,-97.188 -13.881,-0.85041 v -14.539 l -10.363,0.65778 z"
         fill="#624521"
         id="path12042" />
      <path
         d="m 382.38,666.56 -16.45,5.9059 -86.238,-288.94 20.111,-1.6759 -0.7086,8.7972 z"
         fill="#805a2a"
         id="path12044" />
      <path
         d="m 254.21,390.43 24.291,2.0264 3.7585,-0.32903 83.672,280.34 -30.835,-9.2941 z"
         fill="#543b1c"
         id="path12046" />
      <path
         d="m 558.36,364.01 25.747,1.6923 64.827,205.16 -26.794,-4.3715 z"
         fill="#543b1c"
         id="path12048" />
      <path
         d="m 291.87,488.91 v 12.336 l 391.25,-74.914 -0.0653,-0.92575 z"
         fill="#725025"
         id="path12050" />
      <path
         d="m 499.35,429.25 2.2637,-1.4968 -69.722,-51.891 -42.969,-2.6324 -4.3148,3.6193 114.74,79.48 z"
         fill="#805a2a"
         id="path12052" />
      <path
         d="m 686.66,449.33 9.3222,-1.7968 v 31.596 l -9.3222,1.9973 z"
         fill="#805a2a"
         id="path12054" />
      <path
         d="m 255.13,483.34 36.745,5.5711 391.19,-63.503 -24.88,-2.4422 z"
         fill="#805a2a"
         id="path12056" />
      <path
         d="m 294.5,489.31 53.821,8.1602 386.44,-66.986 -48.114,-4.7229 z"
         fill="#805a2a"
         id="path12058" />
      <path
         d="m 255.13,483.34 v 11.966 l 36.745,5.9412 v -12.336 z"
         fill="#543b1c"
         id="path12060" />
      <path
         d="m 294.5,489.31 v 12.363 l 53.821,8.7021 v -12.905 z"
         fill="#543b1c"
         id="path12062" />
      <path
         d="m 348.33,510.38 386.44,-72.107 -2e-5,-7.7839 -386.44,66.986 z"
         fill="#725025"
         id="path12064" />
      <path
         d="m 69.361,583.07 19.744,5.9635 51.116,-208.12 -19.497,-1.6264 z"
         fill="#543b1c"
         id="path12066" />
      <path
         d="m 140.22,380.92 17.819,1.4865 -51.219,203.17 -17.713,3.455 z"
         fill="#624521"
         id="path12068" />
      <path
         d="m -20.484,441.56 -10e-6,9.1909 27.282,4.4111 2e-5,-9.4656 z"
         fill="#624521"
         id="path12070" />
      <path
         d="m 9.5077,446.1 v 9.4929 l 27.465,4.4407 v -9.7695 z"
         fill="#624521"
         id="path12072" />
      <path
         d="m 6.7978,445.69 v 9.4656"
         fill="#805a2a"
         id="path12074" />
      <path
         d="m 278.5,364.16 10e-6,28.289 9.0233,-0.78994 -2.0961,-8.6122 13.527,-1.1273 -1.5451,8.874 7.3051,-0.63953 v -27.859 z"
         fill="#805a2a"
         id="path12076" />
      <path
         d="m 584.11,344.57 v 21.133 l 5.3153,-0.46533 -1.8964,-7.3574 8.5219,-0.71015 -1.1087,7.5846 4.035,-0.35324 v -20.776 z"
         fill="#805a2a"
         id="path12078" />
      <path
         d="m 441.44,493.01 -16.736,3.1228 v 41.121 l 16.736,-3.5857 z"
         fill="#805a2a"
         id="path12080" />
    </g>
  </g>
</svg>
