<?xml version="1.0" encoding="UTF-8" standalone="no"?>
<svg
   viewBox="0 0 472.44095 332.59843"
   version="1.1"
   id="svg45"
   sodipodi:docname="plug.svg"
   width="125mm"
   height="88mm"
   inkscape:version="1.2.2 (732a01da63, 2022-12-09)"
   xmlns:inkscape="http://www.inkscape.org/namespaces/inkscape"
   xmlns:sodipodi="http://sodipodi.sourceforge.net/DTD/sodipodi-0.dtd"
   xmlns:xlink="http://www.w3.org/1999/xlink"
   xmlns="http://www.w3.org/2000/svg"
   xmlns:svg="http://www.w3.org/2000/svg">
  <sodipodi:namedview
     id="namedview47"
     pagecolor="#505050"
     bordercolor="#eeeeee"
     borderopacity="1"
     inkscape:showpageshadow="0"
     inkscape:pageopacity="0"
     inkscape:pagecheckerboard="0"
     inkscape:deskcolor="#505050"
     showgrid="false"
     inkscape:zoom="2.308409"
     inkscape:cx="271.39904"
     inkscape:cy="157.03456"
     inkscape:current-layer="svg45"
     inkscape:document-units="mm" />
  <defs
     id="defs23">
    <linearGradient
       id="a">
      <stop
         stop-color="#bec200"
         offset="0"
         id="stop2" />
      <stop
         stop-color="#7f8100"
         offset="1"
         id="stop4" />
    </linearGradient>
    <linearGradient
       id="b">
      <stop
         offset="0"
         id="stop7" />
      <stop
         stop-color="#616161"
         offset="1"
         id="stop9" />
    </linearGradient>
    <linearGradient
       id="e"
       x1="373"
       x2="383"
       y1="379.35999"
       y2="362.35999"
       gradientUnits="userSpaceOnUse">
      <stop
         offset="0"
         id="stop12" />
      <stop
         stop-color="#aaacaf"
         offset="1"
         id="stop14" />
    </linearGradient>
    <linearGradient
       id="i"
       x1="359"
       x2="360"
       y1="359.35999"
       y2="355.35999"
       gradientUnits="userSpaceOnUse"
       xlink:href="#a" />
    <linearGradient
       id="h"
       x1="352"
       x2="355"
       y1="352.35999"
       y2="347.35999"
       gradientUnits="userSpaceOnUse"
       xlink:href="#a" />
    <linearGradient
       id="g"
       x1="342"
       x2="344"
       y1="371.35999"
       y2="366.35999"
       gradientUnits="userSpaceOnUse"
       xlink:href="#a" />
    <linearGradient
       id="f"
       x1="405"
       x2="382"
       y1="360.35999"
       y2="406.35999"
       gradientUnits="userSpaceOnUse"
       xlink:href="#b" />
    <linearGradient
       id="d"
       x1="370"
       x2="395"
       y1="372.35999"
       y2="347.35999"
       gradientUnits="userSpaceOnUse"
       xlink:href="#b" />
    <linearGradient
       id="c"
       x1="378"
       x2="370"
       y1="376.35999"
       y2="397.35999"
       gradientUnits="userSpaceOnUse"
       xlink:href="#b" />
  </defs>
  <g
     transform="matrix(4.2663053,0,0,4.2663053,-2031.9386,-748.64666)"
     id="g43">
    <g
       transform="matrix(0.32633,0,0,0.32633,368.24,78.878)"
       id="g39">
      <path
         d="m 356,353.36 30,15 v 8 l -30,-15 z"
         fill="url(#i)"
         id="path25"
         style="fill:url(#i)" />
      <path
         d="m 347,343.4 2.1116,1.0182 25.888,12.944 v 5 l -28,-14 -2,-1 c -1,-2 -1,-4 2,-3.9624 z"
         fill="url(#h)"
         id="path27"
         style="fill:url(#h)" />
      <path
         d="m 335,362.36 30,15 v 8 l -30,-15 z"
         fill="url(#g)"
         id="path29"
         style="fill:url(#g)" />
      <path
         d="m 361,352.38 -1,2 v 8 l 40,20 7,3.9872 3,4 v 17 l 8,4 2,-1 v -25.987 l -1,-2 -3,-2 -55,-28 z"
         fill="url(#f)"
         id="path31"
         style="fill:url(#f)" />
      <path
         d="m 360,362.38 -8,4 38,21 v 20 l 8,4 3,0.98718 3,-0.98718 6,-4 v -17 l -3,-4 -7,-4 z"
         fill="url(#e)"
         id="path33"
         style="fill:url(#e)" />
      <path
         d="m 368,348.38 -6,3 -1,1 49,25 9,5 1,2 v 26 l 10,-8 v -23 l -1,-2 -9,-5 -48,-24 z"
         fill="url(#d)"
         id="path35"
         style="fill:url(#d)" />
      <path
         d="m 352,366.36 42,23 3,2 1,4 v 16 l -48,-24 v -18 l 1,-2 z"
         fill="url(#c)"
         id="path37"
         style="fill:url(#c)" />
    </g>
    <path
       d="m 507.26,207.65 c 25.934,14.667 22.362,18.496 2.1257,23.596 -17.643,4.464 5.5269,11.054 21.895,12.329 20.607,1.6486 9.1794,-17.507 -0.42515,-32.311 -8.7155,-18.069 9.3979,-13.14 20.407,-7.8652 10.203,4.8892 33.161,14.88 33.161,14.88"
       fill="none"
       stroke="#000000"
       stroke-linecap="round"
       stroke-width="2.611"
       id="path41" />
  </g>
</svg>
