<?xml version="1.0" encoding="UTF-8" standalone="no"?>
<!-- Created with Inkscape (http://www.inkscape.org/) -->

<svg
   width="125mm"
   height="88mm"
   viewBox="0 0 125 88"
   version="1.1"
   id="svg5"
   inkscape:version="1.2.2 (732a01da63, 2022-12-09)"
   xml:space="preserve"
   sodipodi:docname="popsicle.svg"
   xmlns:inkscape="http://www.inkscape.org/namespaces/inkscape"
   xmlns:sodipodi="http://sodipodi.sourceforge.net/DTD/sodipodi-0.dtd"
   xmlns="http://www.w3.org/2000/svg"
   xmlns:svg="http://www.w3.org/2000/svg"><sodipodi:namedview
     id="namedview7"
     pagecolor="#f0f0f0"
     bordercolor="#ffffff"
     borderopacity="1"
     inkscape:showpageshadow="0"
     inkscape:pageopacity="0"
     inkscape:pagecheckerboard="0"
     inkscape:deskcolor="#505050"
     inkscape:document-units="mm"
     showgrid="true"
     inkscape:zoom="0.7180275"
     inkscape:cx="107.93458"
     inkscape:cy="-4.8744651"
     inkscape:current-layer="layer1"><inkscape:grid
       type="xygrid"
       id="grid132"
       dotted="true"
       empspacing="10"
       units="mm"
       spacingx="1"
       spacingy="1"
       enabled="false"
       originx="-16.356264"
       originy="-108.22508" /></sodipodi:namedview><defs
     id="defs2" /><g
     inkscape:label="Layer 1"
     inkscape:groupmode="layer"
     id="layer1"
     transform="translate(-16.356265,-108.22509)"><g
       id="g244"
       transform="matrix(1.2525888,0,0,1.2525888,-4.1314089,-16.753102)"><path
         style="display:inline;fill:#ffffff;fill-opacity:1;stroke-width:0.0846667"
         d="m 107.64423,160.61979 c -2.02748,-0.38697 -3.66135,-1.03243 -7.64265,-3.01927 -2.27321,-1.13442 -2.997212,-1.51167 -6.102523,-3.1798 -3.759081,-2.01933 -4.38846,-2.34726 -6.392333,-3.33065 -2.369536,-1.16284 -3.095488,-1.47811 -3.166139,-1.37503 -0.588669,0.85889 -2.118386,2.48803 -3.136586,3.34045 -5.855231,4.90191 -14.05386,6.13599 -24.007942,3.61374 -1.128898,-0.28605 -2.507495,-0.69687 -3.852333,-1.14799 -0.889187,-0.29827 -1.130707,-0.38728 -2.794,-1.02969 -1.998042,-0.77169 -6.716787,-2.73157 -8.085667,-3.35829 -0.372533,-0.17056 -0.848783,-0.38741 -1.058333,-0.48189 -7.178857,-3.23661 -13.415489,-7.10216 -17.272,-10.70542 -4.339189,-4.05423 -6.630501,-7.88937 -7.554851,-12.6451 -0.258077,-1.32779 -0.276552,-4.4535 -0.03478,-5.88433 0.371692,-2.19973 1.177044,-4.85094 1.654464,-5.44649 1.698275,-2.11848 4.011515,-2.88751 8.698646,-2.89184 3.144945,-0.003 6.349104,-0.99123 12.137853,-3.74393 1.787849,-0.85017 2.473787,-1.01464 4.433081,-1.06292 1.899503,-0.0468 3.345676,0.15534 5.896252,0.8242 0.535517,0.14044 2.650067,0.69093 4.699,1.22332 5.552826,1.44284 7.471037,1.97578 10.244667,2.84627 4.239558,1.33058 7.063108,2.43015 10.117667,3.94012 6.148022,3.03917 10.22671,6.73948 12.404707,11.25393 1.097704,2.27527 1.636548,4.37282 1.836091,7.14733 0.114393,1.59057 0.0092,3.75366 -0.263856,5.42567 -0.08745,0.53552 -0.134315,0.99973 -0.10414,1.03157 0.09527,0.10054 3.135757,1.01269 6.574198,1.97226 1.778034,0.4962 5.453267,1.54 6.561667,1.86358 2.10482,0.61446 4.19251,1.30505 5.969,1.97449 1.69179,0.63751 1.86141,0.70891 2.77492,1.16811 2.69007,1.35224 4.42936,3.04501 5.13641,4.99904 0.23547,0.65078 0.25904,0.80962 0.25941,1.74855 0,0.89764 -0.028,1.11079 -0.21675,1.6294 -0.54799,1.50572 -1.94217,2.67971 -3.78635,3.18839 -0.79804,0.22013 -3.0276,0.28384 -3.9268,0.11222 z"
         id="path252" /><path
         style="display:inline;fill:#ffb3b3;fill-opacity:1;stroke-width:0.0846667"
         d="m 107.50579,160.50355 c -1.5852,-0.33074 -2.191,-0.5373 -4.191,-1.429 -2.23845,-0.99802 -5.378647,-2.58299 -8.763003,-4.42302 -4.359351,-2.37012 -9.822242,-5.10265 -10.037556,-5.02077 -0.03438,0.0131 -0.321785,0.34762 -0.638683,0.74343 -2.561496,3.1994 -6.229446,5.56293 -10.363428,6.67793 -1.885147,0.50845 -4.645931,0.85735 -6.773333,0.85599 -4.276634,-0.003 -9.627109,-1.05986 -14.478,-2.8605 -6.262074,-2.32447 -13.583939,-5.6097 -17.799713,-7.98653 -4.948163,-2.78974 -8.228542,-5.17692 -11.204028,-8.15333 -1.739762,-1.74031 -2.332455,-2.45269 -3.510419,-4.21934 -1.672125,-2.50775 -2.55874,-4.71408 -3.104123,-7.72455 -0.213568,-1.17888 -0.212697,-4.37949 0.0015,-5.54567 0.399681,-2.17592 0.962621,-4.19651 1.419357,-5.09455 0.226398,-0.44515 1.044642,-1.30113 1.612204,-1.68656 1.688905,-1.14691 3.145368,-1.48632 6.719546,-1.56591 2.275699,-0.0507 3.042426,-0.14999 4.826,-0.62511 1.277551,-0.34032 3.864966,-1.27985 5.23671,-1.90153 0.785083,-0.3558 1.744965,-0.80115 2.773426,-1.28676 1.646119,-0.77725 2.456439,-0.97077 4.288511,-1.0242 1.881187,-0.0549 3.295016,0.14767 6.086559,0.87192 0.612263,0.15884 1.698113,0.43819 2.413,0.62076 1.897767,0.48468 6.480148,1.68863 6.97246,1.83191 0.232834,0.0678 0.918634,0.25984 1.524,0.42684 13.870941,3.82642 21.801846,8.45436 25.698568,14.99595 2.311046,3.87965 3.09367,8.63074 2.283224,13.86088 -0.09318,0.60131 -0.159749,1.1026 -0.147938,1.11397 0.06974,0.0671 5.040334,1.51523 8.699813,2.53454 6.650156,1.85234 11.090496,3.33729 13.297686,4.44704 2.16924,1.09067 3.9841,2.72073 4.75762,4.27315 0.49089,0.98519 0.59148,1.46321 0.55507,2.63779 -0.0313,1.01051 -0.053,1.12899 -0.30593,1.67272 -0.6627,1.42452 -1.96824,2.45816 -3.69944,2.92899 -1.05264,0.28628 -2.91777,0.31034 -4.14867,0.0535 z M 27.114787,120.77414 c 0,-0.0183 -0.05715,-0.0333 -0.127,-0.0333 -0.06985,0 -0.127,0.0369 -0.127,0.082 0,0.0451 0.05715,0.0601 0.127,0.0333 0.06985,-0.0268 0.127,-0.0637 0.127,-0.082 z m -2.010833,-0.005 c -0.05821,-0.0235 -0.153458,-0.0235 -0.211667,0 -0.05821,0.0235 -0.01058,0.0427 0.105834,0.0427 0.116416,0 0.164041,-0.0192 0.105833,-0.0427 z m -0.592667,-0.0847 c -0.05821,-0.0235 -0.153458,-0.0235 -0.211666,0 -0.05821,0.0235 -0.01058,0.0427 0.105833,0.0427 0.116417,0 0.164042,-0.0192 0.105833,-0.0427 z m 3.257903,0.005 c -0.02813,-0.0281 -0.101159,-0.0311 -0.162278,-0.007 -0.06754,0.027 -0.04748,0.0471 0.05115,0.0511 0.08925,0.004 0.139259,-0.0163 0.111125,-0.0445 z m -0.146403,-0.95552 c 0.302684,-0.091 0.778934,-0.24605 1.058334,-0.34451 0.796988,-0.28085 1.300727,-0.29693 2.739272,-0.0874 0.836074,0.12177 1.530952,0.17586 1.947333,0.15157 0.578068,-0.0337 0.740492,-0.0856 1.516758,-0.48467 0.47815,-0.24581 1.24015,-0.69685 1.693333,-1.00232 1.019742,-0.68736 1.52333,-0.84998 2.940637,-0.94962 0.605367,-0.0426 1.234017,-0.11458 1.397,-0.16006 0.162983,-0.0455 0.505883,-0.10917 0.762,-0.14155 0.773601,-0.0978 1.051288,-0.29121 1.36163,-0.94828 0.148624,-0.31468 0.554113,-1.1627 0.901088,-1.88448 0.622995,-1.29597 0.630226,-1.31879 0.579909,-1.82983 -0.140245,-1.4244 -0.684729,-1.92246 -1.759949,-1.60989 -0.476305,0.13847 -1.086566,0.51262 -2.014011,1.23479 -0.302684,0.2357 -1.081373,0.70227 -1.730421,1.03684 -0.649049,0.33457 -1.366351,0.73365 -1.594005,0.88685 -0.551432,0.37109 -1.078771,0.51652 -2.11842,0.58423 -0.508288,0.0331 -1.056798,0.12487 -1.330488,0.2226 -0.914914,0.32669 -2.167748,0.66663 -3.129276,0.84907 -0.805413,0.15283 -1.311717,0.1875 -2.882057,0.19736 -1.635418,0.0103 -2.000851,0.037 -2.582333,0.18915 -0.785677,0.20553 -1.323962,0.23904 -2.338133,0.14552 -0.673148,-0.0621 -0.760648,-0.0517 -1.133363,0.13446 -0.507166,0.25329 -0.813401,0.64759 -0.864595,1.11322 -0.03327,0.30256 0.0017,0.41582 0.22128,0.71723 0.14343,0.19686 0.469045,0.52139 0.723587,0.72117 0.602205,0.47265 2.078978,1.20412 2.671557,1.32327 0.256117,0.0515 0.541867,0.11125 0.635,0.1328 0.359852,0.0832 1.801366,-0.039 2.328333,-0.19751 z m -5.418666,-0.009 c 0,-0.0466 -0.04035,-0.0847 -0.08966,-0.0847 -0.04931,0 -0.06612,0.0381 -0.03734,0.0847 0.02878,0.0466 0.06913,0.0847 0.08966,0.0847 0.02054,0 0.03734,-0.0381 0.03734,-0.0847 z m 13.546666,-0.0847 c 0.06985,-0.0451 0.0889,-0.0821 0.04233,-0.0821 -0.04657,0 -0.141817,0.0369 -0.211667,0.0821 -0.06985,0.0451 -0.0889,0.0821 -0.04233,0.0821 0.04657,0 0.141816,-0.0369 0.211667,-0.0821 z m 1.450134,-0.91016 c 0.105314,-0.13429 0.102319,-0.13728 -0.03197,-0.032 -0.141034,0.11061 -0.185884,0.18013 -0.1162,0.18013 0.01758,0 0.08426,-0.0667 0.148167,-0.14816 z M 20.05886,117.16372 c -0.02349,-0.0582 -0.0427,-0.0106 -0.0427,0.10584 0,0.11641 0.01922,0.16404 0.0427,0.10583 0.02349,-0.0582 0.02349,-0.15346 0,-0.21167 z m 1.291539,-1.98341 c 0.0194,-0.0151 -0.007,-0.0274 -0.05878,-0.0274 -0.05173,0 -0.200957,0.0987 -0.331612,0.21943 l -0.237554,0.21943 0.296333,-0.19201 c 0.162984,-0.10561 0.312209,-0.20435 0.331612,-0.21943 z m 6.675542,-0.67826 c -0.08095,-0.0212 -0.233349,-0.022 -0.338666,-0.002 -0.105318,0.0203 -0.03909,0.0376 0.147179,0.0385 0.186267,9.4e-4 0.272436,-0.0156 0.191487,-0.0368 z m 1.185334,0 c -0.08095,-0.0212 -0.233349,-0.022 -0.338667,-0.002 -0.105318,0.0203 -0.03909,0.0376 0.147179,0.0385 0.186267,9.4e-4 0.272436,-0.0156 0.191488,-0.0368 z m 16.247585,-2.75699 c -0.02349,-0.0582 -0.0427,-0.0106 -0.0427,0.10583 0,0.11642 0.01922,0.16404 0.0427,0.10583 0.02349,-0.0582 0.02349,-0.15345 0,-0.21166 z"
         id="path2762" /><path
         style="display:inline;fill:#ffe431;fill-opacity:1;stroke-width:0.0846667"
         d="m 108.29239,160.68595 c -0.69811,-0.11602 -1.95501,-0.40206 -2.5191,-0.57329 -0.62816,-0.19068 -0.8887,-0.29328 -2.60038,-1.024 -1.27745,-0.54534 -5.757722,-2.81495 -9.10452,-4.61214 -5.046353,-2.70984 -8.831794,-4.61492 -9.50639,-4.78423 -0.16799,-0.0422 -0.283616,0.0589 -0.796741,0.69645 0.34057,-0.0508 4.499071,-8.72298 4.499071,-8.72298 l -0.05726,0.35258 0.835161,0.257 c 1.549349,0.47676 2.519079,0.75951 4.983827,1.45314 5.586493,1.57217 6.406372,1.80551 7.620002,2.16868 3.92083,1.17329 7.41025,2.45044 8.93233,3.26928 2.09154,1.1252 3.86121,2.80687 4.49834,4.27466 0.39991,0.92129 0.49699,1.37362 0.49699,2.31565 0,0.95365 -0.0774,1.27289 -0.53172,2.19311 -0.41664,0.84388 -1.76097,1.94014 -2.859,2.33142 -1.04252,0.3715 -2.91702,0.56647 -3.89061,0.40467 z"
         id="path250"
         sodipodi:nodetypes="ssssccccsssssssss" /><path
         style="display:inline;fill:#ac3702;fill-opacity:1;stroke-width:0.0846667"
         d="m 84.377763,149.58789 c -0.200718,0.34088 -1.690665,2.02123 -2.34259,2.64196 -2.855362,2.71872 -6.316756,4.45504 -10.361116,5.19739 -1.981424,0.3637 -2.400163,0.39597 -5.122333,0.39474 -2.707203,-0.001 -3.329096,-0.049 -5.630334,-0.43238 -3.012443,-0.50188 -6.019734,-1.31887 -9.101666,-2.47265 -5.826866,-2.18139 -13.255436,-5.50634 -17.060334,-7.63604 -6.390087,-3.57669 -10.705357,-6.93903 -13.758221,-10.72003 -0.831697,-1.03006 -2.123279,-3.0428 -2.692392,-4.1957 -1.009905,-2.04583 -1.479575,-3.65167 -1.838388,-6.28557 -0.215237,-1.57997 -0.130814,-3.17164 0.294092,-5.54468 0.240918,-1.34549 0.953354,-3.66707 1.316694,-4.29064 0.241246,-0.41403 1.032957,-1.2217 1.538546,-1.56955 0.592873,-0.40791 1.714098,-0.90646 2.444094,-1.08677 1.150715,-0.28423 1.769383,-0.34574 4.271242,-0.42466 2.647353,-0.0835 3.318808,-0.1831 5.334,-0.7911 2.196468,-0.66268 5.120465,-1.8504 7.513123,-3.05179 1.362643,-0.6842 3.008142,-1.06889 4.573956,-1.06931 1.656986,-4.3e-4 3.492252,0.34436 7.809588,1.46724 0.62865,0.16351 1.6764,0.43602 2.328333,0.6056 2.535938,0.65961 3.18004,0.82974 4.529667,1.19643 4.678243,1.27106 7.368399,2.11612 10.757152,3.37913 13.146276,4.89972 19.461168,12.02608 19.467137,21.96867 9.32e-4,1.4738 -0.201117,3.80189 -0.410895,4.73553 -0.05294,0.23565 -0.04683,0.36399 0.01999,0.41932 0,0 -3.884756,7.46969 -3.879345,7.56486 z M 27.351057,120.91233 c 0.34925,-0.0677 0.88265,-0.22778 1.185333,-0.35565 0.48091,-0.20317 0.66248,-0.23275 1.439334,-0.23446 0.48895,-0.001 1.1557,0.0536 1.481666,0.12159 0.325967,0.068 1.011767,0.1241 1.524,0.12476 0.818978,0.001 1.003686,-0.0271 1.531063,-0.2336 0.801458,-0.31379 2.281149,-1.16132 2.913937,-1.66904 0.415129,-0.33307 1.118862,-0.50908 2.035451,-0.50908 0.469892,0 0.918876,-0.0345 0.997743,-0.0767 0.07887,-0.0422 0.595445,-0.15768 1.147951,-0.2566 1.574403,-0.28187 1.850523,-0.49943 2.532046,-1.99499 0.212202,-0.46567 0.630098,-1.3523 0.928658,-1.9703 l 0.542835,-1.12363 -0.111451,-0.75286 c -0.153525,-1.03708 -0.398858,-1.64896 -0.836709,-2.08681 -0.893697,-0.8937 -2.515983,-0.69033 -4.065851,0.5097 -0.916447,0.70958 -1.22852,0.90764 -2.310408,1.4663 -0.589562,0.30444 -1.280571,0.6863 -1.535575,0.84859 -0.366457,0.23321 -0.597174,0.31089 -1.100667,0.37058 -1.554053,0.18423 -1.916283,0.25704 -2.8778,0.57846 -1.797209,0.60079 -2.48524,0.70661 -4.701889,0.72316 -1.786891,0.0133 -2.030944,0.0336 -2.962128,0.24577 -0.695405,0.15847 -1.135087,0.21598 -1.397,0.18275 -1.179443,-0.14964 -1.342619,-0.15058 -1.82429,-0.0106 -0.973439,0.28299 -1.64174,0.87791 -1.941111,1.72799 -0.263134,0.74718 -0.100859,1.39698 0.534127,2.13882 0.732698,0.85599 2.553027,1.91457 3.761729,2.18756 0.860905,0.19444 2.244616,0.21594 3.109006,0.0483 z"
         id="path248"
         sodipodi:nodetypes="csscssssssssssssssscsscsccsscsccsssssscssssssscsscsssss" /><path
         id="path246"
         style="display:inline;fill:#000000;stroke-width:0.0846667"
         d="m 44.13064,108.35049 c -0.218289,-0.002 -0.438985,-3.3e-4 -0.664559,0.006 -1.86627,0.0497 -2.586418,0.22601 -4.346505,1.06298 -5.788743,2.7527 -8.992819,3.74044 -12.13776,3.74344 -4.687128,0.004 -7.000422,0.77385 -8.698694,2.89233 -0.47742,0.59555 -1.28247,3.24646 -1.654163,5.44618 -0.240309,1.42215 -0.222499,4.39052 0.03462,5.7149 0.491047,2.52928 1.192177,4.36785 2.511992,6.58771 2.81467,4.73412 7.927379,9.14264 15.464172,13.33407 1.884493,1.04803 4.564532,2.3904 6.765995,3.38946 0.256116,0.11623 0.770549,0.35094 1.143083,0.52141 1.37315,0.62835 6.090553,2.58783 8.085811,3.35845 1.663293,0.6424 1.904442,0.73112 2.793628,1.0294 3.675768,1.23302 7.054135,1.97932 10.393681,2.29598 4.903767,0.46498 9.711685,-0.32955 13.440007,-2.22105 2.568579,-1.30312 4.853953,-3.16173 6.548954,-5.32681 0.263247,-0.33626 0.520038,-0.61291 0.570508,-0.61391 0.0016,-5e-5 0.0054,-0.004 0.0072,-0.004 -1.52e-4,3e-4 -0.01085,0.0212 -0.01085,0.0212 0.01957,-0.0332 1.687292,0.7237 3.001884,1.36219 1.535869,0.74596 6.353019,3.26278 7.238835,3.7822 1.166968,0.68428 6.442061,3.365 8.128181,4.13049 2.38335,1.08204 3.29811,1.38544 5.16454,1.71256 1.40395,0.24607 2.47354,0.18362 3.93723,-0.22944 1.04966,-0.29621 2.16927,-1.0315 2.76727,-1.81695 0.67103,-0.88135 0.95905,-1.72671 0.95705,-2.81584 -0.004,-2.58402 -2.06212,-5.09796 -5.55677,-6.78564 -1.66969,-0.80635 -5.37115,-2.1266 -8.53953,-3.04632 -0.4191,-0.12165 -1.485624,-0.43156 -2.37039,-0.68885 -0.884766,-0.2573 -1.685056,-0.48695 -1.778186,-0.51005 -1.939635,-0.48097 -8.906891,-2.52357 -9.070764,-2.65926 -0.06682,-0.0553 -0.07309,-0.18345 -0.02015,-0.4191 -0.0015,0.0207 -0.01453,0.0641 -0.03411,0.11886 0.02023,-0.22005 0.05708,-0.51404 0.108004,-0.83148 0.734381,-4.57776 0.206497,-8.77484 -1.565279,-12.4473 -2.177994,-4.51445 -6.256395,-8.21493 -12.404411,-11.25409 -3.054556,-1.50997 -5.878175,-2.60925 -10.117729,-3.93982 -2.773627,-0.87049 -4.692033,-1.40349 -10.244853,-2.84633 -2.048932,-0.53239 -4.163422,-1.08274 -4.698938,-1.22318 -2.206824,-0.57872 -3.621022,-0.81277 -5.149039,-0.82993 z m -0.790133,0.97152 c 0.340881,0.004 0.737621,0.0368 1.240234,0.0946 1.876281,0.21572 3.836804,0.64168 7.746814,1.6831 0.442383,0.11783 1.109548,0.29075 1.48208,0.38395 0.748866,0.18733 4.497021,1.18266 5.164543,1.3715 0.232833,0.0659 0.937663,0.26063 1.566313,0.43305 2.303467,0.63174 6.31518,1.93341 8.233089,2.67115 6.716038,2.58339 11.156092,5.3136 14.140739,8.69508 1.251007,1.41734 1.864698,2.30092 2.6479,3.8132 1.522862,2.94049 2.161833,6.28348 1.904794,9.96683 -0.116535,1.66993 -0.416667,3.55174 -0.662492,4.15324 -0.09418,0.23046 -0.310998,0.76938 -0.481625,1.19786 -0.388755,0.97622 -1.254802,2.67365 -1.879472,3.68349 -1.605841,2.59604 -4.036286,5.01337 -6.487459,6.45284 -2.628958,1.54388 -5.414753,2.39906 -8.833569,2.71095 -4.987435,0.45499 -10.46381,-0.43658 -16.752466,-2.72697 -0.885021,-0.32233 -4.805569,-1.87898 -5.164543,-2.05052 -0.09313,-0.0445 -0.763678,-0.32597 -1.490348,-0.6258 -0.726669,-0.29983 -1.488774,-0.62149 -1.693437,-0.71469 -0.204661,-0.0932 -0.734289,-0.32797 -1.176672,-0.52141 -2.042024,-0.89289 -5.702521,-2.69293 -7.577315,-3.72639 -5.833658,-3.21572 -10.109917,-6.50523 -13.099459,-10.07639 -2.322234,-2.77401 -3.811113,-5.82723 -4.397148,-9.01702 -0.253501,-1.3798 -0.274813,-4.28482 -0.04134,-5.63014 0.395254,-2.27757 1.078395,-4.41896 1.620056,-5.07928 0.387412,-0.47229 1.284251,-1.16529 1.939417,-1.49862 0.749028,-0.38109 2.540564,-0.6132 5.045687,-0.6537 2.311373,-0.0374 2.86059,-0.10464 4.65708,-0.57051 2.542075,-0.65922 4.843498,-1.56343 8.97723,-3.5264 0.397329,-0.18868 0.835397,-0.36814 0.973584,-0.39894 0.138185,-0.0308 0.554936,-0.15382 0.926041,-0.27337 0.490456,-0.15799 0.903611,-0.22808 1.471745,-0.22066 z m 44.600378,34.09921 c 0.0133,7.4e-4 0.02618,0.005 0.03928,0.0134 0.06927,0.0428 1.013064,0.34149 1.854667,0.58704 1.830331,0.53401 3.791684,1.09368 4.741312,1.35237 0.62865,0.17125 1.257631,0.34558 1.397331,0.38758 0.1397,0.042 0.729981,0.21051 1.312065,0.37465 3.0099,0.8487 3.98435,1.13669 5.63067,1.66398 0.4191,0.13423 0.79112,0.24391 0.82682,0.24391 0.0357,0 0.5501,0.17319 1.14308,0.38499 0.59297,0.21181 1.45878,0.52139 1.92443,0.68782 0.46567,0.16643 1.00216,0.37233 1.19217,0.45733 0.19003,0.085 0.54278,0.2317 0.78341,0.3266 1.72047,0.67814 3.53693,1.9922 4.43901,3.21117 0.18471,0.24956 0.4547,0.70672 0.59996,1.01596 0.24936,0.53087 0.26462,0.61942 0.26562,1.57871 0.001,0.96831 -0.0103,1.03705 -0.24856,1.4671 -0.30602,0.55246 -1.06795,1.27316 -1.62316,1.53531 -0.22705,0.1072 -0.65625,0.26496 -0.95343,0.35036 -0.62648,0.18005 -2.16146,0.26485 -2.97295,0.16433 -1.26348,-0.15652 -2.67517,-0.60256 -4.46432,-1.41025 -0.89252,-0.40292 -3.503,-1.65758 -4.15995,-1.99936 -2.669732,-1.38891 -5.797811,-3.04124 -5.896281,-3.11454 -0.08148,-0.0607 -0.677635,-0.37886 -3.047876,-1.62574 -1.399962,-0.73646 -4.360689,-2.18747 -4.898409,-2.40088 -0.226073,-0.0897 -0.428405,-0.20589 -0.449585,-0.25839 -0.02118,-0.0525 0.131848,-0.35876 0.340031,-0.68058 0.403593,-0.62388 1.491329,-2.78438 1.826245,-3.62716 0.201277,-0.50648 0.305328,-0.69093 0.398425,-0.68575 z" /></g></g></svg>
