<?xml version="1.0" encoding="UTF-8" standalone="no"?>
<svg
   viewBox="0 0 472.44095 332.59843"
   version="1.1"
   id="svg12489"
   sodipodi:docname="pudding.svg"
   width="125mm"
   height="88mm"
   inkscape:version="1.2.2 (732a01da63, 2022-12-09)"
   xmlns:inkscape="http://www.inkscape.org/namespaces/inkscape"
   xmlns:sodipodi="http://sodipodi.sourceforge.net/DTD/sodipodi-0.dtd"
   xmlns:xlink="http://www.w3.org/1999/xlink"
   xmlns="http://www.w3.org/2000/svg"
   xmlns:svg="http://www.w3.org/2000/svg">
  <sodipodi:namedview
     id="namedview12491"
     pagecolor="#505050"
     bordercolor="#eeeeee"
     borderopacity="1"
     inkscape:showpageshadow="0"
     inkscape:pageopacity="0"
     inkscape:pagecheckerboard="0"
     inkscape:deskcolor="#505050"
     showgrid="false"
     inkscape:zoom="0.8222166"
     inkscape:cx="560.0714"
     inkscape:cy="315.61027"
     inkscape:current-layer="svg12489"
     inkscape:document-units="mm" />
  <defs
     id="defs12411">
    <filter
       id="aj"
       x="-0.031122333"
       y="-0.064567383"
       width="1.0622447"
       height="1.1291348">
      <feGaussianBlur
         stdDeviation="11.6329"
         id="feGaussianBlur12263" />
    </filter>
    <filter
       id="ai"
       x="-0.017172842"
       y="-0.018910523"
       width="1.0343457"
       height="1.037821">
      <feGaussianBlur
         stdDeviation="1.9181"
         id="feGaussianBlur12266" />
    </filter>
    <filter
       id="ah"
       x="-0.017231788"
       y="-0.018840217"
       width="1.0344636"
       height="1.0376804">
      <feGaussianBlur
         stdDeviation="1.9112"
         id="feGaussianBlur12269" />
    </filter>
    <filter
       id="ag"
       x="-0.027387153"
       y="-0.071033763"
       width="1.0547743"
       height="1.1420675">
      <feGaussianBlur
         stdDeviation="6.6973"
         id="feGaussianBlur12272" />
    </filter>
    <filter
       id="af"
       x="-0.027648588"
       y="-0.021203179"
       width="1.0552972"
       height="1.0424064">
      <feGaussianBlur
         stdDeviation=".6073"
         id="feGaussianBlur12275" />
    </filter>
    <filter
       id="d"
       x="-0.14131933"
       y="-0.17408161"
       width="1.2826387"
       height="1.3481632">
      <feGaussianBlur
         stdDeviation="4.4305"
         id="feGaussianBlur12278" />
    </filter>
    <filter
       id="b"
       x="-0.30139547"
       y="-0.26844981"
       width="1.6027909"
       height="1.5368996">
      <feGaussianBlur
         stdDeviation="10.0135"
         id="feGaussianBlur12281" />
    </filter>
    <filter
       id="f"
       x="-0.22847783"
       y="-0.20350283"
       width="1.4569557"
       height="1.4070057">
      <feGaussianBlur
         stdDeviation="7.5909"
         id="feGaussianBlur12284" />
    </filter>
    <linearGradient
       id="e">
      <stop
         stop-color="#fff"
         offset="0"
         id="stop12287" />
      <stop
         stop-color="#fff"
         stop-opacity="0"
         offset="1"
         id="stop12289" />
    </linearGradient>
    <linearGradient
       id="ad"
       x1="1058.4"
       x2="503.67999"
       y1="244.53"
       y2="496.89001"
       gradientUnits="userSpaceOnUse">
      <stop
         stop-color="#b3b3b3"
         offset="0"
         id="stop12292" />
      <stop
         stop-color="#b3b3b3"
         stop-opacity="0"
         offset="1"
         id="stop12294" />
    </linearGradient>
    <linearGradient
       id="t"
       x2="0"
       y1="147.44"
       y2="72.054001"
       gradientUnits="userSpaceOnUse">
      <stop
         stop-color="#ebc372"
         offset="0"
         id="stop12297" />
      <stop
         stop-color="#b74719"
         offset="1"
         id="stop12299" />
    </linearGradient>
    <linearGradient
       id="a">
      <stop
         stop-color="#fea"
         offset="0"
         id="stop12302" />
      <stop
         stop-color="#fc0"
         offset="1"
         id="stop12304" />
    </linearGradient>
    <linearGradient
       id="c">
      <stop
         stop-color="#921708"
         offset="0"
         id="stop12307" />
      <stop
         stop-color="#751000"
         offset=".125"
         id="stop12309" />
      <stop
         stop-color="#7f250b"
         offset=".5187"
         id="stop12311" />
      <stop
         stop-color="#a62b02"
         offset=".8107"
         id="stop12313" />
      <stop
         stop-color="#a12906"
         offset="1"
         id="stop12315" />
    </linearGradient>
    <linearGradient
       id="w"
       x2="0"
       y1="139.48"
       y2="95.289001"
       gradientUnits="userSpaceOnUse">
      <stop
         stop-color="#cf6102"
         offset="0"
         id="stop12318" />
      <stop
         stop-color="#cc5c01"
         offset=".0625"
         id="stop12320" />
      <stop
         stop-color="#c95701"
         offset=".125"
         id="stop12322" />
      <stop
         stop-color="#c44e01"
         offset=".25"
         id="stop12324" />
      <stop
         stop-color="#b93b01"
         offset=".5"
         id="stop12326" />
      <stop
         stop-color="#a31501"
         offset="1"
         id="stop12328" />
    </linearGradient>
    <linearGradient
       id="ae"
       x1="800.39001"
       x2="622.60999"
       y1="380.75"
       y2="439.87"
       gradientUnits="userSpaceOnUse"
       xlink:href="#e" />
    <linearGradient
       id="u"
       x1="99.806999"
       x2="111.57"
       gradientUnits="userSpaceOnUse"
       xlink:href="#a" />
    <linearGradient
       id="v"
       x1="98.915001"
       x2="117.78"
       gradientUnits="userSpaceOnUse"
       xlink:href="#a" />
    <linearGradient
       id="x"
       x1="140.47"
       x2="169.24001"
       gradientUnits="userSpaceOnUse"
       xlink:href="#a" />
    <linearGradient
       id="y"
       x1="170.81"
       x2="206.08"
       gradientUnits="userSpaceOnUse"
       xlink:href="#a" />
    <linearGradient
       id="z"
       x1="202.50999"
       x2="239.37"
       gradientUnits="userSpaceOnUse"
       xlink:href="#a" />
    <linearGradient
       id="aa"
       x1="243.10001"
       x2="264.70001"
       gradientUnits="userSpaceOnUse"
       xlink:href="#a" />
    <linearGradient
       id="ab"
       x1="229.49001"
       x2="262.5"
       gradientUnits="userSpaceOnUse"
       xlink:href="#a" />
    <linearGradient
       id="ac"
       x1="110.63"
       x2="135.69"
       gradientUnits="userSpaceOnUse"
       xlink:href="#a" />
    <radialGradient
       id="s"
       cx="482.22"
       cy="430.48001"
       r="293.45001"
       gradientTransform="matrix(1,0,0,0.38554,0,267.49)"
       gradientUnits="userSpaceOnUse">
      <stop
         stop-color="#ccc"
         offset="0"
         id="stop12340" />
      <stop
         stop-color="#a3a3a3"
         offset=".9301"
         id="stop12342" />
      <stop
         stop-color="#eaeaea"
         offset=".9568"
         id="stop12344" />
      <stop
         stop-color="#eaeaea"
         offset=".9624"
         id="stop12346" />
      <stop
         stop-color="#ccc"
         offset="1"
         id="stop12348" />
    </radialGradient>
    <radialGradient
       id="r"
       cx="470.23999"
       cy="432.14001"
       r="293.45001"
       gradientTransform="matrix(1,0,0,0.38554,0,267.49)"
       gradientUnits="userSpaceOnUse">
      <stop
         stop-color="#ccc"
         offset="0"
         id="stop12351" />
      <stop
         stop-color="#e8e8e8"
         offset=".6191"
         id="stop12353" />
      <stop
         stop-color="#ededed"
         offset=".8983"
         id="stop12355" />
      <stop
         stop-color="#ccc"
         offset="1"
         id="stop12357" />
    </radialGradient>
    <radialGradient
       id="p"
       cx="629.45001"
       cy="421.28"
       r="133.10001"
       gradientTransform="matrix(1,0,0,0.91461,0,37.387)"
       gradientUnits="userSpaceOnUse">
      <stop
         stop-color="#666"
         offset="0"
         id="stop12360" />
      <stop
         stop-color="#666"
         stop-opacity="0"
         offset="1"
         id="stop12362" />
    </radialGradient>
    <radialGradient
       id="g"
       cx="113.2"
       cy="456.78"
       r="162.78"
       fx="132.07001"
       fy="438.23001"
       gradientTransform="matrix(0.426,-0.00437,0.00886,0.86384,87.484,-109.59)"
       gradientUnits="userSpaceOnUse"
       spreadMethod="reflect">
      <stop
         stop-color="#771303"
         stop-opacity=".8882"
         offset="0"
         id="stop12365" />
      <stop
         stop-color="#e59210"
         offset=".1081"
         id="stop12367" />
      <stop
         stop-color="#781903"
         offset=".5674"
         id="stop12369" />
      <stop
         stop-color="#db990d"
         offset=".767"
         id="stop12371" />
      <stop
         stop-color="#d2a439"
         offset=".8693"
         id="stop12373" />
      <stop
         stop-color="#a31501"
         offset="1"
         id="stop12375" />
    </radialGradient>
    <radialGradient
       id="m"
       cx="16.917"
       cy="567.56"
       r="26.358"
       gradientTransform="matrix(-0.79348,-1.3154,0.73706,-0.44462,-128.5,814.85)"
       gradientUnits="userSpaceOnUse">
      <stop
         stop-color="#591502"
         offset="0"
         id="stop12378" />
      <stop
         stop-color="#591502"
         stop-opacity="0"
         offset="1"
         id="stop12380" />
    </radialGradient>
    <radialGradient
       id="k"
       cx="230.06"
       cy="678.59998"
       r="69.307999"
       gradientTransform="matrix(-0.00942,-0.92079,0.49917,0.62132,-220.11,233.55)"
       gradientUnits="userSpaceOnUse">
      <stop
         stop-color="#921708"
         offset="0"
         id="stop12383" />
      <stop
         stop-color="#751000"
         offset=".1467"
         id="stop12385" />
      <stop
         stop-color="#7f250b"
         offset=".5187"
         id="stop12387" />
      <stop
         stop-color="#a62b02"
         offset=".8107"
         id="stop12389" />
      <stop
         stop-color="#a12906"
         offset="1"
         id="stop12391" />
    </radialGradient>
    <radialGradient
       id="j"
       cx="464.54001"
       cy="798.53998"
       r="69.307999"
       gradientTransform="matrix(-0.76923,-0.18632,1.725,-3.644,-842.79,3289.4)"
       gradientUnits="userSpaceOnUse">
      <stop
         stop-color="#921708"
         offset="0"
         id="stop12394" />
      <stop
         stop-color="#751000"
         offset=".2201"
         id="stop12396" />
      <stop
         stop-color="#7f250b"
         offset=".5187"
         id="stop12398" />
      <stop
         stop-color="#a62b02"
         offset=".8107"
         id="stop12400" />
      <stop
         stop-color="#a12906"
         offset="1"
         id="stop12402" />
    </radialGradient>
    <radialGradient
       id="q"
       cx="365.47"
       cy="444.5"
       r="134.03"
       gradientTransform="matrix(1,0,0,0.9081,0,40.238)"
       gradientUnits="userSpaceOnUse"
       xlink:href="#e" />
    <radialGradient
       id="o"
       cx="506.48999"
       cy="407.95999"
       r="293.45001"
       gradientTransform="matrix(1.7671,-0.02518,0.00176,0.31482,-383.55,310.42)"
       gradientUnits="userSpaceOnUse"
       xlink:href="#e" />
    <radialGradient
       id="n"
       cx="283.48001"
       cy="677.5"
       r="69.307999"
       gradientTransform="matrix(-0.01383,-0.40454,0.60318,-0.02431,-123.49,675.49)"
       gradientUnits="userSpaceOnUse"
       xlink:href="#c" />
    <radialGradient
       id="h"
       cx="283.48001"
       cy="677.5"
       r="69.307999"
       gradientTransform="matrix(-0.01026,-0.27639,0.44751,-0.01661,-114.84,396.21)"
       gradientUnits="userSpaceOnUse"
       xlink:href="#c" />
    <radialGradient
       id="l"
       cx="283.48001"
       cy="677.5"
       r="69.307999"
       gradientTransform="matrix(-0.01383,-0.40454,0.60318,-0.02431,-289.33,524.62)"
       gradientUnits="userSpaceOnUse"
       xlink:href="#c" />
    <radialGradient
       id="i"
       cx="283.48001"
       cy="677.5"
       r="69.307999"
       gradientTransform="matrix(-0.0077,-0.12073,0.33601,-0.10522,22.88,396.65)"
       gradientUnits="userSpaceOnUse"
       xlink:href="#c" />
  </defs>
  <g
     transform="matrix(0.46723222,0,0,0.46723222,13.108052,-13.766893)"
     id="g12429">
    <path
       d="m 507.73,253.58 c -3.268,-0.0151 -6.5255,0.0112 -9.8125,0.0312 -10.346,0.0632 -20.796,0.30095 -31.312,0.71875 -73.792,2.9317 -143.16,14.353 -203.94,32.062 0.9141,0.15251 1.8101,0.31459 2.7187,0.46875 -140.49,40.265 -235.92,113.64 -235.06,193.81 0.01005,0.93902 0.02618,1.8775 0.0625,2.8125 -0.05702,1.6095 -0.07953,3.2288 -0.0625,4.8438 1.2516,118.7 203.07,206.85 450.78,196.88 247.71,-9.97 447.53,-114.3 446.28,-233 L 924.978,431.145 C 904.946,339.57 764.988,271.285 584.098,257.235 l -1.0938,-0.0937 c -0.5111,-0.039 -1.0194,-0.0868 -1.5312,-0.125 -23.871,-2.1219 -48.526,-3.3212 -73.75,-3.4375 z"
       fill="#666666"
       filter="url(#aj)"
       id="path12413" />
    <path
       transform="matrix(1.5285,-0.06155,0.02003,1.8997,-229.05,-358.98)"
       d="m 767.72,435.33 c 0,62.484 -131.38,113.14 -293.45,113.14 -162.07,0 -293.45,-50.653 -293.45,-113.14 0,-62.487 131.38,-113.14 293.45,-113.14 150.88,0 277.17,44.113 292.02,102"
       fill="url(#s)"
       id="path12415"
       style="fill:url(#s)" />
    <path
       transform="matrix(1.5009,-0.05952,0.01967,1.8373,-223.92,-339.84)"
       d="m 767.72,435.33 c 0,62.484 -131.38,113.14 -293.45,113.14 -162.07,0 -293.45,-50.653 -293.45,-113.14 0,-62.487 131.38,-113.14 293.45,-113.14 150.88,0 277.17,44.113 292.02,102"
       fill="url(#r)"
       id="path12417"
       style="fill:url(#r)" />
    <path
       transform="matrix(1.5009,-0.05952,0.01967,1.8373,-223.92,-339.84)"
       d="m 767.72,435.33 c 0,62.484 -131.38,113.14 -293.45,113.14 -162.07,0 -293.45,-50.653 -293.45,-113.14 0,-62.487 131.38,-113.14 293.45,-113.14 150.88,0 277.17,44.113 292.02,102"
       fill="url(#ae)"
       id="path12419"
       style="fill:url(#ae)" />
    <path
       d="m 523.62,222.18 c -10.346,0.0632 -20.782,0.2955 -31.299,0.7133 -73.792,2.9317 -143.18,14.358 -203.95,32.067 75.277,12.56 132.02,30.71 175.25,52.815 4.8411,2.4755 8.8583,8.0633 14.024,7.5672 291.82,-28.029 383.09,160.1 139.62,225.09 -3.2161,0.85853 1.4708,6.5251 2.198,9.7691 5.2485,23.414 10.779,46.477 18.73,68.539 171.18,-34.612 293.64,-116.39 292.68,-206.89 l -2.3528,-20.22 c -22.12,-99.771 -194.53,-170.74 -404.9,-169.46 z"
       fill="url(#ad)"
       id="path12421"
       style="fill:url(#ad)" />
    <path
       d="m 537.25,316.12 c -5.6978,0.0371 -11.427,0.1606 -17.219,0.40625 -132.71,5.6291 -239.76,64.511 -239.09,131.5 0.65298,65.236 103.23,114.09 231.16,111.41 -108.9,-2.729 -193.43,-49.763 -194,-111.41 -0.61871,-66.989 98.137,-125.87 220.59,-131.5 3.458,-0.15896 6.8898,-0.27256 10.312,-0.34375 -3.8857,-0.0715 -7.8136,-0.0881 -11.75,-0.0625 z"
       fill="url(#q)"
       filter="url(#ai)"
       id="path12423"
       style="fill:url(#q)" />
    <path
       d="m 537.25,316.12 c -1.4946,0.01 -2.9986,0.0386 -4.5,0.0625 105.1,1.6657 189.95,42.621 201.12,99.562 l 1.2188,11.906 c 0.63366,66.989 -100.52,125.84 -225.94,131.47 -4.6395,0.20824 -9.2405,0.34763 -13.812,0.40625 8.903,0.12683 17.929,-0.0175 27.094,-0.40625 132.71,-5.6291 239.76,-64.48 239.09,-131.47 l -1.2812,-11.906 c -12.182,-58.662 -107.14,-100.38 -223,-99.625 z"
       fill="url(#p)"
       filter="url(#ah)"
       id="path12425"
       style="fill:url(#p)" />
    <path
       transform="matrix(0.69478,-0.03128,0.00911,0.96542,191.8,31.379)"
       d="m 767.72,435.33 c 0,62.484 -131.38,113.14 -293.45,113.14 -162.07,0 -293.45,-50.653 -293.45,-113.14 0,-62.487 131.38,-113.14 293.45,-113.14 150.88,0 277.17,44.113 292.02,102"
       fill="url(#o)"
       filter="url(#ag)"
       id="path12427"
       style="fill:url(#o)" />
  </g>
  <g
     transform="matrix(0.83898581,0,0,0.83898581,98.19822,-32.532266)"
     id="g12487">
    <path
       d="m 112.68,120.9 c 42.518,30.681 94.075,27.15 130.7,-4.3665 l 16.848,169.09 c -46.949,20.187 -109.6,20.744 -155.09,4.5009 -1.9351,-0.65036 -4.2488,-5.5762 -5.0883,-13.155 z"
       fill="#ffb132"
       id="path12431" />
    <path
       d="m 243.46,117.39 c 0,16.111 -29.481,29.172 -65.849,29.172 -36.368,0 -65.849,-13.061 -65.849,-29.172 0,-16.111 29.481,-29.172 65.849,-29.172 36.368,0 65.849,13.061 65.849,29.172 z"
       fill="url(#t)"
       id="path12433"
       style="fill:url(#t)" />
    <path
       d="m 112.43,125.63 -2.4307,140.95 c -0.23884,3.2065 -9.9824,1.1802 -10.165,-5.0823 l 1.7678,-122.28 c -0.97569,-9.5801 8.4734,-15.404 10.828,-13.59 z"
       fill="url(#u)"
       id="path12435"
       style="fill:url(#u)" />
    <path
       d="m 105.47,137.83 c 2.1636,-1.7135 4.5029,-2.3729 6.9608,-2.3202 3.9166,0.084 5.5664,1.072 5.3035,6.9193 l -5.3033,117.97 c -0.26286,5.8473 0.15953,24.024 -3.2075,26.027 -3.4256,2.0372 -11.283,-2.0725 -10.051,-7.7275 0,0 -0.3452,-13.331 -0.22117,-19.183 l 2.3202,-109.46 c 0,0 1.1276,-9.7904 4.1986,-12.223 z"
       fill="url(#v)"
       id="path12437"
       style="fill:url(#v)" />
    <path
       transform="matrix(0.38375,0,0,0.38375,-12.864,69.608)"
       d="m 317.76,546.17 c 5.0926,25.254 -2.9127,24.38 -36.932,29.108 -15.967,2.2192 -39.751,-14.418 -36.63,-33.559 2.8879,-17.712 17.478,-28.349 35.438,-27.245 16.09,0.98909 34.666,14.552 38.123,31.696 z"
       fill="url(#n)"
       fill-rule="evenodd"
       filter="url(#d)"
       id="path12439"
       style="fill:url(#n)" />
    <path
       d="m 225.79,116.5 c 0,11.787 -21.57,21.343 -48.177,21.343 -26.607,0 -48.177,-9.5556 -48.177,-21.343 0,-11.7874 21.57,-21.343 48.177,-21.343 26.607,0 48.177,9.5556 48.177,21.343 z"
       fill="url(#w)"
       id="path12441"
       style="fill:url(#w)" />
    <path
       d="m 169.21,172.15 v 114.1 c 0,5.853 -4.0985,10.565 -9.1896,10.565 h -10.338 c -5.091,0 -9.1896,-4.712 -9.1896,-10.565 v -114.1 c 4.6672,-22.711 28.675,-14.959 28.717,0 z"
       fill="url(#x)"
       id="path12443"
       style="fill:url(#x)" />
    <path
       d="m 200.61,172.15 5.4413,114.1 c 0.27912,5.853 -7.2806,10.565 -12.558,10.565 h -7.182 c -5.2778,0 -9.7514,-4.712 -10.03,-10.565 L 170.84,172.15 c 2.0523,-19.195 30.369,-15.786 29.771,0 z"
       fill="url(#y)"
       id="path12445"
       style="fill:url(#y)" />
    <path
       d="m 229.3,166.24 9.9521,109.13 c 0.54725,6.0009 -1.2441,15.717 -5.8985,16.586 l -11.825,2.2097 c -4.6544,0.86976 -8.9105,-4.8376 -9.4274,-10.841 l -9.5102,-110.46 c -1.4607,-20.569 25.829,-27.374 26.709,-6.6291 z"
       fill="url(#z)"
       id="path12447"
       style="fill:url(#z)" />
    <path
       d="m 249.21,125.78 c 2.0743,0.64534 5.121,4.0311 5.121,4.0311 2.7873,2.1941 4.0413,12.506 3.7739,13.454 0.23644,33.326 6.5668,100.08 6.5668,100.08 0,0 -5.2204,7.596 -5.9307,2.7022 l -15.222,-110.73 c -1.4456,-10.516 1.5364,-10.822 5.6912,-9.5298 z"
       fill="url(#aa)"
       id="path12449"
       style="fill:url(#aa)" />
    <path
       d="m 250.41,148.05 11.954,114.35 c 0.69248,6.6243 2.3886,12.381 -0.20688,15.314 -3.2512,3.6753 -9.6275,5.9739 -12.879,4.7319 -3.6593,-1.3979 -6.0461,-10.777 -6.8007,-17.395 l -12.838,-112.58 c -1.9659,-18.998 19.159,-17.243 20.77,-4.4194 z"
       fill="url(#ab)"
       id="path12451"
       style="fill:url(#ab)" />
    <path
       d="m 121.27,150.53 c 8.8629,-0.49144 14.894,9.6361 14.364,16.311 v 114.11 c 0,5.8532 -4.8116,13.48 -8.6181,12.554 l -8.1762,-1.9887 c -3.8065,-0.92588 -8.3516,-7.3664 -8.1761,-13.217 l 3.5355,-117.86 c 0.1755,-5.8505 3.9501,-12.27 7.0713,-9.9024 z"
       fill="url(#ac)"
       id="path12453"
       style="fill:url(#ac)" />
    <path
       d="m 202.8,144.79 c -1.5592,15.507 -3.7199,26.918 -15.468,36.681 0,0 -5.9701,7.4573 -6.1872,11.932 -1.8614,38.373 5.3033,94.796 5.3033,94.796 -8.0244,-1.7422 -14.586,3.0843 -19.556,6.8501 1.6128,-2.69 3.0446,-5.4162 3.2041,-8.3969 0,0 0.65395,-23.326 -0.44194,-34.913 -0.63398,-6.7032 -2.8581,-13.188 -3.5355,-19.887 -1.7348,-17.154 -3.4982,-34.603 -1.3258,-51.707 0.27025,-2.1278 2.4037,-4.1387 1.7678,-6.1872 -1.3031,-4.1972 -4.4553,-8.0327 -8.7284,-9.0598 -3.9617,-0.95225 -12.853,-0.72722 -13.369,3.3146 -0.062,0.48602 -3.838,29.597 -1.7678,44.194 0.4579,3.2286 2.7437,6.0387 3.0936,9.2808 0.44512,4.1244 0.98836,8.9314 -1.3258,12.374 -1.2134,1.8052 -3.5833,3.3325 -5.7452,3.0936 -2.9064,-0.32122 -5.0878,-3.2603 -6.6291,-5.7452 -2.1659,-3.4918 -3.2694,-7.8272 -3.0936,-11.932 0.11365,-2.6533 2.105,-4.9141 2.6516,-7.513 3.2232,-15.324 9.9523,-32.561 3.5355,-46.846 -1.5936,-3.5477 -5.9113,-5.1287 -9.2808,-7.0711 -1.6592,-0.95644 -3.4943,-2.8383 -5.3033,-2.2097 -1.4326,0.49785 -2.0648,2.4677 -2.2097,3.9775 -3.3982,35.39 -3.0718,95.009 -5.5243,112.92 -0.29105,2.1251 -1.4419,3.8333 -1.2153,5.9662 0.26453,2.4903 0.66291,7.4025 0.66291,7.4025 -0.65254,3.4529 -6.936,4.9998 -10.607,5.8557 -6.5131,1.5187 -12.983,0.12564 -18.783,-3.2041 -2.9133,-1.6725 -4.4047,-5.7488 -4.9718,-9.0598 -0.6292,-3.6733 2.6459,-8.1315 2.9831,-9.0598 0.36238,-0.99766 7.9063,-6.4064 9.3913,-6.0767 1.36,0.302 8.6997,0.30677 12.374,-1.2153 1.5398,-0.63781 3.4814,-1.8698 3.5355,-3.5355 0.64732,-19.907 6.5827,-70.985 3.3146,-105.29 -0.19756,-2.0739 -3.7836,-2.4355 -4.4194,-4.4194 -0.82038,-2.56 0.0597,-5.5836 1.3258,-7.955 1.6198,-3.0337 5.5622,-4.2388 7.513,-7.0711 1.5363,-2.2305 3.0936,-7.513 3.0936,-7.513 14.821,16.977 50.713,21.556 85.737,17.236 z"
       fill="url(#g)"
       opacity="0.3643"
       id="path12455"
       style="fill:url(#g)" />
    <path
       d="m 212.53,307.86 c 1.3258,11.96 -15.441,19.887 -27.4,19.887 -11.959,0 -28.726,-9.2534 -25.191,-22.097 3.1742,-11.531 12.347,-19.445 24.307,-19.445 11.96,0 26.967,9.7682 28.284,21.655 z"
       fill="url(#h)"
       fill-rule="evenodd"
       id="path12457"
       style="fill:url(#h)" />
    <path
       transform="matrix(0.38375,0,0,0.38375,-12.864,69.608)"
       d="m 297.38,542.56 c 0,18.971 -8.4259,34.351 -18.82,34.351 -10.3941,0 -10.808,-15.542 -24.578,-28.592 -26.333,-24.956 10.017,-41.056 24.578,-40.109 10.372,0.67456 18.82,15.379 18.82,34.351 z"
       fill="url(#m)"
       fill-rule="evenodd"
       filter="url(#af)"
       id="path12459"
       style="fill:url(#m)" />
    <path
       transform="matrix(0.18252,0,0,0.3838,116.48,72.238)"
       d="m 151.92,395.3 c 5.0926,25.254 -2.9127,24.38 -36.932,29.108 -15.967,2.2192 -39.751,-14.418 -36.63,-33.559 2.8879,-17.712 17.478,-28.349 35.438,-27.245 16.09,0.98909 34.666,14.552 38.123,31.696 z"
       fill="url(#l)"
       fill-rule="evenodd"
       filter="url(#d)"
       id="path12461"
       style="fill:url(#l)" />
    <path
       transform="matrix(1.0375,0,0,0.20675,32.368,71.963)"
       d="m 159.63,427.8 c -0.18519,0.92935 -13.687,24.034 -17.924,153.65 -3.6274,110.98 0.0847,325.28 0.24436,420.21 0.0556,33.052 -2.7213,46.283 -2.9492,54.213 -0.27431,9.5492 -3.3845,-221.94 -8.4432,-383.73 -4.1082,-131.38 1.2195,-192.51 -0.20206,-201.35 -4.3795,-27.238 -9.4363,-13.961 -13.363,-33.361 -12.564,-62.072 -16.278,308.03 -16.165,306.66 0,0 5.0993,-176.24 1.6099,-277.52 -1.8572,-53.902 -11.544,-62.735 -13.794,-65.162 -9.1249,-9.8414 -13.861,-34.139 -12.096,-42.304 1.083,-5.0111 6.1379,-87.015 9.4906,-86.604 7.0262,0.86276 4.345,36.849 29.246,57.433 3.7382,3.0902 19.726,43.338 30.591,45.792 6.3409,1.4324 2.8372,9.14 7.7514,-0.58675 9.7536,-19.306 6.9976,47.672 6.0045,52.656 z"
       fill="url(#k)"
       fill-rule="evenodd"
       filter="url(#d)"
       id="path12463"
       style="fill:url(#k)" />
    <path
       transform="matrix(0.09064,0,0,0.09064,207.34,296.16)"
       d="m -241.74,211.83 30.788,54.356 -5.9811,-29.549 -31.679,53.842 22.599,-19.954 -62.468,-0.51438 28.58,9.5945 -30.788,-54.356 5.9811,29.549 31.679,-53.842 -22.599,19.954 62.468,0.51437 z"
       fill="#ffffff"
       fill-rule="evenodd"
       filter="url(#b)"
       id="path12465" />
    <path
       transform="matrix(0.04754,0,0,0.04754,111.67,271.39)"
       d="m -241.74,211.83 30.788,54.356 -5.9811,-29.549 -31.679,53.842 22.599,-19.954 -62.468,-0.51438 28.58,9.5945 -30.788,-54.356 5.9811,29.549 31.679,-53.842 -22.599,19.954 62.468,0.51437 z"
       fill="#ffffff"
       fill-rule="evenodd"
       filter="url(#f)"
       id="path12467" />
    <path
       transform="matrix(-1.0375,0.00774,0.00154,0.20674,381.32,61.321)"
       d="m 159.63,427.8 c -0.23482,0.58202 -3.252,9.0853 -1.7571,140.22 1.8384,161.27 -8.2229,530.5 -21.715,520.36 -11.525,-8.666 -4.1901,-3.8081 -3.5211,-47.371 0.14771,-9.6194 13.291,-451.39 12.67,-476.29 -0.39092,-15.692 3.5084,-146.65 2.0868,-155.49 -4.3795,-27.238 8.5412,-63.953 3.4263,-74.238 -27.663,-55.626 -28.669,453.51 -33.551,527.91 0,0 2.672,-390.79 3.6982,-493.75 0.54453,-54.634 31.072,-167.12 28.822,-169.54 -9.1249,-9.8414 14.683,30.484 16.922,26.142 18.507,-35.894 -1.3156,-53.04 2.0371,-52.629 7.0263,0.86276 10.111,-52.638 35.012,-32.053 3.7382,3.0902 -3.3218,96.355 5.7196,66.02 41.347,-138.72 48.115,72.457 41.155,106.84 -14.799,73.112 -54.874,88.471 -68.932,81.11 -10.501,-5.4984 -18.994,25.138 -22.073,32.77 z"
       fill="url(#j)"
       fill-rule="evenodd"
       filter="url(#d)"
       id="path12469"
       style="fill:url(#j)" />
    <path
       d="m 268.68,285.77 c 0.99548,5.0314 -11.593,12.224 -20.573,14.839 -8.98,2.615 -21.569,2.1629 -18.914,-4.3246 2.3833,-5.8244 9.2706,-11.351 18.251,-13.966 8.9804,-2.615 20.248,-1.5492 21.237,3.4516 z"
       fill="url(#i)"
       fill-rule="evenodd"
       id="path12471"
       style="fill:url(#i)" />
    <path
       transform="matrix(0.06805,-0.01981,0,0.04033,264.78,281.7)"
       d="m -241.74,211.83 30.788,54.356 -5.9811,-29.549 -31.679,53.842 22.599,-19.954 -62.468,-0.51438 28.58,9.5945 -30.788,-54.356 5.9811,29.549 31.679,-53.842 -22.599,19.954 62.468,0.51437 z"
       fill="#ffffff"
       fill-rule="evenodd"
       filter="url(#b)"
       id="path12473" />
    <path
       transform="matrix(0.04754,0,0,0.01333,151.45,231.13)"
       d="m -241.74,211.83 30.788,54.356 -5.9811,-29.549 -31.679,53.842 22.599,-19.954 -62.468,-0.51438 28.58,9.5945 -30.788,-54.356 5.9811,29.549 31.679,-53.842 -22.599,19.954 62.468,0.51437 z"
       fill="#ffffff"
       fill-rule="evenodd"
       filter="url(#f)"
       id="path12475" />
    <path
       d="m 233.06,113.87 c -9.9092,-8.4776 -30.378,-14.297 -54.044,-14.297 -23.657,0 -44.131,5.8169 -54.044,14.289 3.6593,-11.369 26.459,-20.127 54.044,-20.127 27.591,0 50.393,8.7615 54.044,20.135 z"
       fill-opacity="0.2172"
       fill-rule="evenodd"
       id="path12477" />
    <path
       transform="matrix(0.06338,0,0,0.06338,263,120.98)"
       d="m -241.74,211.83 30.788,54.356 -5.9811,-29.549 -31.679,53.842 22.599,-19.954 -62.468,-0.51438 28.58,9.5945 -30.788,-54.356 5.9811,29.549 31.679,-53.842 -22.599,19.954 62.468,0.51437 z"
       fill="#ffffff"
       fill-rule="evenodd"
       filter="url(#b)"
       id="path12479" />
    <path
       transform="matrix(0.06338,0,0,0.06338,128.63,134.1)"
       d="m -241.74,211.83 30.788,54.356 -5.9811,-29.549 -31.679,53.842 22.599,-19.954 -62.468,-0.51438 28.58,9.5945 -30.788,-54.356 5.9811,29.549 31.679,-53.842 -22.599,19.954 62.468,0.51437 z"
       fill="#ffffff"
       fill-rule="evenodd"
       filter="url(#b)"
       id="path12481" />
    <path
       transform="matrix(0.05849,0,0,0.02704,154.59,154.91)"
       d="m -241.74,211.83 30.788,54.356 -5.9811,-29.549 -31.679,53.842 22.599,-19.954 -62.468,-0.51438 28.58,9.5945 -30.788,-54.356 5.9811,29.549 31.679,-53.842 -22.599,19.954 62.468,0.51437 z"
       fill="#ffffff"
       fill-rule="evenodd"
       filter="url(#b)"
       id="path12483" />
    <path
       transform="matrix(0.11718,-0.03912,0,0.02704,169.93,81.971)"
       d="m -241.74,211.83 30.788,54.356 -5.9811,-29.549 -31.679,53.842 22.599,-19.954 -62.468,-0.51438 28.58,9.5945 -30.788,-54.356 5.9811,29.549 31.679,-53.842 -22.599,19.954 62.468,0.51437 z"
       fill="#ffffff"
       fill-rule="evenodd"
       filter="url(#b)"
       id="path12485" />
  </g>
</svg>
