<?xml version="1.0" encoding="UTF-8" standalone="no"?>
<!-- Created with Inkscape (http://www.inkscape.org/) -->

<svg
   id="svg22115"
   version="1.1"
   inkscape:version="1.2.2 (732a01da63, 2022-12-09)"
   width="125mm"
   height="88mm"
   xml:space="preserve"
   sodipodi:docname="rhino.svg"
   xmlns:inkscape="http://www.inkscape.org/namespaces/inkscape"
   xmlns:sodipodi="http://sodipodi.sourceforge.net/DTD/sodipodi-0.dtd"
   xmlns="http://www.w3.org/2000/svg"
   xmlns:svg="http://www.w3.org/2000/svg"
   xmlns:rdf="http://www.w3.org/1999/02/22-rdf-syntax-ns#"
   xmlns:cc="http://creativecommons.org/ns#"
   xmlns:dc="http://purl.org/dc/elements/1.1/"><title
     id="title3021">rhino</title><metadata
     id="metadata22121"><rdf:RDF><cc:Work
         rdf:about=""><dc:format>image/svg+xml</dc:format><dc:type
           rdf:resource="http://purl.org/dc/dcmitype/StillImage" /><dc:title>rhino</dc:title><dc:date>12/27/2014</dc:date><dc:creator><cc:Agent><dc:title>edited by Paul Sherman</dc:title></cc:Agent></dc:creator><dc:rights><cc:Agent><dc:title>pd</dc:title></cc:Agent></dc:rights><dc:publisher><cc:Agent><dc:title>wpclipart</dc:title></cc:Agent></dc:publisher><cc:license
           rdf:resource="http://creativecommons.org/publicdomain/zero/1.0/" /></cc:Work><cc:License
         rdf:about="http://creativecommons.org/publicdomain/zero/1.0/"><cc:permits
           rdf:resource="http://creativecommons.org/ns#Reproduction" /><cc:permits
           rdf:resource="http://creativecommons.org/ns#Distribution" /><cc:permits
           rdf:resource="http://creativecommons.org/ns#DerivativeWorks" /></cc:License></rdf:RDF></metadata><defs
     id="defs22119"><clipPath
       clipPathUnits="userSpaceOnUse"
       id="clipPath22131"><path
         d="M 0,2016.67 H 2500 V 0 H 0 Z"
         id="path22133"
         inkscape:connector-curvature="0" /></clipPath></defs><sodipodi:namedview
     pagecolor="#ffffff"
     bordercolor="#666666"
     borderopacity="1"
     objecttolerance="10"
     gridtolerance="10"
     guidetolerance="10"
     inkscape:pageopacity="0"
     inkscape:pageshadow="2"
     inkscape:window-width="1064"
     inkscape:window-height="974"
     id="namedview22117"
     showgrid="false"
     inkscape:zoom="0.96"
     inkscape:cx="89.0625"
     inkscape:cy="245.3125"
     inkscape:window-x="378"
     inkscape:window-y="0"
     inkscape:window-maximized="0"
     inkscape:current-layer="g22123"
     fit-margin-top="4"
     fit-margin-left="4"
     fit-margin-right="4"
     fit-margin-bottom="4"
     inkscape:showpageshadow="0"
     inkscape:pagecheckerboard="0"
     inkscape:deskcolor="#d1d1d1"
     inkscape:document-units="mm" /><g
     id="g22123"
     inkscape:groupmode="layer"
     inkscape:label="rhino-vector-clipart"
     transform="matrix(1.25,0,0,-1.25,-56.927768,506.37503)"><g
       id="g22125"
       transform="matrix(0.17586466,0,0,0.17586466,13.025411,107.39998)"><g
         id="g22127"><g
           id="g22129"
           clip-path="url(#clipPath22131)"><path
             d="m 2123.46,338.207 c 0,-1.25 1.87,-1.082 4.12,0.668 13.59,10.625 32.59,19.625 48.42,8.293 5.46,-3.875 10.13,-9.875 10.54,-16.793 0.63,-10 -3.12,-16.207 -12.71,-16.293 -24.29,-0.289 -48.45,2.668 -71.83,9.043 l 3.21,12.207 c 0.63,0 1.37,1.461 1.5,3.086 l 16.75,-0.211"
             style="fill:#b5b9bf;fill-opacity:1;fill-rule:nonzero;stroke:none"
             id="path22135"
             inkscape:connector-curvature="0" /><path
             d="m 2104.17,339.582 c 0,-3.125 0.5,-4.25 1.04,-4.25 L 2102,323.125 c -0.96,0.207 -1.92,0.5 -2.87,0.75 -11.96,3.375 -23.96,8.168 -34.59,14.582 -10.75,6.418 3.59,25.043 10.79,27.125 12.67,3.711 28.84,-13.539 28.84,-26"
             style="fill:#b5b9bf;fill-opacity:1;fill-rule:nonzero;stroke:none"
             id="path22137"
             inkscape:connector-curvature="0" /><path
             d="m 2127.58,343.75 c -3,-2.668 -4.12,-4.543 -4.12,-5.543 l -16.75,0.211 c 0.08,0.375 0.08,0.789 0.04,1.164 -0.21,3.125 -3.58,26.543 -22.42,36.836 0.09,0.082 0.17,0.164 0.21,0.25 21.42,25.832 29.34,52.582 29.79,85.039 0.46,32.836 0.25,65.711 0.13,98.586 -0.08,19.75 -0.29,39.5 -0.46,59.25 11.41,-36.836 25.29,-35 22.87,-2.961 -3.12,41.668 2.08,83.336 37.13,104.168 9.42,5.625 13.96,10.082 14.95,13.582 l 49.63,-0.625 c -0.5,-3.582 -0.87,-7.289 -1.16,-11.082 -2.92,-37.875 -3.59,-76.375 -2.38,-114.332 0.88,-27.043 1.46,-51.5 -6.83,-77.711 -7.75,-24.414 -12.08,-46.875 -10.67,-72.832 1.17,-21.793 4.29,-42.5 11.5,-63.125 7.42,-21.125 17.92,-41.125 24.88,-62.457 0.75,-2.293 1.25,-4.668 1.7,-7 -5.29,-1.875 -10.83,-3.125 -16.33,-4.375 -10.87,-2.461 -21.91,-4.086 -33.04,-5.125 -10.96,36.5 -42.54,60.332 -78.67,28.082"
             style="fill:#b5b9bf;fill-opacity:1;fill-rule:nonzero;stroke:none"
             id="path22139"
             inkscape:connector-curvature="0" /><path
             d="m 2182.63,1308.63 c 50.66,-54.05 86.83,-129.09 103.7,-200.46 12.67,-53.54 16,-109.252 11.25,-163.963 -3.79,-42.957 -18.87,-82.629 -25.95,-124.539 -3.5,-20.875 -13.34,-36.418 -23.34,-54.918 -5.54,-10.207 -8.21,-20.207 -9.71,-31.043 l -49.62,0.625 c 2.67,9.543 -20.92,11.918 -43.75,10.375 -31.25,-2.082 -33.33,61.461 -33.33,111.461 0,40.5 52.62,110.375 61,146.532 0.83,1.38 1.75,3.22 2.83,5.63 10.79,24.88 63.25,146.8 13.46,241.59 -17.42,33.16 -24.42,44.91 -25.42,44.91 l 18.88,13.8"
             style="fill:#b5b9bf;fill-opacity:1;fill-rule:nonzero;stroke:none"
             id="path22141"
             inkscape:connector-curvature="0" /><path
             d="m 1536.46,273.418 c 5.92,-12.5 5.79,-26.293 5.5,-40.125 -14.13,-2.418 -28.63,-4.418 -43.29,-5.875 -17.54,33.25 22.16,43.375 37.79,46"
             style="fill:#b5b9bf;fill-opacity:1;fill-rule:nonzero;stroke:none"
             id="path22143"
             inkscape:connector-curvature="0" /><path
             d="m 1312.25,290.375 c 6.25,3.375 12.71,-2.332 16.67,-4.707 3.54,-2.125 7.03,-9.211 5.46,-14.836 -3.8,-7.25 -9.34,-18.957 -14.34,-25.5 -7.75,4.668 -22.08,10.961 -21.62,19.668 0.29,4.707 10.16,21 13.83,25.375"
             style="fill:#b5b9bf;fill-opacity:1;fill-rule:nonzero;stroke:none"
             id="path22145"
             inkscape:connector-curvature="0" /><path
             d="m 1339,815.875 c 12.59,7.418 29.46,14.332 44.42,13.207 51.16,-3.832 138.5,-14.707 161.12,-23.207 22.75,-8.543 50.67,-4.582 53.46,-54.582 1.13,-20.125 2.38,-26.625 3.46,-26.625 l 9.33,-5.461 c -13.66,-30.289 -28.04,-59.75 -30.25,-67.375 -0.21,-0.453 -0.46,-1 -0.66,-1.582 -1.67,-1.043 -3.17,-2.582 -4.21,-4.75 -20.13,-41.543 -40.59,-82.918 -59.09,-125.207 -14.33,-32.625 -20.79,-62.461 -23.7,-98.043 -2.46,-30.293 -8.46,-66.5 8.08,-93.582 10.29,-16.918 22.21,-32.711 32.46,-49.668 -15.88,2.082 -33.42,-23.332 -42.88,-16.918 -11.29,7.625 5.04,3.125 -9.87,15.961 -11.09,9.539 -1.38,-14.5 3.29,-34.418 -8.92,16.793 -26.12,26.25 -57.75,18.793 -7.38,-1.75 -6.79,-4.5 0,-3.746 37.62,4.246 50.62,-14.004 55.71,-32.715 -50.25,-3.578 -101.88,-0.453 -147.92,15.211 -1.25,0.414 -2.5,0.375 -3.75,0.125 4.21,5.5 8.33,11.164 12,17.039 15.59,11.75 49.08,28.543 57.5,11.375 1.71,-3.457 6.42,-1.25 3.79,2.086 -13.79,17.707 -41.75,7.539 -54.96,-2 0.71,1.5 1.38,3 1.97,4.539 2.58,6.379 1.33,13.961 -6.51,14.547 -7.58,0.539 -15.04,5.996 -21.29,11.289 13.54,13.082 23.21,30.75 26.17,49.539 4.21,26.375 1.75,54.875 -0.84,81.293 -2.41,25.043 -11.75,47.832 -12.37,73.082 -0.88,34.586 3.04,69.25 5,103.715 0.04,0.328 0,0.66 0,0.996 h 1.21 c 0,34.289 -25.88,58.211 -19.63,86.125 6.92,30.789 4.71,64.625 4.21,95.957 -0.21,12.832 0.46,17.918 12.5,25"
             style="fill:#b5b9bf;fill-opacity:1;fill-rule:nonzero;stroke:none"
             id="path22147"
             inkscape:connector-curvature="0" /><path
             d="m 744.082,1568.75 c -15.039,22.21 -21.289,77.88 10.793,85.42 -4.875,-5.54 15.918,-39.25 19.625,-42.71 20.543,-19.25 41.793,-36.75 66.668,-50 12.164,-6.5 24.832,-10.42 38,-14.58 16.414,-5.21 24,-18.55 20.5,-35.42 -4.336,-20.63 -21.918,-46.13 -35.418,-62.29 -3.793,-4.5 -41.543,20.71 -46.543,23.41 -6.75,3.67 -15.039,12.8 -22.957,11.92 0.5,0.04 -16.082,32.08 -17.582,34.58 -10.168,17.3 -21.836,33.09 -33.086,49.67"
             style="fill:#b5b9bf;fill-opacity:1;fill-rule:nonzero;stroke:none"
             id="path22149"
             inkscape:connector-curvature="0" /><path
             d="m 624,1625.75 c 2.457,-4.12 5.918,-11.25 9.793,-21.75 6.707,-18.21 105.5,-65.67 126.582,-74.21 0.043,-0.04 0.082,-0.08 0.125,-0.12 1.043,-1.71 2.043,-3.46 3,-5.21 -18.207,-8.54 -45.125,-46.25 -56.168,-62.54 -11.875,1.33 -15.082,8.62 -19.832,21.58 -3.875,10.58 -8.207,22.54 -21.168,28.83 -53.375,34.3 -46,87.25 -42.457,112.75 l 0.125,0.67"
             style="fill:#b5b9bf;fill-opacity:1;fill-rule:nonzero;stroke:none"
             id="path22151"
             inkscape:connector-curvature="0" /><path
             d="m 970.293,845.625 c 18.75,0.543 36.417,3.957 43.667,4.293 15.29,0.707 48.62,-42.375 82.67,-69.461 2.33,-1.875 4.5,-3.332 6.54,-4.375 l -43.13,-17.457 c -43.04,29.582 -77.997,53.793 -77.997,53.793 0,0 -8.375,4.082 -10.793,4.082 l -0.957,29.125"
             style="fill:#b5b9bf;fill-opacity:1;fill-rule:nonzero;stroke:none"
             id="path22153"
             inkscape:connector-curvature="0" /><path
             d="m 1078.5,249.582 c -12.42,-1.289 -24.96,-1.789 -37.42,-1.832 -12.62,-0.082 -25.29,-1.125 -34.16,8.5 -0.92,1 -2.17,1.668 -3.63,2.043 11.42,19.164 42.29,44.125 69.42,11.164 1,-1.211 2.75,-1.957 4.04,-1.957 l 1.75,-17.918"
             style="fill:#b5b9bf;fill-opacity:1;fill-rule:nonzero;stroke:none"
             id="path22155"
             inkscape:connector-curvature="0" /><path
             d="m 972.418,253.543 c -23.336,0.207 -46.961,4.457 -69.543,10.039 -9.082,2.25 -4.543,19.215 0.918,30.543 52.414,-0.543 64.875,-14 66.625,-33.25 0.25,-2.668 1.332,-3.957 2.25,-3.957 l -0.043,-3.375 h -0.207"
             style="fill:#b5b9bf;fill-opacity:1;fill-rule:nonzero;stroke:none"
             id="path22157"
             inkscape:connector-curvature="0" /><path
             d="m 864.957,908.918 c 5.793,-4.75 13.25,-10.543 21.918,-16.625 16.293,-11.375 41.418,-1.211 63.207,10.125 4.918,-7.5 19.668,-19.961 47.918,-33.043 59.21,-27.5 -102.25,18.918 -81.25,-7.707 11,-13.918 32.957,-16.711 53.543,-16.043 L 971.25,816.5 c -1.793,0 -0.207,-2.293 10.793,-10.332 23.377,-17.086 177.667,-129.461 213.457,-153.25 -6.58,-7 -16.08,-9.336 -26.42,-7.336 -0.33,0.086 -0.7,0.043 -1.04,0.086 -24.58,24.039 -108.37,100.789 -83.25,70.207 20.42,-24.793 54.25,-61.707 67.34,-75.918 2.41,-10.293 3.37,-20.5 2.33,-31.129 -0.08,-0.91 -0.29,-1.746 -0.58,-2.535 -24,25.75 -164.337,177.125 -171.837,186 -7.668,9 -27,22.832 -11.418,4.789 13.457,-15.539 143.165,-163.289 178.205,-203.207 v -0.25 c 0.3,-19.543 -0.25,-39.168 -1.04,-58.707 -0.83,-20.793 -2.29,-41.543 -5.29,-62.125 -3.58,-24.875 -16.04,-46.75 -28.21,-68.375 -15.16,-27.043 -26.46,-53.125 -13.79,-84.543 7.29,-18.25 17.08,-34.25 21.67,-53.754 1.08,-4.703 4.46,-6.039 2.62,-6.996 -2.33,-1.293 -5.04,-1.957 -7.58,-2.75 -8,-2.418 -16.38,-3.707 -24.63,-5 -4.66,-0.707 -9.37,-1.332 -14.08,-1.793 l -1.75,17.918 c 1.79,0 2.71,1.418 -0.29,5 -28.67,34.125 -56.21,20.75 -74.96,3.957 -0.21,12.75 -2.293,23.418 -7.832,22.5 -8.043,-1.375 -10.25,-26.125 -7.586,-44.457 -3.875,-1.707 -5.289,-1.043 -13.457,-0.957 l 0.043,3.375 c 0.957,0 1.75,1.375 1.207,3.957 -3.875,18.75 -13.875,40.293 -65,41.703 0.125,0.172 0.25,0.34 0.375,0.465 20.418,22.082 42.832,42.207 62.918,64.625 22.832,25.375 27.457,49.039 27.664,82 0.298,33.914 -2.25,67.75 -3.207,101.625 -0.375,13.207 -11.875,23.914 -20,33.375 -17.957,20.875 -35.957,40.289 -50.875,63.625 -30.5,47.664 -41,100.914 -38.668,156.75 0.5,12 1.543,23.957 2.543,35.914 0.832,10.043 4.168,22.961 2.375,32.918 -0.75,4.293 -7.207,8.625 -9.918,11.5 -6.75,7.125 -12.332,15.082 -17.125,23.543"
             style="fill:#b5b9bf;fill-opacity:1;fill-rule:nonzero;stroke:none"
             id="path22159"
             inkscape:connector-curvature="0" /><path
             d="m 499.418,930.832 c 6.625,2.711 12.957,6.086 19.289,9.461 0.125,-0.211 0.25,-0.375 0.375,-0.375 4.711,0.875 9.418,2.25 13.668,4.457 -19.043,-22.707 -36.418,-46.25 -39.5,-58.625 -1.5,-5.957 10.543,9.375 25.957,28.375 l 20.125,-1.082 c -7.5,-8.543 -7.875,-29.918 -29.539,-47.168 -19.25,-15.332 -37.168,-24.418 -80.961,-18.75 -0.457,0.082 -0.875,0.082 -1.25,0.082 -5.5,6.336 -10.789,12.086 -19.164,15.418 -3.043,1.207 -5.961,2.25 -8.793,3.25 -0.418,0.418 -0.832,0.793 -1.293,1.25 -26.539,25 1.918,36.082 30.5,44.793 18.336,5.539 28.336,10.5 36.086,14.957 1.582,0.418 3.25,0.582 5,0.332 2.164,-0.332 3.957,-1.25 5.664,-2 5.375,-6.125 13.586,-1.457 19.168,2.5 1.5,1.086 3.082,2.125 4.668,3.125"
             style="fill:#b5b9bf;fill-opacity:1;fill-rule:nonzero;stroke:none"
             id="path22161"
             inkscape:connector-curvature="0" /><path
             d="m 378.832,926.25 c -5.914,-5.293 -22.543,-18.125 -30.707,-24.375 -3.125,2.375 -6.043,5.293 -5.918,8.293 0.418,12.707 3.293,24.207 2.168,37.332 -1.418,16.168 -8.668,29.25 -2.75,45.121 2.207,5.879 2.414,12.879 2,20.209 3.207,3.05 7.168,5.42 10.707,7.05 0.125,0.04 0.207,0.16 0.293,0.37 5.582,0.42 14.207,1.83 26.543,4.67 36.457,8.33 55.207,19.79 42.832,21.37 -14.957,-5.75 -25.125,-9.91 -37.125,-9.91 -11.957,0 36.457,30.2 33.332,33.87 -16.664,-13.04 -45.582,-31.21 -66.664,-42.71 -0.918,-0.54 -1.754,-1 -2.5,-1.5 -1.418,-0.46 -2.836,-1 -4.168,-1.62 h -0.332 c -1.5,0.33 -2.875,0.96 -4.168,1.83 -1.086,10.46 -2,20.67 0.875,28.38 22.664,14.29 98.293,66.08 119.375,133.95 0.793,2.42 0.582,4.88 -0.668,6.96 -0.207,0.34 -0.457,0.63 -0.664,0.92 1.125,2.37 1.789,5.12 1.582,7.62 -1,10 31.168,19.34 38.207,24.71 9.793,7.46 17.293,17.46 31.375,14.21 6.918,-1.58 10.5,-4.58 17.75,-4.42 28.043,0.59 58.293,21.17 80.793,35.71 25.125,16.25 47.875,34.63 58.918,63.42 7.039,18.29 10.207,37.33 12.5,56.71 1.539,12.71 2.625,40.25 10.582,54.75 h 0.793 l 1.914,2.83 c 0.918,1.38 1.875,2.75 2.793,4.13 1.832,1.7 2.793,3.2 3,4.37 19.668,28.13 39.957,50.83 47.582,53.08 6.25,-13.2 11,-27.12 14.125,-41.37 0.711,-3.17 2.875,-3.96 5.211,-3.38 1.75,0.05 3.707,1 5.457,3.25 0.582,0.8 50.625,-28.08 57.957,-30.83 3.043,-1.17 5.836,-1.58 8.375,-1.5 0.418,-0.67 0.875,-1.25 1.418,-1.83 -3.793,-0.34 -7.625,-0.29 -11.543,0.21 -21.332,2.75 -11.789,-6.25 0,-20.17 11.793,-13.88 60.75,-14.42 47.211,-22.92 -10.168,-6.37 -16.668,-9.16 -41.625,-3.21 -16.75,4 -19.918,5.38 -1.836,-5.04 18.043,-10.41 43.043,-4.16 57.625,0 14.586,4.17 17.086,-1.46 7.375,-13.96 -9.707,-12.5 -70.414,-12.5 -35.5,-19.37 33.25,-6.5 61.461,24.67 95.586,55.08 26.462,23.54 -64.961,126.29 -61.461,85.96 1.086,-12.67 -7.332,-29 -21.082,-40.87 -2,0.7 -3.875,1.66 -5.543,2.83 0.336,6.79 1,13.54 2.668,20.21 9.082,16.66 16.918,36.12 15.543,53.87 -0.543,7.04 -3.586,19.92 -12.168,21.84 -6.875,1.54 -13.543,3.62 -20.043,6 15.043,9.12 37.875,-0.8 51.75,11.75 7.125,6.45 12.75,14.41 19.211,21.5 26.125,28.75 59.037,51.87 96.997,61.45 47.04,11.96 98.63,-5.79 123.21,-48.37 20.33,-35.17 29.75,-74.5 66.13,-97.17 28.83,-17.91 32.62,-20.12 13.16,11.13 -9.87,15.91 -17.91,27.46 -20.16,34.62 32.25,-3.66 64.33,-6.46 96.29,-13.25 23.71,-5 46.96,-12.08 69.58,-20.79 12,-4.67 23.63,-10.21 35.08,-16.08 12.63,-6.54 26.09,-20.29 39.25,-24.71 10.71,-3.58 26.17,0.42 36.96,2 21.5,3.12 42.75,7.04 64.38,9.17 26.75,2.62 54,-0.34 80.21,5.66 25.5,5.84 50.2,14.88 75.87,20.13 21.42,4.33 39.04,-0.75 59.04,-7.75 21.59,-7.54 43.96,-13 66.17,-18.38 22.33,-5.41 44.79,-10.25 67.29,-14.79 16.21,-3.29 33.63,-4.58 48.92,-11.12 35.16,-15.09 67.87,-37.63 99.33,-59.13 37.58,-25.62 74.17,-53.42 106.79,-85.12 3.51,-3.42 6.96,-6.92 10.34,-10.5 l -18.88,-13.8 c -1.42,0 9.92,-25.12 20.21,-45.58 33.83,-67.37 14.79,-157.92 -6,-206.08 12.25,177.66 -8.67,202.12 -36.21,240.79 -27.21,38.17 -41.75,41.08 -4.17,-6.25 55.84,-70.29 34.84,-224.25 22.3,-284.167 -26.75,-66 -67.17,-115 -105.96,-157.375 -0.09,-0.086 -0.25,-0.168 -0.38,-0.25 -27.46,-24.375 -56.58,-59 -88.91,-76.375 -21.88,-11.711 -41.21,-27.875 -63.63,-39.211 -21.04,-10.664 -42.83,-17.914 -64.87,-24.5 4.37,3.961 1.37,6.961 -11.75,8.25 -64.38,6.461 27.08,12.5 -10.42,40.625 -37.5,28.125 -38.54,-19.789 -54.17,-28.125 -15.62,-8.332 -39.58,-3.125 -32.29,19.793 30.79,55.207 39.29,95.793 39.5,122.457 10.75,11.586 17.58,28.043 19.46,44.125 3.29,27.961 1.83,55.168 10.54,82.371 0.25,0.84 -0.33,4.875 -0.92,2.961 -6.62,-20.789 -9.7,-42.789 -10.75,-64.496 -1.08,-22.25 -3.37,-40.711 -18.29,-57.211 -0.12,5.543 -0.66,10.25 -1.41,13.961 4.04,24.832 6.58,49.875 7.58,75.039 1.25,31.793 3.5,66.128 -4.63,97.168 -5.04,19.17 -11.33,36.67 -11.87,56.79 -0.42,16.67 1.83,33.34 0.29,49.96 -2.54,28.29 -21.33,51.63 -27.29,79.04 -0.54,2.63 -1.33,-1.04 -1.08,-2.08 5.45,-25.38 21.16,-46.83 26.29,-72.21 3.54,-17.75 0.37,-36.75 0.5,-54.71 0.08,-13 2.21,-25.58 5.75,-38.12 4.87,-17.42 7.87,-33.67 8.62,-51.96 0.71,-17.38 0.75,-34.71 0.34,-52.085 -0.63,-27.957 -2.75,-51.5 -7.13,-79.125 0,0 -5.62,-0.418 -6.33,-2.918 -7.09,-127.082 -51.04,-143.75 -62.5,-160.414 -11.46,-16.668 -33.34,-9.375 -33,4.164 27.37,17.711 67.37,82.293 70.5,179.168 2,61.996 -8.34,86 -16.09,92.54 -0.04,0.13 -0.04,0.29 -0.08,0.46 -2.04,10.13 -9.12,18.92 -14.54,27.42 -15.75,24.75 -9.88,53.41 -17.04,80.58 -3.46,13.13 -9.21,25.67 -12.67,38.92 -3.46,13.12 -6.58,26.29 -10.96,39.16 -8.71,25.8 -27.08,47.09 -34.83,73.5 -0.54,1.92 -1.17,-2.12 -0.92,-2.91 6.71,-22.84 20.13,-42.67 30.84,-63.71 12.12,-23.88 14.41,-52.33 23.66,-77.38 5.21,-14.12 5.21,-27.87 6.04,-42.87 0.55,-9.83 3.5,-19.17 5.88,-28.75 2.67,-10.67 7.96,-20.21 13.87,-29.33 2.88,-4.46 2.3,-7.34 4,-12.21 0,0 -1.12,-1.75 -1.12,-4.799 0,-86.496 8.33,-130.203 -19.79,-162.496 -5.67,-6.543 -11.25,-14.332 -18.59,-19.125 -13.33,-8.793 -13.37,-3.832 -22.79,5.582 -13.21,13.211 -35.79,23.043 -52.08,32.293 -4.46,2.5 -9.08,4.332 -13.79,6 -0.09,0.082 -0.21,0.168 -0.29,0.25 -0.05,0.082 -0.13,0.043 -0.21,-0.043 -5.54,1.961 -11.13,3.793 -16.5,6.375 -6.13,2.918 -16.29,16.293 -22.13,12.125 -1.71,-2.875 2.09,-3.75 4.17,-4.832 7.5,-3.918 11.25,-11.125 18.08,-16.082 8.42,-6.086 18.96,-7.125 28,-11.668 6.71,-3.332 13.38,-6.832 19.84,-10.75 6.54,-3.918 13.33,-7.5 19.7,-11.668 10.17,-6.664 8.5,-17.332 9.09,-27.832 -2.04,-2.207 -3.29,-4.543 -3.54,-7.5 -1,-12.625 -13.25,-41.832 -26.09,-70.293 l -9.33,5.461 c 1.62,0 2.87,14.414 2.79,20.039 -0.62,34.375 -4.87,68.75 -57.62,75.336 -38.42,4.789 -131.09,22.914 -163.21,29.164 -51.38,10.043 -120.84,24.543 -119.46,-23.5 12,-9.207 5.92,37.918 73.79,17.086 -26.58,-5.375 -50.87,-41.918 -50.87,-41.918 -6.92,-8.582 48.91,31.293 68.79,38.625 3.96,1.457 5.08,0.582 3.71,-0.25 -2.84,0.207 -23.5,-16.582 -26.8,-19.375 -10.91,-9.332 -12.08,-19.125 -11.83,-32.957 0.5,-27.086 -7.29,-89.586 -9.37,-101.586 -1.67,-9.625 7.41,-49.582 6.7,-67.832 -11.33,4.418 -20.66,13.5 -27.08,24.293 -0.87,1.457 -2.25,2.414 -3.87,2.664 -26.75,27.336 -32.38,57.125 -39.84,94 -11.79,58.625 -25.66,52.418 -32.66,80.918 -4,16.332 0.33,63.793 38.41,68.75 9.71,1.25 2.96,4.168 -2.21,4.168 -38.37,0 -51.45,-51.418 -43.7,-72.918 9.91,-27.582 20.87,-22.293 32.66,-80.918 6.88,-34 0.38,-66 19.25,-92.539 -2.16,3.082 -23.29,5.582 -28.16,7.914 -9.55,4.586 -17.75,11.375 -27.59,15.418 -9.62,4 -19.96,5.793 -28.79,11.668 -32.17,21.414 -76.46,51.625 -114.46,77.707 l 43.13,17.457 c 27.08,-14.625 24,37.836 5.25,29.793 -20.13,-8.582 -52.79,10.707 -52.09,32.918 0.21,6.414 0.25,12.25 -0.41,17.457 19.21,11.582 31.25,38.375 44.71,63.082 0.12,0.043 0.29,0.293 0.37,0.711 5.63,10.289 11.42,21.164 19.75,29.539 6.5,6.543 19.17,12.086 21.5,21.75 -7.33,0.543 -14.67,-5.457 -20.12,-9.914 -2.55,-2.129 -5.8,-8.793 -9.71,-8.375 -10.46,1.164 -3.96,13.625 -1.67,18.078 0.04,0.047 0.04,0.168 0.08,0.254 41.34,46.125 65,148.005 76.17,163.205 11.42,15.63 24.38,57.96 57.54,138.25 3.88,9.42 -3.12,7.63 -4.54,4.17 -32.21,-80.67 -48.96,-122.92 -60.42,-138.54 -10.79,-14.75 -30,-113.08 -69,-160.878 -0.08,0.211 -0.2,0.289 -0.33,0.211 -2.21,-1.586 -4.67,-2.625 -7.17,-3.5 -12.2,-4.293 -12.04,4.5 -9.91,11.746 0,0.043 0,0.129 0.04,0.211 18.12,33 45.71,99.13 64.33,146.46 22.75,57.79 62.75,125.83 82.46,193.83 2.92,10.04 -4.83,7.04 -6.58,0 -16.88,-68.79 -61.63,-125.66 -81.96,-182.87 -18,-50.75 -44.71,-122.29 -63.08,-155.217 -6.88,-2.203 -11.05,12.837 -14.67,17.427 -0.33,0.41 -0.71,0.79 -1.08,1.16 -0.17,0.29 -0.34,0.54 -0.5,0.79 -1.34,2.17 -2.84,4.25 -3.88,6.59 -1.29,2.83 -2.5,5.71 -3.79,8.46 -1.13,2.37 -2.92,5.16 -3.46,7.75 -0.83,3.83 -0.92,8.79 0.21,12.58 0,0.08 0.04,0.17 0.08,0.25 2.17,3.29 4.71,6.46 6.88,9.62 7.5,11.13 17.83,28.75 12.83,42.55 -2.87,3.75 -0.96,-18.13 -12.04,-30.75 -9.79,-11.21 -14.71,-25.55 -12.58,-40.21 0.75,-5.21 -0.34,-10.54 0.62,-15.75 1.92,-10.17 7.79,-20.377 10.54,-30.627 2.21,-8.336 3.84,-17.09 7.92,-24.75 4.37,-8.293 12.17,-14.211 11.17,-24.418 -0.59,-6.207 0.04,-11.168 4.41,-13.125 -10.96,-20 -21.96,-39.332 -39.37,-47.332 -4.13,6.25 -11.63,10.625 -25.21,12.5 -29.835,4.164 -34.378,3.125 -61.753,22.207 -2.164,1.5 -4.125,2.707 -5.914,3.625 3,1.625 5.914,3.25 8.664,4.707 24.293,13.211 -15.289,24.336 -38.914,22.25 -23.586,-2.082 -4.836,34 5.582,47.914 1.957,2.629 3.418,5.422 4.375,8.086 16.125,14.503 37.625,55.253 44.207,96.083 -7.625,-1.41 -16.664,-66.66 -44.414,-79.87 3.457,19.46 30.539,108.66 30.539,108.66 -1.207,15.3 -56.414,-129.248 -41.414,-130.455 -12.125,-21.543 -44.75,-48.043 -66.961,-60.207 8.375,9.5 13.875,23.5 13.836,35 0,7.539 -2.668,13.207 -6.293,19.746 -6.332,11.379 -0.418,23.546 -5.707,34.876 -0.461,1 -1.043,-2.75 -0.625,-3.62 3.75,-8.09 -0.25,-14.67 1.207,-22.463 0.832,-4.539 2.418,-8.332 4.457,-12.254 v -0.496 c 1.293,-10.5 1.5,-20.414 -2.414,-30.5 -1.293,-3.25 -2.668,-6.289 -4.293,-9.289 -4.332,-4.461 -10.043,-7.875 -14.582,-12.293 -9.836,-3.418 -19.375,-8.707 -28.543,-14.75 -0.75,0.332 -1.625,0.625 -2.832,0.832 -2.043,0.293 -4.375,0.086 -6.961,-0.5 -1.164,0.668 -2.289,1.336 -3.457,2.043 0.668,6.957 -0.832,13.918 -1,21 0.125,10.668 1.457,21.918 -1.457,32.043 -0.125,2.703 -0.25,5.375 -0.543,8.039 -0.25,2.586 -0.957,5.957 -1.957,8.336 -1.168,2.789 -2.5,5.332 -3.961,8 -2.125,3.957 -0.375,12.039 0.543,17.292 0.168,1.04 -0.668,4.71 -1.125,2.08 -1,-5.83 -2.582,-10.747 -2.125,-16.708 0.082,-1.254 0.418,-2.629 0.918,-3.75 4,-8.793 6.957,-16.707 6.957,-26.75 0.043,-20.164 2.668,-41.332 -9.082,-58.164 -27.25,-14.543 -65.836,-46.668 -94.793,-53.375 -38.918,-9.043 -19.457,1.375 -1.418,18.75 7.75,7.414 10.125,16.625 10.043,23.539 0.168,3.793 0.793,7.5 1.707,11.168 2.293,5 5,9.793 7.336,14.793 8.75,5.625 -3,2.832 -4.75,19.664 -1.168,10.918 -28.211,-31.207 -54.5,-59.375 -7.336,-7.832 15.25,14.586 44.957,31.5 -0.043,-3.25 -0.293,-6.5 -0.543,-9.75 -0.289,-0.625 -0.539,-1.414 -0.75,-2.375 -3.5,-15.289 -6.957,-38.207 -52.789,-44.5 -46.418,-6.414 -52.793,-21.5 -70.125,-22.875 -17.375,-1.375 -31.961,41.668 0,43.043 17.082,0.75 37.082,14 51.332,27.25 -0.125,-1.25 0.125,-2.918 0.668,-2.832 1.582,0.125 3.5,0.375 4.875,-0.586 0.039,-0.039 0.082,-0.082 0.125,-0.039 -0.043,-0.086 -0.086,-0.168 -0.086,-0.25 -0.289,-0.75 -0.707,-1.461 -1.082,-2.168 -1.168,-2 -2.625,-3.875 -3.75,-5.918 -3.168,-3.582 -7.082,-7 -9.918,-9.789 -7.375,-7.293 -18.207,-12.75 -23.832,-21.5 -0.543,-0.793 -0.043,-4.625 0.668,-3.586 0.039,0.086 0.082,0.125 0.125,0.211 0.164,-0.375 0.332,-0.5 0.539,-0.211 4.711,7.043 14.336,12.75 21.418,17.125 7.918,4.836 15.293,9.961 21.457,17 2.793,3.168 5.086,7.543 5.086,11.875 0,5 -3.586,8.5 -4.543,13.211 5.168,6.414 7.75,11.664 6.332,13.707 -4.832,6.918 -38.164,-46.543 -70.832,-44.875 -32.625,1.668 -1.793,30.207 -20.125,35.125 -7.5,2.043 -11.793,0.707 -14.918,-2.832 l -20.125,1.082 c 16.875,20.793 37.836,46 49.543,52.543 22.418,12.5 7.293,18.25 14.082,27.082 15.336,20.08 -7.082,-0.793 -33.375,-30.168 -10,-8.082 -21.582,-13.332 -33.25,-18.789 -5.832,-2.75 -11.664,-5.586 -16.914,-9.336 -0.125,-0.039 -0.293,-0.164 -0.461,-0.289 -9.875,-3.711 -18.375,-5.586 -21.207,-2.461 -0.125,0.5 -0.207,1 -0.125,1.586 11.457,6.25 6.25,16.664 0,13.332 -6.25,-3.375 -4.168,-9.168 -33.332,-9.668 -29.168,-0.539 -33.836,6.75 -41.668,9.375 -10.793,3.586 10.957,-27.082 -13,-41.164 -14.543,-8.5 -23.125,-16.75 -8.832,-32.086 -2.586,1.5 -5.125,3.25 -7.711,5.375 -5.5,4.543 -9.793,10.125 -14.957,14.836 4.957,11.289 20.832,27.25 20.832,31.957"
             style="fill:#b5b9bf;fill-opacity:1;fill-rule:nonzero;stroke:none"
             id="path22163"
             inkscape:connector-curvature="0" /><path
             d="m 2008.83,551.34 c -11.42,34.32 -29.54,65.203 -39.41,100.351 -7.33,26.102 -14.59,53.2 -16.62,80.442 -40.93,-33.91 -98.95,-56.125 -150.51,-66.59 2.37,-30.938 7,-62.684 21.53,-90.402 15.86,-30.243 35.5,-55.477 37.13,-90.973 1.25,-27.313 -12.43,-55.832 -30.45,-75.73 -10.61,-11.692 -22.14,-21.926 -34.95,-31.176 -6.48,-4.68 -15.12,-9.582 -19.98,-16.055 -7.59,-10.109 4.82,-18.008 14.24,-22.086 2.29,3.332 5.45,5.945 9.65,6.824 10.81,2.258 6.92,-12.16 10.9,-14.484 11.39,-6.652 26.87,-8.051 39.64,-8.129 9.67,-0.059 6.6,-4.449 12.39,1.465 2.09,2.121 4.75,4.625 7.52,5.836 7.55,3.308 15.94,3.582 21.28,-3.942 9.13,-12.875 12.24,-19.593 29.79,-17.308 10.39,1.351 30.58,4.695 37.95,13.695 -2.05,-2.031 -0.76,5.098 -0.95,9.063 -0.25,5.55 -0.38,11.117 -0.39,16.675 -0.08,39.942 3.66,74.575 19.6,111.309 11.21,25.824 41.29,62.23 31.64,91.215"
             style="fill:#b5b9bf;fill-opacity:1;fill-rule:nonzero;stroke:none"
             id="path22165"
             inkscape:connector-curvature="0" /><path
             d="m 442.074,1043.57 c -19.961,-15.22 -57.449,-12.93 -77.41,-28.15 -20.777,28.13 43.469,31.36 77.41,28.15"
             style="fill:#9da2a9;fill-opacity:1;fill-rule:evenodd;stroke:none"
             id="path22167"
             inkscape:connector-curvature="0" /><path
             d="m 1546.95,227.234 c -67.09,-16.308 -67.11,18.153 -119.64,28.149 11.44,27.582 59.17,-24.879 49.26,21.113 19.47,1.195 24.16,-10.808 14.07,-21.113 13.75,-0.586 54.75,25.781 21.11,28.152 18.27,31.981 51.19,-28.656 35.2,-56.301"
             style="fill:#9da2a9;fill-opacity:1;fill-rule:evenodd;stroke:none"
             id="path22169"
             inkscape:connector-curvature="0" /><path
             d="m 625.047,1627.67 c 24.016,-11.04 -10.055,-59.21 7.035,-63.34 -16.922,-22.15 -20.195,54.08 -7.035,63.34"
             style="fill:#9da2a9;fill-opacity:1;fill-rule:evenodd;stroke:none"
             id="path22171"
             inkscape:connector-curvature="0" /><path
             d="m 871.355,1367.29 c 1.04,15.7 17.727,-9.13 35.188,0 -33.375,45.4 -132.227,107.19 -133.715,182.97 -6.906,9.51 -18.769,14.06 -28.14,21.11 14.699,22.12 -6.403,39.26 7.039,56.3 46.589,-25.38 98.851,-114.76 140.738,-98.52 19.738,-12.2 6.613,-18.44 7.039,-42.23 12.383,1.71 16.043,12.12 14.074,28.15 31.637,-31.7 77.629,-49.05 70.371,-119.63 -29.054,-1.44 -22.894,-38.09 -49.254,-42.23 -1.187,-9.51 35.789,-14.06 14.075,-21.1 -1.918,4.87 -8.918,-2.6 -42.227,-14.09 v 21.12 c -6.27,-3.12 -12.59,-6.18 -14.078,-14.07 6.418,-19.44 -17.887,24.74 21.113,21.11 -7.105,19.81 -29.89,-1.95 -42.223,0 0.192,6.84 8.61,5.46 14.075,7.03 -3.121,6.27 -6.176,12.59 -14.075,14.08"
             style="fill:#9da2a9;fill-opacity:1;fill-rule:evenodd;stroke:none"
             id="path22173"
             inkscape:connector-curvature="0" /><path
             d="m 1441.38,452.43 c -32.58,-20.602 -73.54,8.308 -77.4,-35.184 33.31,-3.047 103.7,24.754 84.44,28.149 -14.62,-7.875 -14.91,-7.59 -7.04,7.035 m -436.31,7.035 c 9.11,-4.789 62.91,-12.11 42.22,14.078 -19.42,-12.676 8.32,9.59 7.04,21.109 -21.87,-6.273 -49.06,-7.238 -49.26,-35.187 M 392.813,881.707 c 16.152,-20.437 99.121,-36.75 91.484,0 -0.793,-8.582 -2.102,-16.66 -14.07,-14.074 2.168,8.078 13.777,46.476 0,28.152 -0.969,-13.105 -4.625,-23.519 -14.079,-28.152 -10.382,26.707 30.356,61.769 14.079,49.265 -33.524,-1.14 -56.555,-21.382 -77.414,-35.191 m 767.077,246.313 c -8.69,-43.03 -44,-96.61 -42.22,-126.67 18.4,29.64 52.12,115.23 42.22,126.67 m -56.3,14.08 c 2.88,-16.96 -12.86,-15.3 -7.04,-35.2 8.29,-1.09 19.98,1.22 21.12,-7.03 -1.59,-5.46 -0.21,-13.88 -7.04,-14.07 -13.87,39.41 -37.87,-19.56 -42.23,-35.19 12.26,0.52 21.89,-1.57 28.15,-7.04 -5.12,19.2 13.99,14.16 14.08,28.15 -12.11,2.78 -18.04,-10.45 -21.12,0 3.42,8.32 7.51,15.96 14.08,21.11 19.91,-36.29 39.98,36.35 28.15,56.3 -4.77,-16.34 -17.97,-24.25 -28.15,-35.18 -6.73,13.1 21.07,23.51 0,28.15 m -112.602,-77.42 c -5.226,-26.22 -16.242,-63.54 14.082,-70.371 2.18,21.271 -7.82,54.731 14.07,56.301 -5.96,-38.26 -20.269,-74.446 -14.07,-105.559 30.39,6.894 33.91,51.379 14.07,70.369 0.79,13.29 23.27,4.88 21.11,21.12 -24.68,-4.34 -12.26,25.32 0,7.03 6.57,19.11 -43.418,16.47 -14.07,35.18 1.67,-32.24 19.58,18.04 28.15,-14.07 6.53,21.28 -10.06,54.73 0,56.3 6.22,-18.21 36.55,-6.75 28.15,14.07 -13.52,-30.84 -17.59,18.58 -14.08,28.15 -17.61,9.3 -22.03,-27.82 -28.15,-7.03 15.8,8.45 6.57,64.33 -7.04,28.15 -8.26,18.66 13.49,41.43 0,42.22 -13.19,-37.09 -82.987,-186.66 -42.222,-161.86 m 154.822,281.5 c 2.56,-26.35 47.45,50.66 63.34,77.41 -12.92,-12.89 -28.94,-22.67 -49.26,-28.15 24.41,-33.14 -31.94,-35.53 -35.19,-63.33 9.17,45.71 51.76,79.25 0,119.63 7.39,13.61 35.4,14.57 21.11,35.19 21.01,-7.52 49.99,57.93 56.3,63.33 38.79,23.17 58.9,-65.76 56.3,-84.45 -14.34,-14.13 -13.8,3.11 -28.15,7.04 34.66,-37.78 30.18,-56.94 7.04,-91.49 -13.29,0.78 -4.88,23.27 -21.11,21.12 -19.72,-6.91 10.21,-18.78 -7.04,-28.16 -10.22,3.13 0.72,6.19 0,14.08 -28.71,5.25 -1.34,-45.58 -35.19,-35.19 0.78,-17.22 23.27,-1.49 21.11,7.04 7.63,-9.64 -7.25,-28.98 -7.03,-42.22 35.05,4.83 26.06,53.69 56.3,63.33 2.26,-4.73 10.68,-66.44 -7.04,-42.22 6.24,-111.28 -73.4,-253.66 -119.63,-358.906 35.04,21.116 -8.8,-56.41 28.14,-91.484 25.44,7.398 20.08,45.609 63.34,35.184 2.59,11.968 -5.5,13.277 -14.08,14.074 -18.35,6.164 31.45,-3.695 42.23,0 -28.88,4.109 3.36,14.805 14.08,35.187 21.98,2.157 -17.89,-20.332 7.03,-21.113 -0.09,-19.742 -19.2,16.758 -14.07,-14.074 23.76,2.73 39.1,-30.61 49.26,-7.031 6.52,-25.082 4.06,-15.426 35.19,-21.118 -7.66,-23.07 -31.88,-33.761 -42.23,-35.183 -22.92,16.625 39.43,6.926 28.15,35.183 -5.21,-20.589 -43.14,-8.464 -42.23,-35.183 -4.42,32.691 -46.11,-15.348 -28.14,0 15.57,-7.094 -17.34,-24.227 -7.04,-49.262 29.92,52.481 129.88,25.824 161.86,42.219 -1.02,-18.75 49.36,-6.457 84.45,-21.11 -33.18,26.219 19.88,-0.691 49.26,7.036 -14.3,11.511 -19.48,32.136 -42.23,35.191 25.46,52.129 12.24,56.766 49.26,91.484 -1.9,33.676 -33.51,70.836 -7.03,91.486 16.36,-0.66 29.56,-32.46 28.15,7.03 18.53,-6.76 39.86,-34.02 21.11,-56.29 38.1,1.77 21.69,58.06 56.3,63.34 -10.33,-34.25 -29.14,-60 -28.15,-105.566 32.23,44.326 28.51,84.126 49.26,133.716 -2.49,9.85 -12.39,0.6 -14.08,-7.05 -8.04,60.04 -16.08,85.23 -14.07,112.6 -1.13,8.25 -12.83,5.94 -21.11,7.04 5.76,23.66 -1.95,40.05 -7.04,70.38 -10.44,-3.08 2.78,-9.01 0,-21.12 -13.9,4.87 -18.76,18.77 -21.11,35.19 9.35,7.07 26.19,6.65 28.15,21.12 14.83,-5.76 19.31,-37.11 7.04,-49.27 20.22,9.83 35.75,-19.18 42.22,0 1.08,-1.27 13.9,-33.45 -7.04,-28.15 4.05,-14.71 17.45,-20.08 14.08,-42.23 11.05,3.03 6.02,22.15 28.15,14.08 -35.9,-20.43 2.34,-41.54 -21.11,-63.34 4.77,-14.38 49.25,-10.41 28.15,-42.22 43.29,20.66 21.96,98.48 7.03,126.67 5.49,17.98 34.99,11.94 35.19,35.19 8.16,-23.57 -1.55,-26.55 28.15,-42.22 -42.36,-25.16 10.21,-95.23 7.04,-119.64 11.97,-2.59 13.27,5.49 14.07,14.07 8.86,-1.73 7.1,-13.98 0,-14.07 1.74,-7.64 14,-4.77 14.08,-14.08 52.31,1.64 24.4,83.51 84.44,77.42 -0.19,-6.84 -8.61,-5.46 -14.07,-7.04 28.16,-7.92 9.36,-21.99 28.15,-42.23 8.82,11.58 -5.08,60.31 -21.11,70.38 18.87,-1.23 71.89,-62.43 56.3,-98.53 21.61,6.54 12.23,44.07 28.14,56.3 18.96,-0.47 33.83,-16.08 21.12,-28.15 21.55,11.7 8.12,18.9 7.03,42.23 18.41,-8.23 30.28,21.71 28.15,-7.04 11.5,-3.17 11.5,38.36 0,35.19 15.1,21.39 21.57,-24.79 35.2,-28.15 17,15.21 -14.82,41.08 -14.08,63.34 21.86,-6.3 30.43,-25.87 35.19,-49.26 31.75,12.85 -7.1,45.84 -7.04,70.37 10.18,-10.93 23.38,-18.85 28.14,-35.19 24.86,18.72 8.26,35.14 35.19,49.26 20.55,-9.94 22.33,-38.66 35.19,-56.3 7.55,4.71 9.76,42.12 -7.04,56.3 6.91,21.58 18.78,-8.09 28.15,-7.03 1.06,17.47 -3.63,29.2 -14.08,35.18 132.46,-72.91 165.41,-407.157 63.34,-562.989 V 557.992 c -50.65,-69.871 -9.98,-167.633 14.08,-239.269 -64.66,-20.215 -134.49,-9.063 -204.09,14.074 83.39,89.488 93.27,419.668 -35.18,464.465 -23.24,-16.641 -41.31,-38.453 -63.34,-56.301 3.09,-90.734 51.23,-136.434 56.3,-225.195 -35.2,-46.903 -57.84,-106.364 -49.26,-197.043 -6.27,-3.121 -12.59,-6.18 -14.08,-14.078 -62.65,5.375 -119,17.05 -175.93,28.152 21.7,76.437 88.75,75.441 84.45,154.82 -3.23,59.711 -70.53,107.442 -63.34,182.969 C 1729.53,656.902 1671.52,637.5 1589.17,642.441 1543.14,563.172 1461,426.648 1518.8,311.684 c -22.21,-22.512 -17.09,49.804 -49.26,21.113 3.71,5.656 7.34,11.426 7.03,21.109 -6.43,19.137 -13.08,-18.746 -35.19,-7.035 5.16,6.57 12.8,10.664 21.12,14.074 -5.16,12.535 -12.8,1.012 -21.12,0 -18.69,10.2 31.22,10.344 28.16,28.153 -3.9,9.168 -39.2,-22.844 -35.19,21.105 -24.35,7.375 -37.46,-32.168 -56.3,-7.031 -10.04,-13.43 -16.36,-30.559 -21.12,-49.266 -9.98,56.512 -30.36,137.442 -14.07,197.047 12.55,-22.637 6.53,-63.844 14.07,-91.488 48.18,-26.848 44.56,6.043 84.45,14.078 -7.34,22.062 -41.19,-15.32 -21.11,14.074 -17.47,1.055 -29.21,-3.637 -35.19,-14.074 -9.85,2.484 -0.6,12.391 7.04,14.074 -56.27,58.77 18.9,113.828 0,168.895 52.21,16.597 23.91,95.308 84.45,98.527 -73.18,120.57 -201.24,-24.211 -140.75,-147.785 -35.44,20.859 -80.36,32.234 -119.63,49.258 -26.36,0.554 -21.27,-30.336 -56.3,-21.11 24.96,-142.578 -95.32,-256.746 -28.15,-380.019 -55.61,-16.297 -95.12,-5.91 -161.861,-7.031 12.812,22.851 7.391,20.269 14.07,49.257 22.081,-6.5 29.931,-22.187 21.121,-42.226 h 35.18 c 21.64,14.449 -2.99,34.344 35.19,35.187 -25.87,71.95 37.54,122.746 21.11,168.895 -24.92,-3.223 -40.65,-15.649 -70.37,-14.07 22.45,-44.149 -47.375,-78.344 -77.414,-112.598 5.129,26.398 42.785,47.398 49.257,84.449 C 1028.59,591.91 833.93,678.91 885.43,867.633 c -9.637,18.515 -29.621,26.68 -35.184,49.265 -102.18,-63.906 -249.609,-135.32 -401.133,-105.562 -17.57,29.348 -46.554,47.277 -77.41,63.34 4.684,28.152 28.852,36.832 28.149,70.375 24.214,-18.344 85.406,32.57 84.445,-14.074 23.433,24.535 37.957,50.531 70.379,49.257 -1.059,13.016 -23.828,4.321 -28.153,14.075 5.61,17.201 41.09,-14.145 49.262,14.071 16.418,-22.646 12.637,-49.622 -14.074,-56.298 6.961,-28.129 44.621,-25.879 49.266,-49.258 21.671,4.121 21.593,30.004 42.218,35.184 15.723,-51.055 -54.019,-82.188 -84.445,-91.485 12.742,-3.656 84.75,-6.652 105.555,35.184 -6.114,20.789 -10.532,-16.324 -28.145,-7.031 12.266,34.445 39.297,15.422 42.219,63.332 -16.859,2.793 3.906,-32.051 -21.109,-21.11 13.781,13.153 2.175,25.774 0,42.223 35.16,-6.094 24.675,-30.566 56.304,-28.144 -0.121,-21 -18.301,-23.934 -21.117,-42.227 9.051,-19.684 14.555,22.168 35.191,14.074 -5.464,6.262 -7.566,15.891 -7.035,28.153 26.813,8.652 75.7,10.8 63.328,84.443 8.754,10.56 10.961,-44.936 14.079,-63.338 25.488,23.773 43.847,54.678 42.226,105.558 10.453,-5.96 10.18,-22.65 14.074,-35.18 6.93,23.44 4.442,61.63 42.227,70.37 -9.613,66.37 53.613,80.42 35.183,154.82 12.383,-1.69 16.043,-12.1 14.075,-28.15 20.734,19.15 10.156,69.61 35.183,84.45 17.142,-43.7 -7.39,-96.61 0,-126.67 32.682,33.18 41.312,62.7 42.222,98.52 15.27,1.19 3.19,-24.96 7.04,-35.18 7.27,45.89 46.16,49.14 63.34,91.49 7.99,-1.34 3.91,-7.07 0,-7.04 -3.88,-14.44 13.43,-16.8 14.08,-7.04 21.07,-4.63 -6.74,-15.04 0,-28.15 16.66,11.48 14.97,41.31 28.14,56.3"
             style="fill:#9da2a9;fill-opacity:1;fill-rule:evenodd;stroke:none"
             id="path22175"
             inkscape:connector-curvature="0" /><path
             d="m 435.039,1184.32 c 32.621,2.78 -7.336,-67.43 -28.148,-77.42 -11.786,14.58 39.562,63.21 28.148,77.42"
             style="fill:#9da2a9;fill-opacity:1;fill-rule:evenodd;stroke:none"
             id="path22177"
             inkscape:connector-curvature="0" /><path
             d="m 716.535,1177.28 c 17.563,-27.23 -48.496,-31.05 -63.34,-49.26 -10.425,13.03 -36.371,10.54 -35.187,35.18 21.582,15.96 78.426,-3.35 98.527,14.08"
             style="fill:#9da2a9;fill-opacity:1;fill-rule:evenodd;stroke:none"
             id="path22179"
             inkscape:connector-curvature="0" /><path
             d="m 688.383,1071.72 c 14.664,-19.43 -34.207,-24.2 -42.223,-28.15 -21.574,17.51 41.395,9.74 42.223,28.15"
             style="fill:#9da2a9;fill-opacity:1;fill-rule:evenodd;stroke:none"
             id="path22181"
             inkscape:connector-curvature="0" /><path
             d="m 1457.35,957.152 c 1.6,5.84 4.72,11.203 8.88,16.043 h -10.77 c 14.24,16.313 -2.87,16.176 -14.08,7.039 2.25,8.621 -1.13,43.466 -7.03,21.116 2.95,-9.69 -0.2,-13.264 -5.85,-14.338 0.03,-5.008 -0.27,-10.012 -1.15,-14.942 -0.69,-3.902 -1.47,-7.781 -2.28,-11.66 -0.05,-3.637 -0.07,-7.269 -0.07,-10.91 v -0.023 c 4.09,-0.754 7.15,-1.993 9.35,-4.426 -17.75,-4.766 -12.47,-23.387 -7.04,-28.153 10.18,10.93 9.39,32.84 21.11,42.223 6.24,-20.984 -21.94,-42.851 -7.04,-49.262 1.69,13.2 11.59,-3.992 14.08,7.039 -11.95,5.356 -4.77,26.848 1.89,40.254"
             style="fill:#9da2a9;fill-opacity:1;fill-rule:evenodd;stroke:none"
             id="path22183"
             inkscape:connector-curvature="0" /><path
             d="m 444.566,1189.52 c -33.316,5.69 -134.695,22.99 -218.777,262.49 -1.266,3.59 -2.363,6.24 -3.277,8.17 -24.578,-81.64 18.136,-292.78 112.355,-396.02 18.555,11.65 92.719,61.36 114.613,124.47 -1.468,0.3 -3.246,0.61 -4.914,0.89"
             style="fill:#e5e7ea;fill-opacity:1;fill-rule:nonzero;stroke:none"
             id="path22185"
             inkscape:connector-curvature="0" /><path
             d="m 231.25,1415.63 c -6.535,29.51 -6.531,1.39 -6.531,1.39 10.414,-75 42.383,-160.85 79.883,-216.06 11.457,1.04 -54.168,129.68 -1.563,55.73 31.223,-43.9 62.645,-52.48 13.02,-1.56 -48.227,49.48 -76.996,125.22 -84.809,160.5"
             style="fill:#cccfd5;fill-opacity:1;fill-rule:nonzero;stroke:none"
             id="path22187"
             inkscape:connector-curvature="0" /><path
             d="m 325.168,907.625 c 2.457,16.332 3.039,30.918 -0.793,47.375 -2.875,12.5 -5.25,23.707 0.082,35.918 8.086,18.462 -2.582,37.162 4.25,55.372 0.461,1.29 1.211,2.63 2.086,3.96 l -1.543,1.63 C 233.332,1152.92 179.207,1384.92 213.375,1472 l 0.25,0.54 c 1.125,2.21 3.793,4.75 7.625,4.75 6.332,0 11.043,-6.12 16.332,-21.12 81.625,-232.59 177.586,-248.96 209.086,-254.34 1.707,-0.29 3.289,-0.54 4.707,-0.83 -0.082,10.21 2.918,17.08 13.375,21.83 11.457,5.21 19.918,9.63 27.082,14.09 8.293,5.12 12,14.29 20.293,19.29 7.418,4.46 14,6.46 22.582,6.29 7.711,-0.12 13.711,-6.21 21.461,-5.42 16.125,1.67 32.039,10.13 46.039,17.84 39.918,22.08 76.168,47.21 84,95.12 4.168,25.59 3.961,62.42 16.043,81.17 -15.043,5.04 -21.207,15.96 -22.668,27.87 -2.375,20.05 -15.957,25.34 -15.957,25.34 -60.457,38.62 -52.207,95.62 -48.625,121.54 0,0 1.75,23.96 7.293,23.96 3.5,0 2.332,-8.42 22.914,-41.67 14.25,-20.58 58.543,-49 105.586,-63.92 -8.961,12.09 -19.25,23.17 -23.75,37.92 -6.211,20.33 -10.125,53.84 7.082,70.33 5.582,5.38 19.418,18.55 27.332,15.92 1.75,-4.33 0.418,-25.66 3.711,-30.42 17.625,-25.37 47.957,-46 74.125,-61.41 8.039,-4.75 16.164,-9.09 24.539,-12.92 0.375,2.63 1.875,5.38 4.875,7.38 7.293,4.91 14.336,7.7 23.168,8.75 7.918,0.91 26.125,-1 31.457,5.62 7.711,9.54 15.875,18.63 24.668,27.21 29.375,28.71 67.04,54.54 108.67,60.33 44.79,6.25 94.62,-6 121.08,-45.58 8.83,-13.21 13.58,-28.75 22.46,-41.83 8.96,-13.13 22.62,-12.63 37.08,-13.96 39.92,-3.75 80,-8.63 118.79,-19.21 26.13,-7.17 52,-16 76.13,-28.42 16.42,-8.5 36.92,-28.66 55.25,-27.62 40.21,2.33 79.29,12.79 119.83,13.71 19.67,0.45 37.79,1.37 56.92,6.54 12.12,3.25 24.12,6.87 36.25,10.25 17.92,5 37.67,10.75 56.5,8.66 19.08,-2.08 36.37,-10.33 54.67,-15.66 21.66,-6.34 43.54,-11.79 65.53,-16.79 34.76,-7.92 75.26,-9.84 107.38,-25.8 73.21,-36.37 147.25,-87.12 204.5,-145.58 126.79,-129.54 153.17,-328.83 102.67,-496.832 -3.83,-12.793 -3.79,-25.625 -9.17,-38.086 -7.58,-17.539 -23.71,-34.625 -26.21,-53.914 -4.7,-36.336 -4.54,-73.918 -4.25,-110.543 0.17,-21.332 3.25,-43.168 0.67,-64.422 -3.25,-26.41 -15.87,-50.453 -17.5,-76.953 -1.75,-27.668 -0.04,-57.207 9.67,-83.457 7.12,-19.125 16.08,-37.543 22.91,-56.75 8.63,-24.293 5.92,-38.625 -20.16,-45.5 -38.67,-10.125 -81.38,-12.918 -120.88,-7.168 -23.08,3.418 -94.16,12.543 -84,48.793 3.12,11.164 14,20.039 21.29,28.289 9.75,11 19.46,22.586 25.58,36.086 5.72,12.625 6.92,24.375 7.17,37.789 1.21,64.961 0.3,130 -0.41,194.918 -0.25,23.375 0.37,36.375 -8.96,57.918 -11.92,27.457 -35.38,78.289 -69.79,83.375 -14.96,-17.086 -33,-31.793 -52.04,-44.836 1.66,-33.125 11.62,-67.289 21.62,-98.457 10.54,-32.582 34.17,-64.375 37.13,-98.625 2.16,-24.793 -20.92,-53.082 -30.8,-74.418 -17.79,-38.457 -23.5,-74.289 -22.95,-116.664 0.25,-19.668 0,-36.5 -19.88,-47.086 -15.54,-8.25 -38.17,-11.707 -55.42,-2.332 -8.66,4.668 -18.75,23.125 -27.54,11.668 -6.37,-8.293 -19.46,-5.586 -28.66,-4.793 -12,1 -45.13,1.832 -40.88,20.375 -0.87,-3.832 -5.79,-8 -9.87,-6.707 -24.67,7.957 -37.5,27.957 -17.84,48.289 11.67,12.043 27.25,19.793 39.42,31.336 15.42,14.539 29.5,32.039 34.87,53 11.71,45.914 -17.95,75.539 -35.25,114.207 -13.41,29.996 -18.33,61.918 -20.62,94.5 -40.83,-10 -80.46,-19.668 -122.58,-24.418 -26.17,-2.957 -52.46,-5.332 -78.8,-6.5 -0.33,0 -0.62,-0.039 -0.95,-0.039 -19.38,-39.875 -39.3,-79.586 -56.63,-120.375 -14.17,-33.336 -18.83,-65.586 -20.79,-101.793 -0.96,-17.543 -3.25,-37.082 0.12,-54.5 2.67,-13.875 15.21,-27.457 22.92,-38.875 8.58,-12.75 22.83,-28.668 25.5,-44.375 2.5,-14.707 1.46,-30.668 1.46,-45.582 0,-4.711 -4.88,-10.461 -9.46,-11.293 -72.62,-13.418 -155.04,-17.707 -225.71,6.25 -3.41,1.168 -4.33,3.957 -3.79,7 -1.33,-0.668 -2.67,-0.918 -3.92,-0.793 -1.45,-0.082 -2.87,0.168 -4.2,1.043 -13.88,9.082 -29.67,18.375 -26.13,37.418 2.33,12.457 11.08,24.164 19.79,33.039 1.13,1.125 2.62,2.418 4.29,3.336 18.42,16.25 22.8,41.25 23.09,64.75 0.33,26 -0.25,53.414 -6.21,78.875 -4.96,21.375 -9,40.082 -8.67,62.457 0.5,28.707 2.88,57.293 4.63,85.918 -13.17,0.875 -25.29,6.5 -34.71,16.207 -3.58,3.707 -7.08,7.539 -10.01,11.75 -4.49,6.457 -3.28,1.168 -12.2,1.793 -19.54,1.375 -42.29,5.539 -58.71,17.789 -9.46,-11.207 -22.96,-17.164 -37.83,-17.082 2.29,-10 2.87,-19.918 -3.25,-28.832 0.62,-44.461 1.08,-91.836 -9.08,-135.211 -6.05,-25.914 -20.92,-49.664 -33.88,-72.582 -9.92,-17.5 -13.12,-32.957 -8.04,-53.5 5.58,-22.668 48.21,-77.457 12.5,-93.668 -30.17,-13.664 -70.83,-15.414 -103.38,-13.457 -8.04,0.457 -20.95,0.125 -26.955,6.625 -4.625,5.043 -13.457,-0.875 -19.418,-1.043 -11.875,-0.289 -23.707,0.25 -35.5,1.711 -17.664,2.25 -36.75,4.207 -53.707,10.039 -11.707,4.043 -8.293,20.086 -6.418,29.168 4.336,21.168 11.168,32.043 26.375,47.543 18.668,19 39.086,37 55.961,57.75 22.664,27.832 18.375,61.582 17.375,95.707 -0.711,24.582 5.25,62.043 -11,82.375 -30.668,38.25 -64.25,71 -82.75,117.832 -16.293,41.293 -20.961,84.168 -18.336,128.336 0.75,11.957 1.711,23.914 2.75,35.875 0.375,4.707 2.543,21.332 2.543,21.332 C 862.543,875 852.043,889.082 844.457,904.957 815.5,894.875 789.793,868.168 765.5,850.918 736.668,830.457 696.375,823.5 662.082,819.332 638.375,816.5 615.293,814.168 594.125,802 584.207,796.25 574,787.082 562.375,785.125 540.332,781.375 508,779.207 490,793.582 c -13.543,10.836 -32.793,4.625 -48.293,13.543 -13.664,7.832 -21.707,19.043 -32.457,30.043 -9.211,9.457 -21.332,8.957 -32.457,14.832 -15.793,8.293 -27,21.75 -40.457,32.957 -7.586,6.336 -12.711,12.418 -11.168,22.668 m 9.707,156.545 c 18.539,11.62 92.707,61.37 114.625,124.46 -1.5,0.29 -3.25,0.62 -4.918,0.87 -33.332,5.71 -134.707,23 -218.789,262.5 -1.25,3.58 -2.375,6.25 -3.293,8.17 -24.582,-81.63 18.164,-292.75 112.375,-396 m 43.957,-137.92 c 0,-4.707 -15.875,-20.668 -20.832,-31.957 5.168,-4.711 9.457,-10.293 14.957,-14.836 2.586,-2.125 5.129,-3.875 7.711,-5.375 -14.293,15.336 -5.707,23.586 8.832,32.086 23.957,14.082 2.207,44.75 13,41.164 7.832,-2.625 12.5,-9.914 41.668,-9.375 29.164,0.5 27.082,6.293 33.332,9.668 6.25,3.332 11.457,-7.082 0,-13.332 -0.082,-0.586 0,-1.086 0.125,-1.586 2.832,-3.125 11.332,-1.25 21.207,2.461 0.168,0.125 0.336,0.25 0.461,0.289 5.25,3.75 11.082,6.586 16.914,9.336 11.668,5.457 23.25,10.707 33.25,18.789 26.293,29.379 48.711,50.248 33.375,30.168 -6.789,-8.832 8.336,-14.582 -14.082,-27.082 -11.707,-6.543 -32.668,-31.75 -49.543,-52.543 -15.414,-19 -27.457,-34.332 -25.957,-28.375 3.082,12.375 20.457,35.918 39.5,58.625 -4.25,-2.207 -8.957,-3.582 -13.668,-4.457 -0.125,0 -0.25,0.164 -0.375,0.375 -6.332,-3.375 -12.664,-6.75 -19.289,-9.461 -1.586,-1 -3.168,-2.039 -4.668,-3.125 -5.582,-3.957 -13.793,-8.625 -19.168,-2.5 -1.707,0.75 -3.5,1.668 -5.664,2 -1.75,0.25 -3.418,0.086 -5,-0.332 -7.75,-4.457 -17.75,-9.418 -36.086,-14.957 -28.582,-8.711 -57.039,-19.793 -30.5,-44.793 0.461,-0.457 0.875,-0.832 1.293,-1.25 2.832,-1 5.75,-2.043 8.793,-3.25 8.375,-3.332 13.664,-9.082 19.164,-15.418 0.375,0 0.793,0 1.25,-0.082 43.793,-5.668 61.711,3.418 80.961,18.75 21.664,17.25 22.039,38.625 29.539,47.168 3.125,3.539 7.418,4.875 14.918,2.832 18.332,-4.918 -12.5,-33.457 20.125,-35.125 32.668,-1.668 66,51.793 70.832,44.875 1.418,-2.043 -1.164,-7.293 -6.332,-13.707 0.957,-4.711 4.543,-8.211 4.543,-13.211 0,-4.332 -2.293,-8.707 -5.086,-11.875 -6.164,-7.039 -13.539,-12.164 -21.457,-17 -7.082,-4.375 -16.707,-10.082 -21.418,-17.125 -0.207,-0.289 -0.375,-0.164 -0.539,0.211 -0.043,-0.086 -0.086,-0.125 -0.125,-0.211 -0.711,-1.039 -1.211,2.793 -0.668,3.586 5.625,8.75 16.457,14.207 23.832,21.5 2.836,2.789 6.75,6.207 9.918,9.789 1.125,2.043 2.582,3.918 3.75,5.918 0.375,0.707 0.793,1.418 1.082,2.168 0,0.082 0.043,0.164 0.086,0.25 -0.043,-0.043 -0.086,0 -0.125,0.039 -1.375,0.961 -3.293,0.711 -4.875,0.586 -0.543,-0.086 -0.793,1.582 -0.668,2.832 -14.25,-13.25 -34.25,-26.5 -51.332,-27.25 -31.961,-1.375 -17.375,-44.418 0,-43.043 17.332,1.375 23.707,16.461 70.125,22.875 45.832,6.293 49.289,29.211 52.789,44.5 0.211,0.961 0.461,1.75 0.75,2.375 0.25,3.25 0.5,6.5 0.543,9.75 -29.707,-16.914 -52.293,-39.332 -44.957,-31.5 26.289,28.168 53.332,70.293 54.5,59.375 1.75,-16.832 13.5,-14.039 4.75,-19.664 -2.336,-5 -5.043,-9.793 -7.336,-14.793 -0.914,-3.668 -1.539,-7.375 -1.707,-11.168 0.082,-6.914 -2.293,-16.125 -10.043,-23.539 -18.039,-17.375 -37.5,-27.793 1.418,-18.75 28.957,6.707 67.543,38.832 94.793,53.375 11.75,16.832 9.125,38 9.082,58.164 0,10.043 -2.957,17.961 -6.957,26.75 -0.5,1.125 -0.836,2.5 -0.918,3.75 -0.457,5.961 1.125,10.878 2.125,16.708 0.457,2.63 1.293,-1.04 1.125,-2.08 -0.918,-5.253 -2.668,-13.335 -0.543,-17.292 1.461,-2.668 2.793,-5.211 3.961,-8 1,-2.375 1.707,-5.75 1.957,-8.336 0.293,-2.664 0.418,-5.332 0.543,-8.039 2.914,-10.125 1.582,-21.375 1.457,-32.043 0.168,-7.082 1.668,-14.043 1,-21 1.168,-0.707 2.293,-1.375 3.457,-2.043 2.586,0.586 4.918,0.793 6.961,0.5 1.207,-0.207 2.082,-0.5 2.832,-0.832 9.168,6.043 18.707,11.332 28.543,14.75 4.539,4.418 10.25,7.832 14.582,12.293 1.625,3 3,6.039 4.293,9.289 3.914,10.086 3.707,20 2.414,30.5 v 0.5 c -2.039,3.918 -3.625,7.711 -4.457,12.25 -1.457,7.793 2.543,14.373 -1.207,22.463 -0.418,0.87 0.164,4.62 0.625,3.62 5.289,-11.33 -0.625,-23.497 5.707,-34.872 3.625,-6.543 6.293,-12.211 6.293,-19.75 0.039,-11.5 -5.461,-25.5 -13.836,-35 22.211,12.164 54.836,38.664 66.961,60.207 -15,1.207 40.207,145.755 41.414,130.455 0,0 -27.082,-89.2 -30.539,-108.66 27.75,13.21 36.789,78.46 44.414,79.87 -6.582,-40.83 -28.082,-81.58 -44.207,-96.083 -0.957,-2.664 -2.418,-5.457 -4.375,-8.082 -10.418,-13.914 -29.168,-50 -5.582,-47.918 23.625,2.086 63.207,-9.039 38.914,-22.25 -2.75,-1.457 -5.664,-3.082 -8.664,-4.707 1.789,-0.918 3.75,-2.125 5.914,-3.625 27.375,-19.082 31.918,-18.043 61.753,-22.207 13.58,-1.875 21.08,-6.25 25.21,-12.5 17.41,8 28.41,27.332 39.37,47.332 -4.37,1.957 -5,6.918 -4.41,13.125 1,10.207 -6.8,16.125 -11.17,24.418 -4.08,7.664 -5.71,16.414 -7.92,24.75 -2.75,10.25 -8.62,20.457 -10.54,30.627 -0.96,5.21 0.13,10.54 -0.62,15.75 -2.13,14.66 2.79,29 12.58,40.21 11.08,12.62 9.17,34.5 12.04,30.75 5,-13.8 -5.33,-31.42 -12.83,-42.55 -2.17,-3.16 -4.71,-6.33 -6.88,-9.62 -0.04,-0.08 -0.08,-0.17 -0.08,-0.25 -1.13,-3.79 -1.04,-8.75 -0.21,-12.58 0.54,-2.59 2.33,-5.38 3.46,-7.75 1.29,-2.75 2.5,-5.63 3.79,-8.46 1.04,-2.34 2.54,-4.42 3.88,-6.59 0.16,-0.25 0.33,-0.5 0.5,-0.79 0.37,-0.37 0.75,-0.75 1.08,-1.16 3.62,-4.58 7.79,-19.63 14.67,-17.423 18.37,32.923 45.08,104.463 63.08,155.213 20.33,57.21 65.08,114.08 81.96,182.87 1.75,7.04 9.5,10.04 6.58,0 -19.71,-68 -59.71,-136.04 -82.46,-193.83 -18.62,-47.33 -46.21,-113.46 -64.33,-146.46 -0.04,-0.082 -0.04,-0.168 -0.04,-0.207 -2.13,-7.25 -2.29,-16.043 9.91,-11.75 2.5,0.875 4.96,1.914 7.17,3.5 0.13,0.082 0.25,0 0.33,-0.211 39,47.798 58.21,146.128 69,160.878 11.46,15.62 28.21,57.87 60.42,138.54 1.42,3.46 8.42,5.25 4.54,-4.17 -33.16,-80.29 -46.12,-122.62 -57.54,-138.25 -11.17,-15.2 -34.83,-117.08 -76.17,-163.205 -0.04,-0.082 -0.04,-0.207 -0.08,-0.25 -2.29,-4.457 -8.79,-16.918 1.67,-18.082 3.91,-0.418 7.16,6.25 9.71,8.375 5.45,4.461 12.79,10.457 20.12,9.914 -2.33,-9.664 -15,-15.207 -21.5,-21.75 -8.33,-8.375 -14.12,-19.25 -19.75,-29.539 -0.08,-0.418 -0.25,-0.668 -0.37,-0.711 -13.46,-24.707 -25.5,-51.5 -44.71,-63.082 0.66,-5.207 0.62,-11.043 0.41,-17.457 -0.7,-22.211 31.96,-41.5 52.09,-32.918 18.75,8.043 21.83,-44.418 -5.25,-29.793 -2.04,1.043 -4.21,2.5 -6.54,4.375 -34.05,27.086 -67.38,70.168 -82.67,69.461 -7.25,-0.336 -24.917,-3.75 -43.667,-4.293 -20.586,-0.668 -42.543,2.125 -53.543,16.043 -21,26.625 140.46,-19.793 81.25,7.707 -28.25,13.082 -43,25.543 -47.918,33.043 -21.789,-11.336 -46.914,-21.5 -63.207,-10.125 -8.668,6.082 -16.125,11.875 -21.918,16.625 4.793,-8.461 10.375,-16.418 17.125,-23.543 2.711,-2.875 9.168,-7.207 9.918,-11.5 1.793,-9.957 -1.543,-22.875 -2.375,-32.918 -1,-11.957 -2.043,-23.914 -2.543,-35.914 -2.332,-55.836 8.168,-109.086 38.668,-156.75 14.918,-23.336 32.918,-42.75 50.875,-63.625 8.125,-9.461 19.625,-20.168 20,-33.379 0.957,-33.871 3.505,-67.707 3.207,-101.621 -0.207,-32.961 -4.832,-56.625 -27.664,-82 -20.086,-22.418 -42.5,-42.543 -62.918,-64.625 -0.125,-0.125 -0.25,-0.293 -0.375,-0.461 51.125,-1.414 61.125,-22.957 65,-41.707 0.543,-2.582 -0.25,-3.957 -1.207,-3.957 -0.918,0 -2,1.289 -2.25,3.957 -1.75,19.25 -14.211,32.707 -66.625,33.25 -5.461,-11.332 -10,-28.293 -0.918,-30.543 22.582,-5.582 46.207,-9.832 69.543,-10.039 h 0.207 c 8.168,-0.086 9.582,-0.75 13.457,0.957 -2.664,18.332 -0.457,43.082 7.586,44.457 5.539,0.918 7.622,-9.75 7.832,-22.5 18.75,16.793 46.29,30.168 74.96,-3.957 3,-3.582 2.08,-5 0.29,-5 -1.29,0 -3.04,0.75 -4.04,1.957 -27.13,32.961 -58,8 -69.42,-11.164 1.46,-0.375 2.71,-1.043 3.63,-2.043 8.87,-9.625 21.54,-8.582 34.16,-8.5 12.46,0.043 25,0.543 37.42,1.832 4.71,0.461 9.42,1.086 14.08,1.793 8.25,1.293 16.63,2.582 24.63,5 2.54,0.793 5.25,1.457 7.58,2.75 1.84,0.957 -1.54,2.293 -2.62,7 -4.59,19.5 -14.38,35.5 -21.67,53.75 -12.67,31.418 -1.37,57.5 13.79,84.543 12.17,21.625 24.63,43.5 28.21,68.375 3,20.582 4.46,41.332 5.29,62.125 0.79,19.539 1.34,39.164 1.04,58.707 v 0.25 c -35.04,39.918 -164.748,187.668 -178.205,203.207 -15.582,18.043 3.75,4.211 11.418,-4.789 7.5,-8.875 147.837,-160.25 171.837,-186 0.29,0.789 0.5,1.625 0.58,2.539 1.04,10.625 0.08,20.836 -2.33,31.125 -13.09,14.211 -46.92,51.125 -67.34,75.918 -25.12,30.582 58.67,-46.168 83.25,-70.207 0.34,-0.043 0.71,0 1.04,-0.086 10.34,-2 19.84,0.336 26.42,7.336 -35.79,23.789 -190.08,136.164 -213.457,153.25 -11,8.039 -12.586,10.332 -10.793,10.332 2.418,0 10.793,-4.082 10.793,-4.082 0,0 34.957,-24.211 77.997,-53.793 38,-26.082 82.29,-56.293 114.46,-77.707 8.83,-5.875 19.17,-7.668 28.79,-11.668 9.84,-4.043 18.04,-10.832 27.59,-15.418 4.87,-2.332 26,-4.832 28.16,-7.914 -18.87,26.539 -12.37,58.539 -19.25,92.539 -11.79,58.625 -22.75,53.336 -32.66,80.918 -7.75,21.5 5.33,72.918 43.7,72.918 5.17,0 11.92,-2.918 2.21,-4.168 -38.08,-4.957 -42.41,-52.418 -38.41,-68.75 7,-28.5 20.87,-22.293 32.66,-80.918 7.46,-36.875 13.09,-66.664 39.84,-94 1.62,-0.25 3,-1.207 3.87,-2.664 6.42,-10.793 15.75,-19.875 27.08,-24.293 0.71,18.25 -8.37,58.207 -6.7,67.832 2.08,12 9.87,74.5 9.37,101.586 -0.25,13.832 0.92,23.625 11.83,32.957 3.3,2.793 23.96,19.582 26.8,19.375 1.37,0.832 0.25,1.707 -3.71,0.25 -19.88,-7.332 -75.71,-47.207 -68.79,-38.625 0,0 24.29,36.543 50.87,41.918 -67.88,20.832 -61.79,-26.293 -73.79,-17.086 -1.38,48.043 68.08,33.543 119.45,23.5 32.13,-6.25 124.8,-24.375 163.22,-29.164 52.75,-6.586 57,-40.961 57.62,-75.336 0.08,-5.625 -1.17,-20.039 -2.79,-20.039 -1.08,0 -2.33,6.5 -3.46,26.625 -2.79,50 -30.71,46.039 -53.46,54.582 -22.62,8.5 -109.96,19.375 -161.13,23.207 -14.95,1.125 -31.83,-5.789 -44.41,-13.207 -12.04,-7.082 -12.71,-12.168 -12.5,-25 0.5,-31.332 2.71,-65.168 -4.21,-95.957 -6.25,-27.918 19.63,-51.836 19.63,-86.125 h -1.22 c 0,-0.336 0.05,-0.668 0,-1 -1.95,-34.461 -5.87,-69.125 -4.99,-103.711 0.62,-25.25 9.96,-48.039 12.37,-73.082 2.59,-26.418 5.05,-54.918 0.84,-81.293 -2.96,-18.789 -12.63,-36.457 -26.17,-49.539 6.25,-5.293 13.71,-10.75 21.29,-11.293 7.84,-0.582 9.09,-8.168 6.5,-14.543 -0.58,-1.539 -1.25,-3.039 -1.96,-4.539 13.21,9.539 41.17,19.707 54.96,2 2.63,-3.336 -2.08,-5.543 -3.79,-2.086 -8.42,17.168 -41.92,0.375 -57.5,-11.375 -3.67,-5.875 -7.8,-11.539 -12,-17.039 1.25,0.25 2.5,0.289 3.75,-0.125 46.04,-15.668 97.67,-18.793 147.92,-15.211 -5.09,18.711 -18.09,36.961 -55.71,32.711 -6.79,-0.75 -7.38,2 0,3.75 31.62,7.457 48.83,-2 57.75,-18.793 -4.67,19.918 -14.38,43.957 -3.29,34.418 14.91,-12.836 -1.42,-8.336 9.87,-15.961 9.46,-6.414 27,19 42.87,16.918 -10.24,16.957 -22.16,32.75 -32.45,49.668 -16.54,27.082 -10.54,63.289 -8.08,93.582 2.91,35.582 9.37,65.418 23.7,98.043 18.5,42.289 38.96,83.664 59.09,125.207 1.04,2.168 2.53,3.707 4.21,4.75 0.2,0.582 0.45,1.125 0.66,1.582 2.21,7.625 16.59,37.086 30.25,67.375 12.84,28.461 25.09,57.668 26.09,70.293 0.25,2.957 1.5,5.293 3.54,7.5 -0.59,10.5 1.08,21.168 -9.09,27.832 -6.37,4.168 -13.16,7.75 -19.7,11.668 -6.46,3.918 -13.13,7.418 -19.84,10.75 -9.04,4.543 -19.58,5.582 -28,11.668 -6.83,4.957 -10.59,12.164 -18.08,16.082 -2.08,1.082 -5.88,1.957 -4.17,4.832 5.84,4.168 16,-9.207 22.13,-12.125 5.37,-2.582 10.96,-4.414 16.5,-6.375 0.08,0.086 0.16,0.125 0.21,0.043 0.08,-0.082 0.2,-0.168 0.29,-0.25 4.71,-1.668 9.33,-3.5 13.79,-6 16.29,-9.25 38.87,-19.082 52.08,-32.293 9.42,-9.414 9.46,-14.375 22.79,-5.582 7.34,4.793 12.92,12.582 18.59,19.125 28.12,32.293 19.79,76 19.79,162.5 0,3.045 1.12,4.795 1.12,4.795 -1.7,4.87 -1.12,7.75 -4,12.21 -5.91,9.12 -11.2,18.66 -13.87,29.33 -2.38,9.58 -5.33,18.92 -5.88,28.75 -0.83,15 -0.83,28.75 -6.04,42.87 -9.25,25.05 -11.54,53.5 -23.66,77.38 -10.71,21.04 -24.13,40.87 -30.84,63.71 -0.25,0.79 0.38,4.83 0.92,2.91 7.75,-26.41 26.12,-47.7 34.83,-73.5 4.37,-12.87 7.5,-26.04 10.96,-39.16 3.46,-13.25 9.21,-25.79 12.67,-38.92 7.16,-27.17 1.29,-55.83 17.04,-80.58 5.42,-8.5 12.5,-17.29 14.54,-27.42 0.04,-0.17 0.04,-0.33 0.08,-0.46 7.75,-6.54 18.09,-30.54 16.09,-92.54 -3.13,-96.875 -43.13,-161.457 -70.5,-179.168 -0.34,-13.539 21.54,-20.832 33,-4.164 11.46,16.664 55.41,33.332 62.5,160.414 0.7,2.5 6.33,2.918 6.33,2.918 4.38,27.625 6.5,51.168 7.13,79.125 0.41,17.375 0.37,34.705 -0.34,52.085 -0.75,18.29 -3.75,34.54 -8.62,51.96 -3.54,12.54 -5.67,25.12 -5.75,38.12 -0.13,17.96 3.04,36.96 -0.5,54.71 -5.13,25.38 -20.84,46.83 -26.29,72.21 -0.25,1.04 0.54,4.71 1.08,2.08 5.96,-27.41 24.75,-50.75 27.29,-79.04 1.54,-16.62 -0.71,-33.29 -0.29,-49.96 0.54,-20.12 6.83,-37.62 11.87,-56.79 8.13,-31.04 5.88,-65.375 4.63,-97.168 -1,-25.164 -3.54,-50.207 -7.58,-75.039 0.75,-3.711 1.29,-8.418 1.41,-13.961 14.92,16.5 17.21,34.961 18.29,57.211 1.05,21.707 4.13,43.707 10.75,64.5 0.59,1.914 1.17,-2.125 0.92,-2.961 -8.71,-27.207 -7.25,-54.414 -10.54,-82.375 -1.88,-16.082 -8.71,-32.539 -19.46,-44.125 -0.21,-26.664 -8.71,-67.25 -39.5,-122.457 -7.29,-22.918 16.67,-28.125 32.29,-19.793 15.63,8.336 16.67,56.25 54.17,28.125 37.5,-28.125 -53.96,-34.164 10.42,-40.625 13.12,-1.289 16.12,-4.289 11.75,-8.25 22.04,6.586 43.83,13.836 64.87,24.5 22.42,11.336 41.75,27.5 63.63,39.211 32.32,17.375 61.45,52 88.91,76.375 0.13,0.082 0.29,0.164 0.38,0.25 38.79,42.375 79.21,91.375 105.96,157.375 12.54,59.917 33.54,213.877 -22.3,284.167 -37.58,47.33 -23.04,44.42 4.17,6.25 27.54,-38.67 48.46,-63.13 36.21,-240.79 20.79,48.16 39.83,138.71 6,206.08 -10.29,20.46 -21.63,45.58 -20.21,45.58 1,0 8,-11.75 25.42,-44.91 49.79,-94.79 -2.67,-216.71 -13.46,-241.59 -1.08,-2.41 -2,-4.25 -2.83,-5.62 -8.38,-36.167 -61,-106.042 -61,-146.542 0,-50 2.08,-113.543 33.33,-111.461 22.83,1.543 46.42,-0.832 43.75,-10.375 -1,-3.5 -5.55,-7.957 -14.96,-13.582 -35.04,-20.832 -40.25,-62.5 -37.12,-104.168 2.41,-32.039 -11.46,-33.875 -22.88,2.961 0.17,-19.75 0.38,-39.5 0.46,-59.25 0.12,-32.875 0.33,-65.75 -0.13,-98.586 -0.45,-32.457 -8.37,-59.207 -29.79,-85.039 -0.04,-0.086 -0.12,-0.168 -0.21,-0.25 18.84,-10.293 22.21,-33.711 22.42,-36.836 0.04,-0.375 0.04,-0.789 -0.04,-1.164 -0.13,-1.625 -0.88,-3.086 -1.5,-3.086 -0.54,0 -1.04,1.125 -1.04,4.25 0,12.461 -16.17,29.711 -28.84,26 -7.2,-2.082 -21.54,-20.707 -10.79,-27.125 10.63,-6.414 22.63,-11.207 34.59,-14.582 0.95,-0.25 1.91,-0.543 2.87,-0.75 23.38,-6.375 47.54,-9.332 71.83,-9.043 9.58,0.086 13.34,6.293 12.71,16.293 -0.41,6.918 -5.08,12.918 -10.54,16.793 -15.83,11.332 -34.83,2.332 -48.42,-8.293 -2.25,-1.75 -4.12,-1.918 -4.12,-0.668 0,1 1.12,2.875 4.12,5.543 36.13,32.25 67.71,8.418 78.67,-28.082 11.13,1.039 22.17,2.664 33.04,5.125 5.5,1.25 11.04,2.5 16.34,4.375 -0.46,2.332 -0.96,4.707 -1.71,7 -6.97,21.332 -17.46,41.332 -24.88,62.457 -7.21,20.625 -10.33,41.332 -11.5,63.125 -1.41,25.957 2.92,48.418 10.66,72.832 8.3,26.211 7.72,50.668 6.84,77.711 -1.21,37.957 -0.54,76.457 2.38,114.332 0.29,3.793 0.66,7.5 1.16,11.082 1.5,10.836 4.17,20.836 9.71,31.043 10,18.5 19.84,34.043 23.34,54.918 7.08,41.914 22.16,81.582 25.95,124.539 4.75,54.711 1.42,110.423 -11.25,163.963 -16.87,71.37 -53.04,146.41 -103.7,200.46 -3.38,3.58 -6.84,7.08 -10.34,10.5 -32.63,31.7 -69.21,59.5 -106.79,85.12 -31.46,21.5 -64.17,44.04 -99.33,59.13 -15.29,6.54 -32.71,7.83 -48.92,11.12 -22.5,4.54 -44.96,9.38 -67.29,14.79 -22.21,5.38 -44.58,10.84 -66.17,18.38 -20,7 -37.62,12.08 -59.04,7.75 -25.67,-5.25 -50.37,-14.29 -75.87,-20.13 -26.21,-6 -53.46,-3.04 -80.21,-5.66 -21.63,-2.13 -42.88,-6.05 -64.38,-9.17 -10.79,-1.58 -26.25,-5.58 -36.96,-2 -13.16,4.42 -26.63,18.17 -39.25,24.71 -11.45,5.87 -23.08,11.41 -35.08,16.08 -22.62,8.71 -45.87,15.79 -69.58,20.79 -31.96,6.79 -64.04,9.59 -96.29,13.25 2.25,-7.16 10.29,-18.71 20.16,-34.62 19.46,-31.25 15.67,-29.04 -13.16,-11.13 -36.38,22.67 -45.8,62 -66.13,97.17 -24.58,42.58 -76.17,60.33 -123.21,48.38 -37.96,-9.59 -70.872,-32.71 -96.997,-61.46 -6.461,-7.09 -12.086,-15.05 -19.211,-21.5 -13.875,-12.55 -36.707,-2.63 -51.75,-11.75 6.5,-2.38 13.168,-4.46 20.043,-6 8.582,-1.92 11.625,-14.8 12.168,-21.84 1.375,-17.75 -6.461,-37.21 -15.543,-53.87 -1.668,-6.67 -2.332,-13.42 -2.668,-20.21 1.668,-1.17 3.543,-2.13 5.543,-2.83 13.75,11.87 22.168,28.2 21.082,40.87 -3.5,40.33 87.923,-62.42 61.461,-85.96 -34.125,-30.41 -62.336,-61.58 -95.586,-55.08 -34.914,6.87 25.793,6.87 35.5,19.37 9.711,12.5 7.211,18.13 -7.375,13.96 -14.582,-4.16 -39.582,-10.41 -57.625,0 -18.082,10.42 -14.914,9.04 1.836,5.04 24.957,-5.95 31.457,-3.16 41.625,3.21 13.539,8.5 -35.418,9.04 -47.211,22.92 -11.789,13.92 -21.332,22.92 0,20.17 3.918,-0.5 7.75,-0.55 11.543,-0.21 -0.543,0.58 -1,1.16 -1.418,1.83 -2.539,-0.08 -5.332,0.33 -8.375,1.5 -7.332,2.75 -57.375,31.63 -57.957,30.83 -1.75,-2.25 -3.707,-3.2 -5.457,-3.25 -2.336,-0.58 -4.5,0.21 -5.211,3.38 -3.125,14.25 -7.875,28.17 -14.125,41.37 -7.625,-2.25 -27.914,-24.95 -47.582,-53.08 -0.207,-1.17 -1.168,-2.67 -3,-4.37 -0.918,-1.38 -1.875,-2.75 -2.793,-4.13 l -1.914,-2.83 H 713 c -7.957,-14.5 -9.043,-42.04 -10.582,-54.75 -2.293,-19.38 -5.461,-38.42 -12.5,-56.71 -11.043,-28.79 -33.793,-47.17 -58.918,-63.42 -22.5,-14.54 -52.75,-35.12 -80.793,-35.71 -7.25,-0.16 -10.832,2.84 -17.75,4.42 -14.082,3.25 -21.582,-6.75 -31.375,-14.21 -7.039,-5.37 -39.207,-14.71 -38.207,-24.71 0.207,-2.5 -0.457,-5.25 -1.582,-7.62 0.207,-0.29 0.457,-0.58 0.664,-0.92 1.25,-2.08 1.461,-4.54 0.668,-6.96 -21.082,-67.87 -96.711,-119.66 -119.375,-133.95 -2.875,-7.71 -1.957,-17.92 -0.875,-28.38 1.293,-0.87 2.668,-1.5 4.168,-1.83 h 0.332 c 1.332,0.62 2.75,1.16 4.168,1.62 0.75,0.5 1.582,0.96 2.5,1.5 21.082,11.5 50,29.67 66.664,42.71 3.125,-3.67 -45.289,-33.87 -33.332,-33.87 12,0 22.168,4.16 37.125,9.91 12.375,-1.58 -6.375,-13.04 -42.832,-21.37 -12.336,-2.84 -20.957,-4.25 -26.543,-4.67 -0.086,-0.21 -0.168,-0.33 -0.293,-0.37 -3.539,-1.63 -7.496,-4 -10.707,-7.05 0.414,-7.33 0.207,-14.33 -2,-20.205 -5.918,-15.875 1.332,-28.957 2.75,-45.125 1.125,-13.125 -1.75,-24.625 -2.168,-37.332 -0.125,-3 2.793,-5.918 5.918,-8.293 8.164,6.25 24.793,19.082 30.707,24.375 M 633.793,1604 c -3.875,10.5 -7.336,17.63 -9.793,21.75 l -0.125,-0.67 c -3.543,-25.5 -10.918,-78.45 42.457,-112.75 12.961,-6.29 17.293,-18.25 21.168,-28.83 4.75,-12.96 7.957,-20.25 19.832,-21.58 11.043,16.29 37.961,54 56.168,62.54 -0.957,1.75 -1.957,3.5 -3,5.21 -0.043,0.04 -0.082,0.08 -0.125,0.12 -21.082,8.54 -119.875,56 -126.582,74.21 m 140.707,7.46 c -3.707,3.46 -24.5,37.17 -19.625,42.71 -32.082,-7.54 -25.832,-63.21 -10.793,-85.42 11.25,-16.58 22.918,-32.37 33.086,-49.67 1.5,-2.5 18.082,-34.54 17.582,-34.58 7.918,0.88 16.207,-8.25 22.957,-11.92 5,-2.7 42.75,-27.91 46.543,-23.41 13.5,16.16 31.082,41.66 35.418,62.29 3.5,16.87 -4.086,30.21 -20.5,35.42 -13.168,4.16 -25.836,8.08 -38,14.58 -24.875,13.25 -46.125,30.75 -66.668,50 M 1320.04,245.332 c 5,6.543 10.54,18.25 14.34,25.5 1.58,5.625 -1.92,12.711 -5.46,14.836 -3.96,2.375 -10.42,8.082 -16.67,4.707 -3.67,-4.375 -13.54,-20.668 -13.83,-25.375 -0.46,-8.707 13.87,-15 21.62,-19.668 m 178.63,-17.914 c 14.66,1.457 29.16,3.457 43.29,5.875 0.29,13.832 0.42,27.625 -5.5,40.125 -15.63,-2.625 -55.33,-12.75 -37.79,-46 m 311.71,104.039 c 11.37,-6.664 26.83,-8.039 39.62,-8.125 9.67,-0.039 6.58,-4.457 12.42,1.461 2.04,2.125 4.75,4.625 7.5,5.832 0.66,0.293 1.33,0.543 2.03,0.793 0.34,8.039 3.01,37.582 11.84,22.664 5.46,-9.25 3.09,-22.125 9.71,-31.539 6.29,-8.875 16.5,-11.418 27.08,-10.043 10.42,1.375 40.17,8 37.42,19.625 -1.29,5.418 -0.42,11.125 -0.42,16.707 -0.08,39.918 3.67,74.543 19.63,111.293 11.21,25.832 41.25,62.25 31.62,91.207 -11.41,34.332 -29.54,65.211 -39.41,100.375 -7.29,26.043 -21,39.836 -23.09,67.043 -0.25,-0.168 -76.95,-40.207 -129.29,-55.125 -2.83,-2.75 -5.91,-5.293 -8.71,-8.082 -1.37,-2.25 -2.83,-4.5 -4.29,-6.711 -0.04,-0.457 -0.08,-0.957 -0.12,-1.5 2.62,-25.582 7.41,-48.375 19.91,-72.207 15.83,-30.207 35.5,-55.457 37.13,-90.957 1.25,-27.336 -12.42,-55.836 -30.46,-75.711 -10.63,-11.707 -22.12,-21.957 -34.96,-31.207 -6.46,-4.668 -12.21,-6.25 -17.04,-12.75 -7.62,-10.082 1.67,-18.5 11.08,-22.582 2.3,3.332 5.67,3.164 9.88,4.039 10.83,2.25 6.92,-12.164 10.92,-14.5"
             style="fill:#231f20;fill-opacity:1;fill-rule:nonzero;stroke:none"
             id="path22189"
             inkscape:connector-curvature="0" /><path
             d="m 652.516,1208.77 c 43.539,0 78.82,-24.48 78.82,-54.69 0,34.53 -35.281,62.5 -78.82,62.5 -43.524,0 -78.817,-27.97 -78.817,-62.5 0,30.21 35.293,54.69 78.817,54.69"
             style="fill:#231f20;fill-opacity:1;fill-rule:nonzero;stroke:none"
             id="path22191"
             inkscape:connector-curvature="0" /><path
             d="m 655.02,1096.27 c -37.731,0 -68.321,21.22 -68.321,47.4 0,-29.92 30.59,-57.65 68.321,-57.65 37.734,0 68.32,27.73 68.32,57.65 0,-26.18 -30.586,-47.4 -68.32,-47.4"
             style="fill:#231f20;fill-opacity:1;fill-rule:nonzero;stroke:none"
             id="path22193"
             inkscape:connector-curvature="0" /><path
             d="m 658.578,1108.31 c -28.14,0 -50.957,15.83 -50.957,35.36 0,-22.31 22.817,-40.41 50.957,-40.41 28.145,0 50.965,18.1 50.965,40.41 0,-19.53 -22.82,-35.36 -50.965,-35.36"
             style="fill:#231f20;fill-opacity:1;fill-rule:nonzero;stroke:none"
             id="path22195"
             inkscape:connector-curvature="0" /><path
             d="m 610.852,1154.08 c 8.07,12.03 7.289,23.44 47.914,18.23 22.691,-2.9 31.324,-8.74 53.648,-4.68 11.457,2.08 -3.648,-8.34 -14.586,-11.46 -10.937,-3.13 -27.082,-33.86 -53.125,-19.79 -26.039,14.06 -41.316,6.58 -33.851,17.7"
             style="fill:#231f20;fill-opacity:1;fill-rule:nonzero;stroke:none"
             id="path22197"
             inkscape:connector-curvature="0" /></g></g></g></g></svg>
