<?xml version="1.0" encoding="UTF-8" standalone="no"?>
<!-- Created with Inkscape (http://www.inkscape.org/) -->

<svg
   width="125mm"
   height="88mm"
   viewBox="0 0 125 88"
   version="1.1"
   id="svg5"
   inkscape:version="1.2.2 (732a01da63, 2022-12-09)"
   xml:space="preserve"
   sodipodi:docname="rice_cooker.svg"
   xmlns:inkscape="http://www.inkscape.org/namespaces/inkscape"
   xmlns:sodipodi="http://sodipodi.sourceforge.net/DTD/sodipodi-0.dtd"
   xmlns:xlink="http://www.w3.org/1999/xlink"
   xmlns="http://www.w3.org/2000/svg"
   xmlns:svg="http://www.w3.org/2000/svg"><sodipodi:namedview
     id="namedview7"
     pagecolor="#f0f0f0"
     bordercolor="#ffffff"
     borderopacity="1"
     inkscape:showpageshadow="0"
     inkscape:pageopacity="0"
     inkscape:pagecheckerboard="0"
     inkscape:deskcolor="#505050"
     inkscape:document-units="mm"
     showgrid="true"
     inkscape:zoom="1.436055"
     inkscape:cx="248.9459"
     inkscape:cy="147.27848"
     inkscape:current-layer="layer1"><inkscape:grid
       type="xygrid"
       id="grid132"
       dotted="true"
       empspacing="10"
       units="mm"
       spacingx="1"
       spacingy="1"
       originx="-53.098248"
       originy="-92.808863" /></sodipodi:namedview><defs
     id="defs2"><linearGradient
       inkscape:collect="always"
       id="linearGradient15545"><stop
         style="stop-color:#e1ded9;stop-opacity:1;"
         offset="0.20250522"
         id="stop15541" /><stop
         style="stop-color:#ffffff;stop-opacity:1;"
         offset="0.30167013"
         id="stop15549" /><stop
         style="stop-color:#e6e0dd;stop-opacity:1;"
         offset="0.50104386"
         id="stop15543" /></linearGradient><linearGradient
       inkscape:collect="always"
       id="linearGradient7828"><stop
         style="stop-color:#fde8c9;stop-opacity:1;"
         offset="0.34655535"
         id="stop7824" /><stop
         style="stop-color:#f2c98b;stop-opacity:1;"
         offset="0.7505219"
         id="stop9420" /><stop
         style="stop-color:#fce7c8;stop-opacity:1;"
         offset="1"
         id="stop7826" /></linearGradient><linearGradient
       inkscape:collect="always"
       id="linearGradient1872"><stop
         style="stop-color:#ffffff;stop-opacity:1;"
         offset="0"
         id="stop1868" /><stop
         style="stop-color:#fc126e;stop-opacity:1;"
         offset="1"
         id="stop1870" /></linearGradient><radialGradient
       inkscape:collect="always"
       xlink:href="#linearGradient1872"
       id="radialGradient7059"
       cx="77.170105"
       cy="101.19667"
       fx="77.170105"
       fy="101.19667"
       r="33.41597"
       gradientTransform="matrix(1.2152701,1.3706319e-7,-8.3254354e-8,0.59881036,-13.559613,49.399406)"
       gradientUnits="userSpaceOnUse" /><radialGradient
       inkscape:collect="always"
       xlink:href="#linearGradient7828"
       id="radialGradient7830"
       cx="126.6685"
       cy="173.45114"
       fx="126.6685"
       fy="173.45114"
       r="20.577923"
       gradientTransform="matrix(0.97191499,-3.4621233e-6,2.3957441e-7,0.94895025,8.3220155,-4.8329897)"
       gradientUnits="userSpaceOnUse" /><linearGradient
       inkscape:collect="always"
       xlink:href="#linearGradient15545"
       id="linearGradient15547"
       x1="53.098248"
       y1="130.47643"
       x2="153.2906"
       y2="130.47643"
       gradientUnits="userSpaceOnUse" /></defs><g
     inkscape:label="Layer 1"
     inkscape:groupmode="layer"
     id="layer1"
     transform="translate(-53.098249,-92.808863)"><g
       id="g262"
       transform="matrix(1.1467388,0,0,1.1467388,-3.0290756,-12.560332)"><path
         style="display:inline;fill:url(#linearGradient15547);fill-opacity:1;stroke-width:0.0846667"
         d="m 88.723818,168.09979 c -3.142038,-0.13558 -6.07327,-0.43041 -8.874485,-0.8926 -0.721783,-0.1191 -1.464733,-0.23634 -1.651,-0.26054 -1.103155,-0.14332 -4.84619,-1.23692 -6.151728,-1.79734 -0.216918,-0.0931 -0.410816,-0.15288 -0.430885,-0.13281 -0.05508,0.0551 -2.535395,-1.22612 -3.442134,-1.77801 -0.437845,-0.2665 -1.104595,-0.71837 -1.481667,-1.00416 -0.674638,-0.51132 -2.505919,-2.22972 -2.505919,-2.35145 0,-0.0343 -0.115176,-0.18561 -0.255948,-0.3363 -1.100956,-1.17858 -2.192609,-3.37864 -2.916313,-5.87739 -0.213067,-0.73566 -0.403051,-1.45681 -0.422186,-1.60255 -0.01914,-0.14574 -0.04187,-0.28403 -0.05053,-0.30731 -0.0087,-0.0233 -0.012,-0.0686 -0.0074,-0.10072 0.0046,-0.0321 -0.08236,-0.47026 -0.193189,-0.97366 -0.455083,-2.06704 -0.861392,-4.92056 -1.191221,-8.36595 -0.120361,-1.2573 -0.23835,-2.47915 -0.262198,-2.71523 -0.04208,-0.41651 -0.05055,-0.42816 -0.285996,-0.39361 -0.59455,0.0873 -1.99605,-0.44255 -2.669648,-1.00922 -0.591069,-0.49724 -1.320761,-1.20333 -1.650324,-1.59694 l -0.319,-0.381 -0.13049,-1.60867 c -0.07177,-0.88477 -0.130251,-1.66582 -0.12996,-1.73567 9.31e-4,-0.22448 -0.09548,-1.37591 -0.137725,-1.64473 -0.02249,-0.14315 -0.06287,-0.67937 -0.08972,-1.1916 -0.02686,-0.51223 -0.133838,-1.92193 -0.237739,-3.13267 -0.267536,-3.11753 -0.156247,-5.29884 0.419005,-8.21266 0.220426,-1.11653 0.302733,-1.46151 0.611047,-2.56117 0.09466,-0.33761 0.150814,-0.61383 0.124796,-0.61383 -0.02602,0 8.5e-5,-0.0572 0.05809,-0.127 0.05797,-0.0699 0.07702,-0.127 0.04233,-0.127 -0.03469,0 -0.01564,-0.0572 0.04233,-0.127 0.05797,-0.0699 0.0841,-0.127 0.05807,-0.127 -0.06176,0 0.351139,-1.19192 0.747906,-2.159 0.279662,-0.68166 0.43152,-1.02034 1.081933,-2.413 0.593935,-1.27173 2.966963,-4.91067 3.20235,-4.91067 0.04093,0 0.07441,-0.0568 0.07441,-0.12628 0,-0.0695 0.0762,-0.17387 0.169333,-0.23204 0.09313,-0.0582 0.169333,-0.1504 0.169333,-0.20499 0,-0.17481 2.887762,-3.01282 3.852334,-3.78596 2.050058,-1.643203 4.966424,-3.396904 7.408333,-4.454859 0.34925,-0.151313 0.801235,-0.34975 1.004413,-0.440973 1.329055,-0.59672 6.386556,-2.10294 7.455685,-2.220443 0.252504,-0.02775 0.595404,-0.08648 0.762,-0.130509 1.30961,-0.346105 5.420026,-0.872912 8.049902,-1.031707 2.108329,-0.127304 7.173538,-0.125998 8.932333,0.0023 2.567084,0.187264 5.651084,0.59839 7.746994,1.032748 0.25612,0.05308 0.53159,0.09477 0.61217,0.09266 0.0806,-0.0021 0.16893,0.03245 0.19635,0.07682 0.0274,0.04436 0.0836,0.05983 0.12477,0.03436 0.15424,-0.09533 3.18044,0.772774 4.90871,1.408127 1.91177,0.702807 2.03981,0.755871 3.09034,1.280706 1.71175,0.855182 2.59316,1.339439 3.33796,1.833933 0.39248,0.260576 0.77267,0.511873 0.84487,0.55844 0.0722,0.04657 0.17024,0.126989 0.21788,0.178716 0.0476,0.05173 0.25807,0.209858 0.46762,0.351402 1.34678,0.909699 3.64661,3.180019 4.86833,4.805839 0.4191,0.55772 0.78568,1.03309 0.81462,1.05638 0.3737,0.30068 2.63818,4.66116 2.72734,5.25177 0.0103,0.0685 0.0485,0.17204 0.0847,0.23007 0.0363,0.058 0.0802,0.17973 0.0977,0.27042 0.0175,0.0907 0.18316,0.63538 0.3682,1.2104 0.38561,1.19824 0.78162,2.91666 1.03926,4.50967 0.14435,0.89254 0.18466,1.58896 0.21319,3.683 0.0194,1.42028 0,2.76793 -0.0424,2.99478 -0.0711,0.37796 -0.0631,0.41623 0.0954,0.4577 0.16896,0.0442 0.17177,0.0824 0.11866,1.61955 -0.0299,0.86587 -0.0928,3.07925 -0.13982,4.91864 -0.047,1.83938 -0.0981,3.78811 -0.11349,4.3305 l -0.028,0.98617 -0.42862,0.53783 c -0.52555,0.65945 -1.36659,1.46926 -1.91354,1.84247 -0.49998,0.34116 -1.38734,0.71111 -1.58295,0.65995 -0.12917,-0.0338 -0.14959,0.0976 -0.19975,1.28489 -0.0307,0.72739 -0.0978,2.03528 -0.14914,2.90644 -0.0513,0.87115 -0.073,1.63658 -0.0483,1.70096 0.0247,0.0644 0.51517,0.35746 1.08993,0.65131 2.389,1.22138 4.87543,3.25249 6.80452,5.55846 0.84854,1.01431 1.29443,1.67879 1.84632,2.75147 0.59235,1.15131 1.03111,1.70836 1.82843,2.32142 1.1587,0.89091 3.35999,1.75915 5.89042,2.32331 0.65193,0.14535 1.33773,0.29917 1.524,0.34183 0.18627,0.0427 0.73872,0.15762 1.22767,0.25548 1.73805,0.34785 4.61853,1.12879 5.67266,1.53794 0.94371,0.36629 1.98043,1.28691 2.36285,2.09823 0.1931,0.40969 0.21851,0.56746 0.21136,1.31234 -0.009,0.96573 -0.20063,1.66647 -0.6225,2.27963 -0.26117,0.3796 -0.73912,0.89537 -0.82972,0.89537 -0.0277,0 -0.11047,0.0541 -0.18399,0.12031 -0.49702,0.44735 -1.68853,0.60076 -2.99685,0.38583 -1.20372,-0.19775 -3.55096,-0.88313 -5.13781,-1.50023 -2.30052,-0.89462 -5.31064,-1.85344 -6.29638,-2.0056 -0.18006,-0.0278 -0.35151,-0.0652 -0.381,-0.0831 -0.0295,-0.0179 -0.52987,-0.0747 -1.11196,-0.12626 -1.68019,-0.14875 -2.90361,0.10151 -4.02521,0.82337 -0.51506,0.33149 -1.25317,0.72282 -1.85912,0.98566 -0.18627,0.0808 -0.45297,0.19894 -0.59267,0.26254 -0.1397,0.0636 -0.36576,0.14189 -0.50235,0.17397 -0.1366,0.0321 -0.34615,0.10936 -0.46567,0.17174 -0.11952,0.0624 -0.27446,0.11345 -0.34431,0.1135 -0.0699,6e-5 -0.29845,0.0549 -0.508,0.12193 -0.68445,0.21885 -1.38344,0.38724 -2.159,0.52012 -1.51873,0.26019 -1.66977,0.28407 -1.72345,0.27244 -0.03,-0.006 -0.3022,0.0131 -0.60488,0.0435 -2.49519,0.25059 -5.17424,-0.0393 -6.94267,-0.75127 -0.84653,-0.3408 -1.9088,-1.00561 -2.45533,-1.53664 -0.34208,-0.33237 -0.43552,-0.33083 -1.26839,0.021 -1.3564,0.57296 -4.34683,1.47352 -5.33561,1.6068 -0.20955,0.0282 -0.89535,0.14303 -1.524,0.25508 -2.09123,0.37273 -4.31076,0.62513 -7.069667,0.80394 -1.865119,0.12089 -7.602776,0.1705 -9.625182,0.0832 z M 123.79014,119.2514 c -0.0568,-0.25387 -0.31168,-1.07302 -0.5664,-1.82034 -0.25472,-0.74731 -0.47798,-1.43215 -0.49612,-1.52186 -0.0181,-0.0897 -0.0624,-0.18496 -0.0985,-0.21167 -0.036,-0.0267 -0.0761,-0.11268 -0.0891,-0.19106 -0.0526,-0.31816 -1.84651,-3.73255 -2.03805,-3.87916 -0.0304,-0.0233 -0.10897,-0.14647 -0.17455,-0.27374 -0.0656,-0.12727 -0.18935,-0.30665 -0.27503,-0.39863 -0.0857,-0.092 -0.15579,-0.20374 -0.15579,-0.24837 0,-0.0446 -0.0306,-0.0939 -0.068,-0.10937 -0.0374,-0.0155 -0.41438,-0.46637 -0.83778,-1.00189 -1.46316,-1.8506 -3.75935,-3.90594 -5.77241,-5.16693 -1.01408,-0.63523 -2.96463,-1.69107 -3.12405,-1.69107 -0.0516,0 -0.41036,-0.1474 -0.79729,-0.32755 -1.23902,-0.57687 -3.96606,-1.47671 -5.0215,-1.65694 -0.1397,-0.0239 -0.8255,-0.15972 -1.524,-0.30191 -1.49427,-0.30419 -1.96189,-0.37605 -3.937003,-0.604979 -1.866913,-0.216389 -6.381517,-0.301319 -8.89,-0.167243 -1.940765,0.103733 -4.978593,0.476602 -6.646334,0.815772 -0.605366,0.12312 -1.227925,0.24018 -1.383464,0.26014 -0.85405,0.1096 -4.19622,1.13154 -5.218107,1.59555 -0.234169,0.10633 -0.578162,0.2418 -0.764429,0.30104 -0.410752,0.13063 -2.76834,1.24884 -2.832774,1.34359 -0.02524,0.0371 -0.407842,0.27008 -0.850226,0.5177 -3.594029,2.01174 -6.887133,5.27642 -9.055643,8.9775 -0.647811,1.10564 -1.585953,2.98456 -1.701525,3.40783 -0.04768,0.17462 -0.123084,0.3175 -0.167564,0.3175 -0.04448,0 -0.06779,0.0857 -0.0518,0.1905 0.03654,0.23939 0.09006,0.22154 0.372595,-0.12431 0.664325,-0.81318 1.573205,-1.7552 2.296772,-2.38052 0.752783,-0.65057 2.062497,-1.67799 2.392294,-1.87667 0.0773,-0.0466 0.502605,-0.30281 0.945129,-0.56942 1.822154,-1.09782 3.489468,-1.88886 5.85045,-2.77568 3.387615,-1.27245 9.4176,-2.48939 13.639626,-2.75269 0.465666,-0.029 1.056216,-0.0669 1.312333,-0.084 3.912608,-0.26242 8.900359,-0.21022 12.573,0.13156 2.33038,0.21687 5.53935,0.82837 7.82678,1.49146 0.72447,0.21002 1.37437,0.39482 1.44422,0.41068 0.0698,0.0159 0.13653,0.0365 0.14817,0.0459 0.0116,0.009 0.0497,0.0234 0.0847,0.0311 0.27466,0.0608 1.18578,0.4082 2.18017,0.83126 3.80421,1.6185 6.71687,3.67249 8.91648,6.28785 0.71534,0.85056 1.74505,2.38634 2.25952,3.37001 0.37668,0.72021 0.48351,0.6511 0.29514,-0.19092 z"
         id="path430"
         sodipodi:nodetypes="sssssssscssssssscsscsssssssscscssssscssssssssssscsssscsscccsssccsssscsssscsssssssssscsscsssscsssssscscsssscsssscscccssssssssscssssssssssssssscssccsscccssscc" /><path
         style="display:inline;fill:#8fd9e6;fill-opacity:1;stroke-width:0.0846667"
         d="m 90.729,158.9035 c -1.696579,-0.1304 -3.664433,-0.30675 -4.233333,-0.37937 -1.233826,-0.1575 -3.808961,-0.59364 -3.872185,-0.65581 -0.246331,-0.24226 -0.273911,-3.80507 -0.03746,-4.83899 0.547113,-2.39233 1.784471,-4.14889 3.742102,-5.31231 1.207928,-0.71787 2.361498,-1.10808 4.23154,-1.43138 1.243438,-0.21497 4.562978,-0.21506 5.842,-1.7e-4 2.301649,0.38672 4.065466,1.24365 5.418666,2.63262 1.10916,1.13847 1.86603,2.61471 2.25573,4.3997 0.17424,0.79812 0.31893,2.86297 0.26007,3.71149 l -0.0337,0.48629 -0.81769,0.2557 c -2.40284,0.7514 -5.324269,1.10357 -9.453703,1.13963 -1.583267,0.0138 -3.069167,0.0105 -3.302,-0.007 z m 6.942667,-1.3678 c 0.368857,-0.0535 0.426509,-0.0886 0.448015,-0.27304 0.08897,-0.76299 0.501113,-2.80086 0.706997,-3.4958 0.426852,-1.44079 1.10262,-2.92098 1.914281,-4.19298 0.3431,-0.53769 0.35337,-0.51812 -0.60598,-1.1549 -0.772363,-0.51267 -1.372221,-0.79503 -2.33544,-1.09931 -0.622482,-0.19664 -2.189618,-0.51182 -2.249104,-0.45233 -0.01501,0.015 0.06621,0.31222 0.180492,0.66047 0.370292,1.12842 0.493608,1.91096 0.493372,3.13085 -2.54e-4,1.23592 -0.112226,1.8592 -0.514987,2.86626 -0.514185,1.28566 -1.686326,2.66003 -3.007243,3.52608 -0.355123,0.23283 -0.715741,0.47205 -0.801374,0.5316 -0.12724,0.0885 0.347212,0.0997 2.595971,0.0614 1.513416,-0.0258 2.942166,-0.0745 3.175,-0.10827 z m -7.489789,-1.79704 c 2.244544,-2.22456 3.310202,-4.64127 3.444074,-7.8105 l 0.04918,-1.16416 H 92.946734 92.21834 l -0.04647,0.27516 c -0.307733,1.82236 -0.593297,3.23956 -0.823161,4.08517 -0.750434,2.76066 -1.598039,4.56869 -2.694045,5.74667 l -0.550334,0.59149 0.547566,-0.37508 c 0.301161,-0.20629 0.989652,-0.81323 1.529979,-1.34875 z"
         id="path353"
         sodipodi:nodetypes="cssssssssscssccssssssssssssssssscccssscsss" /><path
         style="display:inline;fill:#c7eaee;fill-opacity:1;stroke-width:0.0846667"
         d="m 97.671667,157.5357 c 0.368857,-0.0535 0.426509,-0.0886 0.448015,-0.27304 0.08897,-0.76299 0.501113,-2.80086 0.706997,-3.4958 0.426852,-1.44079 1.10262,-2.92098 1.914281,-4.19298 0.3431,-0.53769 0.35337,-0.51812 -0.60598,-1.1549 -0.772363,-0.51267 -1.372221,-0.79503 -2.33544,-1.09931 -0.622482,-0.19664 -2.189618,-0.51182 -2.249104,-0.45233 -0.01501,0.015 0.06621,0.31222 0.180492,0.66047 0.370292,1.12842 0.493608,1.91096 0.493372,3.13085 -2.54e-4,1.23592 -0.112226,1.8592 -0.514987,2.86626 -0.514185,1.28566 -1.686326,2.66003 -3.007243,3.52608 -0.355123,0.23283 -0.715741,0.47205 -0.801374,0.5316 -0.12724,0.0885 0.347212,0.0997 2.595971,0.0614 1.513416,-0.0258 2.942166,-0.0745 3.175,-0.10827 z m -7.489789,-1.79704 c 2.244544,-2.22456 3.310202,-4.64127 3.444074,-7.8105 l 0.04918,-1.16416 H 92.946734 92.21834 l -0.04647,0.27516 c -0.307733,1.82236 -0.593297,3.23956 -0.823161,4.08517 -0.750434,2.76066 -1.598039,4.56869 -2.694045,5.74667 l -0.550334,0.59149 0.547566,-0.37508 c 0.301161,-0.20629 0.989652,-0.81323 1.529979,-1.34875 z"
         id="path424"
         sodipodi:nodetypes="ssssssssssssssssscccssscsss" /><path
         style="display:inline;fill:url(#radialGradient7059);fill-opacity:1;stroke:#fb1477;stroke-width:0.992677;stroke-dasharray:none;stroke-opacity:1"
         d="m 124.44658,124.83212 c -0.005,-0.074 -0.11171,-0.18426 -0.23783,-0.24489 -8.92367,-4.29005 -17.44462,-6.58725 -27.08096,-7.3009 -1.955002,-0.14479 -7.872194,-0.14513 -9.798346,-6.1e-4 -7.653131,0.5744 -14.73257,2.05732 -21.642607,4.53349 -2.911267,1.04322 -6.512642,2.58668 -6.604801,2.83064 -0.0942,0.2494 -0.280332,-0.4067 -0.195936,-0.69068 0.043,-0.14469 0.177323,-0.64425 0.298501,-1.11015 0.4875,-1.8743 1.918388,-4.82495 2.496034,-5.14711 0.103359,-0.0576 0.532947,-0.51255 0.954639,-1.01092 4.227061,-4.99557 12.078016,-8.40384 21.900599,-9.50751 8.168971,-0.91788 16.231557,-0.59789 22.278797,0.8842 7.40918,1.81588 12.79907,5.40938 15.7631,10.50947 0.23203,0.39927 0.44809,0.8098 0.48011,0.91232 0.032,0.10251 0.18789,0.35891 0.34635,0.56978 0.29589,0.39376 0.65722,1.23249 0.89982,2.08858 0.22723,0.80198 0.43649,1.98248 0.37368,2.10812 -0.0324,0.0648 -0.0957,0.25124 -0.14077,0.4143 -0.045,0.16307 -0.0857,0.23589 -0.0904,0.16184 z"
         id="path300"
         sodipodi:nodetypes="ccscssssscsssssssscc" /><path
         id="path351"
         style="display:inline;fill:#000000;stroke-width:0.0846667"
         d="m 92.582463,92.866166 c -3.645827,0.02174 -7.328549,0.321934 -10.657748,0.898137 -3.056813,0.529059 -4.534234,0.896648 -7.185091,1.786454 -3.995121,1.34103 -7.064614,2.918717 -10.058301,5.170223 -2.300966,1.73052 -4.727813,4.27998 -6.230627,6.54586 -1.932762,2.91412 -3.15725,5.54895 -4.013709,8.63616 -0.788215,2.84121 -1.095348,4.70498 -1.25522,7.62021 -0.0225,0.41032 -0.03617,0.72703 -0.03721,1.079 -0.0041,0.002 -0.018,0.004 -0.01964,0.005 -0.02704,0.027 -0.0052,0.51786 0.04806,1.09089 0.0128,0.13769 0.01691,0.18839 0.02791,0.30696 0.05708,0.92268 0.161235,2.22647 0.362769,4.66173 l 0.465087,5.62033 0.340548,0.40669 c 0.734987,0.87786 1.863997,1.76685 2.732133,2.15078 0.554873,0.24538 1.328585,0.40806 1.607654,0.33796 0.253235,-0.0635 0.213645,-0.27804 0.483175,2.62826 0.323735,3.49078 0.645556,5.81225 1.190625,8.59379 0.642891,3.28076 1.089483,4.71407 2.121834,6.80734 1.044664,2.11824 3.363934,4.51071 5.774841,5.95726 1.060138,0.63609 2.893687,1.57017 3.490743,1.77818 0.27563,0.096 1.052319,0.36876 1.725993,0.60617 2.047722,0.72165 3.864965,1.17015 6.183602,1.52704 0.628649,0.0968 1.352571,0.2119 1.608687,0.2558 1.55302,0.266 5.015493,0.57433 7.577832,0.67437 4.409206,0.17214 9.256485,0.0297 12.99611,-0.38189 1.47004,-0.16178 5.03846,-0.74934 6.16396,-1.01492 1.00017,-0.23601 3.16697,-0.93306 4.2199,-1.35754 0.39433,-0.15897 0.77364,-0.28939 0.84284,-0.28939 0.0692,0 0.30533,0.16509 0.52452,0.3669 1.11714,1.02852 3.01658,1.86477 4.92838,2.1699 0.9469,0.1512 3.44141,0.20726 4.36356,0.0982 2.56494,-0.30342 4.88593,-0.83516 6.34638,-1.45417 0.84028,-0.35615 1.67415,-0.77283 2.11667,-1.05782 1.4537,-0.93628 2.53323,-1.16915 4.52995,-0.9772 1.72643,0.16597 3.28142,0.59142 6.51898,1.78335 4.05049,1.49123 5.82375,1.96815 7.37681,1.98335 0.89296,0.009 0.90477,0.006 1.56632,-0.33435 0.86193,-0.44384 1.35764,-1.05857 1.6862,-2.09135 0.38191,-1.20035 0.36609,-1.85037 -0.0651,-2.71766 -0.1986,-0.39947 -1.13262,-1.33354 -1.61799,-1.61799 -0.8248,-0.48337 -4.18577,-1.443 -7.12567,-2.03502 -4.28803,-0.86351 -6.57369,-1.6826 -8.01398,-2.87062 -0.77007,-0.63519 -1.09983,-1.06574 -1.67276,-2.18747 -1.60244,-3.13744 -5.21401,-6.60044 -8.7142,-8.35504 -0.57044,-0.28595 -1.05967,-0.57881 -1.08727,-0.65061 -0.0275,-0.0718 -0.007,-0.87992 0.045,-1.79627 0.0523,-0.91635 0.12029,-2.23015 0.15089,-2.9192 l 0.0558,-1.25264 0.15141,0.0331 c 0.001,0.059 0.0466,0.0568 0.17105,0.0222 7.5e-4,-2e-4 0.004,-0.002 0.005,-0.002 0.16341,-0.005 0.39447,-0.0895 0.79944,-0.29714 0.8603,-0.4411 1.78256,-1.24482 2.5864,-2.24224 0.003,-0.004 0.006,-0.008 0.009,-0.0114 9.4e-4,-0.001 0.002,-0.002 0.003,-0.004 0.0596,-0.0742 0.12011,-0.14697 0.17828,-0.22324 0.26962,-0.35349 0.23183,0.28407 0.4346,-7.34322 0.0732,-2.75337 0.0979,-3.83345 0.0698,-4.29173 0.01,-0.16982 0.0182,-0.28874 0.0258,-0.30127 0.004,-0.007 -0.0324,-0.0132 -0.0873,-0.0191 -0.0105,-0.0169 -0.0212,-0.0332 -0.0341,-0.0444 -0.1327,-0.11543 -0.14572,-0.38107 -0.14572,-2.92075 0,-2.2508 -0.03,-2.99991 -0.15348,-3.85248 -0.56813,-3.9213 -1.73932,-7.41242 -3.5357,-10.54095 -1.14892,-2.00092 -3.53449,-4.76048 -5.51853,-6.38308 -1.86639,-1.52638 -2.67106,-2.058132 -4.80074,-3.17293 -1.58368,-0.828993 -1.99039,-1.00814 -3.8778,-1.708422 -2.80142,-1.039409 -4.51237,-1.476362 -8.26306,-2.109949 -3.181199,-0.537384 -6.790231,-0.794301 -10.436057,-0.772563 z m 1.150834,0.646989 c 2.693675,0.02953 5.35953,0.186279 7.578863,0.466122 4.97111,0.626821 9.49214,1.921657 13.20023,3.780131 8.13162,4.075522 12.98854,11.346462 13.89528,20.802862 0.1255,1.30934 0.15633,4.30133 0.0532,5.1723 l -0.0553,0.4656 -1.48001,-0.0269 c -0.87812,-0.0159 -1.50184,-0.0618 -1.53324,-0.11266 -0.0292,-0.0472 -0.0777,-0.39677 -0.10749,-0.77721 -0.24854,-3.17293 -1.54796,-7.41609 -3.18482,-10.39885 -2.44318,-4.45205 -5.75742,-7.68534 -10.35596,-10.10326 -5.3973,-2.837906 -12.405682,-4.15478 -20.507272,-3.853508 -9.520515,0.354039 -16.740358,2.626978 -22.478731,7.076568 -1.087171,0.84301 -3.257591,2.95772 -4.032829,3.92948 -2.259317,2.83202 -3.876365,5.92282 -4.937683,9.43715 -0.186606,0.61791 -0.362434,1.19542 -0.390674,1.28312 -0.02824,0.0878 0.134566,-0.18344 0.362252,-0.60254 0.478138,-0.88011 0.955597,-1.642 1.312581,-2.09548 0.137472,-0.17462 0.20861,-0.3173 0.15813,-0.3173 -0.163987,0 -0.09802,-0.29536 0.240296,-1.07538 0.710045,-1.63709 1.861263,-3.71893 2.636015,-4.76664 0.120521,-0.16298 0.387231,-0.5252 0.592211,-0.8046 1.250353,-1.7043 3.044341,-3.48526 4.957321,-4.92115 2.610182,-1.9592 5.594831,-3.45953 9.221659,-4.63589 1.846846,-0.59902 4.139248,-1.08237 6.856429,-1.445904 2.895196,-0.387341 3.488653,-0.420747 7.535457,-0.423747 4.892778,-0.0037 5.967632,0.09205 10.050548,0.897101 2.30771,0.45503 4.86288,1.23128 6.05545,1.83968 0.19451,0.0992 0.55538,0.25612 0.80201,0.34882 0.87792,0.32986 3.15579,1.64275 4.29742,2.47685 2.70748,1.97818 5.25261,4.79528 6.75101,7.47293 0.99594,1.77977 1.64665,3.28167 2.30631,5.32164 0.3501,1.08255 0.53483,2.17144 0.36846,2.17144 -0.0465,0 0.002,0.18085 0.10645,0.40204 0.29765,0.62735 0.69557,1.88722 0.87747,2.77761 0.0911,0.44608 0.21135,0.86555 0.26665,0.93225 0.037,0.0446 0.15478,0.072 0.39894,0.0904 -0.15404,-0.007 -0.26911,-0.0137 -0.30903,-0.0217 -0.29692,-0.0594 -0.33859,0.0492 -0.16639,0.42789 -0.0206,-0.012 -0.0391,-0.0244 -0.0553,-0.0388 -0.34252,-0.30393 -4.28138,-2.02631 -6.74429,-2.94918 -5.51573,-2.06678 -11.20817,-3.46563 -16.92041,-4.15736 -12.344942,-1.49495 -25.429209,0.10436 -37.489188,4.58214 -2.589625,0.96151 -5.110407,2.08931 -5.526277,2.46704 l 0.0026,-0.008 c 0.05648,-0.15619 0.08648,-0.30008 0.06666,-0.31988 -0.01097,-0.011 -0.296941,-0.001 -0.695565,0.0191 0.656516,-0.0835 0.719167,-0.18882 0.7059,-0.4284 -0.0094,-0.17045 -0.01098,-0.17051 -0.05013,-0.008 -0.0224,0.0931 -0.06676,0.19688 -0.09819,0.23048 -0.07978,0.0854 -4.108368,0.35739 -4.285526,0.28939 -0.12948,-0.0497 -0.139084,-0.15889 -0.08888,-1.04955 0.275316,-4.88445 1.32903,-8.88179 3.395658,-12.88139 4.968362,-9.61538 14.700307,-15.258356 28.695923,-16.639292 2.33061,-0.229959 5.052105,-0.327705 7.745781,-0.298173 z m -1.395781,24.340115 c 4.706239,0.003 5.582302,0.0515 9.271264,0.51211 7.33801,0.91632 14.98099,3.13244 21.747,6.30608 l 0.92242,0.43305 0.045,0.35191 c 0.0862,0.681 0.007,14.90179 -0.0925,16.56644 -0.15971,2.67904 -0.16781,2.73427 -0.38344,2.67167 -0.1006,-0.0292 -0.37333,-0.0874 -0.60616,-0.12971 -0.23283,-0.0423 -0.74727,-0.13552 -1.14309,-0.20722 -1.23149,-0.22296 -2.38042,-0.1345 -3.55999,0.27492 -2.19566,0.76209 -4.15803,2.92758 -5.34696,5.89938 -1.36501,3.41192 -2.14131,7.11654 -1.9823,9.45988 0.0967,1.42483 0.53329,2.94241 1.12292,3.90313 0.18012,0.29345 0.27216,0.5252 0.22686,0.5705 -0.042,0.042 -0.475,0.22682 -0.96221,0.41031 -3.68282,1.38707 -8.08035,2.16184 -13.967107,2.46135 -1.45877,0.0743 -8.259152,0.0947 -9.609749,0.0289 -5.848454,-0.28485 -10.518921,-1.03246 -14.259078,-2.28203 -5.310922,-1.77437 -9.035628,-4.63723 -10.928016,-8.4 -1.697012,-3.37429 -2.866979,-10.15809 -3.426147,-19.86856 -0.187524,-3.25658 -0.315147,-7.69564 -0.284737,-9.89862 l 0.02687,-1.94045 0.931209,-0.41754 c 1.253181,-0.56142 4.205579,-1.72534 5.714897,-2.2531 5.686832,-1.98853 12.033019,-3.42301 18.002002,-4.06952 3.214099,-0.34813 4.054799,-0.38592 8.54108,-0.38292 z m -32.986617,3.02204 c -0.0125,-0.011 -0.04159,0.0128 -0.07545,0.0651 -0.04514,0.0699 -0.08217,0.16527 -0.08217,0.21187 0,0.0466 0.03703,0.0275 0.08217,-0.0424 0.04514,-0.0699 0.08216,-0.16476 0.08216,-0.21136 0,-0.0117 -0.0025,-0.0196 -0.0067,-0.0233 z m -0.559656,1.28261 c -0.0089,0.009 -0.015,0.0386 -0.01705,0.0878 -0.0037,0.0892 0.01631,0.1392 0.04444,0.1111 0.02815,-0.0281 0.03118,-0.10116 0.0067,-0.16226 -0.01351,-0.0337 -0.02521,-0.0456 -0.03411,-0.0367 z m -0.254248,0.84698 c -0.0089,0.009 -0.015,0.0386 -0.01705,0.0878 -0.0037,0.0892 0.01631,0.13921 0.04444,0.11111 0.02815,-0.0281 0.03118,-0.10116 0.0067,-0.16226 -0.01352,-0.0337 -0.02521,-0.0456 -0.03411,-0.0367 z m -0.08475,0.42322 c -0.0089,0.009 -0.015,0.0385 -0.01705,0.0878 -0.0037,0.0892 0.01631,0.13921 0.04444,0.11111 0.02815,-0.0281 0.03118,-0.10116 0.0067,-0.16226 -0.01351,-0.0337 -0.02521,-0.0456 -0.03411,-0.0367 z m 69.716155,1.4919 h 0.53382 v 0.0656 c -0.0402,-0.0208 -0.23238,-0.044 -0.53382,-0.0656 z m -74.332927,0.28009 c -0.01434,0.0206 -0.02546,0.0581 -0.03307,0.108 3.7e-5,-0.0138 -0.0063,-0.1017 -0.0052,-0.10283 9.19e-4,-9.2e-4 0.03223,-0.004 0.03824,-0.005 z m 0.809253,10.65568 c 0.01747,0.056 0.03779,0.11074 0.06046,0.16123 l -0.05271,-0.0646 z m 74.395974,0.0212 -0.002,0.0863 -0.0351,0.0537 c 0.0135,-0.0447 0.0264,-0.0912 0.0372,-0.14004 z M 93.823213,142.89 c -1.474893,-0.006 -2.99153,0.1025 -4.485515,0.32814 -5.885824,0.88896 -9.867236,3.82072 -11.388452,8.38554 -0.562672,1.68845 -0.670761,2.42216 -0.676961,4.60075 -0.0059,2.08165 0.117656,3.30553 0.363285,3.59823 0.107736,0.12837 0.456164,0.22248 1.540991,0.41651 3.784594,0.67691 7.502505,1.08379 11.976014,1.31103 1.061086,0.0539 6.065246,-0.0267 7.281209,-0.1173 1.661446,-0.12372 3.334496,-0.31221 4.869986,-0.54932 2.75046,-0.42471 5.80476,-1.20209 6.12831,-1.5596 0.20124,-0.22233 0.28137,-2.28357 0.14366,-3.69228 -0.58009,-5.93384 -3.73557,-10.04602 -9.02529,-11.76156 -1.926996,-0.62495 -4.269082,-0.95073 -6.727237,-0.96014 z m 0.188102,0.83819 c 2.392442,0.004 4.112562,0.23972 5.963977,0.79737 5.657118,1.70394 8.735658,6.17785 8.743658,12.70568 10e-4,1.06128 -0.0241,1.38684 -0.11524,1.46244 -0.14554,0.12079 -1.23644,0.4381 -2.46549,0.71727 -3.11853,0.70838 -6.458267,1.12001 -9.736353,1.19941 -0.977899,0.0237 -2.006766,0.054 -2.286166,0.0672 -1.699804,0.0806 -6.321167,-0.16999 -9.228894,-0.50023 -2.623828,-0.29799 -6.378704,-0.91585 -6.532418,-1.07487 -0.167709,-0.17349 -0.310532,-2.02899 -0.258382,-3.36155 0.192521,-4.91917 2.372927,-8.37999 6.501412,-10.32082 2.308736,-1.08535 4.855658,-1.59808 8.345227,-1.67948 0.371568,-0.009 0.726892,-0.0129 1.068669,-0.0124 z m 26.809215,0.86609 c 0.36144,-0.013 0.70595,0.003 1.01183,0.0527 2.57856,0.41597 4.75947,1.49231 7.65844,3.78065 1.15734,0.91357 3.20286,3.12907 4.01371,4.34754 0.23242,0.34925 0.63608,1.05428 0.89711,1.56683 0.27902,0.54783 0.65809,1.13823 0.92035,1.43247 0.56173,0.63025 1.95039,1.55396 2.88096,1.91616 1.91943,0.7471 2.62832,0.9339 8.82944,2.33113 3.45844,0.77925 5.07636,1.61715 5.718,2.96157 0.20903,0.43789 0.25108,0.63107 0.24908,1.14929 -0.002,0.7158 -0.16404,1.14826 -0.59118,1.57665 -0.39419,0.39534 -1.20244,0.74647 -1.97146,0.85679 -0.67567,0.0969 -0.71219,0.0981 -1.0759,0.0346 -1.49291,-0.2606 -3.40967,-0.84964 -8.42481,-2.59002 -3.23475,-1.12254 -5.70657,-1.48838 -7.32358,-1.08365 -0.7951,0.19901 -1.24877,0.39624 -1.94665,0.84749 -0.78394,0.50687 -1.88538,1.02358 -2.96365,1.38958 -3.45183,1.17168 -7.49808,1.54055 -10.3327,0.94206 -3.34929,-0.70716 -5.35357,-2.33116 -6.1588,-4.99091 -0.6441,-2.12755 -0.43463,-5.16391 0.58446,-8.46615 1.10349,-3.5757 2.76611,-6.03776 4.89996,-7.25537 0.80423,-0.45891 2.04108,-0.76051 3.12539,-0.79944 z m -17.77256,17.45217 c -1.32715,0 -2.51708,0.029 -2.64428,0.0646 -0.32027,0.0896 -0.829512,0.55492 -0.966866,0.88366 -0.309002,0.73954 -0.03189,1.53474 0.690396,1.98334 0.23363,0.14507 0.46615,0.15787 2.9037,0.15813 2.87149,3.4e-4 2.88272,-0.001 3.33468,-0.47904 0.40977,-0.43309 0.52797,-1.10129 0.29352,-1.66243 -0.13736,-0.32874 -0.64659,-0.79406 -0.96686,-0.88366 -0.1272,-0.0356 -1.31714,-0.0646 -2.64429,-0.0646 z m -20.940321,0.0424 -0.36742,0.21498 c -0.226813,0.13293 -0.431955,0.34252 -0.536401,0.54725 -0.200003,0.39204 -0.224206,1.08794 -0.04961,1.42214 0.153577,0.29398 0.541374,0.6609 0.811836,0.76843 0.29461,0.1173 5.168064,0.12176 5.476669,0.005 0.291983,-0.11032 0.678335,-0.46661 0.838708,-0.77359 0.174596,-0.3342 0.149877,-1.0301 -0.05013,-1.42214 -0.104445,-0.20473 -0.309588,-0.41432 -0.536401,-0.54725 l -0.36742,-0.21498 h -2.60966 z m 11.567769,0 c -2.919834,1.5e-4 -2.95726,0.007 -3.436999,0.6072 -0.586002,0.73368 -0.308266,1.8479 0.575158,2.30736 0.213858,0.11118 0.662288,0.13246 2.83652,0.1328 2.291839,3.5e-4 2.615037,-0.0164 2.872693,-0.14779 0.878486,-0.44796 1.129093,-1.63564 0.497127,-2.35541 -0.479772,-0.54607 -0.466084,-0.54432 -3.344499,-0.54416 z m 56.426012,0.59067 c -0.24115,2.8e-4 -0.48723,0.0819 -0.69298,0.26251 -0.51572,0.45284 -0.48173,1.27379 0.0667,1.60817 0.33106,0.20183 0.95969,0.21494 1.23042,0.0253 0.22525,-0.15778 0.43305,-0.60042 0.43305,-0.9219 0,-0.58364 -0.50661,-0.97472 -1.03715,-0.9741 z m -56.472004,0.16278 c 1.177949,-0.006 2.354294,0.0279 2.50269,0.10697 0.447254,0.23821 0.537974,0.78338 0.188619,1.13274 l -0.20774,0.20826 h -2.462898 -2.462899 l -0.208256,-0.20826 c -0.342596,-0.3426 -0.27428,-0.89477 0.136942,-1.10742 0.155815,-0.0806 1.335593,-0.12633 2.513542,-0.13229 z m 9.398394,0 c 1.17795,-0.006 2.35378,0.0279 2.50217,0.10697 0.44725,0.23821 0.53797,0.78338 0.18862,1.13274 l -0.20774,0.20826 h -2.4629 -2.4629 l -0.20773,-0.20826 c -0.34259,-0.3426 -0.27429,-0.89477 0.13694,-1.10742 0.15581,-0.0806 1.33559,-0.12633 2.51354,-0.13229 z m -20.736203,0.008 h 2.426208 2.425692 l 0.24753,0.24754 c 0.306932,0.30693 0.315663,0.58983 0.02842,0.9312 l -0.219108,0.26097 -2.4691,-0.003 c -2.593316,-0.003 -2.630471,-0.008 -2.836002,-0.39377 -0.158803,-0.29817 -0.115327,-0.53116 0.148828,-0.7953 z m 67.849093,0.17105 c 0.34053,0.0216 0.65939,0.26528 0.65939,0.63252 0,0.39982 -0.0707,0.53992 -0.34468,0.68162 -0.35527,0.18372 -0.57117,0.15178 -0.84698,-0.12403 -0.31104,-0.311 -0.32581,-0.65984 -0.0403,-0.9679 0.15605,-0.16838 0.36826,-0.23516 0.57258,-0.22221 z" /><path
         style="display:inline;fill:url(#radialGradient7830);fill-opacity:1;stroke-width:0.0836604"
         d="m 150.43671,166.04677 c 0.76902,-0.10771 1.57719,-0.45074 1.97138,-0.83675 0.42714,-0.41827 0.58925,-0.84014 0.59138,-1.53902 0.002,-0.50598 -0.0403,-0.69455 -0.24933,-1.12209 -0.64164,-1.31265 -2.25937,-2.13077 -5.71781,-2.89161 -6.20113,-1.36422 -6.9101,-1.547 -8.82953,-2.27645 -0.93057,-0.35364 -2.31887,-1.2551 -2.8806,-1.87046 -0.26226,-0.28729 -0.64172,-0.8637 -0.92074,-1.39859 -0.26103,-0.50043 -0.66477,-1.18888 -0.89719,-1.52988 -0.81085,-1.18968 -2.85605,-3.35277 -4.01339,-4.24476 -2.89898,-2.23426 -5.0798,-3.28552 -7.65837,-3.69166 -1.22349,-0.19271 -3.06487,0.1319 -4.13718,0.72933 -2.13385,1.18883 -3.79663,3.59266 -4.90012,7.08387 -1.01909,3.22421 -1.22876,6.18855 -0.58466,8.26583 0.80523,2.5969 2.80949,4.18282 6.15878,4.87327 2.83462,0.58435 6.88083,0.22415 10.33267,-0.91984 1.07827,-0.35736 2.18018,-0.86166 2.96412,-1.35655 0.69789,-0.44059 1.15145,-0.63345 1.94655,-0.82776 1.61702,-0.39517 4.08891,-0.0381 7.32366,1.05794 5.01514,1.69925 6.93143,2.27453 8.42434,2.52897 0.36371,0.062 0.40037,0.0608 1.07604,-0.0338 z m -0.96148,-1.23555 c -0.54839,-0.32648 -0.58242,-1.12828 -0.0667,-1.57042 0.65839,-0.56442 1.7301,-0.13397 1.7301,0.69489 0,0.31388 -0.20798,0.74593 -0.43323,0.89998 -0.27073,0.18514 -0.89915,0.17265 -1.23021,-0.0244 z"
         id="path7684"
         sodipodi:nodetypes="ssccsssssssssssssssssscssscc" /><path
         style="display:inline;fill:#cb8a39;fill-opacity:1;stroke-width:0.0846667"
         d="m 125.83723,145.67035 c 3.50019,1.7546 7.11201,5.21733 8.71445,8.35478 0.57293,1.12173 0.90225,1.55255 1.67232,2.18774 1.44029,1.18802 3.72624,2.0067 8.01428,2.87021 2.9399,0.59202 6.30078,1.55206 7.12558,2.03543 0.48537,0.28445 1.41951,1.21849 1.61811,1.61796 0.4312,0.86729 0.44671,1.51736 0.0648,2.71771 -0.32856,1.03278 -0.82383,1.64709 -1.68576,2.09093 -0.66155,0.34066 -0.67338,0.34318 -1.56634,0.33442 -1.55307,-0.0152 -3.32626,-0.49195 -7.37675,-1.98318 -3.23757,-1.19194 -4.7929,-1.6174 -6.51933,-1.78337 -1.99672,-0.19195 -3.07596,0.0408 -4.52967,0.97708 -0.44252,0.28499 -1.27639,0.70177 -2.11667,1.05792 -1.46045,0.61901 -3.78181,1.15095 -6.34676,1.45437 -0.92215,0.10908 -3.41667,0.053 -4.36357,-0.0982 -1.9118,-0.30513 -3.81107,-1.14138 -4.92821,-2.1699 C 107,160 114,138 125.83723,145.67035 Z m 24.59948,20.89569 c 0.76902,-0.11032 1.57719,-0.46165 1.97138,-0.857 0.42714,-0.42839 0.58925,-0.86047 0.59138,-1.57627 0.002,-0.51822 -0.0403,-0.71135 -0.24933,-1.14924 -0.64164,-1.34442 -2.25937,-2.18234 -5.71781,-2.96159 -6.20113,-1.39723 -6.9101,-1.58444 -8.82953,-2.33154 -0.93057,-0.3622 -2.31887,-1.28548 -2.8806,-1.91573 -0.26226,-0.29424 -0.64172,-0.8846 -0.92074,-1.43243 -0.26103,-0.51255 -0.66477,-1.21766 -0.89719,-1.56691 -0.81085,-1.21847 -2.85605,-3.43391 -4.01339,-4.34748 -2.89898,-2.28834 -5.0798,-3.36504 -7.65837,-3.78101 -1.22349,-0.19737 -3.06487,0.1351 -4.13718,0.74698 -2.13385,1.21761 -3.79663,3.67961 -4.90012,7.25531 -1.01909,3.30224 -1.22876,6.33832 -0.58466,8.46587 0.80523,2.65975 2.80949,4.28405 6.15878,4.99121 2.83462,0.59849 6.88083,0.22957 10.33267,-0.94211 1.07827,-0.366 2.18018,-0.88251 2.96412,-1.38938 0.69789,-0.45125 1.15145,-0.64878 1.94655,-0.84779 1.61702,-0.40473 4.08891,-0.039 7.32366,1.08354 5.01514,1.74038 6.93143,2.32958 8.42434,2.59018 0.36371,0.0635 0.40037,0.0623 1.07604,-0.0346 z m -0.96148,-2.01581 c -0.54839,-0.33438 -0.58242,-1.15559 -0.0667,-1.60843 0.65839,-0.57808 1.7301,-0.13721 1.7301,0.71171 0,0.32148 -0.20798,0.76398 -0.43323,0.92176 -0.27073,0.18962 -0.89915,0.17683 -1.23021,-0.025 z m 0.98005,-0.21477 c 0.27401,-0.1417 0.34472,-0.28142 0.34472,-0.68124 0,-0.58759 -0.81559,-0.8592 -1.23171,-0.41019 -0.2855,0.30806 -0.27114,0.65681 0.0399,0.96781 0.27581,0.27581 0.49185,0.30734 0.84712,0.12362 z"
         id="path7061"
         sodipodi:nodetypes="cssssssssssssscccssccsssssssssssssssssscsssccssssss" /></g></g></svg>
