<?xml version="1.0" encoding="UTF-8" standalone="no"?>
<!-- Created with Inkscape (http://www.inkscape.org/) -->

<svg
   width="88mm"
   height="125mm"
   viewBox="0 0 88 125"
   version="1.1"
   id="svg5"
   inkscape:version="1.2.2 (732a01da63, 2022-12-09)"
   xml:space="preserve"
   sodipodi:docname="salt.svg"
   xmlns:inkscape="http://www.inkscape.org/namespaces/inkscape"
   xmlns:sodipodi="http://sodipodi.sourceforge.net/DTD/sodipodi-0.dtd"
   xmlns="http://www.w3.org/2000/svg"
   xmlns:svg="http://www.w3.org/2000/svg"><sodipodi:namedview
     id="namedview7"
     pagecolor="#f0f0f0"
     bordercolor="#ffffff"
     borderopacity="1"
     inkscape:showpageshadow="0"
     inkscape:pageopacity="0"
     inkscape:pagecheckerboard="0"
     inkscape:deskcolor="#505050"
     inkscape:document-units="mm"
     showgrid="true"
     inkscape:zoom="1.0154442"
     inkscape:cx="199.42011"
     inkscape:cy="191.54179"
     inkscape:current-layer="layer1"><inkscape:grid
       type="xygrid"
       id="grid132"
       dotted="true"
       empspacing="10"
       units="mm"
       spacingx="1"
       spacingy="1"
       originx="0"
       originy="0" /></sodipodi:namedview><defs
     id="defs2" /><g
     inkscape:label="Layer 1"
     inkscape:groupmode="layer"
     id="layer1"><g
       id="g5414"
       transform="matrix(0.60995528,0,0,0.60995528,-35.937721,-44.915726)"><path
         style="display:inline;fill:#ffffff;stroke-width:0.352778"
         d="m 148.12393,223.74196 c -11.60128,-0.66591 -21.04688,-2.70263 -26.06875,-5.62111 -3.89451,-2.26331 -4.42255,-3.95214 -3.80477,-12.16879 0.42309,-5.62718 3.01277,-38.75461 3.58511,-45.86111 0.18752,-2.32834 0.74641,-9.55146 1.24197,-16.05139 0.8973,-11.76927 1.54307,-16.55454 2.47802,-18.36253 0.27034,-0.52279 1.22364,-1.72477 2.11843,-2.67108 3.41606,-3.61271 5.69127,-7.4487 6.2515,-10.54 0.1767,-0.97504 0.0624,-1.12204 -1.45178,-1.86769 -0.90397,-0.44515 -1.98712,-1.31827 -2.407,-1.94028 -0.7338,-1.08705 -0.76666,-1.52782 -0.84697,-11.361478 -0.0581,-7.108557 0.0453,-10.686584 0.33859,-11.724922 0.94878,-3.358734 3.12463,-4.438315 13.0976,-6.498586 3.236,-0.668511 25.69178,-0.668511 28.92777,0 5.00651,1.034274 7.29521,1.613768 8.67937,2.197601 1.83002,0.771899 4.02063,2.676479 4.02063,3.495646 0,0.344199 0.23813,0.82344 0.52917,1.064984 0.44874,0.37242 0.52917,2.039358 0.52917,10.967546 v 10.528379 l -1.19018,1.19018 c -0.6546,0.6546 -1.76585,1.54597 -2.46945,1.98081 -1.51941,0.93905 -1.58432,1.54863 -0.45367,4.26086 1.11555,2.67604 2.96457,5.43215 5.32511,7.9375 2.68351,2.84815 2.96054,3.45917 3.56015,7.85257 0.81501,5.97163 6.57479,80.55386 6.32718,81.92937 -0.26483,1.47113 -1.40045,3.40715 -2.62741,4.47921 -5.70916,4.98848 -25.57799,7.93873 -45.68979,6.78431 z"
         id="path5503" /><path
         style="display:inline;fill:#6c6d6d;fill-opacity:1;stroke-width:0.352778"
         d="m 153.23921,208.28239 c 0,-0.77063 0.73543,-1.16089 1.40631,-0.74626 0.65545,0.40509 0.16334,1.41408 -0.68968,1.41408 -0.46794,0 -0.71663,-0.23175 -0.71663,-0.66782 z m 12.35103,-1.62066 c -0.24971,-0.30087 -0.34048,-0.90265 -0.21287,-1.41111 0.18434,-0.73445 0.43316,-0.88652 1.4505,-0.88652 1.36875,0 1.47247,0.26785 0.68978,1.7814 -0.5917,1.14423 -1.2581,1.32271 -1.92741,0.51623 z m 6.50179,-0.21461 c -0.30999,-0.50157 0.5365,-2.08302 1.11496,-2.08302 0.64566,0 0.97784,1.35648 0.47928,1.9572 -0.50376,0.607 -1.25997,0.66668 -1.59424,0.12582 z m -24.49726,-0.49552 c 0,-0.29105 0.23812,-0.52917 0.52916,-0.52917 0.29104,0 0.52917,0.23812 0.52917,0.52917 0,0.29104 -0.23813,0.52916 -0.52917,0.52916 -0.29104,0 -0.52916,-0.23812 -0.52916,-0.52916 z m 22.60529,-2.08351 c -0.49737,-0.5993 -0.23283,-1.26788 0.50165,-1.26788 0.76384,0 1.0175,0.72118 0.45241,1.28628 -0.44884,0.44884 -0.56819,0.44654 -0.95406,-0.0184 z m -4.55339,-1.68273 c 0.15515,-1.09516 1.88004,-1.20005 1.88004,-0.11432 0,0.51236 -0.27329,0.73686 -0.9981,0.81988 -0.86791,0.0994 -0.98295,0.007 -0.88194,-0.70556 z m -7.46484,-1.87372 c -0.62745,-0.75602 -0.1721,-1.59199 0.86714,-1.59199 0.97615,0 1.23387,0.92915 0.46968,1.69333 -0.55339,0.5534 -0.80956,0.53398 -1.33682,-0.10134 z m 4.9968,-0.064 c 0.14954,-0.77653 1.52586,-0.88193 1.52586,-0.11685 0,0.29104 -0.37131,0.58175 -0.82514,0.64601 -0.63987,0.0906 -0.7972,-0.0282 -0.70072,-0.52916 z m 8.94666,-0.44945 c -0.36542,-0.59126 0.12818,-1.07851 1.09255,-1.07851 0.6544,0 0.85614,0.16189 0.76933,0.61736 -0.13235,0.6944 -1.50726,1.03494 -1.86188,0.46115 z m 5.22895,-0.20029 c -0.3355,-0.8743 0.78084,-1.85203 1.55617,-1.36296 0.33591,0.21189 0.61074,0.68545 0.61074,1.05236 0,0.89017 -1.84313,1.15436 -2.16691,0.3106 z m -10.5819,-2.11294 c -0.30238,-0.78799 0.1182,-1.58823 0.83149,-1.5821 1.06979,0.009 1.60548,0.55033 1.34797,1.36167 -0.28049,0.88375 -1.86348,1.04385 -2.17946,0.22043 z m 3.4002,-0.37621 c 0,-0.77956 0.13482,-0.88986 0.97014,-0.79375 0.69462,0.0799 1.00216,0.33705 1.08287,0.90538 0.0959,0.67523 -0.0489,0.79375 -0.97014,0.79375 -0.92735,0 -1.08287,-0.13003 -1.08287,-0.90538 z m 5.70811,-4.47449 c 0.062,-0.43656 0.35085,-0.79375 0.64189,-0.79375 0.29104,0 0.5799,0.35719 0.6419,0.79375 0.0868,0.61091 -0.0611,0.79375 -0.6419,0.79375 -0.58079,0 -0.72866,-0.18284 -0.64189,-0.79375 z m 3.46412,-0.77292 c 0,-0.66788 0.50512,-0.95754 1.20288,-0.68978 0.89458,0.34328 0.66559,1.19812 -0.32094,1.19812 -0.53271,0 -0.88194,-0.20129 -0.88194,-0.50834 z M 167.7031,159.56178 c 0,-0.19403 0.15875,-0.35278 0.35278,-0.35278 0.19402,0 0.35277,0.15875 0.35277,0.35278 0,0.19403 -0.15875,0.35278 -0.35277,0.35278 -0.19403,0 -0.35278,-0.15875 -0.35278,-0.35278 z m 5.5342,0.12494 c -0.54345,-0.54345 -0.22839,-1.53605 0.48756,-1.53605 0.54875,0 0.70209,0.19029 0.61736,0.76611 -0.11708,0.79562 -0.68411,1.19075 -1.10492,0.76994 z m -17.46149,-1.80064 c 0.0654,-0.33954 0.43205,-0.61736 0.81479,-0.61736 0.38274,0 0.74939,0.27782 0.81479,0.61736 0.089,0.46241 -0.11547,0.61737 -0.81479,0.61737 -0.69933,0 -0.90384,-0.15496 -0.81479,-0.61737 z m 7.34118,0.0882 c 0,-0.29398 0.31358,-0.52917 0.70555,-0.52917 0.39198,0 0.70556,0.23519 0.70556,0.52917 0,0.29398 -0.31358,0.52917 -0.70556,0.52917 -0.39197,0 -0.70555,-0.23519 -0.70555,-0.52917 z m -1.76389,-0.35278 c 0,-0.29398 0.31358,-0.52917 0.70555,-0.52917 0.39198,0 0.70556,0.23519 0.70556,0.52917 0,0.29398 -0.31358,0.52917 -0.70556,0.52917 -0.39197,0 -0.70555,-0.23519 -0.70555,-0.52917 z"
         id="path310"
         sodipodi:nodetypes="sssssssssssssssssssssscsscssssssssssssssssscssssssssssssssssssssssssssscssssssssssss" /><path
         id="path3188"
         style="display:inline;fill:#b1dcee;fill-opacity:1;stroke-width:0.352778"
         d="m 177.4362,112.06448 c -0.0216,-0.008 -0.0463,-0.008 -0.0739,0.002 -0.0551,0.0183 -0.12233,0.0707 -0.20464,0.15296 -0.0582,0.0582 -0.14707,0.11373 -0.25735,0.16433 -0.11028,0.0506 -0.24218,0.0965 -0.38705,0.13488 -0.14487,0.0384 -0.3026,0.0695 -0.46457,0.091 -0.16198,0.0215 -0.4899,0.0331 -0.4899,0.0331 0,0 -0.0952,0.6277 -0.0945,1.57511 0,2.31535 0.89254,4.59875 3.03909,7.77368 2.76303,4.08676 4.48994,5.98524 5.1971,5.71387 1.03298,-0.39639 0.63608,-1.33389 -2.04587,-4.83278 -3.6979,-4.82429 -4.21718,-5.80606 -4.43333,-8.37779 -0.1019,-1.21268 -0.0631,-2.20451 0.0868,-2.20451 0.14993,0 0.27285,0.47419 0.27285,1.0542 0,2.42767 2.72367,7.35673 6.29781,11.39723 2.40759,2.72174 2.4761,2.8815 2.74867,6.42752 0.23377,3.04128 0.22947,3.06381 -0.4961,2.61069 -0.59002,-0.36851 -0.836,-0.37096 -1.26865,-0.0119 -0.29515,0.24495 -0.65784,1.21387 -0.65784,1.21387 l -0.19637,2.05259 c 0,0 0.22462,1.93387 0.34054,3.0639 0.11592,1.13003 0.23513,2.37394 0.35967,3.74654 0.12454,1.3726 0.25448,2.87395 0.39223,4.5191 0.27548,3.29031 0.58208,7.15566 0.93792,11.71608 0.35584,4.56043 0.76114,9.81597 1.23404,15.88637 0.51516,6.61285 0.91048,11.75451 1.20251,15.76803 0.0266,1.52608 -0.19766,3.32275 0.75341,4.51652 0.18476,0.29104 0.33806,3.48775 0.34106,7.10345 0.005,6.43742 -0.0108,6.58435 -0.78806,7.07243 -1.3432,0.84348 -6.27458,2.34434 -9.60562,2.92385 -3.40112,0.59171 -5.1232,1.19305 -5.1232,1.78904 0,0.57497 -2.15299,1.21963 -4.08192,1.22163 -0.95637,0.001 -2.61767,0.14598 -3.69176,0.32195 -2.87981,0.47181 -12.91626,0.73259 -15.1567,0.39377 -1.06715,-0.16139 -3.44841,-0.55066 -5.29167,-0.86506 -1.84327,-0.3144 -4.38344,-0.74769 -5.64461,-0.96273 -3.27802,-0.55895 -7.73462,-1.73668 -7.96179,-2.10427 -0.10645,-0.17222 -0.95048,-0.31316 -1.87534,-0.31316 -1.33755,0 -1.85089,-0.1806 -2.50992,-0.88211 -0.4557,-0.48507 -1.19776,-0.88212 -1.649,-0.88212 -0.78255,0 -0.82062,-0.11667 -0.82062,-2.53266 v -2.53318 l -0.0811,-1.79524 c 0,0 -0.0498,-0.38182 -0.0641,-0.59376 -0.0143,-0.21194 -0.0214,-0.4409 -0.0217,-0.69557 -2.8e-4,-0.25467 0.006,-0.53495 0.0202,-0.85007 0.0137,-0.31512 0.0343,-0.66505 0.062,-1.05834 0.0554,-0.78658 0.13899,-1.7472 0.25011,-2.95279 0.13979,-1.51499 0.32811,-3.74576 0.51883,-6.11901 0.19073,-2.37324 0.38371,-4.88897 0.53331,-6.97476 0.17869,-2.4916 0.27087,-3.67235 0.43408,-5.93659 -0.004,0.0101 -0.005,0.0247 -0.009,0.0341 -0.0966,0.23885 -0.16978,-0.0417 -0.16278,-0.62373 0.007,-0.58208 0.0863,-0.77784 0.1757,-0.4346 0.0232,0.0888 0.0392,0.18656 0.0496,0.28681 0.5892,-8.16721 1.16529,-16.16274 1.5844,-21.6762 0.27407,-3.60551 0.51745,-6.7035 0.73794,-9.37307 0.22049,-2.66957 0.41792,-4.91072 0.59996,-6.80165 0.18205,-1.89094 0.34872,-3.43141 0.50747,-4.70101 0.0794,-0.6348 0.15667,-1.20205 0.23306,-1.71101 0.0764,-0.50896 0.15156,-0.95992 0.22686,-1.3627 0.0753,-0.40279 0.15076,-0.75757 0.22686,-1.07384 0.0761,-0.31627 0.15323,-0.59394 0.23202,-0.84336 0.0788,-0.24942 0.15899,-0.47059 0.24237,-0.67283 0.0834,-0.20223 0.16955,-0.38545 0.25941,-0.56017 0.0722,-0.14028 0.17843,-0.32169 0.31058,-0.53382 0.13214,-0.21212 0.29037,-0.45487 0.46715,-0.71778 0.35357,-0.52583 0.78117,-1.13257 1.22112,-1.7353 0.43994,-0.60273 0.89209,-1.20181 1.29552,-1.71307 0.20172,-0.25563 0.39115,-0.4892 0.56069,-0.6904 0.16955,-0.20119 0.31931,-0.36986 0.44132,-0.49557 0.10329,-0.10643 0.21912,-0.25496 0.34416,-0.43822 0.12504,-0.18326 0.25902,-0.40121 0.39946,-0.64751 0.14044,-0.24629 0.28717,-0.52095 0.43667,-0.81648 0.1495,-0.29554 0.30203,-0.61213 0.45423,-0.9431 0.15221,-0.33096 0.30412,-0.67628 0.45269,-1.02888 0.14857,-0.35259 0.29395,-0.71237 0.43253,-1.0728 0.13858,-0.36043 0.27049,-0.72144 0.39274,-1.0759 0.12225,-0.35446 0.33435,-1.03715 0.33435,-1.03715 l -0.15544,-0.87281 c 0,0 -1.19189,0.21049 -1.87688,1.44849 -0.67964,1.22832 -2.99511,4.26966 -4.5806,6.01668 -1.50417,1.65741 -3.22844,5.33891 -3.61994,7.72925 -0.18371,1.12168 -0.33489,4.59146 -0.33589,7.71064 -0.002,5.48375 -0.21177,7.59323 -1.76734,17.78858 -0.9149,5.99636 -1.21669,8.34095 -1.96422,15.25746 -0.33028,3.05593 -0.72864,5.55625 -0.72864,5.55625 l -1.04541,9.525 -0.67024,9.70174 0.0956,7.56491 c 0.0811,6.428 0.18253,7.66068 0.67437,8.20415 0.31835,0.35178 0.75539,0.99432 0.97152,1.42782 0.21613,0.43351 0.70598,0.84882 1.08831,0.92242 0.38234,0.0736 1.07431,0.43221 1.53789,0.79685 0.46358,0.36465 1.41677,0.66838 2.11821,0.67438 0.70144,0.006 2.14285,0.31086 3.20343,0.67696 1.38867,0.47937 2.11175,0.5676 2.5833,0.31523 0.43851,-0.23473 1.20021,-0.2249 2.30529,0.03 0.9076,0.20933 3.63424,0.69704 6.05958,1.08366 2.42534,0.38662 5.20364,0.8754 6.17378,1.08572 2.0533,0.44515 16.01785,0.1346 17.87281,-0.39739 0.64492,-0.18496 2.04122,-0.33642 3.10317,-0.33642 1.06194,0 2.5712,-0.22007 3.3538,-0.48937 1.47413,-0.50726 5.85703,-1.83252 9.53689,-2.88355 1.16416,-0.3325 2.30404,-0.75174 2.53317,-0.93172 0.22914,-0.17998 1.26962,-0.41539 2.31201,-0.52297 2.05695,-0.2123 2.52554,-0.46553 3.71812,-2.01073 l 0.78548,-1.01802 0.0682,-0.55191 c 0,0 -0.0488,-0.88371 -0.0894,-1.32757 -0.14939,-1.63467 -0.44771,-5.34081 -0.86661,-10.74973 -0.41891,-5.40892 -0.95831,-12.52044 -1.58957,-20.96564 -0.20304,-2.71639 -0.4627,-6.03902 -0.71779,-9.20409 -0.25508,-3.16508 -0.50537,-6.17262 -0.68936,-8.25841 -0.18399,-2.0858 -0.4323,-5.13275 -0.68368,-8.36177 -0.25138,-3.22901 -0.50589,-6.64028 -0.70331,-9.45368 -0.27072,-3.85796 -0.456,-6.65936 -0.62012,-8.73435 -0.0821,-1.0375 -0.15843,-1.89312 -0.23823,-2.60863 -0.0399,-0.35775 -0.0806,-0.68086 -0.12299,-0.97358 -0.0424,-0.29273 -0.0864,-0.55523 -0.13332,-0.79324 -0.0469,-0.23801 -0.0969,-0.45131 -0.15038,-0.64492 -0.0534,-0.19361 -0.11059,-0.36758 -0.1726,-0.5271 -0.062,-0.15951 -0.12892,-0.30454 -0.20154,-0.44028 -0.0726,-0.13574 -0.1509,-0.2622 -0.23616,-0.38447 -0.0853,-0.12228 -0.17706,-0.24055 -0.27699,-0.35967 -0.0999,-0.11912 -0.20789,-0.23908 -0.32453,-0.36536 -0.23326,-0.25255 -0.50215,-0.52974 -0.81442,-0.87281 -0.47487,-0.52173 -0.93423,-1.05866 -1.37459,-1.60455 -0.44036,-0.5459 -0.86164,-1.10076 -1.26039,-1.65778 -0.39874,-0.55703 -0.77496,-1.11661 -1.12499,-1.67174 -0.35003,-0.55512 -0.67368,-1.1057 -0.9679,-1.64589 -0.29422,-0.5402 -0.55882,-1.06958 -0.79014,-1.58182 -0.11565,-0.25611 -0.22283,-0.50831 -0.32142,-0.75499 -0.0986,-0.24668 -0.18858,-0.48785 -0.26924,-0.72347 -0.0806,-0.23562 -0.15212,-0.4654 -0.21394,-0.68833 -0.0618,-0.22292 -0.11396,-0.43942 -0.15606,-0.64802 -0.0421,-0.20861 -0.0741,-0.40938 -0.0956,-0.60203 -0.0215,-0.19266 -0.0326,-0.37683 -0.0326,-0.55191 0,-0.21693 -0.006,-0.38959 -0.0196,-0.52089 -0.014,-0.13131 -0.0364,-0.22152 -0.0687,-0.27441 -0.0162,-0.0264 -0.0347,-0.0435 -0.0563,-0.0517 z"
         sodipodi:nodetypes="ssssssccssssssssssccsssssccsssscsssssssssccsssscsscccscsssssssssssssssssssssssccssscssccccsssscssssssssssscccsssssssssssssssssssssssssssssssss" /><path
         id="path4813"
         style="display:inline;fill:#ea7572;fill-opacity:1;stroke-width:0.375563"
         d="m 156.84881,81.325957 c -0.71417,4.61e-4 -1.42902,0.008 -2.14398,0.02377 -0.71471,0.01518 -1.42948,0.03714 -2.1443,0.06707 -0.71477,0.02994 -1.42914,0.06755 -2.1427,0.112213 -0.71378,0.04469 -1.42689,0.09642 -2.13849,0.155696 -0.71166,0.05944 -1.42245,0.125674 -2.13122,0.199706 -0.70882,0.07402 -1.4154,0.155511 -2.12026,0.244262 -0.70487,0.08863 -1.40747,0.184809 -2.1075,0.288269 -0.69997,0.103414 -1.39747,0.214668 -2.09178,0.332824 -0.58948,0.100451 -1.16704,0.210208 -1.72557,0.32734 -0.55883,0.117134 -1.09866,0.241259 -1.61415,0.37078 -0.51549,0.129542 -1.00609,0.264073 -1.46615,0.401605 -0.46005,0.137532 -0.88934,0.278051 -1.28187,0.419217 -0.39252,0.141147 -0.74788,0.283228 -1.06049,0.423587 -0.31292,0.140377 -0.58255,0.279064 -0.80346,0.414259 -0.11014,0.06753 -0.20796,0.134223 -0.2931,0.199706 -0.0861,0.06554 -0.1575,0.129729 -0.21559,0.192555 -0.0578,0.06273 -0.1027,0.124138 -0.1326,0.183728 -0.0312,0.05971 -0.0455,0.11745 -0.0455,0.173291 0,0.02563 0.0122,0.05536 0.0388,0.08795 0.0237,0.0326 0.0614,0.06879 0.10999,0.107827 0.0964,0.07786 0.23615,0.167214 0.41217,0.265157 0.17571,0.09791 0.3875,0.20442 0.62693,0.315782 0.23961,0.111363 0.50685,0.227913 0.79405,0.346037 0.57426,0.236264 1.22811,0.479573 1.8963,0.703076 0.33395,0.111766 0.67166,0.21825 1.00507,0.316878 0.33336,0.09853 0.66222,0.189051 0.97867,0.267933 0.31536,0.07846 0.73117,0.165872 1.21293,0.256348 0.48207,0.09057 1.02963,0.184277 1.60816,0.275628 0.57852,0.09139 1.18798,0.180116 1.79346,0.261311 0.60554,0.08123 1.20712,0.154531 1.76969,0.214558 1.12532,0.120042 2.16564,0.246044 2.93565,0.352088 0.38494,0.0529 0.70209,0.100975 0.92847,0.140828 0.22663,0.03998 0.3625,0.07197 0.3842,0.0924 0.0198,0.02007 0.10791,0.03768 0.25296,0.054 0.14525,0.01606 0.34828,0.03057 0.60192,0.04279 0.50699,0.02475 1.21528,0.04202 2.06252,0.05271 0.84703,0.01069 1.83309,0.01456 2.89578,0.01265 1.06269,-0.0017 2.20237,-0.009 3.35588,-0.02244 2.3069,-0.02601 4.67067,-0.07298 6.59282,-0.135333 0.96107,-0.0311 1.81214,-0.06593 2.4899,-0.103947 0.67795,-0.038 1.18298,-0.07898 1.45307,-0.122683 2.124,-0.343101 3.85825,-0.632523 5.30102,-0.890121 0.72138,-0.128797 1.37025,-0.249495 1.95841,-0.365281 0.58817,-0.115806 1.11577,-0.226656 1.59535,-0.33504 0.4797,-0.108384 0.91147,-0.214715 1.30719,-0.321286 0.39601,-0.106549 0.75583,-0.21316 1.09263,-0.323484 0.3368,-0.110318 0.65035,-0.224148 0.9527,-0.343826 0.30263,-0.119678 0.59366,-0.245544 0.88645,-0.380134 0.24528,-0.112783 0.47944,-0.229706 0.69245,-0.344388 0.21332,-0.114713 0.40573,-0.22714 0.5672,-0.331181 0.16178,-0.10403 0.29307,-0.199713 0.38343,-0.280569 0.0456,-0.04046 0.082,-0.07717 0.10463,-0.109493 0.0225,-0.03218 0.0372,-0.06005 0.0372,-0.08248 0,-0.03261 -0.019,-0.07005 -0.0584,-0.111113 -0.0394,-0.04116 -0.096,-0.08629 -0.16964,-0.134791 -0.14782,-0.09706 -0.36266,-0.207907 -0.63137,-0.327894 -0.26902,-0.119982 -0.59177,-0.249182 -0.95507,-0.383436 -0.3633,-0.134249 -0.76762,-0.273307 -1.19888,-0.413164 -0.43096,-0.139836 -0.88893,-0.280193 -1.36095,-0.417003 -0.472,-0.136785 -0.95818,-0.269902 -1.44474,-0.395001 -0.48645,-0.125074 -0.97362,-0.242398 -1.44786,-0.347127 -0.47425,-0.10472 -0.93521,-0.197169 -1.37034,-0.27287 -0.67423,-0.117275 -1.35311,-0.226962 -2.03563,-0.329537 -0.68239,-0.10254 -1.36865,-0.197677 -2.05845,-0.285505 -0.68981,-0.08779 -1.3829,-0.168392 -2.07903,-0.241517 -0.69614,-0.07303 -1.39544,-0.139085 -2.09725,-0.197502 -0.70162,-0.05836 -1.40578,-0.109236 -2.11192,-0.152943 -0.70615,-0.04375 -1.41437,-0.08058 -2.12401,-0.10947 -0.70971,-0.02908 -1.42112,-0.05017 -2.13349,-0.06449 -0.71231,-0.01432 -1.42641,-0.02131 -2.14057,-0.02088 z" /><path
         id="path5321"
         style="display:inline;fill:#e83e3b;fill-opacity:1;stroke-width:0.352778"
         d="m 132.77794,89.045211 v 8.935888 8.935891 l 0.83716,0.54829 c 0.0905,0.0593 0.19804,0.11987 0.32143,0.1819 0.12339,0.062 0.26248,0.12553 0.41599,0.18965 0.30702,0.12823 0.67163,0.25994 1.08262,0.39274 0.411,0.1328 0.8687,0.26662 1.36168,0.39894 0.49298,0.13232 1.0211,0.26284 1.57406,0.38964 0.55296,0.1268 1.13041,0.24964 1.72134,0.36587 0.59094,0.11623 1.19556,0.22598 1.80248,0.3266 0.60692,0.10061 1.21656,0.19237 1.81746,0.27233 0.6009,0.08 1.1929,0.14831 1.76578,0.20257 1.21268,0.11486 2.33499,0.23824 3.16622,0.34468 0.41561,0.0532 0.75854,0.10218 1.00355,0.14366 0.24502,0.0415 0.39226,0.0754 0.41652,0.0987 0.0192,0.0185 0.0954,0.0341 0.2222,0.047 0.12685,0.0129 0.3042,0.0233 0.52607,0.031 0.44374,0.0155 1.06505,0.0212 1.81333,0.0181 0.74827,-0.003 1.62349,-0.015 2.57555,-0.0336 0.95206,-0.0186 1.98091,-0.0443 3.03599,-0.0755 2.11016,-0.0624 4.32581,-0.14654 6.24355,-0.24133 0.95886,-0.0474 1.84331,-0.0978 2.60294,-0.14883 0.75962,-0.051 1.39452,-0.10282 1.85415,-0.15451 0.67984,-0.0765 1.35174,-0.16397 2.01021,-0.26045 0.65847,-0.0965 1.30308,-0.20207 1.92753,-0.31523 0.62445,-0.11316 1.22883,-0.23367 1.80661,-0.36018 0.57778,-0.12651 1.12899,-0.2588 1.64745,-0.39533 0.51845,-0.13653 1.00408,-0.27742 1.45055,-0.42064 0.44647,-0.14322 0.85411,-0.28906 1.21595,-0.43564 0.36184,-0.14657 0.67803,-0.29368 0.94258,-0.44028 0.13227,-0.0733 0.2515,-0.14643 0.35708,-0.21911 0.10558,-0.0727 0.19762,-0.14488 0.27492,-0.21652 0.0928,-0.086 0.17511,-0.16908 0.24908,-0.25632 0.074,-0.0872 0.13974,-0.17886 0.19792,-0.28318 0.0582,-0.10433 0.10907,-0.22137 0.15451,-0.35864 0.0454,-0.13726 0.0852,-0.29452 0.12093,-0.48059 0.0358,-0.18606 0.0675,-0.40092 0.0966,-0.65164 0.0291,-0.25072 0.0556,-0.53744 0.0811,-0.86868 0.051,-0.66247 0.0981,-1.5021 0.15297,-2.58175 0.0331,-0.65 0.0612,-1.38109 0.0842,-2.146126 0.023,-0.765035 0.0407,-1.563916 0.0522,-2.34921 0.0115,-0.785294 0.0168,-1.556786 0.0155,-2.267562 -0.001,-0.710776 -0.009,-1.360729 -0.0248,-1.902209 l -0.11317,-3.938261 -1.30483,0.63562 c -0.21559,0.104984 -0.45126,0.20703 -0.70642,0.306441 -0.25516,0.09941 -0.53015,0.196199 -0.82372,0.289905 -0.29357,0.09371 -0.60607,0.184465 -0.93689,0.272335 -0.33083,0.08787 -0.68005,0.172864 -1.04697,0.254764 -0.36691,0.0819 -0.75157,0.160878 -1.15342,0.236678 -0.40184,0.0758 -0.82064,0.148507 -1.25625,0.218075 -0.87123,0.139137 -1.80876,0.26537 -2.8081,0.378788 -0.99933,0.113418 -2.06046,0.214112 -3.17862,0.300757 -1.11815,0.08664 -2.29354,0.159257 -3.52123,0.218075 -1.22768,0.05882 -2.50749,0.103389 -3.83542,0.133325 -1.32793,0.02994 -2.70387,0.04547 -4.12275,0.04547 -1.32195,0 -2.59332,-0.01365 -3.81475,-0.04082 -1.22144,-0.02718 -2.39317,-0.06789 -3.51607,-0.122473 -1.12289,-0.05459 -2.19671,-0.122924 -3.22306,-0.205156 -1.02634,-0.08223 -2.00499,-0.178243 -2.93677,-0.288354 -0.93177,-0.110112 -1.81698,-0.234362 -2.65617,-0.372587 -0.41959,-0.06911 -0.82739,-0.14189 -1.22421,-0.218075 -0.39682,-0.07619 -0.78222,-0.155975 -1.15652,-0.239262 -0.37429,-0.08329 -0.73784,-0.170031 -1.08986,-0.260449 -0.35201,-0.09042 -0.69268,-0.184575 -1.02267,-0.282153 -0.32999,-0.09758 -0.64884,-0.198573 -0.95705,-0.303341 -0.30821,-0.104768 -0.60578,-0.213057 -0.89245,-0.325045 z" /><path
         style="display:inline;fill:#000000;stroke-width:0.352778"
         d="m 147.0656,223.3739 c -2.13431,-0.16169 -5.70618,-0.55071 -7.9375,-0.86449 -12.5247,-1.76127 -19.30786,-4.63154 -20.52195,-8.68379 -0.47346,-1.58029 -0.4052,-2.81503 1.46912,-26.57079 0.58173,-7.37305 1.38335,-17.53305 1.78137,-22.57777 0.39803,-5.04473 1.18807,-15.04598 1.75565,-22.225 0.62278,-7.87717 1.25161,-13.78866 1.58591,-14.90866 0.41464,-1.3892 1.17311,-2.54241 3.01628,-4.58611 3.04759,-3.37913 5.06976,-6.67062 5.77918,-9.40678 0.2981,-1.14974 0.47811,-2.15431 0.40004,-2.23239 -0.0781,-0.0781 -0.83072,-0.51015 -1.67253,-0.96016 -2.96801,-1.58662 -2.91775,-1.38037 -3.12466,-12.821442 -0.23655,-13.079582 -0.0676,-13.7708 3.81465,-15.606846 2.00231,-0.946962 6.23998,-1.982745 10.91767,-2.668531 2.64006,-0.387054 6.47931,-0.560014 12.61455,-0.568279 8.66011,-0.01168 12.18841,0.260554 17.4625,1.347328 6.18553,1.274587 8.39735,2.47305 9.71863,5.266002 0.85399,1.805189 0.8647,1.950879 0.8647,11.759054 v 9.931214 l -1.32292,1.36489 c -0.7276,0.75069 -1.83885,1.65836 -2.46944,2.01705 -1.36531,0.77662 -1.43626,1.46309 -0.42938,4.15423 0.96536,2.58016 3.13782,5.87165 5.80223,8.79098 1.24689,1.36617 2.36801,2.97527 2.58766,3.71396 0.64486,2.16868 1.02071,6.30405 3.77356,41.52004 1.45605,18.62667 2.8132,35.96172 3.01589,38.52234 0.43841,5.53866 0.18308,6.86617 -1.7051,8.86511 -1.47749,1.56415 -3.59811,2.70613 -7.48861,4.03268 -8.71233,2.97067 -25.89524,4.44105 -39.6875,3.39616 z m 24.69444,-3.08202 c 6.19664,-0.84349 8.33899,-1.22318 11.46528,-2.03202 1.84326,-0.47689 3.66889,-1.01163 4.05695,-1.18832 0.38805,-0.17668 1.42714,-0.63658 2.30908,-1.022 0.88195,-0.38542 2.05274,-1.14815 2.60178,-1.69496 0.99425,-0.99023 0.99746,-1.00826 0.80479,-4.52197 -0.10639,-1.94028 -0.60392,-8.68715 -1.10562,-14.99305 -0.92346,-11.60721 -4.10767,-52.33698 -4.82646,-61.73611 -0.42735,-5.58817 -0.66311,-6.26096 -2.96697,-8.46667 -2.61486,-2.50347 -5.82158,-8.19081 -6.33318,-11.23233 -0.22909,-1.36193 -0.34114,-1.50434 -1.01492,-1.28994 -0.41656,0.13256 -1.19396,0.32356 -1.72753,0.42446 -1.26625,0.23944 -1.2564,0.92763 0.0714,4.99083 1.11857,3.42296 2.06458,5.13241 4.49768,8.12731 2.39884,2.95274 3.18522,4.56123 3.78153,7.73492 0.43743,2.32811 2.85149,31.61701 5.433,65.91685 0.60708,8.06615 -0.0154,9.09119 -6.99263,11.51413 -2.47781,0.86046 -4.46581,1.30066 -9.17222,2.03102 -12.46273,1.93402 -32.48434,0.85084 -40.04028,-2.16618 -0.38806,-0.15495 -1.08643,-0.3893 -1.55194,-0.52077 -1.49983,-0.42359 -3.77177,-1.9879 -4.5265,-3.11667 -1.06149,-1.58755 -1.23968,-3.39821 -0.82174,-8.34978 0.20382,-2.41463 1.32424,-17.01087 2.48984,-32.43607 1.1656,-15.42521 2.34174,-29.55396 2.61365,-31.39723 0.63283,-4.28984 1.36941,-5.93997 4.20841,-9.42787 1.2691,-1.55917 2.62392,-3.52855 3.0107,-4.37641 1.00788,-2.20929 2.57218,-7.4103 2.37967,-7.91196 -0.0897,-0.23388 -0.69131,-0.498 -1.3368,-0.58693 -0.64549,-0.0889 -1.40262,-0.22679 -1.6825,-0.30635 -0.36597,-0.10402 -0.58013,0.30117 -0.76259,1.44286 -0.49025,3.06756 -2.90176,7.32149 -6.19957,10.93611 -0.97362,1.06715 -1.94962,2.28047 -2.16888,2.69627 -0.43948,0.8334 -0.74914,4.41044 -4.11845,47.57456 -1.27221,16.29833 -2.44695,31.30021 -2.61051,33.3375 -0.16357,2.03729 -0.25168,3.86292 -0.19581,4.05695 0.0559,0.19402 0.1915,0.76644 0.3014,1.27203 0.30217,1.39025 3.49006,3.20863 7.40664,4.22478 0.60255,0.15633 1.73054,0.45938 2.50665,0.67345 1.99111,0.54919 7.11418,1.34398 11.46527,1.77871 2.0373,0.20356 3.86292,0.43824 4.05695,0.52152 0.65014,0.27904 22.19398,-0.1403 24.69444,-0.48067 z m -5.11527,-8.52643 c 8.54347,-0.74796 15.0341,-2.15426 17.7825,-3.85286 2.27498,-1.40602 2.27126,0.15683 0.0682,-28.66439 -2.46526,-32.25198 -2.3352,-30.85964 -2.82365,-30.22974 -4.60602,5.94003 -40.39076,6.52978 -48.08308,0.79242 l -1.1296,-0.84251 -0.18292,1.15156 c -0.53312,3.35603 -4.14513,53.98599 -3.93236,55.12017 0.13597,0.72477 0.62557,1.66842 1.08801,2.09699 1.88734,1.74912 9.76695,3.63985 18.33924,4.40053 4.47493,0.39709 14.48717,0.41186 18.87362,0.0278 z m 6.70277,-52.90923 c 0,-0.19402 0.15875,-0.35277 0.35278,-0.35277 0.19403,0 0.35278,0.15875 0.35278,0.35277 0,0.19403 -0.15875,0.35278 -0.35278,0.35278 -0.19403,0 -0.35278,-0.15875 -0.35278,-0.35278 z m -4.7625,-6.72493 c 8.84058,-1.50179 12.70513,-3.01554 12.05092,-4.72038 -0.34323,-0.89445 -2.23927,-1.84011 -4.93199,-2.45985 -1.39305,-0.32061 -3.16782,-0.73568 -3.94393,-0.92236 -4.04434,-0.9728 -16.37128,-1.32454 -23.98889,-0.68451 -7.89525,0.66336 -14.2875,2.63242 -14.2875,4.40112 0,1.86592 7.37926,4.0071 16.40417,4.75988 4.25825,0.35518 15.7592,0.12519 18.69722,-0.3739 z m -35.4538,-6.23965 c 7e-4,-0.44148 3.22816,-2.07628 5.2913,-2.68011 2.98745,-0.87435 7.72252,-1.54729 14.11111,-2.00545 4.94939,-0.35495 6.69228,-0.33227 11.64167,0.15154 7.21856,0.70562 9.95962,1.12587 11.99445,1.83895 2.08621,0.73109 5.0478,2.241 5.37446,2.74006 0.38546,0.58893 0.30861,-1.78424 -0.25565,-7.8943 -0.57947,-6.27472 -0.94025,-7.80637 -2.24304,-9.52274 -2.06062,-2.71477 -2.5379,-3.43121 -3.53499,-5.30635 -1.15691,-2.17569 -2.34917,-5.97163 -2.69617,-8.58407 l -0.22811,-1.71733 -1.29506,0.23671 c -6.22138,1.13713 -24.53284,1.13678 -28.51209,-7.1e-4 -0.64324,-0.18385 -0.79326,-0.0375 -0.98582,0.96166 -1.20455,6.25008 -2.25245,8.81137 -5.27523,12.89376 -2.30026,3.10661 -2.85662,5.07225 -3.37692,11.93084 -0.20566,2.7109 -0.44087,5.44484 -0.5227,6.07543 -0.0818,0.63059 0,1.14653 0.18183,1.14653 0.18183,0 0.33076,-0.11906 0.33096,-0.26458 z m 35.80658,-35.67675 c 5.4387,-0.61168 10.39615,-1.9172 11.63302,-3.06349 0.74239,-0.68803 0.83342,-1.16177 1.05309,-5.4804 0.13224,-2.600005 0.18947,-6.499398 0.12717,-8.665323 l -0.11328,-3.938048 -1.30483,0.63542 c -3.44939,1.679751 -12.03854,2.654564 -23.38961,2.654564 -10.57566,0 -17.90283,-0.865882 -22.48959,-2.657683 l -1.67569,-0.654604 v 8.93571 8.935704 l 0.83701,0.54843 c 1.44828,0.94895 7.27995,2.2862 11.86299,2.72028 2.42535,0.22971 4.4891,0.494 4.58611,0.5873 0.30754,0.29578 15.19658,-0.14431 18.87361,-0.55786 z m -4.93889,-20.497092 c 4.58863,-0.351811 7.96626,-0.848028 11.1125,-1.632563 2.55405,-0.63687 5.99722,-2.089958 5.99722,-2.530945 0,-0.157338 -0.91281,-0.68883 -2.02847,-1.181096 -1.8522,-0.817256 -4.57443,-1.411683 -11.10819,-2.425598 -3.13507,-0.486505 -19.126,-0.477026 -22.49389,0.01333 -4.17873,0.608415 -8.5445,1.455699 -9.51586,1.846792 -3.54428,1.427014 -3.8291,1.666452 -2.91124,2.447428 3.10053,2.638135 18.79655,4.394309 30.94793,3.462654 z"
         id="path5590"
         transform="translate(-1.3320648e-6)"
         sodipodi:nodetypes="ssssssscsssssssssscssssssssssssssssssssssssssssssssssscccsssssscsssssssssccscssssssssssssssssssscssssssssscsccsscsccsssscssscccssssssssssssss" /></g><g
       id="g5602"
       transform="matrix(0.60995528,0,0,0.60995528,-3.8794084,-23.359274)"><path
         style="display:inline;fill:#ffffff;stroke-width:0.352778"
         d="m 98.205878,241.39962 c -2.40114,-0.32047 -6.064081,-1.58281 -7.9375,-2.73546 -1.969615,-1.21184 -4.711344,-4.14929 -6.173611,-6.61432 -1.179693,-1.98868 -1.234722,-2.23165 -1.234722,-5.45158 0,-2.59049 0.863476,-6.12342 0.863476,-6.12342 l 11.665021,-10.77405 0.967697,-0.66625 c 1.77228,-1.2202 3.303566,-1.61006 6.398361,-1.62904 3.03659,-0.0186 3.09356,-0.003 5.93495,1.66313 3.70245,2.1706 6.03754,4.82078 8.65452,9.82236 1.92719,3.68323 2.02847,4.0047 2.02847,6.43802 0,4.55589 -2.24817,9.19172 -5.71002,11.77432 -2.38376,1.77832 -3.34226,2.24998 -6.81359,3.3528 -3.23353,1.02728 -5.86388,1.31441 -8.643052,0.94349 z"
         id="path312"
         sodipodi:nodetypes="ssssccsscsssss"
         transform="translate(-1.3320648e-6)" /><path
         id="path1103"
         style="display:inline;fill:#feeedf;fill-opacity:1;stroke-width:0.352778"
         d="m 16.07995,149.92113 c -0.142326,0.003 -0.282471,0.009 -0.420219,0.0195 -0.275495,0.0213 -0.541843,0.0587 -0.797231,0.11098 -0.255389,0.0523 -0.500127,0.12018 -0.73369,0.20249 -0.233564,0.0823 -0.455891,0.17916 -0.665912,0.29059 -0.21002,0.11143 -0.407446,0.23737 -0.592205,0.37701 -0.184759,0.13964 -0.35648,0.2931 -0.51426,0.46004 -0.157779,0.16694 -0.302152,0.3472 -0.431234,0.54053 -0.129081,0.19332 -0.242762,0.39966 -0.341428,0.61847 -0.136532,0.30277 -0.241344,0.5895 -0.310081,0.86839 -0.03437,0.13945 -0.05969,0.27733 -0.0754,0.41344 -0.01571,0.13612 -0.02189,0.27044 -0.01779,0.40497 0.0041,0.13454 0.01817,0.26941 0.04321,0.40413 0.02504,0.13471 0.06047,0.27001 0.107596,0.40666 0.04712,0.13665 0.105874,0.27479 0.176222,0.41514 0.07035,0.14034 0.152671,0.28289 0.247387,0.42869 0.189431,0.29159 0.428927,0.5953 0.722676,0.91923 0.293749,0.32393 0.641656,0.66751 1.048854,1.03784 0.407197,0.37033 0.873215,0.76803 1.402991,1.19881 0.529775,0.43078 1.1236,0.89516 1.785086,1.40045 2.367109,1.80816 2.895773,2.22099 3.627782,2.83309 0.235803,0.19717 1.857813,1.45939 3.60406,2.80514 1.746247,1.34575 3.254575,2.53791 3.351589,2.64924 0.09701,0.11132 0.890782,0.75204 1.763905,1.42333 0.873124,0.67129 1.766268,1.38154 1.985029,1.57836 0.218761,0.19682 0.753892,0.59599 1.189493,0.88704 0.435602,0.29104 0.970732,0.69157 1.189492,0.89042 0.271604,0.24688 1.2347,1.0333 2.582316,2.1155 1.347617,1.0822 3.079988,2.46064 4.889288,3.89212 3.618601,2.86295 7.545963,5.93802 9.325315,7.28183 2.23402,1.68717 4.220818,3.2021 4.414846,3.36599 0.194028,0.16388 2.178449,1.6372 4.409763,3.27449 2.231316,1.63729 4.25021,3.13902 4.486013,3.33719 0.33187,0.27891 0.624939,0.51496 1.120021,0.89212 0.495081,0.37716 1.191729,0.89541 2.33154,1.73764 1.164062,0.86015 2.196404,1.65821 2.293416,1.77322 0.09701,0.115 0.890782,0.75916 1.763905,1.4318 0.436562,0.33632 0.846557,0.67201 1.155604,0.9421 0.309047,0.2701 0.516658,0.47467 0.548996,0.54815 0.03234,0.0735 0.10002,0.1405 0.182999,0.18893 0.08298,0.0484 0.181783,0.0788 0.275345,0.0788 0.04678,0 0.113047,0.0223 0.193166,0.0627 0.08012,0.0404 0.174105,0.0982 0.275345,0.17029 0.20248,0.14411 0.434471,0.34304 0.648121,0.5617 0.213648,0.21866 0.725234,0.67492 1.377574,1.2344 0.652341,0.55948 1.445293,1.2218 2.221403,1.85201 1.827225,1.48373 2.88224,2.34421 3.697254,3.0305 0.815013,0.68628 1.390458,1.19847 2.260374,1.98587 0.39906,0.36121 0.790357,0.69132 1.099687,0.93109 0.30933,0.23978 0.536337,0.38967 0.606607,0.39227 0.05593,0.002 0.118534,0.0356 0.185541,0.0949 0.06701,0.0593 0.13888,0.14447 0.211804,0.24909 0.145846,0.20924 0.297785,0.49667 0.436317,0.81587 0.138531,0.31919 0.263372,0.66997 0.353289,1.00395 0.04496,0.16699 0.08169,0.33007 0.106749,0.48291 0.02506,0.15285 0.03813,0.29511 0.03813,0.42192 v 0.97853 l 0.579496,-0.87263 c 0.159341,-0.23987 0.586802,-0.74784 1.146285,-1.37249 0.559482,-0.62466 1.251444,-1.36611 1.940973,-2.07399 l 2.506914,-2.57384 -1.59785,-1.48263 c -2.099177,-1.94731 -3.7188,-3.42092 -4.843538,-4.40723 -0.56237,-0.49315 -1.000685,-0.86423 -1.314034,-1.11239 -0.313348,-0.24816 -0.501831,-0.37278 -0.562552,-0.37278 -0.07321,0 -0.152404,-0.0316 -0.22197,-0.0813 -0.06956,-0.0497 -0.12948,-0.11774 -0.161819,-0.19316 -0.03234,-0.0754 -0.419031,-0.44086 -1.015813,-0.96837 -0.596781,-0.52752 -1.403348,-1.21689 -2.276471,-1.94182 -1.746247,-1.44989 -3.347705,-2.79496 -3.55831,-2.98899 -0.210608,-0.194 -1.069661,-0.90858 -1.909627,-1.58768 -0.839965,-0.67909 -1.699866,-1.39459 -1.910474,-1.58938 -0.210604,-0.19479 -2.208099,-1.93981 -4.439415,-3.87856 -2.231314,-1.93873 -4.232453,-3.68461 -4.447041,-3.8794 -3.546598,-3.2194 -6.491583,-5.8559 -7.487701,-6.70403 -0.68364,-0.58209 -1.572262,-1.37585 -1.974863,-1.7639 -0.402603,-0.38806 -1.287622,-1.1611 -1.96639,-1.71731 -0.678771,-0.55621 -2.186577,-1.84862 -3.350742,-2.87291 -1.164165,-1.02429 -3.545469,-3.09293 -5.291716,-4.59615 -1.746246,-1.50324 -4.048344,-3.48696 -5.115494,-4.40892 -0.803445,-0.69413 -3.095947,-2.56332 -5.342549,-4.37079 -2.246603,-1.80748 -4.447405,-3.55338 -5.064662,-4.00225 -0.194133,-0.14118 -1.225523,-0.90367 -2.292568,-1.69444 -0.582158,-0.43143 -1.242522,-0.89939 -1.911321,-1.35808 -0.668799,-0.4587 -1.345709,-0.90871 -1.961307,-1.30472 -0.615599,-0.39601 -1.17021,-0.73771 -1.592767,-0.98108 -0.211279,-0.12168 -0.389324,-0.21886 -0.526122,-0.28551 -0.136798,-0.0667 -0.232203,-0.10298 -0.27704,-0.10336 -0.07088,-5e-4 -0.253985,-0.0632 -0.492233,-0.16351 -0.238248,-0.10029 -0.532045,-0.2382 -0.822647,-0.38972 -0.145301,-0.0758 -0.334282,-0.14946 -0.551538,-0.21858 -0.217256,-0.0691 -0.462069,-0.13318 -0.720135,-0.18893 -0.258065,-0.0558 -0.528655,-0.10329 -0.796383,-0.13895 -0.267729,-0.0357 -0.533194,-0.0598 -0.77944,-0.0686 -0.146942,-0.005 -0.291449,-0.006 -0.433775,-0.003 z m 69.580217,78.33197 c -0.01986,0.007 -0.03085,0.0303 -0.03389,0.0669 -0.0061,0.0733 0.0195,0.20356 0.06862,0.38633 0.04349,0.16181 0.102777,0.33841 0.176222,0.52612 0.07345,0.18771 0.160859,0.38621 0.260095,0.59305 0.198471,0.41369 0.444324,0.85933 0.720982,1.30895 0.276657,0.44962 0.584132,0.90378 0.905674,1.33521 0.321542,0.43144 0.657271,0.83969 0.990397,1.19882 0.261107,0.28148 0.533109,0.55265 0.814175,0.81248 0.281065,0.25983 0.570864,0.50868 0.870091,0.74639 0.299228,0.23772 0.607871,0.46434 0.923467,0.67947 0.315596,0.21513 0.638199,0.41876 0.968368,0.61085 0.33017,0.19208 0.667781,0.37278 1.01073,0.54137 0.342948,0.16858 0.691534,0.32473 1.045465,0.46936 0.353933,0.14462 0.712845,0.27715 1.075966,0.39734 0.363121,0.12019 0.730866,0.22833 1.101382,0.32364 0.370515,0.0953 0.743904,0.17828 1.12002,0.24823 0.376115,0.07 0.754504,0.127 1.134423,0.17114 0.37992,0.0441 0.761812,0.0753 1.143743,0.0932 0.381933,0.0179 0.764153,0.0224 1.146293,0.0136 0.38215,-0.009 0.76403,-0.0317 1.14459,-0.0678 0.38057,-0.0361 0.75977,-0.0854 1.13696,-0.14911 0.37719,-0.0637 0.75223,-0.14114 1.12426,-0.23298 0.37202,-0.0918 0.74057,-0.19814 1.10562,-0.31856 0.63048,-0.20797 1.27962,-0.45246 1.92148,-0.72098 0.64187,-0.26851 1.27679,-0.56118 1.87828,-0.86416 0.60149,-0.30298 1.16982,-0.61632 1.67919,-0.9277 0.50937,-0.31139 0.95954,-0.62043 1.32504,-0.91415 0.16231,-0.13043 0.34567,-0.30317 0.54137,-0.50579 0.19571,-0.20261 0.40449,-0.43526 0.61678,-0.68624 0.42458,-0.50197 0.86549,-1.07747 1.25557,-1.63005 0.39008,-0.55257 0.72863,-1.08264 0.94973,-1.49534 0.11055,-0.20634 0.19158,-0.38283 0.23468,-0.51849 0.0216,-0.0678 0.034,-0.12544 0.0356,-0.17114 0.002,-0.0457 -0.007,-0.0794 -0.028,-0.1 -0.022,-0.022 -0.0858,-0.003 -0.18131,0.0525 -0.0956,0.055 -0.22357,0.14562 -0.37447,0.26348 -0.30179,0.23573 -0.696,0.58278 -1.10985,0.98447 -0.41385,0.40168 -0.81366,0.76631 -1.1251,1.03106 -0.31143,0.26475 -0.53439,0.42954 -0.59306,0.42954 -0.0587,0 -0.21737,0.0902 -0.42615,0.23637 -0.20877,0.14617 -0.46711,0.3484 -0.72521,0.57018 -0.12904,0.11089 -0.32396,0.24511 -0.56594,0.39311 -0.24197,0.14799 -0.53138,0.30927 -0.84807,0.47444 -0.31669,0.16517 -0.66095,0.33405 -1.01412,0.49647 -0.35317,0.16241 -0.7152,0.31862 -1.06664,0.45834 -0.55958,0.22247 -1.02816,0.39742 -1.46654,0.5346 -0.43836,0.13717 -0.8462,0.23642 -1.28607,0.30838 -0.43988,0.072 -0.91178,0.11637 -1.47585,0.14318 -0.56407,0.0268 -1.22066,0.0364 -2.03163,0.0381 -0.75087,0.001 -1.3849,-0.007 -1.94267,-0.0314 -0.55777,-0.024 -1.039442,-0.0632 -1.485171,-0.12369 -0.44573,-0.0605 -0.855231,-0.14263 -1.269978,-0.25078 -0.414747,-0.10815 -0.834809,-0.2424 -1.299631,-0.40921 -0.487902,-0.17509 -0.961154,-0.35865 -1.420782,-0.54984 -0.459628,-0.19119 -0.905607,-0.39002 -1.336908,-0.59729 -0.431301,-0.20726 -0.848418,-0.42312 -1.251339,-0.64642 -0.402922,-0.2233 -0.79128,-0.45457 -1.165771,-0.69387 -0.374489,-0.23931 -0.735042,-0.48605 -1.081048,-0.74132 -0.346007,-0.25527 -0.677163,-0.5184 -0.994633,-0.7896 -0.317469,-0.27122 -0.62103,-0.55079 -0.90991,-0.8379 -0.288881,-0.28712 -0.563255,-0.58236 -0.823495,-0.88534 -0.268196,-0.31225 -0.480835,-0.55268 -0.645579,-0.72692 -0.164743,-0.17423 -0.281848,-0.28214 -0.35922,-0.32787 -0.03869,-0.0229 -0.0674,-0.0303 -0.08726,-0.0229 z"
         transform="translate(-1.3320648e-6)" /><path
         style="display:inline;fill:#6c6d6d;fill-opacity:1;stroke-width:0.352778"
         d="m 100.88337,231.66012 c -0.25194,-0.65654 0.35552,-1.54279 1.05746,-1.54279 0.56977,0 1.17116,1.06025 0.95048,1.6757 -0.22991,0.64119 -1.74949,0.54061 -2.00794,-0.13291 z m -6.487492,-1.26056 c -0.972101,-0.97211 -0.115486,-2.31196 1.164166,-1.82091 0.700924,0.26897 0.679757,1.75819 -0.02886,2.03011 -0.710477,0.27263 -0.640598,0.28551 -1.135313,-0.2092 z m 10.160002,-0.28223 c 0,-0.19402 0.15875,-0.35277 0.35278,-0.35277 0.19402,0 0.35277,0.15875 0.35277,0.35277 0,0.19403 -0.15875,0.35278 -0.35277,0.35278 -0.19403,0 -0.35278,-0.15875 -0.35278,-0.35278 z m 0.7196,-0.51223 c -0.64794,-0.78073 -0.116,-1.95721 0.88495,-1.95721 0.60872,0 0.91312,0.24571 1.06777,0.86189 0.11898,0.47405 0.11263,1.02967 -0.0141,1.23472 -0.33251,0.53801 -1.44267,0.45818 -1.93862,-0.1394 z m -5.570297,-1.13252 c -0.242534,-0.0979 -0.440972,-0.56158 -0.440972,-1.03048 0,-0.70773 0.175729,-0.85254 1.034559,-0.85254 0.72318,0 1.10166,0.2114 1.25749,0.70239 0.38278,1.20602 -0.45847,1.74257 -1.851077,1.18063 z m -9.459834,-0.9743 c -0.852439,-0.62331 -0.409085,-1.69963 0.638813,-1.55083 0.494986,0.0703 0.835674,0.39573 0.902173,0.86179 0.131847,0.92405 -0.706773,1.29904 -1.540986,0.68904 z m 19.249421,-1.79067 c 0,-0.76371 0.14263,-0.91076 0.79375,-0.81828 0.52099,0.074 0.79375,0.35518 0.79375,0.81828 0,0.4631 -0.27276,0.74429 -0.79375,0.81829 -0.65112,0.0925 -0.79375,-0.0546 -0.79375,-0.81829 z m -14.523321,-2.459 c -0.461102,-1.012 0.07941,-1.95072 1.123216,-1.95072 1.075288,0 1.497171,2.22347 0.494859,2.60809 -0.935616,0.35903 -1.204803,0.24967 -1.618075,-0.65737 z m 9.365711,0.006 c -0.27355,-0.71286 0.13327,-1.25163 0.94509,-1.25163 0.4952,0 0.68474,0.24413 0.68474,0.88195 0,0.6513 -0.18741,0.88194 -0.71663,0.88194 -0.39415,0 -0.80509,-0.23052 -0.9132,-0.51227 z m 7.86224,-0.78125 c -0.12936,-0.12936 -0.23519,-0.52623 -0.23519,-0.88195 0,-0.81484 1.34315,-0.88158 1.64998,-0.082 0.2891,0.75339 -0.84955,1.52918 -1.41479,0.96393 z"
         id="path5595"
         sodipodi:nodetypes="ssssssssssssssssssssssssssssssssssssssssssssssss"
         transform="translate(-1.3320648e-6)" /><path
         style="display:inline;fill:#000000;stroke-width:0.352778"
         d="m 96.40469,240.7431 c -6.276802,-1.61884 -11.310775,-5.92 -13.006455,-11.11306 -0.62473,-1.91326 -0.298943,-6.20011 0.706149,-9.29181 l 0.828064,-2.54716 -0.859814,-0.73741 c -0.472895,-0.40558 -1.182734,-1.00561 -1.577422,-1.3334 -0.640633,-0.53206 -3.734128,-3.12569 -5.629359,-4.71974 -0.389724,-0.32779 -1.073443,-0.90869 -1.519375,-1.29088 -0.445936,-0.3822 -1.477811,-1.22525 -2.293056,-1.87347 -0.815248,-0.64821 -2.014078,-1.6945 -2.664072,-2.32509 -0.649993,-0.63059 -1.284993,-1.14672 -1.411111,-1.14695 -0.126118,-2.4e-4 -0.651086,-0.35743 -1.166597,-0.79375 -0.515511,-0.43633 -1.280516,-1.03145 -1.700015,-1.32249 -0.419502,-0.29104 -1.108971,-0.79814 -1.532156,-1.12688 -1.603414,-1.24557 -7.629126,-5.77473 -8.35702,-6.28145 -0.418066,-0.29105 -3.326888,-2.48814 -6.464042,-4.88244 -3.137157,-2.3943 -6.154194,-4.69618 -6.704527,-5.11528 -0.550334,-0.4191 -1.185334,-0.92499 -1.411112,-1.12419 -0.225777,-0.19919 -2.871127,-2.31341 -5.878558,-4.69824 -3.00743,-2.38484 -5.786081,-4.60311 -6.174782,-4.92949 -0.388701,-0.32638 -1.420576,-1.14676 -2.293056,-1.82307 -0.872479,-0.67631 -1.765314,-1.39068 -1.984075,-1.5875 -0.218761,-0.19682 -0.747042,-0.59597 -1.173959,-0.88702 -0.426914,-0.29104 -1.200429,-0.8736 -1.718921,-1.29459 -2.583663,-2.09778 -8.796597,-6.96702 -9.919696,-7.77432 -3.0037317,-2.15912 -4.618342,-5.54725 -3.9053566,-8.19507 0.8792323,-3.26522 3.7218166,-5.38194 7.2379016,-5.38966 2.661659,-0.006 5.307037,0.85628 8.274629,2.69671 2.522922,1.56465 2.93159,1.85185 6.984188,4.90835 4.350463,3.28115 4.983625,3.77736 6.966183,5.4594 0.388055,0.32923 2.134305,1.78658 3.880555,3.23855 1.74625,1.45198 3.413125,2.87955 3.704167,3.17238 0.291041,0.29283 1.640416,1.48415 2.998611,2.64737 1.358194,1.16322 2.643798,2.27447 2.856897,2.46944 0.213098,0.19498 1.244973,1.09283 2.293055,1.99524 3.733835,3.21486 7.286113,6.33461 8.776511,7.70787 0.526444,0.48507 2.119108,1.91382 3.539247,3.175 1.420142,1.26118 2.75445,2.45258 2.965129,2.64756 0.210675,0.19497 1.494299,1.30622 2.852494,2.46944 1.358194,1.16322 2.548819,2.20123 2.645833,2.30668 0.09701,0.10546 1.605139,1.37412 3.351389,2.81925 3.572217,2.95624 4.679283,3.88427 5.250399,4.4013 0.578026,0.52328 4.491767,3.78948 5.279245,4.40577 0.37188,0.29104 1.181184,1.00542 1.798447,1.5875 0.617262,0.58208 1.997576,1.87831 3.067364,2.8805 l 1.945068,1.82216 2.152837,-1.06705 c 2.779684,-1.37773 5.929844,-1.68448 8.507254,-0.82841 3.40159,1.12983 7.51594,4.58983 9.45648,7.95252 0.50387,0.87313 1.47468,2.54 2.15737,3.70417 1.07477,1.83277 1.26318,2.50149 1.40477,4.98578 0.18979,3.33 -0.37761,5.50417 -2.25339,8.63463 -1.88492,3.1457 -4.94901,5.34717 -9.31416,6.69199 -4.92815,1.51827 -7.27627,1.67247 -10.96815,0.72031 z m 9.20952,-2.73608 c 2.52196,-0.83191 5.34193,-2.25239 6.80392,-3.42727 1.29846,-1.04348 3.93454,-4.77766 3.60519,-5.10701 -0.088,-0.088 -0.8373,0.49722 -1.665,1.30059 -0.8277,0.80337 -1.60091,1.46067 -1.71825,1.46067 -0.11734,0 -0.63568,0.36291 -1.15187,0.80646 -0.51619,0.44355 -2.0887,1.26372 -3.49446,1.8226 -2.23831,0.88988 -3.01622,1.01714 -6.26008,1.02407 -3.003473,0.006 -4.137936,-0.14773 -5.997227,-0.81496 -3.903228,-1.40072 -6.902506,-3.31729 -8.984428,-5.74116 -1.072783,-1.24899 -1.25362,-1.35586 -1.057126,-0.62479 0.347937,1.29454 1.72098,3.526 3.053485,4.9625 4.177722,4.50377 11.024912,6.26504 16.865846,4.3383 z m 1.94028,-5.21499 c 2.97539,-1.22333 4.87949,-2.71313 7.20061,-5.63387 0.94301,-1.18664 1.04388,-1.53292 0.86918,-2.98399 -0.6264,-5.20279 -3.00148,-9.12457 -7.44778,-12.29795 l -2.36906,-1.69083 h -3.03989 c -3.684127,0 -4.165252,0.19634 -7.560283,3.0852 -3.295767,2.8044 -5.726035,5.41688 -6.829912,7.34199 -0.926574,1.6159 -1.101492,2.2896 -1.104279,4.25318 -0.0028,2.07664 0.103346,2.44003 0.96683,3.30538 2.425072,2.43031 5.946044,4.19816 10.495138,5.26951 1.509326,0.35546 7.437756,-0.0805 8.819446,-0.64862 z m -16.971276,-18.478 2.507386,-2.57414 -1.598454,-1.48281 c -4.198362,-3.89461 -6.476703,-5.89252 -6.719587,-5.89252 -0.146421,0 -0.319134,-0.12342 -0.383812,-0.27426 -0.06467,-0.15083 -1.546341,-1.46052 -3.292591,-2.91041 -1.74625,-1.44989 -3.347314,-2.79492 -3.557919,-2.98895 -0.210609,-0.19402 -1.070169,-0.9084 -1.910137,-1.5875 -0.839967,-0.67909 -1.699528,-1.39409 -1.910136,-1.58888 -0.210605,-0.19479 -2.208544,-1.94042 -4.439864,-3.87917 -2.231319,-1.93875 -4.232514,-3.68438 -4.447102,-3.87917 -3.546605,-3.2194 -6.491242,-5.85603 -7.487362,-6.70416 -0.683641,-0.58209 -1.572391,-1.37584 -1.974992,-1.76389 -0.402604,-0.38806 -1.287367,-1.16063 -1.966136,-1.71684 -0.678773,-0.55621 -2.186629,-1.84933 -3.350796,-2.87362 -1.164167,-1.02429 -3.545417,-3.09226 -5.291667,-4.5955 -1.74625,-1.50324 -4.048125,-3.48749 -5.115277,-4.40945 -1.606892,-1.38827 -9.172617,-7.47517 -10.407132,-8.37291 -0.194133,-0.14118 -1.226008,-0.90368 -2.293055,-1.69445 -2.328637,-1.72572 -5.909772,-4.02944 -6.268469,-4.03246 -0.141754,-0.001 -0.733267,-0.25012 -1.314472,-0.55317 -0.581208,-0.30306 -1.862638,-0.57989 -2.847625,-0.61519 -2.351076,-0.0843 -4.141204,0.86549 -4.930535,2.61592 -1.092255,2.42219 -0.161162,3.85541 5.130733,7.89771 2.367114,1.80816 2.896203,2.22136 3.628213,2.83346 0.235804,0.19717 1.857481,1.45956 3.603731,2.80531 1.74625,1.34575 3.254375,2.5379 3.351389,2.64923 0.09701,0.11132 0.890764,0.75165 1.763889,1.42294 0.873125,0.67129 1.766485,1.38157 1.985246,1.57839 0.218761,0.19682 0.754151,0.59597 1.189753,0.88702 0.435603,0.29104 0.970993,0.69185 1.189754,0.8907 1.086415,0.9875 13.238282,10.60179 16.796992,13.2894 2.234025,1.68719 4.220615,3.20169 4.414643,3.36558 0.194028,0.16388 2.178403,1.63756 4.409722,3.27485 2.23132,1.63729 4.249872,3.13903 4.485675,3.3372 0.663741,0.55783 1.172387,0.94533 3.452012,2.62978 1.164064,0.86015 2.195855,1.658 2.292868,1.77301 0.09701,0.115 0.890764,0.75944 1.763889,1.43208 0.873125,0.67264 1.640417,1.34322 1.705092,1.49019 0.06468,0.14696 0.270693,0.26721 0.457817,0.26721 0.187124,0 0.689832,0.3578 1.117131,0.79513 0.427298,0.43731 2.046905,1.82637 3.599127,3.0868 3.654457,2.96746 4.21737,3.44146 5.957206,5.01627 0.798121,0.72242 1.566111,1.31773 1.706651,1.32292 0.447439,0.0165 1.331976,2.05459 1.331976,3.06902 v 0.97796 l 0.57942,-0.87225 c 0.318682,-0.47973 1.707744,-2.03061 3.086805,-3.44638 z"
         id="path300"
         transform="translate(-1.3320648e-6)"
         sodipodi:nodetypes="ssscssssssssssssssssssscsscsssssssssssssssssscssssssssssssssscssssscssscssscsscscssssssssssssssssscscsssssssscsssssssssssssscss" /></g></g></svg>
