<?xml version="1.0" encoding="UTF-8" standalone="no"?>
<!-- Created with Inkscape (http://www.inkscape.org/) -->

<svg
   id="svg2"
   sodipodi:docname="sandals.svg"
   viewBox="0 0 332.59842 472.44094"
   version="1.1"
   inkscape:version="1.2.2 (732a01da63, 2022-12-09)"
   width="88mm"
   height="125mm"
   xmlns:inkscape="http://www.inkscape.org/namespaces/inkscape"
   xmlns:sodipodi="http://sodipodi.sourceforge.net/DTD/sodipodi-0.dtd"
   xmlns:xlink="http://www.w3.org/1999/xlink"
   xmlns="http://www.w3.org/2000/svg"
   xmlns:svg="http://www.w3.org/2000/svg"
   xmlns:rdf="http://www.w3.org/1999/02/22-rdf-syntax-ns#"
   xmlns:cc="http://creativecommons.org/ns#"
   xmlns:dc="http://purl.org/dc/elements/1.1/">
  <defs
     id="defs4">
    <linearGradient
       id="linearGradient14436">
      <stop
         id="stop14430"
         style="stop-color:#9e3f00;stop-opacity:1;"
         offset="0" />
      <stop
         id="stop14432"
         style="stop-color:#ff802d"
         offset=".5" />
      <stop
         id="stop14434"
         style="stop-color:#aa4400"
         offset="1" />
    </linearGradient>
    <linearGradient
       id="linearGradient4009">
      <stop
         id="stop4011"
         style="stop-color:#923906"
         offset="0" />
      <stop
         id="stop4017"
         style="stop-color:#ea6f1a"
         offset=".5" />
      <stop
         id="stop4013"
         style="stop-color:#af4304"
         offset="1" />
    </linearGradient>
    <linearGradient
       id="linearGradient3957">
      <stop
         id="stop3959"
         style="stop-color:#aa4400"
         offset="0" />
      <stop
         id="stop3965"
         style="stop-color:#ff802d"
         offset=".5" />
      <stop
         id="stop3961"
         style="stop-color:#aa4400"
         offset="1" />
    </linearGradient>
    <linearGradient
       id="linearGradient3171">
      <stop
         id="stop3173"
         style="stop-color:#ececec;stop-opacity:.015267"
         offset="0" />
      <stop
         id="stop3951"
         style="stop-color:#ececec"
         offset=".47037" />
      <stop
         id="stop3175"
         style="stop-color:#ececec;stop-opacity:0"
         offset="1" />
    </linearGradient>
    <linearGradient
       id="linearGradient3142"
       inkscape:collect="always">
      <stop
         id="stop3144"
         style="stop-color:#ff6600"
         offset="0" />
      <stop
         id="stop3146"
         style="stop-color:#d45500;stop-opacity:0"
         offset="1" />
    </linearGradient>
    <filter
       id="filter3953"
       inkscape:collect="always"
       color-interpolation-filters="sRGB"
       x="-0.0382669"
       y="-0.017555152"
       width="1.0765338"
       height="1.0351103">
      <feGaussianBlur
         id="feGaussianBlur3955"
         stdDeviation="0.89262466"
         inkscape:collect="always" />
    </filter>
    <filter
       id="filter3981"
       height="1.3094167"
       width="1.425448"
       color-interpolation-filters="sRGB"
       y="-0.15470837"
       x="-0.21272401"
       inkscape:collect="always">
      <feGaussianBlur
         id="feGaussianBlur3983"
         stdDeviation="1.7403323"
         inkscape:collect="always" />
    </filter>
    <filter
       id="filter3985"
       height="1.3094167"
       width="1.425448"
       color-interpolation-filters="sRGB"
       y="-0.15470837"
       x="-0.21272401"
       inkscape:collect="always">
      <feGaussianBlur
         id="feGaussianBlur3987"
         stdDeviation="1.7403323"
         inkscape:collect="always" />
    </filter>
    <filter
       id="filter4027"
       height="1.1389384"
       width="6.6232211"
       color-interpolation-filters="sRGB"
       y="-0.078735922"
       x="-2.8037382"
       inkscape:collect="always">
      <feGaussianBlur
         id="feGaussianBlur4029"
         stdDeviation="0.36351857"
         inkscape:collect="always" />
    </filter>
    <radialGradient
       id="radialGradient4181"
       xlink:href="#linearGradient3142"
       gradientUnits="userSpaceOnUse"
       cy="612.98999"
       cx="292.89001"
       gradientTransform="matrix(0.62548,-0.0085228,0.019133,1.4042,101.31,-107.32)"
       r="74.888"
       inkscape:collect="always" />
    <radialGradient
       id="radialGradient4183"
       xlink:href="#linearGradient3142"
       gradientUnits="userSpaceOnUse"
       cy="421.26999"
       cx="243.96001"
       gradientTransform="matrix(0.12502,0.79646,-1.584,0.24863,939.51,137.878)"
       r="74.888"
       inkscape:collect="always" />
    <linearGradient
       id="linearGradient4187"
       y2="417.89999"
       xlink:href="#linearGradient3171"
       gradientUnits="userSpaceOnUse"
       x2="301.04001"
       y1="536.53003"
       x1="250.81"
       inkscape:collect="always" />
    <linearGradient
       id="linearGradient4189"
       y2="415.34"
       xlink:href="#linearGradient4009"
       gradientUnits="userSpaceOnUse"
       x2="316.62"
       y1="415.34"
       x1="314.06"
       inkscape:collect="always" />
    <radialGradient
       id="radialGradient4191"
       xlink:href="#linearGradient3142"
       gradientUnits="userSpaceOnUse"
       cy="612.98999"
       cx="292.89001"
       gradientTransform="matrix(-0.62548,-0.0085228,-0.019133,1.4042,683.39,-107.32)"
       r="74.888"
       inkscape:collect="always" />
    <radialGradient
       id="radialGradient4193"
       xlink:href="#linearGradient3142"
       gradientUnits="userSpaceOnUse"
       cy="421.26999"
       cx="243.96001"
       gradientTransform="matrix(-0.12502,0.79646,1.584,0.24863,-154.8,137.878)"
       r="74.888"
       inkscape:collect="always" />
    <linearGradient
       inkscape:collect="always"
       xlink:href="#linearGradient3171"
       id="linearGradient13800"
       gradientUnits="userSpaceOnUse"
       x1="250.81"
       y1="536.53003"
       x2="301.04001"
       y2="417.89999"
       gradientTransform="translate(0,40)" />
    <linearGradient
       inkscape:collect="always"
       xlink:href="#linearGradient4009"
       id="linearGradient13802"
       gradientUnits="userSpaceOnUse"
       x1="314.06"
       y1="415.34"
       x2="316.62"
       y2="415.34"
       gradientTransform="translate(0,40)" />
  </defs>
  <sodipodi:namedview
     id="base"
     fit-margin-left="1"
     inkscape:zoom="1.238153"
     borderopacity="1.0"
     inkscape:current-layer="layer1"
     inkscape:cx="241.48873"
     inkscape:window-y="24"
     inkscape:window-maximized="1"
     showgrid="false"
     fit-margin-right="1"
     showguides="true"
     bordercolor="#666666"
     inkscape:window-x="0"
     inkscape:guide-bbox="true"
     fit-margin-bottom="1"
     inkscape:window-width="1366"
     inkscape:pageopacity="0.0"
     inkscape:pageshadow="2"
     pagecolor="#ffffff"
     inkscape:cy="237.85429"
     inkscape:document-units="px"
     inkscape:window-height="692"
     fit-margin-top="1"
     inkscape:showpageshadow="0"
     inkscape:pagecheckerboard="0"
     inkscape:deskcolor="#d1d1d1" />
  <g
     id="layer1"
     inkscape:label="Layer 1"
     inkscape:groupmode="layer"
     transform="translate(-229.05,-342.83)">
    <path
       id="path4033"
       sodipodi:nodetypes="cccczzzcccccc"
       style="fill:#ff6600"
       inkscape:connector-curvature="0"
       d="m 254.5,734.69 c 32.049,46.612 94.708,21.079 100.52,-10.394 5.4643,-26.732 -3.4845,-77.554 -4.8249,-122.33 14.207,-33.846 28.466,-80.434 32.97,-123.93 5.8695,-50.049 -2.7103,-67.728 -16.083,-83.151 -13.3727,-15.423 -39.309,-11.51 -55.486,-7.1958 -16.177,4.3141 -26.212,10.037 -44.228,24.785 -18.015,14.749 -26.962,35.775 -31.362,55.168 -0.60831,15.386 -1.8931,30.099 1.6083,49.571 l 6.4332,61.564 2.4124,34.38 3.2166,92.746 c -0.88924,9.5944 1.4524,19.189 4.8249,28.783 z" />
    <path
       id="path3123"
       sodipodi:nodetypes="cccczzzcccccc"
       style="fill:#d45500"
       inkscape:connector-curvature="0"
       d="m 249.28,736.93 c 32.049,46.881 94.708,21.2 100.52,-10.454 5.4643,-26.887 -3.4845,-78.002 -4.8249,-123.03 14.207,-34.042 28.466,-80.898 32.97,-124.64 5.8695,-50.338 -2.7103,-68.119 -16.083,-83.631 -13.3727,-15.512 -39.309,-11.576 -55.486,-7.2373 -16.177,4.339 -26.212,10.095 -44.228,24.928 -18.015,14.834 -26.962,35.982 -31.362,55.486 -0.60831,15.475 -1.8931,30.273 1.6083,49.857 l 6.4332,61.919 2.4124,34.578 3.2166,93.281 c -0.88924,9.6497 1.4524,19.299 4.8249,28.949 z" />
    <path
       id="path3132"
       d="m 249.28,736.93 c 32.049,46.881 94.708,21.2 100.52,-10.454 5.4643,-26.887 -3.4845,-78.002 -4.8249,-123.03 14.207,-34.042 28.466,-80.898 32.97,-124.64 5.8695,-50.338 -2.7103,-68.119 -16.083,-83.631 -13.3727,-15.512 -39.309,-11.576 -55.486,-7.2373 -16.177,4.339 -26.212,10.095 -44.228,24.928 -18.015,14.834 -26.962,35.982 -31.362,55.486 -0.60831,15.475 -1.8931,30.273 1.6083,49.857 l 6.4332,61.919 2.4124,34.578 3.2166,93.281 c -0.88924,9.6497 1.4524,19.299 4.8249,28.949 z"
       sodipodi:nodetypes="cccczzzcccccc"
       style="fill:url(#radialGradient4181)"
       inkscape:connector-curvature="0" />
    <path
       id="path3150"
       style="fill:url(#radialGradient4183)"
       inkscape:connector-curvature="0"
       d="m 331.34,384.06 c -8.9441,0.14911 -17.892,1.9767 -24.969,3.875 -16.177,4.339 -26.203,10.104 -44.219,24.938 -18.015,14.834 -26.975,35.964 -31.375,55.469 -0.60831,15.475 -1.8764,30.291 1.625,49.875 l 6.4375,61.906 0.84375,12.312 110.5,-2.0938 c 12.345,-32.413 23.799,-73.155 27.75,-111.53 5.8695,-50.338 -2.6899,-68.145 -16.062,-83.656 -7.5221,-8.7253 -19.032,-11.285 -30.531,-11.094 z" />
    <ellipse
       id="path3967"
       style="opacity:0.76639;fill:#333333;filter:url(#filter3981)"
       transform="matrix(1.2652,0,0,1.1818,88.078,-64.99)"
       cx="139.89809"
       cy="595.4436"
       rx="9.8174095"
       ry="13.498938" />
    <path
       id="path4043"
       style="fill:#ffb380"
       inkscape:connector-curvature="0"
       d="m 320.97,613.41 c -1.1251,-0.0132 -2.5361,0.47035 -4.3125,1.625 -14.211,9.2372 19.89,13.699 11.094,28.188 -8.7959,14.488 -28.455,-13.745 -30.094,3.125 -1.6385,16.87 23.094,-7.0353 28.938,8.875 5.8434,15.91 -28.48,13.701 -16.312,25.5 12.168,11.799 8.9176,-22.414 25,-17.062 16.082,5.3514 -7.0616,30.781 9.75,28.625 16.812,-2.1565 -11.992,-20.95 2.2188,-30.188 0.6202,-0.40313 1.2246,-0.66002 1.8125,-0.90625 -0.68201,-7.9457 -1.399,-16.022 -2.0625,-24.219 -0.49007,-1.3062 -0.54323,-2.6052 -0.3125,-3.9062 -0.41408,-5.326 -0.78939,-10.646 -1.0938,-15.938 0.1173,7.5125 2.2115,18.23 -7.6875,19.5 -14.71,1.8869 -9.0618,-23.126 -16.938,-23.219 z" />
    <ellipse
       id="path3969"
       style="opacity:0.75;fill:#333333;filter:url(#filter3985)"
       transform="matrix(1.2652,0,0,1.1818,151.98,-64.99)"
       cx="139.89809"
       cy="595.4436"
       rx="9.8174095"
       ry="13.498938" />
    <ellipse
       id="path4031"
       style="opacity:0.75;fill:#333333;filter:url(#filter3985)"
       transform="matrix(0.99858,0,0,0.77389,174.31,-5.27)"
       cx="139.89809"
       cy="595.4436"
       rx="9.8174095"
       ry="13.498938" />
    <path
       id="path4048"
       style="fill:#ff6600"
       sodipodi:type="star"
       sodipodi:sides="7"
       inkscape:transform-center-x="-0.2520034"
       sodipodi:r1="15.929155"
       sodipodi:r2="48.270168"
       inkscape:transform-center-y="-1.2113108"
       sodipodi:arg1="0.99442111"
       sodipodi:arg2="1.4432201"
       transform="matrix(0.59962,-0.059013,0.059013,0.59962,304.9,364.04)"
       inkscape:randomized="0"
       sodipodi:cy="363.3295"
       sodipodi:cx="-87.014404"
       inkscape:rounded="0.56"
       inkscape:flatsided="false"
       d="m -78.3332,376.6852 c -16.252955,10.56442 16.687367,32.05586 -2.539769,34.52218 -19.227131,2.46632 7.222448,-26.64324 -11.170699,-32.7635 -18.393152,-6.12026 -14.657882,33.03321 -28.574052,19.53856 -13.91617,-13.49466 25.333647,-10.96505 18.65072,-29.16132 -6.68292,-18.19626 -34.96544,9.13588 -33.09149,-10.158 1.87396,-19.29388 24.36809,12.97005 34.42777,-3.60006 10.059677,-16.5701 -28.94332,-21.64096 -12.69036,-32.20538 16.252952,-10.56442 5.05287,27.13844 24.280002,24.67212 19.227136,-2.46632 -1.12628,-36.12172 17.266868,-30.00145 18.393147,6.12026 -18.06727,20.87102 -4.151101,34.36568 13.916171,13.49465 27.53887,-23.40208 34.221796,-5.20582 6.682925,18.19626 -27.582386,-1.11269 -29.456341,18.18119 -1.873956,19.29388 35.466688,6.9398 25.407012,23.5099 -10.059675,16.57011 -16.327402,-22.25852 -32.580356,-11.6941 z" />
    <path
       id="path4040"
       style="fill:#ff9955"
       inkscape:connector-curvature="0"
       d="m 295.47,416.66 c -9.971,-0.18044 -24.776,28.613 -39.812,14.031 -2.4324,-2.3587 -3.7196,-4.7384 -4.1875,-7.125 -10.508,12.746 -16.605,27.997 -20.125,42.5 0.79014,0.14561 1.6096,0.33912 2.4688,0.625 24.94,8.2988 -10.915,47.782 15.156,44.438 26.071,-3.3442 -18.601,-32.488 3.4375,-46.812 22.038,-14.325 30.547,38.312 44.188,15.844 13.64,-22.468 -37.01,-5.7135 -34.469,-31.875 2.541,-26.1615 48.999,0.017 39.938,-24.656 -1.8407,-5.0117 -4.0521,-6.9228 -6.5938,-6.9688 z" />
    <path
       id="path3127"
       sodipodi:nodetypes="ccccscccscccsc"
       style="fill:#501616"
       inkscape:connector-curvature="0"
       d="m 263.76,652.5 c 10.36,-8.6065 12.706,-18.424 10.454,-24.928 -2.6805,-11.102 -5.361,-26.545 -8.0414,-41.815 -40.946,-108.21 36.455,-115.08 49.053,-123.03 9.9384,16.03 72.318,47.552 30.412,116.54 -6.4708,10.653 -10.465,24.95 -18.35,40.263 -5.2696,6.4526 -10.065,13.285 -4.8249,28.145 9.6342,3.5489 16.353,-6.0212 21.712,-21.712 1.7973,-4.4899 2.8842,-12.087 4.7912,-16.449 10.148,-23.211 21.556,-42.672 20.941,-78.44 -1.7443,-51.233 -29.262,-70.927 -54.682,-84.435 -34.008,6.7019 -59.782,26.578 -72.373,67.548 -4.0625,25.23 4.6556,49.417 9.2105,74.885 3.9218,21.928 -5.5102,58.605 11.697,63.427 z" />
    <path
       id="path3161"
       sodipodi:nodetypes="csccscc"
       style="opacity:0.12295;fill:url(#linearGradient13800);filter:url(#filter3953)"
       inkscape:connector-curvature="0"
       d="m 259.73,576.53 c -6.1565,-21.681 -9.7486,-38.394 -7.5557,-53.146 5.6611,-38.084 34.902,-55.616 46.879,-56.232 -0.1294,-4.9231 -1.7537,-8.9493 -6.2785,-11.235 -11.736,1.6992 -36.71,21.341 -46.031,53.264 -5.3032,18.161 -5.7771,40.297 4.7255,65.366 -0.75763,7.1272 9.4728,0.62646 8.2612,1.9827 z" />
    <path
       id="path3989"
       sodipodi:nodetypes="cc"
       style="opacity:0.35;fill:none;stroke:url(#linearGradient13802);stroke-width:3;filter:url(#filter4027)"
       inkscape:connector-curvature="0"
       d="m 315.21,447.69 c 1.223,5.3715 -0.1833,10.217 -0.35063,15.31" />
    <path
       id="path4035"
       style="fill:#ff6600"
       inkscape:connector-curvature="0"
       d="m 270.91,699.78 c -7.3454,0.44381 2.9833,19.561 -8.9688,21.094 -13.188,1.6917 -5.4766,-24.184 -16.625,-16.938 -0.3638,0.23647 -0.68318,0.4899 -0.96875,0.71875 l 0.125,3.3125 c -0.0786,0.85273 -0.12661,1.7098 -0.15625,2.5625 4.2159,3.9692 14.228,8.0214 9.6875,15.5 -1.8976,3.1256 -4.4402,3.7274 -7.1562,3.2188 0.15827,0.5718 0.33085,1.147 0.5,1.7188 2.4831,0.18269 4.5897,1.3407 5.75,4.5 0.90633,2.4678 0.56283,4.3864 -0.46875,5.9375 0.39491,0.48868 0.78527,0.96769 1.1875,1.4375 1.5462,-1.1726 3.5057,-1.6424 6.0938,-0.78125 5.1195,1.7035 5.1427,6.0105 4.2812,10.406 1.8441,1.3278 3.7384,2.5126 5.6562,3.5625 -2.7138,-5.0698 -6.6254,-11.215 -0.5625,-15.156 11.148,-7.2464 15.475,19.397 22.375,8.0312 6.9002,-11.366 -18.723,-2.8908 -17.438,-16.125 1.2854,-13.234 24.772,-0.0187 20.188,-12.5 -4.584,-12.4813 -13.923,12.85 -23.469,3.5938 -9.5455,-9.2564 15.46,-19.396 2.8438,-23.594 -1.1828,-0.39357 -2.1151,-0.54591 -2.875,-0.5 z" />
    <path
       id="path4050"
       style="fill:#ffb380"
       sodipodi:type="star"
       sodipodi:sides="7"
       inkscape:transform-center-x="-0.35405919"
       sodipodi:r1="15.929155"
       sodipodi:r2="48.270168"
       inkscape:transform-center-y="-1.1813569"
       sodipodi:arg1="0.99442111"
       sodipodi:arg2="1.4432201"
       transform="matrix(0.44994,-0.07166,0.07166,0.44994,332.44,362.93)"
       inkscape:randomized="0"
       sodipodi:cy="363.3295"
       sodipodi:cx="-87.014404"
       inkscape:rounded="0.56"
       inkscape:flatsided="false"
       d="m -78.3332,376.6852 c -16.252955,10.56442 16.687367,32.05586 -2.539769,34.52218 -19.227131,2.46632 7.222448,-26.64324 -11.170699,-32.7635 -18.393152,-6.12026 -14.657882,33.03321 -28.574052,19.53856 -13.91617,-13.49466 25.333647,-10.96505 18.65072,-29.16132 -6.68292,-18.19626 -34.96544,9.13588 -33.09149,-10.158 1.87396,-19.29388 24.36809,12.97005 34.42777,-3.60006 10.059677,-16.5701 -28.94332,-21.64096 -12.69036,-32.20538 16.252952,-10.56442 5.05287,27.13844 24.280002,24.67212 19.227136,-2.46632 -1.12628,-36.12172 17.266868,-30.00145 18.393147,6.12026 -18.06727,20.87102 -4.151101,34.36568 13.916171,13.49465 27.53887,-23.40208 34.221796,-5.20582 6.682925,18.19626 -27.582386,-1.11269 -29.456341,18.18119 -1.873956,19.29388 35.466688,6.9398 25.407012,23.5099 -10.059675,16.57011 -16.327402,-22.25852 -32.580356,-11.6941 z" />
    <path
       id="path4052"
       style="fill:#ff6600"
       inkscape:connector-curvature="0"
       d="m 345.38,385.5 c 3.0503,6.9763 14.526,17.162 5.0625,24.562 -13.991,10.941 -22.829,-24.022 -30.688,-8.0938 -7.8582,15.928 25.263,1.6772 25.094,19.438 -0.169,17.76 -32.991,2.8626 -25.438,18.938 7.5537,16.075 17.032,-18.674 30.812,-7.4688 13.78,11.206 -18.309,27.571 -1.0312,31.688 17.277,4.1168 -4.0089,-24.963 13.344,-28.75 13.229,-2.8872 12.202,16.913 17.156,21.656 0.20954,-5.3911 0.18669,-10.287 -0.0312,-14.781 -5.5404,-3.4606 -10.588,-7.669 -7.125,-14.688 1.1855,-2.403 2.7202,-3.8064 4.4688,-4.5312 -0.36214,-1.4482 -0.76374,-2.8478 -1.1875,-4.1875 -1.2226,-0.83824 -2.3248,-2.1017 -3.1875,-3.9375 -1.0464,-2.2269 -1.2218,-4.1652 -0.84375,-5.875 -0.56944,-1.102 -1.1641,-2.1509 -1.7812,-3.1875 -1.8121,1.2768 -4.124,1.7925 -7.1875,1.0625 -8.4791,-2.0204 -7.5391,-9.9504 -6.4375,-17.062 -3.3151,-2.2597 -7.0506,-3.7996 -11,-4.7812 z" />
    <path
       id="path4082"
       sodipodi:nodetypes="cccczzzcccccc"
       style="fill:#ff6600"
       inkscape:connector-curvature="0"
       d="m 540.2,734.69 c -32.049,46.612 -94.708,21.079 -100.52,-10.394 -5.4643,-26.732 3.4845,-77.554 4.8249,-122.33 -14.207,-33.846 -28.466,-80.434 -32.97,-123.93 -5.8695,-50.049 2.7103,-67.728 16.083,-83.151 13.3727,-15.423 39.309,-11.51 55.486,-7.1958 16.177,4.3141 26.212,10.037 44.228,24.785 18.015,14.749 26.962,35.775 31.362,55.168 0.60831,15.386 1.8931,30.099 -1.6083,49.571 l -6.4332,61.564 -2.4124,34.38 -3.2166,92.746 c 0.88924,9.5944 -1.4524,19.189 -4.8249,28.783 z" />
    <path
       id="path4084"
       sodipodi:nodetypes="cccczzzcccccc"
       style="fill:#d45500"
       inkscape:connector-curvature="0"
       d="m 535.42,736.93 c -32.049,46.881 -94.708,21.2 -100.52,-10.454 -5.4643,-26.887 3.4845,-78.002 4.8249,-123.03 -14.207,-34.042 -28.466,-80.898 -32.97,-124.64 -5.8695,-50.338 2.7103,-68.119 16.083,-83.631 13.3727,-15.512 39.309,-11.576 55.486,-7.2373 16.177,4.339 26.212,10.095 44.228,24.928 18.015,14.834 26.962,35.982 31.362,55.486 0.60831,15.475 1.8931,30.273 -1.6083,49.857 l -6.4332,61.919 -2.4124,34.578 -3.2166,93.281 c 0.88924,9.6497 -1.4524,19.299 -4.8249,28.949 z" />
    <path
       id="path4086"
       d="m 535.42,736.93 c -32.049,46.881 -94.708,21.2 -100.52,-10.454 -5.4643,-26.887 3.4845,-78.002 4.8249,-123.03 -14.207,-34.042 -28.466,-80.898 -32.97,-124.64 -5.8695,-50.338 2.7103,-68.119 16.083,-83.631 13.3727,-15.512 39.309,-11.576 55.486,-7.2373 16.177,4.339 26.212,10.095 44.228,24.928 18.015,14.834 26.962,35.982 31.362,55.486 0.60831,15.475 1.8931,30.273 -1.6083,49.857 l -6.4332,61.919 -2.4124,34.578 -3.2166,93.281 c 0.88924,9.6497 -1.4524,19.299 -4.8249,28.949 z"
       sodipodi:nodetypes="cccczzzcccccc"
       style="fill:url(#radialGradient4191)"
       inkscape:connector-curvature="0" />
    <path
       id="path4088"
       style="fill:url(#radialGradient4193)"
       inkscape:connector-curvature="0"
       d="m 453.36,384.06 c 8.9441,0.14911 17.892,1.9767 24.969,3.875 16.177,4.339 26.203,10.104 44.219,24.938 18.015,14.834 26.975,35.964 31.375,55.469 0.60831,15.475 1.8764,30.291 -1.625,49.875 l -6.4375,61.906 -0.84375,12.312 -110.5,-2.0938 c -12.345,-32.413 -23.799,-73.155 -27.75,-111.53 -5.8695,-50.338 2.6899,-68.145 16.062,-83.656 7.5221,-8.7253 19.032,-11.285 30.531,-11.094 z" />
    <ellipse
       id="path4090"
       style="opacity:0.76639;fill:#333333;filter:url(#filter3981)"
       transform="matrix(-1.2652,0,0,1.1818,696.62,-64.99)"
       cx="139.89809"
       cy="595.4436"
       rx="9.8174095"
       ry="13.498938" />
    <path
       id="path4092"
       style="fill:#ffb380"
       inkscape:connector-curvature="0"
       d="m 463.73,613.41 c 1.1251,-0.0132 2.5361,0.47035 4.3125,1.625 14.211,9.2372 -19.89,13.699 -11.094,28.188 8.7959,14.488 28.455,-13.745 30.094,3.125 1.6385,16.87 -23.094,-7.0353 -28.938,8.875 -5.8434,15.91 28.48,13.701 16.312,25.5 -12.168,11.799 -8.9176,-22.414 -25,-17.062 -16.082,5.3514 7.0616,30.781 -9.75,28.625 -16.812,-2.1565 11.992,-20.95 -2.2188,-30.188 -0.6202,-0.40313 -1.2246,-0.66002 -1.8125,-0.90625 0.68201,-7.9457 1.399,-16.022 2.0625,-24.219 0.49007,-1.3062 0.54323,-2.6052 0.3125,-3.9062 0.41408,-5.326 0.78939,-10.646 1.0938,-15.938 -0.1173,7.5125 -2.2115,18.23 7.6875,19.5 14.71,1.8869 9.0618,-23.126 16.938,-23.219 z" />
    <ellipse
       id="path4094"
       style="opacity:0.75;fill:#333333;filter:url(#filter3985)"
       transform="matrix(-1.2652,0,0,1.1818,632.72,-64.99)"
       cx="139.89809"
       cy="595.4436"
       rx="9.8174095"
       ry="13.498938" />
    <ellipse
       id="path4096"
       style="opacity:0.75;fill:#333333;filter:url(#filter3985)"
       transform="matrix(-0.99858,0,0,0.77389,610.39,-5.27)"
       cx="139.89809"
       cy="595.4436"
       rx="9.8174095"
       ry="13.498938" />
    <path
       id="path4098"
       style="fill:#ff6600"
       sodipodi:type="star"
       sodipodi:sides="7"
       inkscape:transform-center-x="-0.2520034"
       sodipodi:r1="15.929155"
       sodipodi:r2="48.270168"
       inkscape:transform-center-y="-1.2113108"
       sodipodi:arg1="0.99442111"
       sodipodi:arg2="1.4432201"
       transform="matrix(-0.59962,-0.059013,-0.059013,0.59962,479.8,364.04)"
       inkscape:randomized="0"
       sodipodi:cy="363.3295"
       sodipodi:cx="-87.014404"
       inkscape:rounded="0.56"
       inkscape:flatsided="false"
       d="m -78.3332,376.6852 c -16.252955,10.56442 16.687367,32.05586 -2.539769,34.52218 -19.227131,2.46632 7.222448,-26.64324 -11.170699,-32.7635 -18.393152,-6.12026 -14.657882,33.03321 -28.574052,19.53856 -13.91617,-13.49466 25.333647,-10.96505 18.65072,-29.16132 -6.68292,-18.19626 -34.96544,9.13588 -33.09149,-10.158 1.87396,-19.29388 24.36809,12.97005 34.42777,-3.60006 10.059677,-16.5701 -28.94332,-21.64096 -12.69036,-32.20538 16.252952,-10.56442 5.05287,27.13844 24.280002,24.67212 19.227136,-2.46632 -1.12628,-36.12172 17.266868,-30.00145 18.393147,6.12026 -18.06727,20.87102 -4.151101,34.36568 13.916171,13.49465 27.53887,-23.40208 34.221796,-5.20582 6.682925,18.19626 -27.582386,-1.11269 -29.456341,18.18119 -1.873956,19.29388 35.466688,6.9398 25.407012,23.5099 -10.059675,16.57011 -16.327402,-22.25852 -32.580356,-11.6941 z" />
    <path
       id="path4100"
       style="fill:#ff9955"
       inkscape:connector-curvature="0"
       d="m 489.23,416.66 c 9.971,-0.18044 24.776,28.613 39.812,14.031 2.4324,-2.3587 3.7196,-4.7384 4.1875,-7.125 10.508,12.746 16.605,27.997 20.125,42.5 -0.79014,0.14561 -1.6096,0.33912 -2.4688,0.625 -24.94,8.2988 10.915,47.782 -15.156,44.438 -26.071,-3.3442 18.601,-32.488 -3.4375,-46.812 -22.038,-14.325 -30.547,38.312 -44.188,15.844 -13.64,-22.468 37.01,-5.7135 34.469,-31.875 -2.541,-26.1615 -48.999,0.017 -39.938,-24.656 1.8407,-5.0117 4.0521,-6.9228 6.5938,-6.9688 z" />
    <path
       id="path4102"
       sodipodi:nodetypes="ccccscccscccsc"
       style="fill:#501616"
       inkscape:connector-curvature="0"
       d="m 520.94,652.5 c -10.36,-8.6065 -12.706,-18.424 -10.454,-24.928 2.6805,-11.102 5.361,-26.545 8.0414,-41.815 40.946,-108.21 -36.455,-115.08 -49.053,-123.03 -9.9384,16.03 -72.318,47.552 -30.412,116.54 6.4708,10.653 10.465,24.95 18.35,40.263 5.2696,6.4526 10.065,13.285 4.8249,28.145 -9.6342,3.5489 -16.353,-6.0212 -21.712,-21.712 -1.7973,-4.4899 -2.8842,-12.087 -4.7912,-16.449 -10.148,-23.211 -21.556,-42.672 -20.941,-78.44 1.7443,-51.233 29.262,-70.927 54.682,-84.435 34.008,6.7019 59.782,26.578 72.373,67.548 4.0625,25.23 -4.6556,49.417 -9.2105,74.885 -3.9218,21.928 5.5102,58.605 -11.697,63.427 z" />
    <path
       id="path4104"
       style="opacity:0.12295;fill:url(#linearGradient4187);filter:url(#filter3953)"
       d="m 259.73,536.53 c -6.1565,-21.681 -9.7486,-38.394 -7.5557,-53.146 5.6611,-38.084 34.902,-55.616 46.879,-56.232 -0.1294,-4.9231 -1.7537,-8.9493 -6.2785,-11.235 -11.736,1.6992 -36.71,21.341 -46.031,53.264 -5.3032,18.161 -5.7771,40.297 4.7255,65.366 -0.75763,7.1272 9.4728,0.62646 8.2612,1.9827 z"
       sodipodi:nodetypes="csccscc"
       inkscape:connector-curvature="0"
       transform="matrix(-1,0,0,1,784.7,40)" />
    <path
       id="path4106"
       style="opacity:0.35;fill:none;stroke:url(#linearGradient4189);stroke-width:3;filter:url(#filter4027)"
       d="m 315.21,407.69 c 1.223,5.3715 -0.1833,10.217 -0.35063,15.31"
       sodipodi:nodetypes="cc"
       inkscape:connector-curvature="0"
       transform="matrix(-1,0,0,1,784.7,40)" />
    <path
       id="path4108"
       style="fill:#ff6600"
       inkscape:connector-curvature="0"
       d="m 513.8,699.78 c 7.3454,0.44381 -2.9833,19.561 8.9688,21.094 13.188,1.6917 5.4766,-24.184 16.625,-16.938 0.3638,0.23647 0.68318,0.4899 0.96875,0.71875 l -0.125,3.3125 c 0.0786,0.85273 0.12661,1.7098 0.15625,2.5625 -4.2159,3.9692 -14.228,8.0214 -9.6875,15.5 1.8976,3.1256 4.4402,3.7274 7.1562,3.2188 -0.15827,0.5718 -0.33085,1.147 -0.5,1.7188 -2.4831,0.18269 -4.5897,1.3407 -5.75,4.5 -0.90633,2.4678 -0.56283,4.3864 0.46875,5.9375 -0.39491,0.48868 -0.78527,0.96769 -1.1875,1.4375 -1.5462,-1.1726 -3.5057,-1.6424 -6.0938,-0.78125 -5.1195,1.7035 -5.1427,6.0105 -4.2812,10.406 -1.8441,1.3278 -3.7384,2.5126 -5.6562,3.5625 2.7138,-5.0698 6.6254,-11.215 0.5625,-15.156 -11.148,-7.2464 -15.475,19.397 -22.375,8.0312 -6.9002,-11.366 18.723,-2.8908 17.438,-16.125 -1.2854,-13.234 -24.772,-0.0187 -20.188,-12.5 4.584,-12.4813 13.923,12.85 23.469,3.5938 9.5455,-9.2564 -15.46,-19.396 -2.8438,-23.594 1.1828,-0.39357 2.1151,-0.54591 2.875,-0.5 z" />
    <path
       id="path4110"
       style="fill:#ffb380"
       sodipodi:type="star"
       sodipodi:sides="7"
       inkscape:transform-center-x="-0.35405919"
       sodipodi:r1="15.929155"
       sodipodi:r2="48.270168"
       inkscape:transform-center-y="-1.1813569"
       sodipodi:arg1="0.99442111"
       sodipodi:arg2="1.4432201"
       transform="matrix(-0.44994,-0.07166,-0.07166,0.44994,452.27,362.93)"
       inkscape:randomized="0"
       sodipodi:cy="363.3295"
       sodipodi:cx="-87.014404"
       inkscape:rounded="0.56"
       inkscape:flatsided="false"
       d="m -78.3332,376.6852 c -16.252955,10.56442 16.687367,32.05586 -2.539769,34.52218 -19.227131,2.46632 7.222448,-26.64324 -11.170699,-32.7635 -18.393152,-6.12026 -14.657882,33.03321 -28.574052,19.53856 -13.91617,-13.49466 25.333647,-10.96505 18.65072,-29.16132 -6.68292,-18.19626 -34.96544,9.13588 -33.09149,-10.158 1.87396,-19.29388 24.36809,12.97005 34.42777,-3.60006 10.059677,-16.5701 -28.94332,-21.64096 -12.69036,-32.20538 16.252952,-10.56442 5.05287,27.13844 24.280002,24.67212 19.227136,-2.46632 -1.12628,-36.12172 17.266868,-30.00145 18.393147,6.12026 -18.06727,20.87102 -4.151101,34.36568 13.916171,13.49465 27.53887,-23.40208 34.221796,-5.20582 6.682925,18.19626 -27.582386,-1.11269 -29.456341,18.18119 -1.873956,19.29388 35.466688,6.9398 25.407012,23.5099 -10.059675,16.57011 -16.327402,-22.25852 -32.580356,-11.6941 z" />
    <path
       id="path4112"
       style="fill:#ff6600"
       inkscape:connector-curvature="0"
       d="m 439.33,385.5 c -3.0503,6.9763 -14.526,17.162 -5.0625,24.562 13.991,10.941 22.829,-24.022 30.688,-8.0938 7.8582,15.928 -25.263,1.6772 -25.094,19.438 0.169,17.76 32.991,2.8626 25.438,18.938 -7.5537,16.075 -17.032,-18.674 -30.812,-7.4688 -13.78,11.206 18.309,27.571 1.0312,31.688 -17.277,4.1168 4.0089,-24.963 -13.344,-28.75 -13.229,-2.8872 -12.202,16.913 -17.156,21.656 -0.20954,-5.3911 -0.18669,-10.287 0.0312,-14.781 5.5404,-3.4606 10.588,-7.669 7.125,-14.688 -1.1855,-2.403 -2.7202,-3.8064 -4.4688,-4.5312 0.36214,-1.4482 0.76374,-2.8478 1.1875,-4.1875 1.2226,-0.83824 2.3248,-2.1017 3.1875,-3.9375 1.0464,-2.2269 1.2218,-4.1652 0.84375,-5.875 0.56944,-1.102 1.1641,-2.1509 1.7812,-3.1875 1.8121,1.2768 4.124,1.7925 7.1875,1.0625 8.4791,-2.0204 7.5391,-9.9504 6.4375,-17.062 3.3151,-2.2597 7.0506,-3.7996 11,-4.7812 z" />
  </g>
  <metadata
     id="metadata13680">
    <rdf:RDF>
      <cc:Work>
        <dc:format>image/svg+xml</dc:format>
        <dc:type
           rdf:resource="http://purl.org/dc/dcmitype/StillImage" />
        <cc:license
           rdf:resource="http://creativecommons.org/publicdomain/zero/1.0/" />
        <dc:publisher>
          <cc:Agent
             rdf:about="http://openclipart.org/">
            <dc:title>Openclipart</dc:title>
          </cc:Agent>
        </dc:publisher>
        <dc:title>flip flops</dc:title>
        <dc:date>2011-08-28T01:56:10</dc:date>
        <dc:description>Orange flip flops</dc:description>
        <dc:source>https://openclipart.org/detail/158401/flip-flops-by-cavscout</dc:source>
        <dc:creator>
          <cc:Agent>
            <dc:title>cavscout</dc:title>
          </cc:Agent>
        </dc:creator>
        <dc:subject>
          <rdf:Bag>
            <rdf:li>Flip flops</rdf:li>
            <rdf:li>sandals</rdf:li>
            <rdf:li>shoes</rdf:li>
          </rdf:Bag>
        </dc:subject>
      </cc:Work>
      <cc:License
         rdf:about="http://creativecommons.org/publicdomain/zero/1.0/">
        <cc:permits
           rdf:resource="http://creativecommons.org/ns#Reproduction" />
        <cc:permits
           rdf:resource="http://creativecommons.org/ns#Distribution" />
        <cc:permits
           rdf:resource="http://creativecommons.org/ns#DerivativeWorks" />
      </cc:License>
    </rdf:RDF>
  </metadata>
</svg>
