<?xml version="1.0" encoding="UTF-8" standalone="no"?>
<svg
   viewBox="0 0 332.59842 472.44093"
   version="1.1"
   id="svg131"
   sodipodi:docname="scale2.svg"
   width="88mm"
   height="125mm"
   inkscape:version="1.2.2 (732a01da63, 2022-12-09)"
   xmlns:inkscape="http://www.inkscape.org/namespaces/inkscape"
   xmlns:sodipodi="http://sodipodi.sourceforge.net/DTD/sodipodi-0.dtd"
   xmlns:xlink="http://www.w3.org/1999/xlink"
   xmlns="http://www.w3.org/2000/svg"
   xmlns:svg="http://www.w3.org/2000/svg"
   xmlns:rdf="http://www.w3.org/1999/02/22-rdf-syntax-ns#"
   xmlns:cc="http://creativecommons.org/ns#"
   xmlns:dc="http://purl.org/dc/elements/1.1/">
  <metadata
     id="metadata135">
    <rdf:RDF>
      <cc:Work
         rdf:about="">
        <dc:format>image/svg+xml</dc:format>
        <dc:type
           rdf:resource="http://purl.org/dc/dcmitype/StillImage" />
      </cc:Work>
    </rdf:RDF>
  </metadata>
  <sodipodi:namedview
     pagecolor="#ffffff"
     bordercolor="#666666"
     borderopacity="1"
     objecttolerance="10"
     gridtolerance="10"
     guidetolerance="10"
     inkscape:pageopacity="0"
     inkscape:pageshadow="2"
     inkscape:window-width="1920"
     inkscape:window-height="1017"
     id="namedview133"
     showgrid="false"
     units="mm"
     inkscape:zoom="1.2320187"
     inkscape:cx="-51.947263"
     inkscape:cy="209.00657"
     inkscape:window-x="-8"
     inkscape:window-y="-8"
     inkscape:window-maximized="1"
     inkscape:current-layer="svg131"
     inkscape:document-rotation="0"
     inkscape:showpageshadow="0"
     inkscape:pagecheckerboard="0"
     inkscape:deskcolor="#d1d1d1"
     inkscape:document-units="mm" />
  <defs
     id="defs49">
    <filter
       id="o"
       x="-0.074614674"
       y="-0.0065246027"
       width="1.1492293"
       height="1.0130492">
      <feGaussianBlur
         stdDeviation="1.60406"
         id="feGaussianBlur2" />
    </filter>
    <filter
       id="n"
       x="0"
       y="0"
       width="1"
       height="1" />
    <linearGradient
       id="a">
      <stop
         stop-color="#fff"
         offset="0"
         id="stop6" />
      <stop
         stop-color="#fff"
         stop-opacity="0"
         offset="1"
         id="stop8" />
    </linearGradient>
    <linearGradient
       id="l"
       x1="327.51999"
       x2="328.01001"
       y1="186.46001"
       y2="237.22"
       gradientUnits="userSpaceOnUse">
      <stop
         stop-color="#b3b3b3"
         offset="0"
         id="stop11" />
      <stop
         stop-color="#a9a9a9"
         offset=".33656"
         id="stop13" />
      <stop
         stop-color="#969696"
         offset="1"
         id="stop15" />
    </linearGradient>
    <linearGradient
       id="k"
       x1="375.51999"
       x2="395.54001"
       gradientUnits="userSpaceOnUse">
      <stop
         stop-color="#767676"
         offset="0"
         id="stop18" />
      <stop
         stop-color="#767676"
         stop-opacity="0"
         offset="1"
         id="stop20" />
    </linearGradient>
    <linearGradient
       id="i"
       x1="121.84"
       x2="122.61"
       y1="201.39999"
       y2="216.81"
       gradientUnits="userSpaceOnUse">
      <stop
         offset="0"
         id="stop23" />
      <stop
         stop-opacity="0"
         offset="1"
         id="stop25" />
    </linearGradient>
    <linearGradient
       id="b"
       x1="375.42999"
       x2="401.66"
       y1="242.74001"
       y2="246.19"
       gradientUnits="userSpaceOnUse">
      <stop
         stop-color="#e5e5e5"
         offset="0"
         id="stop28" />
      <stop
         stop-color="#e5e5e5"
         stop-opacity=".45588"
         offset="1"
         id="stop30" />
    </linearGradient>
    <linearGradient
       id="j"
       x1="123.44"
       x2="125.44"
       y1="4.9636002"
       y2="11.752"
       gradientUnits="userSpaceOnUse"
       xlink:href="#a"
       gradientTransform="matrix(1.2513293,0,0,1.2513293,10.381871,66.581653)" />
    <linearGradient
       id="h"
       x1="122.42"
       x2="124.45"
       y1="46.374001"
       y2="52.834999"
       gradientUnits="userSpaceOnUse"
       xlink:href="#a"
       gradientTransform="matrix(1.2513293,0,0,1.2513293,10.381871,66.581653)" />
    <linearGradient
       id="g"
       x1="121.56"
       x2="125.21"
       y1="19.167"
       y2="34.648998"
       gradientUnits="userSpaceOnUse"
       xlink:href="#a"
       gradientTransform="matrix(1.4217604,0,0,1.2513293,-10.081117,65.580577)" />
    <linearGradient
       id="f"
       x1="119.57"
       x2="126.18"
       gradientUnits="userSpaceOnUse"
       xlink:href="#a"
       gradientTransform="matrix(1.2513293,0,0,1.2513293,10.381871,66.581653)" />
    <linearGradient
       id="d"
       x1="53.238998"
       x2="55.497002"
       y1="55.698002"
       y2="64.125999"
       gradientUnits="userSpaceOnUse"
       xlink:href="#a" />
    <linearGradient
       id="m"
       x1="116.65"
       x2="123.94"
       y1="205.69"
       y2="213.89"
       gradientUnits="userSpaceOnUse"
       xlink:href="#a"
       gradientTransform="matrix(1.2513293,0,0,1.2513293,10.381871,66.581653)" />
    <radialGradient
       id="e"
       cx="314.95001"
       cy="573.63"
       r="75.928001"
       gradientTransform="matrix(-0.00637795,0.55537629,-1.1054487,-0.01268695,788.22563,171.02786)"
       gradientUnits="userSpaceOnUse">
      <stop
         stop-color="#666"
         offset="0"
         id="stop39" />
      <stop
         stop-color="#898989"
         offset="1"
         id="stop41" />
    </radialGradient>
    <radialGradient
       id="c"
       cx="128.09"
       cy="670.46997"
       r="137"
       gradientTransform="matrix(0.010623,-0.60984,1.4018,0.024417,-740.58,716.79)"
       gradientUnits="userSpaceOnUse">
      <stop
         stop-color="#b2b2b2"
         offset="0"
         id="stop44" />
      <stop
         stop-color="#b2b2b2"
         stop-opacity="0"
         offset="1"
         id="stop46" />
    </radialGradient>
    <linearGradient
       inkscape:collect="always"
       xlink:href="#b"
       id="linearGradient960"
       gradientUnits="userSpaceOnUse"
       x1="375.42999"
       y1="242.74001"
       x2="401.66"
       y2="246.19" />
    <linearGradient
       inkscape:collect="always"
       xlink:href="#b"
       id="linearGradient962"
       gradientUnits="userSpaceOnUse"
       x1="375.42999"
       y1="242.74001"
       x2="401.66"
       y2="246.19"
       gradientTransform="matrix(0.45584675,0,0,0.45584675,-10.311362,-21.797233)" />
    <linearGradient
       inkscape:collect="always"
       xlink:href="#b"
       id="linearGradient964"
       gradientUnits="userSpaceOnUse"
       x1="375.42999"
       y1="242.74001"
       x2="401.66"
       y2="246.19" />
    <linearGradient
       inkscape:collect="always"
       xlink:href="#a"
       id="linearGradient966"
       gradientUnits="userSpaceOnUse"
       x1="53.238998"
       y1="55.698002"
       x2="55.497002"
       y2="64.125999"
       gradientTransform="matrix(1.2513293,0,0,1.2513293,10.381871,66.581653)" />
    <radialGradient
       inkscape:collect="always"
       xlink:href="#c"
       id="radialGradient968"
       gradientUnits="userSpaceOnUse"
       gradientTransform="matrix(0.00484246,-0.27799358,0.63900597,0.01113041,-347.90235,344.59627)"
       cx="128.09"
       cy="670.46997"
       r="137" />
    <radialGradient
       inkscape:collect="always"
       xlink:href="#c"
       id="radialGradient970"
       gradientUnits="userSpaceOnUse"
       gradientTransform="matrix(0.010623,-0.60984,1.4018,0.024417,-740.58,716.79)"
       cx="128.09"
       cy="670.46997"
       r="137" />
    <linearGradient
       inkscape:collect="always"
       xlink:href="#b"
       id="linearGradient972"
       gradientUnits="userSpaceOnUse"
       x1="375.42999"
       y1="242.74001"
       x2="401.66"
       y2="246.19" />
  </defs>
  <path
     d="m 224.98484,348.08069 v 7.76087 c 0,6.67997 -25.98135,12.09723 -58.02038,12.09723 -32.03904,0 -58.01913,-5.41726 -58.01913,-12.09723 v -7.76087 c 0,6.67997 25.98134,12.09798 58.01913,12.09798 32.03778,0 58.02038,-5.41801 58.02038,-12.09798 z"
     fill="#808080"
     id="path51"
     style="stroke-width:1.25133" />
  <path
     d="m 224.80744,348.951 a 57.898328,13.294426 0 1 1 -115.79199,0 57.898328,13.294426 0 1 1 115.79199,0 z"
     fill="#676766"
     fill-rule="evenodd"
     opacity="0.9931"
     id="path53"
     style="stroke-width:0.913717" />
  <path
     d="m 218.15259,339.50909 v 5.45967 c 0,4.69924 -22.5915,8.51079 -50.45235,8.51079 -27.86085,0 -50.45235,-3.81155 -50.45235,-8.51079 v -5.45967 c 0,4.69924 22.59275,8.51079 50.45235,8.51079 27.8596,0 50.45235,-3.81155 50.45235,-8.51079 z"
     fill="#999999"
     id="path55"
     style="stroke-width:1.25133" />
  <path
     d="m 218.04158,339.62379 a 50.503441,9.6759477 0 1 1 -101.00688,0 50.503441,9.6759477 0 1 1 101.00688,0 z"
     fill="url(#e)"
     fill-rule="evenodd"
     opacity="0.9931"
     id="path57"
     style="fill:url(#e);stroke-width:0.523658" />
  <g
     transform="matrix(0.45584675,0,0,0.45584675,-10.311362,17.849885)"
     id="g63">
    <path
       d="m 319.81,174.94 c -9.7531,0.15622 -19.424,2.585 -32.594,8.5625 -14.339,6.5084 -25.202,12.595 -36.656,17.344 -13.403,5.5557 -19.605,3.402 -30.969,-1.625 -2.5599,-1.1332 -4.6865,-2.3282 -6.625,-3.4688 -12.277,-7.2236 -16.075,-6.6422 -23.969,1.5 -1.8504,-2.4562 -4.3636,-3.9688 -7.125,-3.9688 -5.6909,0 -10.312,6.4071 -10.312,14.312 0,7.9049 4.6216,14.312 10.312,14.312 2.3796,0 4.566,-1.1182 6.3125,-3 3.604,-3.8889 5.3186,-4.1374 8.5938,-0.1875 4.3543,5.2523 5.8125,5.9788 5.8125,12.75 v 3.5625 c 0,3.5308 -0.82939,5.5536 -5.375,5.6562 -4.154,0.0944 -4.7802,-4.0747 -6.0625,-7.0938 -0.47083,-1.1089 -0.41634,-1.3826 -1.5625,-1.7812 -2.8397,-0.99081 -3.2269,-0.84093 -5.4688,0.9375 -1.1478,0.90873 -1.0284,1.0815 -1.125,2.5312 -0.29839,4.4584 -0.59501,5.612 3.3125,9.1875 3.1704,2.8988 5.5564,4.7269 11,4.5 23.332,-0.98519 10.138,-22.131 10.25,-33.062 -0.07,-3.4544 0.22091,-4.4045 0.96875,-5 2.1117,-1.6768 3.2406,-0.60455 5.5625,0.21875 7.7331,2.745 17.102,5.317 36.031,6.875 6.9368,-0.0975 13.577,-1.2427 20.188,-2.8438 16.897,-4.0938 33.515,-11.173 53.75,-11.531 14.062,-0.24906 29.884,2.74 48.781,12.281 h 32.719 c 18.897,-9.5413 34.719,-12.53 48.781,-12.281 20.235,0.35786 36.824,7.4374 53.719,11.531 6.6108,1.6011 13.284,2.7462 20.219,2.8438 18.929,-1.558 28.269,-4.13 36,-6.875 2.323,-0.8233 3.4828,-1.8956 5.5938,-0.21875 0.7482,0.59551 1.007,1.5456 0.9375,5 0.11044,10.932 -13.081,32.077 10.25,33.062 5.444,0.22691 7.8309,-1.6012 11,-4.5 3.9084,-3.5755 3.61,-4.7291 3.3125,-9.1875 -0.098,-1.4498 0.0222,-1.6225 -1.125,-2.5312 -2.241,-1.7784 -2.5979,-1.9283 -5.4375,-0.9375 -1.1472,0.39865 -1.0922,0.67233 -1.5625,1.7812 -1.2826,3.019 -1.9083,7.1881 -6.0625,7.0938 -4.5444,-0.10264 -5.375,-2.1254 -5.375,-5.6562 10e-6,-1.1787 0,-2.3854 0,-3.5625 10e-6,-6.7712 1.4275,-7.4977 5.7812,-12.75 3.276,-3.9499 4.99,-3.7014 8.5938,0.1875 1.7458,1.8818 3.9343,3 6.3125,3 5.6916,-1e-5 10.312,-6.4073 10.312,-14.312 0,-7.9047 -4.6209,-14.312 -10.312,-14.312 -2.7612,0 -5.2759,1.5126 -7.125,3.9688 -7.8952,-8.1422 -11.66,-8.7236 -23.938,-1.5 -1.9382,1.1406 -4.0964,2.3356 -6.6562,3.4688 -11.362,5.027 -17.536,7.1807 -30.938,1.625 -11.456,-4.7488 -22.318,-10.835 -36.656,-17.344 -23.413,-10.627 -35.791,-10.085 -57.188,-5.4062 -8.9569,1.959 -17.763,4.8319 -28.438,9.6562 h -32.719 c -10.674,-4.8243 -19.482,-7.6973 -28.438,-9.6562 -9.3609,-2.047 -17.008,-3.2778 -24.594,-3.1562 z"
       fill="#808080"
       id="path59" />
    <path
       d="m 319.81,175.78 c -9.6219,0.15412 -19.143,2.5512 -32.25,8.5 -14.304,6.4928 -25.172,12.57 -36.688,17.344 -6.7799,2.8103 -11.849,3.7074 -16.656,3.2188 -4.807,-0.4886 -9.2758,-2.3253 -14.969,-4.8438 -2.6025,-1.1521 -4.7698,-2.3845 -6.7188,-3.5312 -6.0973,-3.5875 -9.9698,-5.1115 -13.125,-4.875 -3.1552,0.2365 -5.9056,2.2203 -9.8125,6.25 -0.17376,0.17573 -0.41577,0.26654 -0.66224,0.2485 -0.24647,-0.018 -0.47268,-0.1431 -0.61901,-0.34225 -1.7295,-2.2957 -3.9845,-3.625 -6.4375,-3.625 -2.5285,0 -4.8461,1.419 -6.5938,3.8438 -1.7477,2.4248 -2.875,5.8369 -2.875,9.625 0,3.7881 1.1273,7.2002 2.875,9.625 1.7477,2.4248 4.0653,3.8438 6.5938,3.8438 2.115,0 4.0666,-0.9723 5.6875,-2.7188 1.8413,-1.9868 3.2852,-3.24 5,-3.3125 0.8574,-0.0363 1.6885,0.2697 2.4688,0.8125 0.7803,0.5428 1.5616,1.3251 2.4062,2.3438 2.1598,2.6052 3.6367,4.1056 4.625,5.9375 0.9883,1.8319 1.375,3.8976 1.375,7.3438 v 3.5625 c 0,1.8316 -0.17674,3.4439 -1.1562,4.6562 -0.97946,1.2123 -2.6344,1.7896 -5.0312,1.8438 -2.3603,0.0536 -3.9498,-1.2234 -4.875,-2.7812 -0.9252,-1.5578 -1.3942,-3.3862 -2,-4.8125 -0.24976,-0.58825 -0.37507,-0.91493 -0.4375,-1 -0.0624,-0.0851 -0.11248,-0.13424 -0.625,-0.3125 -1.3961,-0.48711 -2.0625,-0.64955 -2.5312,-0.5625 -0.4687,0.0871 -1.0136,0.46207 -2.125,1.3438 -0.54229,0.42936 -0.64165,0.56422 -0.6875,0.6875 -0.0459,0.12328 -0.075,0.49989 -0.125,1.25 -0.15012,2.243 -0.28303,3.5474 0.0312,4.625 0.31428,1.0776 1.0875,2.125 3,3.875 3.1451,2.8757 5.1615,4.4999 10.406,4.2812 5.7024,-0.24078 8.9987,-1.6832 10.844,-3.75 1.8453,-2.0668 2.3651,-4.8855 2.1875,-8.1562 -0.35526,-6.5415 -3.6533,-14.501 -3.5938,-20.312 -0.0355,-1.7525 0.003,-2.8802 0.1875,-3.75 0.18415,-0.8698 0.59036,-1.5054 1.0938,-1.9062 1.1819,-0.93852 2.3739,-1.1992 3.4062,-1 1.0323,0.1992 1.876,0.70629 2.9688,1.0938 7.6776,2.7253 16.921,5.2583 35.75,6.8125 h 0.0625 c 6.8287,-0.10239 13.383,-1.2251 19.938,-2.8125 16.803,-4.0712 33.514,-11.201 53.938,-11.562 14.145,-0.25052 30.051,2.7634 48.969,12.281 h 32.344 c 18.918,-9.5178 34.824,-12.532 48.969,-12.281 20.424,0.3612 37.105,7.4913 53.906,11.562 6.5537,1.5873 13.142,2.7101 19.969,2.8125 h 0.0625 c 18.829,-1.5542 28.042,-4.087 35.719,-6.8125 1.0944,-0.38787 1.9615,-0.89523 3,-1.0938 1.0385,-0.19857 2.2231,0.0602 3.4062,1 0.50821,0.4045 0.888,1.0383 1.0625,1.9062 0.1745,0.8679 0.2227,2.0314 0.1875,3.7812 0.0587,5.8111 -3.2388,13.74 -3.5938,20.281 -0.17748,3.2707 0.34235,6.0894 2.1875,8.1562 1.84515,2.0668 5.1416,3.5092 10.844,3.75 5.2452,0.21862 7.2625,-1.4057 10.406,-4.2812 1.9129,-1.75 2.6859,-2.7974 3,-3.875 0.3141,-1.0776 0.18093,-2.3819 0.0312,-4.625 -0.0507,-0.7503 -0.0791,-1.1264 -0.125,-1.25 -0.0459,-0.1236 -0.14556,-0.25822 -0.6875,-0.6875 -1.1125,-0.88283 -1.6665,-1.2577 -2.125,-1.3438 -0.4585,-0.0861 -1.1031,0.0751 -2.5,0.5625 -0.51306,0.17828 -0.56279,0.2277 -0.625,0.3125 -0.0622,0.0848 -0.18798,0.41165 -0.4375,1 -0.60591,1.4262 -1.0749,3.2546 -2,4.8125 -0.9251,1.5579 -2.5146,2.8349 -4.875,2.7812 -2.3962,-0.0541 -4.0516,-0.63153 -5.0312,-1.8438 -0.9796,-1.21227 -1.1562,-2.8246 -1.1562,-4.6562 10e-6,-1.1787 0,-2.3854 0,-3.5625 10e-6,-3.4449 0.3635,-5.5112 1.3438,-7.3438 0.9803,-1.8326 2.4649,-3.3315 4.625,-5.9375 0.84487,-1.0187 1.6259,-1.801 2.4062,-2.3438 0.7803,-0.5428 1.6114,-0.84876 2.4688,-0.8125 1.7147,0.0725 3.1588,1.3257 5,3.3125 1.6199,1.7461 3.5741,2.7188 5.6875,2.7188 2.5289,0 4.8462,-1.419 6.5938,-3.8438 1.7476,-2.4248 2.875,-5.837 2.875,-9.625 0,-3.788 -1.1274,-7.2003 -2.875,-9.625 -1.7476,-2.4247 -4.0649,-3.8438 -6.5938,-3.8438 -2.4528,0 -4.7095,1.3296 -6.4375,3.625 -0.14633,0.19915 -0.37254,0.32422 -0.61901,0.34225 -0.24647,0.018 -0.48848,-0.0728 -0.66224,-0.2485 -3.9079,-4.0301 -6.6348,-6.0136 -9.7812,-6.25 -3.1464,-0.2364 -7.0273,1.2874 -13.125,4.875 -1.9521,1.1488 -4.1498,2.3802 -6.75,3.5312 -5.6918,2.5184 -10.169,4.355 -14.969,4.8438 -4.8,0.4888 -9.8462,-0.40854 -16.625,-3.2188 -11.518,-4.7742 -22.383,-10.851 -36.688,-17.344 -23.301,-10.576 -35.313,-10.042 -56.656,-5.375 -8.9014,1.9468 -17.651,4.8206 -28.281,9.625 -0.10898,0.0446 -0.22606,0.0658 -0.34375,0.0625 h -32.719 c -0.11769,0.003 -0.23477,-0.0179 -0.34375,-0.0625 -10.63,-4.8044 -19.382,-7.6782 -28.281,-9.625 -9.3362,-2.0416 -16.921,-3.2449 -24.406,-3.125 z"
       fill="url(#l)"
       id="path61"
       style="fill:url(#l)" />
  </g>
  <path
     d="m 167.09849,70.457449 c -4.40223,0 -7.90608,4.091279 -7.90609,9.045709 0,3.304939 1.5676,6.181095 3.91743,7.76364 v 4.458751 c -0.53371,0.62524 -1.07236,1.250005 -1.6097,1.880368 -1.22717,1.441109 -1.83977,2.40492 -2.1083,3.504322 -0.26853,1.099402 -0.19942,2.233398 -0.19943,4.102621 0,7.16293 1e-5,14.33342 0,21.49602 3e-4,0.30671 0.24886,0.55527 0.55556,0.55557 h 2.77782 c -0.48399,0.5818 -0.83452,1.22954 -0.98292,1.95159 -0.22477,1.09367 -0.19943,2.29317 -0.19943,3.53281 0,1.23362 -0.0468,2.39919 0.1567,3.47583 0.13446,0.71126 0.47351,1.35892 0.94018,1.93735 h -2.69235 c -0.3067,3e-4 -0.55526,0.24886 -0.55556,0.55557 v 188.74904 c -1.4e-4,0.25765 0.17671,0.48167 0.42736,0.54132 0.32065,0.0749 0.6486,0.13334 0.96867,0.19943 l -6.49581,7.1511 c -0.18838,0.21099 -0.18838,0.52976 0,0.74075 l 7.35052,8.43316 c 0.0655,0.0726 0.14908,0.12668 0.24217,0.1567 2.01992,0.64111 3.39893,0.89745 5.44167,0.89745 1.53501,-10e-6 3.71585,-0.3591 5.25649,-0.89745 0.0947,-0.034 0.1784,-0.0931 0.24217,-0.17094 l 7.22232,-8.43317 c 0.176,-0.21222 0.16993,-0.52135 -0.0142,-0.7265 l -6.38186,-7.16534 c 0.36903,-0.06 0.74219,-0.11894 1.11113,-0.18519 0.26196,-0.048 0.45312,-0.27501 0.45584,-0.54132 V 134.7176 c -3e-4,-0.30671 -0.24886,-0.55527 -0.55556,-0.55557 h -2.57838 c 0.44574,-0.58683 0.75642,-1.23873 0.84046,-1.95159 0.12696,-1.07693 0,-2.24547 0,-3.46159 0,-1.22206 0.10588,-2.41009 -0.0427,-3.50432 -0.0965,-0.71057 -0.35135,-1.39726 -0.79773,-1.98008 h 2.57838 c 0.30671,-3e-4 0.55527,-0.24886 0.55557,-0.55557 v -21.49602 c 0,-1.883523 0.0606,-3.023358 -0.21368,-4.116866 -0.27364,-1.090933 -0.87459,-2.061804 -2.12254,-3.504322 -0.5505,-0.635879 -1.1051,-1.26394 -1.65244,-1.894613 v -4.387525 c 2.38393,-1.573237 3.98866,-4.472614 3.98866,-7.806376 0,-4.955414 -3.51884,-9.045709 -7.92034,-9.045709 z m -3.86045,16.923311 c 0.0113,0.0072 0.0172,0.02133 0.0285,0.02849 -0.008,-0.0074 -0.0208,-0.0062 -0.0285,-0.01422 -6e-5,-0.0047 -6e-5,-0.0095 0,-0.01422 z m 7.63543,0.05698 c -0.0131,0.01185 -0.0139,0.03241 -0.0285,0.04271 l -0.0142,-0.01422 z m -7.59269,35.04322 c 0.005,-0.005 0.0231,0.005 0.0285,0 -0.0121,0.008 -0.0166,0.0204 -0.0285,0.0285 0.005,-0.006 -0.005,-0.0232 0,-0.0285 z m 7.92033,12.43607 -0.0142,0.0285 c -0.008,0.008 -0.0203,0.007 -0.0285,0.0142 0.0183,-0.0126 0.0248,-0.03 0.0427,-0.0427 z"
     fill="#808080"
     id="path65"
     style="stroke-width:0.455847" />
  <path
     d="m 167.09835,70.914256 c -4.1195,0 -7.45029,3.847337 -7.45029,8.589875 0,3.267972 1.58281,6.113119 3.91741,7.564286 v 4.814865 c -0.57168,0.6716 -1.15118,1.33692 -1.7237,2.008633 -2.4232,2.845648 -2.19383,3.566039 -2.19383,7.322025 v 21.59544 h 3.9602 c -1.94081,1.23016 -1.80917,3.45217 -1.80917,5.94031 0,2.48815 -0.18145,4.62592 1.69518,5.86911 h -3.84621 v 188.93821 c 0.60697,0.14286 1.20219,0.26902 1.80917,0.37039 l -7.0799,7.80641 7.42176,8.51868 c 2.01639,0.64179 3.30977,0.88321 5.32779,0.88321 1.47231,-10e-6 3.67115,-0.36161 5.14258,-0.88321 l 7.29363,-8.51868 -6.99443,-7.84921 c 0.6643,-0.0957 1.33003,-0.20762 1.99437,-0.32765 V 134.61874 h -3.70381 c 1.87661,-1.24313 1.41024,-3.38096 1.41024,-5.86911 0,-2.48814 0.41576,-4.71013 -1.52424,-5.94031 h 3.81781 v -21.59544 c 0,-3.781266 0.22562,-4.476004 -2.23651,-7.322027 -0.58143,-0.671601 -1.17074,-1.337046 -1.75211,-2.008634 v -4.772195 c 2.3704,-1.438528 3.98874,-4.308577 3.98874,-7.606956 0,-4.742538 -3.3458,-8.589875 -7.46455,-8.589875 z"
     fill="#b2b2b2"
     id="path67"
     style="stroke-width:1.25133" />
  <path
     transform="matrix(0.45584675,0,0,0.45584675,-10.311362,17.849885)"
     d="m 389.19,117.78 c -8.1829,0 -14.969,7.7072 -14.969,17.469 0,6.726 3.2627,12.532 7.9375,15.438 0.40336,0.2466 0.65133,0.68351 0.65625,1.1562 v 10.562 c -0.008,0.32305 -0.12969,0.63292 -0.34375,0.875 -1.2608,1.4812 -2.5317,2.9403 -3.7812,4.4062 -2.607,3.0614 -3.6224,4.7892 -4.0938,6.7188 -0.4714,1.9296 -0.37499,4.321 -0.375,8.4688 0,15.328 10e-6,30.672 0,46 h 7.3125 c 0.61365,-0.007 1.1576,0.39369 1.3319,0.9821 0.1743,0.58841 -0.0633,1.221 -0.5819,1.5492 -1.8015,1.1418 -2.5876,2.5871 -3,4.5938 -0.4124,2.0067 -0.34375,4.528 -0.34375,7.2812 0,2.7624 -0.0906,5.252 0.28125,7.2188 0.37182,1.9668 1.0729,3.3476 2.8125,4.5 0.51861,0.32812 0.75624,0.96074 0.5819,1.5492 -0.17434,0.58846 -0.71825,0.98947 -1.3319,0.9821 h -7.0625 v 411.97 c 0.941,0.20794 1.8739,0.437 2.8125,0.59375 0.48914,0.0816 0.89616,0.42085 1.0646,0.88727 0.16844,0.46642 0.072,0.98743 -0.25209,1.3627 l -14.719,16.25 15.188,17.438 c 4.1228,1.2915 6.7517,1.7812 10.938,1.7812 2.9191,-2e-5 7.4787,-0.76036 10.5,-1.7812 l 14.969,-17.438 -14.562,-16.344 c -0.32516,-0.37966 -0.4181,-0.90613 -0.24259,-1.3742 0.17551,-0.46807 0.59171,-0.80359 1.0863,-0.87583 1.0614,-0.15293 2.1195,-0.34615 3.1875,-0.53125 v -411.94 h -6.75 c -0.61365,0.007 -1.1576,-0.39369 -1.3319,-0.9821 -0.1743,-0.58841 0.0633,-1.221 0.5819,-1.5492 1.713,-1.1347 2.2366,-2.437 2.4688,-4.4062 0.2322,-1.9692 0,-4.4977 0,-7.3125 0,-2.8148 0.21021,-5.3669 -0.0625,-7.375 -0.27271,-2.0081 -0.88126,-3.3745 -2.6562,-4.5 -0.51861,-0.32812 -0.75624,-0.96074 -0.5819,-1.5492 0.17434,-0.58846 0.71825,-0.98947 1.3319,-0.9821 h 7 v -46 c 0,-4.1747 0.106,-6.5511 -0.375,-8.4688 -0.481,-1.9177 -1.5366,-3.6233 -4.1875,-6.6875 -1.2687,-1.4655 -2.5615,-2.9252 -3.8438,-4.4062 -0.22103,-0.2502 -0.34324,-0.5724 -0.34375,-0.90625 v -10.469 c -0.006,-0.48387 0.24339,-0.9351 0.65625,-1.1875 4.7448,-2.8796 8.0938,-8.713 8.0938,-15.5 0,-9.7586 -6.819,-17.469 -15,-17.469 z"
     fill="url(#k)"
     filter="url(#o)"
     id="path69"
     style="fill:url(#k)" />
  <path
     d="m 128.83,218.31 5.0838,-5.9354 c -6.754,1.0763 -10.805,1.0763 -17.559,0 l 5.175,5.9354 c 1.4063,0.44763 2.3102,0.61584 3.7177,0.61584 1.0268,0 2.5561,-0.25203 3.5823,-0.61584 z"
     fill="url(#i)"
     filter="url(#n)"
     opacity="0.80345"
     id="path71"
     style="fill:url(#i)"
     transform="matrix(1.2513293,0,0,1.2513293,10.381871,66.581653)" />
  <g
     transform="matrix(1.4175058,0,0,1.4175058,-10.425233,50.637214)"
     id="g77">
    <path
       d="m 120.02233,48.31604 c 3.37734,0.52064 6.84804,0.48497 10.39232,0 0.73812,-0.101 0.78653,-0.1538 0.78653,0.59159 v 1.77552 c 0,0.69647 0.0921,0.57662 -0.61196,0.66298 -3.52186,0.43203 -7.04438,0.40603 -10.56689,0 -0.83035,-0.09571 -0.74499,0.0664 -0.74499,-0.75749 v -1.70445 c 0,-0.71158 0.0337,-0.56815 0.74499,-0.56815 z"
       id="path73" />
    <path
       transform="matrix(0.36429,0,0,0.36429,-16.537,-38.944)"
       d="m 404.59375,239.875 c -0.26113,0.0187 -0.64425,0.0862 -1.15625,0.15625 -9.74758,1.33379 -19.25715,1.4276 -28.5625,0 h -0.0625 c -0.4653,-0.002 -0.84231,-0.0258 -1.09375,-0.0312 -0.2658,-0.006 -0.3955,0.0423 -0.375,0.0312 0.0205,-0.0111 0.029,-0.0753 0,0.0937 -0.029,0.16909 -0.0312,0.48509 -0.0312,0.96875 0,1.5596 -10e-6,3.1279 0,4.6875 0,0.57335 -0.013,0.98156 0,1.21875 0.013,0.23719 0.0385,0.22089 0,0.1875 -0.0385,-0.0334 0.0336,0.004 0.3125,0.0312 0.27892,0.0269 0.7271,0.0575 1.3125,0.125 9.63443,1.11054 19.24943,1.18077 28.875,0 0.49598,-0.0608 0.87194,-0.0655 1.09375,-0.0937 0.22181,-0.0282 0.24055,-0.0855 0.1875,-0.0312 -0.053,0.0543 -0.0374,0.0499 -0.0312,-0.15625 0.006,-0.20611 0,-0.54267 0,-1.03125 0,-1.62375 1e-5,-3.24949 0,-4.875 0,-0.50226 -0.0242,-0.8558 -0.0625,-1.0625 -0.0383,-0.2067 -0.0711,-0.22429 -0.0625,-0.21875 0.009,0.006 -0.0826,-0.0187 -0.34375,0 z"
       fill="url(#b)"
       id="path75"
       style="fill:url(#linearGradient960)" />
  </g>
  <path
     d="m 160.56933,87.392686 c 4.22616,0.651492 8.56915,0.60687 13.00421,0 0.92363,-0.126384 0.98421,-0.192454 0.98421,0.740274 v 2.221773 c 0,0.871513 0.11525,0.721541 -0.76576,0.829606 -4.40701,0.540612 -8.81484,0.508077 -13.22266,0 -1.03904,-0.119765 -0.93223,0.08309 -0.93223,-0.947869 v -2.132829 c 0,-0.890421 0.0422,-0.710942 0.93223,-0.710942 z"
     id="path79"
     style="stroke-width:1.25133" />
  <path
     d="m 174.12138,87.549007 c -0.11903,0.0085 -0.29368,0.03929 -0.52707,0.07123 -4.4434,0.608004 -8.77831,0.650767 -13.02012,0 h -0.0285 c -0.21211,-9.12e-4 -0.38397,-0.01176 -0.49859,-0.01422 -0.12116,-0.0027 -0.18028,0.01928 -0.17094,0.01422 0.009,-0.0051 0.0132,-0.03432 0,0.04271 -0.0132,0.07708 -0.0142,0.221126 -0.0142,0.441601 0,0.710939 -1e-5,1.425843 0,2.136782 0,0.26136 -0.006,0.447441 0,0.555563 0.006,0.108122 0.0175,0.100692 0,0.08547 -0.0175,-0.01522 0.0153,0.0018 0.14245,0.01422 0.12715,0.01226 0.33145,0.02621 0.5983,0.05698 4.39182,0.506236 8.77479,0.53825 13.16258,0 0.22609,-0.02772 0.39747,-0.02986 0.49858,-0.04271 0.10111,-0.01286 0.10965,-0.03898 0.0855,-0.01422 -0.0242,0.02475 -0.017,0.02275 -0.0142,-0.07123 0.003,-0.09395 0,-0.247374 0,-0.470092 0,-0.740181 0,-1.481269 0,-2.222253 0,-0.228953 -0.011,-0.390113 -0.0285,-0.484337 -0.0175,-0.09422 -0.0324,-0.102242 -0.0285,-0.09972 0.004,0.0027 -0.0377,-0.0085 -0.1567,0 z"
     fill="url(#b)"
     id="path81"
     style="fill:url(#linearGradient962);stroke-width:0.455847" />
  <path
     d="m 166.44766,71.821595 c -3.48846,0 -5.39498,3.026715 -5.51361,6.413062 -0.0458,1.003979 0.42807,1.960958 1.25433,2.532941 0.82627,0.571983 1.88889,0.678796 2.81249,0.2825 1.53013,-0.646311 3.11544,-1.39298 4.73153,-2.307201 0.69474,-0.395608 1.19681,-1.058862 1.38897,-1.834949 0.19217,-0.776087 0.0576,-1.596947 -0.37227,-2.271038 -0.75612,-1.210999 -1.88462,-2.815491 -4.30144,-2.815491 z"
     fill="url(#j)"
     fill-rule="evenodd"
     id="path83"
     style="fill:url(#j);stroke-width:1.25133" />
  <path
     d="m 160.06588,137.35934 v 186.41053 h 9.54139 V 137.35934 Z"
     fill="url(#f)"
     fill-rule="evenodd"
     id="path85"
     style="fill:url(#f);stroke-width:1.25133" />
  <g
     transform="matrix(1.4175058,0,0,1.4175058,-10.425233,65.360356)"
     id="g91">
    <path
       d="m 120.02233,48.31604 c 3.37734,0.52064 6.84804,0.48497 10.39232,0 0.73812,-0.101 0.78653,-0.1538 0.78653,0.59159 v 1.77552 c 0,0.69647 0.0921,0.57662 -0.61196,0.66298 -3.52186,0.43203 -7.04438,0.40603 -10.56689,0 -0.83035,-0.09571 -0.74499,0.0664 -0.74499,-0.75749 v -1.70445 c 0,-0.71158 0.0337,-0.56815 0.74499,-0.56815 z"
       id="path87" />
    <path
       transform="matrix(0.36429,0,0,0.36429,-16.537,-38.944)"
       d="m 404.59375,239.875 c -0.26113,0.0187 -0.64425,0.0862 -1.15625,0.15625 -9.74758,1.33379 -19.25715,1.4276 -28.5625,0 h -0.0625 c -0.4653,-0.002 -0.84231,-0.0258 -1.09375,-0.0312 -0.2658,-0.006 -0.3955,0.0423 -0.375,0.0312 0.0205,-0.0111 0.029,-0.0753 0,0.0937 -0.029,0.16909 -0.0312,0.48509 -0.0312,0.96875 0,1.5596 -10e-6,3.1279 0,4.6875 0,0.57335 -0.013,0.98156 0,1.21875 0.013,0.23719 0.0385,0.22089 0,0.1875 -0.0385,-0.0334 0.0336,0.004 0.3125,0.0312 0.27892,0.0269 0.7271,0.0575 1.3125,0.125 9.63443,1.11054 19.24943,1.18077 28.875,0 0.49598,-0.0608 0.87194,-0.0655 1.09375,-0.0937 0.22181,-0.0282 0.24055,-0.0855 0.1875,-0.0312 -0.053,0.0543 -0.0374,0.0499 -0.0312,-0.15625 0.006,-0.20611 0,-0.54267 0,-1.03125 0,-1.62375 1e-5,-3.24949 0,-4.875 0,-0.50226 -0.0242,-0.8558 -0.0625,-1.0625 -0.0383,-0.2067 -0.0711,-0.22429 -0.0625,-0.21875 0.009,0.006 -0.0826,-0.0187 -0.34375,0 z"
       fill="url(#b)"
       id="path89"
       style="fill:url(#linearGradient964)" />
  </g>
  <path
     d="m 163.70881,124.61205 c -0.91219,0.0774 -1.61091,0.84423 -1.60326,1.75968 v 3.63668 c 0.005,0.65539 0.37472,1.25338 0.95928,1.54978 0.58456,0.2964 1.2857,0.2416 1.8171,-0.14204 0.8096,-0.58442 1.69228,-1.17281 2.61997,-1.9552 0.39338,-0.33003 0.6221,-0.81607 0.62567,-1.32954 v -1.75968 c 0.002,-0.46738 -0.18244,-0.91626 -0.51293,-1.24675 -0.33049,-0.33049 -0.77937,-0.51517 -1.24675,-0.51293 h -2.50266 z"
     fill="url(#h)"
     fill-rule="evenodd"
     id="path93"
     style="fill:url(#h);stroke-width:1.25133" />
  <path
     d="m 166.03944,92.601469 c -0.83441,0.02082 -1.74418,0.563512 -1.91049,0.703873 -0.78833,0.671814 -1.81912,1.44466 -2.84352,2.541763 -0.0354,0.03746 -0.65851,0.58571 -0.66645,1.603266 v 17.049359 c -0.003,0.57444 -0.21848,0.9028 0.84417,1.83789 1.06266,0.9351 1.43527,0.74503 2.08821,0.74298 h 2.57694 c 0.65302,0.002 1.02679,0.19125 2.08821,-0.74298 1.06143,-0.93423 0.84638,-1.26345 0.84418,-1.83789 V 95.182336 l -0.0889,-0.625665 c -1e-4,-3.5e-4 -0.0668,-0.181955 -0.0889,-0.234624 l -0.0889,-0.19552 c -0.0437,-0.08186 -0.0674,-0.08295 -0.0889,-0.117312 -0.0431,-0.06874 -0.0519,-0.144353 -0.0889,-0.19552 -0.0739,-0.102334 -0.0799,-0.159232 -0.48873,-0.508353 0.24911,0.212676 0.49156,0.318689 -0.26658,-0.19552 -0.75813,-0.514209 -1.6102,-0.514759 -1.82163,-0.508353 z"
     fill="url(#g)"
     fill-rule="evenodd"
     id="path95"
     style="fill:url(#g);stroke-width:1.33383" />
  <path
     d="m 65.938387,163.27812 c 3.34368,0 4.41257,0 7.31352,-3.13283 1.48433,-4.09672 3.45192,-4.09672 6.32547,-4.09672 2.87355,0 4.84114,0 6.32547,4.09672 2.90071,3.13283 3.97022,3.13283 7.3134,3.13283 2.50929,-2.88369 2.56122,-4.01501 -0.32482,-5.78414 -1.62573,0 -1.62573,0 -1.62573,1.36607 -3.40662,0.0569 -3.43177,0.0537 -3.81906,-0.9639 l -3.54451,-22.36625 c -0.0808,-0.76839 -0.34351,-0.76839 -0.96895,-0.78546 l -0.68708,0.0171 -0.67693,-6.62804 c -0.13569,-1.32479 -0.13569,-1.32479 -1.06744,-1.32479 h -1.84847 c -0.93182,0 -0.93182,0 -1.06752,1.32479 l -0.67693,6.62804 -0.68699,-0.0171 c -0.62544,0.0171 -0.88823,0.0171 -0.96902,0.78546 l -3.54477,22.36625 c -0.38751,1.01758 -0.41227,1.02079 -3.81905,0.9639 0,-1.36607 0,-1.36607 -1.62523,-1.36607 -2.88657,1.76912 -2.83401,2.90045 -0.32514,5.78414 z"
     fill="#c5b37b"
     id="path97"
     style="stroke-width:1.25133" />
  <path
     d="m 78.149177,127.19292 c 0.006,-0.008 -0.0884,0.31403 -0.15642,0.9776 l -0.70387,6.64768 c -0.008,0.0711 -0.0347,0.13875 -0.0782,0.19552 -0.0413,0.0517 -0.0952,0.0921 -0.15642,0.11732 -0.0613,0.0252 -0.12806,0.0432 -0.19552,0.0391 l -0.62566,-0.0391 h -0.0391 c -0.26615,0.011 -0.41426,0.0292 -0.43015,0.0391 -0.0159,0.01 -0.0817,0.0521 -0.11731,0.39104 6.5e-4,0.013 6.5e-4,0.0261 0,0.0391 l -3.55847,22.36751 -0.0391,0.0782 c -0.0967,0.25399 -0.1559,0.45508 -0.31283,0.66476 -0.15693,0.20969 -0.40896,0.3528 -0.70387,0.43015 -0.58983,0.1547 -1.42428,0.14577 -3.12833,0.11731 -0.10378,2.4e-4 -0.20339,-0.0409 -0.27676,-0.11427 -0.0734,-0.0734 -0.11451,-0.17298 -0.11428,-0.27677 0,-0.34071 -0.0185,-0.59646 -0.0391,-0.74298 -0.0206,-0.14651 -0.0326,-0.15107 -0.0391,-0.15641 -0.006,-0.005 -0.0754,-0.0596 -0.27372,-0.0782 -0.16387,-0.0154 -0.43752,8e-4 -0.74298,0 -0.67432,0.41745 -1.17626,0.79034 -1.48595,1.13401 -0.31879,0.35377 -0.45742,0.64689 -0.46925,0.97761 -0.023,0.64084 0.56134,1.5421 1.72057,2.89369 1.51555,-0.002 2.53132,-0.0128 3.44116,-0.35193 0.95299,-0.35523 1.91546,-1.10509 3.32384,-2.61997 0.006,-0.0173 0.0326,-0.022 0.0391,-0.0391 0.74884,-1.9872 1.62335,-3.12428 2.73729,-3.67578 1.14673,-0.56773 2.43416,-0.54746 3.8713,-0.54746 1.43714,0 2.69466,-0.0211 3.83219,0.54746 1.105,0.55226 1.98945,1.68954 2.73729,3.67578 l 0.0391,0.0391 c 1.40829,1.51487 2.37076,2.26473 3.32384,2.61997 0.90992,0.33914 1.92581,0.35032 3.44115,0.35193 1.15939,-1.35158 1.74362,-2.25285 1.72058,-2.89369 -0.0119,-0.33072 -0.15044,-0.62383 -0.46925,-0.97761 -0.30971,-0.34369 -0.81176,-0.71656 -1.48595,-1.13401 -0.30555,8e-4 -0.5791,-0.0154 -0.74298,0 -0.19837,0.0186 -0.26731,0.0729 -0.27372,0.0782 -0.006,0.005 -0.0186,0.01 -0.0391,0.15641 -0.0205,0.14653 -0.0391,0.40224 -0.0391,0.74298 6e-5,0.0846 -0.0274,0.16697 -0.0782,0.23462 -0.0738,0.0986 -0.18972,0.15656 -0.31284,0.15642 -1.70392,0.0284 -2.53846,0.0374 -3.12832,-0.11731 -0.29493,-0.0773 -0.54692,-0.22045 -0.70387,-0.43015 -0.15696,-0.20969 -0.21615,-0.41074 -0.31284,-0.66476 -0.0159,-0.0245 -0.029,-0.0508 -0.0391,-0.0782 l -3.55848,-22.36751 c -6.5e-4,-0.013 -6.5e-4,-0.0261 0,-0.0391 -0.0356,-0.33896 -0.1,-0.38024 -0.11731,-0.39104 -0.0173,-0.0108 -0.164,-0.0281 -0.43015,-0.0391 h -0.0391 l -0.62566,0.0391 c -0.1166,0.01 -0.23142,-0.0333 -0.31283,-0.11731 -0.065,-0.0623 -0.10647,-0.14521 -0.11731,-0.23462 l -0.70388,-6.64769 c -0.068,-0.66355 -0.16242,-0.98528 -0.15641,-0.9776 0.003,0.004 0.0407,0.0128 -0.0391,0 -0.0798,-0.0128 -0.23664,0 -0.46925,0 h -0.8994 -0.9385 c -0.23262,0 -0.38944,-0.0128 -0.46925,0 -0.0798,0.0128 -0.0421,0.004 -0.0391,0 z"
     fill="#a0a0a0"
     fill-opacity="0.23228"
     id="path99"
     style="stroke-width:1.25133" />
  <path
     d="m 79.433467,135.17344 c -0.32319,0.0462 -0.60415,0.25178 -0.75499,0.54132 -0.22856,0.43108 -0.59857,0.76639 -1.05415,0.94018 -0.34638,0.12274 -0.59418,0.42112 -0.65528,0.78349 l -2.50716,15.89765 c -6e-5,0.005 -6e-5,0.01 0,0.0142 -0.0466,0.33651 0.086,0.68655 0.35613,0.9117 0.27017,0.22514 0.6289,0.29743 0.96868,0.18519 h 0.0142 c 1.31565,-0.44573 2.55413,-0.41312 3.77498,-0.41312 1.22085,0 2.45931,-0.0326 3.77498,0.41312 h 0.0143 c 0.33977,0.11224 0.69851,0.0399 0.96867,-0.18519 0.27017,-0.22514 0.40278,-0.57519 0.35613,-0.9117 6e-5,-0.005 6e-5,-0.01 0,-0.0142 l -2.50715,-15.91189 c -0.0611,-0.36238 -0.32315,-0.675 -0.66953,-0.79774 -0.45513,-0.17186 -0.82409,-0.49896 -1.05414,-0.92593 -0.1935,-0.36724 -0.58456,-0.57231 -0.99717,-0.52708 z"
     fill="#bc955d"
     id="path101"
     style="stroke-width:0.455847" />
  <path
     d="m 79.478707,136.34326 c -0.29427,0.0205 -0.57157,0.14529 -0.78208,0.35194 -0.28128,0.26438 -0.3758,0.3673 -0.35193,0.35193 -0.29747,0.19494 -0.49686,0.50827 -0.54746,0.86029 l -1.21222,7.50798 c -0.068,0.49193 0.16421,0.97696 0.59005,1.23247 0.42584,0.25551 0.96308,0.23214 1.36515,-0.0594 1.01902,-0.79445 2.08023,-1.46417 3.24563,-2.50266 0.31678,-0.28555 0.46448,-0.71391 0.39104,-1.13402 l -0.82118,-5.04442 c -0.0506,-0.35202 -0.24999,-0.66535 -0.54746,-0.86029 -0.007,-0.005 -0.16109,-0.14798 -0.43014,-0.39104 -0.24618,-0.21988 -0.56991,-0.33247 -0.8994,-0.31283 z"
     fill="url(#d)"
     id="path103"
     style="fill:url(#linearGradient966);stroke-width:1.25133" />
  <path
     d="m 88.980997,158.0069 c -0.36402,0.0214 -0.69228,0.28654 -0.62567,0.74297 l 56.427133,139.87516 c -6.94802,-1.91666 -32.97302,-7.54708 -64.208833,-7.54708 -31.65255,0 -58.084957,4.11643 -64.599878,6.96052 L 70.562987,158.78898 c -0.0729,-0.63987 -1.43183,-0.5232 -1.60326,0.11731 L 14.370483,299.13338 c 0.0017,0.0463 0.03247,0.0743 0.0391,0.11725 0.02137,0.13872 0.08772,0.24476 0.156417,0.35194 0.07715,0.12038 0.145304,0.22666 0.273728,0.31283 0.03544,0.0238 0.07841,0.0568 0.117312,0.0782 0.0046,0.004 -0.0046,0.0355 0,0.039 11.773607,15.70453 31.839827,31.12682 65.694797,31.12682 27.109063,10e-6 55.448873,-11.00525 66.124923,-31.9089 h -0.039 L 89.958597,158.74987 c -0.185,-0.5588 -0.61359,-0.76437 -0.9776,-0.74297 z"
     fill="#181818"
     id="path105"
     style="stroke-width:1.25133" />
  <path
     d="m 80.575367,292.63886 c -18.19285,0 -34.67581,1.36932 -46.56931,3.06275 -5.946063,0.84669 -10.752967,1.78486 -14.003154,2.64961 -1.368543,0.36415 -2.282379,0.70478 -3.034207,1.01143 0.762449,0.39735 1.743523,0.84108 3.162437,1.35332 3.248273,1.17262 8.040225,2.52411 13.974434,3.78922 11.86843,2.53027 28.32313,4.74354 46.46902,4.74354 18.11262,0 34.551813,-2.75901 46.441663,-5.56999 5.94379,-1.40542 10.75434,-2.82803 14.06014,-3.91745 0.34953,-0.1152 0.4822,-0.17747 0.79773,-0.28491 -0.27,-0.0653 -0.37561,-0.10196 -0.66955,-0.17094 -3.31236,-0.7774 -8.13321,-1.77685 -14.0884,-2.76357 -11.91036,-1.97345 -28.378273,-3.90319 -46.537383,-3.90319 z"
     fill="url(#c)"
     id="path107"
     style="fill:url(#radialGradient968);stroke-width:0.455847" />
  <g
     transform="matrix(1.2513293,0,0,1.2513293,185.36776,66.581653)"
     id="g121">
    <path
       d="m 44.398,77.275 c 2.6721,0 3.5263,0 5.8446,-2.5036 1.1862,-3.2739 2.7586,-3.2739 5.055,-3.2739 2.2964,0 3.8688,0 5.055,3.2739 2.3181,2.5036 3.1728,2.5036 5.8445,2.5036 2.0053,-2.3045 2.0468,-3.2086 -0.25958,-4.6224 -1.2992,0 -1.2992,0 -1.2992,1.0917 -2.7224,0.04546 -2.7425,0.0429 -3.052,-0.7703 L 58.75372,55.1 c -0.06457,-0.61406 -0.27451,-0.61406 -0.77433,-0.6277 l -0.54908,0.01364 -0.54097,-5.2968 c -0.10844,-1.0587 -0.10844,-1.0587 -0.85305,-1.0587 h -1.4772 c -0.74467,0 -0.74467,0 -0.85311,1.0587 L 53.16501,54.48594 52.616,54.4723 c -0.49982,0.01364 -0.70983,0.01364 -0.77439,0.6277 l -2.8328,17.874 c -0.30968,0.8132 -0.32947,0.81576 -3.052,0.7703 0,-1.0917 0,-1.0917 -1.2988,-1.0917 -2.3068,1.4138 -2.2648,2.3179 -0.25984,4.6224 z"
       fill="#c5b37b"
       id="path109" />
    <path
       d="m 54.15625,48.4375 c 0.0048,-0.0061 -0.07068,0.25096 -0.125,0.78125 l -0.5625,5.3125 c -0.0061,0.05683 -0.02774,0.11088 -0.0625,0.15625 -0.03303,0.04135 -0.07605,0.07362 -0.125,0.09375 -0.04895,0.02013 -0.10234,0.03454 -0.15625,0.03125 l -0.5,-0.03125 h -0.03125 c -0.21269,0.0088 -0.33105,0.02334 -0.34375,0.03125 -0.0127,0.0079 -0.06527,0.04161 -0.09375,0.3125 5.2e-4,0.01041 5.2e-4,0.02084 0,0.03125 l -2.84375,17.875 -0.03125,0.0625 c -0.0773,0.20298 -0.12459,0.36368 -0.25,0.53125 -0.12541,0.16757 -0.32682,0.28194 -0.5625,0.34375 -0.47136,0.12363 -1.13821,0.11649 -2.5,0.09375 -0.08294,1.9e-4 -0.16254,-0.03267 -0.22118,-0.09132 -0.05864,-0.05865 -0.09151,-0.13824 -0.09132,-0.22118 0,-0.27228 -0.01481,-0.47666 -0.03125,-0.59375 -0.01644,-0.11709 -0.02608,-0.12073 -0.03125,-0.125 -0.0052,-0.0043 -0.06024,-0.04764 -0.21875,-0.0625 -0.13095,-0.01228 -0.34964,6.4e-4 -0.59375,0 -0.53888,0.33361 -0.94001,0.6316 -1.1875,0.90625 -0.25476,0.28271 -0.36554,0.51696 -0.375,0.78125 -0.01834,0.51213 0.4486,1.23237 1.375,2.3125 1.21115,-0.0013 2.0229,-0.01022 2.75,-0.28125 0.76158,-0.28388 1.53074,-0.88313 2.65625,-2.09375 0.0051,-0.01381 0.02609,-0.01755 0.03125,-0.03125 0.59843,-1.58807 1.2973,-2.49677 2.1875,-2.9375 0.91641,-0.4537 1.94526,-0.4375 3.09375,-0.4375 1.14849,0 2.15344,-0.01683 3.0625,0.4375 0.88306,0.44134 1.58987,1.3502 2.1875,2.9375 l 0.03125,0.03125 c 1.12544,1.21061 1.8946,1.80986 2.65625,2.09375 0.72716,0.27103 1.53901,0.27996 2.75,0.28125 0.92652,-1.08012 1.39341,-1.80037 1.375,-2.3125 C 67.3655,74.39196 67.25477,74.15772 67,73.875 c -0.24751,-0.27466 -0.64872,-0.57264 -1.1875,-0.90625 -0.24418,6.4e-4 -0.46279,-0.01228 -0.59375,0 -0.15853,0.01486 -0.21362,0.05826 -0.21875,0.0625 -0.0051,0.0042 -0.01484,0.0079 -0.03125,0.125 -0.01641,0.1171 -0.03125,0.32145 -0.03125,0.59375 5e-5,0.06762 -0.02188,0.13343 -0.0625,0.1875 -0.05894,0.07878 -0.15161,0.12511 -0.25,0.125 -1.36169,0.02274 -2.02861,0.02987 -2.5,-0.09375 -0.23569,-0.06181 -0.43707,-0.17617 -0.5625,-0.34375 -0.12543,-0.16758 -0.17273,-0.32825 -0.25,-0.53125 -0.01273,-0.0196 -0.02321,-0.04056 -0.03125,-0.0625 l -2.84375,-17.875 c -5.2e-4,-0.01041 -5.2e-4,-0.02084 0,-0.03125 C 58.40902,54.85412 58.35759,54.82113 58.34375,54.8125 58.32991,54.80387 58.21269,54.79005 58,54.78125 h -0.03125 l -0.5,0.03125 c -0.09318,0.0078 -0.18494,-0.02659 -0.25,-0.09375 C 57.1668,54.66894 57.13367,54.6027 57.125,54.53125 l -0.5625,-5.3125 c -0.05432,-0.53028 -0.1298,-0.78739 -0.125,-0.78125 0.0024,0.0031 0.03252,0.01021 -0.03125,0 -0.06377,-0.01021 -0.18911,0 -0.375,0 h -0.71875 -0.75 c -0.1859,0 -0.31122,-0.01021 -0.375,0 -0.06378,0.01021 -0.03366,0.0031 -0.03125,0 z"
       fill="#a0a0a0"
       fill-opacity="0.23228"
       id="path111" />
    <path
       transform="matrix(0.36429,0,0,0.36429,-16.537,-38.944)"
       d="m 196.875,257.375 c -0.709,0.10143 -1.32533,0.55232 -1.65625,1.1875 -0.50139,0.94567 -1.31309,1.68124 -2.3125,2.0625 -0.75985,0.26925 -1.30346,0.92381 -1.4375,1.71875 l -5.5,34.875 c -1.3e-4,0.0104 -1.3e-4,0.0208 0,0.0312 -0.10232,0.73819 0.18857,1.5061 0.78125,2 0.59268,0.4939 1.37963,0.65248 2.125,0.40625 h 0.0312 c 2.88617,-0.97779 5.60304,-0.90625 8.28125,-0.90625 2.67821,0 5.39505,-0.0715 8.28125,0.90625 H 205.5 c 0.74537,0.24623 1.53233,0.0876 2.125,-0.40625 0.59267,-0.49389 0.88357,-1.26181 0.78125,-2 1.3e-4,-0.0104 1.3e-4,-0.0208 0,-0.0312 l -5.5,-34.90625 c -0.13404,-0.79494 -0.7089,-1.48075 -1.46875,-1.75 -0.99843,-0.37703 -1.80782,-1.09459 -2.3125,-2.03125 -0.42448,-0.80561 -1.28235,-1.25547 -2.1875,-1.15625 z"
       fill="#bc955d"
       id="path113" />
    <path
       d="m 55.21875,55.75 c -0.23517,0.01639 -0.45677,0.11611 -0.625,0.28125 -0.22479,0.21128 -0.30032,0.29353 -0.28125,0.28125 C 54.07478,56.46828 53.91544,56.71868 53.875,57 l -0.96875,6 c -0.05434,0.39313 0.13123,0.78074 0.47154,0.98493 0.34031,0.20419 0.76965,0.18552 1.09096,-0.04743 0.81435,-0.63488 1.66242,-1.17009 2.59375,-2 0.25315,-0.2282 0.37119,-0.57052 0.3125,-0.90625 L 56.71875,57 C 56.67831,56.71868 56.51897,56.46828 56.28125,56.3125 56.27529,56.30884 56.15251,56.19424 55.9375,56 55.74077,55.82428 55.48206,55.7343 55.21875,55.75 Z"
       fill="url(#d)"
       id="path115"
       style="fill:url(#d)" />
    <path
       d="m 62.8125,73.0625 c -0.2909,0.0171 -0.55323,0.22899 -0.5,0.59375 l 45.09375,111.78125 c -5.55251,-1.5317 -26.3504,-6.03125 -51.3125,-6.03125 -25.29514,0 -46.4186,3.28965 -51.625,5.5625 L 48.09375,73.6875 C 48.03547,73.17615 46.9495,73.26939 46.8125,73.78125 l -43.625,112.0625 c 0.00134,0.037 0.02595,0.0594 0.03125,0.0937 0.01708,0.11086 0.0701,0.1956 0.125,0.28125 0.06165,0.0962 0.11612,0.18114 0.21875,0.25 0.02832,0.019 0.06266,0.0454 0.09375,0.0625 0.00365,0.003 -0.0037,0.0284 0,0.0312 9.40888,12.55028 25.4448,24.875 52.5,24.875 21.66421,1e-5 44.31198,-8.79484 52.84375,-25.5 h -0.0312 L 63.59375,73.65625 C 63.44591,73.20968 63.1034,73.0454 62.8125,73.0625 Z"
       fill="#181818"
       id="path117" />
    <path
       transform="matrix(0.36429,0,0,0.36429,-16.537,-38.944)"
       d="m 199.38,602.81 c -39.91,0 -76.069,3.0039 -102.16,6.7188 -13.044,1.8574 -23.589,3.9155 -30.719,5.8125 -3.0022,0.79886 -5.0069,1.5461 -6.6562,2.2188 1.6726,0.87167 3.8248,1.8451 6.9375,2.9688 7.1258,2.5724 17.638,5.5372 30.656,8.3125 26.036,5.5507 62.133,10.406 101.94,10.406 39.734,0 75.797,-6.0525 101.88,-12.219 13.039,-3.0831 23.592,-6.2039 30.844,-8.5938 0.76676,-0.2527 1.0578,-0.38931 1.75,-0.625 -0.59232,-0.1433 -0.82399,-0.22367 -1.4688,-0.375 -7.2664,-1.7054 -17.842,-3.8979 -30.906,-6.0625 -26.128,-4.3292 -62.254,-8.5625 -102.09,-8.5625 z"
       fill="url(#c)"
       id="path119"
       style="fill:url(#radialGradient970)" />
  </g>
  <path
     d="m 162.41838,324.39303 c -0.58859,0.0597 -1.13308,0.33896 -1.52512,0.78208 l -4.57511,5.04436 c -0.79342,0.89184 -0.79342,2.2365 0,3.12832 l 3.71494,4.22324 c 0.50293,0.56305 1.24545,0.85061 1.99638,0.77319 0.75092,-0.0774 1.41925,-0.51043 1.79665,-1.16423 1.79979,-3.1541 2.56886,-7.04248 2.46362,-10.51893 -0.0458,-1.26359 -1.08186,-2.26503 -2.34624,-2.26803 z"
     fill="url(#m)"
     id="path123"
     style="fill:url(#m);stroke-width:1.25133" />
  <g
     transform="matrix(1.4175058,0,0,1.4175058,-10.425233,251.95357)"
     id="g129">
    <path
       d="m 120.02233,48.31604 c 3.37734,0.52064 6.84804,0.48497 10.39232,0 0.73812,-0.101 0.78653,-0.1538 0.78653,0.59159 v 1.77552 c 0,0.69647 0.0921,0.57662 -0.61196,0.66298 -3.52186,0.43203 -7.04438,0.40603 -10.56689,0 -0.83035,-0.09571 -0.74499,0.0664 -0.74499,-0.75749 v -1.70445 c 0,-0.71158 0.0337,-0.56815 0.74499,-0.56815 z"
       id="path125" />
    <path
       transform="matrix(0.36429,0,0,0.36429,-16.537,-38.944)"
       d="m 404.59375,239.875 c -0.26113,0.0187 -0.64425,0.0862 -1.15625,0.15625 -9.74758,1.33379 -19.25715,1.4276 -28.5625,0 h -0.0625 c -0.4653,-0.002 -0.84231,-0.0258 -1.09375,-0.0312 -0.2658,-0.006 -0.3955,0.0423 -0.375,0.0312 0.0205,-0.0111 0.029,-0.0753 0,0.0937 -0.029,0.16909 -0.0312,0.48509 -0.0312,0.96875 0,1.5596 -10e-6,3.1279 0,4.6875 0,0.57335 -0.013,0.98156 0,1.21875 0.013,0.23719 0.0385,0.22089 0,0.1875 -0.0385,-0.0334 0.0336,0.004 0.3125,0.0312 0.27892,0.0269 0.7271,0.0575 1.3125,0.125 9.63443,1.11054 19.24943,1.18077 28.875,0 0.49598,-0.0608 0.87194,-0.0655 1.09375,-0.0937 0.22181,-0.0282 0.24055,-0.0855 0.1875,-0.0312 -0.053,0.0543 -0.0374,0.0499 -0.0312,-0.15625 0.006,-0.20611 0,-0.54267 0,-1.03125 0,-1.62375 1e-5,-3.24949 0,-4.875 0,-0.50226 -0.0242,-0.8558 -0.0625,-1.0625 -0.0383,-0.2067 -0.0711,-0.22429 -0.0625,-0.21875 0.009,0.006 -0.0826,-0.0187 -0.34375,0 z"
       fill="url(#b)"
       id="path127"
       style="fill:url(#linearGradient972)" />
  </g>
</svg>
