<?xml version="1.0" encoding="UTF-8" standalone="no"?>
<!-- Created with Inkscape (http://www.inkscape.org/) -->

<svg
   width="125mm"
   height="88mm"
   viewBox="0 0 125 88"
   version="1.1"
   id="svg5"
   inkscape:version="1.2.2 (732a01da63, 2022-12-09)"
   xml:space="preserve"
   sodipodi:docname="shrimp.svg"
   xmlns:inkscape="http://www.inkscape.org/namespaces/inkscape"
   xmlns:sodipodi="http://sodipodi.sourceforge.net/DTD/sodipodi-0.dtd"
   xmlns:xlink="http://www.w3.org/1999/xlink"
   xmlns="http://www.w3.org/2000/svg"
   xmlns:svg="http://www.w3.org/2000/svg"><sodipodi:namedview
     id="namedview7"
     pagecolor="#f0f0f0"
     bordercolor="#ffffff"
     borderopacity="1"
     inkscape:showpageshadow="0"
     inkscape:pageopacity="0"
     inkscape:pagecheckerboard="0"
     inkscape:deskcolor="#505050"
     inkscape:document-units="mm"
     showgrid="true"
     inkscape:zoom="1.436055"
     inkscape:cx="196.71949"
     inkscape:cy="100.62289"
     inkscape:current-layer="layer1"><inkscape:grid
       type="xygrid"
       id="grid132"
       dotted="true"
       empspacing="10"
       units="mm"
       spacingx="1"
       spacingy="1"
       originx="-51.534493"
       originy="-159.19131" /></sodipodi:namedview><defs
     id="defs2"><linearGradient
       inkscape:collect="always"
       id="linearGradient982"><stop
         style="stop-color:#e01415;stop-opacity:1;"
         offset="0"
         id="stop978" /><stop
         style="stop-color:#fc3031;stop-opacity:1;"
         offset="0.5"
         id="stop2435" /><stop
         style="stop-color:#d40809;stop-opacity:1;"
         offset="1"
         id="stop980" /></linearGradient><linearGradient
       inkscape:collect="always"
       xlink:href="#linearGradient982"
       id="linearGradient984"
       x1="126.35482"
       y1="189.49655"
       x2="124.48873"
       y2="198.89296"
       gradientUnits="userSpaceOnUse"
       gradientTransform="matrix(1.1658032,0,0,1.1658032,-7.4862485,-21.631921)" /></defs><g
     inkscape:label="Layer 1"
     inkscape:groupmode="layer"
     id="layer1"
     transform="translate(-51.534494,-159.19132)"><path
       id="path3133"
       style="display:inline;fill:url(#linearGradient984);fill-opacity:1;stroke-width:0.0987047"
       d="m 53.095068,163.95385 c -0.03435,5.8e-4 -0.0661,0.0493 -0.127117,0.147 -0.1974,0.31602 -0.277053,0.97282 -0.335561,2.75859 -0.05628,1.71757 -0.0016,2.32962 0.362069,4.05205 0.913081,4.32429 3.003816,8.1288 6.508218,11.84287 2.769732,2.93545 6.072717,5.46518 10.303625,7.89083 1.66893,0.95682 4.815415,2.57237 5.675037,2.91403 0.25311,0.10061 0.807491,0.34372 1.231398,0.5404 2.755453,1.27844 9.628929,3.69682 13.146565,4.62557 0.108571,0.0287 0.66379,0.18471 1.233809,0.34641 0.570016,0.16169 1.880159,0.50046 2.911619,0.75306 1.03146,0.2526 1.95224,0.50213 2.046507,0.55424 0.09427,0.0521 0.227807,0.0943 0.296403,0.094 0.188007,-8.9e-4 3.162532,1.10031 3.332728,1.2338 0.188651,0.14798 0.646632,0.31309 1.072352,0.38677 0.21375,0.037 0.53189,0.24302 0.89343,0.57775 0.3777,0.34968 0.99614,0.74273 1.88867,1.20067 1.00881,0.51758 1.51679,0.85078 2.11699,1.38924 0.45634,0.4094 1.15425,0.90365 1.65312,1.17115 2.02268,1.08461 4.71701,2.46342 5.73708,2.93511 0.60406,0.27935 1.11095,0.51856 1.12657,0.53197 0.0156,0.0134 -0.0261,0.15214 -0.0934,0.30845 -0.0673,0.1563 -0.12539,0.29189 -0.12772,0.30122 -0.0316,0.10166 -4.73473,1.20629 -6.86427,1.61214 -0.84145,0.16036 -1.77443,0.36208 -2.07301,0.44823 -0.29858,0.0862 -0.63184,0.17988 -0.74041,0.20844 -1.45042,0.3817 -2.11902,0.7055 -2.81282,1.36032 -0.59942,0.56577 -1.490017,1.18513 -3.059822,2.12784 -0.570016,0.34231 -1.480739,0.91823 -2.023614,1.2802 -0.542876,0.36196 -1.542023,0.9423 -2.220614,1.28983 -1.010436,0.51748 -1.363459,0.75984 -1.949514,1.33924 -0.393581,0.38913 -0.715705,0.77937 -0.715705,0.86692 0,0.25862 0.335599,0.18232 0.647629,-0.147 0.494094,-0.52147 1.101622,-0.88168 2.497739,-1.48262 0.510505,-0.21974 0.951906,-0.40545 1.193444,-0.50364 l -0.05181,-0.13555 2.873063,-1.90614 3.570704,-2.49713 5.71901,-1.53022 6.04073,-1.5037 0.91269,-0.21507 0.83258,-0.8856 0.69824,0.42955 -0.32231,0.96632 -9.8807,2.30917 -2.71161,1.1814 -2.84596,1.34225 -3.382733,1.87962 -1.289233,0.99344 -0.116875,-0.30665 c -0.02316,0.0254 -0.04621,0.0511 -0.0729,0.0789 -0.290516,0.30324 -0.389862,0.85496 -0.511476,2.8321 -0.08775,1.42654 -0.327025,3.73712 -0.55184,5.32983 -0.732366,5.18851 -0.788971,6.71967 -0.33496,9.10959 0.34774,1.83053 0.870324,2.89675 1.972406,4.02433 0.73821,0.75528 1.005449,0.92575 2.019397,1.28682 0.761833,0.27127 1.162225,0.29423 1.462738,0.0837 0.480126,-0.3363 0.142682,-0.73498 -0.622327,-0.73498 -0.184436,0 -0.59249,-0.0951 -0.90668,-0.21147 -0.460239,-0.17035 -0.720993,-0.36677 -1.343454,-1.0115 -0.860813,-0.8916 -1.209458,-1.49167 -1.582623,-2.72667 -0.653204,-2.16177 -0.617634,-4.773 0.136152,-10.06626 0.398238,-2.79651 0.550036,-4.2086 0.650039,-6.04434 l 0.05783,-1.0597 0.459064,-0.38315 c 1.714688,-1.43062 5.744795,-3.48292 8.442675,-4.29905 1.19373,-0.36111 2.93279,-0.79667 4.35508,-1.09103 1.26146,-0.26108 2.89019,-0.63919 5.37743,-1.24767 2.29327,-0.56104 2.32177,-0.5708 2.66521,-0.95006 0.19093,-0.21083 0.39175,-0.4629 0.44642,-0.55966 0.0864,-0.15284 0.13529,-0.15956 0.37051,-0.0525 0.3085,0.14057 0.30236,0.12033 0.16928,0.59944 -0.0642,0.2314 -0.24876,0.48126 -0.5175,0.70064 -0.40671,0.332 -1.64114,1.06029 -2.34773,1.38503 -1.25174,0.57527 -1.90383,0.84788 -3.35081,1.40128 -2.57344,0.98423 -3.36178,1.21509 -6.76124,1.97722 -5.03616,1.12907 -4.50612,0.94454 -5.03645,1.74771 l -0.24158,0.36689 0.37834,0.62051 c 0.20827,0.34139 0.66198,1.10896 1.00789,1.70613 1.00859,1.74111 1.54027,2.52669 2.1429,3.16464 0.3106,0.3288 0.92,1.01661 1.3543,1.52901 2.24388,2.6474 6.02988,6.68499 6.44918,6.87751 0.27726,0.12728 0.65946,0.16701 1.64468,0.1705 1.27083,0.005 1.28911,0.001 1.90011,-0.32653 0.4424,-0.23721 0.61691,-0.38667 0.61691,-0.52894 0,-0.16928 -0.0473,-0.19037 -0.32111,-0.14339 -0.93536,0.16065 -1.54611,0.17512 -2.46641,0.0578 -0.8682,-0.11064 -1.04029,-0.16325 -1.20971,-0.3699 -0.17783,-0.21686 -0.812,-0.92083 -1.9718,-2.18869 -0.82355,-0.90023 -1.91855,-2.16653 -3.36045,-3.88698 -1.68554,-2.01116 -1.8102,-2.16807 -2.01819,-2.53689 -0.0833,-0.14767 -0.68477,-1.06137 -1.33622,-2.03024 -0.65145,-0.96889 -1.19812,-1.79269 -1.21514,-1.83023 -0.0383,-0.0844 0.45459,-0.21492 1.61034,-0.42714 0.48859,-0.0898 0.99929,-0.20008 1.13501,-0.24519 0.13572,-0.0451 0.69093,-0.18004 1.23381,-0.29942 0.98842,-0.21735 1.34547,-0.30594 3.55322,-0.88319 2.64547,-0.69168 3.95465,-1.16174 5.92203,-2.12542 2.1694,-1.06259 4.58744,-2.71686 4.97319,-3.40321 0.2394,-0.42597 0.23541,-0.42413 0.68439,-0.33437 0.29984,0.0599 0.30216,0.0649 0.2476,0.56751 -0.0692,0.6369 -0.5047,1.43602 -1.36575,2.50678 -1.45824,1.81336 -4.31334,4.5544 -6.76004,6.49014 -0.67859,0.53689 -1.76787,1.40042 -2.42062,1.91879 -0.65275,0.51839 -1.41881,1.11787 -1.70251,1.33261 -0.28371,0.21473 -0.51517,0.43675 -0.51389,0.4934 0.007,0.29701 0.19558,0.87274 0.3193,0.97416 0.0778,0.0638 0.35698,0.40501 0.61991,0.75788 0.96826,1.29945 1.77034,2.2001 2.42424,2.72184 0.36889,0.29432 0.73635,0.53557 0.81632,0.53557 0.08,0 0.49307,0.23812 0.91813,0.52956 1.28056,0.87806 3.07302,1.86265 6.43472,3.53515 l 3.19477,1.58924 0.80305,-0.008 c 1.48506,-0.0157 3.14996,-0.41008 3.29176,-0.77957 0.0565,-0.14736 -0.1488,-0.35052 -0.27532,-0.2723 -0.21115,0.13056 -1.76719,0.20755 -2.56882,0.12711 -0.89249,-0.0895 -0.96565,-0.11705 -3.22851,-1.22477 -2.35552,-1.15307 -2.63297,-1.30409 -4.4605,-2.42725 -0.57002,-0.35031 -1.62481,-0.96096 -2.34411,-1.35671 -0.71932,-0.39572 -1.30792,-0.77358 -1.30792,-0.8398 0,-0.0662 -0.28287,-0.34741 -0.62895,-0.62474 -0.34608,-0.27734 -0.84626,-0.75906 -1.1109,-1.07055 -0.26466,-0.3115 -0.76211,-0.86603 -1.10609,-1.2326 l -0.62595,-0.66691 1.04162,-0.69883 c 0.5729,-0.38438 1.06573,-0.69884 1.09465,-0.69884 0.029,0 0.0525,0.11885 0.0525,0.26387 0,0.14501 0.0618,0.33361 0.13736,0.4193 0.0755,0.0857 0.3504,0.6224 0.61028,1.19224 0.54577,1.1967 0.76016,1.58752 1.14765,2.08929 0.31224,0.40426 1.04064,0.87172 1.35792,0.87172 0.11424,0 0.48091,0.0919 0.81451,0.20424 0.33359,0.11239 1.38707,0.35796 2.34109,0.54521 5.25283,1.03098 6.35868,1.25655 7.21248,1.47177 2.55406,0.64378 3.62208,0.78512 4.02554,0.53317 0.27307,-0.1705 0.45519,-0.61067 0.37894,-0.91451 -0.0396,-0.15777 0.007,-0.32069 0.13917,-0.48858 0.59408,-0.75525 0.91092,-2.5851 0.44762,-2.5851 -0.14524,0 -0.21981,0.11262 -0.31086,0.46931 -0.12298,0.48206 -0.5171,1.15278 -1.02296,1.73985 l -0.28737,0.33317 -1.28139,-0.062 c -0.70478,-0.0342 -1.79001,-0.14923 -2.4116,-0.25543 -2.08748,-0.35688 -2.92878,-0.54267 -7.95709,-1.75854 l -1.51878,-0.36749 -0.72111,-0.82174 c -0.86911,-0.99059 -1.91699,-2.49649 -1.91699,-2.75498 0,-0.11791 0.15562,-0.27283 0.41991,-0.41931 0.7282,-0.40359 4.50817,-3.01972 6.00758,-4.15747 1.57505,-1.19516 3.03704,-2.61549 4.25628,-4.13639 0.58767,-0.73307 1.6577,-2.39234 1.71576,-2.6604 0.0297,-0.13747 0.0688,-0.2995 0.0867,-0.35966 0.018,-0.0601 0.21106,-0.13792 0.42954,-0.1729 0.21847,-0.035 0.67047,-0.18176 1.00428,-0.32653 l 0.60727,-0.26327 0.31748,0.34641 c 0.6529,0.71266 1.71453,1.14804 3.81048,1.56274 0.29857,0.0591 1.29771,0.16942 2.22061,0.24519 0.93943,0.0771 1.87373,0.20795 2.12241,0.29702 0.99906,0.35786 1.80313,0.45974 3.65202,0.46207 2.59096,0.004 5.31504,-0.40737 7.01428,-1.05669 l 0.65546,-0.25061 0.38857,0.38857 c 0.52894,0.52899 1.00506,0.65222 2.50317,0.64523 1.07662,-0.005 1.33309,-0.0395 2.01277,-0.27353 0.89849,-0.30928 1.66496,-0.789 2.33989,-1.46393 0.50211,-0.50211 1.07597,-1.27828 1.07597,-1.45491 0,-0.1745 0.0898,-0.12264 0.40063,0.23134 0.6646,0.75693 2.14188,1.43985 3.11464,1.43985 0.52683,0 0.56194,-0.0174 1.07176,-0.52714 l 0.52714,-0.52714 0.33013,0.64702 c 0.40126,0.78657 1.01617,1.28916 1.89409,1.54829 0.33408,0.0986 0.78532,0.29891 1.00248,0.44521 0.42722,0.28782 2.28889,2.21799 4.96354,5.14548 1.59726,1.74825 1.94276,2.17134 1.84891,2.26519 -0.0877,0.0877 -0.26316,1.44961 -0.25966,2.0188 0.002,0.3313 0.0774,0.82034 0.16809,1.08621 0.17214,0.50432 0.1452,1.44779 -0.15906,5.51719 -0.54477,7.28634 -0.53499,7.87713 0.15242,9.23369 0.34292,0.67673 1.18207,1.29521 1.56034,1.15006 0.0748,-0.0287 0.18774,-0.33168 0.25302,-0.67775 0.16827,-0.8924 0.5177,-2.05675 0.61691,-2.05675 0.0464,0 0.0844,0.056 0.0844,0.1241 0,0.23168 0.64086,1.15437 0.80366,1.1567 0.0941,0.001 0.18912,-0.1069 0.22712,-0.25844 0.0836,-0.33311 0.22012,-0.20283 0.32714,0.31206 0.0616,0.29646 0.12916,0.3934 0.27471,0.3934 0.16891,0 0.20934,-0.11727 0.32231,-0.93801 0.15351,-1.11559 0.2907,-6.58841 0.30423,-12.14049 0.006,-2.4261 0.0537,-4.28894 0.1217,-4.73823 0.11016,-0.72901 0.1069,-0.7529 -0.2199,-1.5778 -0.36247,-0.91494 -2.26161,-4.39606 -3.11645,-5.71299 -0.52798,-0.81337 -2.1404,-3.05287 -3.75082,-5.20935 -0.45177,-0.60498 -0.82113,-1.1727 -0.82113,-1.26212 0,-0.67753 -1.06229,-1.70531 -3.32249,-3.21465 -0.12195,-0.0815 -0.88982,-0.62927 -1.70673,-1.21754 -1.2749,-0.9181 -1.48554,-1.10693 -1.48563,-1.33261 -1e-4,-0.23015 -0.1808,-0.37983 -1.44828,-1.20067 -1.45314,-0.9411 -3.03987,-2.08177 -3.68456,-2.64895 l -0.3452,-0.30424 0.38436,0.0211 c 0.21427,0.0117 0.40137,-0.0287 0.42352,-0.0909 0.051,-0.143 -0.87835,-0.80362 -2.40857,-1.71155 -1.36499,-0.80992 -1.49195,-0.91989 -1.31092,-1.13803 0.098,-0.11813 0.098,-0.17828 0,-0.2964 -0.10108,-0.12171 -0.44434,-0.1482 -1.92964,-0.1482 -0.99353,0 -2.02066,0.0438 -2.28267,0.097 -0.262,0.0532 -0.83142,0.16887 -1.26573,0.25724 -1.03125,0.20982 -2.29854,0.63156 -3.24116,1.07898 -0.71262,0.33823 -0.77769,0.35192 -1.12657,0.23254 -0.60765,-0.2079 -2.86522,-0.15312 -3.88698,0.0945 -1.0566,0.25613 -2.02674,0.61717 -2.71282,1.0097 -0.42002,0.24036 -0.56386,0.28023 -0.71931,0.197 -0.28258,-0.15127 -1.73893,-0.12772 -2.84897,0.0464 -0.98315,0.15421 -1.38277,0.27152 -1.776,0.52113 -0.26206,0.16634 -1.47772,0.23642 -2.04771,0.11807 -0.21715,-0.0451 -0.70559,-0.14752 -1.08561,-0.22773 -2.16552,-0.45732 -3.4165,-0.69593 -4.74909,-0.90607 -0.82057,-0.1294 -2.41943,-0.48321 -3.55321,-0.78619 -1.13377,-0.303 -2.45493,-0.59537 -2.93573,-0.65004 -0.48076,-0.0547 -0.95543,-0.14312 -1.05488,-0.19639 -0.12284,-0.0656 -0.20274,-0.0621 -0.24821,0.0117 -0.04,0.0647 -0.21128,0.0856 -0.42532,0.0518 -0.19717,-0.0311 -0.76599,-0.0695 -1.26393,-0.0856 -0.7249,-0.0234 -0.94664,-0.0673 -1.11331,-0.21808 -0.18425,-0.16676 -0.22552,-0.17149 -0.35546,-0.0416 -0.22641,0.22644 -1.73412,0.006 -2.06156,-0.30183 -0.24587,-0.23097 -0.45003,-0.20544 -0.45003,0.0561 0,0.0958 -0.0623,0.13012 -0.1729,0.0976 -0.095,-0.028 -0.33378,-0.0791 -0.53075,-0.1139 -0.23723,-0.042 -0.40119,-0.14356 -0.48557,-0.30122 -0.13815,-0.25817 -0.48919,-0.32686 -0.48919,-0.0958 0,0.0782 -0.0432,0.16895 -0.0964,0.20182 -0.16238,0.10038 -0.86994,-0.16161 -1.10127,-0.40786 -0.24511,-0.26094 -0.57895,-0.3096 -0.57895,-0.0844 0,0.0814 -0.0591,0.14821 -0.13193,0.14821 -0.31627,0 -1.09588,-0.3027 -1.31876,-0.51208 -0.21703,-0.20386 -0.25531,-0.2115 -0.35845,-0.0717 -0.14838,0.20114 -1.09812,0.11402 -1.47901,-0.13554 -0.3236,-0.2118 -0.46267,-0.21459 -0.46267,-0.008 0,0.13664 -0.0778,0.15064 -0.51811,0.094 -0.39539,-0.051 -0.58427,-0.13593 -0.79643,-0.35966 -0.29382,-0.3099 -0.46208,-0.30553 -0.46208,0.012 0,0.16688 -0.0714,0.19158 -0.55425,0.19158 -0.523563,0 -0.574772,-0.0224 -0.926563,-0.40725 -0.378502,-0.41408 -0.591602,-0.43938 -0.591602,-0.0698 0,0.14628 -0.04456,0.18502 -0.160852,0.14037 -0.08843,-0.0339 -0.366029,-0.11261 -0.616905,-0.1747 -0.312643,-0.0775 -0.551529,-0.22172 -0.759081,-0.45907 -0.296059,-0.33855 -0.536176,-0.36519 -0.536176,-0.0597 0,0.26032 -0.781009,0.08 -1.148262,-0.26507 -0.176675,-0.16601 -0.258631,-0.18854 -0.363876,-0.10119 -0.103547,0.0859 -0.305254,0.0614 -0.848244,-0.10178 -0.5728,-0.1722 -0.740706,-0.26854 -0.856677,-0.49281 -0.16342,-0.31601 -0.310381,-0.35249 -0.481354,-0.11868 -0.106776,0.14603 -0.187074,0.13535 -0.891018,-0.12289 -0.481247,-0.17655 -0.889817,-0.40259 -1.080184,-0.59702 -0.243274,-0.24849 -0.342318,-0.29259 -0.481957,-0.21448 -0.219308,0.12273 -1.653018,-0.57309 -2.062773,-1.00126 -0.179851,-0.18788 -0.333077,-0.26332 -0.464485,-0.22893 -0.235177,0.0616 -2.387319,-1.03919 -2.802576,-1.43322 -0.153118,-0.14536 -0.358863,-0.25092 -0.457257,-0.23495 -0.175267,0.0283 -1.073116,-0.4448 -1.407312,-0.74161 -0.28028,-0.24894 -0.47292,-0.0877 -0.47292,0.39641 0,0.33111 -0.05641,0.483 -0.2464,0.66148 -0.364314,0.34226 -0.311993,0.52519 0.2217,0.76933 0.257862,0.11797 1.139297,0.53074 1.95855,0.91752 1.377151,0.65017 1.486423,0.72075 1.444664,0.93921 -0.04038,0.21124 -0.01038,0.23638 0.286764,0.23737 0.482109,0.001 1.097819,0.21301 2.141092,0.73437 0.506058,0.25289 1.035317,0.50315 1.175973,0.55666 0.194368,0.0739 0.228209,0.12487 0.140972,0.21207 -0.26225,0.26226 -0.12324,0.37171 0.473523,0.37171 0.717726,0 1.68395,0.33222 1.754924,0.60365 0.03696,0.14129 0.139275,0.18555 0.428941,0.18555 0.494241,0 1.274171,0.37476 1.274171,0.61208 0,0.0978 0.03338,0.1821 0.0741,0.18676 0.04072,0.005 0.305563,0.0154 0.587987,0.0247 0.63669,0.02 0.869784,0.19866 0.487379,0.3729 -0.201361,0.0916 -0.319912,0.0923 -0.508464,0.005 -0.436994,-0.20424 -0.659807,-0.29415 -2.614614,-1.0585 -5.685098,-2.22294 -6.855588,-2.57777 -9.772268,-2.96222 -1.558839,-0.20553 -3.895126,-0.23309 -4.67799,-0.0555 -0.320167,0.0726 -1.015071,0.30526 -1.544067,0.5175 l -0.961504,0.38617 -1.516354,-0.75246 c -1.887931,-0.93729 -3.52128,-1.82578 -5.118377,-2.78329 -8.184112,-4.90666 -13.190611,-11.14781 -14.671355,-18.29024 -0.248947,-1.20081 -0.2746,-1.51739 -0.27833,-3.44479 -0.0023,-1.16718 0.02952,-2.21339 0.07048,-2.32484 0.04759,-0.12939 0.02081,-0.27182 -0.0741,-0.3946 -0.07353,-0.0954 -0.110845,-0.14277 -0.145189,-0.14217 z m 25.693094,27.89021 c 1.004502,10e-4 2.112989,0.0614 2.977286,0.18134 2.909306,0.40348 4.1764,0.75626 6.514242,1.81275 2.440329,1.10281 5.972043,2.81293 5.972043,2.89174 0,0.0778 -1.009119,-0.36602 -4.04723,-1.78023 -0.841453,-0.39168 -2.062569,-0.93321 -2.714016,-1.20308 -0.651447,-0.26987 -1.280103,-0.53786 -1.397071,-0.59521 -0.231883,-0.11379 -0.428942,-0.0429 -0.428942,0.15422 0,0.0687 2.398317,1.31931 5.329835,2.77909 2.931522,1.45975 5.329836,2.68941 5.329836,2.73208 0,0.10854 -0.03203,0.10353 -2.072412,-0.32773 -2.631928,-0.55627 -5.892741,-1.40157 -7.935413,-2.05735 -0.65719,-0.21099 -1.705954,-0.54323 -2.330258,-0.73799 -0.624304,-0.19479 -1.223436,-0.39671 -1.332007,-0.44882 -0.108572,-0.0521 -0.708303,-0.27641 -1.33261,-0.49884 -0.971867,-0.34622 -3.723759,-1.45514 -5.379235,-2.16759 -0.573602,-0.24684 -0.53955,-0.28535 0.493403,-0.55846 0.447738,-0.11849 1.348049,-0.17703 2.352549,-0.17592 z m 44.077328,20.40483 0.80547,0.18796 0.13374,1.04706 -0.34882,0.85908 -1.74527,2.04048 -2.76523,2.60437 -3.46346,2.30917 2.63088,-2.52363 1.98686,-2.01399 1.36936,-1.77178 1.2085,-1.79891 z" /><path
       style="display:inline;fill:#000000;stroke:#000000;stroke-width:0.215674;stroke-dasharray:none;stroke-opacity:1"
       d="m 98.594568,241.64001 c -1.376826,-0.45671 -2.104502,-1.00992 -2.898513,-2.20358 -0.843839,-1.26857 -1.263906,-2.74765 -1.436283,-5.05725 -0.116742,-1.56418 -0.0284,-2.66816 0.537158,-6.71259 0.255826,-1.82947 0.470907,-3.91242 0.6421,-6.21839 0.164348,-2.21378 0.103406,-2.08607 1.406638,-2.94827 1.917892,-1.26886 4.091412,-2.44531 5.926592,-3.20784 0.42481,-0.17651 1.05776,-0.4778 1.40657,-0.66953 1.02748,-0.56478 2.75357,-1.06161 5.57452,-1.60456 1.45933,-0.28087 5.31997,-1.18277 5.97959,-1.39691 0.21754,-0.0706 0.32657,-0.17973 0.36776,-0.36798 0.0322,-0.14719 0.0868,-0.36675 0.12133,-0.48794 0.0507,-0.17792 0.009,-0.24051 -0.21318,-0.32525 -0.25444,-0.0968 -0.3034,-0.0734 -0.62795,0.29815 -0.31805,0.36418 -0.45196,0.43045 -1.3884,0.68703 -0.57002,0.15619 -1.50278,0.41583 -2.0728,0.57697 -1.60821,0.45464 -2.90332,0.78084 -4.19494,1.05656 -3.27408,0.69891 -5.44264,1.32444 -6.01998,1.73646 -0.21771,0.15535 -0.68454,0.49117 -1.03741,0.74625 -0.35287,0.25508 -1.241216,0.86135 -1.974098,1.34727 -0.732882,0.48592 -1.621224,1.09517 -1.974093,1.3539 -0.409958,0.30057 -1.104825,0.65505 -1.924741,0.98187 -1.476879,0.5887 -1.762905,0.74842 -2.542527,1.4199 -0.312638,0.26928 -0.595917,0.4621 -0.629508,0.42852 -0.09712,-0.0971 0.82585,-1.07363 1.350123,-1.42843 0.262714,-0.17778 0.944116,-0.56569 1.514229,-0.862 0.570114,-0.29632 1.427784,-0.79963 1.905935,-1.11848 0.478151,-0.31884 1.402371,-0.90443 2.053821,-1.3013 1.702569,-1.03723 2.477949,-1.57449 3.220789,-2.23172 0.72298,-0.63965 1.28494,-0.88567 3.19502,-1.39867 1.1339,-0.30455 1.25386,-0.33078 2.60855,-0.57033 1.07845,-0.19071 3.52815,-0.74851 5.18521,-1.18069 0.71943,-0.18762 1.32961,-0.34115 1.35597,-0.34115 0.0569,0 0.3045,-0.7977 0.25873,-0.83352 -0.0174,-0.0135 -0.27581,-0.13029 -0.57439,-0.25939 -0.65564,-0.28347 -3.83381,-1.89355 -5.87293,-2.97526 -1.19735,-0.63518 -1.61274,-0.91437 -2.1715,-1.45955 -0.53282,-0.51988 -0.90551,-0.77683 -1.62863,-1.1229 -1.33455,-0.63869 -1.86486,-0.96472 -2.41609,-1.48541 -0.26603,-0.25129 -0.59744,-0.47937 -0.73646,-0.50685 -0.46161,-0.0913 -0.941805,-0.2632 -1.091756,-0.39092 -0.08143,-0.0694 -0.303516,-0.1698 -0.493524,-0.2232 -0.190006,-0.0534 -0.871753,-0.30211 -1.514996,-0.55269 -0.643241,-0.25057 -1.23237,-0.45559 -1.309176,-0.45559 -0.0768,0 -0.216773,-0.0426 -0.31104,-0.0947 -0.09427,-0.052 -1.015319,-0.30084 -2.046783,-0.55284 -1.798822,-0.43947 -5.073264,-1.33089 -6.317098,-1.71974 -2.171836,-0.67897 -4.291161,-1.38684 -5.823576,-1.94514 -12.707385,-4.62969 -21.452144,-10.68278 -25.942663,-17.95744 -2.732318,-4.42637 -3.8709,-9.52628 -3.065897,-13.73271 0.02337,-0.12214 0.09024,-0.22208 0.148588,-0.22208 0.07162,0 0.08193,0.16841 0.03178,0.5182 -0.04087,0.28501 -0.07014,1.18445 -0.06502,1.99877 0.03386,5.39436 2.211555,10.4683 6.523971,15.20052 1.256831,1.37918 3.666201,3.47858 5.561137,4.84568 1.740674,1.25581 4.902948,3.10345 7.714734,4.50755 l 1.961552,0.9795 1.048941,-0.40067 c 1.429832,-0.54617 1.833558,-0.62282 3.319148,-0.63017 2.083485,-0.0105 4.88993,0.39957 6.701529,0.97872 1.219701,0.38994 4.211019,1.50216 6.574248,2.44442 1.167183,0.46538 2.168817,0.8463 2.225854,0.8465 0.14923,4.9e-4 0.6349,-0.23502 0.635811,-0.30834 0.0021,-0.17148 -0.37632,-0.33232 -0.826995,-0.35149 -0.277611,-0.0118 -0.542812,-0.0236 -0.589337,-0.0261 -0.04653,-0.002 -0.05802,-0.0739 -0.02554,-0.15852 0.07477,-0.19487 -0.872529,-0.63576 -1.366015,-0.63576 -0.227516,0 -0.345681,-0.0505 -0.367329,-0.15707 -0.05406,-0.26606 -1.042181,-0.62416 -1.734569,-0.62861 -0.342824,-0.002 -0.616904,-0.0478 -0.616904,-0.10271 0,-0.0543 0.07033,-0.0987 0.156283,-0.0987 0.372539,0 -0.0056,-0.24968 -1.373972,-0.90717 -0.997674,-0.47938 -1.616051,-0.7173 -1.946966,-0.7491 -0.452702,-0.0435 -0.481025,-0.0621 -0.426123,-0.28091 0.03235,-0.12888 0.01597,-0.23433 -0.0364,-0.23433 -0.05237,0 -0.867791,-0.3709 -1.81206,-0.82421 -0.944269,-0.45332 -1.794583,-0.85168 -1.889587,-0.88525 -0.234333,-0.0828 -0.217441,-0.18822 0.07403,-0.46203 0.188434,-0.17703 0.246762,-0.33137 0.246762,-0.65297 0,-0.23162 0.03932,-0.44544 0.08739,-0.47514 0.04805,-0.0297 0.384664,0.14534 0.748009,0.38899 0.363345,0.24365 0.75466,0.443 0.869587,0.443 0.114925,0 0.322433,0.10563 0.461123,0.23482 0.356824,0.33228 2.587836,1.44316 2.898345,1.44316 0.152389,0 0.299574,0.0765 0.358245,0.18607 0.149709,0.27974 1.847417,1.12703 2.12075,1.05844 0.158212,-0.0398 0.290482,0.0152 0.452694,0.18783 0.215454,0.22934 1.602604,0.83786 1.909938,0.83786 0.07737,0 0.169165,-0.0743 0.203978,-0.16495 0.05321,-0.13867 0.106007,-0.11506 0.331351,0.14798 0.363737,0.42463 1.797976,0.89686 1.797976,0.59199 0,-0.0638 0.105528,-0.0168 0.234519,0.10446 0.191482,0.1799 1.06013,0.49906 1.371312,0.50386 0.04175,6.9e-4 0.04804,-0.10994 0.01398,-0.24559 -0.08543,-0.34038 0.05808,-0.30874 0.369419,0.0815 0.202861,0.25425 0.407367,0.36761 0.90724,0.50292 0.660095,0.17868 0.885576,0.15482 0.793919,-0.0841 -0.107382,-0.27981 0.168003,-0.25406 0.331617,0.031 0.220218,0.3837 0.500005,0.50504 1.164636,0.50504 0.47243,0 0.53823,-0.0241 0.53823,-0.19742 0,-0.26515 0.14079,-0.24917 0.32849,0.0373 0.20905,0.31906 1.22058,0.46998 1.41036,0.21043 0.11289,-0.15439 0.14109,-0.15228 0.40043,0.03 0.30443,0.21388 1.5128,0.38511 1.5128,0.21437 0,-0.0535 0.0666,-0.0972 0.14806,-0.0972 0.0814,0 0.14806,0.0361 0.14806,0.0804 0,0.13133 0.6785,0.41518 1.14536,0.47917 0.36016,0.0493 0.43391,0.0321 0.43391,-0.10201 0,-0.21541 0.15486,-0.20403 0.38735,0.0284 0.25671,0.25671 0.4798,0.36357 0.92818,0.44457 0.32885,0.0595 0.38473,0.0419 0.43101,-0.13506 0.0699,-0.26735 0.1699,-0.25667 0.36351,0.0388 0.10251,0.15645 0.28993,0.26429 0.52955,0.30472 0.20399,0.0344 0.45173,0.0849 0.55055,0.11215 0.12342,0.0341 0.19655,-0.015 0.2336,-0.15668 0.0686,-0.26228 0.16778,-0.26117 0.34374,0.004 0.18854,0.28396 1.93946,0.55933 2.11321,0.33233 0.0906,-0.1183 0.13112,-0.11448 0.27129,0.0257 0.12439,0.12439 0.40089,0.1751 1.12733,0.20676 1.85746,0.0809 2.05513,0.0948 2.90556,0.20269 0.98608,0.1252 2.10361,0.37986 3.7654,0.85802 0.64241,0.18487 1.77505,0.42813 2.51697,0.54062 1.11307,0.16876 2.8853,0.51164 6.08677,1.17761 0.63823,0.13277 1.94331,0.0565 2.22818,-0.13005 0.36538,-0.23941 0.72298,-0.34094 1.79297,-0.50903 1.12841,-0.17727 2.47122,-0.19733 2.72207,-0.0407 0.14325,0.0894 0.35307,0.0249 1.10908,-0.34085 2.0958,-1.01415 4.35732,-1.35636 6.22683,-0.94224 0.40672,0.0901 0.5115,0.0744 0.9377,-0.14038 0.84781,-0.42727 2.32308,-0.9315 3.53964,-1.20979 0.99385,-0.22734 1.48159,-0.27836 3.03085,-0.31702 1.01552,-0.0253 1.95926,-0.0177 2.09718,0.0169 0.21525,0.054 0.23463,0.0888 0.1368,0.24547 -0.18375,0.29425 -0.0386,0.47123 0.75495,0.92028 1.07631,0.60909 2.84099,1.78493 2.88688,1.92359 0.0277,0.0838 -0.0635,0.10154 -0.31284,0.0611 -0.19359,-0.0314 -0.35197,-0.016 -0.35197,0.0345 0,0.31525 2.0703,1.85701 4.8612,3.62013 0.42688,0.26967 0.56755,0.41576 0.56755,0.58934 0,0.12693 0.0999,0.32061 0.22208,0.43042 0.26339,0.23678 3.02201,2.22657 4.62632,3.33695 0.80244,0.5554 1.47214,1.33102 1.61329,1.86847 0.0661,0.25158 0.4956,0.9237 1.14049,1.78461 1.95583,2.61103 3.64498,5.03412 4.23141,6.06996 2.02124,3.57031 2.62155,4.82483 2.59835,5.42995 -0.007,0.19002 -0.0571,3.18817 -0.11075,6.66257 -0.0536,3.47441 -0.11948,7.0944 -0.14639,8.04444 -0.0558,1.96942 -0.2452,3.56668 -0.43021,3.62778 -0.0761,0.0251 -0.12338,-0.0514 -0.12338,-0.19952 0,-0.32368 -0.19416,-0.86195 -0.3109,-0.86195 -0.0518,0 -0.14064,0.13326 -0.19741,0.29612 -0.0568,0.16286 -0.1322,0.29581 -0.1676,0.29544 -0.0976,-0.001 -0.47897,-0.59291 -0.65599,-1.01788 -0.0864,-0.20734 -0.20896,-0.35967 -0.27241,-0.33851 -0.13765,0.0458 -0.41888,0.92524 -0.62265,1.94697 -0.0809,0.40589 -0.18458,0.77536 -0.23029,0.82106 -0.12974,0.12976 -0.71713,-0.16773 -1.07603,-0.54496 -0.395,-0.41518 -0.80388,-1.53125 -0.89374,-2.4395 -0.0352,-0.35605 -0.0336,-1.11374 0.003,-1.68376 0.0373,-0.57002 0.13892,-2.0802 0.22587,-3.35596 0.14253,-2.09112 0.42594,-6.38371 0.4627,-7.00803 0.008,-0.13573 -0.059,-0.48802 -0.14881,-0.78287 -0.23077,-0.75743 -0.19986,-1.86537 0.0832,-2.98376 0.059,-0.23315 -0.0662,-0.41029 -1.11641,-1.57927 -2.08731,-2.3234 -4.85942,-5.25072 -5.43292,-5.73715 -0.31015,-0.26304 -0.75374,-0.53097 -1.00123,-0.60474 -1.21944,-0.36347 -1.73466,-0.77018 -2.2355,-1.76473 -0.19023,-0.37777 -0.37831,-0.64801 -0.41793,-0.60053 -0.0396,0.0474 -0.19403,0.25295 -0.34314,0.45659 -0.59421,0.81154 -1.41947,0.869 -2.83967,0.1977 -0.75738,-0.358 -1.56681,-0.98531 -1.56681,-1.21428 0,-0.2508 -0.3159,-0.0469 -0.5044,0.32554 -0.11676,0.23072 -0.55575,0.75913 -0.97552,1.17424 -1.23402,1.22031 -2.47163,1.70783 -4.34365,1.71107 -1.32883,0.002 -1.88765,-0.15567 -2.39308,-0.67647 -0.37,-0.38126 -0.3963,-0.39151 -0.69836,-0.27199 -1.98703,0.78625 -4.50365,1.19701 -7.33388,1.19701 -1.83682,0 -2.46196,-0.0787 -3.87811,-0.48811 -0.35769,-0.1034 -1.13895,-0.21529 -1.73611,-0.24861 -1.84302,-0.10282 -3.44156,-0.40686 -4.8166,-0.91611 -0.52973,-0.19619 -0.8352,-0.38752 -1.19883,-0.75086 -0.46999,-0.46962 -0.49909,-0.48315 -0.78964,-0.36748 -0.16592,0.0661 -0.59038,0.20835 -0.94324,0.31624 -0.87232,0.26666 -0.90211,0.2877 -1.03735,0.73238 -0.13069,0.42979 -0.92357,1.63746 -1.87615,2.85766 -0.69514,0.89045 -2.51227,2.69126 -3.55166,3.51978 -1.02066,0.81359 -3.63263,2.66975 -5.40408,3.84033 -1.24506,0.82274 -1.5546,1.07169 -1.5546,1.25027 0,0.3168 1.27058,2.09342 2.19993,3.07605 l 0.51444,0.54396 1.28317,0.32894 c 1.14883,0.29449 3.72854,0.90894 5.33005,1.26954 1.83321,0.41278 4.05568,0.74311 5.33005,0.79221 l 1.38186,0.0533 0.56845,-0.77331 c 0.31264,-0.42532 0.61466,-0.95097 0.67113,-1.16812 0.15805,-0.60766 0.18295,-0.65861 0.28965,-0.59266 0.25815,0.15954 -0.0181,1.44692 -0.47659,2.22128 -0.16831,0.28425 -0.26469,0.59335 -0.2677,0.85851 -0.007,0.62275 -0.23576,0.81947 -0.95268,0.81947 -0.58075,0 -0.90624,-0.0638 -3.04015,-0.59579 -1.15193,-0.28717 -2.21675,-0.5057 -6.46516,-1.3268 -1.3029,-0.25181 -2.73067,-0.56629 -3.17283,-0.69884 -0.44215,-0.13255 -0.89831,-0.241 -1.01367,-0.241 -0.28649,0 -0.88751,-0.39382 -1.27563,-0.83586 -0.29721,-0.33852 -1.59526,-2.84675 -1.59526,-3.08256 0,-0.0574 -0.0667,-0.1596 -0.14806,-0.22718 -0.0815,-0.0676 -0.14805,-0.25068 -0.14805,-0.4069 0,-0.17735 -0.0518,-0.28404 -0.13788,-0.28404 -0.11588,0 -1.88125,1.13316 -2.17754,1.39772 -0.0573,0.0512 0.10201,0.28823 0.40443,0.60185 0.27443,0.28457 0.70671,0.79305 0.96061,1.12993 0.25392,0.33689 0.78673,0.87815 1.18405,1.20281 0.39732,0.32467 0.79035,0.694 0.8734,0.82075 0.083,0.12675 0.63412,0.49412 1.22462,0.81638 0.97775,0.53361 2.26506,1.29238 3.83735,2.26182 0.32573,0.20083 1.66314,0.89425 2.97202,1.54094 l 2.37979,1.17577 1.09222,0.10923 c 0.7796,0.078 1.25488,0.0792 1.66056,0.005 1.25365,-0.23175 1.37433,-0.0632 0.23795,0.33237 -0.63945,0.2226 -1.01553,0.28351 -1.99877,0.32372 l -1.21112,0.0495 -3.25725,-1.62573 c -3.43127,-1.71259 -4.61765,-2.36191 -6.19713,-3.39178 -0.53119,-0.34633 -1.05088,-0.62971 -1.15488,-0.62971 -0.10399,0 -0.22462,-0.0555 -0.26803,-0.12338 -0.0434,-0.0678 -0.29152,-0.28552 -0.55136,-0.48368 -0.56218,-0.42878 -0.90896,-0.81879 -2.17529,-2.44649 -0.52525,-0.67513 -0.955,-1.30444 -0.955,-1.39846 0,-0.0941 -0.0243,-0.23437 -0.0541,-0.31187 -0.0362,-0.0943 0.39626,-0.49578 1.30784,-1.21411 4.945,-3.89676 5.92374,-4.73744 8.03192,-6.89904 2.43458,-2.49626 3.27643,-3.67661 3.39023,-4.75341 l 0.0639,-0.60387 -0.31188,-0.0624 c -0.53437,-0.10691 -0.62629,-0.072 -0.85177,0.3229 -0.27616,0.48371 -1.85938,1.70991 -3.19596,2.47528 -2.3877,1.36729 -5.05153,2.42765 -7.66087,3.04946 -0.2056,0.049 -0.8846,0.22262 -1.50891,0.38585 -0.62431,0.16321 -1.73473,0.4356 -2.46762,0.60528 -0.73288,0.1697 -1.60814,0.3742 -1.94502,0.45447 -0.33689,0.0802 -0.69222,0.14619 -0.78964,0.14649 -0.30884,9.8e-4 -0.91741,0.20228 -0.91741,0.30349 0,0.12523 2.6451,4.15675 3.07745,4.69048 1.19446,1.47457 3.89466,4.63947 4.89216,5.73409 0.65272,0.71627 1.41453,1.56418 1.69291,1.88424 l 0.50613,0.58191 0.99744,0.12712 c 0.91574,0.1167 2.22321,0.086 2.60669,-0.0611 0.0795,-0.0305 0.14458,-0.007 0.14458,0.0523 0,0.0593 -0.27761,0.25192 -0.61691,0.428 -0.59003,0.30622 -0.66633,0.32026 -1.752,0.32222 -1.67467,0.004 -1.73803,-0.0312 -3.40531,-1.84083 -2.36997,-2.57225 -4.30858,-4.73853 -5.31306,-5.93704 -0.53143,-0.63407 -1.00141,-1.15286 -1.04441,-1.15286 -0.043,0 -0.22566,-0.23318 -0.40592,-0.5182 -1.08607,-1.71722 -2.66292,-4.40287 -2.66292,-4.53542 0,-0.17588 0.593,-0.9543 0.76518,-1.00443 0.0949,-0.0276 1.28295,-0.29902 2.64014,-0.60309 4.23118,-0.94798 4.59932,-1.04006 6.14749,-1.53779 2.11167,-0.67886 4.0652,-1.46019 5.79578,-2.31805 1.81752,-0.90097 2.61866,-1.47536 2.78081,-1.99377 0.16437,-0.52548 0.15536,-0.68564 -0.0417,-0.74232 -0.095,-0.0273 -0.24453,-0.0794 -0.33227,-0.11577 -0.11553,-0.0478 -0.25374,0.0648 -0.50105,0.4083 -0.18783,0.26089 -0.44918,0.52649 -0.58076,0.59021 -0.20428,0.099 -1.58595,0.44343 -5.66799,1.41314 -0.4343,0.10318 -1.33369,0.29984 -1.99864,0.43702 -3.12678,0.64509 -5.02986,1.21601 -7.08219,2.12463 -2.446824,1.08326 -4.372211,2.18085 -5.691635,3.24459 l -0.558988,0.45066 -0.05928,1.14099 c -0.08819,1.69762 -0.223057,2.92221 -0.654596,5.944 -0.850349,5.95443 -0.762035,9.22848 0.307752,11.40916 0.392632,0.80036 1.698362,2.19262 2.339233,2.49426 0.257415,0.12115 0.75086,0.25547 1.096544,0.29847 0.775645,0.0965 0.94355,0.2311 0.619033,0.49626 -0.284415,0.2324 -0.496873,0.23236 -1.198197,-2.9e-4 z m 1.085751,-0.10352 c 0,-0.0533 -0.09993,-0.11612 -0.222085,-0.13962 -1.100912,-0.21213 -1.397301,-0.30607 -1.793283,-0.56835 -0.25021,-0.16574 -0.711607,-0.58574 -1.025327,-0.93333 -1.580083,-1.75071 -2.034764,-3.43013 -1.943857,-7.17987 0.02744,-1.1319 0.06904,-2.08899 0.09245,-2.12685 0.0234,-0.0379 0.0077,-0.12525 -0.03489,-0.19416 -0.249805,-0.40419 -0.35041,4.10968 -0.125099,5.61283 0.274746,1.83295 0.791331,2.97017 1.900496,4.18378 0.490628,0.53682 1.13512,0.94033 1.998038,1.25097 0.556225,0.20023 1.153558,0.24922 1.153558,0.0945 z m 72.495951,-1.11231 c 0.0277,-0.12215 0.0941,-0.42714 0.1474,-0.67774 0.0533,-0.25061 0.22947,-0.85129 0.39148,-1.33484 0.29418,-0.87808 0.29437,-0.88019 0.15349,-1.68714 -0.28856,-1.65295 -0.37265,-3.45264 -0.30332,-6.49154 0.0372,-1.62863 0.12144,-3.50914 0.18727,-4.17893 0.0659,-0.66979 0.0871,-1.23795 0.0472,-1.26259 -0.12094,-0.0747 -0.53991,0.24991 -0.91806,0.71139 -0.19672,0.24006 -0.43698,0.43648 -0.53389,0.43648 -0.1913,0 -0.1693,-0.18168 -0.40652,3.35596 -0.0564,0.84145 -0.16825,2.48488 -0.24851,3.65208 -0.25375,3.69031 -0.28361,4.8617 -0.14133,5.5458 0.18851,0.90648 0.5564,1.62903 0.97392,1.91272 0.43921,0.29845 0.58621,0.3026 0.65082,0.0183 z m 2.02877,-2.00283 c 0.0568,-0.26921 0.17572,-0.90165 0.26444,-1.40542 0.21421,-1.21644 0.36244,-1.02641 0.17472,0.224 -0.14231,0.94808 -0.11874,1.57368 0.0635,1.68635 0.3021,0.18671 0.39916,-1.84556 0.44078,-9.22974 0.0438,-7.77146 0.063,-7.50805 -0.54558,-7.50805 -0.58997,0 -0.6098,0.0365 -0.53777,0.99077 0.0645,0.85363 0.061,0.87321 -0.19943,1.11451 l -0.26503,0.24562 0.30388,2.25454 c 0.87145,6.46543 1.07632,8.48786 0.90325,8.9171 -0.081,0.20094 -0.1006,0.1146 -0.10573,-0.46481 -0.004,-0.39137 -0.0498,-1.03542 -0.10306,-1.43122 -0.0532,-0.3958 -0.23141,-1.80786 -0.396,-3.13791 -0.16458,-1.33004 -0.33949,-2.66255 -0.3887,-2.96114 -0.0492,-0.29857 -0.1679,-1.15361 -0.26378,-1.90006 -0.12074,-0.94007 -0.21285,-1.35719 -0.2997,-1.35719 -0.069,0 -0.14664,0.14436 -0.17261,0.32079 -0.33966,2.30795 -0.42229,9.18127 -0.13328,11.08702 0.21275,1.40288 0.39602,2.18195 0.61418,2.61102 0.3718,0.73118 0.48192,0.72159 0.64581,-0.0562 z m -48.99853,-2.83651 c 0.0698,-0.0698 -0.4157,-0.15518 -1.09404,-0.19237 -0.39477,-0.0217 -0.49732,0.006 -0.52421,0.13951 -0.0259,0.12894 0.0513,0.17339 0.34271,0.19741 0.41523,0.0342 1.1839,-0.0529 1.27554,-0.14455 z m -1.8545,-0.14525 c -0.0215,-0.11576 -0.87812,-0.59564 -2.59937,-1.45589 -1.4121,-0.70574 -3.03332,-1.57749 -3.60271,-1.93723 -1.60629,-1.01486 -4.17996,-2.43531 -4.31709,-2.38268 -0.068,0.0261 -0.12349,0.10807 -0.12349,0.18233 0,0.16553 1.42034,1.12989 3.01048,2.04401 1.54887,0.8904 7.23793,3.7222 7.47785,3.7222 0.12373,0 0.17552,-0.0579 0.15433,-0.17274 z m -8.84131,-2.19188 c 0.0407,-0.002 0.074,-0.073 0.074,-0.15682 0,-0.12131 -0.0718,-0.13906 -0.35083,-0.0867 -0.19296,0.0361 -0.77374,0.009 -1.29062,-0.0585 -0.83716,-0.11076 -0.95706,-0.10714 -1.09791,0.0337 -0.14138,0.14136 -0.142,0.16431 -0.006,0.21655 0.2902,0.11133 1.80939,0.19972 2.20233,0.12809 0.21715,-0.0396 0.42814,-0.0739 0.46885,-0.0762 z m -2.84538,-0.38678 c 0.0794,-0.12841 -0.37526,-0.7138 -1.58113,-2.0359 -1.57615,-1.72806 -2.36595,-2.63758 -4.1802,-4.81386 -0.89284,-1.07101 -1.67056,-1.94729 -1.72826,-1.94729 -0.0577,0 -0.16241,0.0921 -0.23268,0.20459 -0.11516,0.1844 -0.0751,0.26964 0.40547,0.86366 0.76527,0.94588 1.87297,2.20776 3.61697,4.12044 3.44903,3.78262 3.53831,3.8697 3.69983,3.60836 z m 17.78304,-1.44279 c 0.0886,-0.1353 0.13946,-0.30261 0.11285,-0.37181 -0.0689,-0.17968 -1.03221,-0.3515 -2.29299,-0.40898 -1.09734,-0.05 -3.17737,-0.36938 -4.89001,-0.75076 -1.03284,-0.23 -2.02537,-0.46577 -5.02228,-1.19307 -1.22717,-0.29781 -2.05145,-0.45369 -2.10673,-0.39841 -0.0499,0.0499 -0.0755,0.17326 -0.0569,0.27402 0.0649,0.35084 0.94598,0.566 7.58484,1.85239 1.00432,0.1946 2.60333,0.55117 3.55337,0.79236 1.08232,0.2748 1.95684,0.44074 2.34196,0.44441 0.54943,0.005 0.63172,-0.0203 0.77581,-0.24015 z m 0.27053,-1.12788 c 0.24823,-0.37508 0.43988,-0.89632 0.32959,-0.89632 -0.10528,0 -0.94554,1.16017 -0.88446,1.22125 0.14104,0.14103 0.31325,0.0402 0.55487,-0.32493 z m -16.9669,-1.02624 c -0.0268,-0.0701 -0.16959,-0.2006 -0.31718,-0.29018 -0.3911,-0.23742 -1.34355,-1.1861 -1.78704,-1.77997 -0.60504,-0.81022 -1.0411,-1.18693 -1.28451,-1.10968 -0.11402,0.0361 -0.20728,0.10818 -0.20728,0.15997 0,0.25445 2.18546,2.86918 2.75891,3.30083 l 0.44898,0.33797 0.21849,-0.24584 c 0.12017,-0.13519 0.1965,-0.30309 0.16963,-0.3731 z m 2.29484,-1.00111 0.16279,-0.34138 -0.38826,-0.42357 c -0.48164,-0.52544 -1.17192,-1.4269 -1.66949,-2.18022 -0.28583,-0.43277 -0.42788,-0.56504 -0.58296,-0.54288 -0.29009,0.0415 -0.23811,0.22008 0.50302,1.72853 0.66135,1.34604 1.2409,2.1009 1.613,2.1009 0.12991,0 0.25568,-0.11862 0.3619,-0.34138 z m -5.98956,-2.42234 c 0,-0.0543 -0.047,-0.0987 -0.10453,-0.0987 -0.0575,0 -0.0771,0.0444 -0.0435,0.0987 0.0336,0.0543 0.0806,0.0987 0.10453,0.0987 0.0239,0 0.0435,-0.0444 0.0435,-0.0987 z m 62.92557,-0.73734 c 0.5966,-0.5966 1.00769,-0.848 1.52857,-0.9348 0.32638,-0.0543 0.34717,-0.0811 0.37625,-0.48471 0.0169,-0.23494 -0.0196,-0.63417 -0.0811,-0.88717 -0.0615,-0.253 -0.13637,-0.59325 -0.16619,-0.75611 -0.10586,-0.57808 -0.53328,-0.79472 -1.04837,-0.53135 -0.11859,0.0606 -0.40312,0.29074 -0.63231,0.51134 -0.40649,0.39128 -0.42156,0.39672 -0.6144,0.2222 -0.19273,-0.17441 -0.20059,-0.17178 -0.31395,0.10551 -0.064,0.15646 -0.12061,0.77364 -0.1259,1.37151 -0.008,0.87071 0.0277,1.17025 0.17811,1.50525 0.10329,0.23001 0.22637,0.41819 0.27358,0.41819 0.0472,0 0.32883,-0.24296 0.62579,-0.53991 z m -61.39228,-0.45299 c 3.94987,-2.66879 7.48867,-5.66227 9.44459,-7.98921 0.93549,-1.11293 2.16845,-2.93966 2.12754,-3.15209 -0.016,-0.0828 -0.15712,-0.1955 -0.31374,-0.25058 -0.23881,-0.0839 -0.30238,-0.0702 -0.39387,0.0852 -0.48049,0.81666 -1.12673,1.72808 -1.75727,2.47843 -0.91969,1.09442 -3.74682,3.87319 -5.02243,4.93651 -0.83502,0.69606 -5.06496,4.06021 -5.55917,4.42131 -0.18214,0.1331 -0.14926,0.36459 0.0518,0.36459 0.0546,0 0.69465,-0.4024 1.42255,-0.89422 z m -15.187875,0.37602 c -0.02739,-0.0679 -0.04978,-0.0124 -0.04978,0.12337 0,0.13573 0.02241,0.19124 0.04978,0.12338 0.02738,-0.0678 0.02738,-0.17889 0,-0.24675 z m 0.249649,-1.04293 c 0.123312,-1.13548 0.289003,-3.78718 0.250252,-4.00501 -0.06489,-0.3648 -0.142868,0.0199 -0.25795,1.27248 -0.169356,1.84335 -0.243081,3.56196 -0.148978,3.47281 0.04677,-0.0443 0.11727,-0.37744 0.156676,-0.74028 z m 16.760896,0.46955 c 0,-0.0511 -0.0666,-0.0929 -0.14805,-0.0929 -0.15264,0 -0.1961,0.11647 -0.085,0.22763 0.0788,0.0788 0.233,-0.0105 0.233,-0.13475 z m -8.52285,-0.46302 0.20029,-0.27145 -1.17093,-1.77531 c -0.64401,-0.97643 -1.22548,-1.82594 -1.29215,-1.88781 -0.19694,-0.18276 -0.66411,-0.26061 -0.66411,-0.11063 0,0.26183 2.45881,4.30637 2.62179,4.31264 0.0577,0.002 0.19495,-0.11812 0.30511,-0.26741 z m 9.54103,-0.36148 c 1.84498,-1.15831 5.21397,-3.5397 6.62672,-4.68413 1.08057,-0.87532 2.73839,-2.58969 3.5635,-3.68505 0.90233,-1.19784 1.02915,-1.43756 0.82796,-1.56487 -0.2973,-0.1881 -0.4744,-0.0796 -0.85505,0.52376 -1.01732,1.61261 -4.14043,4.57688 -7.00314,6.64698 -4.28209,3.09648 -4.53472,3.29751 -4.14388,3.29751 0.0731,0 0.5159,-0.24039 0.98389,-0.5342 z m 61.89255,-1.74255 c 0.0699,-0.34941 -0.18907,-1.19408 -0.64553,-2.10563 -0.84112,-1.67974 -2.68127,-4.76624 -3.66665,-6.15015 -1.39302,-1.95638 -3.38275,-4.63168 -3.49756,-4.70264 -0.0478,-0.0295 -0.39467,0.17719 -0.77092,0.45935 -0.65242,0.48925 -0.68539,0.53357 -0.7123,0.95717 -0.0242,0.38233 0.0433,0.56788 0.48522,1.33252 0.71842,1.24304 0.90771,1.76998 0.84109,2.34141 -0.0298,0.25631 -0.10259,0.55625 -0.16164,0.66653 l -0.10737,0.20051 -0.28586,-0.21135 c -0.2313,-0.171 -0.4897,-0.22491 -1.35357,-0.28239 -0.58723,-0.0391 -1.08628,-0.055 -1.109,-0.0356 -0.0227,0.0196 0.512,0.60178 1.18825,1.29384 0.67626,0.69207 2.22244,2.34652 3.43596,3.67657 1.21352,1.33005 2.28674,2.50367 2.38492,2.60806 0.17516,0.18623 0.18679,0.18218 0.6187,-0.21594 0.73788,-0.68016 1.50603,-0.66971 1.79605,0.0244 0.13948,0.33379 0.15537,0.34165 0.57489,0.28415 0.24588,-0.0337 0.51099,-0.0129 0.61639,0.0483 0.27236,0.15822 0.30248,0.14277 0.36887,-0.18922 z M 117.003,220.32286 c 1.64363,-1.23924 3.94269,-3.30206 5.09435,-4.57086 1.46848,-1.61786 1.66245,-1.95515 1.57744,-2.74305 -0.0568,-0.52626 -0.0684,-0.54383 -0.37937,-0.57381 -0.26279,-0.0253 -0.32079,0.004 -0.32079,0.16149 0,0.10585 -0.1704,0.45287 -0.37866,0.77121 -0.20825,0.31835 -0.52538,0.82309 -0.7047,1.12168 -0.96874,1.61299 -2.87735,3.75857 -4.98698,5.6061 -0.65145,0.57052 -1.20666,1.06044 -1.2338,1.08871 -0.13994,0.1457 0.81847,-0.4739 1.33251,-0.86147 z m -15.6447,-0.88507 c 0,-0.095 -0.0666,-0.25894 -0.14805,-0.36431 -0.14656,-0.18967 -0.14956,-0.18967 -0.29612,0 -0.20809,0.26929 -0.18434,0.44263 0.074,0.54028 0.26872,0.10154 0.37014,0.0533 0.37014,-0.17597 z m -4.35508,-0.49382 c 1.340605,-0.98607 3.08469,-1.96144 5.04602,-2.82199 1.71781,-0.75369 1.97409,-0.87967 1.97409,-0.97037 0,-0.12884 -0.32,-0.0421 -1.18446,0.32103 -2.42371,1.01818 -6.613214,3.43588 -6.613214,3.81638 0,0.20615 0.071,0.17465 0.777564,-0.34505 z m 6.13177,0.18541 c 1.15459,-0.23092 1.56544,-0.32454 3.70142,-0.84337 4.93727,-1.19927 7.44509,-2.10589 10.02011,-3.62245 1.02476,-0.60354 2.46603,-1.62296 2.46603,-1.74425 0,-0.0941 -0.44988,-0.30519 -0.65046,-0.30519 -0.0813,0 -0.37893,0.17419 -0.6616,0.38707 -1.07057,0.80623 -3.17955,1.81729 -5.94273,2.84901 -2.44374,0.91245 -2.99844,1.07413 -6.02098,1.75504 -0.38002,0.0856 -0.97965,0.22058 -1.33252,0.29994 -0.35287,0.0794 -0.90808,0.2066 -1.2338,0.28278 -0.32573,0.0761 -0.92536,0.21363 -1.33252,0.30545 -0.40715,0.0917 -0.77251,0.1957 -0.8119,0.23086 -0.0394,0.0352 0.0181,0.21149 0.12777,0.39182 0.15533,0.25541 0.24748,0.31601 0.41708,0.27422 0.11974,-0.0295 0.68408,-0.14692 1.2541,-0.26093 z m -7.521462,-0.45796 c 0.206509,-0.1375 0.230458,-0.18499 0.10617,-0.21051 -0.147003,-0.0302 -0.992505,0.37442 -1.218185,0.58296 -0.160123,0.14796 0.826939,-0.18264 1.112015,-0.37245 z m 0.894038,-0.51658 c 0.197818,-0.15558 0.902398,-0.64617 1.565731,-1.0902 2.121073,-1.41986 1.432111,-1.18292 -0.934623,0.32142 -0.723618,0.45994 -1.110428,0.76604 -1.110428,0.87872 0,0.23363 0.05995,0.21987 0.47932,-0.10993 z m 8.357164,-3.17271 c 0.48001,-0.18251 2.43782,-0.66544 4.98217,-1.22897 3.13617,-0.6946 6.59496,-1.5174 6.74139,-1.60368 0.15861,-0.0935 -0.16073,-0.32499 -0.44824,-0.32499 -0.16275,0 -1.27884,0.24225 -2.4802,0.53836 -1.20137,0.29609 -2.78395,0.65406 -3.51683,0.79549 -2.87156,0.55417 -4.44828,0.96766 -5.50279,1.44309 -0.67662,0.30506 -0.47515,0.6467 0.2245,0.3807 z m 37.3599,-0.59159 c 3.16238,-0.37426 5.21883,-1.04718 6.0661,-1.98499 0.84939,-0.94018 1.17189,-2.06089 1.16129,-4.03572 -0.009,-1.62928 -0.15112,-2.20236 -0.78483,-3.15854 -0.6956,-1.04961 -2.17785,-2.23375 -3.53758,-2.82611 l -0.61811,-0.26929 -0.0661,-1.09265 c -0.17737,-2.93299 -0.3341,-3.40784 -1.25707,-3.80868 -0.46107,-0.20023 -0.67806,-0.22642 -1.85467,-0.22382 -1.78054,0.004 -2.85422,0.23859 -4.38252,0.95778 -1.10283,0.51897 -1.10426,0.52083 -0.8103,1.04698 0.35291,0.63165 0.92089,2.41106 0.99162,3.10659 0.0785,0.77145 -0.0421,0.98576 -0.78339,1.39318 -0.78258,0.4301 -1.5423,1.1072 -1.87032,1.66691 -0.14604,0.2492 -0.38077,0.8841 -0.52163,1.41088 -0.22162,0.82878 -0.25685,1.16383 -0.2616,2.4877 -0.005,1.1748 0.035,1.67496 0.16901,2.15479 0.73522,2.63255 1.8018,3.23837 5.74438,3.2629 0.97861,0.006 2.15567,-0.0335 2.61568,-0.0879 z m 24.87343,-0.15421 c 0.17577,-0.46234 0.10061,-0.81631 -0.3596,-1.69219 -0.83888,-1.59678 -0.92601,-1.80249 -0.92601,-2.18643 0,-0.47049 0.20935,-0.75036 0.9354,-1.2504 0.3149,-0.21688 0.57545,-0.47824 0.60865,-0.61058 0.1027,-0.40933 -0.58222,-1.2257 -1.64275,-1.95793 -1.16681,-0.80562 -4.0083,-2.84888 -4.20132,-3.0211 -0.3121,-0.27848 -0.40928,-0.22255 -0.48446,0.27879 -0.10212,0.68085 -0.45935,1.40983 -0.97602,1.99157 -0.64722,0.72874 -0.63038,0.89456 0.20626,2.03049 0.78831,1.07029 0.85123,1.25557 0.77245,2.27454 -0.10131,1.3112 -0.0792,1.52189 0.22855,2.17464 0.34085,0.72296 0.69666,1.09189 1.34535,1.39498 0.63867,0.29842 1.19653,0.4032 2.74839,0.51624 0.69729,0.0508 1.31691,0.14144 1.37693,0.20146 0.16861,0.16862 0.26339,0.13154 0.36818,-0.14408 z m -15.21593,-0.18341 c 0.93431,-0.25379 1.60453,-0.662 2.44331,-1.48814 1.12687,-1.10987 1.26997,-1.4156 1.27059,-2.71438 9.9e-4,-1.4169 -0.12262,-1.75739 -1.75131,-4.83653 -0.35894,-0.67859 -0.72699,-1.52252 -0.81788,-1.87538 -0.30692,-1.19152 -0.0367,-2.664 0.70016,-3.81597 0.37943,-0.59315 1.1049,-1.11927 1.54338,-1.11927 0.15665,0 0.27595,-0.0535 0.27485,-0.12338 -0.002,-0.11873 -0.90219,-0.71166 -2.28465,-1.50462 -0.61112,-0.35053 -0.76593,-0.51448 -0.90926,-0.963 -0.0492,-0.15405 -0.21037,-0.17273 -1.49018,-0.17273 -2.55683,0 -4.04051,0.31598 -6.73904,1.43522 -0.42611,0.17674 -0.53104,0.36649 -0.28165,0.50929 0.45711,0.26174 0.65563,1.12617 0.80592,3.50953 l 0.0669,1.06167 0.61138,0.29179 c 2.55941,1.22149 4.06822,3.00221 4.30973,5.08641 0.27703,2.39064 -0.34711,4.59082 -1.58435,5.5851 -0.21961,0.17648 -0.39927,0.37232 -0.39927,0.4352 0,0.13774 0.35546,0.47306 0.67826,0.63983 0.6101,0.3152 2.49531,0.3467 3.55306,0.0593 z m -48.9939,-0.0133 c 1.01151,-0.31067 2.33319,-0.64075 4.54041,-1.1339 1.24862,-0.27898 3.06971,-0.73136 4.04689,-1.0053 0.97718,-0.27394 2.05584,-0.56744 2.39703,-0.65223 0.46021,-0.11437 0.61228,-0.19365 0.58914,-0.30715 -0.0408,-0.20036 -0.17533,-0.18344 -1.75235,0.2204 -2.14062,0.54817 -3.81718,0.93464 -5.03395,1.16036 -3.10398,0.57584 -5.52746,1.33236 -5.52746,1.72549 0,0.18333 0.12261,0.18206 0.74029,-0.008 z m 32.02967,-0.30972 c 0,-0.0378 -0.10819,-0.18209 -0.24036,-0.32079 -0.31745,-0.33305 -0.80593,-1.33171 -1.00136,-2.04719 -0.21669,-0.79328 -0.29162,-2.68449 -0.14644,-3.69605 0.32936,-2.29484 0.9671,-3.33473 2.64673,-4.31568 0.49049,-0.28646 0.73243,-0.49156 0.77367,-0.65587 0.15122,-0.6025 -0.56348,-2.95767 -1.17538,-3.87324 l -0.314,-0.46983 -0.69092,-0.031 c -0.78173,-0.0351 -2.79691,0.22715 -3.27262,0.42591 -0.62773,0.26228 -0.63961,0.32497 -0.66732,3.52355 -0.0186,2.15444 -0.0649,3.09362 -0.18128,3.68184 -0.33363,1.68645 -0.81862,2.68231 -1.80261,3.70141 -0.39312,0.40716 -0.78679,0.88244 -0.87481,1.05618 -0.541,1.06783 0.31715,1.95762 2.39426,2.48252 1.49113,0.37681 4.55244,0.73878 4.55244,0.53828 z m -9.93107,-0.46449 c 0.0877,-0.18464 0.1593,-0.42893 0.1593,-0.54288 0,-0.18917 -0.0557,-0.20716 -0.64158,-0.20716 h -0.64158 v 0.38143 c 0,0.34796 0.0325,0.39474 0.37014,0.53327 0.53099,0.21786 0.57697,0.20781 0.75372,-0.16466 z m -2.4197,-0.1919 c 0.0606,-0.073 0.13653,-0.26439 0.16871,-0.42524 0.0569,-0.28451 0.0442,-0.29575 -0.46693,-0.41374 -0.46968,-0.10842 -0.53864,-0.10317 -0.65013,0.0493 -0.0686,0.0939 -0.12472,0.29534 -0.12472,0.44782 0,0.22127 0.0449,0.27756 0.22208,0.27877 0.12214,7.9e-4 0.28871,0.0445 0.37015,0.0972 0.20479,0.13235 0.35133,0.12196 0.48084,-0.034 z m -2.49015,-0.8816 c 0.0781,-0.15101 0.11721,-0.31467 0.087,-0.36368 -0.0661,-0.10678 -1.11652,-0.35375 -1.19046,-0.2798 -0.10318,0.10317 -0.22021,0.6466 -0.15841,0.73544 0.0349,0.05 0.21792,0.1869 0.40684,0.30408 0.32396,0.20094 0.354,0.20354 0.52831,0.0458 0.10165,-0.092 0.24871,-0.29081 0.32679,-0.44183 z m 39.80014,0.26994 c 0.4177,-0.35147 0.65858,-0.78313 0.84211,-1.50905 0.33468,-1.32376 0.20514,-1.86331 -0.78155,-3.25494 -0.69925,-0.98623 -0.70366,-1.28461 -0.0304,-2.06174 0.60253,-0.69559 0.89819,-1.41124 0.94956,-2.29848 l 0.043,-0.74237 -1.81262,-1.1968 c -1.7138,-1.13155 -3.16152,-2.21864 -3.57993,-2.68816 -0.1034,-0.11611 -0.28188,-0.21101 -0.39658,-0.21101 -0.33243,0 -0.89053,0.44025 -1.23129,0.97126 -0.54374,0.84735 -0.736,1.52557 -0.73199,2.58211 0.004,1.04067 0.16815,1.60029 0.7918,2.69877 1.38726,2.44348 1.91247,3.84321 1.93864,5.16661 0.0165,0.83415 0.0415,0.9397 0.31251,1.31889 0.51837,0.72529 1.9892,1.46503 2.92736,1.47228 0.35339,0.002 0.53101,-0.0551 0.75949,-0.24737 z m -33.52441,-0.40637 c 0.77825,-0.23112 1.26096,-0.57496 1.26141,-0.89854 1.9e-4,-0.14861 0.0914,-0.41956 0.20273,-0.60212 0.11133,-0.18256 0.17867,-0.3556 0.14974,-0.38454 -0.0289,-0.0289 -0.31941,0.0671 -0.64549,0.21344 -0.74112,0.33259 -1.2927,0.49469 -2.42173,0.7117 -1.15523,0.22205 -3.7183,0.22246 -5.25942,8.9e-4 -0.6126,-0.0881 -1.15933,-0.16022 -1.21496,-0.16022 -0.17659,0 -0.002,0.17167 0.22985,0.22708 0.12294,0.0293 0.82317,0.20709 1.55605,0.39513 1.23369,0.31654 2.75256,0.60276 3.70143,0.6975 0.63883,0.0638 1.89953,-0.0397 2.44039,-0.20032 z m -8.91273,-0.40159 c 0.16681,-0.20237 0.3033,-0.42029 0.3033,-0.48424 0,-0.12001 -0.79059,-0.43096 -1.09568,-0.43096 -0.11005,0 -0.21434,0.12778 -0.28906,0.35416 -0.11226,0.34026 -0.10387,0.3653 0.21443,0.63757 0.18223,0.15587 0.38361,0.28521 0.44752,0.28741 0.0639,0.002 0.25267,-0.16157 0.41949,-0.36394 z m 7.16327,-0.73199 c 1.83037,-0.27473 3.25974,-0.86313 4.19086,-1.72519 1.57025,-1.45378 1.99406,-4.26366 1.22639,-8.13108 -0.22899,-1.15362 -0.4272,-1.75347 -0.60148,-1.82034 -0.17646,-0.0677 -1.83155,-0.43125 -3.34685,-0.73513 -1.01612,-0.20377 -2.06616,-0.38717 -3.73912,-0.65307 -0.54288,-0.0863 -1.49785,-0.30823 -2.12216,-0.49321 -1.7158,-0.50838 -2.83061,-0.73005 -4.21912,-0.83892 -3.13235,-0.24563 -3.92091,-0.31909 -5.35522,-0.49894 -0.84147,-0.10551 -1.92968,-0.25978 -2.41827,-0.34283 -0.48859,-0.083 -1.15485,-0.19618 -1.48057,-0.25141 -0.32573,-0.0553 -0.89634,-0.19029 -1.26803,-0.30014 -0.93496,-0.27635 -1.4919,-0.35462 -3.7861,-0.53212 -1.807997,-0.1399 -2.193967,-0.20461 -4.132006,-0.69277 -2.574919,-0.64857 -3.620682,-0.95888 -5.816981,-1.72611 -1.21468,-0.42432 -7.991108,-3.85382 -8.376653,-4.23936 -0.19121,-0.19121 -0.35871,-0.10772 -0.35871,0.17874 0,0.15546 -0.08812,0.36056 -0.197409,0.45946 -0.108571,0.0983 -0.197409,0.21499 -0.197409,0.2594 0,0.0444 0.54411,0.33558 1.209132,0.64709 0.665023,0.3115 2.252934,1.08488 3.528692,1.71864 2.596497,1.28984 2.563852,1.27474 4.885881,2.25928 0.922889,0.3913 1.855648,0.79099 2.072798,0.88821 0.21715,0.0972 1.260952,0.55447 2.319559,1.01611 2.276914,0.99293 3.243234,1.44928 3.3151,1.56556 0.113606,0.18382 0.303256,0.0686 0.420476,-0.25561 0.25022,-0.69199 1.53634,-1.4359 2.48268,-1.43603 l 0.54274,-8e-5 0.64172,0.67909 c 0.35295,0.3735 0.82871,0.77324 1.05725,0.88833 0.34363,0.17303 0.43522,0.28181 0.52935,0.62874 0.0626,0.23074 0.15323,0.54829 0.20138,0.70569 0.23418,0.76543 -0.0313,1.14505 -0.80079,1.14505 -0.56383,0 -0.59205,0.0611 -0.29612,0.64158 0.10857,0.21295 0.19741,0.50767 0.19741,0.65491 0,0.14725 0.05,0.48452 0.11121,0.74949 0.1401,0.60697 -0.0353,0.99983 -0.60755,1.3611 -0.2156,0.13611 -0.392,0.26536 -0.392,0.28723 0,0.0518 0.38761,0.48176 1.47861,1.64036 0.66483,0.70602 1.07953,1.05008 1.65378,1.37208 1.84622,1.03522 5.81374,3.00168 7.04905,3.49381 3.32081,1.32294 7.39173,1.88371 10.39848,1.43239 z m -9.22888,-0.55092 c 0,-0.15595 -0.65254,-0.45779 -0.83682,-0.38707 -0.14543,0.0558 -0.25111,0.3982 -0.16281,0.52748 0.034,0.0499 0.17082,0.16517 0.30389,0.25623 0.23037,0.15761 0.25283,0.15533 0.46885,-0.0476 0.12479,-0.11724 0.22689,-0.2743 0.22689,-0.34903 z m -10.97626,-6.665 c -0.0786,-0.12215 -0.2838,-0.28871 -0.4561,-0.37014 -0.17231,-0.0815 -0.30223,-0.20165 -0.28871,-0.26715 0.0135,-0.0655 0.26886,-0.28893 0.56744,-0.49651 0.50727,-0.35268 0.54468,-0.40637 0.57039,-0.81862 0.0317,-0.50852 -0.20244,-1.02032 -0.60397,-1.32011 l -0.26031,-0.19435 -0.42061,0.31912 c -0.77361,0.58693 -1.30515,0.90911 -1.77779,1.07757 -0.25787,0.0919 -0.46885,0.19664 -0.46885,0.23274 0,0.20049 1.20698,1.11656 2.04266,1.55032 1.10312,0.57259 1.31516,0.62815 1.09585,0.28713 z m 26.24849,-2.66503 -0.0263,-1.90006 -0.33138,-0.0318 c -0.18225,-0.0175 -0.37186,0.008 -0.42134,0.058 -0.0542,0.0542 0.006,0.45975 0.15112,1.01891 0.13259,0.51093 0.26972,1.15104 0.3047,1.42247 0.0696,0.5403 0.25592,1.33251 0.31331,1.33251 0.0199,0 0.0244,-0.85502 0.009,-1.90006 z m -29.97923,0.43043 c 0,-0.10259 -0.0854,-0.29134 -0.18975,-0.41949 l -0.18974,-0.23302 -0.1104,0.28845 c -0.1442,0.37677 -0.0684,0.55054 0.24003,0.55054 0.17917,0 0.24986,-0.0528 0.24986,-0.18648 z m 1.14275,-0.0571 c 0.49713,-0.20772 1.53412,-0.95471 1.49369,-1.07597 -0.0188,-0.0564 -0.18663,-0.13836 -0.37294,-0.18209 -0.64889,-0.15229 -1.14113,-0.3039 -3.154124,-0.97145 -1.823096,-0.60458 -3.090896,-1.09035 -6.156201,-2.35883 -0.537067,-0.22225 -0.997111,-0.38346 -1.02232,-0.35825 -0.0252,0.0252 0.725128,0.43177 1.667417,0.90347 3.495598,1.74986 5.851828,3.01683 6.190798,3.32886 0.13001,0.11966 0.29787,0.36192 0.37303,0.53836 0.15661,0.36761 0.41213,0.41345 0.98065,0.1759 z m -1.828438,-0.31308 c 0.138218,-0.36355 -0.03857,-0.53029 -1.234661,-1.16445 -1.099084,-0.58274 -2.082768,-0.92846 -2.228139,-0.78309 -0.16643,0.16643 -0.212297,0.67087 -0.07727,0.84982 0.105179,0.13939 3.094987,1.34349 3.36453,1.35501 0.04206,0.002 0.121051,-0.11402 0.17554,-0.25729 z m -3.821335,-1.48626 c 0.03257,-0.20073 0.04386,-0.38032 0.02509,-0.3991 -0.01877,-0.0188 -0.694766,-0.16728 -1.502204,-0.33003 -5.45899,-1.10029 -11.421428,-2.92523 -16.717939,-5.11696 -1.52013,-0.62903 -3.05947,-1.28715 -3.257254,-1.39258 -0.08143,-0.0434 -0.85873,-0.43321 -1.727331,-0.86624 -7.205283,-3.59206 -12.112586,-7.36298 -15.482914,-11.89752 -1.137038,-1.52981 -2.341388,-3.5352 -2.735854,-4.55554 -0.06297,-0.16287 -0.133598,-0.24509 -0.156964,-0.18272 -0.02336,0.0624 0.158291,0.51983 0.403684,1.01658 2.366346,4.79019 6.387596,9.02795 12.12251,12.7752 4.100488,2.67929 9.757464,5.41553 15.029072,7.26945 0.4343,0.15273 1.167183,0.41015 1.628627,0.57203 1.272989,0.44659 3.150896,1.04351 4.688471,1.49032 0.760027,0.22085 1.515118,0.44321 1.67798,0.49415 0.983374,0.30754 5.476988,1.46505 5.736632,1.47771 0.167419,0.008 0.220992,-0.0626 0.268396,-0.35475 z m 6.283713,-0.22728 c 0.20058,-0.0642 0.15838,-0.0809 -0.22556,-0.0888 -0.25978,-0.006 -0.59291,-0.0846 -0.74029,-0.176 -0.14738,-0.0914 -0.22355,-0.11635 -0.16926,-0.0555 0.1285,0.14404 0.66273,0.42051 0.78964,0.40865 0.0543,-0.005 0.20975,-0.0448 0.34547,-0.0883 z m 0.31735,-0.29476 c 0.22026,-0.002 0.83731,-0.54577 1.0202,-0.89944 0.18219,-0.35232 0.18415,-1.10577 0.004,-1.45105 -0.49691,-0.95117 -1.6613,-1.23554 -2.4663,-0.60234 -0.34304,0.26984 -0.65227,0.886 -0.64954,1.29424 0.003,0.39381 0.28997,1.04786 0.56958,1.29648 0.27144,0.24136 0.90872,0.46722 1.15558,0.40956 0.10857,-0.0253 0.2736,-0.0468 0.36671,-0.0474 z m -1.24468,-0.28389 c -0.97841,-0.66499 -0.91853,-2.24355 0.10351,-2.72853 0.50626,-0.24024 1.32919,-0.16325 1.67628,0.15682 0.71459,0.65895 0.71125,1.78365 -0.007,2.45496 -0.36104,0.33732 -1.35195,0.40258 -1.77251,0.11675 z m 0.64812,-1.16398 c 0.23351,-0.21132 0.22789,-0.35538 -0.0227,-0.58215 -0.15167,-0.13726 -0.24384,-0.15824 -0.36355,-0.0828 -0.31625,0.19948 -0.37572,0.40742 -0.17878,0.62505 0.22253,0.24588 0.32903,0.25339 0.56501,0.0399 z m 3.14072,1.27379 c -0.001,-0.23818 -0.51563,-1.10894 -0.82498,-1.39665 -0.27698,-0.2576 -0.29226,-0.24321 -0.40018,0.37668 -0.0323,0.18548 -0.16939,0.48233 -0.30466,0.65967 -0.13527,0.17736 -0.24594,0.36983 -0.24594,0.42775 0,0.0668 0.32487,0.10527 0.88834,0.10527 0.78059,0 0.88823,-0.021 0.88742,-0.17273 z m -8.883623,-0.0987 c -7.9e-4,-0.12926 -1.341665,-0.84032 -5.328162,-2.82557 -2.929874,-1.45906 -5.305218,-2.68814 -5.278541,-2.73131 0.05828,-0.0943 1.106324,0.31221 2.612743,1.01341 0.352869,0.16425 0.930291,0.4212 1.283161,0.57099 0.352869,0.14979 0.974709,0.42851 1.381865,0.61936 2.950499,1.38305 3.357949,1.55056 3.354447,1.37903 -0.004,-0.19245 -0.21715,-0.34339 -0.989342,-0.70031 -0.45935,-0.21233 -1.323771,-0.61941 -1.920934,-0.90464 -2.125194,-1.01507 -4.649767,-2.14793 -5.344493,-2.39824 -1.73009,-0.62338 -4.85049,-1.08684 -7.388409,-1.0974 -1.45524,-0.006 -1.901689,0.0266 -2.467617,0.18046 -0.727617,0.19782 -1.046146,0.39145 -0.884111,0.53746 0.137237,0.12364 2.982567,1.31099 4.931003,2.05768 3.806522,1.45874 9.377024,3.12889 12.930311,3.87678 0.814314,0.1714 1.747073,0.37147 2.072798,0.44461 0.838257,0.18825 1.036616,0.18397 1.035281,-0.0223 z m 3.671643,0.068 c 0.0192,-0.0576 -0.147949,-0.29556 -0.371438,-0.5288 -0.411895,-0.42988 -0.569701,-0.84247 -0.469206,-1.22676 0.04913,-0.18786 -0.07941,-0.27695 -1.144291,-0.79316 -1.636411,-0.79323 -2.48153,-1.06088 -2.857793,-0.90502 -0.36223,0.15004 -0.631485,0.64522 -0.588365,1.08204 0.03022,0.30613 0.07802,0.35219 0.52676,0.5075 0.271438,0.094 1.448491,0.57393 2.615673,1.06666 1.167184,0.49272 2.151763,0.8973 2.187954,0.89904 0.03619,0.002 0.08151,-0.0439 0.100706,-0.10154 z m 0.78313,-0.31479 c -0.16304,-0.23073 -0.32604,-0.58519 -0.36223,-0.78771 -0.0497,-0.27838 -0.13912,-0.4048 -0.36644,-0.5182 -0.374616,-0.18688 -0.510336,-0.18845 -0.660397,-0.008 -0.25642,0.30897 0.420607,1.18346 1.222657,1.57925 0.46287,0.22843 0.48764,0.18887 0.16641,-0.2657 z m 4.79919,-0.19741 c -0.0256,-0.0679 -0.12133,-0.38195 -0.21277,-0.69798 -0.14019,-0.48449 -0.21581,-0.5953 -0.48224,-0.70664 -0.1738,-0.0726 -0.4298,-0.22158 -0.56891,-0.33101 -0.15897,-0.12507 -0.30195,-0.16867 -0.38492,-0.1174 -0.0993,0.0613 -0.009,0.21253 0.3628,0.6095 0.27213,0.29036 0.61247,0.71669 0.7563,0.94742 0.14383,0.23072 0.33232,0.41949 0.41888,0.41949 0.0866,0 0.13645,-0.0555 0.11087,-0.12338 z m -11.175443,-2.35399 c 0.03694,-0.16823 0.02938,-0.3414 -0.01683,-0.38482 -0.07622,-0.0717 -1.925445,-0.81754 -4.22961,-1.70607 -3.263435,-1.25845 -5.289137,-1.94625 -5.732046,-1.94625 -0.126664,0 -0.332325,-0.0397 -0.457027,-0.0883 -0.202567,-0.0788 -1.198684,-0.23061 -3.286575,-0.50074 -0.380012,-0.0492 -0.890809,-0.0534 -1.135103,-0.009 l -0.444171,0.0801 0.375909,0.0124 c 1.26259,0.0415 3.039372,0.31593 5.239495,0.80928 1.540781,0.3455 2.794923,0.86319 7.117498,2.938 1.248614,0.59933 2.3222,1.09236 2.385745,1.09565 0.06355,0.004 0.14577,-0.13169 0.182719,-0.29992 z"
       id="path300" /></g></svg>
