<?xml version="1.0" encoding="UTF-8" standalone="no"?>
<!-- Created with Inkscape (http://www.inkscape.org/) -->

<svg
   id="svg2"
   style="enable-background:new"
   sodipodi:docname="snail.svg"
   inkscape:export-filename="/home/olivier/Images/Creations/Escargot.png"
   viewBox="0 0 472.44095 332.59843"
   inkscape:export-xdpi="90"
   version="1.1"
   inkscape:export-ydpi="90"
   inkscape:version="1.2.2 (732a01da63, 2022-12-09)"
   width="125mm"
   height="88mm"
   xmlns:inkscape="http://www.inkscape.org/namespaces/inkscape"
   xmlns:sodipodi="http://sodipodi.sourceforge.net/DTD/sodipodi-0.dtd"
   xmlns:xlink="http://www.w3.org/1999/xlink"
   xmlns="http://www.w3.org/2000/svg"
   xmlns:svg="http://www.w3.org/2000/svg"
   xmlns:rdf="http://www.w3.org/1999/02/22-rdf-syntax-ns#"
   xmlns:cc="http://creativecommons.org/ns#"
   xmlns:dc="http://purl.org/dc/elements/1.1/">
  <title
     id="title6800">Escargot</title>
  <defs
     id="defs4">
    <pattern
       id="pattern6477"
       xlink:href="#pattern3905"
       patternTransform="translate(718.68 332.94)"
       inkscape:collect="always" />
    <linearGradient
       id="linearGradient6353">
      <stop
         id="stop6355"
         style="stop-color:#b5ad94"
         offset="0" />
      <stop
         id="stop6357"
         style="stop-color:#d9d4c1"
         offset=".63145" />
      <stop
         id="stop6359"
         style="stop-color:#c6b98d"
         offset="1" />
    </linearGradient>
    <linearGradient
       id="linearGradient5370">
      <stop
         id="stop5372"
         style="stop-color:#b5ad94"
         offset="0" />
      <stop
         id="stop5378"
         style="stop-color:#d9d4c1"
         offset=".48963" />
      <stop
         id="stop5374"
         style="stop-color:#c6b98d"
         offset="1" />
    </linearGradient>
    <linearGradient
       id="linearGradient3879">
      <stop
         id="stop3889"
         style="stop-color:#99643f"
         offset="0" />
      <stop
         id="stop3883"
         style="stop-color:#91694e"
         offset="1" />
    </linearGradient>
    <pattern
       id="pattern3905"
       width="16.291914"
       patternUnits="userSpaceOnUse"
       patternTransform="translate(691.89 313.3)"
       height="14.404769">
      <path
         id="path3903"
         sodipodi:rx="9.0913725"
         sodipodi:ry="4.5456862"
         style="opacity:.27397;stroke-linejoin:round;stroke:#000000;stroke-linecap:round;fill:#c2aa9e"
         sodipodi:type="arc"
         d="m709.13 320.51a9.0914 4.5457 0 1 1 -18.183 0 9.0914 4.5457 0 1 1 18.183 0z"
         transform="matrix(.78018 .62555 -.62555 .78018 -337.52 -680.75)"
         sodipodi:cy="320.50665"
         sodipodi:cx="700.03571" />
    </pattern>
    <filter
       id="filter6371"
       inkscape:collect="always"
       color-interpolation-filters="sRGB"
       x="-0.0071666407"
       y="-0.036855017"
       width="1.0143333"
       height="1.07371">
      <feGaussianBlur
         id="feGaussianBlur6373"
         stdDeviation="1.0605966"
         inkscape:collect="always" />
    </filter>
    <filter
       id="filter6443"
       inkscape:collect="always"
       color-interpolation-filters="sRGB"
       x="-0.023833343"
       y="-0.029211892"
       width="1.0476575"
       height="1.0584268">
      <feGaussianBlur
         id="feGaussianBlur6445"
         stdDeviation="2.6333515"
         inkscape:collect="always" />
    </filter>
    <filter
       id="filter6457"
       inkscape:collect="always"
       color-interpolation-filters="sRGB"
       x="-0.012293181"
       y="-0.03296767"
       width="1.0245632"
       height="1.0659035">
      <feGaussianBlur
         id="feGaussianBlur6459"
         stdDeviation="2.0443824"
         inkscape:collect="always" />
    </filter>
    <filter
       id="filter6710"
       inkscape:collect="always"
       color-interpolation-filters="sRGB"
       x="-0.062622683"
       y="-0.15217863"
       width="1.1252454"
       height="1.3043326">
      <feGaussianBlur
         id="feGaussianBlur6712"
         stdDeviation="13.204141"
         inkscape:collect="always" />
    </filter>
    <linearGradient
       id="linearGradient6774"
       y2="256.42001"
       xlink:href="#linearGradient5370"
       gradientUnits="userSpaceOnUse"
       x2="385.73001"
       gradientTransform="translate(26.786,19.643)"
       y1="366.42001"
       x1="405.17999"
       inkscape:collect="always" />
    <linearGradient
       id="linearGradient6776"
       y2="225.39"
       gradientUnits="userSpaceOnUse"
       x2="537.53998"
       y1="217.12"
       x1="530.28003"
       inkscape:collect="always">
      <stop
         id="stop6365"
         style="stop-color:#b5ad94"
         offset="0" />
      <stop
         id="stop6367"
         style="stop-color:#d9d4c1"
         offset=".58035" />
      <stop
         id="stop6369"
         style="stop-color:#c6b98d"
         offset="1" />
    </linearGradient>
    <linearGradient
       id="linearGradient6778"
       y2="223.64"
       xlink:href="#linearGradient6353"
       gradientUnits="userSpaceOnUse"
       x2="563.35999"
       y1="223.64"
       x1="502.56"
       inkscape:collect="always" />
    <linearGradient
       id="linearGradient6782"
       y2="259.01001"
       xlink:href="#linearGradient5370"
       gradientUnits="userSpaceOnUse"
       x2="541.92999"
       y1="269.62"
       x1="542.33002"
       inkscape:collect="always" />
    <radialGradient
       id="radialGradient6792"
       xlink:href="#linearGradient3879"
       gradientUnits="userSpaceOnUse"
       cy="232.32001"
       cx="269.98001"
       gradientTransform="matrix(1,0,0,0.81663,0,42.602)"
       r="143.58"
       inkscape:collect="always" />
    <radialGradient
       id="radialGradient6798"
       gradientUnits="userSpaceOnUse"
       cy="109.67"
       cx="525.85999"
       gradientTransform="matrix(1,0,0,0.43774,0,61.662)"
       r="269"
       inkscape:collect="always">
      <stop
         id="stop6716"
         style="stop-color:#000000"
         offset="0" />
      <stop
         id="stop6718"
         style="stop-color:#000000;stop-opacity:0"
         offset="1" />
    </radialGradient>
    <linearGradient
       inkscape:collect="always"
       xlink:href="#linearGradient6353"
       id="linearGradient251"
       gradientUnits="userSpaceOnUse"
       x1="502.56"
       y1="223.64"
       x2="563.35999"
       y2="223.64" />
    <linearGradient
       inkscape:collect="always"
       xlink:href="#linearGradient5370"
       id="linearGradient253"
       gradientUnits="userSpaceOnUse"
       x1="542.33002"
       y1="269.62"
       x2="541.92999"
       y2="259.01001" />
    <linearGradient
       inkscape:collect="always"
       xlink:href="#linearGradient5370"
       id="linearGradient255"
       gradientUnits="userSpaceOnUse"
       x1="542.33002"
       y1="269.62"
       x2="541.92999"
       y2="259.01001" />
    <linearGradient
       inkscape:collect="always"
       xlink:href="#linearGradient5370"
       id="linearGradient257"
       gradientUnits="userSpaceOnUse"
       x1="542.33002"
       y1="269.62"
       x2="541.92999"
       y2="259.01001" />
    <linearGradient
       inkscape:collect="always"
       xlink:href="#linearGradient5370"
       id="linearGradient259"
       gradientUnits="userSpaceOnUse"
       x1="542.33002"
       y1="269.62"
       x2="541.92999"
       y2="259.01001" />
    <radialGradient
       inkscape:collect="always"
       xlink:href="#linearGradient3879"
       id="radialGradient261"
       gradientUnits="userSpaceOnUse"
       gradientTransform="matrix(1,0,0,0.81663,0,42.602)"
       cx="269.98001"
       cy="232.32001"
       r="143.58" />
    <radialGradient
       inkscape:collect="always"
       xlink:href="#linearGradient3879"
       id="radialGradient263"
       gradientUnits="userSpaceOnUse"
       gradientTransform="matrix(1,0,0,0.81663,0,42.602)"
       cx="269.98001"
       cy="232.32001"
       r="143.58" />
  </defs>
  <sodipodi:namedview
     id="base"
     fit-margin-left="5"
     inkscape:zoom="0.7"
     borderopacity="1.0"
     inkscape:current-layer="layer2"
     inkscape:cx="-45.714286"
     inkscape:cy="226.42857"
     inkscape:object-paths="false"
     inkscape:window-maximized="1"
     showgrid="false"
     fit-margin-right="5"
     inkscape:document-units="px"
     bordercolor="#666666"
     inkscape:window-x="66"
     inkscape:window-y="24"
     inkscape:object-nodes="false"
     fit-margin-bottom="5"
     inkscape:window-width="1614"
     inkscape:pageopacity="0.0"
     inkscape:pageshadow="2"
     pagecolor="#ffffff"
     inkscape:window-height="1026"
     fit-margin-top="5"
     inkscape:showpageshadow="0"
     inkscape:pagecheckerboard="0"
     inkscape:deskcolor="#d1d1d1" />
  <g
     id="layer2"
     inkscape:label="Dessin"
     inkscape:groupmode="layer"
     transform="translate(-115.97,-110.35)">
    <path
       id="path6447"
       d="m 564.46,323.25 c -1.3184,13.77 -7.9468,22.482 -18.688,27.274 -5.09,2.271 -10.003,4.9381 -15.152,7.0711 -29.129,12.066 -59.271,21.527 -88.893,32.325 -8.7571,3.1921 -17.344,6.8936 -26.264,9.5964 -17.078,5.1747 -34.497,9.2725 -52.023,12.627 -13.026,2.493 -26.209,4.1452 -39.396,5.5558 -6.8819,0.7362 -13.787,1.4988 -20.708,1.5152 -18.631,0.0444 -32.099,3.988 -53.033,3.5355 -8.046,-0.17389 -18.218,-1.6877 -26.264,-1.5152 -19.719,0.42274 -40.73,-3.3828 -57.579,-13.637 -12.136,-7.3861 -18.211,-22.085 -29.8,-30.305 -3.3916,-2.4057 -7.7289,-2.8508 -9.5964,-6.566 -2.5864,-5.1453 3.0305,-15.657 4.5457,-16.668 1.5152,-1.0102 1.9056,-14.007 4.0406,-20.708 1.7385,-5.4564 5.9321,-9.7114 10.102,-13.637 5.5092,-5.187 10.851,-8.2296 18.183,-10.102 109.49,-27.956 224.06,-29.637 335.88,-45.962 9.778,-1.4275 19.627,-6.593 29.294,-4.5457 13.706,2.9027 28.091,10.748 35.355,22.728 3.8565,6.3605 1.5507,14.8 2.0203,22.223 0.29782,4.7076 1.5067,9.5327 0.50508,14.142 -0.3997,1.8394 -2.346,3.177 -2.5254,5.0508 z"
       sodipodi:nodetypes="sssssssssssssssssssssss"
       style="opacity:0.2363;fill:#000000;stroke:#000000;stroke-width:1px;filter:url(#filter6457)"
       inkscape:connector-curvature="0"
       transform="matrix(0.77646972,0,0,0.77646972,77.040745,105.71405)" />
    <g
       id="g6479"
       transform="matrix(0.7714382,0,0,0.77646972,79.8834,105.71405)">
      <path
         id="path3053"
         sodipodi:nodetypes="sssssssssssssssssssssss"
         style="fill:url(#linearGradient6774);stroke:#000000;stroke-width:1px"
         inkscape:connector-curvature="0"
         d="m 562.67,321.46 c -1.3184,13.77 -7.9468,22.482 -18.688,27.274 -5.09,2.271 -10.003,4.9381 -15.152,7.0711 -29.129,12.066 -59.271,21.527 -88.893,32.325 -8.7571,3.1921 -17.344,6.8936 -26.264,9.5964 -17.078,5.1747 -34.497,9.2725 -52.023,12.627 -13.026,2.493 -26.209,4.1452 -39.396,5.5558 -6.8819,0.7362 -13.787,1.4988 -20.708,1.5152 -18.631,0.0444 -32.099,3.988 -53.033,3.5355 -8.046,-0.17388 -18.218,-1.6877 -26.264,-1.5152 -19.719,0.42273 -40.73,-3.3828 -57.579,-13.637 -12.136,-7.3861 -18.211,-22.085 -29.8,-30.305 -3.3916,-2.4057 -7.7289,-2.8508 -9.5964,-6.566 -2.5864,-5.1453 3.0305,-15.657 4.5457,-16.668 1.5152,-1.0102 1.9056,-14.007 4.0406,-20.708 1.7385,-5.4564 5.9321,-9.7114 10.102,-13.637 5.5092,-5.187 10.851,-8.2296 18.183,-10.102 109.49,-27.956 224.06,-29.637 335.88,-45.962 9.778,-1.4275 19.627,-6.593 29.294,-4.5457 13.706,2.9027 28.091,10.748 35.355,22.728 3.8565,6.3605 1.5507,14.8 2.0203,22.223 0.29782,4.7076 1.5067,9.5327 0.50508,14.142 -0.39971,1.8394 -2.346,3.177 -2.5254,5.0508 z" />
      <path
         id="path5531"
         d="m 562.67,321.46 c -1.3184,13.77 -7.9468,22.482 -18.688,27.274 -5.09,2.271 -10.003,4.9381 -15.152,7.0711 -29.129,12.066 -59.271,21.527 -88.893,32.325 -8.7571,3.1921 -17.344,6.8936 -26.264,9.5964 -17.078,5.1747 -34.497,9.2725 -52.023,12.627 -13.026,2.493 -26.209,4.1452 -39.396,5.5558 -6.8819,0.7362 -13.787,1.4988 -20.708,1.5152 -18.631,0.0444 -32.099,3.988 -53.033,3.5355 -8.046,-0.17389 -18.218,-1.6877 -26.264,-1.5152 -19.719,0.42274 -40.73,-3.3828 -57.579,-13.637 -12.136,-7.3861 -18.211,-22.085 -29.8,-30.305 -3.3916,-2.4057 -7.7289,-2.8508 -9.5964,-6.566 -2.5864,-5.1453 3.0305,-15.657 4.5457,-16.668 1.5152,-1.0102 1.9056,-14.007 4.0406,-20.708 1.7385,-5.4564 5.9321,-9.7114 10.102,-13.637 5.5092,-5.187 10.851,-8.2296 18.183,-10.102 109.49,-27.956 224.06,-29.637 335.88,-45.962 9.778,-1.4276 19.627,-6.593 29.294,-4.5457 13.706,2.9027 28.091,10.748 35.355,22.728 3.8565,6.3605 1.5507,14.8 2.0203,22.223 0.29782,4.7076 1.5067,9.5327 0.50508,14.142 -0.3997,1.8394 -2.346,3.177 -2.5254,5.0508 z"
         sodipodi:nodetypes="sssssssssssssssssssssss"
         style="opacity:0.15411;fill:url(#pattern6477);stroke:#000000;stroke-width:1px"
         inkscape:connector-curvature="0" />
    </g>
    <path
       id="path3065"
       d="m 514.93084,345.94602 7.45132,6.47094 c 0.0917,1.41845 0.36214,2.92628 -1.5687,3.33346 l -10.1966,-2.74521 c -0.39218,-3.66028 1.04582,-6.01337 4.31391,-7.05919 z"
       sodipodi:nodetypes="ccccc"
       style="fill:#ccc5ae;stroke:#000000;stroke-width:0.77647px"
       inkscape:connector-curvature="0" />
    <path
       id="path3063"
       d="m 499.12969,309.8557 c 3.63838,-2.07014 7.67089,-3.35202 12.35363,-3.33354 0.32563,1.69946 2.03606,3.39884 0,5.0983 l -7.45132,3.13741 z"
       sodipodi:nodetypes="ccccc"
       style="fill:#ccc5ae;stroke:#000000;stroke-width:0.77647px"
       inkscape:connector-curvature="0" />
    <g
       id="g3103"
       style="fill:url(#linearGradient6778)"
       transform="matrix(0.77646972,0,0,0.77646972,93.124538,120.13387)">
      <path
         id="path3059"
         sodipodi:nodetypes="ccccc"
         style="fill:url(#linearGradient6776);stroke:#000000;stroke-width:1px"
         inkscape:connector-curvature="0"
         d="m 503.06,238.18 51.518,-35.86 4.0406,6.566 c -14.968,10.14 -27.79,22.696 -37.376,38.891 -6.1105,-3.4068 -15.682,-4.9865 -18.183,-9.5964 z" />
      <ellipse
         id="path3099"
         style="fill:url(#linearGradient251);stroke:#000000;stroke-linecap:round;stroke-linejoin:round"
         transform="translate(-1.0714,-0.71429)"
         cx="559.46429"
         cy="204.86218"
         rx="4.4642859"
         ry="4.6428571" />
    </g>
    <path
       id="path5434"
       d="m 532.64,321.91 c -112.45,42.127 -229.93,64.617 -351.92,67.804 -3.799,2.2407 -4.5655,-2.9074 -0.74549,0.28572 125.4,5.8633 243.09,-14.51 352.35,-65.754 z"
       sodipodi:nodetypes="ccccc"
       style="color:#000000;text-indent:0;text-transform:none;opacity:0.43493;fill:#ac9d93;filter:url(#filter6371);enable-background:accumulate"
       inkscape:connector-curvature="0"
       transform="matrix(0.77646972,0,0,0.77646972,77.040745,105.71405)" />
    <g
       id="g6331"
       style="fill:url(#linearGradient6782)"
       transform="matrix(0.77646972,0,0,0.77646972,103.66279,121.24344)">
      <g
         id="g3875"
         style="fill:url(#linearGradient257)">
        <path
           id="path3061"
           d="m 514.67,254.59 c -5.6028,8.8146 -1.2115,15.63 3.0305,22.476 13.498,-7.7698 38.14,-7.9646 54.296,-9.5964 l 1.2627,-8.5863 c -20.31,2.4702 -39.618,-0.0682 -58.589,-4.2932 z"
           sodipodi:nodetypes="ccccc"
           style="fill:url(#linearGradient253);stroke:#000000;stroke-width:1px"
           inkscape:connector-curvature="0" />
        <ellipse
           id="path3101"
           style="fill:url(#linearGradient255);stroke:#000000;stroke-width:0.7619;stroke-linecap:round;stroke-linejoin:round"
           transform="matrix(1.3125,0,0,1.3125,-157.57,-5.6266)"
           cx="559.46429"
           cy="204.86218"
           rx="4.4642859"
           ry="4.6428571" />
      </g>
      <circle
         id="path5484"
         style="fill:url(#linearGradient259);stroke:#000000;stroke-width:4;stroke-linecap:round;stroke-linejoin:round"
         transform="translate(2.1429)"
         cx="575.71429"
         cy="263.07648"
         r="0.71428573" />
    </g>
    <g
       id="g6667"
       transform="matrix(0.9817708,0,0,0.9817708,27.884885,30.471788)">
      <g
         id="g6495">
        <g
           id="g6431"
           style="opacity:0.83219;fill:#000000;stroke:#000000;filter:url(#filter6443)"
           transform="matrix(0.99118,0,0,0.98719,37.208,15.168)">
          <path
             id="path6433"
             d="m 278.8,338.69 c 33.783,5.9107 145.47,-1.1537 133.34,-74.246 0,0 -12.328,-135.29 -151.02,-148.49 -61.06,-5.8114 -140.32,56.509 -133.85,130.81 6.172,70.79 44.053,94.655 80.39,100.82 36.338,6.1673 71.132,-8.8985 71.132,-8.8985 z"
             sodipodi:nodetypes="ccsssc"
             style="fill:#000000;stroke:#000000;stroke-width:1px"
             inkscape:connector-curvature="0" />
          <path
             id="path6435"
             d="m 179.3,254.34 c -10.945,-9.0481 11.908,-17.219 11.9,-3.6659 -0.007,10.387 -11.779,18.974 -20.115,12.167 -9.7104,-10.447 -5.1551,-31.054 9.2469,-34.742 20.322,-4.4036 37.755,20.418 29.222,38.584 -7.7048,16.398 -34.639,20.807 -44.92,4.646 -22.887,-34.566 13.789,-74.533 44.965,-62.08 21.885,10.037 37.034,33.253 32.829,54.204 -3.1262,18.079 -15.152,37.707 -33.161,40.09 -11.366,2.6459 -25.737,3.5975 -35.556,-4.7573 -23.141,-20.211 -29.475,-46.775 -24.38,-74.556 4.4741,-29.748 40.444,-57.598 63.882,-58.378 41.677,-4.603 88.639,22.791 96.796,68.673 7.1592,40.271 -10.608,103.9 -54.948,109.72"
             sodipodi:nodetypes="csccccccccccsc"
             style="fill:#000000;stroke:#000000;stroke-width:1px"
             inkscape:connector-curvature="0" />
        </g>
        <g
           id="g3095"
           style="fill:url(#radialGradient6792);stroke:#000000"
           transform="translate(34.791,8.4848)">
          <path
             id="path3055"
             sodipodi:nodetypes="ccsssc"
             style="fill:url(#radialGradient261);stroke:#000000;stroke-width:1px"
             inkscape:connector-curvature="0"
             d="m 278.8,338.69 c 33.783,5.9107 145.47,-1.1537 133.34,-74.246 0,0 -12.328,-135.29 -151.02,-148.49 -61.06,-5.8114 -140.32,56.509 -133.85,130.81 6.172,70.79 44.053,94.655 80.39,100.82 36.338,6.1673 71.132,-8.8985 71.132,-8.8985 z" />
          <path
             id="path3067"
             sodipodi:nodetypes="csccccccccccsc"
             style="fill:url(#radialGradient263);stroke:#000000;stroke-width:1px"
             inkscape:connector-curvature="0"
             d="m 179.3,254.34 c -10.945,-9.0481 11.908,-17.219 11.9,-3.6659 -0.007,10.387 -11.779,18.974 -20.115,12.167 -9.7104,-10.447 -5.1551,-31.054 9.2469,-34.742 20.322,-4.4036 37.755,20.418 29.222,38.584 -7.7048,16.398 -34.639,20.807 -44.92,4.646 -22.887,-34.566 13.789,-74.533 44.965,-62.08 21.885,10.037 37.034,33.253 32.829,54.204 -3.1262,18.079 -15.152,37.707 -33.161,40.09 -11.366,2.6459 -25.737,3.5975 -35.556,-4.7573 -23.141,-20.211 -29.475,-46.775 -24.38,-74.556 4.4741,-29.748 40.444,-57.598 63.882,-58.378 41.677,-4.603 88.639,22.791 96.796,68.673 7.1592,40.271 -10.608,103.9 -54.948,109.72" />
        </g>
      </g>
      <path
         id="path6503"
         sodipodi:nodetypes="ccccc"
         style="color:#000000;text-indent:0;text-transform:none;fill:#784421;enable-background:accumulate"
         inkscape:connector-curvature="0"
         d="m 270.47,292.09 58.562,34.281 3.7601,-7.4184 z" />
      <path
         id="path6505"
         sodipodi:nodetypes="ccccc"
         style="color:#000000;text-indent:0;text-transform:none;fill:#784421;enable-background:accumulate"
         inkscape:connector-curvature="0"
         d="m 275.88,277.59 -0.34375,0.96875 64.469,23.125 1.9637,-6.6764 z" />
      <path
         id="path6507"
         sodipodi:nodetypes="ccccc"
         style="color:#000000;text-indent:0;text-transform:none;fill:#784421;enable-background:accumulate"
         inkscape:connector-curvature="0"
         d="m 277.97,261.91 -0.21875,1 66.799,21.171 0.88881,-7.1713 z" />
      <path
         id="path6509"
         sodipodi:nodetypes="ccccc"
         style="color:#000000;text-indent:0;text-transform:none;fill:#784421;enable-background:accumulate"
         inkscape:connector-curvature="0"
         d="m 345.62,249 -67.875,12.906 0.1875,1 68.312,-3 z" />
      <path
         id="path6511"
         sodipodi:nodetypes="ccccc"
         style="color:#000000;text-indent:0;text-transform:none;fill:#784421;enable-background:accumulate"
         inkscape:connector-curvature="0"
         d="m 332.56,212.96 -58.06,35.51 0.46875,0.875 60.344,-32 z" />
      <path
         id="path6513"
         sodipodi:nodetypes="ccccc"
         style="color:#000000;text-indent:0;text-transform:none;fill:#784421;enable-background:accumulate"
         inkscape:connector-curvature="0"
         d="m 288.69,179.44 -25.875,51.594 0.875,0.46875 31.449,-49.402 z" />
      <path
         id="path6515"
         sodipodi:nodetypes="ccccc"
         style="color:#000000;text-indent:0;text-transform:none;fill:#784421;enable-background:accumulate"
         inkscape:connector-curvature="0"
         d="m 255.49,173.85 c -8.0452,0.70589 -15.561,-0.35246 -24.931,4.771 l 3.8438,36.938 1,-0.0937 z" />
      <path
         id="path6517"
         sodipodi:nodetypes="ccccc"
         style="color:#000000;text-indent:0;text-transform:none;fill:#784421;enable-background:accumulate"
         inkscape:connector-curvature="0"
         d="m 198.19,203.91 -6.3676,8.6518 17.305,11.161 0.84375,-0.53125 z" />
      <path
         id="path6519"
         sodipodi:nodetypes="cccccc"
         style="color:#000000;text-indent:0;text-transform:none;fill:#784421;enable-background:accumulate"
         inkscape:connector-curvature="0"
         d="m 193.34,247.38 -10.875,0.40625 0.12334,6.8709 10.783,-6.2772 -0.0312,-1 z" />
      <path
         id="path6521"
         sodipodi:nodetypes="ccccc"
         style="color:#000000;text-indent:0;text-transform:none;fill:#784421;enable-background:accumulate"
         inkscape:connector-curvature="0"
         d="m 194.78,271.47 -8.0312,4.7188 2.9688,7.5 5.5938,-11.344 z" />
      <path
         id="path6523"
         sodipodi:nodetypes="ccccc"
         style="color:#000000;text-indent:0;text-transform:none;fill:#784421;enable-background:accumulate"
         inkscape:connector-curvature="0"
         d="m 204.72,285.66 -8.2373,10.259 4.0498,3.0532 5.125,-12.969 z" />
      <path
         id="path6525"
         sodipodi:nodetypes="ccccc"
         style="color:#000000;text-indent:0;text-transform:none;fill:#784421;enable-background:accumulate"
         inkscape:connector-curvature="0"
         d="m 228.03,288.62 -0.96875,0.21875 1.0734,25.051 5.9891,-0.30068 z" />
      <path
         id="path6527"
         sodipodi:nodetypes="ccccc"
         style="color:#000000;text-indent:0;text-transform:none;fill:#784421;enable-background:accumulate"
         inkscape:connector-curvature="0"
         d="m 247.31,269.31 23.656,21.906 2.875,-7.0312 z" />
      <path
         id="path6529"
         sodipodi:nodetypes="ccccc"
         style="color:#000000;text-indent:0;text-transform:none;fill:#784421;enable-background:accumulate"
         inkscape:connector-curvature="0"
         d="m 243.17,217.28 -3.8252,28.818 0.84375,0.5625 14.82,-22.69 z" />
      <path
         id="path6531"
         sodipodi:nodetypes="ccccc"
         style="color:#000000;text-indent:0;text-transform:none;fill:#784421;enable-background:accumulate"
         inkscape:connector-curvature="0"
         d="m 243.56,311.97 -12.395,41.589 7.8327,1.8489 5.5625,-43.312 z" />
      <path
         id="path6533"
         sodipodi:nodetypes="ccccc"
         style="color:#000000;text-indent:0;text-transform:none;fill:#784421;enable-background:accumulate"
         inkscape:connector-curvature="0"
         d="m 260.75,304 -0.84375,0.53125 29.53,48.47 c 8.5918,-2.3129 17.663,-3.763 23.987,-10.158 z" />
      <path
         id="path6535"
         sodipodi:nodetypes="ccccc"
         style="color:#000000;text-indent:0;text-transform:none;fill:#784421;enable-background:accumulate"
         inkscape:connector-curvature="0"
         d="m 210.16,308.38 -26.46,13.888 4.2414,4.331 22.812,-17.438 z" />
      <path
         id="path6537"
         sodipodi:nodetypes="ccccc"
         style="color:#000000;text-indent:0;text-transform:none;fill:#784421;enable-background:accumulate"
         inkscape:connector-curvature="0"
         d="m 189.72,283.69 -21.781,4.0625 1.5832,5.2046 20.386,-8.2671 z" />
      <path
         id="path6539"
         sodipodi:nodetypes="ccccc"
         style="color:#000000;text-indent:0;text-transform:none;fill:#784421;enable-background:accumulate"
         inkscape:connector-curvature="0"
         d="m 164.28,225.28 c -1.9937,7.6168 -2.4772,14.856 -2.5824,22.001 l 20.801,-4.6571 0.65625,-0.75 z" />
      <path
         id="path6541"
         sodipodi:nodetypes="ccccc"
         style="color:#000000;text-indent:0;text-transform:none;fill:#784421;enable-background:accumulate"
         inkscape:connector-curvature="0"
         d="m 190.02,173.95 -4.6168,5.5794 15.85,20.47 0.78125,-0.59375 z" />
      <path
         id="path6543"
         sodipodi:nodetypes="ccccc"
         style="color:#000000;text-indent:0;text-transform:none;fill:#784421;enable-background:accumulate"
         inkscape:connector-curvature="0"
         d="m 223.78,144.66 14.878,-8.4784 -8.0658,42.51 -0.0312,-0.0625 z" />
      <path
         id="path6545"
         sodipodi:nodetypes="ccccc"
         style="color:#000000;text-indent:0;text-transform:none;fill:#784421;enable-background:accumulate"
         inkscape:connector-curvature="0"
         d="m 277.16,124.56 -6.25,50.375 1,0.0937 29.91,-49.952 c 0,0 -7.1251,-0.75113 -24.66,-0.51699 z" />
      <path
         id="path6547"
         sodipodi:nodetypes="ccccc"
         style="color:#000000;text-indent:0;text-transform:none;fill:#784421;enable-background:accumulate"
         inkscape:connector-curvature="0"
         d="m 364.84,144.72 -56.125,44.688 0.625,0.78125 67.582,-37.745 z" />
      <path
         id="path6549"
         sodipodi:nodetypes="ccccc"
         style="color:#000000;text-indent:0;text-transform:none;fill:#784421;enable-background:accumulate"
         inkscape:connector-curvature="0"
         d="m 428.12,212.09 -85.03,23.41 0.25,0.96875 86.971,-19.655 z" />
      <path
         id="path6551"
         sodipodi:nodetypes="ccccc"
         style="color:#000000;text-indent:0;text-transform:none;fill:#784421;enable-background:accumulate"
         inkscape:connector-curvature="0"
         d="m 346.41,258.91 -0.15625,1 101.55,21.304 -0.86692,-8.2826 z" />
      <path
         id="path6553"
         sodipodi:nodetypes="ccccc"
         style="color:#000000;text-indent:0;text-transform:none;fill:#784421;enable-background:accumulate"
         inkscape:connector-curvature="0"
         d="m 337.25,311.78 -0.5625,0.84375 48.625,30.875 23.575,-8.2171 z" />
    </g>
    <path
       id="path6702"
       style="opacity:0.099315;fill:#e9c6af;fill-rule:evenodd;stroke:url(#radialGradient6798);filter:url(#filter6710)"
       d="m 782.87,127.88 c 0,25 -73.256,158.18 -285.78,38.104 -106.51,-60.17 -228.25,-66.429 -228.25,-91.428 0,-25 113.66,-82.628 263.73,-68.433 121.79,11.52 250.29,96.763 250.29,121.76 z"
       sodipodi:nodetypes="sssss"
       inkscape:connector-curvature="0"
       transform="matrix(0.31505024,0.19634434,-0.19634434,0.31505024,237.16896,82.796243)" />
  </g>
  <metadata
     id="metadata90">
    <rdf:RDF>
      <cc:Work>
        <dc:format>image/svg+xml</dc:format>
        <dc:type
           rdf:resource="http://purl.org/dc/dcmitype/StillImage" />
        <cc:license
           rdf:resource="http://creativecommons.org/publicdomain/zero/1.0/" />
        <dc:publisher>
          <cc:Agent
             rdf:about="http://openclipart.org/">
            <dc:title>Openclipart</dc:title>
          </cc:Agent>
        </dc:publisher>
        <dc:title>Escargot</dc:title>
      </cc:Work>
      <cc:License
         rdf:about="http://creativecommons.org/publicdomain/zero/1.0/">
        <cc:permits
           rdf:resource="http://creativecommons.org/ns#Reproduction" />
        <cc:permits
           rdf:resource="http://creativecommons.org/ns#Distribution" />
        <cc:permits
           rdf:resource="http://creativecommons.org/ns#DerivativeWorks" />
      </cc:License>
    </rdf:RDF>
  </metadata>
</svg>
