<?xml version="1.0" encoding="UTF-8" standalone="no"?>
<!-- Created with Inkscape (http://www.inkscape.org/) -->

<svg
   width="88mm"
   height="125mm"
   viewBox="0 0 311.81102 442.91336"
   id="svg2"
   version="1.1"
   inkscape:version="1.2.2 (732a01da63, 2022-12-09)"
   sodipodi:docname="sock.svg"
   xmlns:inkscape="http://www.inkscape.org/namespaces/inkscape"
   xmlns:sodipodi="http://sodipodi.sourceforge.net/DTD/sodipodi-0.dtd"
   xmlns:xlink="http://www.w3.org/1999/xlink"
   xmlns="http://www.w3.org/2000/svg"
   xmlns:svg="http://www.w3.org/2000/svg"
   xmlns:rdf="http://www.w3.org/1999/02/22-rdf-syntax-ns#"
   xmlns:cc="http://creativecommons.org/ns#"
   xmlns:dc="http://purl.org/dc/elements/1.1/">
  <title
     id="title4148">sock - coloured</title>
  <defs
     id="defs4">
    <linearGradient
       inkscape:collect="always"
       id="linearGradient5771">
      <stop
         style="stop-color:#9b9bff;stop-opacity:1"
         offset="0"
         id="stop5773" />
      <stop
         id="stop5783"
         offset="0.14178324"
         style="stop-color:#6b6bff;stop-opacity:1" />
      <stop
         id="stop5781"
         offset="0.30144155"
         style="stop-color:#4c4cff;stop-opacity:1;" />
      <stop
         id="stop5779"
         offset="0.51657122"
         style="stop-color:#4c4cff;stop-opacity:1;" />
      <stop
         style="stop-color:#2525c8;stop-opacity:1"
         offset="1"
         id="stop5775" />
    </linearGradient>
    <pattern
       inkscape:collect="always"
       xlink:href="#Polkadots-large"
       id="pattern5692"
       patternTransform="matrix(4.4904121,2.6848074,-2.986483,4.9949728,145.27648,-125.33788)" />
    <pattern
       inkscape:stockid="Polka dots, large"
       id="Polkadots-large"
       patternTransform="translate(0,0) scale(10,10)"
       height="10"
       width="10"
       patternUnits="userSpaceOnUse"
       inkscape:collect="always">
      <circle
         id="circle5382"
         r="0.45"
         cy="0.810"
         cx="2.567"
         style="fill:black;stroke:none" />
      <circle
         id="circle5384"
         r="0.45"
         cy="2.33"
         cx="3.048"
         style="fill:black;stroke:none" />
      <circle
         id="circle5386"
         r="0.45"
         cy="2.415"
         cx="4.418"
         style="fill:black;stroke:none" />
      <circle
         id="circle5388"
         r="0.45"
         cy="3.029"
         cx="1.844"
         style="fill:black;stroke:none" />
      <circle
         id="circle5390"
         r="0.45"
         cy="1.363"
         cx="6.08"
         style="fill:black;stroke:none" />
      <circle
         id="circle5392"
         r="0.45"
         cy="4.413"
         cx="5.819"
         style="fill:black;stroke:none" />
      <circle
         id="circle5394"
         r="0.45"
         cy="4.048"
         cx="4.305"
         style="fill:black;stroke:none" />
      <circle
         id="circle5396"
         r="0.45"
         cy="3.045"
         cx="5.541"
         style="fill:black;stroke:none" />
      <circle
         id="circle5398"
         r="0.45"
         cy="5.527"
         cx="4.785"
         style="fill:black;stroke:none" />
      <circle
         id="circle5400"
         r="0.45"
         cy="5.184"
         cx="2.667"
         style="fill:black;stroke:none" />
      <circle
         id="circle5402"
         r="0.45"
         cy="1.448"
         cx="7.965"
         style="fill:black;stroke:none" />
      <circle
         id="circle5404"
         r="0.45"
         cy="5.049"
         cx="7.047"
         style="fill:black;stroke:none" />
      <circle
         id="circle5406"
         r="0.45"
         cy="0.895"
         cx="4.340"
         style="fill:black;stroke:none" />
      <circle
         id="circle5408"
         r="0.45"
         cy="0.340"
         cx="7.125"
         style="fill:black;stroke:none" />
      <circle
         id="circle5410"
         r="0.45"
         cy="1.049"
         cx="9.553"
         style="fill:black;stroke:none" />
      <circle
         id="circle5412"
         r="0.45"
         cy="2.689"
         cx="7.006"
         style="fill:black;stroke:none" />
      <circle
         id="circle5414"
         r="0.45"
         cy="2.689"
         cx="8.909"
         style="fill:black;stroke:none" />
      <circle
         id="circle5416"
         r="0.45"
         cy="4.407"
         cx="9.315"
         style="fill:black;stroke:none" />
      <circle
         id="circle5418"
         r="0.45"
         cy="3.870"
         cx="7.820"
         style="fill:black;stroke:none" />
      <circle
         id="circle5420"
         r="0.45"
         cy="5.948"
         cx="8.270"
         style="fill:black;stroke:none" />
      <circle
         id="circle5422"
         r="0.45"
         cy="7.428"
         cx="7.973"
         style="fill:black;stroke:none" />
      <circle
         id="circle5424"
         r="0.45"
         cy="8.072"
         cx="9.342"
         style="fill:black;stroke:none" />
      <circle
         id="circle5426"
         r="0.45"
         cy="9.315"
         cx="8.206"
         style="fill:black;stroke:none" />
      <circle
         id="circle5428"
         r="0.45"
         cy="9.475"
         cx="9.682"
         style="fill:black;stroke:none" />
      <circle
         id="circle5430"
         r="0.45"
         cy="6.186"
         cx="9.688"
         style="fill:black;stroke:none" />
      <circle
         id="circle5432"
         r="0.45"
         cy="6.296"
         cx="3.379"
         style="fill:black;stroke:none" />
      <circle
         id="circle5434"
         r="0.45"
         cy="8.204"
         cx="2.871"
         style="fill:black;stroke:none" />
      <circle
         id="circle5436"
         r="0.45"
         cy="8.719"
         cx="4.59"
         style="fill:black;stroke:none" />
      <circle
         id="circle5438"
         r="0.45"
         cy="9.671"
         cx="3.181"
         style="fill:black;stroke:none" />
      <circle
         id="circle5440"
         r="0.45"
         cy="7.315"
         cx="5.734"
         style="fill:black;stroke:none" />
      <circle
         id="circle5442"
         r="0.45"
         cy="6.513"
         cx="6.707"
         style="fill:black;stroke:none" />
      <circle
         id="circle5444"
         r="0.45"
         cy="9.670"
         cx="5.730"
         style="fill:black;stroke:none" />
      <circle
         id="circle5446"
         r="0.45"
         cy="8.373"
         cx="6.535"
         style="fill:black;stroke:none" />
      <circle
         id="circle5448"
         r="0.45"
         cy="7.154"
         cx="4.37"
         style="fill:black;stroke:none" />
      <circle
         id="circle5450"
         r="0.45"
         cy="7.25"
         cx="0.622"
         style="fill:black;stroke:none" />
      <circle
         id="circle5452"
         r="0.45"
         cy="5.679"
         cx="0.831"
         style="fill:black;stroke:none" />
      <circle
         id="circle5454"
         r="0.45"
         cy="8.519"
         cx="1.257"
         style="fill:black;stroke:none" />
      <circle
         id="circle5456"
         r="0.45"
         cy="6.877"
         cx="1.989"
         style="fill:black;stroke:none" />
      <circle
         id="circle5458"
         r="0.45"
         cy="3.181"
         cx="0.374"
         style="fill:black;stroke:none" />
      <circle
         id="circle5460"
         r="0.45"
         cy="1.664"
         cx="1.166"
         style="fill:black;stroke:none" />
      <circle
         id="circle5462"
         r="0.45"
         cy="0.093"
         cx="1.151"
         style="fill:black;stroke:none" />
      <circle
         id="circle5464"
         r="0.45"
         cy="10.093"
         cx="1.151"
         style="fill:black;stroke:none" />
      <circle
         id="circle5466"
         r="0.45"
         cy="4.451"
         cx="1.302"
         style="fill:black;stroke:none" />
      <circle
         id="circle5468"
         r="0.45"
         cy="3.763"
         cx="3.047"
         style="fill:black;stroke:none" />
    </pattern>
    <radialGradient
       inkscape:collect="always"
       xlink:href="#linearGradient5771"
       id="radialGradient5777"
       cx="55.24115"
       cy="62.348808"
       fx="55.24115"
       fy="62.348808"
       r="52.199444"
       gradientTransform="matrix(-0.7186058,2.0507648,-5.0493358,-1.7693309,519.0646,255.7202)"
       gradientUnits="userSpaceOnUse" />
  </defs>
  <sodipodi:namedview
     id="base"
     pagecolor="#ffffff"
     bordercolor="#666666"
     borderopacity="1.0"
     inkscape:pageopacity="0.0"
     inkscape:pageshadow="2"
     inkscape:zoom="1.1100741"
     inkscape:cx="-46.3933"
     inkscape:cy="242.77659"
     inkscape:document-units="mm"
     inkscape:current-layer="layer2"
     showgrid="false"
     inkscape:showpageshadow="true"
     borderlayer="true"
     inkscape:window-width="1374"
     inkscape:window-height="1087"
     inkscape:window-x="1327"
     inkscape:window-y="154"
     inkscape:window-maximized="0"
     inkscape:snap-global="false"
     inkscape:pagecheckerboard="0"
     inkscape:deskcolor="#d1d1d1" />
  <metadata
     id="metadata7">
    <rdf:RDF>
      <cc:Work
         rdf:about="">
        <dc:format>image/svg+xml</dc:format>
        <dc:type
           rdf:resource="http://purl.org/dc/dcmitype/StillImage" />
        <dc:title>sock - coloured</dc:title>
        <cc:license
           rdf:resource="http://creativecommons.org/publicdomain/zero/1.0/" />
        <dc:description>coloured line art sock</dc:description>
        <dc:subject>
          <rdf:Bag>
            <rdf:li>stocking</rdf:li>
            <rdf:li>sock</rdf:li>
            <rdf:li>school</rdf:li>
            <rdf:li>teaching</rdf:li>
            <rdf:li>clothes</rdf:li>
            <rdf:li>Strumpf</rdf:li>
            <rdf:li>Socke</rdf:li>
            <rdf:li>Schule</rdf:li>
            <rdf:li>Unterricht</rdf:li>
            <rdf:li>Kleidung</rdf:li>
            <rdf:li>education</rdf:li>
            <rdf:li>lineart</rdf:li>
            <rdf:li />
          </rdf:Bag>
        </dc:subject>
        <dc:date>2016-10-16</dc:date>
        <dc:creator>
          <cc:Agent>
            <dc:title>Frank Tremmel</dc:title>
          </cc:Agent>
        </dc:creator>
      </cc:Work>
      <cc:License
         rdf:about="http://creativecommons.org/publicdomain/zero/1.0/">
        <cc:permits
           rdf:resource="http://creativecommons.org/ns#Reproduction" />
        <cc:permits
           rdf:resource="http://creativecommons.org/ns#Distribution" />
        <cc:permits
           rdf:resource="http://creativecommons.org/ns#DerivativeWorks" />
      </cc:License>
    </rdf:RDF>
  </metadata>
  <g
     inkscape:groupmode="layer"
     id="layer2"
     inkscape:label="Ebene 2"
     style="display:inline">
    <path
       style="fill:url(#radialGradient5777);fill-opacity:1;fill-rule:evenodd;stroke:#ffcc00;stroke-width:1.29161;stroke-linecap:butt;stroke-linejoin:miter;stroke-miterlimit:4;stroke-dasharray:none;stroke-opacity:1"
       d="M 62.136148,20.34083 C 78.449727,12.322281 96.900005,9.2732208 115.83958,7.3621617 c 26.74817,-6.3161684 47.2944,-2.2593965 69.30184,-0.646551 3.19516,2.3771395 7.41612,3.4151043 6.03472,11.7669023 -2.78968,13.515987 -7.64112,17.17309 -12.27738,21.85911 l -14.10364,115.666347 -8.89563,97.87728 17.65228,14.23437 12.06429,21.90827 c 24.41311,12.16272 47.90916,23.71442 69.53828,40.53343 l 30.12657,34.78275 c 8.94265,19.08782 9.68093,27.37119 8.88559,40.63671 1.98868,9.6457 2.69862,16.89283 0.22589,18.1702 -6.24697,4.2148 -12.28304,6.46204 -18.06877,6.37303 -17.29498,3.69255 -32.4095,13.37309 -54.09199,5.017 -15.45155,-2.70248 -28.60181,-8.18533 -40.25316,-15.47912 L 107.82193,371.85919 30.563098,338.11916 C 14.768724,326.28102 20.756854,308.64975 18.408473,292.2052 24.635954,272.71699 33.856239,253.00526 44.811963,234.13365 L 59.695929,173.46866 61.43436,103.65578 67.932017,51.717676 C 54.017863,36.9294 59.435865,28.538225 62.136148,20.34083 Z"
       id="path4209"
       inkscape:connector-curvature="0"
       sodipodi:nodetypes="cccccccccccccccccccccccc" />
    <path
       style="opacity:0.304;fill:url(#pattern5692);fill-opacity:1;fill-rule:evenodd;stroke:none;stroke-width:1.13602;stroke-linecap:butt;stroke-linejoin:miter;stroke-miterlimit:4;stroke-dasharray:none;stroke-opacity:1"
       d="m 45.546532,238.86692 c 0,0 -15.213094,36.52885 -9.729014,56.01776 4.071355,14.46848 10.623285,31.31778 29.474541,34.08059 13.321707,1.95243 27.331704,6.80973 37.522801,12.84752 36.90191,21.86277 65.68649,58.61582 106.50429,72.26683 17.26538,5.77418 36.75463,5.87013 55.25324,2.97724 4.58661,-0.71729 13.25981,-4.95423 13.25981,-4.95423 3.98166,-0.4919 4.2008,-1.88542 11.35684,12.80194 0,0 -8.71376,3.09195 -14.80511,4.88912 -11.86209,3.49973 -20.61305,6.64437 -32.73316,7.05219 -10.62713,0.35757 -23.82047,0.29676 -33.44578,-3.67964 -26.85662,-11.09506 -48.52553,-31.91702 -73.93514,-45.9233 -29.67053,-16.35498 -62.444035,-28.7573 -93.581486,-42.21112 -12.330583,-5.32776 -23.470463,-18.41033 -26.3117,-35.48445 -1.822524,-10.95232 3.073394,-22.75069 7.307084,-33.41902 2.984096,-7.5195 23.862784,-37.26143 23.862784,-37.26143 z"
       id="path4211"
       inkscape:connector-curvature="0"
       sodipodi:nodetypes="csssssccsssssssc" />
    <path
       style="color:#000000;font-style:normal;font-variant:normal;font-weight:normal;font-stretch:normal;font-size:medium;line-height:normal;font-family:sans-serif;text-indent:0;text-align:start;text-decoration:none;text-decoration-line:none;text-decoration-style:solid;text-decoration-color:#000000;letter-spacing:normal;word-spacing:normal;text-transform:none;writing-mode:lr-tb;direction:ltr;baseline-shift:baseline;text-anchor:start;white-space:normal;clip-rule:nonzero;display:inline;overflow:visible;visibility:visible;opacity:1;isolation:auto;mix-blend-mode:normal;color-interpolation:sRGB;color-interpolation-filters:linearRGB;solid-color:#000000;solid-opacity:1;fill:#26266c;fill-opacity:1;fill-rule:evenodd;stroke:none;stroke-width:5.54155;stroke-linecap:butt;stroke-linejoin:miter;stroke-miterlimit:4;stroke-dasharray:none;stroke-dashoffset:0;stroke-opacity:1;color-rendering:auto;image-rendering:auto;shape-rendering:auto;text-rendering:auto;enable-background:accumulate"
       d="m 169.55749,7.8668698 c 2.02499,9.8045162 -1.64112,17.3203112 -6.58161,25.9894682 -3.19779,0.01824 -6.26615,0.09253 -9.8412,0.161969 1.27512,-5.221412 2.20941,-9.607474 2.41228,-13.37779 0.26128,-4.855593 -0.53471,-9.138627 -2.27989,-14.2556871 -3.28264,0.4491129 -4.9511,0.7830356 -5.85276,2.5255962 1.60226,4.6979939 2.16721,7.8604499 1.95374,11.8276429 -0.17961,3.337691 -1.11854,7.723977 -2.54167,13.447909 -4.15647,0.125253 -8.1531,0.248767 -12.09611,0.488544 0.64004,-10.960663 1.19347,-16.825844 1.12603,-25.038093 -2.13905,-0.6225695 -4.22544,0.2470554 -6.19274,0.510622 0.0657,8.002224 -0.4925,13.696296 -1.14324,24.985662 -1.84868,0.161971 -3.7552,0.31777 -5.38279,0.52091 -5.24202,0.654193 -12.11683,2.03396 -19.3098,3.632928 -0.66339,-2.076932 -1.92536,-9.013803 -2.8263,-15.161695 -0.45544,-3.107783 -0.89921,-7.624487 -1.16041,-9.837979 -2.85778,-0.27732 -4.461455,0.21119 -6.143606,1.224663 0.270767,2.294502 0.715625,6.85424 1.179224,10.017747 0.841975,5.745478 1.794395,11.60723 2.805618,15.212537 -5.251009,1.235153 -10.020888,2.360653 -14.726365,3.571552 L 79.949667,16.583415 c -0.09112,-0.966221 -0.605432,-1.805008 -1.396952,-2.278271 -2.205923,-1.309622 -5.06827,0.764116 -4.747443,3.439255 l 3.035363,28.168699 c -7.081538,1.874504 -12.687262,3.410896 -12.687262,3.410896 l 1.208925,6.200028 c 0,0 7.54486,-1.970173 12.350599,-3.254044 1.079586,7.588304 2.344576,14.974587 2.239022,22.204808 -0.17812,12.199967 -4.595437,25.040639 -5.242636,38.650324 -0.646405,13.59312 3.287995,26.57715 2.363816,38.81207 -0.999998,13.23875 -6.691047,25.73071 -8.426576,40.20079 -1.400553,11.67717 -1.920906,32.59766 -1.947189,34.73773 -0.05255,4.28014 3.472227,3.67765 3.524782,-0.60249 0.02629,-2.14007 1.892166,-22.37963 3.178207,-33.10202 1.597308,-13.31765 7.946488,-26.9127 9.048424,-41.50084 1.031621,-13.65737 -2.150066,-26.39289 -1.56545,-38.68667 0.584367,-12.2884 5.059326,-25.208762 5.258817,-38.87238 0.119562,-8.189909 -1.287935,-15.919401 -2.372813,-23.443449 5.322463,-1.377047 9.106818,-2.278234 15.209999,-3.714238 0.90495,8.690181 -1.936177,18.882155 -3.402856,29.122403 -1.636585,11.42659 -6.949182,23.187082 -8.044866,36.090084 -1.324712,15.60021 3.119404,30.03898 2.318089,43.99245 -0.668758,11.6454 -4.39078,23.60026 -6.073767,36.17316 -1.484211,11.08797 -2.155294,30.77228 -2.3774,32.91398 -0.453468,4.37275 3.429955,4.83562 3.711982,0.45997 0.13813,-2.14313 1.998009,-22.80635 3.422629,-33.44911 1.577921,-11.78803 6.759995,-23.40532 7.493362,-36.17576 0.892518,-15.54164 -3.502567,-29.91323 -2.322876,-43.80571 0.962293,-11.33206 6.170743,-22.959577 7.995283,-35.698411 1.36947,-9.561638 4.75175,-20.522408 3.43769,-31.081809 6.95032,-1.547867 11.92998,-3.045908 16.73336,-3.64538 1.4352,-0.179116 4.73366,-0.127128 6.38043,-0.272706 0.0461,2.923455 0.31533,22.438948 -1.67673,32.16628 -2.34066,11.429555 -9.27978,23.920396 -6.94685,37.178456 2.00615,11.401 -0.0392,23.99441 -1.20608,36.69252 -0.90513,9.84941 -1.44783,23.01038 -3.04708,35.8717 -2.77765,22.33819 -6.74694,43.74099 -6.99398,45.09278 -0.77847,4.25974 1.92819,5.28018 2.70747,1.02053 0.38968,-2.13003 10.94489,-54.06017 13.49674,-81.82867 1.13511,-12.35192 3.40389,-25.54753 1.13711,-38.4296 -1.80906,-10.280923 4.26576,-21.825931 6.90192,-34.698435 2.25257,-10.999388 1.95905,-29.145316 1.85386,-33.534992 3.48513,-0.208848 7.05064,-0.325654 10.77775,-0.444672 -6.64499,26.473509 -13.44558,63.635749 -11.22615,88.939159 1.83633,20.9355 -8.56186,44.21455 -11.02915,67.45351 -0.65357,6.15567 0.73557,13.20744 0.18685,19.82213 -0.54869,6.61468 -3.35855,12.95963 -4.44742,14.7808 -2.24541,3.7555 0.43844,5.20836 2.68386,1.45284 2.65573,-4.44178 5.73078,-8.88802 6.29973,-15.74692 0.56895,-6.85888 -0.82011,-14.37206 -0.20956,-20.12262 2.29661,-21.63128 14.73199,-45.28559 12.68064,-68.6726 -2.1013,-23.95635 4.74639,-61.949215 11.37666,-88.069717 2.86973,-0.06046 5.25625,-0.156 7.93957,-0.18245 -6.12748,12.465233 -9.88369,29.173 -7.45131,44.40802 2.51139,15.729947 -1.76818,40.922907 -3.52435,58.395047 -1.88861,18.7897 -8.98251,34.31761 -10.65612,54.41534 -1.03376,12.41411 0.46863,32.93249 0.48977,35.06924 0.0423,4.27329 3.5423,4.26792 3.50044,-0.005 -0.021,-2.13676 0.0545,-23.31023 1.01972,-34.90109 1.5628,-18.76699 9.78689,-34.30439 11.80295,-54.36237 1.70669,-16.97961 6.31786,-42.29188 3.47475,-60.099455 -2.31907,-14.525446 1.97699,-31.657736 8.17077,-42.914007 5.94194,0.0084 13.72192,0.0096 13.72192,0.0096 l 0.54047,-6.428587 c 0,0 -4.67327,-0.04293 -10.72006,-0.05804 4.43336,-8.237122 7.93922,-17.059559 5.73094,-27.7515145 -2.87085,-1.6314233 -4.85691,-0.1442124 -6.05391,1.7733394 z"
       id="path4171"
       inkscape:connector-curvature="0"
       sodipodi:nodetypes="cccsccscccccscsccscccccccccssssssssssccsssssssssscscsssssssssccssssssssccsssssssscccccc" />
    <path
       style="color:#000000;font-style:normal;font-variant:normal;font-weight:normal;font-stretch:normal;font-size:medium;line-height:normal;font-family:sans-serif;text-indent:0;text-align:start;text-decoration:none;text-decoration-line:none;text-decoration-style:solid;text-decoration-color:#000000;letter-spacing:normal;word-spacing:normal;text-transform:none;writing-mode:lr-tb;direction:ltr;baseline-shift:baseline;text-anchor:start;white-space:normal;clip-rule:nonzero;display:inline;overflow:visible;visibility:visible;opacity:1;isolation:auto;mix-blend-mode:normal;color-interpolation:sRGB;color-interpolation-filters:linearRGB;solid-color:#000000;solid-opacity:1;fill:#000080;fill-opacity:1;fill-rule:evenodd;stroke:none;stroke-width:11.0831;stroke-linecap:butt;stroke-linejoin:round;stroke-miterlimit:4;stroke-dasharray:none;stroke-dashoffset:0;stroke-opacity:1;color-rendering:auto;image-rendering:auto;shape-rendering:auto;text-rendering:auto;enable-background:accumulate"
       d="M 187.00818,4.2072879 C 185.38411,3.3059881 183.67917,2.6488065 181.99731,2.0750152 176.50561,0.20142825 168.99197,-0.02844011 159.15239,0.00251943 149.3128,0.03347366 137.62401,0.63761557 125.99169,1.631778 114.35936,2.6259419 102.80788,4.0150925 93.218269,5.6518703 83.628653,7.2886601 77.110833,9.8132377 71.258497,11.734591 c -8.487386,2.786438 -11.130071,4.079287 -13.392766,8.354594 -2.262689,4.275295 -2.776292,9.432785 -3.200303,12.433369 -0.92904,6.574478 5.400977,13.977572 9.0034,19.750293 -3.33147,26.054677 -9.895329,51.049573 -8.339433,77.294423 1.749839,29.51656 -0.466278,50.37114 -4.333168,69.73941 -1.426345,7.1442 -2.889971,15.29166 -4.942474,20.89188 -2.609963,7.12124 -6.798695,14.35982 -10.729566,22.41396 -5.965717,12.22343 -16.652925,24.745 -20.390285,41.28534 -3.442951,15.2374 -6.9042974,34.43743 1.748375,49.59251 8.747199,15.3206 26.910598,17.70594 38.236874,23.09364 15.070846,7.16868 30.909309,10.36969 44.295749,16.76223 31.69888,15.13742 69.60624,47.11241 104.82421,61.41019 10.03817,4.07529 21.14638,8.18835 33.39129,8.15694 14.07933,-0.0362 26.8729,-5.78329 38.49061,-9.26002 2.0835,-0.62351 5.66773,-0.90569 9.65587,-1.73689 3.98816,-0.83119 9.16376,-2.56612 12.51453,-7.59047 1.73551,-2.60249 2.18285,-5.64204 2.04738,-7.87651 -0.13544,-2.23445 -0.66405,-3.94684 -1.08279,-5.3873 -0.83745,-2.8809 -0.75533,-4.35417 -0.96825,-3.79152 5.26783,-13.92254 0.48933,-17.41105 -2.04949,-27.62393 -2.53883,-10.2129 -8.22636,-19.70569 -13.12131,-27.71119 -11.42189,-18.68016 -35.33745,-34.1609 -56.77192,-46.75157 -20.25932,-11.90034 -37.17424,-17.38963 -39.08076,-18.2431 -1.17001,-4.02086 -3.15169,-12.85707 -6.68994,-18.65257 -3.65946,-5.99408 -9.368,-11.5631 -19.41669,-17.51827 0.0912,-4.05778 5.4372,-50.00009 6.89763,-71.48653 1.18167,-17.38528 5.30412,-35.09921 7.3104,-52.6732 1.16497,-10.20464 -0.26785,-24.8542 1.47628,-38.284402 3.18362,-24.514382 9.60699,-47.355121 9.77559,-48.585414 5.63535,-6.520163 8.46928,-13.374752 8.88339,-19.114947 0.36235,-5.022666 -1.02481,-9.724327 -3.75856,-12.8224877 -1.3669,-1.5490861 -2.91011,-2.6944788 -4.53419,-3.5957614 z m -1.37468,9.7973131 c 2.60797,2.764359 0.49044,3.690689 -0.49911,7.229325 -1.09033,3.899038 -3.38566,6.828622 -8.72336,12.039163 -1.11814,1.093074 -1.84886,2.540111 -2.05909,4.077566 0,0 -8.08236,58.914709 -11.4761,88.642255 -2.006,17.57154 -1.92312,34.3844 -3.133,52.18446 -1.59034,23.39749 -8.24906,73.98903 -8.2957,76.156 -0.0501,2.32695 1.11549,4.41184 3.04886,5.44631 11.12569,5.95289 16.24912,11.34065 19.15252,16.09637 2.90344,4.7557 5.31307,8.80799 5.42807,14.54746 0.0475,2.36699 1.40521,3.54812 5.14965,4.70105 1.4826,0.4565 16.27526,6.89495 37.10526,19.13057 16.81045,9.87443 35.05627,22.7111 46.26117,35.05368 -1.76765,2.85278 -4.38444,6.9555 -8.22138,12.36931 -5.98263,8.44135 -10.22743,11.94619 -15.96971,15.85546 -0.61456,0.41842 -3.14149,3.88966 -6.25054,4.33192 -3.10905,0.44225 -7.2339,-2.28058 -7.39714,-2.3695 -18.6528,-10.16004 -36.11134,-19.59754 -55.72421,-32.16693 -19.07727,-12.22614 -38.81063,-22.92815 -54.68528,-38.06812 -6.00105,-5.72332 -14.46513,-12.54631 -20.25184,-18.12612 -5.786699,-5.57979 -8.359968,-12.8118 -7.246695,-19.1552 2.271906,-12.94522 8.354125,-35.42985 9.791775,-56.49841 1.01026,-14.80519 2.7393,-27.81902 9.1606,-55.09886 3.78825,-16.09377 4.49269,-32.04402 1.23561,-47.83998 -1.2507,-6.06553 0.12631,-12.684012 2.26674,-19.942685 2.14043,-7.258646 5.02396,-15.005712 5.84439,-23.196564 0.92335,-9.218183 5.63694,-21.665918 0.1723,-32.233659 -1.3142,-2.54143 -1.87058,-9.080472 -1.62421,-14.653641 0.12991,-2.939949 0.38127,-5.484356 0.60227,-7.360666 2.29791,-0.229419 -0.005,-0.121836 6.83437,-0.706318 6.83917,-0.584513 22.79781,-1.553524 32.18097,-1.583049 9.38316,-0.02952 13.79151,-1.511967 17.84967,-0.784439 1.91511,0.343329 8.23621,0.612134 9.47314,1.923242 z m -74.12319,1.952044 c -0.20727,1.920077 -0.42993,4.141362 -0.54578,6.762469 -0.26991,6.105617 -0.31447,13.225221 2.48109,18.63137 3.38101,6.538302 0.0878,16.984761 -0.99469,27.792025 -0.67064,6.6953 -3.28795,13.982348 -5.53735,21.610597 -2.24941,7.628235 -4.15271,15.749414 -2.45067,24.003814 3.00019,14.55013 2.37799,29.15398 -1.17378,44.24304 -6.483547,27.54427 -8.345042,41.35129 -9.377771,56.48578 -1.138627,16.68643 -4.594661,34.77379 -7.149623,48.48563 -15.280862,20.29721 -31.0769,26.82589 -46.288263,33.23738 -8.219434,3.46445 -8.247133,6.96408 1.768424,4.7732 7.659199,-1.67542 16.838532,-5.97488 25.651697,-11.46789 6.78072,-4.22622 12.892994,-10.27143 19.078753,-16.81679 0.413646,7.7447 2.909636,18.23058 8.285298,23.41402 6.476275,6.24472 14.410895,11.48266 19.676165,16.50424 16.78163,16.00495 37.11203,26.94356 55.89275,38.97964 19.5173,12.50815 35.93445,23.71938 54.96285,34.08402 3.41952,1.86257 6.771,3.4052 10.65757,2.85234 3.88656,-0.55285 7.87761,-3.34116 10.86344,-5.37389 7.83937,-5.33695 11.95572,-9.25636 18.1709,-18.02584 2.90377,-4.09715 5.30765,-7.79006 7.17635,-10.71898 0.62797,0.88354 1.21943,1.75675 1.75175,2.62734 4.85087,7.93345 9.13147,15.27395 11.09753,23.18273 1.96604,7.90878 7.62575,8.22779 3.20108,19.92192 -2.10179,5.55492 0.81149,10.6829 1.55866,13.25323 0.30646,1.05416 2.31626,4.39703 1.11545,6.37488 -2.28832,3.76638 -6.74285,2.72847 -9.2254,3.24588 -2.75623,0.57443 -8.42343,0.27523 -12.57811,1.51856 -12.64489,3.78418 -20.60739,4.48947 -31.29932,4.5169 -9.49797,0.0243 -20.99246,0.78109 -30.73132,-3.1727 C 175.23659,413.7638 138.23447,380.14415 104.23706,363.90909 89.17241,356.71514 74.120256,351.19515 60.718696,344.82048 47.136368,338.35981 36.116662,333.22694 30.944102,324.16727 c -5.667763,-9.92702 -7.868128,-23.63198 -4.591784,-38.13205 2.739393,-12.12369 10.536737,-24.22186 17.561171,-38.61455 3.571056,-7.3169 7.111204,-15.37344 10.387634,-24.26806 2.732173,-7.41712 4.962416,-15.12625 6.374685,-21.92749 3.905917,-18.81016 9.554982,-41.66645 7.687353,-73.16977 -1.550929,-26.16129 -0.15457,-48.664147 3.306903,-74.682967 0.203526,-1.522001 0.06453,-3.996479 -0.721938,-5.223359 -3.970303,-6.191174 -5.603353,-11.721035 -5.946596,-13.436252 -0.675272,-3.374435 -0.458872,-7.092535 0.102688,-8.153588 0.561554,-1.061042 5.540008,-2.106313 11.669347,-3.753712 1.033767,-0.277854 8.490135,-2.914925 17.59454,-4.468899 5.124525,-0.874664 11.007815,-1.662141 17.142205,-2.379928 z"
       id="path4169"
       inkscape:connector-curvature="0"
       sodipodi:nodetypes="sssssssscssssssssssssssscssscscssscsssssccsssssssscssssssssssssssscsssscssssssscssscssssssscsssssssssssssssssccssssc" />
  </g>
</svg>
