<?xml version="1.0" encoding="UTF-8" standalone="no"?>
<!-- Created with Inkscape (http://www.inkscape.org/) -->

<svg
   id="svg2"
   sodipodi:docname="soda.svg"
   xml:space="preserve"
   viewBox="0 0 472.44095 332.59843"
   version="1.1"
   inkscape:version="1.2.2 (732a01da63, 2022-12-09)"
   width="125mm"
   height="88mm"
   xmlns:inkscape="http://www.inkscape.org/namespaces/inkscape"
   xmlns:sodipodi="http://sodipodi.sourceforge.net/DTD/sodipodi-0.dtd"
   xmlns="http://www.w3.org/2000/svg"
   xmlns:svg="http://www.w3.org/2000/svg"
   xmlns:rdf="http://www.w3.org/1999/02/22-rdf-syntax-ns#"
   xmlns:cc="http://creativecommons.org/ns#"
   xmlns:dc="http://purl.org/dc/elements/1.1/"><defs
   id="defs15415" />
  <sodipodi:namedview
   id="namedview4"
   bordercolor="#666666"
   inkscape:pageshadow="2"
   guidetolerance="10"
   pagecolor="#ffffff"
   gridtolerance="10"
   inkscape:window-maximized="1"
   inkscape:zoom="1.5027805"
   objecttolerance="10"
   borderopacity="1"
   inkscape:current-layer="g12"
   inkscape:cx="185.32314"
   inkscape:cy="132.08848"
   inkscape:window-y="25"
   inkscape:window-x="0"
   inkscape:window-width="1024"
   showgrid="false"
   inkscape:pageopacity="0"
   inkscape:window-height="716"
   inkscape:showpageshadow="0"
   inkscape:pagecheckerboard="0"
   inkscape:deskcolor="#d1d1d1"
   inkscape:document-units="mm" />
  <g
   id="g12"
   inkscape:label="58294main_The.Brain.in.Space"
   inkscape:groupmode="layer"
   transform="matrix(1.25,0,0,-1.25,-478.58,444.38)">
    <path
   id="path246"
   style="fill:#ffffff;fill-rule:evenodd;stroke-width:2.01728"
   d="M 415.36,355 H 730.3379 V 89.42526 H 415.36 Z" />
    <path
   id="path270"
   style="fill:#bdbcbc;stroke:#231f20;stroke-width:6.13656;stroke-miterlimit:3.864"
   d="m 447.03128,130.3155 c 0,4.1092 3.55041,6.69333 6.38267,8.18813 12.63825,6.66711 39.5205,7.96825 52.74376,7.96825 6.73368,0 59.24546,-0.56282 59.24546,-16.15638 0,-15.59357 -52.51178,-16.15639 -59.24546,-16.15639 -6.74174,0 -59.12643,0.55677 -59.12643,16.15639 z" />
    <path
   id="path272"
   style="fill:#bdbcbc;stroke:#231f20;stroke-width:6.13656;stroke-miterlimit:3.864"
   d="m 447.03128,130.49705 c 0,4.1092 3.55041,6.69132 6.38267,8.18814 12.63825,6.6671 39.5205,7.96825 52.74376,7.96825 6.73368,0 59.24546,-0.56484 59.24546,-16.15639 0,-15.59356 -52.51178,-16.1584 -59.24546,-16.1584 -6.74174,0 -59.12643,0.55879 -59.12643,16.1584 z" />
    <path
   id="path274"
   style="fill:#bdbcbc;stroke:#231f20;stroke-width:6.13656;stroke-miterlimit:3.864"
   d="m 447.03128,130.65844 c 0,4.11121 3.55041,6.69333 6.38267,8.18813 12.63825,6.66912 39.5205,7.97027 52.74376,7.97027 6.73368,0 59.24546,-0.56484 59.24546,-16.1584 0,-15.59155 -52.51178,-16.15639 -59.24546,-16.15639 -6.74174,0 -59.12643,0.55677 -59.12643,16.15639 z" />
    <path
   id="path276"
   style="fill:#bdbcbc;stroke:#231f20;stroke-width:6.13656;stroke-miterlimit:3.864"
   d="m 447.03128,130.83999 c 0,4.1092 3.55041,6.69333 6.38267,8.18814 12.63825,6.66912 39.5205,7.96825 52.74376,7.96825 6.73368,0 59.24546,-0.56282 59.24546,-16.15639 0,-15.59356 -52.51178,-16.15638 -59.24546,-16.15638 -6.74174,0 -59.12643,0.55677 -59.12643,16.15638 z" />
    <path
   id="path278"
   style="fill:#bdbcbc;stroke:#231f20;stroke-width:6.13656;stroke-miterlimit:3.864"
   d="m 447.03128,131.02155 c 0,4.10919 3.55041,6.69333 6.38267,8.18813 12.63825,6.66711 39.5205,7.96825 52.74376,7.96825 6.73368,0 59.24546,-0.56282 59.24546,-16.15638 0,-15.59357 -52.51178,-16.15639 -59.24546,-16.15639 -6.74174,0 -59.12643,0.55677 -59.12643,16.15639 z" />
    <path
   id="path280"
   style="fill:#bdbcbc;stroke:#231f20;stroke-width:6.13656;stroke-miterlimit:3.864"
   d="m 447.03128,131.2031 c 0,4.1092 3.55041,6.69132 6.38267,8.18612 12.63825,6.66912 39.5205,7.97027 52.74376,7.97027 6.73368,0 59.24546,-0.56484 59.24546,-16.15639 0,-15.59356 -52.51178,-16.1584 -59.24546,-16.1584 -6.74174,0 -59.12643,0.55879 -59.12643,16.1584 z" />
    <path
   id="path282"
   style="fill:#bdbcbc;stroke:#231f20;stroke-width:6.13656;stroke-miterlimit:3.864"
   d="m 447.03128,131.36448 c 0,4.1092 3.55041,6.69333 6.38267,8.18814 12.63825,6.66912 39.5205,7.96825 52.74376,7.96825 6.73368,0 59.24546,-0.56282 59.24546,-16.15639 0,-15.59154 -52.51178,-16.15638 -59.24546,-16.15638 -6.74174,0 -59.12643,0.55677 -59.12643,16.15638 z" />
    <path
   id="path284"
   style="fill:#bdbcbc;stroke:#231f20;stroke-width:6.13656;stroke-miterlimit:3.864"
   d="m 447.03128,131.54604 c 0,4.1092 3.55041,6.69333 6.38267,8.18813 12.63825,6.66913 39.5205,7.96825 52.74376,7.96825 6.73368,0 59.24546,-0.56282 59.24546,-16.15638 0,-15.59357 -52.51178,-16.15639 -59.24546,-16.15639 -6.74174,0 -59.12643,0.55677 -59.12643,16.15639 z" />
    <path
   id="path286"
   style="fill:#bdbcbc;stroke:#231f20;stroke-width:6.13656;stroke-miterlimit:3.864"
   d="m 447.03128,131.72759 c 0,4.1092 3.55041,6.69333 6.38267,8.18814 12.63825,6.6671 39.5205,7.96825 52.74376,7.96825 6.73368,0 59.24546,-0.56484 59.24546,-16.15639 0,-15.59356 -52.51178,-16.15638 -59.24546,-16.15638 -6.74174,0 -59.12643,0.55677 -59.12643,16.15638 z" />
    <path
   id="path288"
   style="fill:#bdbcbc;stroke:#231f20;stroke-width:6.13656;stroke-miterlimit:3.864"
   d="m 447.03128,131.90915 c 0,4.1092 3.55041,6.69131 6.38267,8.18612 12.63825,6.66912 39.5205,7.97026 52.74376,7.97026 6.73368,0 59.24546,-0.56483 59.24546,-16.15638 0,-15.59357 -52.51178,-16.1584 -59.24546,-16.1584 -6.74174,0 -59.12643,0.55878 -59.12643,16.1584 z" />
    <path
   id="path290"
   style="fill:#bdbcbc;stroke:#231f20;stroke-width:6.13656;stroke-miterlimit:3.864"
   d="m 447.03128,132.0907 c 0,4.1092 3.55041,6.69333 6.38267,8.18814 12.63825,6.66912 39.5205,7.96825 52.74376,7.96825 6.73368,0 59.24546,-0.56282 59.24546,-16.15639 0,-15.59154 -52.51178,-16.15638 -59.24546,-16.15638 -6.74174,0 -59.12643,0.55677 -59.12643,16.15638 z" />
    <path
   id="path292"
   style="fill:#bdbcbc;stroke:#231f20;stroke-width:6.13656;stroke-miterlimit:3.864"
   d="m 447.03128,132.25209 c 0,4.10919 3.55041,6.69333 6.38267,8.18813 12.63825,6.66912 39.5205,7.96825 52.74376,7.96825 6.73368,0 59.24546,-0.56282 59.24546,-16.15638 0,-15.59357 -52.51178,-16.15639 -59.24546,-16.15639 -6.74174,0 -59.12643,0.55677 -59.12643,16.15639 z" />
    <path
   id="path294"
   style="fill:#bdbcbc;stroke:#231f20;stroke-width:6.13656;stroke-miterlimit:3.864"
   d="m 447.03128,132.43364 c 0,4.1092 3.55041,6.69333 6.38267,8.18814 12.63825,6.6671 39.5205,7.96825 52.74376,7.96825 6.73368,0 59.24546,-0.56484 59.24546,-16.15639 0,-15.59356 -52.51178,-16.1584 -59.24546,-16.1584 -6.74174,0 -59.12643,0.55879 -59.12643,16.1584 z" />
    <path
   id="path296"
   style="fill:#bdbcbc;stroke:#231f20;stroke-width:6.13656;stroke-miterlimit:3.864"
   d="m 447.03128,132.6152 c 0,4.11121 3.55041,6.69333 6.38267,8.18813 12.63825,6.66912 39.5205,7.97027 52.74376,7.97027 6.73368,0 59.24546,-0.56484 59.24546,-16.1584 0,-15.59155 -52.51178,-16.15639 -59.24546,-16.15639 -6.74174,0 -59.12643,0.55879 -59.12643,16.15639 z" />
    <path
   id="path298"
   style="fill:#bdbcbc;stroke:#231f20;stroke-width:6.13656;stroke-miterlimit:3.864"
   d="m 447.03128,132.79675 c 0,4.1092 3.55041,6.69333 6.38267,8.18814 12.63825,6.66912 39.5205,7.96825 52.74376,7.96825 6.73368,0 59.24546,-0.56282 59.24546,-16.15639 0,-15.59155 -52.51178,-16.15638 -59.24546,-16.15638 -6.74174,0 -59.12643,0.55677 -59.12643,16.15638 z" />
    <path
   id="path300"
   style="fill:#bdbcbc;stroke:#231f20;stroke-width:6.13656;stroke-miterlimit:3.864"
   d="m 447.03128,132.95813 c 0,4.1092 3.55041,6.69333 6.38267,8.18814 12.63825,6.66912 39.5205,7.96825 52.74376,7.96825 6.73368,0 59.24546,-0.56282 59.24546,-16.15639 0,-15.59356 -52.51178,-16.15638 -59.24546,-16.15638 -6.74174,0 -59.12643,0.55677 -59.12643,16.15638 z" />
    <path
   id="path302"
   style="fill:#bdbcbc;stroke:#231f20;stroke-width:6.13656;stroke-miterlimit:3.864"
   d="m 447.03128,133.13969 c 0,4.1092 3.55041,6.69333 6.38267,8.18813 12.63825,6.66711 39.5205,7.96825 52.74376,7.96825 6.73368,0 59.24546,-0.56483 59.24546,-16.15638 0,-15.59357 -52.51178,-16.1584 -59.24546,-16.1584 -6.74174,0 -59.12643,0.55878 -59.12643,16.1584 z" />
    <path
   id="path304"
   style="fill:#bdbcbc;stroke:#231f20;stroke-width:6.13656;stroke-miterlimit:3.864"
   d="m 447.03128,133.32124 c 0,4.1092 3.55041,6.69132 6.38267,8.18612 12.63825,6.66912 39.5205,7.97027 52.74376,7.97027 6.73368,0 59.24546,-0.56484 59.24546,-16.15639 0,-15.59356 -52.51178,-16.1584 -59.24546,-16.1584 -6.74174,0 -59.12643,0.55879 -59.12643,16.1584 z" />
    <path
   id="path306"
   style="fill:#bdbcbc;stroke:#231f20;stroke-width:6.13656;stroke-miterlimit:3.864"
   d="m 447.03128,133.5028 c 0,4.1092 3.55041,6.69333 6.38267,8.18813 12.63825,6.66913 39.5205,7.96825 52.74376,7.96825 6.73368,0 59.24546,-0.56282 59.24546,-16.15638 0,-15.59155 -52.51178,-16.15639 -59.24546,-16.15639 -6.74174,0 -59.12643,0.55677 -59.12643,16.15639 z" />
    <path
   id="path308"
   style="fill:#bdbcbc;stroke:#231f20;stroke-width:6.13656;stroke-miterlimit:3.864"
   d="m 447.03128,133.66418 c 0,4.1092 3.55041,6.69333 6.38267,8.18814 12.63825,6.66912 39.5205,7.96825 52.74376,7.96825 6.73368,0 59.24546,-0.56282 59.24546,-16.15639 0,-15.59356 -52.51178,-16.15638 -59.24546,-16.15638 -6.74174,0 -59.12643,0.55677 -59.12643,16.15638 z" />
    <path
   id="path310"
   style="fill:#bdbcbc;stroke:#231f20;stroke-width:6.13656;stroke-miterlimit:3.864"
   d="m 447.03128,133.84574 c 0,4.10919 3.55041,6.69131 6.38267,8.18813 12.63825,6.66711 39.5205,7.96825 52.74376,7.96825 6.73368,0 59.24546,-0.56484 59.24546,-16.15638 0,-15.59357 -52.51178,-16.15841 -59.24546,-16.15841 -6.74174,0 -59.12643,0.55879 -59.12643,16.15841 z" />
    <path
   id="path312"
   style="fill:#bdbcbc;stroke:#231f20;stroke-width:6.13656;stroke-miterlimit:3.864"
   d="m 447.03128,134.02729 c 0,4.11122 3.55041,6.69333 6.38267,8.18814 12.63825,6.66912 39.5205,7.97026 52.74376,7.97026 6.73368,0 59.24546,-0.56483 59.24546,-16.1584 0,-15.59155 -52.51178,-16.15638 -59.24546,-16.15638 -6.74174,0 -59.12643,0.55878 -59.12643,16.15638 z" />
    <path
   id="path314"
   style="fill:#bdbcbc;stroke:#231f20;stroke-width:6.13656;stroke-miterlimit:3.864"
   d="m 447.03128,134.20885 c 0,4.10919 3.55041,6.69333 6.38267,8.18813 12.63825,6.66912 39.5205,7.96825 52.74376,7.96825 6.73368,0 59.24546,-0.56282 59.24546,-16.15638 0,-15.59357 -52.51178,-16.15639 -59.24546,-16.15639 -6.74174,0 -59.12643,0.55677 -59.12643,16.15639 z" />
    <path
   id="path316"
   style="fill:#bdbcbc;stroke:#231f20;stroke-width:6.13656;stroke-miterlimit:3.864"
   d="m 447.03128,134.3904 c 0,4.1092 3.55041,6.69333 6.38267,8.18814 12.63825,6.6671 39.5205,7.96825 52.74376,7.96825 6.73368,0 59.24546,-0.56282 59.24546,-16.15639 0,-15.59356 -52.51178,-16.15638 -59.24546,-16.15638 -6.74174,0 -59.12643,0.55677 -59.12643,16.15638 z" />
    <path
   id="path318"
   style="fill:#bdbcbc;stroke:#231f20;stroke-width:6.13656;stroke-miterlimit:3.864"
   d="m 447.03128,134.55178 c 0,4.1092 3.55041,6.69132 6.38267,8.18612 12.63825,6.66912 39.5205,7.97027 52.74376,7.97027 6.73368,0 59.24546,-0.56484 59.24546,-16.15639 0,-15.59356 -52.51178,-16.1584 -59.24546,-16.1584 -6.74174,0 -59.12643,0.55879 -59.12643,16.1584 z" />
    <path
   id="path320"
   style="fill:#a7a5a6;stroke-width:2.01728"
   d="m 453.40588,138.3241 c 12.63825,6.66912 39.5205,7.96825 52.74376,7.96825 6.73368,0 59.24546,-0.56282 59.24546,-16.15639 0,-15.59356 -52.51178,-16.15638 -59.24546,-16.15638 -6.74174,0 -59.12643,0.55677 -59.12643,16.15638 0,4.1092 3.55041,6.69333 6.38267,8.18814" />
    <path
   id="path322"
   style="fill:#a7a5a6;stroke-width:2.01728"
   d="m 447.03128,130.3155 c 0,4.1092 3.55041,6.69333 6.38267,8.18813 12.63825,6.66711 39.5205,7.96825 52.74376,7.96825 6.73368,0 59.24546,-0.56282 59.24546,-16.15638 0,-15.59357 -52.51178,-16.15639 -59.24546,-16.15639 -6.74174,0 -59.12643,0.55677 -59.12643,16.15639" />
    <path
   id="path324"
   style="fill:#a7a5a6;stroke-width:2.01728"
   d="m 447.03128,130.49705 c 0,4.1092 3.55041,6.69132 6.38267,8.18814 12.63825,6.6671 39.5205,7.96825 52.74376,7.96825 6.73368,0 59.24546,-0.56484 59.24546,-16.15639 0,-15.59356 -52.51178,-16.1584 -59.24546,-16.1584 -6.74174,0 -59.12643,0.55879 -59.12643,16.1584" />
    <path
   id="path326"
   style="fill:#a7a5a6;stroke-width:2.01728"
   d="m 447.03128,130.65844 c 0,4.11121 3.55041,6.69333 6.38267,8.18813 12.63825,6.66912 39.5205,7.97027 52.74376,7.97027 6.73368,0 59.24546,-0.56484 59.24546,-16.1584 0,-15.59155 -52.51178,-16.15639 -59.24546,-16.15639 -6.74174,0 -59.12643,0.55677 -59.12643,16.15639" />
    <path
   id="path328"
   style="fill:#a7a5a6;stroke-width:2.01728"
   d="m 447.03128,130.83999 c 0,4.1092 3.55041,6.69333 6.38267,8.18814 12.63825,6.66912 39.5205,7.96825 52.74376,7.96825 6.73368,0 59.24546,-0.56282 59.24546,-16.15639 0,-15.59356 -52.51178,-16.15638 -59.24546,-16.15638 -6.74174,0 -59.12643,0.55677 -59.12643,16.15638" />
    <path
   id="path330"
   style="fill:#a7a5a6;stroke-width:2.01728"
   d="m 447.03128,131.02155 c 0,4.10919 3.55041,6.69333 6.38267,8.18813 12.63825,6.66711 39.5205,7.96825 52.74376,7.96825 6.73368,0 59.24546,-0.56282 59.24546,-16.15638 0,-15.59357 -52.51178,-16.15639 -59.24546,-16.15639 -6.74174,0 -59.12643,0.55677 -59.12643,16.15639" />
    <path
   id="path332"
   style="fill:#a7a5a6;stroke-width:2.01728"
   d="m 447.03128,131.2031 c 0,4.1092 3.55041,6.69132 6.38267,8.18612 12.63825,6.66912 39.5205,7.97027 52.74376,7.97027 6.73368,0 59.24546,-0.56484 59.24546,-16.15639 0,-15.59356 -52.51178,-16.1584 -59.24546,-16.1584 -6.74174,0 -59.12643,0.55879 -59.12643,16.1584" />
    <path
   id="path334"
   style="fill:#a7a5a6;stroke-width:2.01728"
   d="m 447.03128,131.36448 c 0,4.1092 3.55041,6.69333 6.38267,8.18814 12.63825,6.66912 39.5205,7.96825 52.74376,7.96825 6.73368,0 59.24546,-0.56282 59.24546,-16.15639 0,-15.59154 -52.51178,-16.15638 -59.24546,-16.15638 -6.74174,0 -59.12643,0.55677 -59.12643,16.15638" />
    <path
   id="path336"
   style="fill:#a7a5a6;stroke-width:2.01728"
   d="m 447.03128,131.54604 c 0,4.1092 3.55041,6.69333 6.38267,8.18813 12.63825,6.66913 39.5205,7.96825 52.74376,7.96825 6.73368,0 59.24546,-0.56282 59.24546,-16.15638 0,-15.59357 -52.51178,-16.15639 -59.24546,-16.15639 -6.74174,0 -59.12643,0.55677 -59.12643,16.15639" />
    <path
   id="path338"
   style="fill:#a7a5a6;stroke-width:2.01728"
   d="m 447.03128,131.72759 c 0,4.1092 3.55041,6.69333 6.38267,8.18814 12.63825,6.6671 39.5205,7.96825 52.74376,7.96825 6.73368,0 59.24546,-0.56484 59.24546,-16.15639 0,-15.59356 -52.51178,-16.15638 -59.24546,-16.15638 -6.74174,0 -59.12643,0.55677 -59.12643,16.15638" />
    <path
   id="path340"
   style="fill:#a7a5a6;stroke-width:2.01728"
   d="m 447.03128,131.90915 c 0,4.1092 3.55041,6.69131 6.38267,8.18612 12.63825,6.66912 39.5205,7.97026 52.74376,7.97026 6.73368,0 59.24546,-0.56483 59.24546,-16.15638 0,-15.59357 -52.51178,-16.1584 -59.24546,-16.1584 -6.74174,0 -59.12643,0.55878 -59.12643,16.1584" />
    <path
   id="path342"
   style="fill:#a7a5a6;stroke-width:2.01728"
   d="m 447.03128,132.0907 c 0,4.1092 3.55041,6.69333 6.38267,8.18814 12.63825,6.66912 39.5205,7.96825 52.74376,7.96825 6.73368,0 59.24546,-0.56282 59.24546,-16.15639 0,-15.59154 -52.51178,-16.15638 -59.24546,-16.15638 -6.74174,0 -59.12643,0.55677 -59.12643,16.15638" />
    <path
   id="path344"
   style="fill:#a7a5a6;stroke-width:2.01728"
   d="m 447.03128,132.25209 c 0,4.10919 3.55041,6.69333 6.38267,8.18813 12.63825,6.66912 39.5205,7.96825 52.74376,7.96825 6.73368,0 59.24546,-0.56282 59.24546,-16.15638 0,-15.59357 -52.51178,-16.15639 -59.24546,-16.15639 -6.74174,0 -59.12643,0.55677 -59.12643,16.15639" />
    <path
   id="path346"
   style="fill:#a7a5a6;stroke-width:2.01728"
   d="m 447.03128,132.43364 c 0,4.1092 3.55041,6.69333 6.38267,8.18814 12.63825,6.6671 39.5205,7.96825 52.74376,7.96825 6.73368,0 59.24546,-0.56484 59.24546,-16.15639 0,-15.59356 -52.51178,-16.1584 -59.24546,-16.1584 -6.74174,0 -59.12643,0.55879 -59.12643,16.1584" />
    <path
   id="path348"
   style="fill:#a7a5a6;stroke-width:2.01728"
   d="m 447.03128,132.6152 c 0,4.11121 3.55041,6.69333 6.38267,8.18813 12.63825,6.66912 39.5205,7.97027 52.74376,7.97027 6.73368,0 59.24546,-0.56484 59.24546,-16.1584 0,-15.59155 -52.51178,-16.15639 -59.24546,-16.15639 -6.74174,0 -59.12643,0.55879 -59.12643,16.15639" />
    <path
   id="path350"
   style="fill:#a7a5a6;stroke-width:2.01728"
   d="m 447.03128,132.79675 c 0,4.1092 3.55041,6.69333 6.38267,8.18814 12.63825,6.66912 39.5205,7.96825 52.74376,7.96825 6.73368,0 59.24546,-0.56282 59.24546,-16.15639 0,-15.59155 -52.51178,-16.15638 -59.24546,-16.15638 -6.74174,0 -59.12643,0.55677 -59.12643,16.15638" />
    <path
   id="path352"
   style="fill:#a7a5a6;stroke-width:2.01728"
   d="m 447.03128,132.95813 c 0,4.1092 3.55041,6.69333 6.38267,8.18814 12.63825,6.66912 39.5205,7.96825 52.74376,7.96825 6.73368,0 59.24546,-0.56282 59.24546,-16.15639 0,-15.59356 -52.51178,-16.15638 -59.24546,-16.15638 -6.74174,0 -59.12643,0.55677 -59.12643,16.15638" />
    <path
   id="path354"
   style="fill:#a7a5a6;stroke-width:2.01728"
   d="m 447.03128,133.13969 c 0,4.1092 3.55041,6.69333 6.38267,8.18813 12.63825,6.66711 39.5205,7.96825 52.74376,7.96825 6.73368,0 59.24546,-0.56483 59.24546,-16.15638 0,-15.59357 -52.51178,-16.1584 -59.24546,-16.1584 -6.74174,0 -59.12643,0.55878 -59.12643,16.1584" />
    <path
   id="path356"
   style="fill:#a7a5a6;stroke-width:2.01728"
   d="m 447.03128,133.32124 c 0,4.1092 3.55041,6.69132 6.38267,8.18612 12.63825,6.66912 39.5205,7.97027 52.74376,7.97027 6.73368,0 59.24546,-0.56484 59.24546,-16.15639 0,-15.59356 -52.51178,-16.1584 -59.24546,-16.1584 -6.74174,0 -59.12643,0.55879 -59.12643,16.1584" />
    <path
   id="path358"
   style="fill:#a7a5a6;stroke-width:2.01728"
   d="m 447.03128,133.5028 c 0,4.1092 3.55041,6.69333 6.38267,8.18813 12.63825,6.66913 39.5205,7.96825 52.74376,7.96825 6.73368,0 59.24546,-0.56282 59.24546,-16.15638 0,-15.59155 -52.51178,-16.15639 -59.24546,-16.15639 -6.74174,0 -59.12643,0.55677 -59.12643,16.15639" />
    <path
   id="path360"
   style="fill:#a7a5a6;stroke-width:2.01728"
   d="m 447.03128,133.66418 c 0,4.1092 3.55041,6.69333 6.38267,8.18814 12.63825,6.66912 39.5205,7.96825 52.74376,7.96825 6.73368,0 59.24546,-0.56282 59.24546,-16.15639 0,-15.59356 -52.51178,-16.15638 -59.24546,-16.15638 -6.74174,0 -59.12643,0.55677 -59.12643,16.15638" />
    <path
   id="path362"
   style="fill:#a7a5a6;stroke-width:2.01728"
   d="m 447.03128,133.84574 c 0,4.10919 3.55041,6.69131 6.38267,8.18813 12.63825,6.66711 39.5205,7.96825 52.74376,7.96825 6.73368,0 59.24546,-0.56484 59.24546,-16.15638 0,-15.59357 -52.51178,-16.15841 -59.24546,-16.15841 -6.74174,0 -59.12643,0.55879 -59.12643,16.15841" />
    <path
   id="path364"
   style="fill:#a7a5a6;stroke-width:2.01728"
   d="m 447.03128,134.02729 c 0,4.11122 3.55041,6.69333 6.38267,8.18814 12.63825,6.66912 39.5205,7.97026 52.74376,7.97026 6.73368,0 59.24546,-0.56483 59.24546,-16.1584 0,-15.59155 -52.51178,-16.15638 -59.24546,-16.15638 -6.74174,0 -59.12643,0.55878 -59.12643,16.15638" />
    <path
   id="path366"
   style="fill:#a7a5a6;stroke-width:2.01728"
   d="m 447.03128,134.20885 c 0,4.10919 3.55041,6.69333 6.38267,8.18813 12.63825,6.66912 39.5205,7.96825 52.74376,7.96825 6.73368,0 59.24546,-0.56282 59.24546,-16.15638 0,-15.59357 -52.51178,-16.15639 -59.24546,-16.15639 -6.74174,0 -59.12643,0.55677 -59.12643,16.15639" />
    <path
   id="path368"
   style="fill:#a7a5a6;stroke-width:2.01728"
   d="m 447.03128,134.3904 c 0,4.1092 3.55041,6.69333 6.38267,8.18814 12.63825,6.6671 39.5205,7.96825 52.74376,7.96825 6.73368,0 59.24546,-0.56282 59.24546,-16.15639 0,-15.59356 -52.51178,-16.15638 -59.24546,-16.15638 -6.74174,0 -59.12643,0.55677 -59.12643,16.15638" />
    <path
   id="path370"
   style="fill:#a7a5a6;stroke-width:2.01728"
   d="m 447.03128,134.55178 c 0,4.1092 3.55041,6.69132 6.38267,8.18612 12.63825,6.66912 39.5205,7.97027 52.74376,7.97027 6.73368,0 59.24546,-0.56484 59.24546,-16.15639 0,-15.59356 -52.51178,-16.1584 -59.24546,-16.1584 -6.74174,0 -59.12643,0.55879 -59.12643,16.1584" />
    <path
   id="path372"
   style="fill:#a7a5a6;stroke-width:2.01728"
   d="m 453.40588,142.92349 c 12.63825,6.66912 39.5205,7.97027 52.74376,7.97027 6.73368,0 59.24546,-0.56484 59.24546,-16.1584 0,-15.59155 -52.51178,-16.15639 -59.24546,-16.15639 -6.74174,0 -59.12643,0.55677 -59.12643,16.15639 0,4.11121 3.55041,6.69333 6.38267,8.18813" />
    <path
   id="path374"
   style="fill:#bdbcbc;stroke:#231f20;stroke-width:6.13656;stroke-miterlimit:3.864"
   d="m 447.03128,293.9168 c 0,4.1092 3.55041,6.69333 6.38267,8.18814 12.63825,6.66912 39.5205,7.96825 52.74376,7.96825 6.73368,0 59.24546,-0.56282 59.24546,-16.15639 0,-15.59155 -52.51178,-16.15638 -59.24546,-16.15638 -6.74174,0 -59.12643,0.55676 -59.12643,16.15638 z" />
    <path
   id="path376"
   style="fill:#bdbcbc;stroke:#231f20;stroke-width:6.13656;stroke-miterlimit:3.864"
   d="m 447.03128,294.07818 c 0,4.1092 3.55041,6.69333 6.38267,8.18814 12.63825,6.66912 39.5205,7.96825 52.74376,7.96825 6.73368,0 59.24546,-0.56282 59.24546,-16.15639 0,-15.59356 -52.51178,-16.15638 -59.24546,-16.15638 -6.74174,0 -59.12643,0.55677 -59.12643,16.15638 z" />
    <path
   id="path378"
   style="fill:#bdbcbc;stroke:#231f20;stroke-width:6.13656;stroke-miterlimit:3.864"
   d="m 447.03128,294.25974 c 0,4.1092 3.55041,6.69131 6.38267,8.18813 12.63825,6.66711 39.5205,7.96825 52.74376,7.96825 6.73368,0 59.24546,-0.56483 59.24546,-16.15638 0,-15.59357 -52.51178,-16.1584 -59.24546,-16.1584 -6.74174,0 -59.12643,0.55878 -59.12643,16.1584 z" />
    <path
   id="path380"
   style="fill:#bdbcbc;stroke:#231f20;stroke-width:6.13656;stroke-miterlimit:3.864"
   d="m 447.03128,294.44129 c 0,4.11122 3.55041,6.69333 6.38267,8.18814 12.63825,6.66912 39.5205,7.97027 52.74376,7.97027 6.73368,0 59.24546,-0.56484 59.24546,-16.15841 0,-15.59154 -52.51178,-16.15638 -59.24546,-16.15638 -6.74174,0 -59.12643,0.55878 -59.12643,16.15638 z" />
    <path
   id="path382"
   style="fill:#bdbcbc;stroke:#231f20;stroke-width:6.13656;stroke-miterlimit:3.864"
   d="m 447.03128,294.62285 c 0,4.1092 3.55041,6.69333 6.38267,8.18813 12.63825,6.66913 39.5205,7.96825 52.74376,7.96825 6.73368,0 59.24546,-0.56282 59.24546,-16.15638 0,-15.59155 -52.51178,-16.15639 -59.24546,-16.15639 -6.74174,0 -59.12643,0.55677 -59.12643,16.15639 z" />
    <path
   id="path384"
   style="fill:#bdbcbc;stroke:#231f20;stroke-width:6.13656;stroke-miterlimit:3.864"
   d="m 447.03128,294.78423 c 0,4.1092 3.55041,6.69333 6.38267,8.18814 12.63825,6.6671 39.5205,7.96825 52.74376,7.96825 6.73368,0 59.24546,-0.56282 59.24546,-16.15639 0,-15.59356 -52.51178,-16.15638 -59.24546,-16.15638 -6.74174,0 -59.12643,0.55676 -59.12643,16.15638 z" />
    <path
   id="path386"
   style="fill:#bdbcbc;stroke:#231f20;stroke-width:6.13656;stroke-miterlimit:3.864"
   d="m 447.03128,294.96579 c 0,4.10919 3.55041,6.69131 6.38267,8.18813 12.63825,6.66711 39.5205,7.96825 52.74376,7.96825 6.73368,0 59.24546,-0.56484 59.24546,-16.15638 0,-15.59357 -52.51178,-16.15841 -59.24546,-16.15841 -6.74174,0 -59.12643,0.55879 -59.12643,16.15841 z" />
    <path
   id="path388"
   style="fill:#bdbcbc;stroke:#231f20;stroke-width:6.13656;stroke-miterlimit:3.864"
   d="m 447.03128,295.14734 c 0,4.11122 3.55041,6.69333 6.38267,8.18814 12.63825,6.66912 39.5205,7.97026 52.74376,7.97026 6.73368,0 59.24546,-0.56483 59.24546,-16.1584 0,-15.59155 -52.51178,-16.15638 -59.24546,-16.15638 -6.74174,0 -59.12643,0.55878 -59.12643,16.15638 z" />
    <path
   id="path390"
   style="fill:#bdbcbc;stroke:#231f20;stroke-width:6.13656;stroke-miterlimit:3.864"
   d="m 447.03128,295.3289 c 0,4.10919 3.55041,6.69333 6.38267,8.18813 12.63825,6.66912 39.5205,7.96825 52.74376,7.96825 6.73368,0 59.24546,-0.56282 59.24546,-16.15638 0,-15.59155 -52.51178,-16.15639 -59.24546,-16.15639 -6.74174,0 -59.12643,0.55677 -59.12643,16.15639 z" />
    <path
   id="path392"
   style="fill:#bdbcbc;stroke:#231f20;stroke-width:6.13656;stroke-miterlimit:3.864"
   d="m 447.03128,295.49028 c 0,4.1092 3.55041,6.69333 6.38267,8.18813 12.63825,6.66913 39.5205,7.96825 52.74376,7.96825 6.73368,0 59.24546,-0.56282 59.24546,-16.15638 0,-15.59357 -52.51178,-16.15639 -59.24546,-16.15639 -6.74174,0 -59.12643,0.55677 -59.12643,16.15639 z" />
    <path
   id="path394"
   style="fill:#bdbcbc;stroke:#231f20;stroke-width:6.13656;stroke-miterlimit:3.864"
   d="m 447.03128,295.67183 c 0,4.1092 3.55041,6.69132 6.38267,8.18814 12.63825,6.6671 39.5205,7.96825 52.74376,7.96825 6.73368,0 59.24546,-0.56484 59.24546,-16.15639 0,-15.59356 -52.51178,-16.1584 -59.24546,-16.1584 -6.74174,0 -59.12643,0.55879 -59.12643,16.1584 z" />
    <path
   id="path396"
   style="fill:#bdbcbc;stroke:#231f20;stroke-width:6.13656;stroke-miterlimit:3.864"
   d="m 447.03128,295.85339 c 0,4.11121 3.55041,6.69333 6.38267,8.18813 12.63825,6.66913 39.5205,7.97027 52.74376,7.97027 6.73368,0 59.24546,-0.56484 59.24546,-16.1584 0,-15.59155 -52.51178,-16.15639 -59.24546,-16.15639 -6.74174,0 -59.12643,0.55879 -59.12643,16.15639 z" />
    <path
   id="path398"
   style="fill:#bdbcbc;stroke:#231f20;stroke-width:6.13656;stroke-miterlimit:3.864"
   d="m 447.03128,296.03494 c 0,4.1092 3.55041,6.69333 6.38267,8.18814 12.63825,6.66912 39.5205,7.96825 52.74376,7.96825 6.73368,0 59.24546,-0.56282 59.24546,-16.15639 0,-15.59154 -52.51178,-16.15638 -59.24546,-16.15638 -6.74174,0 -59.12643,0.55677 -59.12643,16.15638 z" />
    <path
   id="path400"
   style="fill:#bdbcbc;stroke:#231f20;stroke-width:6.13656;stroke-miterlimit:3.864"
   d="m 447.03128,296.2165 c 0,4.1092 3.55041,6.69333 6.38267,8.18813 12.63825,6.66711 39.5205,7.96825 52.74376,7.96825 6.73368,0 59.24546,-0.56282 59.24546,-16.15638 0,-15.59357 -52.51178,-16.15639 -59.24546,-16.15639 -6.74174,0 -59.12643,0.55677 -59.12643,16.15639 z" />
    <path
   id="path402"
   style="fill:#bdbcbc;stroke:#231f20;stroke-width:6.13656;stroke-miterlimit:3.864"
   d="m 447.03128,296.37788 c 0,4.1092 3.55041,6.69131 6.38267,8.18814 12.63825,6.6671 39.5205,7.96825 52.74376,7.96825 6.73368,0 59.24546,-0.56484 59.24546,-16.15639 0,-15.59356 -52.51178,-16.1584 -59.24546,-16.1584 -6.74174,0 -59.12643,0.55878 -59.12643,16.1584 z" />
    <path
   id="path404"
   style="fill:#bdbcbc;stroke:#231f20;stroke-width:6.13656;stroke-miterlimit:3.864"
   d="m 447.03128,296.55944 c 0,4.11121 3.55041,6.69333 6.38267,8.18813 12.63825,6.66912 39.5205,7.97027 52.74376,7.97027 6.73368,0 59.24546,-0.56484 59.24546,-16.1584 0,-15.59155 -52.51178,-16.15639 -59.24546,-16.15639 -6.74174,0 -59.12643,0.55677 -59.12643,16.15639 z" />
    <path
   id="path406"
   style="fill:#bdbcbc;stroke:#231f20;stroke-width:6.13656;stroke-miterlimit:3.864"
   d="m 447.03128,296.74099 c 0,4.1092 3.55041,6.69333 6.38267,8.18814 12.63825,6.66912 39.5205,7.96825 52.74376,7.96825 6.73368,0 59.24546,-0.56282 59.24546,-16.15639 0,-15.59356 -52.51178,-16.15638 -59.24546,-16.15638 -6.74174,0 -59.12643,0.55677 -59.12643,16.15638 z" />
    <path
   id="path408"
   style="fill:#bdbcbc;stroke:#231f20;stroke-width:6.13656;stroke-miterlimit:3.864"
   d="m 447.03128,296.92255 c 0,4.10919 3.55041,6.69333 6.38267,8.18813 12.63825,6.66912 39.5205,7.96825 52.74376,7.96825 6.73368,0 59.24546,-0.56484 59.24546,-16.15638 0,-15.59357 -52.51178,-16.15639 -59.24546,-16.15639 -6.74174,0 -59.12643,0.55677 -59.12643,16.15639 z" />
    <path
   id="path410"
   style="fill:#bdbcbc;stroke:#231f20;stroke-width:6.13656;stroke-miterlimit:3.864"
   d="m 447.03128,297.1041 c 0,4.1092 3.55041,6.69131 6.38267,8.18612 12.63825,6.66912 39.5205,7.97027 52.74376,7.97027 6.73368,0 59.24546,-0.56484 59.24546,-16.15639 0,-15.59356 -52.51178,-16.1584 -59.24546,-16.1584 -6.74174,0 -59.12643,0.55879 -59.12643,16.1584 z" />
    <path
   id="path412"
   style="fill:#bdbcbc;stroke:#231f20;stroke-width:6.13656;stroke-miterlimit:3.864"
   d="m 447.03128,297.26548 c 0,4.11122 3.55041,6.69333 6.38267,8.18814 12.63825,6.66912 39.5205,7.96825 52.74376,7.96825 6.73368,0 59.24546,-0.56282 59.24546,-16.15639 0,-15.59154 -52.51178,-16.15638 -59.24546,-16.15638 -6.74174,0 -59.12643,0.55677 -59.12643,16.15638 z" />
    <path
   id="path414"
   style="fill:#bdbcbc;stroke:#231f20;stroke-width:6.13656;stroke-miterlimit:3.864"
   d="m 447.03128,297.44704 c 0,4.1092 3.55041,6.69333 6.38267,8.18813 12.63825,6.66913 39.5205,7.96825 52.74376,7.96825 6.73368,0 59.24546,-0.56282 59.24546,-16.15638 0,-15.59357 -52.51178,-16.15639 -59.24546,-16.15639 -6.74174,0 -59.12643,0.55677 -59.12643,16.15639 z" />
    <path
   id="path416"
   style="fill:#bdbcbc;stroke:#231f20;stroke-width:6.13656;stroke-miterlimit:3.864"
   d="m 447.03128,297.62859 c 0,4.1092 3.55041,6.69333 6.38267,8.18814 12.63825,6.6671 39.5205,7.96825 52.74376,7.96825 6.73368,0 59.24546,-0.56484 59.24546,-16.15639 0,-15.59356 -52.51178,-16.15638 -59.24546,-16.15638 -6.74174,0 -59.12643,0.55677 -59.12643,16.15638 z" />
    <path
   id="path418"
   style="fill:#bdbcbc;stroke:#231f20;stroke-width:6.13656;stroke-miterlimit:3.864"
   d="m 447.03128,297.81015 c 0,4.1092 3.55041,6.69131 6.38267,8.18612 12.63825,6.66912 39.5205,7.97026 52.74376,7.97026 6.73368,0 59.24546,-0.56483 59.24546,-16.15638 0,-15.59357 -52.51178,-16.1584 -59.24546,-16.1584 -6.74174,0 -59.12643,0.55878 -59.12643,16.1584 z" />
    <path
   id="path420"
   style="fill:#bdbcbc;stroke:#231f20;stroke-width:6.13656;stroke-miterlimit:3.864"
   d="m 447.03128,297.97153 c 0,4.1092 3.55041,6.69333 6.38267,8.18814 12.63825,6.66912 39.5205,7.96825 52.74376,7.96825 6.73368,0 59.24546,-0.56282 59.24546,-16.15639 0,-15.59155 -52.51178,-16.15638 -59.24546,-16.15638 -6.74174,0 -59.12643,0.55677 -59.12643,16.15638 z" />
    <path
   id="path422"
   style="fill:#bdbcbc;stroke:#231f20;stroke-width:6.13656;stroke-miterlimit:3.864"
   d="m 447.03128,298.15309 c 0,4.10919 3.55041,6.69333 6.38267,8.18813 12.63825,6.66912 39.5205,7.96825 52.74376,7.96825 6.73368,0 59.24546,-0.56282 59.24546,-16.15638 0,-15.59357 -52.51178,-16.15639 -59.24546,-16.15639 -6.74174,0 -59.12643,0.55677 -59.12643,16.15639 z" />
    <path
   id="path424"
   style="fill:#bdbcbc;stroke-width:2.01728"
   d="m 450.80359,293.73525 c 0,6.80428 24.74999,12.32153 55.34,12.32153 30.59002,0 55.38641,-5.51725 55.38641,-12.32153 l -0.0383,-158.1022 c 0,-6.80429 -24.75806,-12.09561 -55.34808,-12.09561 -30.59001,0 -55.3864,5.51726 -55.3864,12.32154 l 0.0464,157.87627" />
    <path
   id="path434"
   style="fill:#a7a5a6;stroke:#231f20;stroke-width:6.13656;stroke-miterlimit:3.864"
   d="m 453.40588,301.9254 c 12.63825,6.66912 39.5205,7.97027 52.74376,7.97027 6.73368,0 59.24546,-0.56484 59.24546,-16.15639 0,-15.59356 -52.51178,-16.1584 -59.24546,-16.1584 -6.74174,0 -59.12643,0.55878 -59.12643,16.1584 0,4.1092 3.55041,6.69131 6.38267,8.18612 z" />
    <path
   id="path456"
   style="fill:none;stroke:#231f20;stroke-width:2.30172;stroke-miterlimit:3.864"
   d="m 450.80359,293.73525 c 0,6.80428 24.74999,12.32153 55.34,12.32153 30.59002,0 55.38641,-5.51725 55.38641,-12.32153 l -0.0383,-158.1022 c 0,-6.80429 -24.75806,-12.09561 -55.34808,-12.09561 -30.59001,0 -55.3864,5.51726 -55.3864,12.32154 z" />
    <path
   id="path458"
   style="fill:#a7a5a6;stroke-width:2.01728"
   d="m 453.40588,301.9254 c 12.63825,6.66912 39.5205,7.97027 52.74376,7.97027 6.73368,0 59.24546,-0.56484 59.24546,-16.15639 0,-15.59356 -52.51178,-16.1584 -59.24546,-16.1584 -6.74174,0 -59.12643,0.55878 -59.12643,16.1584 0,4.1092 3.55041,6.69131 6.38267,8.18612" />
    <path
   id="path460"
   style="fill:#a7a5a6;stroke-width:2.01728"
   d="m 447.03128,293.9168 c 0,4.1092 3.55041,6.69333 6.38267,8.18814 12.63825,6.66912 39.5205,7.96825 52.74376,7.96825 6.73368,0 59.24546,-0.56282 59.24546,-16.15639 0,-15.59155 -52.51178,-16.15638 -59.24546,-16.15638 -6.74174,0 -59.12643,0.55676 -59.12643,16.15638" />
    <path
   id="path462"
   style="fill:#a7a5a6;stroke-width:2.01728"
   d="m 447.03128,294.07818 c 0,4.1092 3.55041,6.69333 6.38267,8.18814 12.63825,6.66912 39.5205,7.96825 52.74376,7.96825 6.73368,0 59.24546,-0.56282 59.24546,-16.15639 0,-15.59356 -52.51178,-16.15638 -59.24546,-16.15638 -6.74174,0 -59.12643,0.55677 -59.12643,16.15638" />
    <path
   id="path464"
   style="fill:#a7a5a6;stroke-width:2.01728"
   d="m 447.03128,294.25974 c 0,4.1092 3.55041,6.69131 6.38267,8.18813 12.63825,6.66711 39.5205,7.96825 52.74376,7.96825 6.73368,0 59.24546,-0.56483 59.24546,-16.15638 0,-15.59357 -52.51178,-16.1584 -59.24546,-16.1584 -6.74174,0 -59.12643,0.55878 -59.12643,16.1584" />
    <path
   id="path466"
   style="fill:#a7a5a6;stroke-width:2.01728"
   d="m 447.03128,294.44129 c 0,4.11122 3.55041,6.69333 6.38267,8.18814 12.63825,6.66912 39.5205,7.97027 52.74376,7.97027 6.73368,0 59.24546,-0.56484 59.24546,-16.15841 0,-15.59154 -52.51178,-16.15638 -59.24546,-16.15638 -6.74174,0 -59.12643,0.55878 -59.12643,16.15638" />
    <path
   id="path468"
   style="fill:#a7a5a6;stroke-width:2.01728"
   d="m 447.03128,294.62285 c 0,4.1092 3.55041,6.69333 6.38267,8.18813 12.63825,6.66913 39.5205,7.96825 52.74376,7.96825 6.73368,0 59.24546,-0.56282 59.24546,-16.15638 0,-15.59155 -52.51178,-16.15639 -59.24546,-16.15639 -6.74174,0 -59.12643,0.55677 -59.12643,16.15639" />
    <path
   id="path470"
   style="fill:#a7a5a6;stroke-width:2.01728"
   d="m 447.03128,294.78423 c 0,4.1092 3.55041,6.69333 6.38267,8.18814 12.63825,6.6671 39.5205,7.96825 52.74376,7.96825 6.73368,0 59.24546,-0.56282 59.24546,-16.15639 0,-15.59356 -52.51178,-16.15638 -59.24546,-16.15638 -6.74174,0 -59.12643,0.55676 -59.12643,16.15638" />
    <path
   id="path472"
   style="fill:#a7a5a6;stroke-width:2.01728"
   d="m 447.03128,294.96579 c 0,4.10919 3.55041,6.69131 6.38267,8.18813 12.63825,6.66711 39.5205,7.96825 52.74376,7.96825 6.73368,0 59.24546,-0.56484 59.24546,-16.15638 0,-15.59357 -52.51178,-16.15841 -59.24546,-16.15841 -6.74174,0 -59.12643,0.55879 -59.12643,16.15841" />
    <path
   id="path474"
   style="fill:#a7a5a6;stroke-width:2.01728"
   d="m 447.03128,295.14734 c 0,4.11122 3.55041,6.69333 6.38267,8.18814 12.63825,6.66912 39.5205,7.97026 52.74376,7.97026 6.73368,0 59.24546,-0.56483 59.24546,-16.1584 0,-15.59155 -52.51178,-16.15638 -59.24546,-16.15638 -6.74174,0 -59.12643,0.55878 -59.12643,16.15638" />
    <path
   id="path476"
   style="fill:#a7a5a6;stroke-width:2.01728"
   d="m 447.03128,295.3289 c 0,4.10919 3.55041,6.69333 6.38267,8.18813 12.63825,6.66912 39.5205,7.96825 52.74376,7.96825 6.73368,0 59.24546,-0.56282 59.24546,-16.15638 0,-15.59155 -52.51178,-16.15639 -59.24546,-16.15639 -6.74174,0 -59.12643,0.55677 -59.12643,16.15639" />
    <path
   id="path478"
   style="fill:#a7a5a6;stroke-width:2.01728"
   d="m 447.03128,295.49028 c 0,4.1092 3.55041,6.69333 6.38267,8.18813 12.63825,6.66913 39.5205,7.96825 52.74376,7.96825 6.73368,0 59.24546,-0.56282 59.24546,-16.15638 0,-15.59357 -52.51178,-16.15639 -59.24546,-16.15639 -6.74174,0 -59.12643,0.55677 -59.12643,16.15639" />
    <path
   id="path480"
   style="fill:#a7a5a6;stroke-width:2.01728"
   d="m 447.03128,295.67183 c 0,4.1092 3.55041,6.69132 6.38267,8.18814 12.63825,6.6671 39.5205,7.96825 52.74376,7.96825 6.73368,0 59.24546,-0.56484 59.24546,-16.15639 0,-15.59356 -52.51178,-16.1584 -59.24546,-16.1584 -6.74174,0 -59.12643,0.55879 -59.12643,16.1584" />
    <path
   id="path482"
   style="fill:#a7a5a6;stroke-width:2.01728"
   d="m 447.03128,295.85339 c 0,4.11121 3.55041,6.69333 6.38267,8.18813 12.63825,6.66913 39.5205,7.97027 52.74376,7.97027 6.73368,0 59.24546,-0.56484 59.24546,-16.1584 0,-15.59155 -52.51178,-16.15639 -59.24546,-16.15639 -6.74174,0 -59.12643,0.55879 -59.12643,16.15639" />
    <path
   id="path484"
   style="fill:#a7a5a6;stroke-width:2.01728"
   d="m 447.03128,296.03494 c 0,4.1092 3.55041,6.69333 6.38267,8.18814 12.63825,6.66912 39.5205,7.96825 52.74376,7.96825 6.73368,0 59.24546,-0.56282 59.24546,-16.15639 0,-15.59154 -52.51178,-16.15638 -59.24546,-16.15638 -6.74174,0 -59.12643,0.55677 -59.12643,16.15638" />
    <path
   id="path486"
   style="fill:#a7a5a6;stroke-width:2.01728"
   d="m 447.03128,296.2165 c 0,4.1092 3.55041,6.69333 6.38267,8.18813 12.63825,6.66711 39.5205,7.96825 52.74376,7.96825 6.73368,0 59.24546,-0.56282 59.24546,-16.15638 0,-15.59357 -52.51178,-16.15639 -59.24546,-16.15639 -6.74174,0 -59.12643,0.55677 -59.12643,16.15639" />
    <path
   id="path488"
   style="fill:#a7a5a6;stroke-width:2.01728"
   d="m 447.03128,296.37788 c 0,4.1092 3.55041,6.69131 6.38267,8.18814 12.63825,6.6671 39.5205,7.96825 52.74376,7.96825 6.73368,0 59.24546,-0.56484 59.24546,-16.15639 0,-15.59356 -52.51178,-16.1584 -59.24546,-16.1584 -6.74174,0 -59.12643,0.55878 -59.12643,16.1584" />
    <path
   id="path490"
   style="fill:#a7a5a6;stroke-width:2.01728"
   d="m 447.03128,296.55944 c 0,4.11121 3.55041,6.69333 6.38267,8.18813 12.63825,6.66912 39.5205,7.97027 52.74376,7.97027 6.73368,0 59.24546,-0.56484 59.24546,-16.1584 0,-15.59155 -52.51178,-16.15639 -59.24546,-16.15639 -6.74174,0 -59.12643,0.55677 -59.12643,16.15639" />
    <path
   id="path492"
   style="fill:#a7a5a6;stroke-width:2.01728"
   d="m 447.03128,296.74099 c 0,4.1092 3.55041,6.69333 6.38267,8.18814 12.63825,6.66912 39.5205,7.96825 52.74376,7.96825 6.73368,0 59.24546,-0.56282 59.24546,-16.15639 0,-15.59356 -52.51178,-16.15638 -59.24546,-16.15638 -6.74174,0 -59.12643,0.55677 -59.12643,16.15638" />
    <path
   id="path494"
   style="fill:#a7a5a6;stroke-width:2.01728"
   d="m 447.03128,296.92255 c 0,4.10919 3.55041,6.69333 6.38267,8.18813 12.63825,6.66912 39.5205,7.96825 52.74376,7.96825 6.73368,0 59.24546,-0.56484 59.24546,-16.15638 0,-15.59357 -52.51178,-16.15639 -59.24546,-16.15639 -6.74174,0 -59.12643,0.55677 -59.12643,16.15639" />
    <path
   id="path496"
   style="fill:#a7a5a6;stroke-width:2.01728"
   d="m 447.03128,297.1041 c 0,4.1092 3.55041,6.69131 6.38267,8.18612 12.63825,6.66912 39.5205,7.97027 52.74376,7.97027 6.73368,0 59.24546,-0.56484 59.24546,-16.15639 0,-15.59356 -52.51178,-16.1584 -59.24546,-16.1584 -6.74174,0 -59.12643,0.55879 -59.12643,16.1584" />
    <path
   id="path498"
   style="fill:#a7a5a6;stroke-width:2.01728"
   d="m 447.03128,297.26548 c 0,4.11122 3.55041,6.69333 6.38267,8.18814 12.63825,6.66912 39.5205,7.96825 52.74376,7.96825 6.73368,0 59.24546,-0.56282 59.24546,-16.15639 0,-15.59154 -52.51178,-16.15638 -59.24546,-16.15638 -6.74174,0 -59.12643,0.55677 -59.12643,16.15638" />
    <path
   id="path500"
   style="fill:#a7a5a6;stroke-width:2.01728"
   d="m 447.03128,297.44704 c 0,4.1092 3.55041,6.69333 6.38267,8.18813 12.63825,6.66913 39.5205,7.96825 52.74376,7.96825 6.73368,0 59.24546,-0.56282 59.24546,-16.15638 0,-15.59357 -52.51178,-16.15639 -59.24546,-16.15639 -6.74174,0 -59.12643,0.55677 -59.12643,16.15639" />
    <path
   id="path502"
   style="fill:#a7a5a6;stroke-width:2.01728"
   d="m 447.03128,297.62859 c 0,4.1092 3.55041,6.69333 6.38267,8.18814 12.63825,6.6671 39.5205,7.96825 52.74376,7.96825 6.73368,0 59.24546,-0.56484 59.24546,-16.15639 0,-15.59356 -52.51178,-16.15638 -59.24546,-16.15638 -6.74174,0 -59.12643,0.55677 -59.12643,16.15638" />
    <path
   id="path504"
   style="fill:#a7a5a6;stroke-width:2.01728"
   d="m 447.03128,297.81015 c 0,4.1092 3.55041,6.69131 6.38267,8.18612 12.63825,6.66912 39.5205,7.97026 52.74376,7.97026 6.73368,0 59.24546,-0.56483 59.24546,-16.15638 0,-15.59357 -52.51178,-16.1584 -59.24546,-16.1584 -6.74174,0 -59.12643,0.55878 -59.12643,16.1584" />
    <path
   id="path506"
   style="fill:#a7a5a6;stroke-width:2.01728"
   d="m 447.03128,297.97153 c 0,4.1092 3.55041,6.69333 6.38267,8.18814 12.63825,6.66912 39.5205,7.96825 52.74376,7.96825 6.73368,0 59.24546,-0.56282 59.24546,-16.15639 0,-15.59155 -52.51178,-16.15638 -59.24546,-16.15638 -6.74174,0 -59.12643,0.55677 -59.12643,16.15638" />
    <path
   id="path508"
   style="fill:#a7a5a6;stroke-width:2.01728"
   d="m 447.03128,298.15309 c 0,4.10919 3.55041,6.69333 6.38267,8.18813 12.63825,6.66912 39.5205,7.96825 52.74376,7.96825 6.73368,0 59.24546,-0.56282 59.24546,-16.15638 0,-15.59357 -52.51178,-16.15639 -59.24546,-16.15639 -6.74174,0 -59.12643,0.55677 -59.12643,16.15639" />
    <path
   id="path510"
   style="fill:#a7a5a6;stroke-width:2.01728"
   d="m 453.40588,306.52479 c 12.63825,6.66711 39.5205,7.96825 52.74376,7.96825 6.73368,0 59.24546,-0.56483 59.24546,-16.15638 0,-15.59357 -52.51178,-16.1584 -59.24546,-16.1584 -6.74174,0 -59.12643,0.55878 -59.12643,16.1584 0,4.1092 3.55041,6.69131 6.38267,8.18813" />
    <path
   id="path512"
   style="fill:#bdbcbc;stroke-width:2.01728"
   d="m 706.47349,125.37317 c 0,-6.8063 -24.96584,-12.32154 -55.55586,-12.32154 -30.59001,0 -55.3864,5.51524 -55.3864,12.32154 l 0.0222,106.58292 c 0,6.80428 24.7742,12.32153 55.36421,12.32153 30.59002,0 55.38641,-5.51725 55.38641,-12.32153 l 0.16945,-106.58292" />
    <path
   id="path514"
   style="fill:none;stroke:#a7a5a6;stroke-width:2.30172;stroke-miterlimit:3.864"
   d="m 595.52316,231.946 c 0,6.80428 24.79639,12.32154 55.3864,12.32154 30.59002,0 55.38641,-5.51726 55.38641,-12.32154 0,-6.8063 -24.79639,-12.32154 -55.38641,-12.32154 -30.59001,0 -55.3864,5.51524 -55.3864,12.32154 z m 0,-106.58292 c 0,6.80428 24.79639,12.32154 55.3864,12.32154 30.59002,0 55.38641,-5.51726 55.38641,-12.32154 0,-6.8063 -24.79639,-12.32154 -55.38641,-12.32154 -30.59001,0 -55.3864,5.51524 -55.3864,12.32154 z" />
    <path
   id="path516"
   style="fill:#d3d2d2;stroke:#ffffff;stroke-width:0.764549;stroke-miterlimit:3.864"
   d="m 620.94087,139.71602 c 0,2.22506 1.80345,4.02649 4.02649,4.02649 2.22506,0 4.02851,-1.80143 4.02851,-4.02649 0,-2.22304 -1.80345,-4.02649 -4.02851,-4.02649 -2.22304,0 -4.02649,1.80345 -4.02649,4.02649 z" />
    <path
   id="path518"
   style="fill:#d3d2d2;stroke:#ffffff;stroke-width:0.764549;stroke-miterlimit:3.864"
   d="m 627.961,143.10505 c 0,1.52909 1.23861,2.7677 2.76771,2.7677 1.5291,0 2.7677,-1.23861 2.7677,-2.7677 0,-1.5291 -1.2386,-2.76771 -2.7677,-2.76771 -1.5291,0 -2.76771,1.23861 -2.76771,2.76771 z" />
    <path
   id="path520"
   style="fill:#d3d2d2;stroke:#ffffff;stroke-width:0.764549;stroke-miterlimit:3.864"
   d="m 637.32117,126.62388 c 0,2.22304 1.80143,4.02649 4.02649,4.02649 2.22304,0 4.02649,-1.80345 4.02649,-4.02649 0,-2.22506 -1.80345,-4.02649 -4.02649,-4.02649 -2.22506,0 -4.02649,1.80143 -4.02649,4.02649 z" />
    <path
   id="path522"
   style="fill:#d3d2d2;stroke:#ffffff;stroke-width:0.764549;stroke-miterlimit:3.864"
   d="m 631.57193,136.50854 c 0,1.5291 1.24063,2.76771 2.76771,2.76771 1.52909,0 2.76972,-1.23861 2.76972,-2.76771 0,-1.52909 -1.24063,-2.7677 -2.76972,-2.7677 -1.52708,0 -2.76771,1.23861 -2.76771,2.7677 z" />
    <path
   id="path524"
   style="fill:#d3d2d2;stroke:#ffffff;stroke-width:0.764549;stroke-miterlimit:3.864"
   d="m 603.71331,137.81978 c 0,3.0945 2.50748,5.60198 5.604,5.60198 3.09451,0 5.60198,-2.50748 5.60198,-5.60198 0,-3.09451 -2.50747,-5.604 -5.60198,-5.604 -3.09652,0 -5.604,2.50949 -5.604,5.604 z" />
    <path
   id="path526"
   style="fill:#d3d2d2;stroke:#ffffff;stroke-width:0.764549;stroke-miterlimit:3.864"
   d="m 637.88601,149.47965 c 0,2.102 1.7046,3.8066 3.80661,3.8066 2.102,0 3.80459,-1.7046 3.80459,-3.8066 0,-2.10201 -1.70259,-3.80661 -3.80459,-3.80661 -2.10201,0 -3.80661,1.7046 -3.80661,3.80661 z" />
    <path
   id="path528"
   style="fill:#d3d2d2;stroke:#ffffff;stroke-width:0.764549;stroke-miterlimit:3.864"
   d="m 614.3242,153.2923 c 0,1.13573 0.91988,2.05561 2.05359,2.05561 1.13573,0 2.0556,-0.91988 2.0556,-2.05561 0,-1.13572 -0.91987,-2.0556 -2.0556,-2.0556 -1.13371,0 -2.05359,0.91988 -2.05359,2.0556 z" />
    <path
   id="path530"
   style="fill:#d3d2d2;stroke:#ffffff;stroke-width:0.764549;stroke-miterlimit:3.864"
   d="m 647.3874,137.49701 c 0,1.13371 0.91987,2.05359 2.0556,2.05359 1.13371,0 2.05561,-0.91988 2.05561,-2.05359 0,-1.13573 -0.9219,-2.05561 -2.05561,-2.05561 -1.13573,0 -2.0556,0.91988 -2.0556,2.05561 z" />
    <path
   id="path532"
   style="fill:#d3d2d2;stroke:#ffffff;stroke-width:0.764549;stroke-miterlimit:3.864"
   d="m 609.24066,171.62937 c 0,2.22304 1.80344,4.02648 4.02648,4.02648 2.22304,0 4.02649,-1.80344 4.02649,-4.02648 0,-2.22506 -1.80345,-4.02851 -4.02649,-4.02851 -2.22304,0 -4.02648,1.80345 -4.02648,4.02851 z" />
    <path
   id="path534"
   style="fill:#d3d2d2;stroke:#ffffff;stroke-width:0.764549;stroke-miterlimit:3.864"
   d="m 607.10234,177.37861 c 0,1.5291 1.23861,2.76771 2.76771,2.76771 1.52909,0 2.76972,-1.23861 2.76972,-2.76771 0,-1.5291 -1.24063,-2.76771 -2.76972,-2.76771 -1.5291,0 -2.76771,1.23861 -2.76771,2.76771 z" />
    <path
   id="path536"
   style="fill:#d3d2d2;stroke:#ffffff;stroke-width:0.764549;stroke-miterlimit:3.864"
   d="m 615.83716,185.22583 c 0,2.22505 1.80143,4.02648 4.02648,4.02648 2.22305,0 4.02649,-1.80143 4.02649,-4.02648 0,-2.22305 -1.80344,-4.02649 -4.02649,-4.02649 -2.22505,0 -4.02648,1.80344 -4.02648,4.02649 z" />
    <path
   id="path538"
   style="fill:#d3d2d2;stroke:#ffffff;stroke-width:0.764549;stroke-miterlimit:3.864"
   d="m 613.69884,180.98954 c 0,1.5291 1.23861,2.76771 2.76771,2.76771 1.52909,0 2.7677,-1.23861 2.7677,-2.76771 0,-1.5291 -1.23861,-2.76972 -2.7677,-2.76972 -1.5291,0 -2.76771,1.24062 -2.76771,2.76972 z" />
    <path
   id="path540"
   style="fill:#d3d2d2;stroke:#ffffff;stroke-width:0.764549;stroke-miterlimit:3.864"
   d="m 617.83426,164.95217 c 0,3.09451 2.5095,5.60199 5.604,5.60199 3.09451,0 5.60199,-2.50748 5.60199,-5.60199 0,-3.0945 -2.50748,-5.604 -5.60199,-5.604 -3.0945,0 -5.604,2.5095 -5.604,5.604 z" />
    <path
   id="path542"
   style="fill:#d3d2d2;stroke:#ffffff;stroke-width:0.764549;stroke-miterlimit:3.864"
   d="m 619.60947,173.14233 c 0,2.102 1.70258,3.8066 3.80459,3.8066 2.102,0 3.8066,-1.7046 3.8066,-3.8066 0,-2.10201 -1.7046,-3.80459 -3.8066,-3.80459 -2.10201,0 -3.80459,1.70258 -3.80459,3.80459 z" />
    <path
   id="path544"
   style="fill:#d3d2d2;stroke:#ffffff;stroke-width:0.764549;stroke-miterlimit:3.864"
   d="m 658.9464,185.60911 c 0,2.22506 1.80345,4.0285 4.02649,4.0285 2.22506,0 4.02649,-1.80344 4.02649,-4.0285 0,-2.22304 -1.80143,-4.02649 -4.02649,-4.02649 -2.22304,0 -4.02649,1.80345 -4.02649,4.02649 z" />
    <path
   id="path546"
   style="fill:#d3d2d2;stroke:#ffffff;stroke-width:0.764549;stroke-miterlimit:3.864"
   d="m 654.44787,182.22008 c 0,1.5291 1.23861,2.76771 2.76771,2.76771 1.52909,0 2.7677,-1.23861 2.7677,-2.76771 0,-1.5291 -1.23861,-2.76972 -2.7677,-2.76972 -1.5291,0 -2.76771,1.24062 -2.76771,2.76972 z" />
    <path
   id="path548"
   style="fill:#d3d2d2;stroke:#ffffff;stroke-width:0.764549;stroke-miterlimit:3.864"
   d="m 645.34994,192.22578 c 0,2.22506 1.80345,4.02851 4.02851,4.02851 2.22304,0 4.02649,-1.80345 4.02649,-4.02851 0,-2.22304 -1.80345,-4.02649 -4.02649,-4.02649 -2.22506,0 -4.02851,1.80345 -4.02851,4.02649 z" />
    <path
   id="path550"
   style="fill:#d3d2d2;stroke:#ffffff;stroke-width:0.764549;stroke-miterlimit:3.864"
   d="m 650.83694,188.81658 c 0,1.5291 1.23861,2.76771 2.76771,2.76771 1.5291,0 2.7677,-1.23861 2.7677,-2.76771 0,-1.5291 -1.2386,-2.76972 -2.7677,-2.76972 -1.5291,0 -2.76771,1.24062 -2.76771,2.76972 z" />
    <path
   id="path552"
   style="fill:#d3d2d2;stroke:#ffffff;stroke-width:0.764549;stroke-miterlimit:3.864"
   d="m 680.30938,202.27183 c 0,3.09451 2.50748,5.60198 5.60199,5.60198 3.0945,0 5.604,-2.50747 5.604,-5.60198 0,-3.09451 -2.5095,-5.604 -5.604,-5.604 -3.09451,0 -5.60199,2.50949 -5.60199,5.604 z" />
    <path
   id="path554"
   style="fill:#d3d2d2;stroke:#ffffff;stroke-width:0.764549;stroke-miterlimit:3.864"
   d="m 667.25759,199.89144 c 0,2.10201 1.7046,3.80459 3.80661,3.80459 2.102,0 3.8066,-1.70258 3.8066,-3.80459 0,-2.102 -1.7046,-3.8066 -3.8066,-3.8066 -2.10201,0 -3.80661,1.7046 -3.80661,3.8066 z" />
    <path
   id="path556"
   style="fill:#d3d2d2;stroke:#ffffff;stroke-width:0.764549;stroke-miterlimit:3.864"
   d="m 642.44506,175.84548 c 0,2.102 1.7046,3.80459 3.80661,3.80459 2.102,0 3.8066,-1.70259 3.8066,-3.80459 0,-2.10201 -1.7046,-3.80661 -3.8066,-3.80661 -2.10201,0 -3.80661,1.7046 -3.80661,3.80661 z" />
    <path
   id="path558"
   style="fill:#d3d2d2;stroke:#ffffff;stroke-width:0.764549;stroke-miterlimit:3.864"
   d="m 669.51694,172.03282 c 0,1.13371 0.91988,2.05359 2.05561,2.05359 1.13573,0 2.05561,-0.91988 2.05561,-2.05359 0,-1.13573 -0.91988,-2.0556 -2.05561,-2.0556 -1.13573,0 -2.05561,0.91987 -2.05561,2.0556 z" />
    <path
   id="path560"
   style="fill:#d3d2d2;stroke:#ffffff;stroke-width:0.764549;stroke-miterlimit:3.864"
   d="m 636.43357,187.82811 c 0,1.13573 0.91988,2.05561 2.05561,2.05561 1.13573,0 2.05561,-0.91988 2.05561,-2.05561 0,-1.13572 -0.91988,-2.0556 -2.05561,-2.0556 -1.13573,0 -2.05561,0.91988 -2.05561,2.0556 z" />
    <path
   id="path562"
   style="fill:#d3d2d2;stroke:#ffffff;stroke-width:0.764549;stroke-miterlimit:3.864"
   d="m 681.80217,179.33537 c 0,2.22506 1.80143,4.02649 4.02649,4.02649 2.22304,0 4.02649,-1.80143 4.02649,-4.02649 0,-2.22304 -1.80345,-4.02649 -4.02649,-4.02649 -2.22506,0 -4.02649,1.80345 -4.02649,4.02649 z" />
    <path
   id="path564"
   style="fill:#d3d2d2;stroke:#ffffff;stroke-width:0.764549;stroke-miterlimit:3.864"
   d="m 677.06157,165.07321 c 0,1.5291 1.2386,2.76771 2.7677,2.76771 1.5291,0 2.76771,-1.23861 2.76771,-2.76771 0,-1.5291 -1.23861,-2.76771 -2.76771,-2.76771 -1.5291,0 -2.7677,1.23861 -2.7677,2.76771 z" />
    <path
   id="path566"
   style="fill:#d3d2d2;stroke:#ffffff;stroke-width:0.764549;stroke-miterlimit:3.864"
   d="m 674.80221,130.25498 c 0,2.22506 1.80345,4.02851 4.02649,4.02851 2.22506,0 4.02649,-1.80345 4.02649,-4.02851 0,-2.22304 -1.80143,-4.02649 -4.02649,-4.02649 -2.22304,0 -4.02649,1.80345 -4.02649,4.02649 z" />
    <path
   id="path568"
   style="fill:#d3d2d2;stroke:#ffffff;stroke-width:0.764549;stroke-miterlimit:3.864"
   d="m 686.92606,144.23472 c 0,1.5291 1.24062,2.76973 2.76972,2.76973 1.5291,0 2.76771,-1.24063 2.76771,-2.76973 0,-1.5291 -1.23861,-2.7677 -2.76771,-2.7677 -1.5291,0 -2.76972,1.2386 -2.76972,2.7677 z" />
    <path
   id="path570"
   style="fill:#d3d2d2;stroke:#ffffff;stroke-width:0.764549;stroke-miterlimit:3.864"
   d="m 647.40757,161.079 c 0,3.0945 2.50748,5.604 5.60198,5.604 3.09451,0 5.604,-2.5095 5.604,-5.604 0,-3.09451 -2.50949,-5.604 -5.604,-5.604 -3.0945,0 -5.60198,2.50949 -5.60198,5.604 z" />
    <path
   id="path572"
   style="fill:#d3d2d2;stroke:#ffffff;stroke-width:0.764549;stroke-miterlimit:3.864"
   d="m 628.12238,203.88565 c 0,2.10402 1.70259,3.80661 3.80459,3.80661 2.10201,0 3.80661,-1.70259 3.80661,-3.80661 0,-2.09998 -1.7046,-3.80458 -3.80661,-3.80458 -2.102,0 -3.80459,1.7046 -3.80459,3.80458 z" />
    <path
   id="path574"
   style="fill:#d3d2d2;stroke:#ffffff;stroke-width:0.764549;stroke-miterlimit:3.864"
   d="m 674.98377,228.43593 c 0,1.13573 0.91988,2.05561 2.0556,2.05561 1.13573,0 2.05561,-0.91988 2.05561,-2.05561 0,-1.13572 -0.91988,-2.0556 -2.05561,-2.0556 -1.13572,0 -2.0556,0.91988 -2.0556,2.0556 z" />
    <path
   id="path576"
   style="fill:#d3d2d2;stroke:#ffffff;stroke-width:0.764549;stroke-miterlimit:3.864"
   d="m 682.79064,232.20825 c 0,2.22304 1.80143,4.02648 4.02648,4.02648 2.22305,0 4.02649,-1.80344 4.02649,-4.02648 0,-2.22506 -1.80344,-4.02649 -4.02649,-4.02649 -2.22505,0 -4.02648,1.80143 -4.02648,4.02649 z" />
    <path
   id="path578"
   style="fill:#d3d2d2;stroke:#ffffff;stroke-width:0.764549;stroke-miterlimit:3.864"
   d="m 665.78498,234.20535 c 0,1.5291 1.23861,2.76771 2.7677,2.76771 1.5291,0 2.76771,-1.23861 2.76771,-2.76771 0,-1.5291 -1.23861,-2.7677 -2.76771,-2.7677 -1.52909,0 -2.7677,1.2386 -2.7677,2.7677 z" />
    <path
   id="path580"
   style="fill:#d3d2d2;stroke:#ffffff;stroke-width:0.764549;stroke-miterlimit:3.864"
   d="m 603.67297,215.66656 c 0,2.22506 1.80344,4.02649 4.02648,4.02649 2.22506,0 4.02851,-1.80143 4.02851,-4.02649 0,-2.22304 -1.80345,-4.02649 -4.02851,-4.02649 -2.22304,0 -4.02648,1.80345 -4.02648,4.02649 z" />
    <path
   id="path582"
   style="fill:#d3d2d2;stroke:#ffffff;stroke-width:0.764549;stroke-miterlimit:3.864"
   d="m 611.41932,205.68103 c 0,1.52708 1.24062,2.76771 2.76972,2.76771 1.52708,0 2.76771,-1.24063 2.76771,-2.76771 0,-1.5291 -1.24063,-2.76972 -2.76771,-2.76972 -1.5291,0 -2.76972,1.24062 -2.76972,2.76972 z" />
    <path
   id="path584"
   style="fill:#d3d2d2;stroke:#bdbcbc;stroke-width:0.764549;stroke-miterlimit:3.864"
   d="m 635.80822,248.24561 c 0,1.5291 1.2386,2.76771 2.7677,2.76771 1.5291,0 2.76771,-1.23861 2.76771,-2.76771 0,-1.5291 -1.23861,-2.76972 -2.76771,-2.76972 -1.5291,0 -2.7677,1.24062 -2.7677,2.76972 z" />
    <path
   id="path586"
   style="fill:#d3d2d2;stroke:#ffffff;stroke-width:0.764549;stroke-miterlimit:3.864"
   d="m 645.89461,231.74427 c 0,2.22304 1.80345,4.02649 4.02649,4.02649 2.22506,0 4.0285,-1.80345 4.0285,-4.02649 0,-2.22506 -1.80344,-4.0285 -4.0285,-4.0285 -2.22304,0 -4.02649,1.80344 -4.02649,4.0285 z" />
    <path
   id="path588"
   style="fill:#d3d2d2;stroke:#ffffff;stroke-width:0.764549;stroke-miterlimit:3.864"
   d="m 622.6959,236.70678 c 0,1.52909 1.23861,2.7677 2.76771,2.7677 1.5291,0 2.76771,-1.23861 2.76771,-2.7677 0,-1.5291 -1.23861,-2.76771 -2.76771,-2.76771 -1.5291,0 -2.76771,1.23861 -2.76771,2.76771 z" />
    <path
   id="path590"
   style="fill:#d3d2d2;stroke:#ffffff;stroke-width:0.764549;stroke-miterlimit:3.864"
   d="m 630.52295,234.6895 c 0,2.102 1.7046,3.80459 3.8066,3.80459 2.102,0 3.80661,-1.70259 3.80661,-3.80459 0,-2.10201 -1.70461,-3.80661 -3.80661,-3.80661 -2.102,0 -3.8066,1.7046 -3.8066,3.80661 z" />
    <path
   id="path592"
   style="fill:#d3d2d2;stroke:#bdbcbc;stroke-width:0.764549;stroke-miterlimit:3.864"
   d="m 645.73323,254.62021 c 0,2.10201 1.7046,3.80459 3.8066,3.80459 2.10201,0 3.80459,-1.70258 3.80459,-3.80459 0,-2.102 -1.70258,-3.8066 -3.80459,-3.8066 -2.102,0 -3.8066,1.7046 -3.8066,3.8066 z" />
    <path
   id="path594"
   style="fill:#d3d2d2;stroke:#bdbcbc;stroke-width:0.764549;stroke-miterlimit:3.864"
   d="m 622.17141,258.4127 c 0,1.13371 0.91988,2.0556 2.05561,2.0556 1.13371,0 2.05359,-0.92189 2.05359,-2.0556 0,-1.13573 -0.91988,-2.05561 -2.05359,-2.05561 -1.13573,0 -2.05561,0.91988 -2.05561,2.05561 z" />
    <path
   id="path596"
   style="fill:#d3d2d2;stroke:#ffffff;stroke-width:0.764549;stroke-miterlimit:3.864"
   d="m 655.25478,242.63758 c 0,1.13572 0.91988,2.0556 2.05561,2.0556 1.13371,0 2.05561,-0.91988 2.05561,-2.0556 0,-1.13371 -0.9219,-2.05561 -2.05561,-2.05561 -1.13573,0 -2.05561,0.9219 -2.05561,2.05561 z" />
    <path
   id="path598"
   style="fill:#d3d2d2;stroke:#bdbcbc;stroke-width:0.764549;stroke-miterlimit:3.864"
   d="m 635.70735,280.30017 c 0,2.22304 1.80345,4.02649 4.02649,4.02649 2.22506,0 4.02649,-1.80345 4.02649,-4.02649 0,-2.22506 -1.80143,-4.02851 -4.02649,-4.02851 -2.22304,0 -4.02649,1.80345 -4.02649,4.02851 z" />
    <path
   id="path600"
   style="fill:#d3d2d2;stroke:#bdbcbc;stroke-width:0.764549;stroke-miterlimit:3.864"
   d="m 623.70454,301.56229 c 0,1.52909 1.24063,2.7677 2.76771,2.7677 1.5291,0 2.76972,-1.23861 2.76972,-2.7677 0,-1.5291 -1.24062,-2.76973 -2.76972,-2.76973 -1.52708,0 -2.76771,1.24063 -2.76771,2.76973 z" />
    <path
   id="path602"
   style="fill:#d3d2d2;stroke:#bdbcbc;stroke-width:0.764549;stroke-miterlimit:3.864"
   d="m 647.62947,287.34047 c 0,1.52708 1.24063,2.76771 2.76771,2.76771 1.52909,0 2.76972,-1.24063 2.76972,-2.76771 0,-1.52909 -1.24063,-2.76972 -2.76972,-2.76972 -1.52708,0 -2.76771,1.24063 -2.76771,2.76972 z" />
    <path
   id="path604"
   style="fill:#d3d2d2;stroke:#bdbcbc;stroke-width:0.764549;stroke-miterlimit:3.864"
   d="m 665.26048,259.90548 c 0,2.568 2.07982,4.64983 4.64781,4.64983 2.568,0 4.64983,-2.08183 4.64983,-4.64983 0,-2.56598 -2.08183,-4.64781 -4.64983,-4.64781 -2.56799,0 -4.64781,2.08183 -4.64781,4.64781 z" />
    <path
   id="path606"
   style="fill:#d3d2d2;stroke:#bdbcbc;stroke-width:0.764549;stroke-miterlimit:3.864"
   d="m 629.47396,286.29149 c 0,1.52909 1.24063,2.76972 2.76972,2.76972 1.5291,0 2.76771,-1.24063 2.76771,-2.76972 0,-1.52708 -1.23861,-2.76771 -2.76771,-2.76771 -1.52909,0 -2.76972,1.24063 -2.76972,2.76771 z" />
    <path
   id="path608"
   style="fill:#d3d2d2;stroke:#bdbcbc;stroke-width:0.764549;stroke-miterlimit:3.864"
   d="m 651.98679,279.3117 c 0,2.10201 1.7046,3.80459 3.80661,3.80459 2.102,0 3.8066,-1.70258 3.8066,-3.80459 0,-2.102 -1.7046,-3.8066 -3.8066,-3.8066 -2.10201,0 -3.80661,1.7046 -3.80661,3.8066 z" />
    <path
   id="path610"
   style="fill:none;stroke:#231f20;stroke-width:2.30172;stroke-miterlimit:3.864"
   d="m 706.33228,283.2454 c 0,-6.80428 -24.8206,-12.32154 -55.41061,-12.32154 -30.59002,0 -55.38641,5.51726 -55.38641,12.32154 m -0.0928,0.0524 c 0,6.80428 24.88918,12.26909 55.4792,12.26909 30.59001,0 55.3864,-5.51524 55.3864,-12.32154 l -0.0383,-158.10019 c 0,-6.80629 -24.75806,-12.0956 -55.34807,-12.0956 -30.59002,0 -55.38641,5.51524 -55.38641,12.32154 z" />
    <path
   id="path612"
   style="fill:#d3d2d2;stroke:#bdbcbc;stroke-width:0.764549;stroke-miterlimit:3.864"
   d="m 631.71314,293.06954 c 0,2.22506 1.80345,4.02649 4.02649,4.02649 2.22506,0 4.02649,-1.80143 4.02649,-4.02649 0,-2.22304 -1.80143,-4.02648 -4.02649,-4.02648 -2.22304,0 -4.02649,1.80344 -4.02649,4.02648 z" />
    <path
   id="path614"
   style="fill:#d3d2d2;stroke-width:2.01728"
   d="m 506.15771,308.36052 c 3.27203,0 17.66531,-0.13113 31.23958,-2.16253 6.81639,-1.02074 12.93479,-2.45502 17.19529,-4.35732 2.12822,-0.95014 3.42332,-1.85993 4.11726,-2.58211 0.32277,-0.33487 0.45389,-0.56686 0.50432,-0.67983 -0.0504,-0.11297 -0.18155,-0.82103 -0.50432,-1.15792 -0.69394,-0.72218 -1.98904,-1.62996 -4.11726,-2.5801 -4.2605,-1.90229 -10.3789,-3.33859 -17.19529,-4.35732 -13.57427,-2.0314 -27.96755,-2.16454 -31.23958,-2.16454 -3.27404,0 -17.63706,0.13113 -31.18107,2.16051 -6.80025,1.01872 -12.9005,2.45503 -17.14687,4.3553 -2.12218,0.95014 -3.41324,1.85792 -4.10516,2.57809 -0.32075,0.33486 -0.45187,0.56685 -0.50231,0.68184 0,0.23803 0.25216,1.52708 3.05618,3.00574 11.05267,5.83397 36.31303,7.26019 49.87923,7.26019" />
    <path
   id="path616"
   style="fill:#231f20;stroke:#231f20;stroke-width:1.53313;stroke-miterlimit:3.864"
   d="m 459.15512,298.77844 c 0,1.92852 6.90111,3.49393 15.41201,3.49393 8.51292,0 15.41201,-1.56541 15.41201,-3.49393 0,-1.93053 -6.89909,-3.49594 -15.41201,-3.49594 -8.5109,0 -15.41201,1.56541 -15.41201,3.49594 z" />
    <path
   id="path618"
   style="fill:#a7a5a6;stroke-width:2.01728"
   d="m 493.91283,302.3692 h 11.44604 l 3.15906,-8.25269 h -11.44604 z m -8.93049,0 h 5.94492 l 3.15906,-8.25269 h -5.9429 z m 26.41021,-7.52243 -2.60027,6.79217 c -0.61729,1.61181 -3.00171,2.91901 -5.32562,2.91901 h -17.85291 c -2.32391,0 -3.70574,-1.3072 -3.08846,-2.91901 l 2.60028,-6.79217 c 0.61728,-1.61383 2.99969,-2.92102 5.32359,-2.92102 h 17.85494 c 2.3239,0 3.70574,1.30719 3.08845,2.92102" />
    <path
   id="path620"
   style="fill:none;stroke:#231f20;stroke-width:0.875499;stroke-miterlimit:3.864"
   d="m 493.91283,302.3692 h 11.44604 l 3.15906,-8.25269 h -11.44604 z m -8.93049,0 h 5.94492 l 3.15906,-8.25269 h -5.9429 z m 26.41021,-7.52243 -2.60027,6.79217 c -0.61729,1.61181 -3.00171,2.91901 -5.32562,2.91901 h -17.85291 c -2.32391,0 -3.70574,-1.3072 -3.08846,-2.91901 l 2.60028,-6.79217 c 0.61728,-1.61383 2.99969,-2.92102 5.32359,-2.92102 h 17.85494 c 2.3239,0 3.70574,1.30719 3.08845,2.92102 z" />
    <path
   id="path622"
   style="fill:#ffffff;stroke:#231f20;stroke-width:2.30172;stroke-miterlimit:3.864"
   d="m 450.66238,163.0761 c 68.13762,-0.28847 110.44399,37.10381 110.44399,37.10381 v 66.84858 c 0,0 -42.30637,-37.39227 -110.44399,-37.1038 z" />
    <path
   id="path624"
   style="fill:#231f20;stroke-width:2.01728"
   d="m 458.36838,180.90885 c 0,-5.50717 4.0628,-7.46797 9.99562,-6.84463 7.67373,0.80691 10.51204,5.08354 10.51204,11.99878 0,5.32561 -1.16196,7.34491 -7.48007,12.9247 -5.93282,5.25299 -6.57835,7.02013 -6.57835,10.01982 0,3.42736 1.22651,4.96453 3.86914,5.24291 2.51555,0.26426 3.61093,-1.08933 3.61093,-3.59882 v -3.4899 l 6.06192,0.63746 v 4.16165 c 0,3.12073 -0.77463,4.57115 -1.87001,5.43455 -1.54726,1.18414 -4.0628,2.02131 -7.54463,1.65618 -7.0282,-0.74034 -10.57659,-4.23426 -10.57659,-11.45612 0,-5.99737 3.41929,-9.18871 7.54664,-12.67255 6.70544,-5.59996 6.89909,-6.80226 6.89909,-10.53624 0,-2.87664 -0.83918,-5.16827 -4.25645,-5.52735 -2.5801,-0.27233 -3.74004,1.44236 -3.74004,4.37952 v 3.61294 l -6.44924,-0.6778 v -5.2651" />
    <path
   id="path626"
   style="fill:#231f20;fill-rule:evenodd;stroke-width:2.01728"
   d="m 489.03102,211.36976 c 0,4.34522 1.54927,6.72157 4.45011,7.39332 2.96742,0.68386 4.51467,-0.97838 4.51467,-5.3236 v -23.1987 c 0,-3.7945 -1.80546,-6.23137 -4.51467,-6.85673 -2.64263,-0.60922 -4.45011,0.9925 -4.45011,4.787 z m -6.44722,-24.3183 c 0,-6.85673 2.64263,-10.34662 10.89733,-8.44029 8.83367,2.03947 10.9619,7.97834 10.9619,14.15928 v 22.34136 c 0,6.85471 -2.64264,10.3446 -10.9619,8.42415 -8.76911,-2.02534 -10.89733,-7.96219 -10.89733,-14.14515 v -22.33935" />
    <path
   id="path628"
   style="fill:#231f20;fill-rule:evenodd;stroke-width:2.01728"
   d="m 514.81184,224.56276 2.5801,1.04092 c 5.48095,2.21497 6.18901,0.29855 6.18901,-6.24953 v -15.18003 c 0,-7.589 -0.90172,-10.34258 -5.6746,-12.26909 l -3.09451,-1.25071 z m -6.44722,-41.65479 9.35008,3.77635 c 10.18726,4.11726 12.31549,8.52703 12.31549,19.85002 v 13.15871 c 0,12.8541 -0.83919,15.82152 -11.28466,11.60137 l -10.38091,-4.19594 v -44.19051" />
    <path
   id="path630"
   style="fill:#231f20;fill-rule:evenodd;stroke-width:2.01728"
   d="m 530.00195,191.70129 6.44924,3.7239 2.12823,12.48897 10.05815,5.80774 2.12823,-10.03192 6.44924,3.72188 -9.47919,38.71964 -7.48007,-4.31899 z m 13.60654,45.55822 0.12911,0.0746 3.99825,-18.99066 -8.19016,-4.7285 4.0628,23.64452" />
    <path
   id="path632"
   style="fill:#d3d2d2;stroke:#ffffff;stroke-width:0.764549;stroke-miterlimit:3.864"
   d="m 475.39421,301.52194 c 0,2.22304 1.80345,4.02649 4.02851,4.02649 2.22304,0 4.02649,-1.80345 4.02649,-4.02649 0,-2.22506 -1.80345,-4.0285 -4.02649,-4.0285 -2.22506,0 -4.02851,1.80344 -4.02851,4.0285 z" />
    <path
   id="path634"
   style="fill:#d3d2d2;stroke:#bdbcbc;stroke-width:0.764549;stroke-miterlimit:3.864"
   d="m 457.90441,324.78117 c 0,1.52708 1.24062,2.7677 2.76972,2.7677 1.5291,0 2.76771,-1.24062 2.76771,-2.7677 0,-1.5291 -1.23861,-2.76973 -2.76771,-2.76973 -1.5291,0 -2.76972,1.24063 -2.76972,2.76973 z" />
    <path
   id="path636"
   style="fill:#d3d2d2;stroke:#ffffff;stroke-width:0.764549;stroke-miterlimit:3.864"
   d="m 463.67382,309.51037 c 0,1.52909 1.24063,2.76972 2.76973,2.76972 1.5291,0 2.7677,-1.24063 2.7677,-2.76972 0,-1.5291 -1.2386,-2.76771 -2.7677,-2.76771 -1.5291,0 -2.76973,1.23861 -2.76973,2.76771 z" />
    <path
   id="path638"
   style="fill:#d3d2d2;stroke:#bdbcbc;stroke-width:0.764549;stroke-miterlimit:3.864"
   d="m 465.913,316.28842 c 0,2.22506 1.80345,4.02649 4.02649,4.02649 2.22506,0 4.02649,-1.80143 4.02649,-4.02649 0,-2.22304 -1.80143,-4.02649 -4.02649,-4.02649 -2.22304,0 -4.02649,1.80345 -4.02649,4.02649 z" />
    <path
   id="path640"
   style="fill:#d3d2d2;stroke:#bdbcbc;stroke-width:0.764549;stroke-miterlimit:3.864"
   d="m 466.6594,334.86756 c 0,1.5291 1.24062,2.7677 2.76972,2.7677 1.5291,0 2.76771,-1.2386 2.76771,-2.7677 0,-1.5291 -1.23861,-2.76771 -2.76771,-2.76771 -1.5291,0 -2.76972,1.23861 -2.76972,2.76771 z" />
    <path
   id="path642"
   style="fill:#d3d2d2;stroke:#ffffff;stroke-width:0.764549;stroke-miterlimit:3.864"
   d="m 468.37408,298.75827 c 0,1.13573 0.91988,2.05561 2.05561,2.05561 1.13371,0 2.05561,-0.91988 2.05561,-2.05561 0,-1.13573 -0.9219,-2.05561 -2.05561,-2.05561 -1.13573,0 -2.05561,0.91988 -2.05561,2.05561 z" />
  </g>
<metadata
   id="metadata15412"><rdf:RDF><cc:Work><dc:format>image/svg+xml</dc:format><dc:type
         rdf:resource="http://purl.org/dc/dcmitype/StillImage" /><cc:license
         rdf:resource="http://creativecommons.org/publicdomain/zero/1.0/" /><dc:publisher><cc:Agent
           rdf:about="http://openclipart.org/"><dc:title>Openclipart</dc:title></cc:Agent></dc:publisher><dc:title>58294main_The.Brain.in.Space-page-163-soda-chemistry</dc:title><dc:date>2010-04-06T07:38:26</dc:date><dc:description>This is clipart converted and broken apart that has been released into the public domain because the document says so, and its from NASA, a USA government agency. The publication is called &quot;The Brain in Space:&quot;\n\nhttp://www.nasa.gov/audience/foreducators/topnav/materials/listbytype/The.Brain.in.Space.html</dc:description><dc:source>https://openclipart.org/detail/38563/-by-rejon-38563</dc:source><dc:creator><cc:Agent><dc:title>rejon</dc:title></cc:Agent></dc:creator><dc:subject><rdf:Bag><rdf:li>astronomy</rdf:li><rdf:li>brain</rdf:li><rdf:li>bubbles</rdf:li><rdf:li>carbonation</rdf:li><rdf:li>converted</rdf:li><rdf:li>government</rdf:li><rdf:li>nasa</rdf:li><rdf:li>science</rdf:li><rdf:li>soda</rdf:li><rdf:li>space</rdf:li><rdf:li>usa</rdf:li></rdf:Bag></dc:subject></cc:Work><cc:License
       rdf:about="http://creativecommons.org/publicdomain/zero/1.0/"><cc:permits
         rdf:resource="http://creativecommons.org/ns#Reproduction" /><cc:permits
         rdf:resource="http://creativecommons.org/ns#Distribution" /><cc:permits
         rdf:resource="http://creativecommons.org/ns#DerivativeWorks" /></cc:License></rdf:RDF></metadata></svg>
