<?xml version="1.0" encoding="UTF-8" standalone="no"?>
<!-- Created with Inkscape (http://www.inkscape.org/) -->

<svg
   width="125mm"
   height="88mm"
   viewBox="0 0 125 88"
   version="1.1"
   id="svg5"
   inkscape:version="1.2.2 (732a01da63, 2022-12-09)"
   xml:space="preserve"
   sodipodi:docname="spade.svg"
   xmlns:inkscape="http://www.inkscape.org/namespaces/inkscape"
   xmlns:sodipodi="http://sodipodi.sourceforge.net/DTD/sodipodi-0.dtd"
   xmlns="http://www.w3.org/2000/svg"
   xmlns:svg="http://www.w3.org/2000/svg"><sodipodi:namedview
     id="namedview7"
     pagecolor="#f0f0f0"
     bordercolor="#ffffff"
     borderopacity="1"
     inkscape:showpageshadow="0"
     inkscape:pageopacity="0"
     inkscape:pagecheckerboard="0"
     inkscape:deskcolor="#505050"
     inkscape:document-units="mm"
     showgrid="true"
     inkscape:zoom="1.436055"
     inkscape:cx="287.94162"
     inkscape:cy="110.37182"
     inkscape:current-layer="layer1"><inkscape:grid
       type="xygrid"
       id="grid132"
       dotted="true"
       empspacing="10"
       units="mm"
       spacingx="1"
       spacingy="1"
       originx="-35.011659"
       originy="-110.66848" /></sodipodi:namedview><defs
     id="defs2" /><g
     inkscape:label="Layer 1"
     inkscape:groupmode="layer"
     id="layer1"
     transform="translate(-35.011658,-110.66848)"><g
       id="g244"
       transform="matrix(1.1470474,0,0,1.1470474,2.2599603,-15.215178)"><path
         style="display:inline;fill:#e6e4cf;fill-opacity:1;stroke-width:0.0846667"
         d="m 118.55649,185.64128 c -1.64896,-0.22002 -3.60999,-0.65779 -6.51933,-1.45531 -1.85993,-0.50985 -2.14672,-0.61447 -3.38667,-1.23551 -0.74507,-0.37318 -2.35002,-1.14407 -3.56657,-1.71311 -3.70153,-1.73137 -6.207622,-3.09075 -17.007429,-9.22538 -3.048758,-1.73178 -8.462228,-5.15535 -12.743578,-8.05925 -4.263406,-2.89172 -4.741253,-3.26044 -5.073273,-3.91471 -0.132323,-0.26075 -0.305721,-0.5998 -0.385328,-0.75345 -0.20926,-0.40389 -0.257267,-1.45462 -0.09942,-2.17598 0.07133,-0.32596 0.509169,-1.47903 0.972979,-2.56237 l 0.843292,-1.96971 -0.510426,-0.57029 c -0.280735,-0.31366 -0.535473,-0.5985 -0.566084,-0.63297 -0.03061,-0.0345 -0.171421,-0.0295 -0.312907,0.0111 -0.19152,0.0549 -0.411712,0.0248 -0.861769,-0.11788 -0.640202,-0.20298 -0.450161,-0.0603 -3.377741,-2.53675 l -0.86292,-0.72996 -0.503967,0.13059 c -0.704616,0.18258 -0.83164,0.16761 -1.226702,-0.14458 -2.100804,-1.66012 -7.843979,-7.05387 -15.889207,-14.9225 -3.285215,-3.2131 -7.42013,-7.23509 -9.188701,-8.93776 l -3.215582,-3.09576 -0.02524,-0.62618 c -0.03183,-0.78975 0.146065,-1.68478 0.615922,-3.09892 0.809245,-2.43559 1.453458,-3.4356 3.047892,-4.73121 1.641001,-1.33345 3.362181,-1.89867 5.794734,-1.90295 l 0.881978,-0.002 1.107688,1.08447 c 0.609228,0.59645 1.717288,1.65206 2.462354,2.34578 7.490414,6.97422 23.448274,22.95007 24.270729,24.29808 0.201348,0.33001 0.196234,0.60404 -0.01876,1.00517 -0.0959,0.17893 -0.162575,0.33391 -0.148166,0.34441 0.193916,0.14129 3.488178,3.23717 3.652888,3.43292 0.197734,0.23499 0.225643,0.34201 0.225643,0.86528 v 0.59712 l 0.904251,1.02622 c 0.497337,0.56442 0.928913,1.05584 0.959057,1.09204 0.03014,0.0362 2.699807,-1.10085 5.932583,-2.52678 3.232777,-1.42594 6.236491,-2.7212 6.674922,-2.87837 1.032325,-0.37007 1.520869,-0.41594 2.762017,-0.25934 1.660858,0.20956 2.07208,0.44231 4.365853,2.47105 0.687593,0.60815 2.275428,1.8906 3.528518,2.84989 1.2531,0.95928 4.59888,3.56504 7.43508,5.79056 2.83619,2.22552 7.27219,5.66747 9.85776,7.64878 2.58557,1.98131 5.4687,4.22712 6.40696,4.99068 1.67149,1.36027 1.72324,1.41207 2.56369,2.5665 0.95456,1.31116 1.55776,2.36269 2.20957,3.85178 0.66125,1.51065 0.80957,2.00967 1.22249,4.11304 0.37023,1.88591 0.37988,1.97666 0.37863,3.55915 -0.001,1.36983 -0.0401,1.87559 -0.24966,3.23257 l -0.24838,1.60867 -0.34978,0.31384 c -0.23047,0.2068 -0.65182,0.43051 -1.23541,0.65593 -1.04788,0.40475 -1.5066,0.51305 -3.60142,0.85028 -1.50848,0.24283 -1.68955,0.25384 -4.02167,0.24449 -2.01888,-0.008 -2.69148,-0.0431 -3.8814,-0.20185 z"
         id="path200" /><path
         style="display:inline;fill:#ffdb00;fill-opacity:1;stroke-width:0.0846667"
         d="m 118.72582,185.63427 c -1.7273,-0.22589 -3.65225,-0.64724 -6.604,-1.44553 l -2.032,-0.54956 -2.58233,-1.25634 c -1.42028,-0.69099 -3.02024,-1.45749 -3.55546,-1.70333 -1.64451,-0.75536 -6.105469,-3.15223 -10.414539,-5.59572 -2.258483,-1.2807 -4.868333,-2.75991 -5.799666,-3.28714 -3.744405,-2.11973 -14.403303,-9.04708 -16.531605,-10.74409 -0.640778,-0.51093 -0.730384,-0.62112 -1.076837,-1.32411 -0.725302,-1.47173 -0.651932,-2.09047 0.599712,-5.05749 l 0.885451,-2.09895 -0.568364,-0.63254 c -0.537152,-0.5978 -0.583801,-0.62964 -0.849482,-0.5798 -0.167848,0.0315 -0.50566,-0.008 -0.838391,-0.0981 -0.524839,-0.14207 -0.664043,-0.24148 -2.391878,-1.70809 -1.338583,-1.13621 -1.880389,-1.54753 -2.00394,-1.52132 -0.09313,0.0198 -0.404635,0.0863 -0.692227,0.14798 l -0.522893,0.11207 -0.493107,-0.41678 c -3.172661,-2.68158 -7.003274,-6.28577 -15.648439,-14.72349 -3.6322,-3.54505 -7.951788,-7.7394 -9.599084,-9.32078 l -2.995083,-2.87524 0.05006,-0.84667 c 0.115778,-1.95817 1.326188,-5.12707 2.43254,-6.3685 1.07345,-1.2045 2.442307,-2.13758 3.808942,-2.59634 1.190202,-0.39954 3.642622,-0.61037 4.126663,-0.35476 0.125746,0.0664 0.495328,0.39385 0.821295,0.72766 0.325967,0.33381 1.449917,1.41274 2.497667,2.39762 9.473354,8.90496 23.971635,23.44232 24.509299,24.57536 0.144731,0.305 0.111342,0.59641 -0.113093,0.98708 -0.127943,0.22271 -0.124491,0.24263 0.075,0.43281 0.115018,0.10964 0.975386,0.90697 1.91193,1.77184 1.832301,1.69206 1.809953,1.66065 1.811728,2.54665 8.64e-4,0.43012 0.0087,0.44279 0.894397,1.44991 0.491439,0.5588 0.92653,1.04953 0.966868,1.09051 0.04197,0.0426 2.584121,-1.03227 5.942436,-2.51265 3.228003,-1.42294 6.192946,-2.70649 6.588763,-2.85234 1.090768,-0.40192 1.470872,-0.44185 2.747601,-0.28862 1.728638,0.20746 2.218731,0.48067 4.491399,2.50378 0.651933,0.58035 2.099737,1.75475 3.217337,2.60977 1.1176,0.85503 4.7371,3.67309 8.04333,6.26235 3.30624,2.58927 7.93539,6.18064 10.287,7.98082 2.35162,1.80018 4.94242,3.81835 5.75734,4.48484 1.36814,1.11894 1.54779,1.29932 2.34474,2.35433 0.95044,1.2582 1.63707,2.45253 2.33615,4.06355 0.64475,1.48583 0.76511,1.90044 1.19995,4.13343 0.36344,1.86639 0.38448,2.05299 0.38448,3.40988 0,1.16981 -0.0478,1.75235 -0.25837,3.1479 l -0.25838,1.71246 -0.34669,0.30932 c -0.2319,0.20691 -0.64391,0.42107 -1.24445,0.64686 -1.11255,0.41831 -1.26139,0.45336 -3.48389,0.82047 -1.76056,0.29081 -1.85414,0.29745 -4.05302,0.28801 -1.83457,-0.008 -2.53272,-0.0465 -3.77486,-0.20898 z m 6.77334,-0.92122 c 2.21017,-0.24588 3.07601,-0.43824 4.27299,-0.94932 0.49042,-0.20939 0.8988,-0.38775 0.90752,-0.39634 0.0744,-0.0733 0.53449,-3.43517 0.53449,-3.90512 0,-1.56406 -0.47147,-4.76048 -0.8994,-6.09769 -0.70968,-2.21762 -1.87792,-4.35244 -3.28431,-6.00165 -0.66718,-0.78237 -7.72347,-6.41142 -17.61796,-14.05446 -6.28407,-4.85416 -9.480913,-7.37345 -11.345332,-8.94075 -1.256694,-1.05643 -1.93285,-1.53158 -2.836333,-1.99316 -0.402229,-0.20549 -0.590158,-0.24325 -1.37949,-0.27713 -1.123388,-0.0482 -2.062335,0.093 -2.68451,0.40382 -0.256117,0.12794 -3.188043,1.40533 -6.515392,2.83863 -4.438357,1.91189 -6.059466,2.57468 -6.086291,2.48836 -0.02011,-0.0647 -0.555283,-0.64467 -1.189274,-1.28879 l -1.15271,-1.17113 -0.938936,0.0283 c -0.930527,0.0281 -0.943389,0.0313 -1.436257,0.3585 -0.273527,0.18162 -0.944732,0.77452 -1.491566,1.31756 -0.87702,0.87094 -1.033769,1.07157 -1.329484,1.70162 -0.577522,1.23048 -0.595288,1.15259 0.538329,2.3603 0.81923,0.87278 0.974914,1.08142 0.974914,1.30656 0,0.14735 -0.400829,1.26908 -0.890731,2.49273 -1.048447,2.61875 -1.186687,3.20748 -0.930276,3.96183 0.305279,0.89811 0.76862,1.28474 4.715781,3.93501 5.463221,3.66821 10.192568,6.67552 13.703706,8.71394 9.989056,5.79924 18.910042,10.38854 22.517522,11.58389 2.45215,0.81254 5.32356,1.35216 8.636,1.62297 2.49634,0.2041 3.06419,0.1999 5.207,-0.0385 z M 89.889769,162.62077 c -0.0194,-0.0184 -0.438895,-0.0765 -0.932205,-0.12915 -2.355291,-0.2512 -4.604863,-1.10656 -7.993073,-3.03921 -2.16826,-1.23679 -4.093901,-2.59098 -5.353768,-3.76498 -0.36166,-0.33701 -1.081821,-0.94474 -1.600356,-1.35052 -0.946562,-0.74072 -1.091443,-0.93428 -0.98991,-1.32254 0.04504,-0.17222 0.320127,-0.35079 0.540414,-0.35079 0.04309,0 0.54213,0.42133 1.108968,0.93628 0.566836,0.51496 1.960649,1.63387 3.097361,2.48647 2.888818,2.16678 4.751719,3.21876 8.065625,4.55465 1.315102,0.53014 1.976954,0.71012 3.217333,0.8749 0.535517,0.0711 1.038258,0.14874 1.117202,0.17243 0.228407,0.0685 0.27853,-0.45179 0.119531,-1.24088 -0.166099,-0.82433 -0.277229,-1.04897 -1.098546,-2.22062 -0.903897,-1.28945 -1.851696,-2.34221 -4.215634,-4.68248 -1.993255,-1.9733 -2.986296,-2.86904 -4.614096,-4.16198 -0.794086,-0.63073 -0.87579,-0.73224 -0.87579,-1.08812 0,-0.19957 0.252076,-0.37198 0.543875,-0.37198 0.2652,0 3.76163,2.95964 5.499573,4.65524 3.248332,3.1692 5.301348,5.90696 5.761649,7.68331 0.241901,0.93353 0.09561,1.97806 -0.317575,2.26747 -0.15943,0.11167 -0.985847,0.18241 -1.080578,0.0925 z"
         id="path196" /><path
         style="display:inline;fill:#b45819;fill-opacity:1;stroke-width:0.0846667"
         d="m 64.668315,148.0775 c -0.98534,0.20352 -0.869786,0.26341 -2.880801,-1.49291 -2.677536,-2.33842 -7.160036,-6.59423 -14.689666,-13.94678 -3.678767,-3.59224 -7.90149,-7.69023 -9.383829,-9.10664 l -2.695162,-2.57527 0.04596,-0.762 c 0.08127,-1.34751 0.777759,-3.63046 1.603175,-5.2549 0.781396,-1.5378 2.95552,-3.26499 4.833128,-3.83958 0.731704,-0.22392 2.62091,-0.45913 3.326711,-0.41419 l 0.532897,0.0339 0.953227,0.93003 c 0.524275,0.51152 1.829396,1.74799 2.900269,2.7477 5.13731,4.79596 19.921553,19.44345 22.556417,22.34777 1.63427,1.80141 1.734805,1.98965 1.410171,2.64039 -6.742276,2.03297 -8.512497,8.69248 -8.512497,8.69248 z"
         id="path194"
         sodipodi:nodetypes="cssscsssccscscc" /><path
         style="display:inline;fill:#000000;fill-opacity:1;stroke-width:0.0846667"
         d="m 118.42949,185.55873 c -1.62245,-0.22218 -3.23836,-0.5855 -6.30767,-1.4182 -2.17831,-0.59097 -2.21992,-0.60653 -3.97933,-1.48731 -0.9779,-0.48955 -2.52095,-1.23724 -3.429,-1.66154 -3.24436,-1.51597 -6.570319,-3.32465 -16.197379,-8.80823 -3.602335,-2.0519 -8.714495,-5.27368 -13.202109,-8.32023 -4.508814,-3.06095 -4.659002,-3.18199 -5.149507,-4.14996 l -0.376004,-0.74201 0.0061,-1.016 0.0061,-1.016 0.904034,-2.12018 c 0.497224,-1.1661 0.90404,-2.16919 0.90404,-2.22909 0,-0.0599 -0.25485,-0.38697 -0.566334,-0.72682 -0.535082,-0.58381 -0.580364,-0.61389 -0.820576,-0.54499 -0.184083,0.0528 -0.41745,0.0243 -0.845674,-0.10323 -0.550731,-0.16401 -0.705474,-0.27258 -2.248591,-1.5777 -0.911438,-0.77085 -1.734498,-1.47084 -1.829024,-1.55553 -0.15933,-0.14273 -0.205647,-0.14497 -0.635,-0.0307 -0.691186,0.18394 -0.903634,0.15935 -1.294978,-0.14991 -1.862023,-1.47142 -7.312525,-6.53934 -12.54549,-11.66489 -5.800504,-5.68144 -9.587106,-9.36843 -12.467167,-12.13919 l -3.2385,-3.11559 v -0.74455 c 0,-0.91296 0.312374,-2.22373 0.869085,-3.64684 0.815523,-2.0847 1.302678,-2.77914 2.792308,-3.98046 1.345731,-1.08528 2.524542,-1.57306 4.368541,-1.80769 1.221658,-0.15544 1.773693,-0.16701 2.103388,-0.0441 0.13109,0.0489 0.733645,0.57587 1.339012,1.17109 0.605366,0.59523 1.710266,1.64951 2.455333,2.34285 7.136995,6.64148 22.464097,21.95665 24.025233,24.00652 0.277733,0.36468 0.293696,0.6833 0.05642,1.12602 -0.09644,0.17994 -0.144067,0.35466 -0.105833,0.38826 0.903536,0.7942 3.6925,3.44559 3.763074,3.57746 0.05331,0.0996 0.120364,0.45636 0.149015,0.7928 l 0.05209,0.61169 0.925496,1.05797 c 0.793868,0.90749 0.950411,1.04831 1.100667,0.99008 0.09634,-0.0373 2.78502,-1.2188 5.974837,-2.62546 3.189817,-1.40667 6.117057,-2.67011 6.504977,-2.80766 0.935939,-0.33185 1.350377,-0.37043 2.579455,-0.24013 1.681256,0.17823 2.16206,0.44927 4.504568,2.53938 0.605367,0.54014 1.996013,1.66536 3.090333,2.50048 1.09432,0.83513 4.61857,3.57833 7.83167,6.096 3.2131,2.51767 7.7851,6.06384 10.16,7.88038 2.3749,1.81653 5.09211,3.93296 6.03826,4.70317 1.68815,1.37423 1.73663,1.42274 2.59651,2.59787 0.93925,1.2836 1.54938,2.3554 2.22487,3.90837 0.60566,1.39242 0.81454,2.10153 1.20147,4.07897 0.33419,1.70788 0.3425,1.79369 0.34021,3.51366 -0.002,1.51234 -0.0364,1.97922 -0.2417,3.2834 l -0.23935,1.52037 -0.35082,0.30214 c -0.40365,0.34765 -1.89002,0.93434 -2.89112,1.14116 -2.27437,0.46988 -3.186,0.55401 -5.90096,0.54453 -2.20411,-0.008 -2.8244,-0.0387 -4.00504,-0.20042 z m 7.21614,-0.80891 c 2.00235,-0.22234 2.93397,-0.433 4.12588,-0.93296 l 0.97033,-0.40702 0.20021,-1.21263 c 0.38502,-2.33214 0.33158,-4.66555 -0.16255,-7.09696 -0.28525,-1.40359 -0.43797,-1.90867 -1.02395,-3.38633 -0.53506,-1.34922 -1.65234,-3.17922 -2.68263,-4.39388 -0.62974,-0.74243 -7.85576,-6.50092 -17.91443,-14.27618 -6.5541,-5.06626 -9.10581,-7.07816 -11.006665,-8.67818 -1.341873,-1.12952 -1.861484,-1.49429 -2.857406,-2.00594 l -0.613928,-0.31541 -1.185333,0.004 c -0.832683,0.002 -1.31128,0.0431 -1.608667,0.13649 -0.232833,0.0731 -3.242733,1.35669 -6.688666,2.85232 -3.445934,1.49564 -6.351059,2.74183 -6.455834,2.76931 -0.124267,0.0326 -0.1905,0.0123 -0.1905,-0.0582 0,-0.0595 -0.523875,-0.63905 -1.164166,-1.28783 l -1.164167,-1.1796 -0.909777,0.0408 c -0.903444,0.0405 -0.91374,0.0434 -1.478853,0.41081 -0.312992,0.20352 -1.00995,0.80818 -1.548798,1.3437 -1.107252,1.10041 -1.563451,1.82553 -1.656332,2.6327 l -0.05266,0.45763 0.939377,0.98708 c 0.863357,0.90721 0.939375,1.01354 0.939375,1.31392 0,0.21811 -0.299185,1.07271 -0.899356,2.56892 -0.843255,2.10223 -0.901881,2.28698 -0.939819,2.96175 -0.0496,0.88216 0.09147,1.26558 0.717687,1.95077 0.916634,1.00294 12.250269,8.42839 17.673822,11.57933 10.003354,5.8117 19.168896,10.52384 22.732996,11.68738 4.17254,1.36217 9.83274,1.98692 13.90481,1.53476 z M 90.142739,162.61794 c -0.01997,-0.02 -0.454945,-0.0814 -0.966611,-0.13651 -1.991623,-0.21451 -3.615556,-0.73036 -5.925637,-1.88231 -3.185567,-1.58853 -5.853574,-3.32166 -7.577666,-4.92245 -0.34925,-0.32427 -1.063733,-0.92864 -1.587738,-1.34304 -0.951637,-0.75259 -1.111032,-0.96452 -0.996597,-1.32507 0.07417,-0.23369 0.418178,-0.31295 0.658785,-0.15179 0.104436,0.0699 0.533084,0.44641 0.952554,0.83658 0.743917,0.69195 2.655326,2.1887 4.444329,3.48019 2.179561,1.57343 6.25924,3.5606 8.479134,4.13009 0.619303,0.15888 2.233801,0.41659 2.622288,0.41858 0.218492,0.001 0.251903,-0.52175 0.08273,-1.29475 -0.184871,-0.84476 -0.319886,-1.11543 -1.13997,-2.28532 -0.894897,-1.27661 -1.84814,-2.33726 -4.131732,-4.5973 -1.95221,-1.93207 -2.930024,-2.81491 -4.620575,-4.17178 -0.923809,-0.74148 -1.117607,-1.03654 -0.822516,-1.25232 0.08562,-0.0626 0.243637,-0.11382 0.351155,-0.11382 0.211215,0 2.222963,1.59038 3.920814,3.09958 1.074554,0.95516 3.401213,3.29188 4.458812,4.47808 0.717133,0.80434 2.034868,2.7089 2.468254,3.56743 0.64792,1.28352 0.703303,2.87673 0.116058,3.33866 -0.183586,0.14441 -0.687183,0.22597 -0.785876,0.12727 z M 69.629582,150.10242 c -0.086,-0.46628 0.119289,-1.00865 0.894313,-2.36273 0.35863,-0.62658 0.561397,-0.85856 1.397787,-1.59919 0.937608,-0.83025 1.775737,-1.41699 2.227143,-1.55913 0.116416,-0.0367 0.592666,-0.0905 1.058333,-0.11972 l 0.846667,-0.0531 0.02569,-0.30761 c 0.02232,-0.26725 -0.01627,-0.34219 -0.294116,-0.57121 -0.450701,-0.37151 -0.71096,-0.39465 -1.698211,-0.15098 -0.732477,0.18079 -0.967487,0.28598 -1.645283,0.73646 -1.461738,0.97152 -2.552503,2.21097 -3.292635,3.74147 -0.29777,0.61575 -0.334443,0.76083 -0.334443,1.32307 0,0.5465 0.02907,0.6696 0.215975,0.91465 0.145788,0.19113 0.286425,0.28315 0.432756,0.28315 0.19854,0 0.21251,-0.0231 0.166026,-0.27516 z m -1.251769,-2.77284 c 0.47206,-1.0128 2.067989,-2.93785 3.016442,-3.63852 0.554583,-0.40969 1.640505,-0.95738 2.416072,-1.21855 0.329768,-0.11105 0.607509,-0.2246 0.617204,-0.25233 0.02464,-0.0705 -1.993559,-1.83336 -2.098298,-1.83285 -0.09099,4.2e-4 -1.385596,0.47935 -1.944212,0.71922 -0.184141,0.0791 -0.565141,0.31939 -0.846666,0.53404 -1.492569,1.13803 -2.130931,1.88889 -2.874605,3.38117 -0.463236,0.92955 -0.931794,2.1615 -0.880343,2.31463 0.01416,0.0421 0.463901,0.455 0.999418,0.91745 l 0.973666,0.84081 0.22187,-0.69203 c 0.122029,-0.38062 0.301781,-0.86349 0.399452,-1.07304 z m -3.608866,-0.16038 c 0.03325,-0.0295 0.157284,-0.3878 0.275632,-0.79619 0.389981,-1.34574 0.726976,-1.97764 1.748443,-3.27849 1.090921,-1.38929 3.134462,-2.97245 4.264171,-3.3035 0.847203,-0.24826 1.120167,-0.39659 1.265337,-0.68759 0.129508,-0.25961 0.126951,-0.28044 -0.05999,-0.48867 -3.149524,-3.50823 -17.059468,-17.33237 -25.164713,-25.00949 l -2.116667,-2.00486 -0.61439,-8e-5 c -0.721712,-9e-5 -2.126893,0.19802 -2.607704,0.36766 -0.742758,0.26206 -1.897217,0.91358 -2.536799,1.43164 -0.974963,0.78972 -1.603153,1.59153 -2.248482,2.86991 -0.274863,0.54451 -0.858619,2.93137 -0.961935,3.93316 l -0.0533,0.51678 0.362637,0.32324 c 1.22346,1.09055 6.889741,6.50755 12.21212,11.67485 6.2268,6.04538 14.015417,13.3917 15.027522,14.17415 0.479265,0.37052 0.582302,0.41634 0.846666,0.3765 0.165548,-0.0249 0.3282,-0.0695 0.361451,-0.099 z"
         id="path192" /><path
         style="display:inline;fill:#ffffff;fill-opacity:1;stroke-width:0.0846667"
         d="m 128.02485,183.19761 c 1.15915,-0.34393 1.18194,-0.4056 0.20481,-0.5545 -1.82028,-0.27737 -5.09382,-1.2086 -7.1755,-2.04123 -2.75164,-1.10059 -4.97328,-2.06009 -6.24268,-2.69614 -3.07142,-1.53899 -5.36099,-2.7807 -6.83832,-3.70866 -0.88477,-0.55575 -2.19922,-1.36952 -2.921,-1.80837 -2.84494,-1.72978 -9.352359,-6.29118 -12.228741,-8.57179 -1.173283,-0.93027 -1.728157,-1.32067 -1.820334,-1.28078 -0.600276,0.25982 -3.383028,-0.11328 -4.91626,-0.65915 -0.395817,-0.14092 -0.814917,-0.27661 -0.931334,-0.30154 -0.558089,-0.11948 8.405369,6.50611 13.557209,10.02119 5.27689,3.60041 8.03933,5.22064 12.73179,7.46748 4.22052,2.02088 5.85534,2.63946 9.48267,3.58805 1.81871,0.47562 2.51964,0.6201 3.429,0.70682 1.65903,0.15822 2.75381,0.11006 3.66869,-0.16138 z M 90.356905,161.42658 c 0.117812,-0.62799 0.01766,-0.7988 -1.298961,-2.21536 -1.987547,-2.13842 -3.402017,-3.53841 -10.368464,-10.26233 l -3.714345,-3.58503 -0.336492,0.0538 c -0.349829,0.0559 -1.025919,0.4841 -1.665553,1.05477 l -0.371401,0.33135 0.533086,0.41107 c 1.200535,0.92572 1.674921,1.32283 5.76555,4.82627 2.346024,2.00927 5.730003,4.98872 7.519951,6.62099 2.531703,2.3087 3.312018,2.9751 3.513667,3.00074 0.142568,0.0181 0.28355,0.0391 0.313292,0.0465 0.02974,0.007 0.07909,-0.1198 0.10967,-0.28279 z"
         id="path198"
         sodipodi:nodetypes="ssssssscsssssssssscsscsssscss" /></g></g></svg>
