<?xml version="1.0" encoding="UTF-8" standalone="no"?>
<!-- Created with Inkscape (http://www.inkscape.org/) -->

<svg
   id="svg2"
   sodipodi:docname="starfish.svg"
   inkscape:export-filename="F:\Drawings\beach critters\starfish.png"
   viewBox="0 0 472.44094 332.59843"
   sodipodi:version="0.32"
   inkscape:export-xdpi="72"
   version="1.0"
   inkscape:output_extension="org.inkscape.output.svg.inkscape"
   inkscape:export-ydpi="72"
   inkscape:version="1.2.2 (732a01da63, 2022-12-09)"
   width="125mm"
   height="88mm"
   xmlns:inkscape="http://www.inkscape.org/namespaces/inkscape"
   xmlns:sodipodi="http://sodipodi.sourceforge.net/DTD/sodipodi-0.dtd"
   xmlns="http://www.w3.org/2000/svg"
   xmlns:svg="http://www.w3.org/2000/svg"
   xmlns:rdf="http://www.w3.org/1999/02/22-rdf-syntax-ns#"
   xmlns:cc="http://creativecommons.org/ns#"
   xmlns:dc="http://purl.org/dc/elements/1.1/">
  <defs
     id="defs4">
    <filter
       id="filter5738"
       inkscape:collect="always"
       x="-0.037256133"
       y="-0.041681383"
       width="1.0745123"
       height="1.0833628">
      <feGaussianBlur
         id="feGaussianBlur5740"
         stdDeviation="6.2862528"
         inkscape:collect="always" />
    </filter>
  </defs>
  <sodipodi:namedview
     id="base"
     bordercolor="#666666"
     inkscape:pageshadow="2"
     guidetolerance="10"
     pagecolor="#ffffff"
     gridtolerance="10000"
     inkscape:window-height="712"
     width="800px"
     inkscape:zoom="0.89256703"
     objecttolerance="10"
     height="600px"
     borderopacity="1.0"
     inkscape:current-layer="layer3"
     inkscape:cx="166.37406"
     inkscape:cy="198.86462"
     inkscape:window-y="-4"
     inkscape:window-x="-4"
     inkscape:window-width="1024"
     inkscape:pageopacity="0.0"
     inkscape:document-units="px"
     inkscape:showpageshadow="0"
     inkscape:pagecheckerboard="0"
     inkscape:deskcolor="#d1d1d1"
     showgrid="false" />
  <g
     id="layer2"
     inkscape:label="tracing"
     inkscape:groupmode="layer"
     transform="matrix(0.77637497,0,0,0.77637497,-64.569929,-68.583863)">
    <g
       id="g5744">
      <path
         id="path5742"
         sodipodi:nodetypes="cccccccccccccccccccccccccccccccc"
         style="color:#000000;fill:#666666;fill-rule:evenodd;filter:url(#filter5738)"
         d="m 228.79,153.52 c 0.74,18.68 16.89,35.93 23.63,52.64 12.92,16.27 33.66,16.57 50.81,24.54 14.1,10.51 16.08,29.47 22.09,44.98 6.89,19.16 -17.56,25.93 -25.82,39.09 -12.14,19.42 -28.78,34.98 -44.35,51.19 -8.88,14.79 -39.59,25.05 -44.76,41.98 8.55,24.65 43.19,-3.37 59.45,-7.86 18.85,-7.77 37.07,-17.12 54.24,-28.2 14.32,-8.91 26.68,-20.45 41.21,-29.23 7.61,-13.91 16.81,-11.89 21.23,3.05 10,16.16 14.99,34.8 21.14,52.8 11.04,14.18 10.39,36.86 24.14,49.26 11.29,10.03 17,38.82 40.14,25.82 -1.08,-18.37 -7.02,-40.79 -7.19,-60.8 -2.54,-18.96 -5.78,-39.27 -12.84,-57.42 -6.11,-12.31 -24.9,-31.42 -11.1,-43.19 18.28,-1.57 35.75,-8.27 54.32,-7.29 24.26,-0.97 32.83,-10.58 50.35,-12.62 17.78,-3.78 53.46,-9.32 69.86,-17.47 0.48,-22.01 -46.48,-15.42 -59.86,-23.65 -16.31,2.43 -35.38,3.77 -52.92,6.79 -19.57,0.29 -37.29,-10.11 -56.36,-13.9 -19.84,-6.31 -15.27,-28.92 -9.03,-43.41 5.49,-14.55 9.7,-29.5 13.27,-43.31 6.73,-15.29 3.03,-56.25 -19.81,-37.62 -13.69,16.81 -15.62,37.44 -25.32,56.6 -6.36,14.28 -12.53,16.88 -24.86,35.44 -10.02,6.54 -18.61,24.51 -33.3,10.7 -13.69,-12.63 -25.27,-28.21 -42.69,-36.06 -14.31,-8.56 -41.02,-8.31 -51.39,-22.27 -2.26,-11.3 -16.77,-25.5 -24.28,-10.58 z" />
      <path
         id="path2165"
         sodipodi:nodetypes="cccccccccccccccccccccccccccccccc"
         style="color:#000000;fill:#8f2719;fill-rule:evenodd"
         d="m 204.56,141.62 c 0.85,20.97 9.94,42.97 17.64,61.73 14.74,18.27 38.43,18.61 58.02,27.55 16.1,11.8 18.36,33.09 25.22,50.5 7.87,21.52 -20.05,29.12 -29.49,43.89 -13.86,21.81 -37.29,34.44 -55.06,52.64 -10.15,16.6 -31.44,23.29 -37.34,42.3 9.77,27.68 39.97,5.89 58.53,0.85 21.53,-8.73 42.34,-19.22 61.94,-31.67 16.36,-10 30.48,-22.95 47.06,-32.81 8.69,-15.62 19.2,-13.36 24.25,3.42 11.42,18.15 17.11,39.08 24.14,59.29 12.6,15.92 11.86,41.38 27.57,55.31 12.88,11.25 19.41,43.58 45.83,28.98 -1.23,-20.62 -14.9,-46.27 -15.11,-68.75 -2.89,-21.28 0.3,-43.61 -7.76,-63.99 -6.98,-13.82 -28.43,-35.26 -12.68,-48.48 20.88,-1.77 40.82,-9.29 62.03,-8.19 27.7,-1.09 37.49,-11.88 57.5,-14.17 20.3,-4.24 40.87,-8.53 59.6,-17.68 0.54,-24.71 -32.91,-19.25 -48.19,-28.49 -20.1,-0.65 -40.39,-3.02 -60.42,0.37 -22.35,0.32 -45.05,-1.2 -66.82,-5.45 -22.66,-7.08 -14.98,-35.37 -7.85,-51.64 6.26,-16.34 11.07,-33.13 15.14,-48.63 7.69,-17.17 1.99,-63.156 -24.09,-42.24 -15.63,18.88 -22.26,42.04 -33.34,63.55 -7.26,16.03 -13.33,17.02 -22.48,39.8 -11.45,7.34 -21.26,27.51 -38.03,12.01 -15.64,-14.18 -28.86,-31.68 -48.75,-40.49 -16.33,-9.61 -37.49,-13.27 -49.33,-28.95 -2.58,-12.69 -19.15,-27.31 -27.73,-10.56 z" />
      <path
         id="path4735"
         sodipodi:nodetypes="cccccccccccccccccccccccccccccccc"
         style="color:#000000;fill:#d63125;fill-rule:evenodd;filter:url(#filter5738)"
         d="m 214.81,158.2 c 0.74,18.68 16.89,35.93 23.64,52.64 12.91,16.27 33.65,16.57 50.81,24.54 14.1,10.51 16.08,29.47 22.09,44.98 6.89,19.16 -17.56,25.93 -25.83,39.09 -12.14,19.42 -28.78,34.98 -44.34,51.18 -8.88,14.79 -39.6,25.06 -44.77,41.99 8.56,24.65 43.2,-3.38 59.45,-7.86 18.85,-7.78 37.08,-17.12 54.24,-28.21 14.32,-8.9 26.69,-20.44 41.21,-29.22 7.61,-13.91 16.82,-11.89 21.24,3.05 10,16.16 14.98,34.8 21.14,52.8 11.04,14.18 10.38,36.86 24.14,49.26 11.29,10.02 17,38.82 40.13,25.81 -1.08,-18.36 -7.01,-40.78 -7.19,-60.8 -2.54,-18.95 -5.77,-39.27 -12.83,-57.42 -6.12,-12.3 -24.9,-31.41 -11.11,-43.18 18.29,-1.57 35.75,-8.27 54.33,-7.29 24.25,-0.98 32.83,-10.59 50.35,-12.62 17.78,-3.78 53.46,-9.32 69.86,-17.47 0.47,-22.01 -46.48,-15.42 -59.87,-23.66 -17.17,2.87 -35.37,3.78 -52.91,6.8 -19.57,0.28 -37.3,-10.11 -56.36,-13.91 -19.85,-6.3 -15.28,-28.91 -9.03,-43.4 5.49,-14.55 9.69,-29.51 13.26,-43.31 6.74,-15.29 3.04,-56.25 -19.8,-37.62 -13.7,16.81 -15.62,37.44 -25.32,56.6 -6.36,14.28 -12.54,16.88 -24.86,35.44 -10.03,6.54 -18.62,24.51 -33.3,10.7 -13.7,-12.63 -25.28,-28.21 -42.7,-36.06 -14.3,-8.56 -41.01,-8.31 -51.38,-22.27 -2.27,-11.3 -16.78,-25.5 -24.29,-10.58 z" />
    </g>
  </g>
  <g
     id="layer3"
     sodipodi:insensitive="true"
     inkscape:label="lines"
     inkscape:groupmode="layer"
     transform="matrix(0.77637497,0,0,0.77637497,-64.569929,-68.583863)">
    <g
       id="g3649">
      <path
         id="path5076"
         style="color:#000000;fill:none"
         d="m 198.79,407.8 3.33,-0.21 c 3.66,-0.23 7.05,-0.53 10.63,-0.08 0.69,0.09 0.3,6.9 0.21,7.67 -0.33,2.89 -4.81,0.88 -6.5,0.5 -4.23,-0.95 -3.96,-0.05 -6.3,-1.17 -2.06,-0.99 -0.41,-4.64 -1.37,-6.71" />
      <path
         id="path5078"
         style="color:#000000;fill:none;stroke:#333333;stroke-width:0.75"
         d="m 220.92,396.13 c -2.94,-1.41 -6.19,2.03 -9.25,3.13 -3.95,1.41 5.93,6.03 8.08,9.62 1.56,2.62 4.52,-0.18 7,-1.25 3.57,-1.52 1.26,-3.26 -0.16,-5.08 -1.92,-2.45 -3.34,-3.93 -5.67,-6.42 z" />
      <path
         id="path6049"
         style="color:#000000;fill:none;stroke:#333333;stroke-width:0.75"
         d="m 192.08,408.59 c 0.55,1.17 1.75,2.44 2.76,3.54 1.23,1.33 1.48,2.06 1.24,3.79 -0.1,0.75 -2.45,2.61 -3.12,3.1 -1.23,0.91 -0.47,2.54 -0.11,3.59 0.83,2.39 1.64,4.67 2.4,7.14 0.05,0.15 0.15,0.28 0.22,0.43" />
      <path
         id="path6051"
         style="color:#000000;fill:none;stroke:#333333;stroke-width:0.75"
         d="m 197.64,415.74 c 0.14,0.46 4.57,0.51 5.28,0.33 1.29,-0.33 2.49,-0.91 3.69,-1.39 0.12,-0.05 -0.22,-2.27 -0.22,-2.59 0,-1.2 -0.72,-3.23 -1.33,-4.1 -0.21,-0.29 -3.7,1.23 -4.29,1.35 -2.42,0.48 -1.76,0 -3.36,2.96 -0.47,0.86 -0.83,1.81 -0.92,2.78" />
      <path
         id="path6053"
         style="color:#000000;fill:none;stroke:#333333;stroke-width:0.75"
         d="m 196.61,401.97 c -0.05,0.09 4.15,0.46 6.47,2.49 0.39,0.35 -3.87,4.95 -4.16,5.38 -0.39,0.57 -6.64,-2.23 -7.63,-2.46 -1.93,-0.43 -0.08,0.09 -0.15,0.16" />
      <path
         id="path6055"
         style="color:#000000;fill:none;stroke:#333333;stroke-width:0.75"
         d="m 209.14,414.36 c -0.4,-0.09 4.88,-1.03 10.22,-1.7 0.48,-0.06 -0.61,-0.88 -0.56,-1.37 0.14,-1.23 0.73,-2.38 1.32,-3.47" />
      <path
         id="path6057"
         style="color:#000000;fill:none;stroke:#333333;stroke-width:0.75"
         d="m 212.42,402.91 c 0.28,-2.51 -4.77,2.21 -6.26,4.25 -0.02,0.03 -0.08,0.01 -0.12,0.01" />
      <path
         id="path6059"
         style="color:#000000;fill:none;stroke:#333333;stroke-width:0.75"
         d="m 206.65,416 c -1.02,1.41 3.25,1.33 4.68,2.32 3.59,2.48 2.74,2.05 -0.56,5.03 -2.72,2.46 -3.28,3.23 -6.3,1.81 -2.1,-0.98 -1,-6.67 -1.48,-8.54 -0.01,-0.03 0.06,-0.01 0.09,-0.02" />
      <path
         id="path6061"
         style="color:#000000;fill:none;stroke:#333333;stroke-width:0.75"
         d="m 195.86,426.5 c -0.14,-0.53 7.53,-0.86 8.95,-0.8 0.93,0.05 1.97,4.1 2.4,4.95 1.41,2.83 0.53,0.29 1.4,0.77" />
      <path
         id="path6063"
         style="color:#000000;fill:none;stroke:#333333;stroke-width:0.75"
         d="m 214.56,419.28 c 0.77,1.53 3.25,-1.09 4.92,-1.5 0.52,-0.13 1.03,-0.28 1.55,-0.43 1.33,-0.36 2.31,2.01 3.31,3.08 1.13,1.2 2.57,3.7 3.44,4.1" />
      <path
         id="path6065"
         style="color:#000000;fill:none;stroke:#333333;stroke-width:0.75"
         d="m 227.63,409.17 c 1,1.07 0.42,2.96 1.04,4.29 0.19,0.4 0.36,0.81 0.54,1.22 0.92,2.06 -3.02,3.5 -4.84,5.17 -1.19,1.11 0.11,0.11 0.15,0.15" />
      <path
         id="path6067"
         style="color:#000000;fill:none;stroke:#333333;stroke-width:0.75"
         d="m 230.43,408.93 c -1.71,1.57 1.69,-0.13 3.79,-0.65 3.38,-0.83 2.55,-1.35 4.07,1.21 3,5.11 5.34,2.94 2.46,8 -0.78,1.38 -1.36,2.13 -1.15,3.48" />
      <path
         id="path6069"
         style="color:#000000;fill:none;stroke:#333333;stroke-width:0.75"
         d="m 226.35,400.89 c -1.41,2.48 4.25,-4.2 5.01,-6.95 0.46,-1.65 2.5,2.37 3.96,3.27 7.08,4.36 2.83,1.85 0.78,10.78 -0.24,1.03 0.19,0.64 0.47,1.09" />
      <path
         id="path6073"
         style="color:#000000;fill:none;stroke:#333333;stroke-width:0.75"
         d="m 217.95,390.78 c -0.64,0.54 -6.22,0.26 -8.28,-0.37 -1.42,-0.43 -1.37,2.65 -2.27,3.83 -0.93,1.21 -1.63,2 -1.47,3.23 0.12,0.93 4.09,3.2 4.59,3.62 0.79,0.69 2.09,-0.03 3.14,-0.07" />
      <path
         id="path6075"
         style="color:#000000;fill:none;stroke:#333333;stroke-width:0.75"
         d="m 234.11,372.73 c 1.25,1.09 -3.31,0.26 -4.93,0.61 -0.73,0.16 -1.46,0.31 -2.19,0.47 -0.43,0.09 -0.88,0.14 -1.32,0.22 -1.88,0.32 -1.71,2.19 -2.82,3.77 -1.35,1.95 -2.7,3.43 -2.73,4.82 -0.03,1.26 5.16,3.89 6.49,2.35 1.37,-1.61 2.98,-3.05 4.76,-4.19 1.56,-1 -1.62,-3.35 -2.19,-5.12 -0.3,-0.95 -0.89,-4.39 -0.08,-1" />
      <path
         id="path6077"
         style="color:#000000;fill:none;stroke:#333333;stroke-width:0.75"
         d="m 245.16,378.33 c -0.48,-1.5 -2.8,1.41 -4.26,1.97 -4.68,1.81 -5.05,4.24 -1.31,8.59 2.36,2.75 4.39,0.85 7.21,-0.36 3.01,-1.29 -0.54,-6.8 -0.41,-9.49 0.01,-0.18 -0.04,-0.36 -0.06,-0.54" />
      <path
         id="path6079"
         style="color:#000000;fill:none;stroke:#333333;stroke-width:0.75"
         d="m 234.59,383.2 c 0.11,-2.3 -4.24,1.94 -5.97,3.45 -2.09,1.82 7.66,8.93 8.93,9.79 0.71,0.47 1.9,-3.3 2.57,-4.38 1.57,-2.51 -3.41,-6.39 -5.63,-7.84 -0.29,-0.18 0.07,-0.68 0.1,-1.02" />
      <path
         id="path6081"
         style="color:#000000;fill:none;stroke:#333333;stroke-width:0.75"
         d="m 245.67,391.23 c -0.32,-0.21 0.6,-0.48 0.9,-0.71 0.83,-0.66 -1.81,1.13 -2.78,1.57 -4.85,2.24 -7.12,4.26 -3.97,7.21 2.34,2.19 4.89,3.37 6.46,6.29 0.4,0.73 7.3,-3.15 5.25,-7.4 -0.82,-1.7 -3.52,-6.05 -3.98,-6.86" />
      <path
         id="path6083"
         style="color:#000000;fill:none;stroke:#333333;stroke-width:0.75"
         d="m 254.39,403.6 c -0.04,-0.07 -4.61,2.31 -8.11,2.97 -2.06,0.39 -3.06,-0.45 -2.35,1.14 0.92,2.09 -0.58,6.1 1.53,6.55 2.65,0.56 4.04,-0.84 5.34,1.48 0.3,0.54 4.73,-2.32 5.4,-2.69 1.26,-0.71 0.83,-9.43 -0.57,-10.06 -0.46,-0.21 -0.19,-0.1 0.22,0.11" />
      <path
         id="path2311"
         style="color:#000000;fill:none;stroke:#333333;stroke-width:0.75"
         d="m 233.29,368.24 c 1.85,0 5.89,-0.06 7.68,-0.09 0.83,-0.02 -0.09,5.37 -0.21,5.93 -0.25,1.17 -0.4,3.89 -0.46,4.47 -0.02,0.18 0.23,-0.3 0.34,-0.44" />
      <path
         id="path2313"
         style="color:#000000;fill:none;stroke:#333333;stroke-width:0.75"
         d="m 241.33,365.49 c 0.2,-1.71 0.5,-3.56 0.08,-5.4 -0.38,-1.71 3.5,0.44 5.24,0.31 4.3,-0.32 3.55,1.59 4.77,5.35 0.97,2.97 0.72,2.01 -2.47,3.9 -1.14,0.68 -3.03,0.1 -4.5,-0.64 -0.64,-0.32 -4.67,-2.27 -2.58,-1.44" />
      <path
         id="path2315"
         style="color:#000000;fill:none;stroke:#333333;stroke-width:0.75"
         d="m 256.4,371.69 c -1.22,-0.61 -2.32,1.64 -3.68,1.86 -4.46,0.69 -3.59,0.63 -5.62,4.92 -0.59,1.23 2.42,1.7 3.14,1.95 5.27,1.8 4.2,3.27 5.19,-2.09 0.35,-1.88 -0.58,-3.95 0.11,-5.31" />
      <path
         id="path2317"
         style="color:#000000;fill:none;stroke:#333333;stroke-width:0.75"
         d="m 257.73,382.84 c 0.02,-0.13 -5.75,2.11 -6.42,2.35 -1.1,0.4 0.23,2.85 0.16,3.91 -0.14,2.26 0.19,2.64 2.3,3.47 3.48,1.38 3.56,0.42 3.86,-3.27 0.2,-2.45 1.72,-4.42 0.1,-6.46" />
      <path
         id="path2319"
         style="color:#000000;fill:none;stroke:#333333;stroke-width:0.75"
         d="m 267.14,388.24 c 0.04,-0.57 -6.81,2.55 -7.4,2.91 -1.01,0.62 1.33,2.73 2.78,4.57 1.73,2.2 3.8,0.02 6.49,-0.91 1.06,-0.36 0.41,-0.76 1.49,-1.71 2.32,-2.02 0.82,-1.07 -1.57,-3.49 -0.87,-0.9 -0.44,-0.72 -1.79,-1.37" />
      <path
         id="path2323"
         style="color:#000000;fill:none;stroke:#333333;stroke-width:0.75"
         d="m 255.64,394.82 c -1.67,3.69 -6.25,9.21 0.33,9.84 2.91,0.28 9.21,3.07 5.71,-1.13 -2.03,-2.43 -6.67,-8.68 -3.51,-8.83" />
      <path
         id="path2325"
         style="color:#000000;fill:none;stroke:#333333;stroke-width:0.75"
         d="m 268.66,396.55 c -2.93,-3.51 -9.22,14.34 -2.5,11.38 1.92,-0.84 4.71,-1.39 5.77,-1.87 3.05,-1.39 -1.55,-6.64 -3.27,-9.51 z" />
      <path
         id="path2327"
         style="color:#000000;fill:none;stroke:#333333;stroke-width:0.75"
         d="m 274.96,390.37 c 2.16,-0.99 -4.01,6.08 -1.78,6.89 4.07,1.48 8.62,-1.01 12.95,-1.13 2.41,-0.07 2.81,-7.46 2.74,-8.32 -0.05,-0.52 -13.59,2.49 -13.91,2.56 z" />
      <path
         id="path2329"
         style="color:#000000;fill:none;stroke:#333333;stroke-width:0.75"
         d="m 249.94,356.58 c -0.21,-2.41 1.24,-5.81 5.17,-6.24 5.07,-0.57 8.71,3.27 7.64,6.09 -2.55,6.7 12.37,7.48 0.98,9.09 -2.77,0.39 -5.68,1.66 -7.76,2.02 -4.11,0.72 -1.99,-9.93 -6.03,-10.96" />
      <path
         id="path2331"
         style="color:#000000;fill:none;stroke:#333333;stroke-width:0.75"
         d="m 262.98,345.16 c -2.34,-0.6 5.33,-2.37 7.23,-0.86 7.27,5.79 5.42,4.35 -0.03,12.28 -5.1,7.4 -6.69,3.11 -7.05,-4.4 -0.05,-1.11 -0.12,-2.22 -0.18,-3.33 -0.06,-1.23 0.02,-2.46 0.03,-3.69" />
      <path
         id="path2333"
         style="color:#000000;fill:none;stroke:#333333;stroke-width:0.75"
         d="m 277.63,333.37 c -0.05,-1.12 -6.92,5.15 -9.24,7.07 -2.53,2.1 4.76,4.73 7.76,6.09 11.44,5.19 7.92,-5.45 4.84,-9.98 -1.71,-2.53 -6.35,-3.57 -0.15,-2.77" />
      <path
         id="path2335"
         style="color:#000000;fill:none;stroke:#333333;stroke-width:0.75"
         d="m 291.51,320.32 c -1.19,-1.75 -9.37,4.81 -12.33,6.95 -2.92,2.13 4.34,3.51 0.36,7.94 -0.59,0.65 9.48,2.12 10.22,2.26 1.75,0.33 4.56,-14.59 4.72,-15.66 0.17,-1.1 -1.91,-1.16 -2.97,-1.49 z" />
      <path
         id="path2337"
         style="color:#000000;fill:none;stroke:#333333;stroke-width:0.75"
         d="m 301.47,325.4 c 0.46,-2.97 -6.3,1.45 -8.2,3.78 -0.91,1.11 6.97,5.24 7.93,6.09 1.44,1.26 0.25,2.09 5.94,2.82 2.62,0.34 8.17,-12.06 8.29,-12.75 0.81,-4.32 -9.31,-3.64 -10.6,-7.84 -0.16,-0.52 -3.34,7.32 -3.36,7.9 z" />
      <path
         id="path2339"
         style="color:#000000;fill:none;stroke:#333333;stroke-width:0.75"
         d="m 300.1,336.43 c -1.28,-4.16 -7.89,4.15 -10.73,7.46 -2.33,2.71 7.96,1.9 9.39,5.17 2.51,5.7 5.4,-0.37 9.04,-2.68 2.92,-1.85 -4.05,-5.69 -5.29,-8.91 -0.12,-0.3 -6.8,-2.6 0.35,-0.06" />
      <path
         id="path2341"
         style="color:#000000;fill:none;stroke:#333333;stroke-width:0.75"
         d="m 291.13,348.61 c -1.34,-3.46 -7.43,0.35 -11.12,0.74 -2.25,0.25 -2.55,5.55 -2.88,7.46 -0.45,2.58 7.55,1.61 11.44,5.15 4.87,4.41 5.21,-8.27 5.8,-10.47 0.37,-1.37 0.57,-2.79 0.86,-4.19" />
      <path
         id="path2343"
         style="color:#000000;fill:none;stroke:#333333;stroke-width:0.75"
         d="m 278.94,358.92 c 0.3,-1.11 -8.83,2.67 -11.68,2.35 -3.29,-0.37 1.45,6.78 0.42,9.93 -1.91,5.85 9.09,5.61 13.64,6.06 0.83,0.08 -1.94,-9.75 -2.38,-18.34" />
      <path
         id="path2345"
         style="color:#000000;fill:none;stroke:#333333;stroke-width:0.75"
         d="m 267.59,368.2 c 4.98,0.49 -9.28,4.01 -13.19,7.13 -1.18,0.93 3.23,1.29 3.56,2.76 1.36,6.04 2.87,9.68 8.86,5.44 3.3,-2.34 1.95,-8.21 0.89,-12.12" />
      <path
         id="path2347"
         style="color:#000000;fill:none;stroke:#333333;stroke-width:0.75"
         d="m 277.31,377.68 c 3.03,-2.15 -8.46,9.53 -4.79,10.07 2.29,0.34 8.59,-0.77 11.03,-0.74 3.74,0.03 -5.95,-5.6 -6.24,-9.33 z" />
      <path
         id="path2349"
         style="color:#000000;fill:none;stroke:#333333;stroke-width:0.75"
         d="m 297.28,366.26 c 4.21,0.04 -7.67,3.67 -10.94,6.33 -1.05,0.86 -2.22,1.55 -3.33,2.32 -1.8,1.26 3.69,2.45 5.2,4.04 7.06,7.4 8.7,1.8 11.74,-5.29 1.55,-3.61 -4.62,-10.33 -0.8,-4.57" />
      <path
         id="path2351"
         style="color:#000000;fill:none;stroke:#333333;stroke-width:0.75"
         d="m 306.4,377.32 c 1.86,-4.34 -8.41,4.62 -11.62,8.08 -2.83,3.06 10.31,1.3 12.27,-2.38 2.35,-4.4 0.83,-4.44 -0.65,-5.7" />
      <path
         id="path2353"
         style="color:#000000;fill:none;stroke:#333333;stroke-width:0.75"
         d="m 301.11,364.21 c 3.64,-6.82 1.12,-12.85 6.57,-8.02 6.45,5.72 12.48,4.46 6.77,10.97 -3.03,3.45 -1.86,-0.74 -8.97,-2.17 -1.45,-0.3 -2.91,-0.52 -4.37,-0.78" />
      <path
         id="path2355"
         style="color:#000000;fill:none;stroke:#333333;stroke-width:0.75"
         d="m 319.89,360.68 c -4.54,-0.92 8.61,-0.32 15.22,-1.34 2.1,-0.33 -2.78,3.58 -2.88,5.71 -0.23,4.56 -0.86,3.91 -7.55,6.86 -5.51,2.43 -5.74,4.89 -5.74,-1.07 0,-3.58 0.16,-6.62 0.95,-10.16 z" />
      <path
         id="path2359"
         style="color:#000000;fill:none;stroke:#333333;stroke-width:0.75"
         d="m 300.52,322.86 c -1.63,0.11 -5.68,-1.82 -7.51,-4.08 -1.02,-1.27 1.6,-5.24 2.04,-7.31 0.62,-2.91 2.21,-0.55 5.14,-1.63 6.47,-2.41 8.31,-3.51 7.96,2.45 -0.36,6.33 0.58,4.57 -4.13,9.17 -3.96,3.86 -3.77,-1.2 -3.25,3.88" />
      <path
         id="path2361"
         style="color:#000000;fill:none;stroke:#333333;stroke-width:0.75"
         d="m 311.65,303.14 c -1.69,1.64 -5.09,-4.63 -3.35,-6.21 3.5,-3.19 1.81,-4.98 6.87,-4.01 8.06,1.54 10.32,1.99 11.27,9.27 0.96,7.48 2.23,7.32 -2.92,9.58 -5.16,2.26 -8.49,-3.11 -10.88,-6.46 -0.6,-0.85 -2.43,-6.08 0.13,0.89" />
      <path
         id="path2363"
         style="color:#000000;fill:none;stroke:#333333;stroke-width:0.75"
         d="m 311.72,311.28 c -0.6,-0.84 -5.37,5.02 -4.42,7.56 2.23,5.96 8.56,3.34 10.35,-0.76 3.09,-7.11 -8.98,-5.24 -3.42,-8.07" />
      <path
         id="path2365"
         style="color:#000000;fill:none;stroke:#333333;stroke-width:0.75"
         d="m 327.41,311.62 c 0.74,-1.71 11.65,-5.48 13,-0.97 2.44,8.13 3.31,6.32 -4.19,12.08 -7.25,5.56 -5.52,7.75 -12.65,4.08 -2.91,-1.49 1.25,-5.36 2.46,-8.2 3.62,-8.57 1.72,-6.94 3.9,-6.59" />
      <path
         id="path2367"
         style="color:#000000;fill:none;stroke:#333333;stroke-width:0.75"
         d="m 321.97,322.73 c 1.61,-3.81 -7.34,3.79 -11.01,5.69 -2.17,1.13 2.91,3.97 3.9,6.21 0.36,0.79 0.92,1.46 1.38,2.2 2.01,3.19 -4.24,3.09 4.35,4.16 4.94,0.62 11.11,0.17 7.2,-3.17 -4.29,-3.65 -0.78,-11.65 -5.82,-15.09" />
      <path
         id="path2369"
         style="color:#000000;fill:none;stroke:#333333;stroke-width:0.75"
         d="m 317.52,342.16 c -1.54,-1.31 -7.24,3.83 -9.07,4.76 -0.14,0.07 -0.77,7.41 -1.04,8.65 -0.94,4.22 8.63,0.09 12.95,0.31 3.54,0.18 -1.94,-6.95 -1.79,-10.5 0.04,-1.12 -0.7,-2.14 -1.05,-3.22 z" />
      <path
         id="path2371"
         style="color:#000000;fill:none;stroke:#333333;stroke-width:0.75"
         d="m 333.59,341.96 c 0.03,-0.72 -5.04,4.26 -10.32,9.02 -1.81,1.63 6.33,6.15 8.04,6.08 6.91,-0.31 5.09,-1.8 4.73,-7.49 -0.24,-3.73 -4.54,-9.74 -0.13,-5.23" />
      <path
         id="path2373"
         style="color:#000000;fill:none;stroke:#333333;stroke-width:0.75"
         d="m 349.6,339.76 c -0.11,-1.79 -11.73,8.92 -12.16,9.53 -0.26,0.38 7.5,3.65 8.66,3.81 6.2,0.85 5.1,1.26 4.42,-3.43 -0.33,-2.26 -0.79,-4.51 -1.17,-6.76" />
      <path
         id="path2375"
         style="color:#000000;fill:none;stroke:#333333;stroke-width:0.75"
         d="m 344.21,327.35 c -0.01,-0.1 -6.88,4.06 -12.74,6.13 -2.95,1.04 2.24,5.84 3.29,8.79 1.15,3.22 6.83,-0.89 10.24,-0.64 2.05,0.14 1.16,-12.68 -0.79,-14.28 z" />
      <path
         id="path2377"
         style="color:#000000;fill:none;stroke:#333333;stroke-width:0.75"
         d="m 355.83,315.47 c 4.26,0.31 -8.35,1.71 -12.54,2.53 -2.4,0.47 3.01,4.71 2.2,7.03 -1.84,5.26 8.85,4.8 14.12,6.36 0.8,0.23 0.1,-10.19 -0.15,-12.52 -0.14,-1.3 -3.11,-2.99 -3.63,-3.4 z" />
      <path
         id="path2379"
         style="color:#000000;fill:none;stroke:#333333;stroke-width:0.75"
         d="m 355.58,297.77 c -0.12,-1.08 -8.49,-0.89 -10.6,-1.71 -3.26,-1.27 -4.26,1.59 -6.62,4.32 -4.09,4.74 -5.25,6.28 -1.35,8.94 7.96,5.42 8.3,4.62 14.23,-1.2 3.78,-3.72 3.74,-12.78 5.1,-7.21" />
      <path
         id="path2381"
         style="color:#000000;fill:none;stroke:#333333;stroke-width:0.75"
         d="m 365.97,304.29 c 3.17,-3.11 -8.84,1.59 -12.79,3.6 -2.13,1.08 -1.47,4.28 0.64,4.88 5.86,1.64 11.56,3.65 14.68,6.61 2.13,2.02 3.42,-4.78 5.42,-6.92 0.72,-0.77 1.34,-1.64 2.02,-2.45 1.55,-1.9 -17.57,-8.07 -9.97,-5.72 z" />
      <path
         id="path2383"
         style="color:#000000;fill:none;stroke:#333333;stroke-width:0.75"
         d="m 362.81,322.96 c 1,-1.23 -0.66,3.94 0.74,4.7 3.85,2.09 5.47,2.86 11.08,3.04 4.01,0.12 5.59,-5.95 7.28,-9.58 0.04,-0.08 -8.03,-0.49 -13.76,-0.08 -1.59,0.12 -8.74,3.89 -3.1,0.61" />
      <path
         id="path2385"
         style="color:#000000;fill:none;stroke:#333333;stroke-width:0.75"
         d="m 365.77,331.92 c -1.8,0.13 -9.71,6.11 -10.75,7.51 -2.42,3.25 8.08,0.49 12.13,0.67 7.19,0.3 2.15,-4.37 -1.38,-8.18" />
      <path
         id="path2387"
         style="color:#000000;fill:none;stroke:#333333;stroke-width:0.75"
         d="m 377.96,335.72 c -0.82,-0.88 -7.26,7.72 -8.35,10.17 -1.21,2.72 6.07,1.34 8.3,3.32 6.76,5.99 5.48,-1.78 11.95,-5.8 0.65,-0.41 1.38,-0.67 2.07,-1 0.3,-0.14 -10.74,-6.79 -11.82,-7.56 -0.63,-0.44 -1.43,0.58 -2.15,0.87 -0.75,0.3 1.6,-0.22 2.4,-0.33" />
      <path
         id="path2389"
         style="color:#000000;fill:none;stroke:#333333;stroke-width:0.75"
         d="m 386.94,339.15 c -3.41,1.38 5.14,-10.9 7.54,-8.1 3.08,3.6 9.26,2.05 13.97,2.53 3.08,0.32 -0.76,8.27 -3.86,8.46 -5.73,0.33 -9.91,-1.4 -15.5,-1.71 -1.62,-0.09 -3.5,-0.13 -4.78,0.86" />
      <path
         id="path2391"
         style="color:#000000;fill:none;stroke:#333333;stroke-width:0.75"
         d="m 387,328.37 c -3.64,-0.2 1.48,-7.18 1.48,-10.83 0,-6.26 6.26,-0.88 9.88,1.87 2.87,2.17 0.35,4.98 1.89,8.66 1.33,3.15 -9.24,2.57 -13.48,2.91 -3.82,0.3 0.16,-0.61 -0.21,0.76" />
      <path
         id="path2393"
         style="color:#000000;fill:none;stroke:#333333;stroke-width:0.75"
         d="m 388.91,353.3 c -3.77,0.3 -9.34,9.25 -9.63,11.06 -0.48,2.97 5.84,1.66 8.48,3.12 10.5,5.79 6.09,-6.78 2.71,-11.68 -1.46,-2.11 -2.48,-4.37 -0.41,-0.17" />
      <path
         id="path2395"
         style="color:#000000;fill:none;stroke:#333333;stroke-width:0.75"
         d="m 402.07,345.61 c -2.24,-3.24 -7.94,1.53 -11.24,3.68 -1.35,0.88 4.44,9.37 5.44,10.75 2.32,3.22 14.31,-2.82 10.88,-4.8 -2.32,-1.33 -3.36,-4.17 -5.19,-6.13" />
      <path
         id="path2397"
         style="color:#000000;fill:none;stroke:#333333;stroke-width:0.75"
         d="m 419.08,341.91 c -1.72,-0.99 -11.86,4.73 -14.1,5.52 -3.52,1.23 5.73,7.16 9.32,6.15 1.4,-0.39 2.81,-0.76 4.21,-1.15 5.72,-1.56 7.04,0.27 2.89,-7 -0.7,-1.22 -1.55,-2.35 -2.32,-3.52 z" />
      <path
         id="path2399"
         style="color:#000000;fill:none;stroke:#333333;stroke-width:0.75"
         d="m 426.53,328.3 c -1.48,-2.6 -13.25,3.22 -16.83,4.41 -2.48,0.83 3.16,5.75 5.19,5.96 3.13,0.32 5.69,2 7.35,3.7 1.96,1.99 3.16,-2.96 3.89,-5.06 0.73,-2.1 1.08,-4.67 1.04,-5.87" />
      <path
         id="path2401"
         style="color:#000000;fill:none;stroke:#333333;stroke-width:0.75"
         d="m 434.15,341.96 c 0.25,-0.74 -7.14,1.24 -7.44,7.46 -0.13,2.77 5.17,6.9 7.67,7.69 5.81,1.84 1.15,-7.23 1.07,-7.97 -0.33,-3.22 -2.99,-2.91 -1.3,-7.18 z" />
      <path
         id="path2403"
         style="color:#000000;fill:none;stroke:#333333;stroke-width:0.75"
         d="m 418.31,354.37 c -0.16,-1.52 -4.51,5.43 -6.72,10.86 -2.13,5.22 11.18,2.33 12.75,1.53 3.65,-1.86 2.15,0.1 -0.28,-4.65 -1.21,-2.35 -1.21,-1.8 -3.32,-5.21 -0.62,-0.99 -1.62,-1.68 -2.43,-2.53 z" />
      <path
         id="path2405"
         style="color:#000000;fill:none;stroke:#333333;stroke-width:0.75"
         d="m 403.37,363.54 c -3.1,-4.99 -9.48,8.18 -9.48,10.91 0,3.36 3.95,4.68 6.57,5.85 2.95,1.32 6.46,-0.34 9.68,-0.66 0.56,-0.06 5.72,-4.9 6.02,-5.8 0.9,-2.63 -4.52,-3.55 -5.69,-6.06 -1.24,-2.64 -10.74,-5.27 -4.14,-3.39" />
      <path
         id="path2407"
         style="color:#000000;fill:none;stroke:#333333;stroke-width:0.75"
         d="m 439.36,371.16 c -0.71,-1.51 -6,2.01 -11.8,4.87 -0.48,0.24 -4.06,3.78 -5.24,5.27 -2.98,3.75 9.11,3.24 13.15,5.82 4.81,3.07 7.69,-2.21 5.42,-5.34 -1.19,-1.64 -1.4,-8.51 -1.53,-10.62 z" />
      <path
         id="path2409"
         style="color:#000000;fill:none;stroke:#333333;stroke-width:0.75"
         d="m 437.34,362.19 c -1.48,-2.04 -6.71,-1.36 -10.4,-2.35 -1.2,-0.32 -0.07,4.01 -0.58,7.66 -0.32,2.25 8.67,-2.98 15.91,0.36 1.41,0.65 -1.32,-2.85 -2.35,-4.01" />
      <path
         id="path2411"
         style="color:#000000;fill:none;stroke:#333333;stroke-width:0.75"
         d="m 423.67,369.52 c 2.4,1.1 -4.56,2.85 -6.18,4.93 -3.01,3.86 -2.14,4.66 3.81,4.98 5.96,0.32 2.9,-14.13 2.37,-9.91" />
      <path
         id="path2413"
         style="color:#000000;fill:none;stroke:#333333;stroke-width:0.75"
         d="m 407.45,381.3 c 0.37,0.02 -12.04,4.76 -5.28,6.43 8.72,2.16 12.45,6.86 8.91,-2.81 -0.3,-0.83 -0.63,-1.65 -0.94,-2.47 -0.35,-0.91 -1.79,-0.77 -2.69,-1.15 z" />
      <path
         id="path2415"
         style="color:#000000;fill:none;stroke:#333333;stroke-width:0.75"
         d="m 397.01,376.95 c -0.14,-0.35 -6.99,4.14 -8.51,5.14 -1.36,0.9 5.04,4.7 5.6,5.11 2.2,1.58 2.69,4.88 4.85,6.51 5.01,3.77 -5.79,-26.18 -0.69,-13.69" />
      <path
         id="path2417"
         style="color:#000000;fill:none;stroke:#333333;stroke-width:0.75"
         d="m 396.88,398.05 c 1.5,1.13 -3.12,2.62 -3.4,4.47 -0.46,3.07 0.53,2.54 4.04,3.88 8.98,3.44 8.11,7.66 13.74,-0.46 5.15,-7.41 1.22,-5.63 -2.94,-8.73 -3.97,-2.96 -8.16,-2.17 -11.44,0.84 z" />
      <path
         id="path2419"
         style="color:#000000;fill:none;stroke:#333333;stroke-width:0.75"
         d="m 418.74,386.61 c -2.28,-1.71 -8.73,6.38 -9.7,8.86 -1.2,3.08 6.78,1.59 9.09,3.96 7.55,7.74 5.02,-0.4 3.65,-4.39 -1.07,-3.15 -4.65,-9.58 -0.84,-6.87" />
      <path
         id="path2421"
         style="color:#000000;fill:none;stroke:#333333;stroke-width:0.75"
         d="m 430.14,386.43 c -0.02,-0.03 -13.36,6.61 -5.34,7.05 0.99,0.05 1.99,0.12 2.99,0.18 6.49,0.39 3.32,13.36 11.03,7.84 6.59,-4.71 2.6,-8.82 -2.99,-12.21 -1.81,-1.1 -3.8,-1.91 -5.69,-2.86 z" />
      <path
         id="path2423"
         style="color:#000000;fill:none;stroke:#333333;stroke-width:0.75"
         d="m 451.41,379.02 c -1.78,-1.08 -9.62,5.32 -10.47,6.69 -1.38,2.23 3.09,4.36 3.83,6.88 1.67,5.67 6.62,5 7.08,-1.26 0.33,-4.56 2.01,-8.16 -0.44,-12.31 z" />
      <path
         id="path2425"
         style="color:#000000;fill:none;stroke:#333333;stroke-width:0.75"
         d="m 430.52,399.3 c 0.05,-0.67 -7.98,5.16 -11.37,12.16 -0.1,0.21 10.88,3.05 13.18,2.71 0.47,-0.07 -0.7,-11.59 -1.27,-12.75 -0.33,-0.65 -0.36,-1.41 -0.54,-2.12 z" />
      <path
         id="path2427"
         style="color:#000000;fill:none;stroke:#333333;stroke-width:0.75"
         d="m 416.04,403.31 c -0.91,-1.82 -8.56,7.62 -8.87,9.76 0,0.05 7.41,13.32 8.51,5.13 0.7,-5.16 3.48,-9.87 0.36,-14.89 z" />
      <path
         id="path2429"
         style="color:#000000;fill:none;stroke:#333333;stroke-width:0.75"
         d="m 428.09,419.12 c 0.6,-4.41 -14.23,1.24 -12.28,5.24 3.46,7.11 -8.84,0.11 1.63,8.63 3.29,2.68 9.57,-3.89 10.91,-5.67 0.38,-0.5 -0.49,-6.9 -0.26,-8.2 z" />
      <path
         id="path2431"
         style="color:#000000;fill:none;stroke:#333333;stroke-width:0.75"
         d="m 443.14,406.46 c 2.29,-3.03 -7.84,3.06 -9.33,6.56 -0.99,2.33 7.68,7.9 10.55,5.21 5.65,-5.29 1.18,-5.64 -1.22,-11.77 -0.26,-0.65 -1.37,-0.28 -2.05,-0.41 -0.68,-0.14 1.37,0.27 2.05,0.41 z" />
      <path
         id="path2433"
         style="color:#000000;fill:none;stroke:#333333;stroke-width:0.75"
         d="m 454.48,397.11 c -5.7,-1.14 -9.52,3.73 -8.76,6.64 0.49,1.89 7.42,4.87 7.81,4.98 0.89,0.25 4.55,-14.28 0.95,-11.62 z" />
      <path
         id="path2435"
         style="color:#000000;fill:none;stroke:#333333;stroke-width:0.75"
         d="m 438.33,419.97 c 3.51,1 -7.25,1.19 -10.65,2.53 -3.32,1.3 3.59,6.18 5.7,9.06 3.18,4.36 8.53,-1.66 13.13,-3.19 2.78,-0.93 -4.06,-4.45 -5.01,-7.23 -0.36,-1.06 -2.11,-0.78 -3.17,-1.17" />
      <path
         id="path2437"
         style="color:#000000;fill:none;stroke:#333333;stroke-width:0.75"
         d="m 410.67,421.53 c -0.79,-2.33 -5.86,5.4 -3.62,6.41 1.23,0.55 4.41,8.63 5.23,9.88 0.02,0.03 2.72,-7.11 1.1,-14.84 -0.12,-0.59 0.82,0.92 1.1,1.46" />
      <path
         id="path2439"
         style="color:#000000;fill:none;stroke:#333333;stroke-width:0.75"
         d="m 424.03,433.79 c -0.95,-4.52 -5.91,3.59 -9.58,9.5 -1.06,1.71 6.51,6.83 8.15,7.56 1.99,0.88 2.73,-14.79 1.43,-17.06 z" />
      <path
         id="path2441"
         style="color:#000000;fill:none;stroke:#333333;stroke-width:0.75"
         d="m 435.7,443.52 c 1.16,0.51 -10.54,2.7 -12.69,10.27 -1.3,4.58 2.6,3.66 7.23,4.24 4.11,0.51 5.17,-11.45 5.46,-14.51 z" />
      <path
         id="path2443"
         style="color:#000000;fill:none;stroke:#333333;stroke-width:0.75"
         d="m 442.17,456.52 c 2.54,0.32 -6.78,0.53 -12.8,7.1 -2.34,2.55 3.19,5.03 4.14,6.05 1.99,2.16 6.5,-0.19 8.55,-1.73 1.1,-0.83 -0.25,-9.34 0.11,-11.42" />
      <path
         id="path2445"
         style="color:#000000;fill:none;stroke:#333333;stroke-width:0.75"
         d="m 448.07,471.15 c 0.11,-0.08 -8.37,4.86 -9.02,5.73 -1.83,2.44 3.51,5.05 5.77,7.1 1.28,1.15 5.74,-9.41 3.25,-12.83 -0.54,-0.72 1.7,-0.59 2.55,-0.89" />
      <path
         id="path2447"
         style="color:#000000;fill:none;stroke:#333333;stroke-width:0.75"
         d="m 461.96,478.18 c -2.4,-3.29 -7.05,6.54 -6.21,10.52 0.58,2.75 10.83,2.57 13.08,2.35 3.97,-0.38 -3.64,-7.1 -5.41,-10.68 -0.39,-0.78 -0.97,-1.46 -1.46,-2.19 z" />
      <path
         id="path2449"
         style="color:#000000;fill:none;stroke:#333333;stroke-width:0.75"
         d="m 460.51,466.74 c -1.1,-2.22 -6.15,4.32 -10.25,5.59 -4.62,1.43 8.55,2.15 11.29,1.56 3.41,-0.74 -0.07,-4.65 -1.04,-7.15 z" />
      <path
         id="path2451"
         style="color:#000000;fill:none;stroke:#333333;stroke-width:0.75"
         d="m 457.87,455.11 c 0.89,-0.19 -9.42,8.2 -13.69,8.2 -4.12,0 6.85,5.92 10.96,5.72 0.47,-0.02 3.86,-9.81 4.29,-11.62 0.22,-0.9 -1.04,-1.53 -1.56,-2.3" />
      <path
         id="path2453"
         style="color:#000000;fill:none;stroke:#333333;stroke-width:0.75"
         d="m 453.28,481.73 c -1.69,-2.49 -3.56,4.87 -5.14,7.43 -1.38,2.25 4.96,1.88 7.54,2.48 1.76,0.41 -0.7,-7.78 1.33,-14.46" />
      <path
         id="path2455"
         style="color:#000000;fill:none;stroke:#333333;stroke-width:0.75"
         d="m 453.15,434.04 c 2.95,0.69 -5.49,2.66 -7.89,4.5 -6.54,5 -5.4,6.47 3.65,6.79 6.22,0.22 3.48,-0.9 4.09,-6.51 0.17,-1.59 0.1,-3.19 0.15,-4.78 z" />
      <path
         id="path2457"
         style="color:#000000;fill:none;stroke:#333333;stroke-width:0.75"
         d="m 435.53,432.18 c 0.37,-3.5 -6.23,4.15 -7.49,7.43 -1,2.61 7.58,4.22 9.45,4.62 2.16,0.46 -1.53,-11.14 -1.96,-12.05 z" />
      <path
         id="path2459"
         style="color:#000000;fill:none;stroke:#333333;stroke-width:0.75"
         d="m 447.07,446.33 c 0.49,0.1 -6.94,2.39 -9.71,7.74 -1.22,2.37 5.19,1.31 7.74,2.09 5.57,1.71 2.57,-7.2 1.97,-9.83 z" />
      <path
         id="path2461"
         style="color:#000000;fill:none;stroke:#333333;stroke-width:0.75"
         d="m 458.13,444.26 c 3.72,1.14 -5.66,5.34 -8.51,7.99 -1.47,1.38 6.56,3.88 8.28,3.78 3.71,-0.2 2.98,-8.86 3.42,-11.39 0.03,-0.15 -0.01,0.31 -0.02,0.46" />
      <path
         id="path2463"
         style="color:#000000;fill:none;stroke:#333333;stroke-width:0.75"
         d="m 455.78,414.65 c 0.14,-0.8 -5.74,3.58 -11.09,5.55 -0.09,0.03 5.03,8.87 5.78,9.88 1.57,2.14 4.91,-10.89 4.82,-13.05 -0.02,-0.68 0.5,0.11 1.44,0.31" />
      <path
         id="path2465"
         style="color:#000000;fill:none;stroke:#333333;stroke-width:0.75"
         d="m 448.45,431.13 c -0.12,-2.97 -8.87,5.37 -9.78,6.36 -0.3,0.33 7.03,4.11 8.96,-2.17 0.42,-1.36 0.55,-2.79 0.82,-4.19 z" />
      <path
         id="path2467"
         style="color:#000000;fill:none;stroke:#333333;stroke-width:0.75"
         d="m 467.5,492.64 c 1.31,-4.27 -7.84,4.79 -10.32,8.5 -1.44,2.17 9.86,1.23 11.86,-0.25 1.81,-1.36 1.37,-6.12 0.84,-7.62 -0.28,-0.77 -1.58,-0.42 -2.38,-0.63 z" />
      <path
         id="path2469"
         style="color:#000000;fill:none;stroke:#333333;stroke-width:0.75"
         d="m 434.78,471.97 c -3.7,3.82 -6.07,4.93 -0.89,7.15 7.35,3.15 4.24,3.98 4.24,-2.93 0,-2.12 -2.01,-3.12 -3.35,-4.22 z" />
      <path
         id="path2471"
         style="color:#000000;fill:none;stroke:#333333;stroke-width:0.75"
         d="m 429.04,458.08 c 0,-0.43 -8.05,5.57 -9.86,7.2 -1.25,1.13 3.37,1.13 4.42,2.45 1.15,1.45 2.41,3.6 4.26,3.58 1.39,-0.02 1.5,-12.46 1.18,-13.23" />
      <path
         id="path2444"
         style="color:#000000;fill:none;stroke:#333333;stroke-width:0.75"
         d="m 207.3,143.76 v 0 c 0,-1.77 -1.74,10 5.32,6.28 3.58,-1.88 7.27,0.01 8.36,-3.85 1.03,-3.63 3.44,-4.49 -0.2,-6.09 -2.05,-0.9 -10.3,0.57 -11.21,0.6" />
      <path
         id="path2446"
         style="color:#000000;fill:none;stroke:#333333;stroke-width:0.75"
         d="m 225.31,150.69 c -1.49,-0.65 14.21,3.97 3.43,10.01 -3.06,1.71 -6.03,4.56 -9.03,4.01 -5.78,-1.05 3.9,-10.9 6.47,-11.59 0.08,-0.02 0.13,-0.1 0.2,-0.16" />
      <path
         id="path2448"
         style="color:#000000;fill:none;stroke:#333333;stroke-width:0.75"
         d="m 225.37,163.89 c 2.58,-0.7 -5.07,-1.69 -7.44,-2.9 -7.17,-3.64 -3.36,-4.55 -5.55,3.12 -1.29,4.51 -1.96,5.59 2.76,8.11 6.13,3.28 3.71,4.26 8.21,-3.56 1.79,-3.12 1.3,-1.89 2.02,-4.77 z" />
      <path
         id="path2450"
         style="color:#000000;fill:none;stroke:#333333;stroke-width:0.75"
         d="m 235.41,160.52 c 0.71,-1.25 -10.72,-0.11 -7.67,4.75 3.26,5.2 1.27,5.89 8.27,6.42 6.81,0.51 5.63,3.63 4.97,-4.66 -0.19,-2.38 -2.27,-6.62 -2.32,-6.69" />
      <path
         id="path2452"
         style="color:#000000;fill:none;stroke:#333333;stroke-width:0.75"
         d="m 236.88,174.88 c -0.09,-1.07 -14.74,4.15 -15.03,4.61 -1.41,2.24 0.12,8.02 3.59,7.4 11.76,-2.1 6.19,0.87 10.34,-8.02 1.9,-4.06 5.08,-4.08 1.1,-3.99 z" />
      <path
         id="path2454"
         style="color:#000000;fill:none;stroke:#333333;stroke-width:0.75"
         d="m 233.04,185.75 c 1.9,-4.05 -9.18,2.14 -10.88,5.67 -2.17,4.53 9.02,4.66 11.22,4.39 2.39,-0.3 -0.47,-4.83 -0.23,-7.23 0.1,-0.93 -0.07,-1.88 -0.11,-2.83 z" />
      <path
         id="path2456"
         style="color:#000000;fill:none;stroke:#333333;stroke-width:0.75"
         d="m 244.43,178.6 c 0.06,-0.6 -15.1,-0.53 -5.66,3.39 6.37,2.64 0.42,11.06 7.62,4.72 9.88,-8.69 6.44,-4.77 -1.96,-8.11 z" />
      <path
         id="path2458"
         style="color:#000000;fill:none;stroke:#333333;stroke-width:0.75"
         d="m 253.68,168.61 c 2.72,-2.39 -11.07,-0.93 -10.54,2.65 0.95,6.46 -5.79,2.49 2.32,5.73 9.27,3.71 10.5,3.43 10.5,-6.71 0,-1.89 -0.49,-1.48 -2.28,-1.67 z" />
      <path
         id="path2460"
         style="color:#000000;fill:none;stroke:#333333;stroke-width:0.75"
         d="m 236.97,189.5 c 0.17,-0.45 -0.22,-0.43 -1.14,-2.23 -1.01,-1.97 -0.05,4.58 -1.05,6.55 -4.44,8.79 -3.49,7.11 3.1,8.05 9.52,1.36 6.14,1.97 4.21,-6.4 -0.75,-3.27 -1.34,-6.47 -5.12,-5.97" />
      <path
         id="path2462"
         style="color:#000000;fill:none;stroke:#333333;stroke-width:0.75"
         d="m 251.3,190.72 c -0.4,-1.73 -15.41,7.33 -9.3,6.76 2.63,-0.25 4.41,3.41 4.97,6.37 0.61,3.16 7.51,2.05 8.88,2.26 0.46,0.07 -0.94,-0.15 -1.41,-0.23 -1.47,-0.23 4.2,-3.85 9.61,-6.51 3.34,-1.64 -5.23,-5.31 -8,-7.8 -1.2,-1.07 -3.29,-0.19 -4.75,-0.85 z" />
      <path
         id="path2464"
         style="color:#000000;fill:none;stroke:#333333;stroke-width:0.75"
         d="m 263.09,178.62 c -2.69,-2.41 -11.33,2.49 -14.73,2.88 -2.03,0.23 0.72,4.26 -0.14,6.1 -1.68,3.63 7.58,2.85 12.4,5.09 2.23,1.04 1.04,-4.42 0.84,-8.41 -0.14,-2.8 1.28,-7.44 2.21,-2.69" />
      <path
         id="path2466"
         style="color:#000000;fill:none;stroke:#333333;stroke-width:0.75"
         d="m 274.64,179.87 c -0.07,-1.39 -7.34,-0.62 -10.12,0 -2.2,0.49 1.13,5.15 -0.47,6.73 -3.96,3.91 -3.12,1.61 3.9,5.46 5.55,3.05 8.87,-6.66 10.07,-11.21 0.05,-0.17 0.03,0.36 0.05,0.53" />
      <path
         id="path2468"
         style="color:#000000;fill:none;stroke:#333333;stroke-width:0.75"
         d="m 278.38,187.8 c 0.89,-3.36 6.9,-1.78 8.16,-1.27 8.29,3.38 4.07,6.65 -1.05,9.37 -6.11,3.23 -3.08,4.69 -8.45,1.94 -4.34,-2.23 -1.47,-2.16 2.72,-7.65 1.55,-2.03 -0.02,0 0.74,-0.16" />
      <path
         id="path2470"
         style="color:#000000;fill:none;stroke:#333333;stroke-width:0.75"
         d="m 269.02,195.61 c 3.79,-4.96 -6.15,7.3 -7.87,9.34 -2.32,2.73 7.21,1.06 10.43,2.63 1.2,0.58 2.66,0.2 3.99,0.31 1.53,0.12 -1.17,-13.29 -3.7,-14.38 -1.55,-0.67 -2.88,2.32 -3.14,3.99" />
      <path
         id="path2472"
         style="color:#000000;fill:none;stroke:#333333;stroke-width:0.75"
         d="m 257.58,206.53 c -2.98,-1.29 -10.09,4.77 -10.34,4.97 -3.38,2.69 7.76,3.87 11.86,5.24 2.95,0.98 1.58,-6.01 2.3,-9.03 0.68,-2.9 -1.8,-3.34 -1.41,0.58" />
      <path
         id="path2474"
         style="color:#000000;fill:none;stroke:#333333;stroke-width:0.75"
         d="m 245.88,201.59 c 0.38,-1.64 -7.14,0.85 -12.2,4.19 -0.68,0.45 3.06,6.56 3.66,7.53 0.07,0.12 8.45,-0.1 9.92,0.14 2.94,0.46 -1.81,-5.84 -1.59,-8.81 0.08,-1.02 0.14,-2.04 0.21,-3.05 z" />
      <path
         id="path2476"
         style="color:#000000;fill:none;stroke:#333333;stroke-width:0.75"
         d="m 279.61,211.23 c 0.33,-4.47 -9.1,0.22 -13.38,1.58 -1.61,0.52 -1.83,2.89 -3.05,4.06 -0.46,0.45 1.7,5.16 2,6 0.68,1.85 9.19,2.48 11.48,2.32 5.83,-0.42 11.12,-0.71 7.76,-6.25 -1.66,-2.73 -2.49,-4.97 -4.81,-7.71" />
      <path
         id="path2478"
         style="color:#000000;fill:none;stroke:#333333;stroke-width:0.75"
         d="m 292.76,202.83 c -2.01,-3.31 -10.01,1.53 -13.64,3.16 -1.88,0.85 5.76,3.88 6.24,3.93 9.04,0.8 3.81,5.99 8,-2.83 0.36,-0.76 0.77,-1.49 1.16,-2.23 0.41,-0.8 -1.18,-1.36 -1.76,-2.03 -0.75,-0.86 0.79,2.14 1.18,3.21" />
      <path
         id="path2480"
         style="color:#000000;fill:none;stroke:#333333;stroke-width:0.75"
         d="m 289.73,214.53 c -1.72,-1.98 -5.33,0.73 -7.58,2.05 -2.61,1.53 5.65,3.25 6.73,6.06 0.29,0.76 0.29,2.04 0.45,2.66 0.78,3.03 2.89,-5.56 4.23,-8.38 0.15,-0.31 -0.16,-0.66 -0.24,-0.98" />
      <path
         id="path2482"
         style="color:#000000;fill:none;stroke:#333333;stroke-width:0.75"
         d="m 296.09,192.95 c 0.32,-0.69 -13.63,2.72 -15.36,3.45 -1.55,0.66 2.43,2.39 3.21,3.88 2.8,5.36 7.52,0.6 13.62,3.3 3.58,1.59 1.33,-7.55 0.6,-10.52 -0.16,-0.66 -0.22,1.33 -0.27,2.01" />
      <path
         id="path2484"
         style="color:#000000;fill:none;stroke:#333333;stroke-width:0.75"
         d="m 308.85,204.54 c -0.9,-3.63 -7.57,0.04 -11.21,-0.84 -2.4,-0.58 -1.14,6.91 -3.59,9.43 -0.07,0.07 13.03,2.67 13.71,2.89 0.14,0.05 1.91,-12.39 2.9,-13.48 0.6,-0.67 -1.47,1.17 -1.81,2" />
      <path
         id="path2486"
         style="color:#000000;fill:none;stroke:#333333;stroke-width:0.75"
         d="m 301.79,220.48 c 5.25,-5.84 -3.82,-2.48 -8.7,-1.47 -3.45,0.72 0.18,7.09 -0.42,10.57 -0.36,2.05 8.11,2.89 10.59,2.65 2.93,-0.28 -0.38,-6.02 0.51,-8.83 1.25,-3.96 -4.53,-2.77 0.27,-3.05" />
      <path
         id="path2488"
         style="color:#000000;fill:none;stroke:#333333;stroke-width:0.75"
         d="m 296.37,233.43 c 0.77,-2.45 -5.57,0.36 -7.4,2.17 -1.87,1.84 4.12,3.67 4.86,6.19 2.15,7.38 4.69,3.22 12.79,1.45 3.25,-0.71 -4.83,-6.07 -6.42,-7.13 -1.39,-0.94 -9.23,-7.39 -3.83,-2.68 z" />
      <path
         id="path2490"
         style="color:#000000;fill:none;stroke:#333333;stroke-width:0.75"
         d="m 317.48,226.99 c -1.89,-1.26 -12.95,6.47 -15.16,7.89 -0.12,0.08 10.12,5.71 10.59,5.91 2.73,1.17 3.47,-4.85 5.53,-7 0.94,-0.99 1.57,-2.23 2.36,-3.34 0.92,-1.31 -2.22,-2.3 -3.32,-3.46 z" />
      <path
         id="path2492"
         style="color:#000000;fill:none;stroke:#333333;stroke-width:0.75"
         d="m 316.43,216.92 c 1.15,-1.63 -11.35,4.2 -13.42,4.48 -2.72,0.35 3.25,4.71 5.71,5.93 4.27,2.11 6.93,-2.26 9.58,-5.2 1.24,-1.37 -1.01,-3.58 -1.87,-5.21 z" />
      <path
         id="path2494"
         style="color:#000000;fill:none;stroke:#333333;stroke-width:0.75"
         d="m 326.29,222.57 c 1.74,-1.93 -9.31,1.48 -11.19,2.57 -2.02,1.15 3.86,2.69 5.35,4.48 5.23,6.31 6.87,1.36 7.18,-3.73 0.24,-4.07 2.2,-9.24 -1.34,-3.32 z" />
      <path
         id="path2496"
         style="color:#000000;fill:none;stroke:#333333;stroke-width:0.75"
         d="m 307.87,244.04 c -0.34,-4.39 -4.87,1.46 -9.45,5.44 -3.68,3.2 7.85,5.47 10.5,6.44 6.73,2.46 1.66,-3.98 0.31,-7.8 -0.48,-1.35 -0.91,-2.72 -1.36,-4.08 z" />
      <path
         id="path2498"
         style="color:#000000;fill:none;stroke:#333333;stroke-width:0.75"
         d="m 327.73,242.9 c -0.79,-2.25 -9.52,-0.57 -15.87,2.72 -4.05,2.1 -0.65,4.59 2.3,5.06 11.07,1.76 3.16,5.95 9.34,-1.56 3.34,-4.06 2.09,-2.16 4.23,-6.22 z" />
      <path
         id="path2500"
         style="color:#000000;fill:none;stroke:#333333;stroke-width:0.75"
         d="m 336.47,234.03 c 2.89,-3.52 -8.96,1.75 -13.51,2.03 -3.76,0.23 1.58,4.08 2.83,8.2 0.83,2.73 6.08,-0.67 8.52,0.8 11.52,6.99 2.27,-12.47 2,-9.09" />
      <path
         id="path2502"
         style="color:#000000;fill:none;stroke:#333333;stroke-width:0.75"
         d="m 349.04,231.49 c 1.29,0.78 0.8,-3.22 0,0 -0.94,3.83 -8.05,-0.18 -11.77,1.14 -0.77,0.27 -1.32,0.95 -1.98,1.42 -2.85,2.05 5.72,4.26 7.73,7.14 4.63,6.59 5.77,1.77 8.58,-4.44 1.62,-3.56 -2.66,-1.17 -2.56,-5.26 z" />
      <path
         id="path2504"
         style="color:#000000;fill:none;stroke:#333333;stroke-width:0.75"
         d="m 344.45,244.62 c 1.1,-2.42 -10.9,0.82 -11.93,5.95 -1.02,5.12 9.35,7.2 5.29,11.32 -0.63,0.64 13.4,-10.06 6.64,-17.27" />
      <path
         id="path2506"
         style="color:#000000;fill:none;stroke:#333333;stroke-width:0.75"
         d="m 334.8,247.92 c -1.28,-1.37 -17.34,2.52 -11.88,7.38 0.76,0.67 1.5,1.38 2.25,2.07 2.16,1.99 3.42,10.61 5.48,2.83 1.13,-4.24 3.24,-8.12 4.15,-12.28 z" />
      <path
         id="path2508"
         style="color:#000000;fill:none;stroke:#333333;stroke-width:0.75"
         d="m 318.3,254.78 c 0.16,-0.6 -5.92,1.61 -11.68,6.22 -0.03,0.03 6.52,3.38 13.51,5.4 2.93,0.84 -0.89,-6.05 -0.89,-9.1 0,-0.89 -0.63,-1.68 -0.94,-2.52" />
      <path
         id="path2510"
         style="color:#000000;fill:none;stroke:#333333;stroke-width:0.75"
         d="m 315.85,267.58 c 0,-2.57 -10.91,4.08 -12.66,5.17 -2.32,1.45 4.95,2.71 6.6,4.9 4.21,5.62 3.46,-1.21 5.48,-5.5 0.67,-1.42 2.7,-5.58 2.43,-4.04" />
      <path
         id="path2512"
         style="color:#000000;fill:none;stroke:#333333;stroke-width:0.75"
         d="m 326.86,273.53 c 1.93,-4.1 -8.36,3.57 -12.17,6.02 -2.4,1.54 -0.31,5.86 -1.58,8.42 -0.91,1.83 7.92,3.06 10.54,3.44 5.79,0.82 2.49,-4.32 8.34,-7.25 3.44,-1.72 2.47,1.03 -2.25,-5.15 -4.82,-6.29 -5.86,-4.31 -2.88,-5.48 0.98,-0.39 0.39,2.07 0.58,3.1" />
      <path
         id="path2514"
         style="color:#000000;fill:none;stroke:#333333;stroke-width:0.75"
         d="m 344.67,282.33 c 0.38,-0.14 -7.61,0.98 -15.47,6.56 -2.36,1.68 5.21,2.65 7.51,4.41 0.34,0.25 -10,6.47 1.3,2.27 1.34,-0.49 2.7,-0.92 4.05,-1.38 4.36,-1.48 5.69,2.73 4.31,-4.12 -0.63,-3.1 0.16,-5.33 -1.7,-7.74" />
      <path
         id="path2516"
         style="color:#000000;fill:none;stroke:#333333;stroke-width:0.75"
         d="m 343.67,268.58 c -0.17,-0.86 1.47,-0.95 2.21,-1.43 2.33,-1.5 -5.28,1.76 -7.81,2.9 -9.06,4.08 -12.64,-0.45 -5.41,8.23 4.11,4.94 9.73,1.81 17.32,2.45 1.73,0.15 -1.68,-12.31 -6.31,-12.15 -0.69,0.02 -0.33,-1.34 -0.49,-2.01 -0.16,-0.66 0.33,1.34 0.49,2.01 z" />
      <path
         id="path2518"
         style="color:#000000;fill:none;stroke:#333333;stroke-width:0.75"
         d="m 364.18,253.02 c -0.72,-2.91 -5.89,1.19 -8.79,1.96 -3.77,1.01 -10.63,1.96 -12.7,4.84 -0.26,0.35 7.95,8.69 9.27,10.03 5.01,5.08 9.47,-7.5 11.95,-9.94 0.99,-0.97 0.6,-2.74 0.58,-4.12" />
      <path
         id="path2520"
         style="color:#000000;fill:none;stroke:#333333;stroke-width:0.75"
         d="m 363.33,237.8 c 0.17,-0.17 -8.69,4.48 -16.32,5.5 -3.61,0.49 4.04,6.09 6,9.16 1.09,1.72 15.87,-2.11 19.15,-2.11 3.64,0 -4.98,-5.33 -7.25,-8.18 -3.48,-4.39 -2.13,-4.07 -3.45,-3.35" />
      <path
         id="path2522"
         style="color:#000000;fill:none;stroke:#333333;stroke-width:0.75"
         d="m 364.4,224.02 c -1.36,-1.7 -12.73,3.91 -13.69,4.53 -2.7,1.74 14.31,9.07 15.41,9.43 2.4,0.77 2.79,-11 0.53,-12.64" />
      <path
         id="path2524"
         style="color:#000000;fill:none;stroke:#333333;stroke-width:0.75"
         d="m 376.54,215.03 c 1.5,0.48 -8.75,0.52 -15.6,3.35 -2.4,0.99 3.66,3.73 5.06,5.93 5.1,8.02 6.87,6.64 12.77,1.71 3.6,-3.01 -0.04,-3 -2.81,-8.36 -0.41,-0.79 0.39,-1.75 0.58,-2.63 z" />
      <path
         id="path2526"
         style="color:#000000;fill:none;stroke:#333333;stroke-width:0.75"
         d="m 380.65,227.43 c -1.19,-2.29 -16.41,3.29 -17.95,3.86 -0.5,0.19 5.94,3.81 10.59,7.49 7.88,6.22 8.98,-2.88 7.36,-11.35 -0.13,-0.68 1.31,-0.46 1.96,-0.69" />
      <path
         id="path2528"
         style="color:#000000;fill:none;stroke:#333333;stroke-width:0.75"
         d="m 392.6,244.17 c -0.25,-1.27 -16.8,0.96 -18.75,1.76 -1.77,0.73 0.33,3.82 0.51,5.73 0.66,6.73 8.66,7.5 11.5,3.66 3.07,-4.13 3.14,-7.36 6.74,-11.15" />
      <path
         id="path2530"
         style="color:#000000;fill:none;stroke:#333333;stroke-width:0.75"
         d="m 371.58,259.46 c 1.65,-2.23 -12.14,1.87 -8.74,4.73 4.41,3.71 3.68,11.06 10.5,8.65 5.65,-2 2.53,-3.43 0.8,-9.99 -0.47,-1.79 -2.48,-6.66 -2.47,-6.95" />
      <path
         id="path2532"
         style="color:#000000;fill:none;stroke:#333333;stroke-width:0.75"
         d="m 363.02,271.39 c -0.61,-2.3 -22.7,6.06 -13.44,8.34 5.27,1.29 10.09,4.51 15.2,6.06 0.03,0.01 0.75,-9.82 1.67,-16.63 0.07,-0.55 0.19,-1.08 0.29,-1.63" />
      <path
         id="path2534"
         style="color:#000000;fill:none;stroke:#333333;stroke-width:0.75"
         d="m 361.95,284.88 c 0.03,-0.23 -10.52,4.1 -12.71,7.77 -1.41,2.38 5.51,1.35 7.76,2.97 10.8,7.76 8.64,-2.21 4.95,-10.74 -0.27,-0.62 0.32,-1.3 0,0 z" />
      <path
         id="path2536"
         style="color:#000000;fill:none;stroke:#333333;stroke-width:0.75"
         d="m 376.57,291.61 c -0.05,-0.13 -16.86,3.18 -12.66,8 3.5,4.02 10.9,6.03 15.94,5.3 2.13,-0.3 -2.21,-3.81 -2.5,-5.95 -1.36,-10.13 0.84,-1.52 -0.78,-7.35 z" />
      <path
         id="path2538"
         style="color:#000000;fill:none;stroke:#333333;stroke-width:0.75"
         d="m 394.05,297.22 c -0.03,-0.15 -12.15,11.45 -13.18,13.31 -0.13,0.24 5.42,1.91 8.09,3.77 9.88,6.85 5.09,-11.45 1.32,-15.58 -0.34,-0.37 0.19,-0.98 0.29,-1.47" />
      <path
         id="path3509"
         style="color:#000000;fill:none;stroke:#333333;stroke-width:0.75"
         d="m 374.55,204.38 c -2.43,2.37 -4.14,5.96 -3.98,8.92 0,0.16 11.38,3.88 18,5.9 3.75,1.14 -2.4,-7.55 -2.53,-11.46 -0.17,-5.04 -13.48,4.06 -11.49,-3.36 z" />
      <path
         id="path3511"
         style="color:#000000;fill:none;stroke:#333333;stroke-width:0.75"
         d="m 384.53,191.81 c -0.02,-0.54 -11.71,5.88 -7.15,9.26 7.13,5.3 8.78,3.6 16.92,2.45 2.68,-0.37 -10.75,-11.36 -9.77,-11.71 z" />
      <path
         id="path3513"
         style="color:#000000;fill:none;stroke:#333333;stroke-width:0.75"
         d="m 392.73,180.36 c 3.47,-0.49 -6.12,3.54 -8.63,5.98 -3.13,3.06 6.94,5.55 9.35,9.21 2.43,3.7 12.86,-2.21 14.24,-2.94 2.33,-1.23 -6.05,-0.57 -7.38,-2.85 -1.07,-1.85 -9.96,-8.51 -10.17,-8.43" />
      <path
         id="path3515"
         style="color:#000000;fill:none;stroke:#333333;stroke-width:0.75"
         d="m 412.54,185.29 c -0.7,-1.2 -8.44,2.92 -7.1,5.92 2.86,6.38 10.84,3.3 13.57,-0.17 7.34,-9.33 8.97,4.42 -6.47,-5.75 z" />
      <path
         id="path3517"
         style="color:#000000;fill:none;stroke:#333333;stroke-width:0.75"
         d="m 405.39,196.46 c 0.5,-0.64 -6.02,5.17 -13.45,7.55 -1.39,0.44 6.05,4.99 9.17,10.2 3.03,5.06 5.15,-9.56 5.9,-11.65 1.25,-3.5 0.39,-3.29 -1.62,-6.1 z" />
      <path
         id="path3519"
         style="color:#000000;fill:none;stroke:#333333;stroke-width:0.75"
         d="m 420.92,198.99 c 0.63,-1.77 -14.63,4.64 -6.79,10.69 7.34,5.66 6.85,3.52 9.75,-2.71 1.42,-3.05 -1.54,-5.65 -2.96,-7.98 z" />
      <path
         id="path3521"
         style="color:#000000;fill:none;stroke:#333333;stroke-width:0.75"
         d="m 408.83,211.62 c 1.65,-3.55 -6.78,3.93 -10.37,5.47 -6.6,2.83 4.39,6.22 7.01,11.88 0.35,0.75 20.74,-4.47 11.29,-4.47 -0.34,0 -7.18,-11.61 -7.93,-12.88 z" />
      <path
         id="path3523"
         style="color:#000000;fill:none;stroke:#333333;stroke-width:0.75"
         d="m 391.51,215.66 c -3.42,0 -17.86,9.67 -11,8.87 2.8,-0.33 2.83,5.47 5.47,6.46 13.21,4.98 5.45,3.58 6.16,-9.37 0.1,-1.99 -0.42,-3.97 -0.63,-5.96" />
      <path
         id="path3525"
         style="color:#000000;fill:none;stroke:#333333;stroke-width:0.75"
         d="m 400.94,227.09 c 0.07,-1.3 -14.29,6.84 -4.87,7.27 2.51,0.11 15.49,13.65 14.5,6.29 -0.89,-6.66 -5.91,-8.55 -9.63,-13.56 z" />
      <path
         id="path3527"
         style="color:#000000;fill:none;stroke:#333333;stroke-width:0.75"
         d="m 420.03,228.74 c -0.56,-4.19 -9.75,7.92 -10.03,8.92 -0.12,0.46 5.29,5.31 12.08,3.16 3.9,-1.22 -1.9,-7.99 -2.05,-12.08 z" />
      <path
         id="path3529"
         style="color:#000000;fill:none;stroke:#333333;stroke-width:0.75"
         d="m 390.71,235.21 c 3.52,-1.11 -7.56,4.64 -12.68,10.29 -2.44,2.69 7.08,1.69 10.46,3.02 1.21,0.47 2.41,0.95 3.62,1.42 5.49,2.17 3.82,0.59 3.16,-6.69 -0.74,-8.25 -2.33,-5.72 -4.56,-8.04 z" />
      <path
         id="path3531"
         style="color:#000000;fill:none;stroke:#333333;stroke-width:0.75"
         d="m 414.79,244.99 c -0.41,-4.57 -8.96,1.93 -13.48,2.67 -4.87,0.81 -3.55,1.67 -6.3,7.3 -2.74,5.62 10.76,3.96 12.31,3.28 3.59,-1.58 6.95,-3.74 8.47,-9.38 0.49,-1.86 -0.32,-0.35 -0.49,-0.54" />
      <path
         id="path3533"
         style="color:#000000;fill:none;stroke:#333333;stroke-width:0.75"
         d="m 391.17,256.1 c 0.19,-0.74 -8.9,-0.11 -8.75,7.98 0.19,10.34 -8.4,7.24 2.79,11.31 4.16,1.51 7.11,2.34 4.93,-0.66 -0.48,-0.66 1.49,-12.72 0.34,-15.92 -0.31,-0.88 0.46,-1.81 0.69,-2.71 z" />
      <path
         id="path3535"
         style="color:#000000;fill:none;stroke:#333333;stroke-width:0.75"
         d="m 381.65,278.35 c -1.47,-4.11 -14.73,2.66 -11.74,5.84 7.62,8.12 8.31,9.27 12.79,1.77 1.23,-2.05 4.99,-0.35 6.96,-1.71 1.28,-0.89 -7.92,-5.86 -8.01,-5.9 z" />
      <path
         id="path3537"
         style="color:#000000;fill:none;stroke:#333333;stroke-width:0.75"
         d="m 404.73,274.28 c 12.64,-8.71 -12.62,8.6 -15.93,11.14 -1.06,0.82 3.43,0.74 3.45,2.08 0.09,7.75 8.39,2.66 9.03,1.62 5.97,-9.7 2.97,-6.78 3.93,-11.14 0.52,-2.34 -1.82,-6.37 0.69,-1.37" />
      <path
         id="path3539"
         style="color:#000000;fill:none;stroke:#333333;stroke-width:0.75"
         d="m 392.14,289.61 c 1.02,-4.64 -15.54,7.63 -8.41,10.29 6.49,2.41 19.12,8.18 13.02,-2.43 -2.62,-4.56 -0.63,-4.66 -4.61,-7.86 z" />
      <path
         id="path3541"
         style="color:#000000;fill:none;stroke:#333333;stroke-width:0.75"
         d="m 408.92,290.92 c -0.19,-0.33 -18.91,8.18 -9.4,8.18 1.7,0 8.19,5.82 10.8,6.41 2.54,0.58 16.19,-4.67 5.24,-5.87 -2.35,-0.26 -7.51,-4.41 -9.97,-5.59" />
      <path
         id="path3543"
         style="color:#000000;fill:none;stroke:#333333;stroke-width:0.75"
         d="m 410,305.57 c -4.6,-0.51 -9.42,9.57 -12.39,11.94 -2.42,1.92 5.97,1.64 8.83,2.82 9.88,4.08 6.06,2.26 7.38,-4.62 0.06,-0.32 -6.26,-9.92 -6.27,-9.92 -0.82,0.08 1.64,-0.31 2.45,-0.22 z" />
      <path
         id="path3545"
         style="color:#000000;fill:none;stroke:#333333;stroke-width:0.75"
         d="m 426.53,305.2 c -6.46,0.6 -10.09,7.2 -10.83,9.74 -1.35,4.7 10.12,2.32 13.42,5.93 0.9,0.98 -2.62,-15.6 -2.59,-15.67 0.27,-0.78 -1.6,0.41 0,0 z" />
      <path
         id="path3547"
         style="color:#000000;fill:none;stroke:#333333;stroke-width:0.75"
         d="m 440.63,304.08 c -4.34,1.14 -8.91,13.21 -9.26,14.08 -0.74,1.87 15.38,6.7 11.57,-1.22 -1.98,-4.13 -3.71,-9.02 -6.67,-11.83" />
      <path
         id="path3549"
         style="color:#000000;fill:none;stroke:#333333;stroke-width:0.75"
         d="m 457.27,294.51 c -0.75,-1.57 -11.22,6.29 -13.22,8.58 -2.19,2.51 5.17,4.31 8.12,5.87 1.77,0.92 1.49,-5.9 1.49,-11.12" />
      <path
         id="path3551"
         style="color:#000000;fill:none;stroke:#333333;stroke-width:0.75"
         d="m 462.66,298.47 c 3.47,1.83 -8.36,6.93 -6.04,10.09 5.69,7.75 7.09,4.55 16.67,3.42 2.56,-0.31 3.96,0.08 7.49,-3.82 2.93,-3.22 -7.43,-4.6 -10.71,-7.47 -2.61,-2.27 -6.79,-1.82 -7.41,-2.22 z" />
      <path
         id="path3553"
         style="color:#000000;fill:none;stroke:#333333;stroke-width:0.75"
         d="m 451.21,306.59 c -3.32,-2.89 -7,6.56 -7.41,10.94 -0.41,4.32 8.66,0.14 12.99,0.37 6.19,0.34 -7.77,-11.42 -8.38,-11.45" />
      <path
         id="path3555"
         style="color:#000000;fill:none;stroke:#333333;stroke-width:0.75"
         d="m 493.75,299.64 c 3.87,0.21 -6.82,3.81 -9.75,6.35 -2.48,2.17 6.07,2.64 9.26,3.45 3,0.76 3.08,-6.03 3.08,-10.37 0,-0.92 0.1,-1.84 0.14,-2.76 0.08,-1.44 -1.82,2.22 -2.73,3.33" />
      <path
         id="path3557"
         style="color:#000000;fill:none;stroke:#333333;stroke-width:0.75"
         d="m 511.44,297.62 c -0.58,0.71 -19.36,6.27 -8.86,8.94 5.56,1.41 10.72,2.31 16.22,1.51 5.9,-0.86 -6.27,-9.77 -7.36,-10.45" />
      <path
         id="path3559"
         style="color:#000000;fill:none;stroke:#333333;stroke-width:0.75"
         d="m 504.83,281.35 c 5.1,-0.75 -8.75,5.45 -12.93,8.46 -0.64,0.45 8.72,1.99 14.07,7.07 3.55,3.37 9.53,-3.88 14.36,-3.11 1.47,0.23 -8.11,-6.75 -15.5,-12.42 z" />
      <path
         id="path3561"
         style="color:#000000;fill:none;stroke:#333333;stroke-width:0.75"
         d="m 492.18,281.37 c 3.56,0.57 -6.91,2.5 -9.72,4.76 -10.9,8.79 -5.2,0.42 2.28,9.58 4.6,5.62 4.46,-14.37 9.86,-14.31" />
      <path
         id="path3563"
         style="color:#000000;fill:none;stroke:#333333;stroke-width:0.75"
         d="m 466.65,283.43 c 1.89,0.02 -9.23,-1.69 -3.11,0 5.96,1.63 13.76,5.03 14.51,8.2 1.67,7.13 -10.18,5.7 -10.92,5.7 -7.03,0 -11.09,-0.24 -10.2,-4.33 1.79,-8.18 10,-9.11 9.72,-9.57 z" />
      <path
         id="path3565"
         style="color:#000000;fill:none;stroke:#333333;stroke-width:0.75"
         d="m 450.18,279.89 c 0.44,-2 -17.69,11.46 -9.55,11.46 5.88,0 10.08,5.17 15.85,3.56 1.09,-0.31 -5.85,-14.03 -6.3,-15.02 z" />
      <path
         id="path3567"
         style="color:#000000;fill:none;stroke:#333333;stroke-width:0.75"
         d="m 434.08,285.19 c 0.68,-0.19 -8.37,-0.02 -7.15,8.72 1.78,12.77 20.99,6.2 11.22,-8.52 -3.29,-4.97 -6.78,-3.46 -8.09,-0.57" />
      <path
         id="path3569"
         style="color:#000000;fill:none;stroke:#333333;stroke-width:0.75"
         d="m 420.94,285.42 c -0.67,-1.02 3.89,-2.99 2.91,-2.25 -6.2,4.67 -18,8.91 -7.66,11.14 7.05,1.52 12.78,10.2 11.02,3.42 -1.41,-5.42 -4.91,-10.09 -6.27,-12.31 z" />
      <path
         id="path3571"
         style="color:#000000;fill:none;stroke:#333333;stroke-width:0.75"
         d="m 423.88,267.64 c -0.3,-1.17 -15.93,9.31 -12.28,11.65 10.4,6.68 19.83,4.52 12.65,-9.11 -1.09,-2.08 -1.69,-3.05 -3.05,-3.57" />
      <path
         id="path3573"
         style="color:#000000;fill:none;stroke:#333333;stroke-width:0.75"
         d="m 416.44,258.15 c -0.02,-0.04 -16.4,5 -17.75,5.13 -4,0.37 6.23,5.08 9.2,7.78 4.91,4.46 10.44,0.06 9.32,-5.56 -0.62,-3.08 -8.55,-8.93 -0.77,-7.35 z" />
      <path
         id="path3575"
         style="color:#000000;fill:none;stroke:#333333;stroke-width:0.75"
         d="m 427.93,243.28 c -0.96,-4.79 -10,3.79 -12.14,8.17 -1.58,3.25 6.18,3.71 9.31,5.5 9.59,5.48 6.71,-2.08 2.83,-8.66 -2.37,-4.01 -2.72,-6.43 0,-5.01 z" />
      <path
         id="path3577"
         style="color:#000000;fill:none;stroke:#333333;stroke-width:0.75"
         d="m 439.86,247.92 c -0.6,-1.03 -15.24,7.48 -6.32,8.04 3.34,0.2 9.66,4.07 11.17,5.18 0.19,0.15 -6.14,-20.36 -4.22,-9.77" />
      <path
         id="path3579"
         style="color:#000000;fill:none;stroke:#333333;stroke-width:0.75"
         d="m 434.28,260.86 c 2.24,1.65 -14.61,4.24 -4.27,8.57 7.21,3.03 6.55,6.98 15.87,9.12 3.46,0.8 6.18,-4.51 7.12,-7.95 0.58,-2.12 2.78,-4.93 5.27,-7.32 3.57,-3.43 -9.83,1.86 -14.76,1.48 -1.4,-0.11 -2.79,-0.28 -4.19,-0.43 -2.71,-0.27 -16.2,-8.71 -5.04,-3.47 z" />
      <path
         id="path3581"
         style="color:#000000;fill:none;stroke:#333333;stroke-width:0.75"
         d="m 458.64,255.87 c -2.42,-0.25 1.28,-5.65 -8.92,5.73 -2.89,3.23 8.75,0.07 12.97,1.08 15.67,3.77 8.22,-3.36 -1.08,-6.5 -4.05,-1.36 -10.51,-1.99 -2.97,-0.31" />
      <path
         id="path3583"
         style="color:#000000;fill:none;stroke:#333333;stroke-width:0.75"
         d="m 483.32,255.07 c -1.56,-0.52 -5.1,6.86 -2.51,9.18 2.9,2.59 16.74,3.46 16.81,0.34 0.17,-7.31 13.18,-5.9 -3.53,-7.78 -7.69,-1.59 -4.09,-1.07 -10.77,-1.74 z" />
      <path
         id="path3585"
         style="color:#000000;fill:none;stroke:#333333;stroke-width:0.75"
         d="m 471.64,263.59 c -13.04,-1.46 -5.51,8.19 -1.4,12.74 4.12,4.55 9.03,-12.03 8.09,-13.93 -1.08,-2.21 -6.73,1.1 -6.69,1.19 z" />
      <path
         id="path3587"
         style="color:#000000;fill:none;stroke:#333333;stroke-width:0.75"
         d="m 503.89,254.13 c -1.3,-2.65 -15.12,8.38 -6.92,8.38 5,0 17.21,6.19 18.43,6.04 6.11,-0.73 -5.41,-15.22 -11.51,-14.42 z" />
      <path
         id="path3589"
         style="color:#000000;fill:none;stroke:#333333;stroke-width:0.75"
         d="m 526.4,257.27 c 8.12,-0.98 -17.86,2.86 -4.36,8.46 5.98,2.48 21.51,10.95 13.65,-0.26 -2.19,-3.12 -14.78,-10.71 -9.29,-8.2 z" />
      <path
         id="path3591"
         style="color:#000000;fill:none;stroke:#333333;stroke-width:0.75"
         d="m 546.61,255.87 c -3.94,-5.61 -12.81,5.24 -13.11,6.33 -0.53,1.94 18.4,3.22 21.4,1.93 5.2,-2.23 -7.6,-8.11 -8.29,-8.26 z" />
      <path
         id="path3593"
         style="color:#000000;fill:none;stroke:#333333;stroke-width:0.75"
         d="m 563.28,254.84 c 2.24,-0.96 -2.45,9.15 -2.77,10.6 -0.77,3.59 7.39,-0.43 11,0.2 3.51,0.62 7.06,0.95 10.54,1.69 2.83,0.59 2.04,-8.25 -0.82,-8.64 -7.06,-0.94 -17.97,-3.85 -22.34,-4.99" />
      <path
         id="path3595"
         style="color:#000000;fill:none;stroke:#333333;stroke-width:0.75"
         d="m 586.5,266.16 c -0.71,-0.1 -2.3,12.79 6.55,10.8 11.72,-2.64 10.55,2.72 7.87,-5.33 -1.98,-5.94 -4.37,-9.78 -7.24,-8.89 -3.48,1.07 -8.23,3.2 -10.03,2.82" />
      <path
         id="path3597"
         style="color:#000000;fill:none;stroke:#333333;stroke-width:0.75"
         d="m 609.55,269.12 c -2.44,0.75 -12.47,3.44 -8.12,6.87 3.23,2.55 7.15,6.59 11.14,6.5 4.57,-0.11 1.55,-13.48 -3.02,-13.37" />
      <path
         id="path3599"
         style="color:#000000;fill:none;stroke:#333333;stroke-width:0.75"
         d="m 596.24,277.47 c -4.98,0.12 -9.25,3.73 -13.79,5.81 -2.58,1.19 9.86,5.04 10.6,5.02 2.56,-0.08 10.47,-12.79 3.19,-10.83 z" />
      <path
         id="path3601"
         style="color:#000000;fill:none;stroke:#333333;stroke-width:0.75"
         d="m 578.21,265.59 c 0.3,-0.01 -7.52,8.46 -9.46,11.51 -2.23,3.5 8.32,0.97 12.19,2.45 11.91,4.55 0.15,-6.79 -1.17,-11.11 -2.27,-7.45 -1.47,0.09 -1.45,0.88" />
      <path
         id="path3603"
         style="color:#000000;fill:none;stroke:#333333;stroke-width:0.75"
         d="m 576.24,279.72 c -1.15,-3.78 -6.16,5.12 -8.35,8.41 0,0.01 7.31,2.93 12.82,5.3 6.02,2.58 1.3,-4.88 -1.22,-7.92 -1.94,-2.34 3.06,-9.77 -3.25,-5.79 -0.86,0.55 0.34,-2.01 0.51,-3.02" />
      <path
         id="path3605"
         style="color:#000000;fill:none;stroke:#333333;stroke-width:0.75"
         d="m 561.05,276.73 c -0.43,0.27 -23.99,11.87 -8.32,13.73 4.52,0.54 8.17,3.76 12.68,0.77 3.03,-2 -2.85,-6.77 -3.36,-10.37 -0.2,-1.4 -0.66,-2.75 -1,-4.13 z" />
      <path
         id="path3607"
         style="color:#000000;fill:none;stroke:#333333;stroke-width:0.75"
         d="m 547.01,282.54 c -0.92,-6.47 -10.78,7.82 -14.54,13.17 -2.52,3.59 8.91,-0.15 13.14,1.02 14.01,3.88 -4.31,-4.55 1.4,-14.19 z" />
      <path
         id="path3609"
         style="color:#000000;fill:none;stroke:#333333;stroke-width:0.75"
         d="m 535.58,275.33 c 2.41,0.67 -6.56,2.8 -14.62,11.43 -0.92,0.99 21.93,7.66 14.33,-5.5 -0.71,-1.23 -1.5,-2.41 -2.25,-3.62 -1.13,-1.81 -0.79,-3.88 0.15,-0.2" />
      <path
         id="path3611"
         style="color:#000000;fill:none;stroke:#333333;stroke-width:0.75"
         d="m 528.34,290.55 c -0.52,-0.83 -9.91,6.72 -8.72,10.54 1.26,4.03 8.36,1.69 12.2,3.45 7.92,3.63 3.95,-4.49 1.79,-8.09 -1.35,-2.26 -3.51,-3.93 -5.27,-5.9" />
      <path
         id="path3613"
         style="color:#000000;fill:none;stroke:#333333;stroke-width:0.75"
         d="m 554.58,268.81 c -0.5,-0.85 -26.11,12.63 -10.97,11.82 8.09,-0.43 14.81,6.8 13.71,-3.96 -0.17,-1.66 -2.41,-5.93 -2.74,-7.86 z" />
      <path
         id="path3615"
         style="color:#000000;fill:none;stroke:#333333;stroke-width:0.75"
         d="m 488.22,269.75 c -0.42,-4.14 -19.63,10.54 -9.23,12.85 13.78,3.06 7.75,-0.73 6.24,-9.95 -0.27,-1.61 -0.82,-3.17 -1.23,-4.75 -0.14,-0.56 -0.62,0.96 -0.94,1.45" />
      <path
         id="path3617"
         style="color:#000000;fill:none;stroke:#333333;stroke-width:0.75"
         d="m 502.47,267.55 c -1.29,-4.99 -10.02,4.31 -12.82,8.64 -2.74,4.22 9.9,2.08 14.53,4.04 7.46,3.18 -9.19,-9.82 -1.71,-12.68 z" />
      <path
         id="path3619"
         style="color:#000000;fill:none;stroke:#333333;stroke-width:0.75"
         d="m 518.14,267.15 c 3.75,1.6 -5.87,5.65 -8.75,8.52 -0.9,0.9 -1.71,1.89 -2.56,2.83 -0.29,0.31 9.79,4.1 17.69,4.1 0.47,0 -5.05,-17.56 -8.06,-12.77" />
      <path
         id="path3621"
         style="color:#000000;fill:none;stroke:#333333;stroke-width:0.75"
         d="m 531.87,271.03 c 0.32,0 -10.59,1.28 -11.45,8.43 -0.65,5.42 10.76,-2.45 16.21,-2.28 2.6,0.09 -3.04,-4.2 -4.76,-6.15 z" />
      <path
         id="path3623"
         style="color:#000000;fill:none;stroke:#333333;stroke-width:0.75"
         d="m 395.87,163.57 c 11.05,0.36 13.11,-1.44 12.37,10.29 -0.47,7.37 -4.24,6.91 -12.31,1.8 -4.21,-2.67 -1.19,-9.12 -0.06,-12.09 z" />
      <path
         id="path3625"
         style="color:#000000;fill:none;stroke:#333333;stroke-width:0.75"
         d="m 414.05,160.15 c -1.48,-0.93 -1.69,3.07 -2.51,4.62 -5.35,10.14 1.52,9.23 12.68,10.69 1.34,0.17 -9.22,-13.25 -10.17,-15.31 z" />
      <path
         id="path3627"
         style="color:#000000;fill:none;stroke:#333333;stroke-width:0.75"
         d="m 419.72,145.96 c 2.38,0.32 -3.84,3.06 -5.1,5.1 -1,1.63 -1.98,3.27 -2.97,4.91 -0.59,0.98 -0.74,2.18 -1.11,3.27 -0.2,0.6 18.91,6.89 13.88,-0.85 -1.85,-2.85 -4.82,-4.81 -7.41,-7.01" />
      <path
         id="path3629"
         style="color:#000000;fill:none;stroke:#333333;stroke-width:0.75"
         d="m 435.22,154.46 c -2.67,-4.12 -11.39,10.72 -7.01,12.93 5.09,2.58 9.09,3.55 12.28,0.83 4.28,-3.64 -10.34,-8.17 -5.27,-13.76 z" />
      <path
         id="path3631"
         style="color:#000000;fill:none;stroke:#333333;stroke-width:0.75"
         d="m 432.11,172.64 c 3.41,-2.9 -4.84,6.62 -8.77,9.51 -2.92,2.15 9.73,4.72 10.8,1.26 1.2,-3.87 -0.04,-7.61 -2.03,-10.77 z" />
      <path
         id="path3633"
         style="color:#000000;fill:none;stroke:#333333;stroke-width:0.75"
         d="m 415.25,178.62 c 0.03,-0.12 -20.41,8.7 -3.94,9.57 8.45,0.45 19.05,-6.36 7.35,-12.7 -0.06,-0.04 0.06,-0.14 0.09,-0.2" />
      <path
         id="path3635"
         style="color:#000000;fill:none;stroke:#333333;stroke-width:0.75"
         d="m 416.33,138.18 c -1.84,-0.99 -9.71,6.4 -12.2,7.9 -3.69,2.21 7.7,10.52 10.6,7.35 4.1,-4.47 -0.98,-21.02 1.6,-15.25 z" />
      <path
         id="path3637"
         style="color:#000000;fill:none;stroke:#333333;stroke-width:0.75"
         d="m 422.23,123.54 c 2.84,-3.11 -12.84,5.26 -9.72,8.09 2.09,1.9 15.11,11.17 14.19,4.45 -0.19,-1.38 -11.32,-16.22 -7.58,-10.58" />
      <path
         id="path3639"
         style="color:#000000;fill:none;stroke:#333333;stroke-width:0.75"
         d="m 434.59,131.29 c -0.04,-0.29 -5.31,5.65 -13.39,11.63 -0.06,0.04 16.42,4.97 17.5,4.44 6.45,-3.18 -11.84,-17.71 -4.11,-16.07 z" />
      <path
         id="path3641"
         style="color:#000000;fill:none;stroke:#333333;stroke-width:0.75"
         d="m 443.51,134.71 c 3.35,-1.65 -8.81,10.68 -4.59,16.47 7,9.59 8.59,-3.82 8.13,-8.61 -0.03,-0.28 -3.23,-7.19 -3.54,-7.86 z" />
      <path
         id="path3643"
         style="color:#000000;fill:none;stroke:#333333;stroke-width:0.75"
         d="m 441.03,120.72 c -0.05,-0.52 -21.58,12.02 -10.85,12.02 4.63,0 15.31,6.78 14.76,-0.88 -0.31,-4.26 -2.81,-7.16 -3.91,-11.14 z" />
      <path
         id="path3645"
         style="color:#000000;fill:none;stroke:#333333;stroke-width:0.75"
         d="m 430.92,111.54 c -0.11,-1.43 -16.98,5.48 -6.47,9.06 5.88,2.01 13.62,4.53 9.94,-4.44 -1.23,-3.02 -8.88,-12.43 -3.47,-4.62 z" />
      <path
         id="path3647"
         style="color:#000000;fill:none;stroke:#333333;stroke-width:0.75"
         d="m 440.58,106.38 c -0.32,-0.76 0.24,-1.63 0.37,-2.45 0.94,-6.243 -14.22,12.34 -2.25,10.38 7.2,-1.19 17.32,4.82 5.01,-6.02 -2.15,-1.89 -7.13,-6.15 -6.5,-1.62" />
    </g>
  </g>
  <metadata
     id="metadata16126">
    <rdf:RDF>
      <cc:Work>
        <dc:format>image/svg+xml</dc:format>
        <dc:type
           rdf:resource="http://purl.org/dc/dcmitype/StillImage" />
        <cc:license
           rdf:resource="http://creativecommons.org/publicdomain/zero/1.0/" />
        <dc:publisher>
          <cc:Agent
             rdf:about="http://openclipart.org/">
            <dc:title>Openclipart</dc:title>
          </cc:Agent>
        </dc:publisher>
        <dc:title>red starfish</dc:title>
        <dc:date>2007-10-01T05:03:38</dc:date>
        <dc:description />
        <dc:source>https://openclipart.org/detail/6544/red-starfish-by-addon</dc:source>
        <dc:creator>
          <cc:Agent>
            <dc:title>addon</dc:title>
          </cc:Agent>
        </dc:creator>
        <dc:subject>
          <rdf:Bag>
            <rdf:li>beach</rdf:li>
            <rdf:li>marine life</rdf:li>
            <rdf:li>ocean</rdf:li>
            <rdf:li>red</rdf:li>
            <rdf:li>sea</rdf:li>
            <rdf:li>seaside</rdf:li>
            <rdf:li>starfish</rdf:li>
          </rdf:Bag>
        </dc:subject>
      </cc:Work>
      <cc:License
         rdf:about="http://creativecommons.org/publicdomain/zero/1.0/">
        <cc:permits
           rdf:resource="http://creativecommons.org/ns#Reproduction" />
        <cc:permits
           rdf:resource="http://creativecommons.org/ns#Distribution" />
        <cc:permits
           rdf:resource="http://creativecommons.org/ns#DerivativeWorks" />
      </cc:License>
    </rdf:RDF>
  </metadata>
</svg>
