<?xml version="1.0" encoding="UTF-8" standalone="no"?>
<svg
   enable-background="new 0 0 45.45 43"
   version="1.1"
   viewBox="0 0 472.44094 332.59843"
   id="svg171"
   sodipodi:docname="stew.svg"
   width="125mm"
   height="88mm"
   inkscape:version="1.2.2 (732a01da63, 2022-12-09)"
   xmlns:inkscape="http://www.inkscape.org/namespaces/inkscape"
   xmlns:sodipodi="http://sodipodi.sourceforge.net/DTD/sodipodi-0.dtd"
   xmlns:xlink="http://www.w3.org/1999/xlink"
   xmlns="http://www.w3.org/2000/svg"
   xmlns:svg="http://www.w3.org/2000/svg">
  <defs
     id="defs175" />
  <sodipodi:namedview
     id="namedview173"
     pagecolor="#505050"
     bordercolor="#eeeeee"
     borderopacity="1"
     inkscape:showpageshadow="0"
     inkscape:pageopacity="0"
     inkscape:pagecheckerboard="0"
     inkscape:deskcolor="#505050"
     showgrid="false"
     inkscape:zoom="2.3430233"
     inkscape:cx="259.2804"
     inkscape:cy="182.02978"
     inkscape:current-layer="svg171"
     inkscape:document-units="mm" />
  <symbol
     id="ac"
     viewBox="-0.046 -1.393 1.289 1.405">
    <path
       d="M 1.05,-0.1 C 1.35,-0.333 1.3,-0.65 0.9,-1.05 0.5,-1.45 0.217,-1.5 0.05,-1.2 c -0.167,0.3 -0.117,0.6 0.15,0.9 0.267,0.333 0.55,0.4 0.85,0.2 z"
       clip-rule="evenodd"
       fill="#ffffff"
       fill-rule="evenodd"
       id="path2" />
  </symbol>
  <symbol
     id="ad"
     viewBox="-0.023 -1.228 1.125 1.224">
    <path
       d="M 0.9,-0.1 C 1.2,-0.3 1.167,-0.583 0.8,-0.95 0.433,-1.283 0.183,-1.317 0.05,-1.05 c -0.133,0.267 -0.083,0.533 0.15,0.8 0.233,0.267 0.467,0.317 0.7,0.15 z"
       clip-rule="evenodd"
       fill="#ffffff"
       fill-rule="evenodd"
       id="path5" />
  </symbol>
  <symbol
     id="ae"
     viewBox="-0.023 -1.228 1.1 1.224">
    <path
       d="M 0.9,-0.1 C 1.167,-0.333 1.133,-0.617 0.8,-0.95 0.433,-1.283 0.183,-1.317 0.05,-1.05 c -0.133,0.267 -0.083,0.533 0.15,0.8 0.233,0.267 0.467,0.317 0.7,0.15 z"
       clip-rule="evenodd"
       fill="#ffffff"
       fill-rule="evenodd"
       id="path8" />
  </symbol>
  <symbol
     id="af"
     viewBox="-0.038 -11.2 42.706 11.216">
    <path
       d="m 41.9,-5.9 c 0.867,-1 1,-1.967 0.4,-2.9 -0.433,-0.7 -1.667,-1.5 -3.7,-2.4 l 0.45,0.3 c 1.833,1.1 2.367,2.3 1.6,3.6 -0.267,0.433 -1.05,1.167 -2.35,2.2 -0.367,0.267 -1.017,0.583 -1.95,0.95 -1.167,0.467 -1.983,0.816 -2.45,1.05 -0.733,0.4 -1.833,0.65 -3.3,0.75 -0.6,0.033 -1.9,0.05 -3.9,0.05 -0.767,0 -2.217,0.167 -4.35,0.5 -1.9,0.3 -3.133,0.4 -3.7,0.3 -0.8,-0.1 -1.667,-0.317 -2.6,-0.65 C 15.25,-2.45 14.633,-2.733 14.2,-3 14.033,-3.1 12.717,-3.467 10.25,-4.1 7.783,-4.733 6.167,-5.283 5.4,-5.75 4.633,-6.217 4.017,-7.033 3.55,-8.2 3.183,-9.2 3,-10.167 3,-11.1 c -1.2,0.567 -2.15,1.133 -2.85,1.7 -0.533,0.467 0.067,1.533 1.8,3.2 1.867,1.767 3.933,3.017 6.2,3.75 6.167,2 11.3,2.784 15.4,2.35 7.367,-0.767 12.2,-1.783 14.5,-3.05 1.9,-1.1 3.183,-2.017 3.85,-2.75 z"
       clip-rule="evenodd"
       fill-rule="evenodd"
       id="path11" />
  </symbol>
  <symbol
     id="ag"
     viewBox="0 -12.55 12.75 12.55">
    <path
       d="m 12.75,-12.55 c -3.2,1.2 -5.917,2.9 -8.15,5.1 C 2.333,-5.25 0.8,-2.767 0,0 l 0.35,-0.05 0.75,-0.5 c 0.6,-1.667 1.467,-3.283 2.6,-4.85 2.333,-3.267 5.35,-5.65 9.05,-7.15 z"
       clip-rule="evenodd"
       fill="#595959"
       fill-rule="evenodd"
       id="path14" />
  </symbol>
  <symbol
     id="ah"
     viewBox="0 -13.05 17.2 13.05">
    <path
       d="m 10.15,-1.5 c 3,0.4 5.35,0.9 7.05,1.5 -0.3,-0.9 -0.784,-1.867 -1.45,-2.9 -1.267,-1.967 -3.2,-3.967 -5.8,-6 -2.067,-1.6 -4.6,-2.85 -7.6,-3.75 L 0,-13.05 c 3.967,1.433 6.8,3.517 8.5,6.25 0.767,1.233 1.25,2.367 1.45,3.4 0.133,0.567 0.2,1.2 0.2,1.9 z"
       clip-rule="evenodd"
       fill="#595959"
       fill-rule="evenodd"
       id="path17" />
  </symbol>
  <symbol
     id="ai"
     viewBox="0 -12.7 24.3 12.7">
    <linearGradient
       id="t"
       x1="-22.458"
       x2="-6.7579002"
       y1="-32.381001"
       y2="-32.381001"
       gradientTransform="matrix(1,-0.0032,0.0032,1,26.06,25.978)"
       gradientUnits="userSpaceOnUse">
      <stop
         stop-color="#fff"
         offset="0"
         id="stop20" />
      <stop
         offset="1"
         id="stop22" />
    </linearGradient>
    <path
       d="m 24.3,-1.7 -3.2,-10.9 -2.35,-0.1 c -0.9,0 -1.833,0.05 -2.8,0.15 -1.1,0.2 -2.333,0.533 -3.7,1 -1.433,0.533 -2.633,1.117 -3.6,1.75 -3.066,2 -5.433,4.233 -7.1,6.7 C 0.717,-1.867 0.2,-0.833 0,0 l 2.65,-0.55 c 4.567,-0.867 10,-1.3 16.3,-1.3 1.867,0 3.65,0.05 5.35,0.15 z"
       clip-rule="evenodd"
       fill="url(#t)"
       fill-rule="evenodd"
       id="path25"
       style="fill:url(#t)" />
  </symbol>
  <symbol
     id="aj"
     viewBox="-0.023 -1.178 1.125 1.206">
    <path
       d="M 0.9,-0.1 C 1.2,-0.3 1.167,-0.567 0.8,-0.9 0.467,-1.233 0.217,-1.267 0.05,-1 c -0.133,0.267 -0.083,0.533 0.15,0.8 0.233,0.267 0.467,0.3 0.7,0.1 z"
       clip-rule="evenodd"
       fill="#ffffff"
       fill-rule="evenodd"
       id="path28" />
  </symbol>
  <symbol
     id="ak"
     viewBox="-0.039 -1.517 1.357 1.554">
    <path
       d="m 1.1,-0.1 c 0.333,-0.267 0.283,-0.617 -0.15,-1.05 -0.4,-0.434 -0.7,-0.483 -0.9,-0.15 -0.167,0.333 -0.1,0.667 0.2,1 0.267,0.367 0.55,0.433 0.85,0.2 z"
       clip-rule="evenodd"
       fill="#ffffff"
       fill-rule="evenodd"
       id="path31" />
  </symbol>
  <symbol
     id="al"
     viewBox="-0.006 -0.879 0.795 0.859">
    <path
       d="m 0.65,-0.1 c 0.2,-0.133 0.184,-0.316 -0.05,-0.55 -0.267,-0.267 -0.45,-0.3 -0.55,-0.1 -0.1,0.167 -0.066,0.35 0.1,0.55 0.167,0.2 0.333,0.233 0.5,0.1 z"
       clip-rule="evenodd"
       fill="#ffffff"
       fill-rule="evenodd"
       id="path34" />
  </symbol>
  <path
     d="m 459.8926,159.07042 h 1.97491 c -12.8501,40.82805 -39.99858,74.23042 -81.47176,100.23345 -42.46065,26.64815 -90.84602,39.98541 -145.15615,39.98541 -54.63928,0 -103.18265,-13.49524 -145.656461,-40.48572 C 47.451649,232.15539 20.461163,198.23954 8.6116818,157.09551 l 3.4495162,0.48714 c 13.166091,9.87457 40.327735,18.10338 81.471768,24.68642 42.131494,6.58305 90.029724,9.87457 143.681544,9.87457 52.33522,0 99.06166,-3.12036 140.2057,-9.37426 40.81488,-5.92474 68.30567,-13.82439 82.47239,-23.69896 z"
     clip-rule="evenodd"
     fill="#d9d9d9"
     fill-rule="evenodd"
     id="path37"
     style="stroke-width:13.1661" />
  <use
     transform="matrix(9.874568,0,0,-9.874568,49.92424,173.55312)"
     y="-12.7"
     width="24.299999"
     height="12.7"
     enable-background="new"
     opacity="0.7188"
     xlink:href="#ai"
     id="use39" />
  <use
     transform="matrix(9.874568,0,0,-9.874568,271.77551,167.62838)"
     y="-13.05"
     width="17.200001"
     height="13.05"
     enable-background="new"
     opacity="0.1602"
     xlink:href="#ah"
     id="use41" />
  <use
     transform="matrix(9.874568,0,0,-9.874568,8.4523721,157.09551)"
     y="-12.55"
     width="12.75"
     height="12.55"
     enable-background="new"
     opacity="0.3203"
     xlink:href="#ag"
     id="use43" />
  <linearGradient
     id="u"
     x1="0.8003"
     x2="46.050999"
     y1="8.5991001"
     y2="8.5991001"
     gradientTransform="matrix(9.8745681,0,0,9.8745681,5.1608489,54.400001)"
     gradientUnits="userSpaceOnUse">
    <stop
       stop-color="#7D7D7D"
       offset="0"
       id="stop45" />
    <stop
       stop-color="#D4D4D4"
       offset="1"
       id="stop47" />
  </linearGradient>
  <path
     d="m 394.22014,80.073877 c 43.76408,16.457613 65.6593,36.206753 65.6593,59.247403 0,23.36982 -21.89522,43.11895 -65.6593,59.24741 -43.4481,16.45762 -96.11245,24.68642 -157.99308,24.68642 -61.55148,0 -114.21584,-8.2288 -157.993091,-24.68642 C 34.78587,182.44023 13.06182,162.6911 13.06182,139.32128 c 0,-23.04065 21.72405,-42.78979 65.172149,-59.247403 43.777251,-16.457613 96.441611,-24.686419 157.993091,-24.686419 61.88063,0 114.54498,8.228806 157.99308,24.686419 z"
     clip-rule="evenodd"
     fill="url(#u)"
     fill-rule="evenodd"
     id="path50"
     style="fill:url(#u);stroke-width:13.1661" />
  <path
     d="M 466.3045,132.89623 H 451.49264 C 448.53026,112.48879 426.49022,95.372874 385.34619,81.561645 343.87301,67.408099 294.50016,60.32474 237.22768,60.32474 c -57.28566,0 -106.48734,7.083359 -147.631374,21.236905 C 48.12312,95.38604 25.911926,112.50196 22.936388,132.89623 H 6.1496228 C 11.416059,110.84303 35.93132,92.25251 79.70857,77.111506 123.81497,61.970502 175.99219,54.4 236.22706,54.4 c 60.23486,0 112.39893,7.557336 156.51848,22.711506 43.76408,15.141004 68.29251,33.744694 73.55896,55.784724 z"
     clip-rule="evenodd"
     fill="#f5f5f5"
     fill-rule="evenodd"
     id="path52"
     style="stroke-width:13.1661" />
  <linearGradient
     id="v"
     x1="1.6748"
     x2="44.325001"
     y1="9.5410004"
     y2="9.5410004"
     gradientTransform="matrix(9.8745681,0,0,9.8745681,5.1608489,54.400001)"
     gradientUnits="userSpaceOnUse">
    <stop
       stop-color="#9C3C11"
       offset="0"
       id="stop54" />
    <stop
       stop-color="#662516"
       offset="1"
       id="stop56" />
  </linearGradient>
  <path
     d="m 439.14283,163.52056 c -6.89903,10.86202 -29.29453,22.8695 -67.14706,36.03559 -40.48571,14.15355 -76.36331,21.22374 -107.63278,21.22374 -42.47381,0 -85.42159,-3.77867 -128.86969,-11.34917 C 80.52487,199.8853 43.00151,186.56122 22.923222,169.4453 17.656786,164.824 23.581526,154.30429 40.697443,137.84668 59.129972,120.40161 79.537412,108.05182 101.91977,100.81047 162.81293,81.061333 213.50238,73.319672 253.98811,77.598652 c 32.59923,3.291522 57.77279,6.583044 75.53385,9.874569 30.2952,5.266435 52.83552,12.02064 67.64738,20.249449 18.76169,10.86202 31.44065,19.90713 38.02369,27.16164 8.57112,9.87457 9.88771,19.40682 3.9498,28.63625 z"
     clip-rule="evenodd"
     fill="url(#v)"
     fill-rule="evenodd"
     id="path59"
     style="fill:url(#v);stroke-width:13.1661" />
  <use
     transform="matrix(9.874568,0,0,-9.874568,20.962791,76.124048)"
     x="-0.037999999"
     y="-11.2"
     width="42.706001"
     height="11.216"
     enable-background="new"
     opacity="0.2109"
     xlink:href="#af"
     id="use61" />
  <path
     d="m 79.221425,116.12263 0.987458,-26.174187 6.912197,-2.962368 c 5.266435,-1.329775 9.874569,-0.658304 13.8244,1.974913 11.52032,7.899653 19.74913,16.128462 24.68641,24.686422 5.26644,8.54479 8.88712,15.47016 10.86203,20.72342 -6.9122,8.55796 -12.02064,12.02064 -15.31216,10.37488 l -18.27454,-9.87456 z"
     clip-rule="evenodd"
     fill="#6b3207"
     fill-rule="evenodd"
     id="path63"
     style="stroke-width:13.1661" />
  <path
     d="m 212.52809,82.048791 -0.50031,-20.236281 5.4376,-0.987458 c 4.27898,-0.329151 7.89965,0.487146 10.86202,2.475225 l 7.91282,4.436973 12.83694,14.811853 c -2.30407,7.570502 -4.12099,11.204341 -5.42443,10.862024 z"
     clip-rule="evenodd"
     fill="#6b3207"
     fill-rule="evenodd"
     id="path65"
     style="stroke-width:13.1661" />
  <path
     d="m 365.08358,99.823012 c 0,0.987458 -0.48713,3.462688 -1.4746,7.412508 -0.98744,5.26644 -7.74165,8.55796 -20.23629,9.87457 -6.26705,0.6583 -11.53348,-0.65831 -15.7993,-3.94983 -3.62068,-2.63322 -6.09589,-5.92474 -7.41251,-9.87456 l -2.46207,-13.337257 7.89967,-1.474601 17.2739,1.474601 c 11.52034,1.329776 18.10339,2.633221 19.74916,3.962996 1.64574,1.619427 2.46204,3.607506 2.46204,5.911573 z"
     clip-rule="evenodd"
     fill="#803c08"
     fill-rule="evenodd"
     id="path67"
     style="stroke-width:13.1661" />
  <path
     d="m 356.20963,167.95753 -4.93727,-1.48777 -7.89967,-7.41251 2.96239,-5.91157 c 2.62005,-4.6213 5.76674,-9.05827 9.38742,-13.33725 3.94983,-5.26644 8.54478,-8.88711 13.82439,-10.86203 5.25326,-2.63321 9.87458,-2.80437 13.82441,-0.48714 5.59557,2.96237 9.87455,8.71595 12.83691,17.28708 z"
     clip-rule="evenodd"
     fill="#803c08"
     fill-rule="evenodd"
     id="path69"
     style="stroke-width:13.1661" />
  <path
     d="m 251.52605,134.384 43.94843,-2.47522 v 12.34979 c -6.91222,4.6213 -15.14101,6.9122 -24.68644,6.9122 -6.26705,0 -11.34917,-1.15862 -15.31216,-3.46269 l -3.94983,-3.46268 z"
     clip-rule="evenodd"
     fill="#803c08"
     fill-rule="evenodd"
     id="path71"
     style="stroke-width:13.1661" />
  <path
     d="m 209.56572,171.90736 2.47523,-15.31217 5.92474,-1.96174 c 4.93728,-0.98746 10.19055,-0.82947 15.79931,0.48714 7.89965,1.64576 13.98239,6.58305 18.27453,14.81185 l 1.4746,1.97492 c -4.27898,9.54542 -7.5705,14.31154 -9.87457,14.31154 l -18.27453,-3.94983 z"
     clip-rule="evenodd"
     fill="#803c08"
     fill-rule="evenodd"
     id="path73"
     style="stroke-width:13.1661" />
  <path
     d="m 129.09458,184.7443 -7.89966,-13.33725 6.41189,-2.96237 c 5.26644,-1.64577 9.38742,-2.13291 12.34979,-1.4746 7.24135,1.64576 12.50779,4.60813 15.79931,8.88711 l 4.43697,5.42442 c -4.60813,9.21627 -8.05764,13.49525 -10.37488,12.85011 z"
     clip-rule="evenodd"
     fill="#6b3207"
     fill-rule="evenodd"
     id="path75"
     style="stroke-width:13.1661" />
  <path
     d="m 59.972602,133.39654 c -0.987458,-16.14162 1.645759,-27.99111 7.899653,-35.548441 10.203722,-12.850104 22.053201,-11.033183 35.548445,5.424431 9.21626,11.52033 15.14101,25.34472 17.77422,41.47318 -9.21626,0.98746 -19.74913,0.48715 -31.598614,-1.4746 -6.253894,-0.98746 -13.166091,-2.97554 -20.736593,-5.92474 z"
     clip-rule="evenodd"
     fill="#b56126"
     fill-rule="evenodd"
     id="path77"
     style="stroke-width:13.1661" />
  <path
     d="m 236.7142,80.574187 c 1.31661,1.316611 3.60751,5.595589 6.9122,12.83694 -3.62068,1.974913 -9.55858,3.120363 -17.78739,3.462681 -4.93728,0.329153 -11.02002,0.171167 -18.26137,-0.487146 l -9.87456,-0.987455 c -0.32916,-1.974914 -0.32916,-4.621298 0,-7.912823 0.32915,-6.583044 2.30406,-12.665778 5.92474,-18.261367 3.94982,-6.267057 8.72911,-8.070812 14.31154,-5.437594 4.30531,1.974913 10.54603,7.570502 18.77484,16.786764 z"
     clip-rule="evenodd"
     fill="#b56126"
     fill-rule="evenodd"
     id="path79"
     style="stroke-width:13.1661" />
  <path
     d="m 216.47792,155.62091 c 11.84948,-0.67148 19.9203,4.26581 24.18611,14.81185 2.30406,5.25327 3.29152,10.53287 2.97553,15.78614 -3.30468,1.64576 -10.54603,2.47522 -21.72404,2.47522 -6.9122,0 -12.3498,-1.14545 -16.28646,-3.44951 l -3.94982,-3.963 c 0.32915,-4.27897 1.14545,-8.54479 2.47522,-12.83693 2.60689,-8.21564 6.72787,-12.50779 12.32346,-12.82377 z"
     clip-rule="evenodd"
     fill="#b56126"
     fill-rule="evenodd"
     id="path81"
     style="stroke-width:13.1661" />
  <path
     d="m 271.2752,122.03421 c 8.54477,-0.31599 15.31214,1.15861 20.24944,4.45013 5.25327,2.96238 6.08273,6.2539 2.47523,9.87457 -3.62068,3.60751 -9.22944,6.08274 -16.78677,7.41251 -7.89966,1.31661 -14.98301,0.48715 -21.22374,-2.47522 -6.26706,-2.63322 -6.9122,-6.41189 -1.97491,-11.34917 4.93728,-4.93729 10.67769,-7.5705 17.26075,-7.91282 z"
     clip-rule="evenodd"
     fill="#b56126"
     fill-rule="evenodd"
     id="path83"
     style="stroke-width:13.1661" />
  <path
     d="m 341.39778,81.061333 c 14.15356,4.27898 21.72404,9.545415 22.71152,15.799308 0.98744,5.595589 -3.12037,9.703409 -12.34979,12.349799 -7.24137,2.30406 -13.99558,1.4746 -20.23629,-2.47523 -3.29153,-2.30407 -7.25452,-6.0959 -11.84949,-11.34917 -2.96236,-3.949826 -2.30407,-7.741661 1.97491,-11.34917 4.27898,-4.292146 10.86203,-5.279601 19.74914,-2.975537 z"
     clip-rule="evenodd"
     fill="#b56126"
     fill-rule="evenodd"
     id="path85"
     style="stroke-width:13.1661" />
  <path
     d="m 389.77002,133.39654 c 7.24134,2.30407 10.70401,11.19118 10.37486,26.64817 -2.97554,2.30407 -9.38742,4.93729 -19.262,7.91282 -5.92472,1.6326 -12.67893,1.96175 -20.23626,0.97429 l -9.38742,-2.47522 4.93727,-12.83694 c 2.96236,-7.24135 7.24134,-12.83694 12.83694,-16.78677 6.58305,-4.92411 13.5084,-6.06957 20.73661,-3.43635 z"
     clip-rule="evenodd"
     fill="#b56126"
     fill-rule="evenodd"
     id="path87"
     style="stroke-width:13.1661" />
  <path
     d="m 144.88072,175.85719 c 8.55796,9.87456 10.20372,15.9573 4.93728,18.27453 -3.29152,1.96175 -8.72911,2.30406 -16.28645,0.98746 -6.9122,-0.98746 -11.02002,-2.31724 -12.34979,-3.963 -0.65831,-0.6583 -0.98746,-1.4746 -0.98746,-2.47522 0.65831,-2.62005 0.98746,-6.2539 0.98746,-10.84886 0,-5.92474 3.29152,-8.39997 9.87456,-7.41251 4.6213,0.67147 9.21627,2.47523 13.8244,5.4376 z"
     clip-rule="evenodd"
     fill="#b56126"
     fill-rule="evenodd"
     id="path89"
     style="stroke-width:13.1661" />
  <path
     d="m 109.83259,162.03279 c 2.96237,0 3.94982,2.47523 2.96237,7.41251 l -6.41189,2.47522 c -3.62067,1.96175 -6.411886,3.29153 -8.399966,3.94983 -2.962371,0.98746 -6.411885,1.31661 -10.361712,0.98746 -3.620675,-0.32915 -7.570502,-1.32978 -11.849482,-2.97554 l -4.937284,-2.47522 v -9.87457 z"
     clip-rule="evenodd"
     fill="#c48137"
     fill-rule="evenodd"
     id="path91"
     style="stroke-width:13.1661" />
  <path
     d="m 173.53013,112.15964 11.34917,-0.97429 c 7.89966,-0.67147 12.99493,-0.82946 15.31217,-0.50031 3.94982,0.32915 5.59558,1.97491 4.93728,4.93728 l -1.4746,4.45014 c -0.65831,1.64576 -1.81692,2.62005 -3.46268,2.96237 -2.30407,0 -4.12099,0.17117 -5.4376,0.50031 -1.64576,0.31599 -9.54541,4.43697 -23.69896,12.34979 -2.96237,1.6326 -6.58305,1.6326 -10.86203,0 -3.29152,-1.00062 -5.59559,-2.48839 -6.91219,-4.4633 l -1.97492,-7.89965 z"
     clip-rule="evenodd"
     fill="#c48137"
     fill-rule="evenodd"
     id="path93"
     style="stroke-width:13.1661" />
  <path
     d="m 298.93715,104.27315 11.83631,0.48715 c 3.29154,0.98745 4.93728,3.96299 4.93728,8.90027 0,1.31661 -4.12097,1.96175 -12.34979,1.96175 l -19.24881,-0.98745 c -1.32978,0 -2.14609,-1.14545 -2.47523,-3.44952 l 0.48712,-3.46268 z"
     clip-rule="evenodd"
     fill="#c48137"
     fill-rule="evenodd"
     id="path95"
     style="stroke-width:13.1661" />
  <path
     d="m 414.95674,118.58469 c 4.93728,3.60751 5.75358,4.93729 2.47523,3.94983 l -10.37489,5.42443 c -5.92475,2.63322 -13.33726,1.32977 -22.22437,-3.94983 -2.63321,-1.32977 -4.27898,-3.62067 -4.93727,-6.91219 v -4.43698 l 12.8501,2.96237 8.38679,-0.48714 c 5.92475,0 10.53287,1.14545 13.82441,3.44951 z"
     clip-rule="evenodd"
     fill="#c48137"
     fill-rule="evenodd"
     id="path97"
     style="stroke-width:13.1661" />
  <path
     d="m 221.90235,192.14364 c 0.32915,0.98746 0.17117,2.47523 -0.50031,4.45014 0,0.98745 -1.14545,1.96175 -3.44952,2.96237 l -8.39996,3.46268 c -5.59559,2.63322 -12.66578,2.13291 -21.22374,-1.4746 -2.96237,-1.32978 -4.60813,-4.27898 -4.93729,-8.88711 l 0.50032,-6.9122 20.73659,-1.4746 c 4.27898,-0.32916 8.22881,0.31599 11.84948,1.96174 3.62067,1.97492 5.42443,3.94983 5.42443,5.91158 z"
     clip-rule="evenodd"
     fill="#c48137"
     fill-rule="evenodd"
     id="path99"
     style="stroke-width:13.1661" />
  <path
     d="m 321.64864,164.99516 c 1.64577,0 3.12037,1.15862 4.45015,3.46268 1.31662,1.97492 1.96176,4.12099 1.96176,6.41189 0,3.62067 -4.93731,6.58305 -14.81186,8.88711 -9.87458,1.97491 -16.77361,2.14607 -20.7366,0.50031 -1.96173,-0.6583 -3.44952,-2.63322 -4.43696,-5.92474 l -1.4746,-4.93728 4.93727,-1.47461 c 4.26582,-0.98745 7.89967,-1.4746 10.84887,-1.4746 z"
     clip-rule="evenodd"
     fill="#c48137"
     fill-rule="evenodd"
     id="path101"
     style="stroke-width:13.1661" />
  <radialGradient
     id="w"
     cx="-25.52"
     cy="7.9966002"
     r="3.4842999"
     gradientTransform="matrix(-8.1827253,-5.5258082,-4.924118,9.1754488,82.065301,-88.89973)"
     gradientUnits="userSpaceOnUse">
    <stop
       stop-color="#fff"
       stop-opacity="0"
       offset="0"
       id="stop103" />
    <stop
       stop-color="#fff"
       stop-opacity=".3765"
       offset=".9922"
       id="stop105" />
  </radialGradient>
  <path
     d="m 232.77754,100.81047 c 5.25327,0 9.70341,1.97491 13.33725,5.92474 3.60751,3.94983 5.42443,8.54479 5.42443,13.82439 v 0.50032 c -4.27898,4.93728 -10.53287,7.4125 -18.76168,7.4125 -7.89965,0 -13.99555,-2.14607 -18.27453,-6.42505 v -1.4746 c 0,-5.26643 1.81692,-9.87457 5.43759,-13.82439 3.62068,-3.94983 7.89966,-5.93791 12.83694,-5.93791 z"
     clip-rule="evenodd"
     fill="url(#w)"
     fill-rule="evenodd"
     id="path108"
     style="fill:url(#w);stroke-width:13.1661" />
  <use
     transform="matrix(9.874568,0,0,-9.874568,220.42775,105.08945)"
     x="-0.023"
     y="-1.228"
     width="1.125"
     height="1.224"
     enable-background="new"
     opacity="0.4414"
     xlink:href="#ad"
     id="use110" />
  <path
     d="m 190.80404,104.7603 c 7.57051,1.97491 11.52033,4.45013 11.84948,7.41251 0.32916,1.64576 -0.15798,2.97553 -1.4746,3.96299 l -6.42505,1.46143 c -1.64576,0.31599 -6.25389,2.62006 -13.82439,6.89903 -6.9122,3.963 -11.69149,5.92475 -14.31155,5.92475 -3.29152,0 -6.7542,-1.14545 -10.37487,-3.46269 l -4.93729,-3.43634 2.96237,-3.963 c 2.30407,-2.96237 4.76613,-5.42443 7.41251,-7.41251 9.87457,-7.54416 19.57798,-10.01939 29.12339,-7.38617 z"
     clip-rule="evenodd"
     fill="#eda758"
     fill-rule="evenodd"
     id="path112"
     style="stroke-width:13.1661" />
  <path
     d="m 308.8117,163.52056 c 10.51972,-0.32915 16.12848,1.64576 16.77362,5.92474 0.65829,3.60751 -1.64577,6.41189 -6.89904,8.39997 -3.62068,1.3166 -8.0708,2.1329 -13.33725,2.47522 l -7.39935,0.47398 c -7.24134,-1.64576 -11.03316,-4.12099 -11.34915,-7.41251 -0.32915,-1.97491 3.27835,-4.27898 10.84883,-6.9122 3.94984,-0.97429 7.74169,-1.96174 11.36234,-2.9492 z"
     clip-rule="evenodd"
     fill="#eda758"
     fill-rule="evenodd"
     id="path114"
     style="stroke-width:13.1661" />
  <path
     d="m 90.083451,155.62091 c 2.633218,0 7.241349,1.14544 13.824399,3.44951 7.24135,2.63322 10.03256,4.6213 8.39996,5.92474 -1.97491,1.97492 -4.93728,3.79183 -8.88711,5.4376 -5.266437,2.30406 -9.874568,3.12036 -13.824394,2.47522 -4.608134,-0.67147 -9.216265,-2.47522 -13.824396,-5.4376 -4.937284,-2.96236 -6.583046,-4.93728 -4.937284,-5.92473 4.594964,-3.963 11.020019,-5.92474 19.248825,-5.92474 z"
     clip-rule="evenodd"
     fill="#eda758"
     fill-rule="evenodd"
     id="path116"
     style="stroke-width:13.1661" />
  <path
     d="m 299.91144,98.335245 c 4.60812,0.658304 8.55796,2.132905 11.84946,4.450135 2.62006,1.96175 3.7787,3.60751 3.46271,4.93729 -0.32915,1.31661 -5.76677,1.96175 -16.28646,1.96175 -5.26645,0 -9.71657,-0.31599 -13.33725,-0.9743 l -3.46268,-0.98745 3.94983,-5.4376 c 3.94981,-3.291521 8.55796,-4.594963 13.82439,-3.949825 z"
     clip-rule="evenodd"
     fill="#eda758"
     fill-rule="evenodd"
     id="path118"
     style="stroke-width:13.1661" />
  <path
     d="m 409.03199,110.68504 c 5.5956,1.97491 7.57052,4.60813 5.92475,7.91282 -4.29214,2.30406 -7.25453,3.60751 -8.90029,3.94983 -1.3166,0.6583 -4.60813,0.48714 -9.87456,-0.50032 -5.5956,-0.97429 -9.54543,-2.47522 -11.83631,-4.43697 -2.97554,-1.97491 -4.27898,-3.62068 -3.94983,-4.93728 0.64514,-1.64576 3.10719,-2.63322 7.41251,-2.97554 l 7.41251,-0.48714 c 5.56925,-0.34232 10.19054,0.15798 13.81122,1.4746 z"
     clip-rule="evenodd"
     fill="#eda758"
     fill-rule="evenodd"
     id="path120"
     style="stroke-width:13.1661" />
  <path
     d="m 220.42775,191.15618 c -1.31661,1.97492 -4.93729,3.62068 -10.86203,4.93729 -6.9122,1.97491 -12.99493,2.14607 -18.26137,0.50031 -4.60813,-1.97491 -7.24134,-4.27898 -7.89965,-6.9122 l 0.50031,-3.94983 7.89966,-3.46268 c 5.92474,-2.30407 10.04572,-3.29152 12.34979,-2.96237 3.94983,0.31599 8.07081,1.64576 12.34979,3.94983 4.91095,2.64638 6.22756,5.2796 3.9235,7.89965 z"
     clip-rule="evenodd"
     fill="#eda758"
     fill-rule="evenodd"
     id="path122"
     style="stroke-width:13.1661" />
  <radialGradient
     id="x"
     cx="-19.938"
     cy="2.4008999"
     r="2.4303"
     gradientTransform="matrix(-8.177459,-5.5363411,-4.926751,9.1925646,28.243639,11.320552)"
     gradientUnits="userSpaceOnUse">
    <stop
       stop-color="#fff"
       stop-opacity="0"
       offset="0"
       id="stop124" />
    <stop
       stop-color="#fff"
       stop-opacity=".3765"
       offset=".9922"
       id="stop126" />
  </radialGradient>
  <path
     d="m 166.61793,126.48435 c 3.62068,0 6.58305,1.31661 8.88712,3.94982 2.63321,2.63322 3.94982,5.92474 3.94982,9.87457 v 0.50031 c -3.29152,3.29152 -7.5705,4.93729 -12.83694,4.93729 -4.93728,0 -9.21626,-1.48777 -12.83693,-4.45014 v -0.98746 c 0,-3.94983 1.31661,-7.24135 3.94982,-9.87457 2.2909,-2.63321 5.26644,-3.94982 8.88711,-3.94982 z"
     clip-rule="evenodd"
     fill="url(#x)"
     fill-rule="evenodd"
     id="path129"
     style="fill:url(#x);stroke-width:13.1661" />
  <use
     transform="matrix(9.874568,0,0,-9.874568,157.88882,129.44672)"
     x="-0.0060000001"
     y="-0.87900001"
     width="0.79500002"
     height="0.85900003"
     enable-background="new"
     opacity="0.4414"
     xlink:href="#al"
     id="use131" />
  <radialGradient
     id="y"
     cx="-22.934"
     cy="1.3906"
     r="4.3059001"
     gradientTransform="matrix(-8.1985248,-5.5034261,-4.9017356,9.1728155,18.473083,29.47659)"
     gradientUnits="userSpaceOnUse">
    <stop
       stop-color="#fff"
       stop-opacity="0"
       offset="0"
       id="stop133" />
    <stop
       stop-color="#fff"
       stop-opacity=".3765"
       offset=".9922"
       id="stop135" />
  </radialGradient>
  <path
     d="m 176.97965,137.83352 c 6.25389,0 11.52033,2.47522 15.79931,7.4125 4.60813,4.60814 6.9122,10.37489 6.9122,17.28708 v 0.50031 c -5.59559,6.2539 -13.32409,9.37426 -23.19866,9.37426 -8.88711,0 -16.29962,-2.63322 -22.22436,-7.89965 v -1.97492 c 0,-6.89903 2.14608,-12.67894 6.41189,-17.28708 4.6213,-4.93728 10.04573,-7.4125 16.29962,-7.4125 z"
     clip-rule="evenodd"
     fill="url(#y)"
     fill-rule="evenodd"
     id="path138"
     style="fill:url(#y);stroke-width:13.1661" />
  <use
     transform="matrix(9.874568,0,0,-9.874568,161.83865,143.27111)"
     x="-0.039000001"
     y="-1.517"
     width="1.357"
     height="1.554"
     enable-background="new"
     opacity="0.4414"
     xlink:href="#ak"
     id="use140" />
  <radialGradient
     id="z"
     cx="-11.526"
     cy="-4.2515001"
     r="3.4946001"
     gradientTransform="matrix(-8.1945748,-5.510009,-4.9096352,9.1833484,-35.605318,130.658)"
     gradientUnits="userSpaceOnUse">
    <stop
       stop-color="#fff"
       stop-opacity="0"
       offset="0"
       id="stop142" />
    <stop
       stop-color="#fff"
       stop-opacity=".3765"
       offset=".9922"
       id="stop144" />
  </radialGradient>
  <path
     d="m 61.447203,129.94703 c 4.937284,0 9.216264,1.96175 12.83694,5.92474 3.620673,3.94983 5.437594,8.54479 5.437594,13.82439 v 0.98746 c -4.608131,4.60813 -10.862024,6.89903 -18.76168,6.89903 -7.899653,0 -13.982387,-2.13291 -18.261367,-6.41188 v -1.47461 c 0,-5.26643 1.816921,-9.87456 5.437596,-13.82439 3.607509,-3.96299 8.044482,-5.92474 13.310917,-5.92474 z"
     clip-rule="evenodd"
     fill="url(#z)"
     fill-rule="evenodd"
     id="path147"
     style="fill:url(#z);stroke-width:13.1661" />
  <use
     transform="matrix(9.874568,0,0,-9.874568,48.612897,134.71315)"
     x="-0.023"
     y="-1.178"
     width="1.125"
     height="1.206"
     enable-background="new"
     opacity="0.4414"
     xlink:href="#aj"
     id="use149" />
  <radialGradient
     id="aa"
     cx="-39.716999"
     cy="10.11"
     r="3.4946001"
     gradientTransform="matrix(-8.1945748,-5.510009,-4.9096352,9.1833484,102.10409,-126.93657)"
     gradientUnits="userSpaceOnUse">
    <stop
       stop-color="#fff"
       stop-opacity="0"
       offset="0"
       id="stop151" />
    <stop
       stop-color="#fff"
       stop-opacity=".3765"
       offset=".9922"
       id="stop153" />
  </radialGradient>
  <path
     d="m 359.15883,160.05788 c 5.26646,0 9.70342,1.97491 13.33726,5.92474 3.60752,3.94982 5.43759,8.54479 5.43759,13.82439 v 0.98746 c -4.62129,4.60813 -10.86202,6.9122 -18.77485,6.9122 -7.89963,0 -13.99555,-2.14608 -18.26134,-6.42506 v -1.4746 c 0,-5.26643 1.80375,-9.87457 5.4244,-13.82439 3.62069,-3.94983 7.89967,-5.92474 12.83694,-5.92474 z"
     clip-rule="evenodd"
     fill="url(#aa)"
     fill-rule="evenodd"
     id="path156"
     style="fill:url(#aa);stroke-width:13.1661" />
  <use
     transform="matrix(9.874568,0,0,-9.874568,346.82221,164.33686)"
     x="-0.023"
     y="-1.228"
     width="1.1"
     height="1.224"
     enable-background="new"
     opacity="0.4414"
     xlink:href="#ae"
     id="use158" />
  <radialGradient
     id="ab"
     cx="-34.703999"
     cy="12.817"
     r="4.0355"
     gradientTransform="matrix(-8.1972081,-5.5060591,-4.924118,9.1754488,128.40994,-175.28772)"
     gradientUnits="userSpaceOnUse">
    <stop
       stop-color="#fff"
       stop-opacity="0"
       offset="0"
       id="stop160" />
    <stop
       stop-color="#fff"
       stop-opacity=".3765"
       offset=".9922"
       id="stop162" />
  </radialGradient>
  <path
     d="m 328.56086,104.7603 c 5.91157,0 11.02001,2.31723 15.29899,6.91219 3.94983,4.27898 5.92475,9.70341 5.92475,16.28646 v 0.50031 c -4.93731,5.59559 -12.17865,8.3868 -21.72405,8.3868 -8.88711,0 -15.79933,-2.47523 -20.73661,-7.41251 v -1.4746 c 0,-6.58305 2.1329,-12.00748 6.42507,-16.28646 3.9498,-4.60813 8.88711,-6.91219 14.81185,-6.91219 z"
     clip-rule="evenodd"
     fill="url(#ab)"
     fill-rule="evenodd"
     id="path165"
     style="fill:url(#ab);stroke-width:13.1661" />
  <use
     transform="matrix(9.874568,0,0,-9.874568,314.56528,109.69758)"
     x="-0.046"
     y="-1.393"
     width="1.289"
     height="1.405"
     enable-background="new"
     opacity="0.4414"
     xlink:href="#ac"
     id="use167" />
  <path
     d="m 451.49264,132.89623 h 14.81186 c 0.6583,1.64576 0.98744,4.27898 0.98744,7.91282 0,23.69897 -22.55351,44.10641 -67.64737,61.20916 -45.09386,16.78676 -99.57515,25.18673 -163.41751,25.18673 -63.86871,0 -118.33683,-8.39997 -163.430687,-25.18673 C 27.702514,184.90229 5.149,164.49485 5.149,140.80905 l 0.9874569,-7.91282 H 22.936388 l -0.500312,3.94983 c 0,21.3949 21.065746,39.66943 63.197237,54.81043 41.802337,14.81186 92.333787,22.22437 151.581197,22.22437 59.24741,0 109.93685,-7.41251 152.06835,-22.22437 41.80233,-15.141 62.7101,-33.41553 62.7101,-54.81043 z"
     clip-rule="evenodd"
     fill="#f5f5f5"
     fill-rule="evenodd"
     id="path169"
     style="stroke-width:13.1661" />
</svg>
