<?xml version="1.0" encoding="UTF-8" standalone="no"?>
<svg
   version="1.1"
   viewBox="0 0 472.44095 332.59843"
   id="svg18454"
   sodipodi:docname="table.svg"
   width="125mm"
   height="88mm"
   inkscape:version="1.2.2 (732a01da63, 2022-12-09)"
   xmlns:inkscape="http://www.inkscape.org/namespaces/inkscape"
   xmlns:sodipodi="http://sodipodi.sourceforge.net/DTD/sodipodi-0.dtd"
   xmlns="http://www.w3.org/2000/svg"
   xmlns:svg="http://www.w3.org/2000/svg">
  <sodipodi:namedview
     id="namedview18456"
     pagecolor="#505050"
     bordercolor="#eeeeee"
     borderopacity="1"
     inkscape:showpageshadow="0"
     inkscape:pageopacity="0"
     inkscape:pagecheckerboard="0"
     inkscape:deskcolor="#505050"
     showgrid="false"
     inkscape:zoom="1.4487661"
     inkscape:cx="247.45194"
     inkscape:cy="194.30327"
     inkscape:current-layer="svg18454"
     inkscape:document-units="mm" />
  <defs
     id="defs18438">
    <filter
       id="i"
       color-interpolation-filters="sRGB"
       x="-0.021846846"
       y="-0.020862832"
       width="1.043678"
       height="1.0415514">
      <feGaussianBlur
         in="SourceAlpha"
         result="result1"
         stdDeviation="2.2"
         id="feGaussianBlur18335" />
      <feSpecularLighting
         result="result0"
         specularConstant="2"
         specularExponent="18.10000038"
         surfaceScale="5"
         id="feSpecularLighting18339">
        <feDistantLight
           azimuth="225"
           elevation="24"
           id="feDistantLight18337" />
      </feSpecularLighting>
      <feComposite
         in2="SourceAlpha"
         operator="in"
         result="result6"
         id="feComposite18341" />
      <feMorphology
         operator="dilate"
         radius="5.7"
         id="feMorphology18343" />
      <feGaussianBlur
         result="result11"
         stdDeviation="5.7"
         id="feGaussianBlur18345" />
      <feDiffuseLighting
         diffuseConstant="2"
         in="result1"
         result="result3"
         surfaceScale="5"
         id="feDiffuseLighting18349">
        <feDistantLight
           azimuth="225"
           elevation="25"
           id="feDistantLight18347" />
      </feDiffuseLighting>
      <feBlend
         in="result3"
         in2="SourceGraphic"
         mode="multiply"
         result="result7"
         id="feBlend18351" />
      <feComposite
         in="result7"
         in2="SourceAlpha"
         operator="in"
         result="result91"
         id="feComposite18353" />
      <feBlend
         in="result6"
         in2="result91"
         mode="lighten"
         result="result9"
         id="feBlend18355" />
      <feComposite
         in="result11"
         in2="result9"
         id="feComposite18357" />
    </filter>
    <filter
       id="j"
       x="-0.047129393"
       y="-0.042435196"
       width="1.0931349"
       height="1.0840368"
       color-interpolation-filters="sRGB">
      <feGaussianBlur
         result="result1"
         stdDeviation="1"
         id="feGaussianBlur18360" />
      <feComposite
         in="result1"
         in2="result1"
         operator="in"
         result="result4"
         id="feComposite18362" />
      <feBlend
         in="result1"
         in2="result4"
         mode="screen"
         result="result5"
         id="feBlend18364" />
      <feGaussianBlur
         in="result5"
         result="result6"
         stdDeviation="8"
         id="feGaussianBlur18366" />
      <feComposite
         in="result6"
         in2="result5"
         operator="atop"
         result="result8"
         id="feComposite18368" />
      <feComposite
         in="result6"
         in2="result8"
         operator="in"
         result="fbSourceGraphic"
         id="feComposite18370" />
      <feGaussianBlur
         in="fbSourceGraphic"
         result="result0"
         stdDeviation="2.5"
         id="feGaussianBlur18372" />
      <feSpecularLighting
         lighting-color="#ffffff"
         in="result0"
         result="result1"
         specularConstant="1.5"
         specularExponent="45"
         id="feSpecularLighting18376">
        <fePointLight
           x="-6000"
           y="-9000"
           z="21000"
           id="fePointLight18374" />
      </feSpecularLighting>
      <feComposite
         in="result1"
         in2="fbSourceGraphic"
         operator="in"
         result="result2"
         id="feComposite18378" />
      <feComposite
         in="fbSourceGraphic"
         in2="result2"
         k2="1"
         k3="1"
         operator="arithmetic"
         result="result4"
         id="feComposite18380"
         k1="0"
         k4="0" />
      <feComposite
         in2="result4"
         operator="in"
         result="result91"
         id="feComposite18382" />
      <feBlend
         in2="result91"
         mode="multiply"
         id="feBlend18384" />
    </filter>
    <filter
       id="k"
       color-interpolation-filters="sRGB"
       x="-0.010195132"
       y="-0.032752744"
       width="1.0203411"
       height="1.0655055">
      <feGaussianBlur
         result="result10"
         stdDeviation="3"
         id="feGaussianBlur18387" />
      <feBlend
         in="result10"
         in2="SourceGraphic"
         mode="multiply"
         result="result5"
         id="feBlend18389" />
      <feComposite
         in="result5"
         in2="SourceGraphic"
         result="fbSourceGraphic"
         id="feComposite18391" />
      <feGaussianBlur
         result="result9"
         stdDeviation="5"
         id="feGaussianBlur18393" />
      <feSpecularLighting
         lighting-color="#ffffff"
         in="result9"
         result="result1"
         specularConstant="2.20000005"
         specularExponent="45"
         id="feSpecularLighting18397">
        <fePointLight
           x="-5000"
           y="-10000"
           z="20000"
           id="fePointLight18395" />
      </feSpecularLighting>
      <feComposite
         in="result1"
         in2="fbSourceGraphic"
         operator="in"
         result="result2"
         id="feComposite18399" />
      <feComposite
         in="result2"
         in2="fbSourceGraphic"
         k2="2"
         k3="0.8"
         operator="arithmetic"
         result="result4"
         id="feComposite18401"
         k1="0"
         k4="0" />
      <feBlend
         in="result4"
         in2="result4"
         mode="multiply"
         id="feBlend18403" />
    </filter>
    <filter
       id="l"
       color-interpolation-filters="sRGB"
       x="-0.0050566375"
       y="-0.014462667"
       width="1.0100847"
       height="1.0289286">
      <feGaussianBlur
         result="result10"
         stdDeviation="3"
         id="feGaussianBlur18406" />
      <feBlend
         in="result10"
         in2="SourceGraphic"
         mode="multiply"
         result="result5"
         id="feBlend18408" />
      <feComposite
         in="result5"
         in2="SourceGraphic"
         result="fbSourceGraphic"
         id="feComposite18410" />
      <feGaussianBlur
         result="result9"
         stdDeviation="5"
         id="feGaussianBlur18412" />
      <feSpecularLighting
         lighting-color="#ffffff"
         in="result9"
         result="result1"
         specularConstant="2.20000005"
         specularExponent="45"
         id="feSpecularLighting18416">
        <fePointLight
           x="-5000"
           y="-10000"
           z="20000"
           id="fePointLight18414" />
      </feSpecularLighting>
      <feComposite
         in="result1"
         in2="fbSourceGraphic"
         operator="in"
         result="result2"
         id="feComposite18418" />
      <feComposite
         in="result2"
         in2="fbSourceGraphic"
         k2="2"
         k3="0.8"
         operator="arithmetic"
         result="result4"
         id="feComposite18420"
         k1="0"
         k4="0" />
      <feBlend
         in="result4"
         in2="result4"
         mode="multiply"
         id="feBlend18422" />
    </filter>
    <linearGradient
       id="m"
       x1="886.13"
       x2="2530"
       y1="2145.2"
       y2="2334.6001"
       gradientUnits="userSpaceOnUse">
      <stop
         stop-color="#28170b"
         offset="0"
         id="stop18425" />
      <stop
         stop-color="#2b1100"
         offset="1"
         id="stop18427" />
    </linearGradient>
    <linearGradient
       id="n"
       x1="2445"
       x2="3903.1001"
       y1="-249.66"
       y2="2449.5"
       gradientTransform="matrix(1.0017,0,0,0.99902,-5.3515,0.03549)"
       gradientUnits="userSpaceOnUse">
      <stop
         stop-color="#2b1100"
         offset="0"
         id="stop18430" />
      <stop
         stop-color="#a40"
         offset="1"
         id="stop18432" />
    </linearGradient>
    <clipPath
       id="h">
      <rect
         x="8.0913"
         y="9.6269999"
         width="3958.1001"
         height="2680.3999"
         fill="#ff0000"
         opacity="0.47083"
         stroke="#000000"
         stroke-width="2.1432"
         id="rect18435" />
    </clipPath>
  </defs>
  <g
     transform="matrix(0.73676021,0,0,0.73676021,483.79185,-1050.1049)"
     id="g18452">
    <g
       transform="matrix(0.16169,0,0,0.16169,-656.7,1429.8)"
       clip-path="url(#h)"
       stroke="#000000"
       id="g18450">
      <path
         d="m 2826.2,1035.2 506.19,141.13 18.711,13.098 31.808,43.97 c 0,0 4.6777,72.036 2.8066,79.52 -1.8711,7.4843 -1.8711,41.164 -1.8711,41.164 l -3.7421,2.8066 -1.8711,29.002 c 0,0 0.9355,12.162 6.5488,13.098 5.6132,0.9355 28.066,0.9355 28.066,0.9355 l 6.5487,-5.6132 2.8066,-26.195 v -5.6132 l 14.969,-108.52 c 0,0 -10.291,-43.97 -13.098,-54.261 -2.8066,-10.291 -37.421,-44.906 -46.777,-53.326 -9.3554,-8.4198 -24.324,-17.775 -24.324,-17.775 0,0 -63.616,-19.646 -74.843,-23.388 -11.226,-3.7421 -49.583,-11.226 -49.583,-11.226 l -2.8066,10.291 4.6776,-4.6777 43.97,-375.15 -52.39,37.421 -35.55,326.5 2.8066,3.7421 -1.871,-6.5487 -309.66,-84.198 z"
         fill="#2b1100"
         filter="url(#j)"
         id="path18440" />
      <path
         d="m 1928.9,2183.9 149.69,64.552 c 0,0 145.94,105.72 147.81,208.62 1.871,102.91 0.9355,152.49 0.9355,152.49 l 0.9355,4.6777 -1.871,42.099 c 0,0 -24.324,22.453 -32.744,21.517 -8.4198,-0.9355 -42.099,-13.098 -42.099,-21.517 0,-8.4198 -3.7421,-58.003 -3.7421,-58.003 l 6.5487,-6.5487 c 0,0 4.6777,-134.72 0.9355,-147.81 -3.7421,-13.098 -40.228,-87.94 -87.005,-110.39 -46.777,-22.453 -855.08,-332.11 -855.08,-332.11 4.2804,-0.8561 -30.542,-5.779 -46.777,0 -6.6451,2.3654 -26.156,32.705 -29.002,41.164 -1.7898,5.3202 1.8711,127.23 1.8711,127.23 l 5.6132,12.162 -3.7422,34.615 c 0,0 -6.5487,10.291 -15.904,11.226 -9.3553,0.9355 -24.324,2.8066 -29.002,0 -4.6777,-2.8066 -15.904,-16.84 -15.904,-16.84 l -4.6777,-48.648 6.5488,-6.5488 -1.8711,-124.43 c 0,0 20.398,-56.641 40.228,-72.972 31.808,-26.195 67.358,-29.937 81.392,-29.002 14.033,0.9355 67.358,17.775 81.392,22.453 14.033,4.6777 40.228,20.582 40.228,20.582 v 11.226 l -17.775,-522.03 72.036,25.259 9.3553,506.12 c -14.124,17.655 -29.365,-17.361 -32.651,-15.124 m 23.008,8.3946 489.72,174.37 m 8.4913,31.593 c -3.7422,0 -3.7422,-0.9355 -14.969,-14.033 -11.226,-13.098 0,0 0,0 l 6.5487,-550.09 c 0,0 27.401,-6.1008 43.055,-1.2428 15.654,4.858 21.146,11.832 21.146,11.832 l -3.6073,548.9 c 0,0 -11.226,9.3554 -15.904,12.162"
         fill="url(#m)"
         filter="url(#i)"
         id="path18442"
         style="fill:url(#m)" />
      <path
         d="m 2054.4,1570.2 c 0,0 -76.714,54.261 -90.747,59.874 -14.033,5.6132 -16.84,26.195 -179.62,-20.582 -162.78,-46.777 -1607.2,-497.7 -1607.2,-497.7 0,0 -11.226,-4.6777 -13.097,-12.162 -1.8711,-7.4843 1.8711,-49.583 1.8711,-49.583 0,0 29.068,-12.094 36.701,-12.094 7.6336,0 1703,535.1 1809,507.45 17.643,49.113 84.399,-33.082 84.399,-33.082 z"
         fill="#2b1100"
         filter="url(#k)"
         id="path18444" />
      <path
         d="m 3925,234.96 c 0,0 22.326,-1.6075 22.872,-3.6011 2.1178,-7.7214 -0.6011,17.106 -2.1486,28.095 -10.453,10.183 -1840.2,1284.9 -1840.2,1284.9 -98.897,70.341 -68.553,104.38 -968.45,-209.95 -89.7,-12.1 -1093.2,-319.1 -1093.2,-319.1 l -13.235,-87.06 1959.3,569.76"
         fill="#2b1100"
         filter="url(#l)"
         id="path18446" />
      <path
         d="m 2689.8,48.05 c 0,0 7.1411,-1.541 19.506,-4.1034 31.616,-6.5519 30.602,-2.9491 52.653,0.36487 465.01,69.885 439.41,56.918 810.22,114.91 0,0 381.37,67.5 374.77,70.519 -6.6305,3.0354 -1938.8,1267.70003 -1950.2,1270.50003 -7.8979,1.9383 -27.004,-3.6807 -27.004,-3.6807 l -1307,-374.7 c 0,0 -596.95,-173.84003 -620.38,-184.12003 -23.406,-10.25 -6.745,-22.77 -6.745,-22.77 7.29,-12.51 2654.1,-866.96 2654.1,-866.96 z"
         fill="url(#n)"
         stroke-width="1.0004"
         id="path18448"
         style="fill:url(#n)" />
    </g>
  </g>
</svg>
