<?xml version="1.0" encoding="UTF-8" standalone="no"?>
<svg
   version="1.1"
   viewBox="0 0 332.59841 472.44094"
   id="svg18754"
   sodipodi:docname="tea.svg"
   width="88mm"
   height="125mm"
   inkscape:version="1.2.2 (732a01da63, 2022-12-09)"
   xmlns:inkscape="http://www.inkscape.org/namespaces/inkscape"
   xmlns:sodipodi="http://sodipodi.sourceforge.net/DTD/sodipodi-0.dtd"
   xmlns="http://www.w3.org/2000/svg"
   xmlns:svg="http://www.w3.org/2000/svg">
  <sodipodi:namedview
     id="namedview18756"
     pagecolor="#505050"
     bordercolor="#eeeeee"
     borderopacity="1"
     inkscape:showpageshadow="0"
     inkscape:pageopacity="0"
     inkscape:pagecheckerboard="0"
     inkscape:deskcolor="#505050"
     showgrid="false"
     inkscape:zoom="0.79124152"
     inkscape:cx="378.51907"
     inkscape:cy="340.60397"
     inkscape:current-layer="svg18754"
     inkscape:document-units="mm" />
  <defs
     id="defs18700">
    <filter
       id="q"
       x="-0.051958781"
       y="-0.18556708"
       width="1.1039176"
       height="1.3711342"
       color-interpolation-filters="sRGB">
      <feGaussianBlur
         stdDeviation="5.4123729"
         id="feGaussianBlur18640" />
    </filter>
    <filter
       id="o"
       color-interpolation-filters="sRGB"
       x="-0.015963792"
       y="-0.057013543"
       width="1.0319276"
       height="1.1140271">
      <feGaussianBlur
         stdDeviation="0.85845753"
         id="feGaussianBlur18643" />
    </filter>
    <filter
       id="u"
       x="-0.067135138"
       y="-0.36529413"
       width="1.1342703"
       height="1.7305883"
       color-interpolation-filters="sRGB">
      <feGaussianBlur
         stdDeviation="2.5875"
         id="feGaussianBlur18646" />
    </filter>
    <filter
       id="r"
       color-interpolation-filters="sRGB"
       x="-0.03492319"
       y="-0.036063323"
       width="1.0698464"
       height="1.0721266">
      <feGaussianBlur
         stdDeviation="1.2989192"
         id="feGaussianBlur18649" />
    </filter>
    <filter
       id="t"
       color-interpolation-filters="sRGB"
       x="-0.0085180247"
       y="-0.046530938"
       width="1.017036"
       height="1.0930619">
      <feGaussianBlur
         stdDeviation="0.688875"
         id="feGaussianBlur18652" />
    </filter>
    <filter
       id="a"
       x="-0.045625608"
       y="-0.11236136"
       width="1.0912512"
       height="1.2247227"
       color-interpolation-filters="sRGB">
      <feGaussianBlur
         stdDeviation="2.2362251"
         id="feGaussianBlur18655" />
    </filter>
    <filter
       id="p"
       color-interpolation-filters="sRGB"
       x="-0.01504274"
       y="-0.059685509"
       width="1.0300855"
       height="1.119371">
      <feGaussianBlur
         stdDeviation="3.0020817"
         id="feGaussianBlur18658" />
    </filter>
    <filter
       id="v"
       x="-0.32946446"
       y="-0.3428064"
       width="1.6589289"
       height="1.6856128"
       color-interpolation-filters="sRGB">
      <feGaussianBlur
         stdDeviation="41.867932"
         id="feGaussianBlur18661" />
    </filter>
    <filter
       id="s"
       x="-0.060434758"
       y="-0.0435103"
       width="1.1208695"
       height="1.0870206"
       color-interpolation-filters="sRGB">
      <feGaussianBlur
         result="fbSourceGraphic"
         stdDeviation="3.8827772"
         id="feGaussianBlur18664" />
      <feColorMatrix
         in="fbSourceGraphic"
         result="fbSourceGraphicAlpha"
         values="0 0 0 -1 0 0 0 0 -1 0 0 0 0 -1 0 0 0 0 1 0"
         id="feColorMatrix18666" />
      <feTurbulence
         baseFrequency="0.05"
         numOctaves="5"
         result="result91"
         type="fractalNoise"
         id="feTurbulence18668" />
      <feDisplacementMap
         in="fbSourceGraphic"
         in2="result91"
         result="result5"
         scale="25"
         xChannelSelector="R"
         id="feDisplacementMap18670"
         yChannelSelector="A" />
      <feComposite
         in="fbSourceGraphic"
         in2="result5"
         operator="atop"
         id="feComposite18672" />
    </filter>
    <radialGradient
       id="x"
       cx="323.37"
       cy="457.92001"
       r="107"
       gradientTransform="matrix(2.9329,6.6487e-7,-5.9363e-7,2.6187,-592.04,-483.97)"
       gradientUnits="userSpaceOnUse">
      <stop
         stop-color="#f9f9f9"
         offset="0"
         id="stop18675" />
      <stop
         stop-color="#ccc"
         stop-opacity="0"
         offset="1"
         id="stop18677" />
    </radialGradient>
    <radialGradient
       id="y"
       cx="130"
       cy="-18.99"
       r="107"
       gradientTransform="matrix(6.1801,1.3483e-7,0,0.94272,-447.03,587.37)"
       gradientUnits="userSpaceOnUse">
      <stop
         stop-color="#f7f7f7"
         offset="0"
         id="stop18680" />
      <stop
         stop-color="#cecece"
         stop-opacity="0"
         offset="1"
         id="stop18682" />
    </radialGradient>
    <radialGradient
       id="z"
       cx="330"
       cy="670.39001"
       r="125.5"
       gradientTransform="matrix(1,0,0,0.28287,0,442.73)"
       gradientUnits="userSpaceOnUse">
      <stop
         stop-color="#e6e6e6"
         offset="0"
         id="stop18685" />
      <stop
         stop-color="#bcbcbc"
         offset="1"
         id="stop18687" />
    </radialGradient>
    <radialGradient
       id="aa"
       cx="317.60001"
       cy="698.26001"
       r="125.5"
       gradientTransform="matrix(1.0364,0.036621,-0.02406,0.42925,5.2527,328.88)"
       gradientUnits="userSpaceOnUse">
      <stop
         stop-color="#978f8f"
         offset="0"
         id="stop18690" />
      <stop
         stop-color="#d1cbcb"
         offset="1"
         id="stop18692" />
    </radialGradient>
    <linearGradient
       id="w"
       x1="588"
       x2="523.82001"
       y1="71.519997"
       y2="172.52"
       gradientTransform="translate(39.51,552.9)"
       gradientUnits="userSpaceOnUse">
      <stop
         stop-color="#808080"
         offset="0"
         id="stop18695" />
      <stop
         stop-color="#808080"
         stop-opacity="0"
         offset="1"
         id="stop18697" />
    </linearGradient>
  </defs>
  <g
     transform="matrix(0.55824351,0,0,0.55824351,-36.265032,-127.16566)"
     id="g18752">
    <path
       transform="matrix(2.1588,0,0,2.449,-338.75,-584.77)"
       d="m 450,617.36 c 0,19.33 -55.964,35 -125,35 -69.036,0 -125,-15.67 -125,-35 0,-19.33 55.964,-35 125,-35 69.036,0 125,15.67 125,35 z"
       fill="#666666"
       filter="url(#q)"
       id="path18702" />
    <path
       transform="matrix(2.0669,0,0,2.1931,-308.88,-420.37)"
       d="m 450,617.36 c 0,19.33 -55.964,35 -125,35 -69.036,0 -125,-15.67 -125,-35 0,-19.33 55.964,-35 125,-35 69.036,0 125,15.67 125,35 z"
       fill="#808080"
       id="path18704" />
    <path
       transform="matrix(2.2416,0,0,2.2416,-367.92,-463.34)"
       d="m 450,617.36 c 0,19.33 -55.964,35 -125,35 -69.036,0 -125,-15.67 -125,-35 0,-19.33 55.964,-35 125,-35 69.036,0 125,15.67 125,35 z"
       fill="#ffffff"
       id="path18706" />
    <path
       transform="matrix(2.2416,0,0,2.2416,-368.48,-467.76)"
       d="m 450,617.36 c 0,19.33 -55.964,35 -125,35 -69.036,0 -125,-15.67 -125,-35 0,-19.33 55.964,-35 125,-35 69.036,0 125,15.67 125,35 z"
       fill="url(#z)"
       id="path18708"
       style="fill:url(#z)" />
    <path
       transform="matrix(1.1896,0,0,1.1331,-26.604,230.01)"
       d="m 450,617.36 c 0,19.33 -55.964,35 -125,35 -69.036,0 -125,-15.67 -125,-35 0,-19.33 55.964,-35 125,-35 69.036,0 125,15.67 125,35 z"
       fill="#bdbdbd"
       filter="url(#o)"
       opacity="0.733"
       stroke="url(#aa)"
       stroke-linecap="round"
       stroke-linejoin="round"
       stroke-width="3.8613"
       id="path18710"
       style="stroke:url(#aa)" />
    <path
       transform="matrix(2.2416,0,0,2.2416,62.966,424.61)"
       d="m 178.5,225.78 c 0,4.6944 -20.707,8.5 -46.25,8.5 -25.543,0 -46.25,-3.8056 -46.25,-8.5 0,-4.6944 20.707,-8.5 46.25,-8.5 25.543,0 46.25,3.8056 46.25,8.5 z"
       fill="#333333"
       filter="url(#u)"
       opacity="0.81199"
       id="path18712" />
    <path
       d="m 556.74,617.46 -1.2322,26.454 c 87.84,-15.545 41.072,72.978 -20,72 l -1,45 c 90.651,8.9594 178.32,-162.67 22.232,-143.45 z"
       fill="#e1e1e1"
       id="path18714" />
    <path
       d="m 573.82,639.15 c 0,0 41.833,0.38063 51.693,7.3189 27.193,19.135 -35.523,96.704 -82.672,75.478 31.459,-3.4205 104.79,-74.757 30.979,-82.797 z"
       fill="url(#w)"
       filter="url(#r)"
       opacity="0.49046"
       id="path18716"
       style="fill:url(#w)" />
    <path
       d="m 360.02,548.66 c -65.086,0 -123.98,6.1223 -166.93,16.041 -21.474,4.9595 -38.975,10.751 -51.487,17.582 -6.2557,3.4158 -11.232,7.036 -14.991,11.278 -3.7585,4.242 -6.4446,9.5514 -6.4446,15.481 0,0 4.4832,336.24 239.85,336.24 235.3668,0 239.85,-336.24 239.85,-336.24 0,-5.9296 -2.6861,-11.239 -6.4446,-15.481 -3.7585,-4.242 -8.7349,-7.8622 -14.991,-11.278 -12.511,-6.8317 -30.012,-12.623 -51.487,-17.582 -42.948,-9.9191 -101.84,-16.041 -166.93,-16.041 z"
       fill="#a9a9a9"
       id="path18718" />
    <path
       d="m 360.02,548.66 c -65.086,0 -123.98,6.1223 -166.93,16.041 -21.474,4.9595 -38.975,10.751 -51.487,17.582 -6.2557,3.4158 -11.232,7.036 -14.991,11.278 -3.7585,4.242 -6.4446,9.5514 -6.4446,15.481 0,0 4.4832,336.24 239.85,336.24 235.3668,0 239.85,-336.24 239.85,-336.24 0,-5.9296 -2.6861,-11.239 -6.4446,-15.481 -3.7585,-4.242 -8.7349,-7.8622 -14.991,-11.278 -12.511,-6.8317 -30.012,-12.623 -51.487,-17.582 -42.948,-9.9191 -101.84,-16.041 -166.93,-16.041 z"
       fill="url(#y)"
       id="path18720"
       style="fill:url(#y)" />
    <path
       d="m 360.03,594.12 c -59.032,0 -112.43,6.2291 -151.38,16.372 -19.477,5.0714 -35.354,11.032 -46.702,18.018 -5.6738,3.4929 -10.215,7.1833 -13.624,11.521 -3.4089,4.3377 -5.8298,9.7889 -5.8298,15.852 0,6.0634 2.4209,11.428 5.8298,15.766 3.4089,4.3377 7.9502,8.0281 13.624,11.521 11.348,6.9858 27.225,13.033 46.702,18.104 38.953,10.143 92.352,16.285 151.38,16.285 59.032,0 112.43,-6.1425 151.38,-16.285 19.477,-5.0714 35.354,-11.119 46.702,-18.104 5.6738,-3.4929 10.215,-7.1833 13.624,-11.521 3.4089,-4.3377 5.8298,-9.7023 5.8298,-15.766 0,-6.0633 -2.4209,-11.515 -5.8298,-15.852 -3.4,-4.3443 -7.94,-8.0347 -13.61,-11.528 -11.35,-6.9854 -27.23,-12.946 -46.7,-18.017 -38.953,-10.143 -92.352,-16.372 -151.38,-16.372 z"
       color="#000000"
       fill="#d3bc5f"
       style="text-indent:0;text-transform:none"
       id="path18722" />
    <path
       d="m 360.03,594.12 c -59.032,0 -112.43,6.2291 -151.38,16.372 -19.477,5.0714 -35.354,11.032 -46.702,18.018 -5.6738,3.4929 -10.215,7.1833 -13.624,11.521 -3.4089,4.3377 -5.8298,9.7889 -5.8298,15.852 0,6.0634 2.4209,11.428 5.8298,15.766 3.4089,4.3377 7.9502,8.0281 13.624,11.521 11.348,6.9858 27.225,13.033 46.702,18.104 38.953,10.143 92.352,16.285 151.38,16.285 59.032,0 112.43,-6.1425 151.38,-16.285 19.477,-5.0714 35.354,-11.119 46.702,-18.104 5.6738,-3.4929 10.215,-7.1833 13.624,-11.521 3.4089,-4.3377 5.8298,-9.7023 5.8298,-15.766 0,-6.0633 -2.4209,-11.515 -5.8298,-15.852 -3.4,-4.3443 -7.94,-8.0347 -13.61,-11.528 -11.35,-6.9854 -27.23,-12.946 -46.7,-18.017 -38.953,-10.143 -92.352,-16.372 -151.38,-16.372 z"
       color="#000000"
       fill="#d3bc5f"
       style="text-indent:0;text-transform:none"
       id="path18724" />
    <path
       transform="matrix(2.2416,0,0,2.2416,64.966,418.65)"
       d="m 131.62,76.281 c -26.335,0 -50.154,2.7876 -67.531,7.3125 -8.6888,2.2624 -15.781,4.9148 -20.844,8.0312 -2.5312,1.5582 -4.5417,3.1899 -6.0625,5.125 -1.5208,1.9351 -2.5938,4.3888 -2.5938,7.0938 0,2.7049 1.073,5.0961 2.5938,7.0312 0.25332,0.32233 0.53115,0.63026 0.8125,0.9375 1.405,-1.5302 5.7116,-0.86075 7.8133,-2.1546 5.0623,-3.1164 12.155,-5.7688 20.844,-8.0312 17.378,-4.5248 38.949,-5.56 65.283,-5.56 26.335,0 48.424,1.4771 65.802,6.002 8.6888,2.2624 15.781,4.9148 20.844,8.0312 2.1017,1.2938 5.2592,0.18246 6.6642,1.7126 0.28135,-0.30724 0.55918,-0.61517 0.8125,-0.9375 1.5208,-1.9351 2.625,-4.3263 2.625,-7.0312 0,-2.7049 -1.1042,-5.1586 -2.625,-7.0938 -1.5208,-1.9351 -3.5313,-3.5668 -6.0625,-5.125 -5.0623,-3.1164 -12.155,-5.7688 -20.844,-8.0312 -17.378,-4.5248 -41.196,-7.3125 -67.531,-7.3125 z"
       color="#000000"
       fill="#d8d8d8"
       filter="url(#t)"
       opacity="0.20163"
       style="text-indent:0;text-transform:none"
       id="path18726" />
    <path
       d="m 120.18,609.03 c 0,0 4.4832,336.27 239.85,336.27 235.3668,0 239.85,-336.27 239.85,-336.27 -59.38,55.195 -185.1,53.863 -239.85,54.247 -47.428,-9.048 -232.78,-4.109 -239.85,-54.247 z"
       fill="#b5b5b5"
       id="path18728" />
    <path
       d="m 120.18,609.03 c 0,0 4.4832,336.27 239.85,336.27 235.3668,0 239.85,-336.27 239.85,-336.27 -59.38,55.195 -185.1,53.863 -239.85,54.247 -47.428,-9.048 -232.78,-4.109 -239.85,-54.247 z"
       fill="url(#x)"
       id="path18730"
       style="fill:url(#x)" />
    <path
       d="m 360.03,548.66 c -65.086,0 -123.96,6.0917 -166.91,16.011 -21.474,4.9595 -38.98,10.789 -51.491,17.62 -6.2557,3.4158 -11.263,7.0248 -15.021,11.267 -3.7585,4.242 -6.4277,9.5729 -6.4277,15.502 0,5.9296 2.6692,11.176 6.4277,15.418 3.7585,4.242 8.7655,7.851 15.021,11.267 12.511,6.8317 30.017,12.745 51.491,17.705 42.948,9.9191 101.82,15.926 166.91,15.926 65.086,0 123.96,-6.007 166.91,-15.926 21.474,-4.9595 38.98,-10.873 51.491,-17.705 6.2557,-3.4158 11.263,-7.0248 15.021,-11.267 3.7585,-4.242 6.4277,-9.4882 6.4277,-15.418 0,-5.9296 -2.6692,-11.26 -6.4277,-15.502 -3.7585,-4.242 -8.7655,-7.851 -15.021,-11.267 C 565.92,575.4593 548.414,569.63 526.94,564.671 483.992,554.7519 425.12,548.66 360.03,548.66 Z m 0,12.283 c 64.563,0 123.01,6.1379 165.02,15.841 21.007,4.8517 37.939,10.632 49.186,16.773 5.6233,3.0705 9.8008,6.2476 12.296,9.0643 2.4956,2.8167 3.144,4.882 3.144,6.4382 0,1.5561 -0.64832,3.5368 -3.144,6.3535 -2.49568,2.8167 -6.6731,5.9938 -12.296,9.0643 -11.247,6.141 -28.178,12.006 -49.186,16.858 -42.01,9.705 -100.45,15.758 -165.02,15.758 -64.559,0 -123.01,-6.053 -165.02,-15.757 -21.007,-4.8514 -37.939,-10.717 -49.186,-16.858 -5.6233,-3.0705 -9.8008,-6.2476 -12.296,-9.0643 -2.4957,-2.8167 -3.144,-4.7973 -3.144,-6.3535 0,-1.5561 0.64831,-3.6215 3.144,-6.4382 2.49569,-2.8167 6.6731,-5.9938 12.296,-9.0643 11.247,-6.141 28.178,-11.921 49.186,-16.773 42.014,-9.703 100.46,-15.841 165.02,-15.841 z"
       color="#000000"
       fill="#ececec"
       style="text-indent:0;text-transform:none"
       id="path18732" />
    <path
       d="m 123.88,651.15 c -0.0585,0.69005 -0.14301,1.4387 -0.14301,2.1447 0,6.5858 2.5886,12.375 6.2912,17.086 3.7026,4.7114 8.6359,8.717 14.799,12.511 12.325,7.5878 29.604,14.152 50.759,19.66 42.314,11.016 100.32,17.729 164.43,17.729 64.119,0 122.12,-6.7129 164.43,-17.73 21.155,-5.5084 38.433,-12.072 50.759,-19.66 6.1627,-3.7939 11.096,-7.7995 14.799,-12.511 3.7026,-4.7115 6.2912,-10.501 6.2912,-17.086 0,-0.70601 -0.0845,-1.4547 -0.14302,-2.1447 -0.55392,5.5917 -2.9085,10.533 -6.1482,14.656 -3.7026,4.7114 -8.6359,8.717 -14.799,12.511 -12.325,7.5877 -29.604,14.152 -50.759,19.66 -42.31,11.017 -100.31,17.73 -164.43,17.73 -64.119,0 -122.12,-6.7129 -164.43,-17.73 -21.155,-5.5084 -38.433,-12.072 -50.759,-19.66 -6.1627,-3.7939 -11.096,-7.7995 -14.799,-12.511 -3.2398,-4.1226 -5.5943,-9.0639 -6.1483,-14.656 z"
       color="#000000"
       fill="#000080"
       style="text-indent:0;text-transform:none"
       id="path18734" />
    <path
       d="m 122.2,632.97 c -0.0589,0.69496 -0.14413,1.449 -0.14413,2.16 0,6.6327 2.607,12.463 6.336,17.208 3.729,4.745 8.6973,8.779 14.904,12.6 12.413,7.6417 29.814,14.252 51.12,19.8 42.615,11.095 101.03,17.856 165.6,17.856 64.575,0 122.99,-6.7607 165.6,-17.856 21.306,-5.5476 38.707,-12.158 51.12,-19.8 6.2066,-3.8209 11.175,-7.855 14.904,-12.6 3.729,-4.745 6.336,-10.575 6.336,-17.208 0,-0.71103 -0.0852,-1.465 -0.14414,-2.16 -0.55786,5.6315 -2.9291,10.608 -6.192,14.76 -3.729,4.745 -8.6974,8.7791 -14.904,12.6 -12.413,7.6417 -29.814,14.252 -51.12,19.8 -42.611,11.095 -101.02,17.856 -165.6,17.856 -64.575,0 -122.99,-6.7607 -165.6,-17.856 -21.305,-5.5476 -38.707,-12.158 -51.12,-19.8 -6.2066,-3.8209 -11.175,-7.855 -14.904,-12.6 -3.2628,-4.1519 -5.6341,-9.1284 -6.192,-14.76 z"
       color="#000000"
       fill="#000080"
       style="text-indent:0;text-transform:none"
       id="path18736" />
    <path
       d="m 142.54,748.42 c -0.0536,0.63132 0.33461,1.4076 0.52534,2.0247 2.1919,7.0922 4.1218,10.541 7.5093,14.852 3.3875,4.3104 6.9286,8.5054 12.567,11.976 11.276,6.9419 27.084,12.947 46.438,17.987 38.709,10.079 91.773,16.221 150.43,16.221 58.661,0 111.72,-6.1416 150.43,-16.221 19.354,-5.0396 35.162,-11.045 46.438,-17.987 5.6382,-3.471 9.6212,-7.5776 13.009,-11.888 3.3875,-4.3105 5.2236,-8.9148 7.0361,-15.065 0.18259,-0.61958 0.5477,-1.3934 0.49409,-2.0247 -3.0996,7.8817 -4.5313,9.3931 -7.7071,13.434 -3.1758,4.041 -7.1937,7.8867 -12.832,11.358 -11.276,6.9419 -27.084,12.947 -46.438,17.987 -38.709,10.079 -91.773,16.221 -150.43,16.221 -58.661,0 -111.73,-6.1416 -150.43,-16.221 -19.354,-5.0396 -35.162,-11.045 -46.438,-17.987 -5.6382,-3.471 -9.8145,-7.7128 -12.744,-11.534 -2.9291,-3.8216 -4.7202,-5.8368 -7.8577,-13.132 z"
       color="#000000"
       fill="#000080"
       style="text-indent:0;text-transform:none"
       id="path18738" />
    <path
       d="m 551.64,649.18 c -42.17,-17.738 -75.54,-24.069 -114,-27.87 l -2.5607,-21.895 c 43.766,3.0836 76.685,9.9042 117.63,27.077 z"
       fill="#ffffff"
       filter="url(#a)"
       opacity="0.13352"
       id="path18740" />
    <path
       d="m 360.03,552.66 c -65.086,0 -123.96,6.0917 -166.91,16.011 -21.474,4.9595 -38.98,10.789 -51.491,17.62 -6.2557,3.4158 -11.263,7.0248 -15.021,11.267 -3.7585,4.242 -2.185,7.4516 -2.185,13.381 0,5.9296 -5.8161,8.7009 -2.0576,12.943 3.7585,4.242 13.008,12.447 19.264,15.863 12.511,6.8317 30.017,12.745 51.491,17.705 42.948,9.9191 101.82,15.926 166.91,15.926 65.086,0 123.96,-6.007 166.91,-15.926 21.474,-4.9595 38.98,-10.873 51.491,-17.705 6.2557,-3.4158 15.152,-10.56 18.91,-14.802 3.7585,-4.242 2.5386,-5.9527 2.5386,-11.882 0,-5.9296 -2.6692,-11.26 -6.4277,-15.502 -3.7585,-4.242 -8.7655,-7.851 -15.021,-11.267 -12.511,-6.8317 -30.017,-12.661 -51.491,-17.62 -42.948,-9.9191 -101.82,-16.011 -166.91,-16.011 z m 0,12.283 c 64.563,0 123.01,6.1379 165.02,15.841 21.007,4.8517 37.939,10.632 49.186,16.773 5.6233,3.0705 6.7956,6.2476 9.2912,9.0643 2.4956,2.8167 3.144,4.882 3.144,6.4382 0,1.5561 -0.64832,3.5368 -3.144,6.3535 -2.49568,2.8167 -3.6679,5.9938 -9.2912,9.0643 -11.24,6.1424 -28.18,12.008 -49.18,16.859 -42.02,9.704 -100.46,15.757 -165.03,15.757 -64.559,0 -123.01,-6.053 -165.02,-15.757 -21.007,-4.851 -37.939,-10.717 -49.186,-16.858 -5.6233,-3.0705 -5.5581,-6.9547 -8.0538,-9.7714 -2.4957,-2.8167 -3.144,-4.7973 -3.144,-6.3535 0,-1.5561 0.64831,-3.6215 3.144,-6.4382 2.49569,-2.8167 2.4305,-5.2867 8.0538,-8.3572 11.247,-6.141 28.178,-11.921 49.186,-16.773 42.014,-9.703 100.46,-15.841 165.02,-15.841 z"
       color="#000000"
       fill="#ececec"
       filter="url(#p)"
       style="text-indent:0;text-transform:none"
       id="path18742" />
    <path
       d="m 149.47,659.18 c 21.683,10.492 31.984,16.172 53.5,13.5 -4.8358,57.382 7.8164,155.25 43,216 -46.509,-59.902 -81.876,-119.9 -96.5,-229.5 z"
       fill="#e6e6e6"
       opacity="0.40055"
       id="path18744" />
    <path
       d="m 262.25,647.99 -22.281,-72.347 -41.071,-74.054 31.497,-84.456 78.828,-56.61 84.054,1.3137 110.61,44.485 -3.2254,117.15 2.3726,70.882 -10.047,18.77 -22.849,32.74 -114.55,7.7782 z"
       fill="#c8b7b7"
       filter="url(#v)"
       opacity="0.22071"
       id="path18746" />
    <path
       d="M 367.61,638.8 C 527.24,611.231 122.83,400.15 421.35,437.98 325.854,408.643 253.96,431.5784 269.2,468.852 c 22.312,54.545 167.28,106.96 98.407,169.95 z"
       fill="#c8b7b7"
       filter="url(#s)"
       opacity="0.12534"
       id="path18748" />
    <path
       d="M 554.64,622.18 C 512.47,604.45 473.6,599.11 435.14,595.31 l 1.9393,-20.895 c 43.766,3.0836 81.185,8.4042 122.13,25.577 z"
       fill="#ffffff"
       filter="url(#a)"
       opacity="0.33787"
       id="path18750" />
  </g>
</svg>
