<?xml version="1.0" encoding="UTF-8" standalone="no"?>
<svg
   viewBox="0 0 472.44095 332.59843"
   version="1.1"
   id="svg28"
   sodipodi:docname="tissue.svg"
   width="125mm"
   height="88mm"
   inkscape:version="1.2.2 (732a01da63, 2022-12-09)"
   xmlns:inkscape="http://www.inkscape.org/namespaces/inkscape"
   xmlns:sodipodi="http://sodipodi.sourceforge.net/DTD/sodipodi-0.dtd"
   xmlns="http://www.w3.org/2000/svg"
   xmlns:svg="http://www.w3.org/2000/svg">
  <defs
     id="defs32" />
  <sodipodi:namedview
     id="namedview30"
     pagecolor="#505050"
     bordercolor="#eeeeee"
     borderopacity="1"
     inkscape:showpageshadow="0"
     inkscape:pageopacity="0"
     inkscape:pagecheckerboard="0"
     inkscape:deskcolor="#505050"
     showgrid="false"
     inkscape:zoom="1.5726829"
     inkscape:cx="226.04684"
     inkscape:cy="223.50341"
     inkscape:current-layer="svg28"
     inkscape:document-units="mm" />
  <path
     d="m 227.00981,285.74194 -82.67235,26.63896 -0.0956,0.0963 -0.14336,0.0642 -0.14336,0.0642 -0.0956,0.0963 -0.71681,0.0963 -0.71681,0.0642 0.0956,-4.97475 q 0.14336,-4.97474 2.05487,-40.43987 1.9115,-35.46512 1.76813,-38.19321 -0.0956,-2.72809 0.62124,-2.79228 0.71681,-0.0963 145.5129,-42.30139 144.79608,-42.2051 150.05269,-43.58519 5.25666,-1.34799 -0.0956,37.32664 -5.39997,38.67464 -69.1007,59.92162 -63.65293,21.27908 -146.32528,47.91804 z"
     fill="#8e908c"
     stroke="#8e908c"
     id="path4"
     style="fill-rule:evenodd;stroke-width:0.195815" />
  <path
     d="m 250.90355,43.263186 0.23894,0.320951 0.14336,0.06419 0.0956,0.09629 0.0956,0.09629 0.14337,0.06419 0.23894,0.320952 0.23893,0.320951 0.14336,0.06419 0.0956,0.09629 0.0956,0.09629 0.14337,0.06419 0.14336,0.06419 0.0956,0.09629 0.0956,0.09629 0.14336,0.06419 0.23894,-0.320952 0.23894,-0.320951 0.23893,-0.320951 0.23894,-0.320952 0.23894,-0.320951 0.23894,-0.320951 6.06901,-8.922448 q 6.11679,-8.890353 7.55042,-9.37178 1.43362,-0.481427 2.77167,-0.385141 1.29027,0.06419 2.38938,-0.962855 1.05132,-1.059139 2.24601,-1.380091 1.19469,-0.320951 4.77875,-0.160475 3.58406,0.160475 8.45838,1.347996 4.92212,1.219615 11.37342,5.391982 6.45132,4.172368 11.23006,10.270444 4.77876,6.098076 6.35574,11.169107 1.5292,5.038934 2.00708,5.777126 0.47787,0.706092 0.95574,0.706092 0.47788,0 1.52921,1.123329 1.0991,1.123329 1.33804,1.444279 l 0.23894,0.320955 0.14336,0.06419 0.0956,0.09629 0.0956,0.09629 0.14336,0.06419 0.14337,-0.06419 0.0956,-0.09629 0.47788,-0.160473 q 0.47787,-0.160477 0.71681,-0.577714 0.23894,-0.385142 1.9115,-1.027043 1.67256,-0.641905 1.67256,-0.962856 0,-0.32095 3.10619,-1.989898 3.10618,-1.701043 5.97344,-1.861516 2.86724,-0.160478 5.73449,1.347993 2.86725,1.540565 2.96283,1.861521 0.14336,0.32095 9.07962,5.616649 8.98405,5.295693 9.9398,6.258549 0.95575,0.962856 2.38937,1.668948 1.43363,0.738188 3.10619,1.925707 1.67256,1.219616 4.53981,2.663895 2.86725,1.444284 2.86725,1.765235 0,0.32095 1.9115,1.123328 1.9115,0.802379 2.00707,1.123329 0.14337,0.320951 3.823,2.407135 3.72743,2.086185 3.823,2.407136 0.14337,0.32095 4.5876,2.952754 4.39645,2.663895 6.06901,3.851415 1.67256,1.21961 4.53981,2.6639 2.86725,1.44428 2.86725,1.76523 0,0.32095 0.47787,0.38514 0.47788,0.0963 0.95575,0.6419 0.47788,0.57771 1.67257,1.15543 1.19469,0.54561 2.86725,1.73313 1.67256,1.21962 3.58406,2.022004 1.9115,0.80237 2.00707,1.12333 0.14336,0.32095 3.15398,1.92571 2.96282,1.60475 3.05839,1.9257 0.14337,0.32095 2.38938,1.66895 2.2938,1.38009 3.96636,2.56761 1.67257,1.21961 2.86725,1.79733 1.19469,0.54561 2.86725,1.73313 1.67256,1.21962 7.50266,4.58961 5.87783,3.36999 7.93268,4.49332 2.00711,1.12333 2.00711,1.44428 0,0.32095 1.43363,0.6419 1.43359,0.32096 1.81592,0.80238 0.3345,0.48143 1.29023,3.69094 0.95576,3.20951 0.23897,4.17237 -0.71684,0.96285 -5.25666,31.13228 -4.53977,30.16943 -6.21233,42.68653 -1.67257,12.5171 -2.96284,13.8651 -1.33805,1.38009 -13.52387,5.55246 -12.18581,4.17236 -54.71667,18.4547 -42.53087,14.28234 -56.86711,18.93613 -14.33625,4.6538 -40.8583,13.15901 -26.52206,8.50521 -36.55743,11.71472 -10.03537,3.20951 -43.24767,13.96138 -33.21231,10.75187 -46.35387,15.08472 -13.14156,4.33284 -16.48668,4.33284 -3.34512,0 -4.39645,-0.54561 -1.09911,-0.57772 -1.81593,-2.50343 -0.71681,-1.9257 -1.19468,-2.40713 -0.47788,-0.48143 -59.399844,-40.2152 -58.874185,-39.70169 -59.256485,-42.36558 -0.334512,-2.63181 0.143362,-3.43419 0.477875,-0.80237 3.822999,-43.16795 3.345124,-42.36558 5.017687,-43.97034 1.672561,-1.60476 56.006934,-16.43271 l 54.382157,-14.86005 0.47787,-0.16047 0.47788,-0.16048 0.47787,-0.0963 0.47788,-0.0642 v -0.64191 l -0.47788,-0.0642 -0.47787,-0.0963 -0.0956,-0.0963 -0.14337,-0.0642 -0.23894,-0.32095 q -0.23893,-0.32095 -1.05132,-0.6419 -0.86017,-0.32095 -3.01061,-2.24666 -2.15044,-1.92571 -2.62831,-1.9899 -0.47788,-0.0963 -1.9115,-1.21961 -1.43363,-1.12333 -13.85837,-12.838064 Q 96.550173,79.691115 91.675853,74.138657 86.753736,68.618295 86.753736,62.520218 q 0,-6.098072 2.389377,-9.789014 2.38938,-3.690942 5.11326,-5.552459 2.77167,-1.829423 4.44424,-3.016943 1.672557,-1.219615 2.150427,-1.283805 0.47788,-0.09629 1.91151,-1.155425 1.43362,-1.027044 9.07962,-2.695991 7.64599,-1.701043 14.33624,-2.824373 6.69025,-1.123329 24.37162,0.160476 17.68137,1.283806 20.07075,2.150375 l 2.38937,0.898663 4.06194,-6.419027 q 4.06193,-6.419027 4.53981,-6.419027 0.47787,0 -1.05133,-2.24666 -1.57698,-2.246659 -1.33805,-3.69094 0.23894,-1.444281 2.2938,-3.626751 2.00708,-2.150374 3.67964,-3.594655 1.67256,-1.444281 3.823,-1.925708 2.15043,-0.481427 7.40706,-0.802378 5.25662,-0.320952 7.74157,0.417237 2.53274,0.706092 9.07962,4.076082 6.59468,3.369989 8.26724,4.589604 1.67256,1.18752 6.92918,4.300748 5.25663,3.145324 8.21945,5.712935 3.01061,2.56761 8.50618,7.863308 5.49556,5.295697 5.73449,5.616649 z m -27.14329,101.163874 -0.0956,0.0963 -0.71682,0.16048 -0.71681,0.16048 -0.47787,0.16047 -0.47788,0.16048 h -1.43362 l 0.0956,-0.0963 0.14337,-0.0642 0.23893,-0.32095 0.23894,-0.32095 0.23894,-0.32095 0.23894,-0.32096 0.23893,-0.32095 0.23894,-0.32095 0.23894,-0.32095 q 0.23893,-0.32095 9.31856,-13.159 9.07962,-12.83806 9.07962,-14.76377 v -1.92571 l -0.23894,-0.32095 -0.23894,-0.32095 -0.14336,-0.0642 -0.0956,-0.0963 -0.47788,-0.16047 -0.47787,-0.16048 -0.0956,-0.0963 -0.14336,-0.0642 -0.14336,-0.0642 -0.0956,-0.0963 -0.71681,-0.16048 -0.71681,-0.16047 -2.2938,0.22467 q -2.24601,0.25676 -3.67964,1.70104 -1.43362,1.44428 -11.94687,16.36852 -10.51325,14.92424 -10.27431,16.68947 0.23894,1.76523 0.57345,2.15037 0.3823,0.41724 -16.10438,5.39199 -16.48668,4.97474 -17.2035,5.13522 l -0.71681,0.16047 -0.0956,0.0963 -0.14336,0.0642 -0.14336,0.0642 -0.0956,0.0963 -0.71681,0.16048 -0.71681,0.16048 -0.47788,0.16047 -0.47787,0.16048 h -0.95575 l 0.0956,-0.0963 0.14337,-0.0642 0.14336,-0.0642 0.0956,-0.0963 0.0956,-0.0963 0.14336,-0.0642 0.14337,-0.0642 0.0956,-0.0963 0.0956,-0.0963 0.14336,-0.0642 0.14336,-0.0642 0.0956,-0.0963 0.0956,-0.0963 0.14336,-0.0642 0.14337,-0.0642 0.0956,-0.0963 0.0956,-0.0963 0.14336,-0.0642 0.14336,-0.0642 0.0956,-0.0963 0.0956,-0.0963 0.14336,-0.0642 0.23894,-0.32095 q 0.23893,-0.32095 5.25662,-8.50521 l 5.01769,-8.18426 0.14336,-0.0642 0.0956,-0.0963 0.71682,-0.16048 0.71681,-0.16047 0.0956,-0.0963 0.14336,-0.0642 0.14336,-0.0642 0.0956,-0.0963 0.0956,-0.0963 0.14336,-0.0642 0.14337,-0.0642 0.0956,-0.0963 0.0956,-0.0963 0.14336,-0.0642 0.14336,-0.0642 0.0956,-0.0963 0.0956,-0.0963 0.14337,-0.0642 v 0.96285 l 0.23893,2.40713 q 0.23894,2.40714 0.86017,2.79228 0.57346,0.41724 0.66903,0.51352 l 0.14336,0.0642 0.14336,0.0642 0.0956,0.0963 0.47788,0.16048 0.47787,0.16047 h 4.30087 l 0.47788,-0.16047 q 0.47787,-0.16048 1.33805,-0.57771 0.81239,-0.38515 9.17519,-35.52932 8.36282,-35.14418 10.51325,-45.414622 2.15044,-10.270442 0.23894,-12.998528 -1.9115,-2.72809 -13.23713,-16.272236 -11.37343,-13.576243 -11.75573,-14.31443 l -0.33451,-0.706094 0.23894,-0.320951 0.23894,-0.320951 0.14336,-0.06419 0.0956,-0.09628 0.0956,-0.09629 0.14336,-0.06419 0.23894,-0.320952 0.23894,-0.320951 0.14336,-0.06419 0.0956,-0.09628 0.0956,-0.09629 0.14336,-0.06419 0.14337,-0.06419 0.0956,-0.09629 0.0956,-0.09629 0.14336,-0.06419 0.14336,-0.06419 0.0956,-0.09629 h 3.58407 q 3.58406,0 8.45838,2.663897 4.92211,2.631801 5.06547,2.952752 0.0956,0.320951 2.00708,1.12333 1.9115,0.802378 2.86725,1.765232 0.95575,0.962854 3.823,2.407135 2.86725,1.444282 4.53981,2.663897 1.67256,1.18752 4.92211,3.979797 3.20176,2.824371 11.56457,11.169106 8.36281,8.344736 8.50617,8.665686 0.0956,0.32095 0.57345,0.32095 0.47788,0 3.4407,3.209514 3.01061,3.209514 3.15398,3.690942 0.0956,0.481428 0.57345,0.481428 0.47787,0 3.4407,3.209513 3.01061,3.209514 5.87786,5.295699 2.86724,2.086185 1.9115,5.295699 -0.95575,3.209508 -8.84069,20.219934 -7.88493,17.010424 -14.43182,29.848474 -6.59467,12.83806 -13.85837,14.92424 -7.31149,2.08619 -7.45485,2.15038 z m 66.23346,-20.28413 0.0956,0.64191 -0.71681,0.0642 -0.71681,0.0963 -0.47788,0.16048 -0.47787,0.16047 -0.47788,0.16048 -0.47787,0.16047 -0.47788,0.16048 -0.47787,0.16047 -0.47787,0.16048 -0.47788,0.16047 -0.47787,0.0963 -0.47788,0.0642 0.0956,-0.80238 0.14337,-0.80237 0.23894,-0.80238 q 0.23893,-0.80238 0.95575,-2.88857 0.71681,-2.08618 2.38937,-9.14711 1.67256,-7.06093 1.19469,-7.86331 l -0.47788,-0.80238 -0.14336,-0.0642 -0.0956,-0.0963 -0.0956,-0.0963 -0.14336,-0.0642 -0.14337,-0.0642 -0.0956,-0.0963 -0.0956,-0.0963 -0.14337,-0.0642 -0.14336,-0.0642 -0.0956,-0.0963 -0.71681,-0.16048 -0.71681,-0.16048 h -3.34513 l -1.52919,0.73819 q -1.57699,0.7061 -5.73451,14.18605 -4.20529,13.47996 -11.46899,15.56614 -7.31149,2.08619 -7.45485,2.15038 l -0.0956,0.0963 -0.47788,0.16048 -0.47787,0.16047 -0.71681,0.16048 -0.71682,0.16048 -0.47787,0.0963 -0.47788,0.0642 0.0956,-0.32095 0.14336,-0.32095 0.23894,-0.48143 0.23894,-0.48143 8.60175,-17.49185 q 8.60174,-17.491844 13.38049,-28.564669 4.77875,-11.072825 7.40706,-18.133753 2.62831,-7.060928 2.38938,-10.430919 -0.23894,-3.369992 -2.62832,-12.356628 -2.38937,-8.986637 -2.15044,-11.233297 0.23894,-2.24666 1.05133,-4.108177 0.86017,-1.829423 3.48849,-1.412186 2.62831,0.385142 2.86725,0.770283 0.23893,0.417237 0.71681,0.513522 0.47787,0.06419 0.95575,0.641903 0.47787,0.545618 0.95575,0.641903 0.47787,0.06419 2.15043,1.283805 1.67257,1.18752 3.96636,3.209514 2.24602,1.989898 5.3522,5.841315 3.10619,3.851415 4.87433,9.692729 1.81592,5.873413 7.07255,10.527206 5.25662,4.653793 6.30794,5.520362 1.09912,0.898665 -5.44777,7.47817 -6.59467,6.5795 -7.07255,6.5795 -0.47787,0 -3.91857,3.530464 -3.48849,3.530469 -8.98405,13.800913 -5.49556,10.27044 -5.49556,14.92424 0,4.65379 0.23894,6.41902 0.23893,1.76524 0.3823,2.40714 z m -86.87765,-73.818814 0.23893,0.32095 0.23894,0.32095 0.23894,0.320956 0.23894,0.32095 0.23893,0.32095 0.23894,0.320951 0.23894,0.32095 0.14336,0.320951 0.0956,0.320955 -0.71681,-0.06419 -0.71681,-0.09629 -0.0956,-0.09629 -0.14337,-0.06419 -0.14336,-0.06419 -0.0956,-0.09629 -0.71682,-0.160478 -0.71681,-0.160472 -7.16812,-2.471327 q -7.16812,-2.503421 -7.16812,-2.824373 0,-0.320951 -2.48495,-1.44428 -2.53274,-1.12333 -2.05487,-2.407135 0.47788,-1.283806 3.01062,-5.456174 2.48495,-4.172368 3.53627,-3.530465 1.09911,0.641903 7.31148,8.18426 6.21238,7.542358 6.45132,7.863309 z m 70.34318,14.603284 -0.0956,0.481428 h -0.71681 q -0.71681,0 -6.54688,-6.25855 -5.87787,-6.258554 -1.33805,-12.838055 4.5398,-6.579503 7.16812,3.049037 2.62831,9.628541 2.15044,12.356626 -0.47788,2.728091 -0.62124,3.209514 z m -68.33611,-5.038934 0.62124,-0.25676 0.14336,-0.06419 0.0956,-0.09629 0.47788,-0.09629 0.47787,-0.06419 -0.0956,0.320955 -0.14336,0.320951 -8.12387,34.662754 q -8.12388,34.662744 -8.36281,35.465114 l -0.23894,0.80238 -0.23894,0.96285 -0.23894,0.96286 -0.23893,0.32095 -0.23894,0.32096 v -2.08619 q 0,-2.08618 0,-10.43092 0,-8.34474 -12.28139,-20.4767 Q 164.4082,88.356847 161.54095,88.196369 l -2.86725,-0.160473 -0.47787,0.160473 -0.47788,0.160478 -0.0956,0.09629 -0.14336,0.06419 -0.14337,0.06419 -0.0956,0.09629 -0.0956,0.09629 -0.14336,0.06419 -0.14336,0.06419 -0.0956,0.09629 -0.0956,0.09629 -0.14336,0.06419 -0.23894,0.320951 -0.23894,0.320958 v 1.76523 q 0,1.76523 10.99113,12.677584 10.99112,10.91234 10.99112,16.20804 0,5.2957 -0.14337,8.18426 l -0.0956,2.88856 -0.47787,-0.0642 -0.47788,-0.0963 -0.0956,-0.0963 -0.14336,-0.0642 -0.23893,-0.32095 -0.23894,-0.32095 -0.23894,-0.32095 -0.23894,-0.32095 -0.14336,-0.0642 -0.0956,-0.0963 -0.0956,-0.0963 -0.14337,-0.0642 -0.14336,-0.0642 q -0.0956,-0.0963 -1.91149,-1.79733 -1.76814,-1.66894 -5.92566,-4.30074 -4.20529,-2.6639 -5.63892,-3.85142 -1.43362,-1.21961 -2.62831,-1.79733 -1.19469,-0.54561 -2.86725,-1.73313 -1.67256,-1.21962 -3.10619,-1.92571 -1.43362,-0.73819 -3.58406,-2.43923 -2.15043,-1.66895 -2.62831,-1.73314 -0.47787,-0.0963 -0.95575,-0.6419 -0.47787,-0.57771 -1.9115,-1.21962 -1.43362,-0.6419 -3.58406,-2.56761 -2.15044,-1.9257 -2.62831,-1.9899 -0.47788,-0.0963 -0.95575,-0.6419 -0.47787,-0.57771 -0.95575,-0.6419 -0.47787,-0.0963 -1.9115,-1.47638 -1.43363,-1.347994 -1.9115,-1.412184 -0.47788,-0.0963 -0.95575,-0.64191 -0.47788,-0.57771 -0.95575,-0.6419 -0.47787,-0.0963 -12.66368,-11.811012 -12.18581,-11.714726 -15.91324,-15.983377 -3.679627,-4.236556 -3.918567,-7.606548 -0.23894,-3.369991 1.9115,-6.579505 2.150437,-3.209513 5.830067,-5.295693 3.72743,-2.086185 3.72743,-2.407136 0,-0.320952 0.71681,-0.577713 0.71681,-0.224666 10.51324,-2.471326 9.79644,-2.246659 12.42475,-2.407135 2.62832,-0.160476 17.2035,0.962854 14.57518,1.12333 22.46012,4.974748 7.88493,3.851415 17.44243,7.381879 9.5575,3.530464 12.18581,3.690942 2.62831,0.160473 3.20176,-0.06419 z m 242.28254,68.747784 0.1434,0.32095 0.14336,0.0642 0.0956,0.0963 0.47786,0.16047 0.47786,0.16048 0.0956,0.0963 0.14336,0.0642 v 0.96285 l -0.14336,0.0642 -0.0956,0.0963 -0.71679,0.16048 -0.71684,0.16048 -0.0956,0.0963 -0.14336,0.0642 -0.14336,0.0642 q -0.0956,0.0963 -147.99784,43.26424 -147.90228,43.16796 -150.76952,43.64939 -2.86725,0.48143 -3.58406,-0.25676 -0.71682,-0.70609 -2.62832,-1.50847 -1.9115,-0.80238 -1.9115,-1.12334 0,-0.32095 -0.47787,-0.38514 -0.47788,-0.0963 -0.95575,-0.6419 -0.47788,-0.57771 -3.10619,-1.54056 -2.62831,-0.96286 -2.62831,-1.28381 0,-0.32095 -0.47788,-0.32095 -0.47787,0 -1.05132,-0.80238 -0.62124,-0.80238 -13.38049,-9.40388 -12.80705,-8.56939 -14.47961,-9.75691 -1.67256,-1.21962 -2.15044,-1.28381 -0.47788,-0.0963 -6.451307,-4.10818 -5.97344,-4.01189 -7.646001,-5.19941 -1.672561,-1.21962 -6.929184,-4.26865 -5.256623,-3.04904 -6.451313,-4.17237 -1.194685,-1.12333 -9.892007,-6.5795 -8.745112,-5.45618 -14.145097,-8.82617 -5.352199,-3.36999 -6.546886,-4.49332 -1.194687,-1.12332 -4.157512,-2.88856 l -3.010611,-1.76523 -0.143363,-0.0642 -0.09557,-0.0963 -0.09558,-0.0963 -0.143362,-0.0642 -0.143362,-0.0642 -0.09557,-0.0963 -0.09558,-0.0963 -0.143363,-0.0642 -0.143362,-0.0642 -0.09558,-0.0963 -0.09557,-0.0963 -0.143363,-0.0642 -0.143362,-0.0642 -0.09557,-0.0963 0.09557,-0.0963 0.143362,-0.0642 0.143363,-0.0642 0.09557,-0.0963 0.477875,-0.16048 0.477874,-0.16047 0.477875,-0.16048 0.477875,-0.16047 51.514911,-14.02558 q 51.46713,-14.05767 51.61049,-14.37862 0.0956,-0.32095 1.1469,0 1.09911,0.32095 2.19822,1.28381 1.05133,0.96285 1.9115,1.2838 0.81239,0.32095 0.95575,0.64191 0.0956,0.32095 8.31503,5.29569 8.26723,4.97475 13.28492,9.78902 5.01768,4.81427 0.71681,11.71472 -4.30088,6.90046 -17.53801,13.57625 -13.28492,6.64369 -13.7628,6.73997 -0.47787,0.0642 -0.47787,0.38514 0,0.32096 -1.5292,1.28381 -1.57699,0.96286 -2.19822,1.9899 -0.57346,1.05914 -1.1469,1.60476 -0.62124,0.57771 -0.62124,2.02199 0,1.44428 0.23893,1.92571 l 0.23894,0.48143 0.14337,0.0642 0.0956,0.0963 0.0956,0.0963 0.14336,0.0642 0.14336,0.0642 0.0956,0.0963 0.47788,0.16048 0.47788,0.16047 h 2.86725 q 2.86724,0 99.6369,-29.04609 96.76967,-29.0461 97.62984,-29.78429 0.81239,-0.70609 0.81239,-1.9899 v -1.2838 l -0.23894,-0.48143 -0.23894,-0.48143 -0.14336,-0.0642 -0.0956,-0.0963 -0.0956,-0.0963 q -0.14336,-0.0642 -0.7646,-0.44933 -0.57345,-0.41724 -13.71501,-0.89866 -13.14155,-0.48143 -14.19288,0.0642 l -1.09911,0.57772 -0.14337,0.0642 -0.0956,0.0963 -0.0956,0.0963 -0.14336,0.0642 -0.23894,0.32095 -0.23893,0.32095 0.23893,1.60476 q 0.23894,1.60476 0.86018,2.18247 0.57345,0.54562 1.29026,0.70609 l 0.71682,0.16048 0.0956,0.0963 0.14336,0.0642 v 0.32095 l -0.14336,0.0642 -0.0956,0.0963 -0.47788,0.16048 -0.47787,0.16047 -0.47788,0.16048 -0.47788,0.16047 -0.71681,0.16048 -0.71681,0.16047 -0.47788,0.16048 -0.47787,0.16047 -0.0956,0.0963 -0.14337,0.0642 -0.14336,-0.0642 -0.0956,-0.0963 -0.0956,-0.0963 -0.14336,-0.0642 v -4.97475 q 0,-4.97475 5.39998,-14.5391 5.3522,-9.532254 13.47608,-17.331369 8.12387,-7.767025 8.60174,-7.767025 0.47788,0 2.48495,-2.407135 2.05486,-2.407136 2.05486,-4.332843 0,-1.925707 -1.09911,-2.952754 -1.05132,-1.059138 0.62124,-1.797325 1.67256,-0.706092 3.10618,-1.733139 1.43363,-1.059138 2.38938,-1.380088 0.95575,-0.320956 6.78582,3.113227 5.87786,3.466273 6.02123,3.787223 0.0956,0.320955 5.73449,3.690942 5.59114,3.369991 12.75927,7.702834 7.16812,4.332842 7.31148,4.653793 0.0956,0.32095 2.72389,1.604756 2.62831,1.283807 4.30087,2.503422 1.67256,1.187517 10.51325,6.643687 8.84068,5.456184 9.31856,5.552464 0.47787,0.0642 2.15043,1.28381 1.67257,1.18752 2.38938,1.92571 0.71681,0.70609 2.86725,1.41218 2.15044,0.73819 4.77875,2.88857 2.62831,2.18246 3.48848,2.50341 0.81239,0.32096 0.95575,0.64191 0.0956,0.32095 1.76814,0.96285 1.67256,0.64191 3.34512,1.86152 1.67257,1.18752 8.84069,5.45617 7.16814,4.23656 8.3628,5.35989 1.1947,1.12333 3.10619,1.92571 1.91149,0.80238 2.00706,1.12333 z m -220.39587,157.10569 -82.67235,26.63896 -0.0956,0.0963 -0.14336,0.0642 -0.14336,0.0642 -0.0956,0.0963 -0.71681,0.0963 -0.71681,0.0642 0.0956,-4.97475 q 0.14336,-4.97474 2.05487,-40.43987 1.9115,-35.46512 1.76813,-38.19321 -0.0956,-2.72809 0.62124,-2.79228 0.71681,-0.0963 145.5129,-42.30139 144.79608,-42.2051 150.05269,-43.58519 5.25666,-1.34799 -0.0956,37.32664 -5.39997,38.67464 -69.1007,59.92162 -63.65293,21.27908 -146.32528,47.91804 z m -95.00152,17.1709 -0.0956,3.20951 -0.47788,-0.0642 -0.47787,-0.0963 -0.0956,-0.0963 -0.14337,-0.0642 -0.14336,-0.0642 -0.0956,-0.0963 -0.47787,-0.16048 -0.47787,-0.16048 -0.0956,-0.0963 -0.14336,-0.0642 -4.15751,-2.95276 q -4.2053,-2.98484 -4.68318,-3.08113 -0.47787,-0.0642 -0.95575,-0.6419 -0.47787,-0.54562 -0.95575,-0.6419 -0.47787,-0.0642 -3.82299,-2.56762 -3.34513,-2.47132 -3.82301,-2.56761 -0.47787,-0.0642 -5.49555,-3.65884 -5.01769,-3.62675 -42.865377,-29.07819 -37.895478,-25.41935 -38.61229,-27.50554 -0.716813,-2.08618 -0.716813,-5.13522 0,-3.04904 3.010612,-38.35369 2.962824,-35.30464 6.690248,-33.21846 3.679637,2.08618 3.822999,2.40713 0.09557,0.32095 5.352199,3.37 5.256624,3.04903 6.45131,4.17236 1.194686,1.12333 2.054864,1.44428 0.812387,0.32095 0.95575,0.6419 0.09557,0.32096 0.955746,0.64191 0.812388,0.32095 0.955751,0.6419 0.09558,0.32095 3.679638,2.24666 3.584062,1.92571 5.734498,3.59465 2.150436,1.70105 8.840684,5.77713 6.690248,4.10818 8.362809,5.32779 1.672566,1.18752 8.267237,5.45618 6.546888,4.23655 6.690248,4.55751 0.0956,0.32095 5.447767,3.69093 5.39999,3.37 8.0283,4.97475 2.62831,1.60476 2.77168,1.92571 0.0956,0.32095 5.44777,3.69094 5.39998,3.36999 11.94687,7.2856 6.59468,3.9477 7.07255,4.04399 0.47788,0.0642 -1.5292,39.05977 -2.05486,38.99559 -2.19822,42.20511 z"
     fill="#12130f"
     stroke="#12130f"
     id="path6"
     style="fill-rule:evenodd;stroke-width:0.195815" />
  <path
     d="m 447.40568,128.63625 0.1434,0.32095 0.14336,0.0642 0.0956,0.0963 0.47786,0.16047 0.47786,0.16048 0.0956,0.0963 0.14336,0.0642 v 0.96285 l -0.14336,0.0642 -0.0956,0.0963 -0.71679,0.16048 -0.71684,0.16048 -0.0956,0.0963 -0.14336,0.0642 -0.14336,0.0642 q -0.0956,0.0963 -147.99784,43.26424 -147.90228,43.16796 -150.76952,43.64939 -2.86725,0.48143 -3.58406,-0.25676 -0.71682,-0.70609 -2.62832,-1.50847 -1.9115,-0.80238 -1.9115,-1.12334 0,-0.32095 -0.47787,-0.38514 -0.47788,-0.0963 -0.95575,-0.6419 -0.47788,-0.57771 -3.10619,-1.54056 -2.62831,-0.96286 -2.62831,-1.28381 0,-0.32095 -0.47788,-0.32095 -0.47787,0 -1.05132,-0.80238 -0.62124,-0.80238 -13.38049,-9.40388 -12.80705,-8.56939 -14.47961,-9.75691 -1.67256,-1.21962 -2.15044,-1.28381 -0.47788,-0.0963 -6.451307,-4.10818 -5.97344,-4.01189 -7.646001,-5.19941 -1.672561,-1.21962 -6.929184,-4.26865 -5.256623,-3.04904 -6.451313,-4.17237 -1.194685,-1.12333 -9.892007,-6.5795 -8.745112,-5.45618 -14.145097,-8.82617 -5.352199,-3.36999 -6.546886,-4.49332 -1.194687,-1.12332 -4.157512,-2.88856 l -3.010611,-1.76523 -0.143363,-0.0642 -0.09557,-0.0963 -0.09558,-0.0963 -0.143362,-0.0642 -0.143362,-0.0642 -0.09557,-0.0963 -0.09558,-0.0963 -0.143363,-0.0642 -0.143362,-0.0642 -0.09558,-0.0963 -0.09557,-0.0963 -0.143363,-0.0642 -0.143362,-0.0642 -0.09557,-0.0963 0.09557,-0.0963 0.143362,-0.0642 0.143363,-0.0642 0.09557,-0.0963 0.477875,-0.16048 0.477874,-0.16047 0.477875,-0.16048 0.477875,-0.16047 51.514911,-14.02558 q 51.46713,-14.05767 51.61049,-14.37862 0.0956,-0.32095 1.1469,0 1.09911,0.32095 2.19822,1.28381 1.05133,0.96285 1.91149,1.2838 0.81239,0.32095 0.95575,0.64191 0.0956,0.32095 8.31503,5.29569 8.26724,4.97475 13.28492,9.78902 5.01769,4.81427 0.71682,11.71472 -4.30089,6.90046 -17.53801,13.57625 -13.28492,6.64369 -13.7628,6.73997 -0.47787,0.0642 -0.47787,0.38514 0,0.32096 -1.5292,1.28381 -1.57699,0.96286 -2.19822,1.9899 -0.57346,1.05914 -1.1469,1.60476 -0.62124,0.57771 -0.62124,2.02199 0,1.44428 0.23893,1.92571 l 0.23894,0.48143 0.14337,0.0642 0.0956,0.0963 0.0956,0.0963 0.14336,0.0642 0.14336,0.0642 0.0956,0.0963 0.47788,0.16048 0.47788,0.16047 h 2.86725 q 2.86724,0 99.6369,-29.04609 96.76967,-29.0461 97.62984,-29.78429 0.81239,-0.70609 0.81239,-1.9899 v -1.2838 l -0.23894,-0.48143 -0.23894,-0.48143 -0.14336,-0.0642 -0.0956,-0.0963 -0.0956,-0.0963 q -0.14336,-0.0642 -0.7646,-0.44933 -0.57345,-0.41724 -13.71501,-0.89866 -13.14155,-0.48143 -14.19288,0.0642 l -1.09911,0.57772 -0.14337,0.0642 -0.0956,0.0963 -0.0956,0.0963 -0.14336,0.0642 -0.23894,0.32095 -0.23893,0.32095 0.23893,1.60476 q 0.23894,1.60476 0.86018,2.18247 0.57345,0.54562 1.29026,0.70609 l 0.71682,0.16048 0.0956,0.0963 0.14336,0.0642 v 0.32095 l -0.14336,0.0642 -0.0956,0.0963 -0.47788,0.16048 -0.47787,0.16047 -0.47788,0.16048 -0.47788,0.16047 -0.71681,0.16048 -0.71681,0.16047 -0.47789,0.16048 -0.47787,0.16047 -0.0956,0.0963 -0.14337,0.0642 -0.14335,-0.0642 -0.0956,-0.0963 -0.0956,-0.0963 -0.14336,-0.0642 v -4.97475 q 0,-4.97475 5.39998,-14.5391 5.3522,-9.532254 13.47608,-17.331369 8.12387,-7.767025 8.60174,-7.767025 0.47788,0 2.48495,-2.407135 2.05486,-2.407136 2.05486,-4.332843 0,-1.925707 -1.09911,-2.952754 -1.05132,-1.059138 0.62124,-1.797325 1.67256,-0.706092 3.10618,-1.733139 1.43363,-1.059138 2.38938,-1.380088 0.95575,-0.320956 6.78582,3.113227 5.87786,3.466273 6.02123,3.787223 0.0956,0.320955 5.73449,3.690942 5.59114,3.369991 12.75927,7.702834 7.16812,4.332842 7.31148,4.653793 0.0956,0.32095 2.72389,1.604756 2.62831,1.283807 4.30087,2.503422 1.67256,1.187517 10.51325,6.643687 8.84068,5.456184 9.31856,5.552464 0.47787,0.0642 2.15043,1.28381 1.67257,1.18752 2.38938,1.92571 0.71681,0.70609 2.86725,1.41218 2.15044,0.73819 4.77875,2.88857 2.62831,2.18246 3.48848,2.50341 0.81239,0.32096 0.95575,0.64191 0.0956,0.32095 1.76814,0.96285 1.67256,0.64191 3.34512,1.86152 1.67257,1.18752 8.84069,5.45617 7.16814,4.23656 8.3628,5.35989 1.1947,1.12333 3.10619,1.92571 1.91149,0.80238 2.00706,1.12333 z"
     fill="#8f908c"
     stroke="#8f908c"
     id="path8"
     style="fill-rule:evenodd;stroke-width:0.195815" />
  <path
     d="m 132.00829,302.91284 -0.0956,3.20951 -0.47788,-0.0642 -0.47787,-0.0963 -0.0956,-0.0963 -0.14337,-0.0642 -0.14336,-0.0642 -0.0956,-0.0963 -0.47787,-0.16048 -0.47787,-0.16048 -0.0956,-0.0963 -0.14336,-0.0642 -4.15751,-2.95276 q -4.2053,-2.98484 -4.68318,-3.08113 -0.47787,-0.0642 -0.95575,-0.6419 -0.47787,-0.54562 -0.95575,-0.6419 -0.47787,-0.0642 -3.82299,-2.56762 -3.34513,-2.47132 -3.82301,-2.56761 -0.47787,-0.0642 -5.49555,-3.65884 -5.01769,-3.62675 -42.865377,-29.07819 -37.895478,-25.41935 -38.61229,-27.50554 -0.716813,-2.08618 -0.716813,-5.13522 0,-3.04904 3.010612,-38.35369 2.962824,-35.30464 6.690248,-33.21846 3.679637,2.08618 3.822999,2.40713 0.09557,0.32095 5.352199,3.37 5.256624,3.04903 6.45131,4.17236 1.194686,1.12333 2.054864,1.44428 0.812387,0.32095 0.95575,0.6419 0.09557,0.32096 0.955746,0.64191 0.812388,0.32095 0.955751,0.6419 0.09558,0.32095 3.679638,2.24666 3.584062,1.92571 5.734498,3.59465 2.150436,1.70105 8.840684,5.77713 6.690248,4.10818 8.362809,5.32779 1.672566,1.18752 8.267237,5.45618 6.546888,4.23655 6.690248,4.55751 0.0956,0.32095 5.447767,3.69093 5.39999,3.37 8.0283,4.97475 2.62831,1.60476 2.77168,1.92571 0.0956,0.32095 5.44777,3.69094 5.39998,3.36999 11.94687,7.2856 6.59468,3.9477 7.07255,4.04399 0.47788,0.0642 -1.5292,39.05977 -2.05486,38.99559 -2.19822,42.20511 z"
     fill="#8e908c"
     stroke="#8e908c"
     id="path10"
     style="fill-rule:evenodd;stroke-width:0.195815" />
  <path
     d="m 205.12314,59.888466 0.62124,-0.25676 0.14336,-0.06419 0.0956,-0.09629 0.47788,-0.09629 0.47787,-0.06419 -0.0956,0.320955 -0.14336,0.320951 -8.12387,34.662754 q -8.12388,34.662744 -8.36281,35.465114 l -0.23894,0.80238 -0.23894,0.96285 -0.23894,0.96286 -0.23893,0.32095 -0.23894,0.32096 v -2.08619 q 0,-2.08618 0,-10.43092 0,-8.34474 -12.28139,-20.4767 Q 164.4082,88.356847 161.54095,88.196369 l -2.86725,-0.160473 -0.47787,0.160473 -0.47788,0.160478 -0.0956,0.09629 -0.14336,0.06419 -0.14337,0.06419 -0.0956,0.09629 -0.0956,0.09629 -0.14336,0.06419 -0.14336,0.06419 -0.0956,0.09629 -0.0956,0.09629 -0.14336,0.06419 -0.23894,0.320951 -0.23894,0.320958 v 1.76523 q 0,1.76523 10.99113,12.677584 10.99112,10.91234 10.99112,16.20804 0,5.2957 -0.14337,8.18426 l -0.0956,2.88856 -0.47787,-0.0642 -0.47788,-0.0963 -0.0956,-0.0963 -0.14336,-0.0642 -0.23893,-0.32095 -0.23894,-0.32095 -0.23894,-0.32095 -0.23894,-0.32095 -0.14336,-0.0642 -0.0956,-0.0963 -0.0956,-0.0963 -0.14337,-0.0642 -0.14336,-0.0642 q -0.0956,-0.0963 -1.91149,-1.79733 -1.76814,-1.66894 -5.92566,-4.30074 -4.20529,-2.6639 -5.63892,-3.85142 -1.43362,-1.21961 -2.62831,-1.79733 -1.19469,-0.54561 -2.86725,-1.73313 -1.67256,-1.21962 -3.10619,-1.92571 -1.43362,-0.73819 -3.58406,-2.43923 -2.15043,-1.66895 -2.62831,-1.73314 -0.47787,-0.0963 -0.95575,-0.6419 -0.47787,-0.57771 -1.9115,-1.21962 -1.43362,-0.6419 -3.58406,-2.56761 -2.15044,-1.9257 -2.62831,-1.9899 -0.47788,-0.0963 -0.95575,-0.6419 -0.47787,-0.57771 -0.95575,-0.6419 -0.47787,-0.0963 -1.9115,-1.47638 -1.43363,-1.347994 -1.9115,-1.412184 -0.47788,-0.0963 -0.95575,-0.64191 -0.47788,-0.57771 -0.95575,-0.6419 -0.47787,-0.0963 -12.66368,-11.811012 -12.18581,-11.714726 -15.91324,-15.983377 -3.679627,-4.236556 -3.918567,-7.606548 -0.23894,-3.369991 1.9115,-6.579505 2.150437,-3.209513 5.830067,-5.295693 3.72743,-2.086185 3.72743,-2.407136 0,-0.320952 0.71681,-0.577713 0.71681,-0.224666 10.51324,-2.471326 9.79644,-2.246659 12.42475,-2.407135 2.62832,-0.160476 17.2035,0.962854 14.57518,1.12333 22.46012,4.974748 7.88493,3.851415 17.44243,7.381879 9.5575,3.530464 12.18581,3.690942 2.62831,0.160473 3.20176,-0.06419 z"
     fill="#ffffff"
     stroke="#ffffff"
     id="path12"
     style="fill-rule:evenodd;stroke-width:0.195815" />
  <g
     fill="#fefefe"
     stroke="#fefefe"
     id="g18"
     style="fill-rule:evenodd;stroke-width:0.5"
     transform="matrix(0.47787487,0,0,0.32095135,0.49712362,3.7861685)">
    <path
       d="m 467.2,438.2 -0.2,0.3 -1.5,0.5 -1.5,0.5 -1,0.5 -1,0.5 h -3 l 0.2,-0.3 0.3,-0.2 0.5,-1 0.5,-1 0.5,-1 0.5,-1 0.5,-1 0.5,-1 0.5,-1 q 0.5,-1 19.5,-41 19,-40 19,-46 v -6 l -0.5,-1 -0.5,-1 -0.3,-0.2 -0.2,-0.3 -1,-0.5 -1,-0.5 -0.2,-0.3 -0.3,-0.2 -0.3,-0.2 -0.2,-0.3 -1.5,-0.5 -1.5,-0.5 -4.8,0.7 q -4.7,0.8 -7.7,5.3 -3,4.5 -25,51 -22,46.5 -21.5,52 0.5,5.5 1.2,6.7 0.8,1.3 -33.7,16.8 -34.5,15.5 -36,16 l -1.5,0.5 -0.2,0.3 -0.3,0.2 -0.3,0.2 -0.2,0.3 -1.5,0.5 -1.5,0.5 -1,0.5 -1,0.5 h -2 l 0.2,-0.3 0.3,-0.2 0.3,-0.2 0.2,-0.3 0.2,-0.3 0.3,-0.2 0.3,-0.2 0.2,-0.3 0.2,-0.3 0.3,-0.2 0.3,-0.2 0.2,-0.3 0.2,-0.3 0.3,-0.2 0.3,-0.2 0.2,-0.3 0.2,-0.3 0.3,-0.2 0.3,-0.2 0.2,-0.3 0.2,-0.3 0.3,-0.2 0.5,-1 q 0.5,-1 11,-26.5 l 10.5,-25.5 0.3,-0.2 0.2,-0.3 1.5,-0.5 1.5,-0.5 0.2,-0.3 0.3,-0.2 0.3,-0.2 0.2,-0.3 0.2,-0.3 0.3,-0.2 0.3,-0.2 0.2,-0.3 0.2,-0.3 0.3,-0.2 0.3,-0.2 0.2,-0.3 0.2,-0.3 0.3,-0.2 v 3 l 0.5,7.5 q 0.5,7.5 1.8,8.7 1.2,1.3 1.4,1.6 l 0.3,0.2 0.3,0.2 0.2,0.3 1,0.5 1,0.5 h 9 l 1,-0.5 q 1,-0.5 2.8,-1.8 Q 412.5,442 430,332.5 447.5,223 452,191 q 4.5,-32 0.5,-40.5 -4,-8.5 -27.7,-50.7 Q 401,57.5 400.2,55.2 l -0.7,-2.2 0.5,-1 0.5,-1 0.3,-0.2 0.2,-0.3 0.2,-0.3 0.3,-0.2 0.5,-1 0.5,-1 0.3,-0.2 0.2,-0.3 0.2,-0.3 0.3,-0.2 0.3,-0.2 0.2,-0.3 0.2,-0.3 0.3,-0.2 0.3,-0.2 0.2,-0.3 h 7.5 q 7.5,0 17.7,8.3 10.3,8.2 10.6,9.2 0.2,1 4.2,3.5 4,2.5 6,5.5 2,3 8,7.5 6,4.5 9.5,8.3 3.5,3.7 10.3,12.4 6.7,8.8 24.2,34.8 17.5,26 17.8,27 0.2,1 1.2,1 1,0 7.2,10 6.3,10 6.6,11.5 0.2,1.5 1.2,1.5 1,0 7.2,10 6.3,10 12.3,16.5 6,6.5 4,16.5 -2,10 -18.5,63 -16.5,53 -30.2,93 -13.8,40 -29,46.5 -15.3,6.5 -15.6,6.7 z"
       id="path14" />
    <path
       d="m 605.8,375 0.2,2 -1.5,0.2 -1.5,0.3 -1,0.5 -1,0.5 -1,0.5 -1,0.5 -1,0.5 -1,0.5 -1,0.5 -1,0.5 -1,0.3 -1,0.2 0.2,-2.5 0.3,-2.5 0.5,-2.5 q 0.5,-2.5 2,-9 1.5,-6.5 5,-28.5 3.5,-22 2.5,-24.5 l -1,-2.5 -0.3,-0.2 -0.2,-0.3 -0.2,-0.3 -0.3,-0.2 -0.3,-0.2 -0.2,-0.3 -0.2,-0.3 -0.3,-0.2 -0.3,-0.2 -0.2,-0.3 -1.5,-0.5 -1.5,-0.5 h -7 l -3.2,2.3 q -3.3,2.2 -12,44.2 -8.8,42 -24,48.5 -15.3,6.5 -15.6,6.7 l -0.2,0.3 -1,0.5 -1,0.5 -1.5,0.5 -1.5,0.5 -1,0.3 -1,0.2 0.2,-1 0.3,-1 0.5,-1.5 0.5,-1.5 18,-54.5 q 18,-54.5 28,-89 10,-34.5 15.5,-56.5 5.5,-22 5,-32.5 -0.5,-10.5 -5.5,-38.5 -5,-28 -4.5,-35 0.5,-7 2.2,-12.8 1.8,-5.7 7.3,-4.4 5.5,1.2 6,2.4 0.5,1.3 1.5,1.6 1,0.2 2,2 1,1.7 2,2 1,0.2 4.5,4 3.5,3.7 8.3,10 4.7,6.2 11.2,18.2 6.5,12 10.2,30.2 3.8,18.3 14.8,32.8 11,14.5 13.2,17.2 2.3,2.8 -11.4,23.3 Q 644,247 643,247 q -1,0 -8.2,11 -7.3,11 -18.8,43 -11.5,32 -11.5,46.5 0,14.5 0.5,20 0.5,5.5 0.8,7.5 z"
       id="path16" />
  </g>
  <g
     fill="#e6e7e5"
     stroke="#e6e7e5"
     id="g24"
     style="fill-rule:evenodd;stroke-width:0.5"
     transform="matrix(0.47787487,0,0,0.32095135,0.49712362,3.7861685)">
    <path
       d="M 571.2,190.5 571,192 h -1.5 q -1.5,0 -13.7,-19.5 -12.3,-19.5 -2.8,-40 9.5,-20.5 15,9.5 5.5,30 4.5,38.5 -1,8.5 -1.3,10 z"
       id="path20" />
    <path
       d="m 424,145 0.5,1 0.5,1 0.5,1 0.5,1 0.5,1 0.5,1 0.5,1 0.3,1 0.2,1 -1.5,-0.2 -1.5,-0.3 -0.2,-0.3 -0.3,-0.2 -0.3,-0.2 -0.2,-0.3 -1.5,-0.5 -1.5,-0.5 -15,-7.7 q -15,-7.8 -15,-8.8 0,-1 -5.2,-4.5 -5.3,-3.5 -4.3,-7.5 1,-4 6.3,-17 5.2,-13 7.4,-11 2.3,2 15.3,25.5 13,23.5 13.5,24.5 z"
       id="path22" />
  </g>
</svg>
