<?xml version="1.0" encoding="UTF-8" standalone="no"?>
<!-- Created with Inkscape (http://www.inkscape.org/) -->

<svg
   id="svg2"
   xml:space="preserve"
   viewBox="0 0 472.44096 332.59845"
   version="1.1"
   inkscape:version="1.2.2 (732a01da63, 2022-12-09)"
   sodipodi:docname="tofu.svg"
   width="125mm"
   height="88mm"
   xmlns:inkscape="http://www.inkscape.org/namespaces/inkscape"
   xmlns:sodipodi="http://sodipodi.sourceforge.net/DTD/sodipodi-0.dtd"
   xmlns="http://www.w3.org/2000/svg"
   xmlns:svg="http://www.w3.org/2000/svg"
   xmlns:rdf="http://www.w3.org/1999/02/22-rdf-syntax-ns#"
   xmlns:cc="http://creativecommons.org/ns#"
   xmlns:dc="http://purl.org/dc/elements/1.1/"><defs
   id="defs53" /><sodipodi:namedview
   id="namedview51"
   pagecolor="#505050"
   bordercolor="#eeeeee"
   borderopacity="1"
   inkscape:showpageshadow="0"
   inkscape:pageopacity="0"
   inkscape:pagecheckerboard="0"
   inkscape:deskcolor="#505050"
   showgrid="false"
   inkscape:zoom="2.0548316"
   inkscape:cx="242.1123"
   inkscape:cy="145.26738"
   inkscape:current-layer="svg2"
   inkscape:document-units="mm" />
  <g
   id="g10"
   transform="matrix(11.567835,0,0,-11.567835,56,326.84547)">
    <g
   id="g12">
      <path
   id="path14"
   style="fill:#f9f5ea;fill-rule:evenodd"
   d="m 8.988,22.388 5.516,2.977 0.992,-0.442 c 0.77,-0.292 1.543,-0.515 2.316,-0.66 1.25,-0.257 1.985,-0.515 2.204,-0.773 l -4.743,-2.535 c -0.734,0.218 -1.726,0.457 -2.976,0.715 z"
   inkscape:connector-curvature="0" />
      <path
   id="path16"
   style="fill:#e8e1c5;fill-rule:evenodd"
   d="m 9.375,22.775 3.859,-0.551 c 0.625,-0.113 1.414,-0.48 2.371,-1.105 l -0.332,-7.332 -0.769,0.328 -5.129,1.656 z"
   inkscape:connector-curvature="0" />
      <path
   id="path18"
   style="fill:#a79e81;fill-rule:evenodd"
   d="m 15.605,21.119 4.411,2.371 v -6.949 c -0.477,-0.368 -1.028,-0.735 -1.653,-1.102 -0.59,-0.367 -1.617,-0.918 -3.09,-1.652 z"
   inkscape:connector-curvature="0" />
      <path
   id="path20"
   style="fill:#c1aa76;fill-rule:evenodd"
   d="m 12.684,17.259 c 0.66,0.184 1.121,0.055 1.378,-0.386 0.258,-0.477 -0.019,-0.844 -0.828,-1.102 -0.773,-0.258 -1.195,-0.109 -1.269,0.442 -0.035,0.55 0.203,0.898 0.719,1.046 z"
   inkscape:connector-curvature="0" />
      <path
   id="path22"
   style="fill:#d9d2b8;fill-rule:evenodd"
   d="m 15.992,23.877 c 0.66,0.328 1.117,0.257 1.379,-0.223 0.254,-0.477 0.164,-0.77 -0.277,-0.883 -0.406,-0.109 -0.809,-0.015 -1.215,0.277 -0.402,0.333 -0.367,0.606 0.113,0.829 z"
   inkscape:connector-curvature="0" />
      <path
   id="path24"
   style="fill:#c9bf9c;fill-rule:evenodd"
   d="m 17.48,21.119 c 0.625,0.183 0.918,-0.035 0.883,-0.66 -0.074,-0.664 -0.441,-1.121 -1.105,-1.379 -0.586,-0.258 -0.77,0 -0.551,0.769 0.184,0.735 0.441,1.16 0.773,1.27 z"
   inkscape:connector-curvature="0" />
      <path
   id="path26"
   style="fill:#c1aa76;fill-rule:evenodd"
   d="m 10.641,20.404 c 0.367,0.144 0.589,0 0.664,-0.441 0.074,-0.442 -0.075,-0.665 -0.442,-0.665 -0.406,0 -0.664,0.129 -0.773,0.387 -0.11,0.258 0.074,0.496 0.551,0.719 z"
   inkscape:connector-curvature="0" />
      <path
   id="path28"
   style="fill:#d9d2b8;fill-rule:evenodd"
   d="m 12.684,23.49 c 0.328,0.219 0.625,0.332 0.882,0.332 0.258,-0.039 0.2,-0.258 -0.168,-0.664 -0.367,-0.477 -0.699,-0.625 -0.992,-0.442 -0.332,0.188 -0.238,0.442 0.278,0.774 z"
   inkscape:connector-curvature="0" />
      <path
   id="path30"
   style="fill:#ccc8ab;fill-rule:evenodd"
   d="M 16.93,7.334 0,12.298 16.156,18.912 31.043,13.013 Z"
   inkscape:connector-curvature="0" />
      <path
   id="path32"
   style="fill:#f5f5f5;fill-rule:evenodd"
   d="M 30.492,12.849 15.438,16.873 0.938,11.361 0,12.298 l 15.273,5.676 15.77,-4.187 c 0.258,-0.992 0.258,-1.547 0,-1.656 -0.145,-0.11 -0.273,-0.016 -0.383,0.277 z"
   inkscape:connector-curvature="0" />
      <path
   id="path34"
   style="fill:#f9f5ea;fill-rule:evenodd"
   d="m 17.867,20.127 6.117,1.324 0.828,-0.664 c 0.7,-0.512 1.399,-0.953 2.094,-1.321 1.106,-0.554 1.731,-0.976 1.875,-1.269 l -5.293,-1.16 c -0.625,0.406 -1.488,0.902 -2.59,1.492 z"
   inkscape:connector-curvature="0" />
      <path
   id="path36"
   style="fill:#e8e1c5;fill-rule:evenodd"
   d="m 18.363,20.404 3.528,-1.602 c 0.55,-0.293 1.23,-0.863 2.039,-1.707 l -2.371,-6.949 -0.606,0.551 -4.519,2.976 z"
   inkscape:connector-curvature="0" />
      <path
   id="path38"
   style="fill:#a79e81;fill-rule:evenodd"
   d="M 28.781,18.197 26.91,11.47 21.559,10.146 23.93,17.095 Z"
   inkscape:connector-curvature="0" />
      <path
   id="path40"
   style="fill:#c1aa76;fill-rule:evenodd"
   d="m 20.016,14.17 c 0.699,0 1.105,-0.258 1.214,-0.77 0.11,-0.477 -0.257,-0.734 -1.101,-0.773 -0.774,-0.036 -1.121,0.203 -1.051,0.718 0.11,0.551 0.422,0.825 0.938,0.825 z"
   inkscape:connector-curvature="0" />
      <path
   id="path42"
   style="fill:#d9d2b8;fill-rule:evenodd"
   d="m 25.035,19.631 c 0.735,0.148 1.156,-0.036 1.266,-0.551 0.113,-0.551 -0.074,-0.828 -0.551,-0.828 -0.402,0.039 -0.75,0.238 -1.047,0.609 -0.293,0.402 -0.183,0.66 0.332,0.77 z"
   inkscape:connector-curvature="0" />
      <path
   id="path44"
   style="fill:#c9bf9c;fill-rule:evenodd"
   d="m 25.695,16.599 c 0.664,0 0.864,-0.297 0.606,-0.883 -0.219,-0.589 -0.68,-0.937 -1.379,-1.05 -0.625,-0.071 -0.734,0.222 -0.328,0.882 0.402,0.7 0.769,1.051 1.101,1.051 z"
   inkscape:connector-curvature="0" />
      <path
   id="path46"
   style="fill:#c1aa76;fill-rule:evenodd"
   d="m 18.914,17.756 c 0.402,0.074 0.586,-0.11 0.551,-0.551 -0.074,-0.477 -0.293,-0.66 -0.664,-0.551 -0.403,0.074 -0.606,0.258 -0.606,0.551 -0.035,0.258 0.203,0.441 0.719,0.551 z"
   inkscape:connector-curvature="0" />
      <path
   id="path48"
   style="fill:#d9d2b8;fill-rule:evenodd"
   d="m 21.727,20.181 c 0.402,0.149 0.714,0.164 0.937,0.055 0.219,-0.074 0.109,-0.273 -0.332,-0.605 -0.477,-0.333 -0.844,-0.368 -1.102,-0.114 -0.257,0.262 -0.093,0.481 0.497,0.664 z"
   inkscape:connector-curvature="0" />
      <path
   id="path50"
   style="fill:#f9f5ea;fill-rule:evenodd"
   d="M 2.535,16.709 7.5,20.513 c 1.066,-0.332 2.223,-0.515 3.473,-0.55 1.215,-0.04 1.965,-0.168 2.261,-0.387 l -4.3,-3.309 c -0.774,0.11 -1.786,0.184 -3.036,0.219 z"
   inkscape:connector-curvature="0" />
      <path
   id="path52"
   style="fill:#e8e1c5;fill-rule:evenodd"
   d="m 2.867,17.095 3.86,0.11 C 7.352,17.17 8.195,16.927 9.262,16.49 L 10.09,9.209 9.32,9.431 3.969,10.201 Z"
   inkscape:connector-curvature="0" />
      <path
   id="path54"
   style="fill:#a79e81;fill-rule:evenodd"
   d="m 9.262,16.486 3.972,3.09 1.157,-6.895 C 13.949,12.24 13.453,11.798 12.902,11.361 12.387,10.881 11.453,10.166 10.09,9.209 Z"
   inkscape:connector-curvature="0" />
      <path
   id="path56"
   style="fill:#c1aa76;fill-rule:evenodd"
   d="M 7.004,12.24 C 7.629,12.537 8.105,12.482 8.438,12.076 8.73,11.67 8.512,11.267 7.773,10.865 7.078,10.494 6.656,10.568 6.508,11.084 6.359,11.599 6.523,11.986 7.004,12.24 Z"
   inkscape:connector-curvature="0" />
      <path
   id="path58"
   style="fill:#d9d2b8;fill-rule:evenodd"
   d="m 9.207,19.298 c 0.59,0.442 1.051,0.442 1.379,0 0.332,-0.437 0.297,-0.753 -0.109,-0.937 -0.403,-0.145 -0.829,-0.109 -1.27,0.113 -0.441,0.219 -0.441,0.496 0,0.824 z"
   inkscape:connector-curvature="0" />
      <path
   id="path60"
   style="fill:#c9bf9c;fill-rule:evenodd"
   d="m 11.082,16.818 c 0.59,0.258 0.922,0.074 0.992,-0.551 0.039,-0.59 -0.238,-1.086 -0.824,-1.488 -0.551,-0.367 -0.793,-0.148 -0.719,0.66 0.074,0.774 0.258,1.231 0.551,1.379 z"
   inkscape:connector-curvature="0" />
      <path
   id="path62"
   style="fill:#c1aa76;fill-rule:evenodd"
   d="m 4.523,14.998 c 0.329,0.222 0.551,0.109 0.661,-0.328 0.148,-0.442 0.035,-0.7 -0.332,-0.774 -0.403,-0.074 -0.661,0.02 -0.77,0.277 -0.148,0.254 0,0.532 0.441,0.825 z"
   inkscape:connector-curvature="0" />
      <path
   id="path64"
   style="fill:#d9d2b8;fill-rule:evenodd"
   d="m 6.012,18.361 c 0.254,0.297 0.511,0.441 0.769,0.441 0.258,0.039 0.258,-0.183 0,-0.66 -0.293,-0.515 -0.605,-0.719 -0.937,-0.605 -0.367,0.144 -0.313,0.422 0.168,0.824 z"
   inkscape:connector-curvature="0" />
      <path
   id="path66"
   style="fill:#f9f5ea;fill-rule:evenodd"
   d="m 10.863,15.22 5.512,2.977 0.937,-0.441 c 0.813,-0.293 1.602,-0.516 2.376,-0.661 1.21,-0.257 1.945,-0.515 2.203,-0.773 l -4.797,-2.535 c -0.735,0.219 -1.707,0.457 -2.922,0.715 z"
   inkscape:connector-curvature="0" />
      <path
   id="path68"
   style="fill:#e8e1c5;fill-rule:evenodd"
   d="m 11.195,15.603 3.86,-0.551 c 0.625,-0.109 1.433,-0.476 2.425,-1.101 L 17.094,6.615 16.379,6.947 11.195,8.603 Z"
   inkscape:connector-curvature="0" />
      <path
   id="path70"
   style="fill:#c1aa76;fill-rule:evenodd"
   d="m 15.824,14.67 1.27,-0.883 c 0.441,-0.406 0.293,-0.699 -0.442,-0.883 -0.515,-0.148 -0.882,0.09 -1.101,0.715 -0.223,0.625 -0.129,0.976 0.273,1.051 z"
   inkscape:connector-curvature="0" />
      <path
   id="path72"
   style="fill:#a79e81;fill-rule:evenodd"
   d="m 20.238,8.271 -3.144,-1.656 0.386,7.336 4.411,2.371 V 9.373 Z"
   inkscape:connector-curvature="0" />
      <path
   id="path74"
   style="fill:#c9bf9c;fill-rule:evenodd"
   d="m 20.512,14.006 c 0.441,0.183 0.664,0.054 0.664,-0.387 0,-0.403 -0.184,-0.645 -0.551,-0.715 -0.371,-0.074 -0.59,0.035 -0.664,0.332 -0.109,0.293 0.074,0.551 0.551,0.77 z"
   inkscape:connector-curvature="0" />
      <path
   id="path76"
   style="fill:#c1aa76;fill-rule:evenodd"
   d="m 14.5,10.091 c 0.699,0.184 1.16,0.055 1.379,-0.386 C 16.137,9.228 15.863,8.861 15.055,8.603 14.281,8.345 13.875,8.49 13.84,9.045 c -0.074,0.55 0.148,0.898 0.66,1.046 z"
   inkscape:connector-curvature="0" />
      <path
   id="path78"
   style="fill:#d9d2b8;fill-rule:evenodd"
   d="m 17.809,16.709 c 0.664,0.332 1.121,0.257 1.382,-0.223 0.293,-0.477 0.2,-0.77 -0.277,-0.883 -0.406,-0.109 -0.809,-0.015 -1.215,0.278 -0.402,0.332 -0.367,0.605 0.11,0.828 z"
   inkscape:connector-curvature="0" />
      <path
   id="path80"
   style="fill:#c9bf9c;fill-rule:evenodd"
   d="m 19.301,11.634 c 0.625,0.149 0.918,-0.089 0.879,-0.714 -0.071,-0.625 -0.422,-1.067 -1.047,-1.325 -0.586,-0.257 -0.789,0 -0.606,0.774 0.184,0.734 0.442,1.156 0.774,1.265 z"
   inkscape:connector-curvature="0" />
      <path
   id="path82"
   style="fill:#c1aa76;fill-rule:evenodd"
   d="m 12.516,13.236 c 0.367,0.145 0.57,0 0.609,-0.441 0.07,-0.446 -0.074,-0.664 -0.441,-0.664 -0.407,0 -0.645,0.128 -0.719,0.386 -0.11,0.258 0.074,0.496 0.551,0.719 z"
   inkscape:connector-curvature="0" />
      <path
   id="path84"
   style="fill:#d9d2b8;fill-rule:evenodd"
   d="m 14.5,16.322 c 0.332,0.219 0.625,0.332 0.883,0.332 0.258,-0.039 0.222,-0.258 -0.11,-0.664 -0.367,-0.477 -0.714,-0.625 -1.046,-0.442 -0.332,0.184 -0.239,0.442 0.273,0.774 z"
   inkscape:connector-curvature="0" />
      <path
   id="path86"
   style="fill:#dbdbdb;fill-rule:evenodd"
   d="M 27.184,4.193 18.031,0.002 3.859,3.31 0,12.298 18.195,8.052 31.43,13.787 Z"
   inkscape:connector-curvature="0" />
      <path
   id="path88"
   style="fill:#b2b2b2;fill-rule:evenodd"
   d="M 18.746,6.783 31.043,12.131 27.184,4.193 18.031,0.002 Z"
   inkscape:connector-curvature="0" />
      <path
   id="path90"
   style="fill:#f5f5f5;fill-rule:evenodd"
   d="M 31.43,13.787 30.879,11.912 18.746,6.783 0.164,10.806 0,12.298 19.133,8.271 Z"
   inkscape:connector-curvature="0" />
      <path
   id="path92"
   style="fill:#e4e4e4;fill-rule:evenodd"
   d="M 5.293,3.42 4.523,10.201 15.055,7.611 11.027,2.537 Z"
   inkscape:connector-curvature="0" />
      <path
   id="path94"
   style="fill:#949494;fill-rule:evenodd"
   d="M 30.16,11.193 27.406,4.576 18.031,0.002 c 2.793,2.574 4.926,4.464 6.395,5.679 1.472,1.211 3.383,3.051 5.734,5.512 z"
   inkscape:connector-curvature="0" />
      <path
   id="path96"
   style="fill:#bdbf02;fill-rule:evenodd"
   d="m 13.949,17.756 c -1.687,2.132 -2.719,3.492 -3.086,4.082 l -2.758,5.898 c 0.957,-1.469 2.059,-2.758 3.309,-3.859 1.215,-1.102 2.059,-3.145 2.535,-6.121 z"
   inkscape:connector-curvature="0" />
      <path
   id="path98"
   style="fill:#586436;fill-rule:evenodd"
   d="m 13.621,26.634 c 0.219,-2.574 0.328,-4.171 0.328,-4.796 v -4.082 c -0.734,1.984 -1.101,3.234 -1.101,3.75 z"
   inkscape:connector-curvature="0" />
      <path
   id="path100"
   style="fill:#90a701;fill-rule:evenodd"
   d="m 8.438,27.185 2.976,-3.308 c 0.734,-0.844 1.285,-1.766 1.652,-2.758 v -0.387 l -2.976,2.594 c -0.219,0.219 -0.57,0.937 -1.047,2.148 -0.219,0.59 -0.422,1.16 -0.605,1.711 z"
   inkscape:connector-curvature="0" />
    </g>
  </g>
<metadata
   id="metadata48"><rdf:RDF><cc:Work><dc:format>image/svg+xml</dc:format><dc:type
         rdf:resource="http://purl.org/dc/dcmitype/StillImage" /><cc:license
         rdf:resource="http://creativecommons.org/publicdomain/zero/1.0/" /><dc:publisher><cc:Agent
           rdf:about="http://openclipart.org/"><dc:title>Openclipart</dc:title></cc:Agent></dc:publisher></cc:Work><cc:License
       rdf:about="http://creativecommons.org/publicdomain/zero/1.0/"><cc:permits
         rdf:resource="http://creativecommons.org/ns#Reproduction" /><cc:permits
         rdf:resource="http://creativecommons.org/ns#Distribution" /><cc:permits
         rdf:resource="http://creativecommons.org/ns#DerivativeWorks" /></cc:License></rdf:RDF></metadata></svg>
