<?xml version="1.0" encoding="UTF-8" standalone="no"?>
<svg
   version="1.1"
   x="0"
   y="0"
   width="88mm"
   height="125mm"
   viewBox="0 0 332.59843 472.44095"
   id="svg123"
   sodipodi:docname="toilet.svg"
   inkscape:version="1.2.2 (732a01da63, 2022-12-09)"
   xmlns:inkscape="http://www.inkscape.org/namespaces/inkscape"
   xmlns:sodipodi="http://sodipodi.sourceforge.net/DTD/sodipodi-0.dtd"
   xmlns="http://www.w3.org/2000/svg"
   xmlns:svg="http://www.w3.org/2000/svg">
  <defs
     id="defs127" />
  <sodipodi:namedview
     id="namedview125"
     pagecolor="#505050"
     bordercolor="#eeeeee"
     borderopacity="1"
     inkscape:showpageshadow="0"
     inkscape:pageopacity="0"
     inkscape:pagecheckerboard="0"
     inkscape:deskcolor="#505050"
     showgrid="false"
     inkscape:zoom="1.55"
     inkscape:cx="80.322581"
     inkscape:cy="238.3871"
     inkscape:current-layer="svg123"
     inkscape:document-units="mm" />
  <path
     d="m 306.88744,239.15798 c 0,0 -29.30703,45.06995 -31.92201,80.6319 0,0 -122.74348,130.55933 -214.356757,76.01529 0,0 2.232293,-28.73112 -10.307152,-38.36147 -12.539526,-9.62889 -1.367211,-1.52948 -1.367211,-1.52948 0,0 99.44965,40.6573 257.95313,-116.75624 z"
     fill="#fce9f1"
     id="path2"
     style="stroke-width:1.43911" />
  <path
     d="m 23.315335,309.22 c 0,0 12.894915,14.4255 12.483734,32.87935 0,0 14.650081,46.07827 101.734671,22.09944 0,0 112.50612,-47.88234 121.79351,-91.37419 l -8.27284,-37.62483 c 0,0 -97.57076,122.21154 -228.141298,73.79014 z"
     fill="#fce9f1"
     id="path4"
     style="stroke-width:1.43911" />
  <path
     d="m 142.4188,95.415218 -8.29001,147.973382 119.07358,46.11685 56.68611,-52.04737 9.23006,-142.524231 z"
     fill="#fce9f1"
     id="path6"
     style="stroke-width:1.43911" />
  <path
     d="m 17.180722,274.2071 c -22.86859,48.75157 37.220343,47.13516 37.220343,47.13516 88.493585,10.1481 189.031905,-64.97778 189.031905,-64.97778 l 0.0964,-9.12998 c 0,0 -95.65233,76.85395 -197.723158,60.75484 0,0 -39.1021703,-6.13568 -28.625477,-33.78224 z"
     fill="#eed5e1"
     id="path8"
     style="stroke-width:1.43911" />
  <path
     d="m 127.59021,211.88154 c 2.51766,-0.48163 -72.022897,-0.29752 -110.604804,62.10706 0,0 -35.136969,49.10204 76.74385,34.60999 0,0 76.566534,-2.97784 149.604784,-61.58259 0,0 -86.7152,-27.07246 -115.93915,-35.35296 z"
     fill="#fdf3f7"
     id="path10"
     style="stroke-width:1.43911" />
  <g
     id="g16"
     transform="matrix(1.436858,0.08049801,-0.08049801,1.436858,18.189966,38.329019)">
    <path
       d="m 87.975,29.015 90.021,13.828 32.84,-20.165 -75.618,-12.099 z"
       fill="#fefefe"
       id="path12" />
    <path
       d="m 87.975,29.015 90.021,13.828 32.84,-20.165 -75.618,-12.099 z"
       fill-opacity="0"
       stroke="#373435"
       stroke-width="3.042"
       stroke-linejoin="round"
       id="path14" />
  </g>
  <g
     id="g22"
     transform="matrix(1.436858,0.08049801,-0.08049801,1.436858,18.189966,38.329019)">
    <path
       d="M 81.205,21.67 80.773,34.201 172.091,49.9 c 0,0 7.922,1.585 13.971,-2.592 L 213.717,25.847 V 14.756 L 182.75,34.489 c 0,0 -4.898,3.457 -13.252,2.304 z"
       fill="#fce9f1"
       id="path18" />
    <path
       d="M 81.205,21.67 80.773,34.201 172.091,49.9 c 0,0 7.922,1.585 13.971,-2.592 L 213.717,25.847 V 14.756 L 182.75,34.489 c 0,0 -4.898,3.457 -13.252,2.304 z"
       fill-opacity="0"
       stroke="#373435"
       stroke-width="3.042"
       stroke-linejoin="round"
       id="path20" />
  </g>
  <g
     id="g28"
     transform="matrix(1.436858,0.08049801,-0.08049801,1.436858,18.189966,38.329019)">
    <path
       d="M 213.717,14.612 182.75,34.345 c 0,0 -4.898,3.457 -13.252,2.304 L 81.205,21.526 124.992,3.089 213.717,14.468 Z"
       fill="#fce9f1"
       id="path24" />
    <path
       d="M 213.717,14.612 182.75,34.345 c 0,0 -4.898,3.457 -13.252,2.304 L 81.205,21.526 124.992,3.089 213.717,14.468 Z"
       fill-opacity="0"
       stroke="#373435"
       stroke-width="3.042"
       stroke-linejoin="round"
       id="path26" />
  </g>
  <path
     d="m 223.27196,316.0636 c 29.91699,-22.61387 60.36735,-54.74836 60.36735,-54.74836"
     fill-opacity="0"
     stroke="#373435"
     stroke-width="2.05793"
     stroke-linecap="round"
     stroke-linejoin="round"
     id="path30" />
  <path
     d="m 87.835854,373.0406 c 0,0 19.532936,3.37888 54.492966,-9.19584"
     fill-opacity="0"
     stroke="#373435"
     stroke-width="2.05793"
     stroke-linecap="round"
     stroke-linejoin="round"
     id="path32" />
  <g
     id="g58"
     transform="matrix(1.436858,0.08049801,-0.08049801,1.436858,18.189966,38.329019)">
    <g
       id="g38">
      <path
         d="m 198.161,67.185 6.77,-16.852 -6.914,-2.017 v 0 c -0.864,-0.432 -2.016,-0.288 -3.457,0.576 -3.312,1.873 -7.201,6.338 -7.201,10.803 0,2.304 0.72,3.889 2.016,4.465 v 0 l 0.432,0.144 c 0,0 0.144,0 0.144,0 l 8.066,2.881 z"
         fill="#f1f2f2"
         id="path34" />
      <path
         d="m 198.161,67.185 6.77,-16.852 -6.914,-2.017 v 0 c -0.864,-0.432 -2.016,-0.288 -3.457,0.576 -3.312,1.873 -7.201,6.338 -7.201,10.803 0,2.304 0.72,3.889 2.016,4.465 v 0 l 0.432,0.144 c 0,0 0.144,0 0.144,0 l 8.066,2.881 z"
         fill-opacity="0"
         stroke="#373435"
         stroke-width="1.394"
         stroke-linejoin="round"
         id="path36" />
    </g>
    <g
       id="g44">
      <path
         d="m 207.523,55.374 c 0,4.321 -2.592,9.506 -5.905,11.378 -3.313,1.873 -5.905,-0.144 -5.905,-4.465 0,-4.321 2.592,-9.506 5.905,-11.378 3.313,-1.873 5.905,0.144 5.905,4.465 z"
         fill="#f1f2f2"
         id="path40" />
      <path
         d="m 207.523,55.374 c 0,4.321 -2.592,9.506 -5.905,11.378 -3.313,1.873 -5.905,-0.144 -5.905,-4.465 0,-4.321 2.592,-9.506 5.905,-11.378 3.313,-1.873 5.905,0.144 5.905,4.465 z"
         fill-opacity="0"
         stroke="#373435"
         stroke-width="1.394"
         stroke-linejoin="round"
         id="path42" />
    </g>
    <g
       id="g50">
      <path
         d="m 193.264,78.419 -8.786,-3.169 4.897,-11.234 8.786,3.169 z"
         fill="#f1f2f2"
         id="path46" />
      <path
         d="m 193.264,78.419 -8.786,-3.169 4.897,-11.234 8.786,3.169 z"
         fill-opacity="0"
         stroke="#373435"
         stroke-width="1.394"
         stroke-linejoin="round"
         id="path48" />
    </g>
    <g
       id="g56">
      <path
         d="m 195.713,78.563 -2.449,-0.144 4.897,-11.234 2.449,0.288 z"
         fill="#f1f2f2"
         id="path52" />
      <path
         d="m 195.713,78.563 -2.449,-0.144 4.897,-11.234 2.449,0.288 z"
         fill-opacity="0"
         stroke="#373435"
         stroke-width="1.394"
         stroke-linejoin="round"
         id="path54" />
    </g>
  </g>
  <path
     d="m 215.17439,323.49855 c 0,0 -43.08619,31.63414 -60.81857,36.86887"
     fill-opacity="0"
     stroke="#373435"
     stroke-width="2.05793"
     stroke-linecap="round"
     stroke-linejoin="round"
     id="path60" />
  <path
     d="m 60.369667,366.72804 c 0,0 2.078924,3.64494 19.842509,5.26279"
     fill-opacity="0"
     stroke="#bebfc1"
     stroke-width="2.05793"
     stroke-linecap="round"
     stroke-linejoin="round"
     id="path62" />
  <path
     d="m 127.59021,211.88154 c 2.51766,-0.48163 -72.022897,-0.29752 -110.604804,62.10706 0,0 -10.2296198,15.82678 -3.933613,25.73001 0,0 5.396695,18.57167 42.234861,20.63549 0,0 78.995846,12.9369 187.939406,-64.00121"
     fill-opacity="0"
     stroke="#373435"
     stroke-width="2.05793"
     stroke-linecap="round"
     stroke-linejoin="round"
     id="path64" />
  <path
     d="m 243.43297,256.36448 0.95696,-5.96697 -116.79972,-38.51597"
     fill-opacity="0"
     stroke="#373435"
     stroke-width="2.05793"
     stroke-linecap="round"
     stroke-linejoin="round"
     id="path66" />
  <path
     d="m 21.305961,304.33361 c 0,0 15.596386,14.36785 78.436643,4.39431"
     fill-opacity="0"
     stroke="#373435"
     stroke-width="2.05793"
     stroke-linecap="round"
     stroke-linejoin="round"
     id="path68" />
  <path
     d="m 115.62266,306.91789 c 0,0 55.29742,-8.73566 121.01752,-55.2941"
     fill-opacity="0"
     stroke="#373435"
     stroke-width="2.05793"
     stroke-linecap="round"
     stroke-linejoin="round"
     id="path70" />
  <g
     id="g76"
     transform="matrix(1.436858,0.08049801,-0.08049801,1.436858,18.189966,38.329019)">
    <path
       d="m 81.349,123.214 c 0,0 -44.362,9.218 -59.63,36.153 0,0 -16.852,22.757 39.61,14.979 0,0 44.074,-5.041 80.803,-35 0,0 -44.651,-12.819 -60.783,-16.132 z"
       fill="#d0bbc6"
       id="path72" />
    <path
       d="m 81.349,123.214 c 0,0 -44.362,9.218 -59.63,36.153 0,0 -16.852,22.757 39.61,14.979 0,0 44.074,-5.041 80.803,-35 0,0 -44.651,-12.819 -60.783,-16.132 z"
       fill-opacity="0"
       stroke="#373435"
       stroke-width="1.43"
       id="path74" />
  </g>
  <g
     id="g82"
     transform="matrix(1.436858,0.08049801,-0.08049801,1.436858,18.189966,38.329019)">
    <path
       d="m 23.159,170.889 c 13.684,-30.967 58.19,-41.77 58.19,-41.77 v -5.905 c 0,0 -38.457,7.202 -57.325,31.976 0,0 -8.498,9.938 -0.865,15.699 z"
       fill="#eed5e1"
       id="path78" />
    <path
       d="m 23.159,170.889 c 13.684,-30.967 58.19,-41.77 58.19,-41.77 v -5.905 c 0,0 -38.457,7.202 -57.325,31.976 0,0 -8.498,9.938 -0.865,15.699 z"
       fill-opacity="0"
       stroke="#373435"
       stroke-width="1.43"
       stroke-linejoin="round"
       id="path80" />
  </g>
  <g
     id="g88"
     transform="matrix(1.436858,0.08049801,-0.08049801,1.436858,18.189966,38.329019)">
    <path
       d="m 81.349,123.214 60.783,16.132 -6.482,4.033 -54.301,-14.26 z"
       fill="#eed5e1"
       id="path84" />
    <path
       d="m 81.349,123.214 60.783,16.132 -6.482,4.033 -54.301,-14.26 z"
       fill-opacity="0"
       stroke="#373435"
       stroke-width="1.43"
       stroke-linejoin="round"
       id="path86" />
  </g>
  <path
     d="M 281.73804,121.07461 318.8305,96.370611 309.88848,237.45808"
     fill-opacity="0"
     stroke="#373435"
     stroke-width="4.37778"
     stroke-linecap="round"
     stroke-linejoin="round"
     id="path90" />
  <path
     d="m 309.88848,237.45808 c 0,0 -25.05226,21.01697 -34.11679,79.05463 -123.35442,134.055 -201.794505,88.96924 -201.794505,88.96924 0,0 -14.681331,-4.76753 -14.78829,-21.3824 -0.118626,-16.40652 -3.405582,-20.74324 -13.727083,-29.21011 -7.148645,-5.79841 -11.439815,-25.55349 -11.439815,-25.55349 0,0 0.344265,1.26462 -4.834238,-13.76637 0,0 -19.5758199,-10.02309 -17.741212,-24.24607 -0.70997,-5.85137 2.046825,-25.4206 49.135242,-58.07586 0,0 34.662437,-18.403 67.008421,-21.36611 0,0 -6.91724,-35.88842 12.39295,-95.22008"
     fill-opacity="0"
     stroke="#373435"
     stroke-width="4.37778"
     stroke-linecap="round"
     stroke-linejoin="round"
     id="path92" />
  <path
     d="m 140.19007,116.67305 1.73377,-19.832661 121.01433,26.294341"
     fill-opacity="0"
     stroke="#373435"
     stroke-width="4.37778"
     stroke-linecap="round"
     stroke-linejoin="round"
     id="path94" />
  <path
     d="m 262.93817,123.13473 c 0,0 9.0818,4.66138 18.58137,-1.8648"
     fill-opacity="0"
     stroke="#373435"
     stroke-width="4.37778"
     stroke-linecap="round"
     stroke-linejoin="round"
     id="path96" />
  <g
     id="g102"
     transform="matrix(1.436858,0.08049801,-0.08049801,1.436858,18.189966,38.329019)">
    <path
       d="m 82.646,116.156 c 0,0 -9.075,-45.515 17.716,-92.758 0,0 29.815,-42.922 57.614,0 0,0 31.255,42.634 7.201,114.94 0,0 -64.959,-18.293 -82.531,-22.182 z"
       fill="#fdf3f7"
       id="path98" />
    <path
       d="m 82.646,116.156 c 0,0 -9.075,-45.515 17.716,-92.758 0,0 29.815,-42.922 57.614,0 0,0 31.255,42.634 7.201,114.94 0,0 -64.959,-18.293 -82.531,-22.182 z"
       fill-opacity="0"
       stroke="#373435"
       stroke-width="3.042"
       stroke-linejoin="round"
       id="path100" />
  </g>
</svg>
