<?xml version="1.0" encoding="UTF-8" standalone="no"?>
<!-- Created with Inkscape (http://www.inkscape.org/) -->

<svg
   width="88mm"
   height="125mm"
   viewBox="0 0 311.81102 442.9134"
   id="svg2"
   version="1.1"
   inkscape:version="1.2.2 (732a01da63, 2022-12-09)"
   sodipodi:docname="tooth.svg"
   xmlns:inkscape="http://www.inkscape.org/namespaces/inkscape"
   xmlns:sodipodi="http://sodipodi.sourceforge.net/DTD/sodipodi-0.dtd"
   xmlns:xlink="http://www.w3.org/1999/xlink"
   xmlns="http://www.w3.org/2000/svg"
   xmlns:svg="http://www.w3.org/2000/svg"
   xmlns:rdf="http://www.w3.org/1999/02/22-rdf-syntax-ns#"
   xmlns:cc="http://creativecommons.org/ns#"
   xmlns:dc="http://purl.org/dc/elements/1.1/">
  <title
     id="title4136">tooth - coloured</title>
  <defs
     id="defs4">
    <linearGradient
       inkscape:collect="always"
       id="linearGradient6763">
      <stop
         style="stop-color:#fffdf5;stop-opacity:1;"
         offset="0"
         id="stop6765" />
      <stop
         id="stop6771"
         offset="0.66728151"
         style="stop-color:#fffdf5;stop-opacity:1" />
      <stop
         style="stop-color:#fff8db;stop-opacity:1"
         offset="0.78188866"
         id="stop6773" />
      <stop
         style="stop-color:#ede7c2;stop-opacity:1"
         offset="1"
         id="stop6767" />
    </linearGradient>
    <linearGradient
       inkscape:collect="always"
       id="linearGradient6753">
      <stop
         style="stop-color:#ffe0ab;stop-opacity:1"
         offset="0"
         id="stop6755" />
      <stop
         id="stop6761"
         offset="0.90131676"
         style="stop-color:#c9ad7d;stop-opacity:1;" />
      <stop
         style="stop-color:#a5906d;stop-opacity:1"
         offset="1"
         id="stop6757" />
    </linearGradient>
    <linearGradient
       inkscape:collect="always"
       id="linearGradient6590">
      <stop
         style="stop-color:#c9ad7d;stop-opacity:1"
         offset="0"
         id="stop6592" />
      <stop
         id="stop6598"
         offset="0.48190081"
         style="stop-color:#ffd895;stop-opacity:1" />
      <stop
         style="stop-color:#ffd895;stop-opacity:0;"
         offset="1"
         id="stop6594" />
    </linearGradient>
    <linearGradient
       id="linearGradient6425"
       inkscape:collect="always">
      <stop
         id="stop6427"
         offset="0"
         style="stop-color:#ffd895;stop-opacity:0.10830325" />
      <stop
         style="stop-color:#ffd58e;stop-opacity:1;"
         offset="0.71531641"
         id="stop6429" />
      <stop
         style="stop-color:#ffd389;stop-opacity:1;"
         offset="0.76917028"
         id="stop6431" />
      <stop
         id="stop6433"
         offset="0.82121605"
         style="stop-color:#deb878;stop-opacity:1" />
      <stop
         id="stop6435"
         offset="1"
         style="stop-color:#ae8c51;stop-opacity:1" />
    </linearGradient>
    <linearGradient
       inkscape:collect="always"
       id="linearGradient6246">
      <stop
         style="stop-color:#ffe9c2;stop-opacity:0.10980392"
         offset="0"
         id="stop6248" />
      <stop
         id="stop6262"
         offset="0.64354622"
         style="stop-color:#ffe1ae;stop-opacity:0.86956519" />
      <stop
         id="stop6256"
         offset="0.70795298"
         style="stop-color:#ffe3b5;stop-opacity:1" />
      <stop
         style="stop-color:#e4c591;stop-opacity:1"
         offset="0.78533089"
         id="stop6258" />
      <stop
         style="stop-color:#c8b188;stop-opacity:0.78260869"
         offset="1"
         id="stop6250" />
    </linearGradient>
    <pattern
       inkscape:collect="always"
       xlink:href="#Polkadots-large"
       id="pattern6053"
       patternTransform="matrix(2.6951336,0,0,2.5934304,-49.714768,-3.302418)" />
    <pattern
       inkscape:collect="always"
       xlink:href="#Polkadots-large"
       id="pattern5961"
       patternTransform="matrix(2.4584445,0,0,2.3865293,-50.646732,-3.7684)" />
    <pattern
       inkscape:collect="always"
       xlink:href="#Polkadots-large"
       id="pattern5854"
       patternTransform="matrix(2.9978066,0,0,2.925892,-51.691761,-3.302418)" />
    <pattern
       inkscape:collect="always"
       xlink:href="#Polkadots-large"
       id="pattern5672"
       patternTransform="matrix(3.1416367,0,0,3.3214244,-47.737774,-1.984422)" />
    <pattern
       inkscape:stockid="Polka dots, large"
       id="Polkadots-large"
       patternTransform="translate(0,0) scale(10,10)"
       height="10"
       width="10"
       patternUnits="userSpaceOnUse"
       inkscape:collect="always">
      <circle
         id="circle5362"
         r="0.45"
         cy="0.810"
         cx="2.567"
         style="fill:black;stroke:none" />
      <circle
         id="circle5364"
         r="0.45"
         cy="2.33"
         cx="3.048"
         style="fill:black;stroke:none" />
      <circle
         id="circle5366"
         r="0.45"
         cy="2.415"
         cx="4.418"
         style="fill:black;stroke:none" />
      <circle
         id="circle5368"
         r="0.45"
         cy="3.029"
         cx="1.844"
         style="fill:black;stroke:none" />
      <circle
         id="circle5370"
         r="0.45"
         cy="1.363"
         cx="6.08"
         style="fill:black;stroke:none" />
      <circle
         id="circle5372"
         r="0.45"
         cy="4.413"
         cx="5.819"
         style="fill:black;stroke:none" />
      <circle
         id="circle5374"
         r="0.45"
         cy="4.048"
         cx="4.305"
         style="fill:black;stroke:none" />
      <circle
         id="circle5376"
         r="0.45"
         cy="3.045"
         cx="5.541"
         style="fill:black;stroke:none" />
      <circle
         id="circle5378"
         r="0.45"
         cy="5.527"
         cx="4.785"
         style="fill:black;stroke:none" />
      <circle
         id="circle5380"
         r="0.45"
         cy="5.184"
         cx="2.667"
         style="fill:black;stroke:none" />
      <circle
         id="circle5382"
         r="0.45"
         cy="1.448"
         cx="7.965"
         style="fill:black;stroke:none" />
      <circle
         id="circle5384"
         r="0.45"
         cy="5.049"
         cx="7.047"
         style="fill:black;stroke:none" />
      <circle
         id="circle5386"
         r="0.45"
         cy="0.895"
         cx="4.340"
         style="fill:black;stroke:none" />
      <circle
         id="circle5388"
         r="0.45"
         cy="0.340"
         cx="7.125"
         style="fill:black;stroke:none" />
      <circle
         id="circle5390"
         r="0.45"
         cy="1.049"
         cx="9.553"
         style="fill:black;stroke:none" />
      <circle
         id="circle5392"
         r="0.45"
         cy="2.689"
         cx="7.006"
         style="fill:black;stroke:none" />
      <circle
         id="circle5394"
         r="0.45"
         cy="2.689"
         cx="8.909"
         style="fill:black;stroke:none" />
      <circle
         id="circle5396"
         r="0.45"
         cy="4.407"
         cx="9.315"
         style="fill:black;stroke:none" />
      <circle
         id="circle5398"
         r="0.45"
         cy="3.870"
         cx="7.820"
         style="fill:black;stroke:none" />
      <circle
         id="circle5400"
         r="0.45"
         cy="5.948"
         cx="8.270"
         style="fill:black;stroke:none" />
      <circle
         id="circle5402"
         r="0.45"
         cy="7.428"
         cx="7.973"
         style="fill:black;stroke:none" />
      <circle
         id="circle5404"
         r="0.45"
         cy="8.072"
         cx="9.342"
         style="fill:black;stroke:none" />
      <circle
         id="circle5406"
         r="0.45"
         cy="9.315"
         cx="8.206"
         style="fill:black;stroke:none" />
      <circle
         id="circle5408"
         r="0.45"
         cy="9.475"
         cx="9.682"
         style="fill:black;stroke:none" />
      <circle
         id="circle5410"
         r="0.45"
         cy="6.186"
         cx="9.688"
         style="fill:black;stroke:none" />
      <circle
         id="circle5412"
         r="0.45"
         cy="6.296"
         cx="3.379"
         style="fill:black;stroke:none" />
      <circle
         id="circle5414"
         r="0.45"
         cy="8.204"
         cx="2.871"
         style="fill:black;stroke:none" />
      <circle
         id="circle5416"
         r="0.45"
         cy="8.719"
         cx="4.59"
         style="fill:black;stroke:none" />
      <circle
         id="circle5418"
         r="0.45"
         cy="9.671"
         cx="3.181"
         style="fill:black;stroke:none" />
      <circle
         id="circle5420"
         r="0.45"
         cy="7.315"
         cx="5.734"
         style="fill:black;stroke:none" />
      <circle
         id="circle5422"
         r="0.45"
         cy="6.513"
         cx="6.707"
         style="fill:black;stroke:none" />
      <circle
         id="circle5424"
         r="0.45"
         cy="9.670"
         cx="5.730"
         style="fill:black;stroke:none" />
      <circle
         id="circle5426"
         r="0.45"
         cy="8.373"
         cx="6.535"
         style="fill:black;stroke:none" />
      <circle
         id="circle5428"
         r="0.45"
         cy="7.154"
         cx="4.37"
         style="fill:black;stroke:none" />
      <circle
         id="circle5430"
         r="0.45"
         cy="7.25"
         cx="0.622"
         style="fill:black;stroke:none" />
      <circle
         id="circle5432"
         r="0.45"
         cy="5.679"
         cx="0.831"
         style="fill:black;stroke:none" />
      <circle
         id="circle5434"
         r="0.45"
         cy="8.519"
         cx="1.257"
         style="fill:black;stroke:none" />
      <circle
         id="circle5436"
         r="0.45"
         cy="6.877"
         cx="1.989"
         style="fill:black;stroke:none" />
      <circle
         id="circle5438"
         r="0.45"
         cy="3.181"
         cx="0.374"
         style="fill:black;stroke:none" />
      <circle
         id="circle5440"
         r="0.45"
         cy="1.664"
         cx="1.166"
         style="fill:black;stroke:none" />
      <circle
         id="circle5442"
         r="0.45"
         cy="0.093"
         cx="1.151"
         style="fill:black;stroke:none" />
      <circle
         id="circle5444"
         r="0.45"
         cy="10.093"
         cx="1.151"
         style="fill:black;stroke:none" />
      <circle
         id="circle5446"
         r="0.45"
         cy="4.451"
         cx="1.302"
         style="fill:black;stroke:none" />
      <circle
         id="circle5448"
         r="0.45"
         cy="3.763"
         cx="3.047"
         style="fill:black;stroke:none" />
    </pattern>
    <radialGradient
       inkscape:collect="always"
       xlink:href="#linearGradient6246"
       id="radialGradient6260"
       cx="132.85977"
       cy="58.989223"
       fx="132.85977"
       fy="58.989223"
       r="12.923591"
       gradientTransform="matrix(3.9727993,1.7131892,-2.4865945,5.7662868,-129.28859,-401.92269)"
       gradientUnits="userSpaceOnUse" />
    <radialGradient
       inkscape:collect="always"
       xlink:href="#linearGradient6425"
       id="radialGradient6423"
       cx="2.6749332"
       cy="68.162079"
       fx="2.6749332"
       fy="68.162079"
       r="10.996013"
       gradientTransform="matrix(3.460625,-1.3859941,2.5002642,6.2427947,-104.433,-248.98465)"
       gradientUnits="userSpaceOnUse" />
    <radialGradient
       inkscape:collect="always"
       xlink:href="#linearGradient6590"
       id="radialGradient6596"
       cx="134.65273"
       cy="39.074272"
       fx="134.65273"
       fy="39.074272"
       r="9.5973997"
       gradientTransform="matrix(5.4680357,0.06018149,-0.04638507,4.2145082,-565.56391,-130.89355)"
       gradientUnits="userSpaceOnUse" />
    <radialGradient
       inkscape:collect="always"
       xlink:href="#linearGradient6753"
       id="radialGradient6759"
       cx="124.34409"
       cy="76.051239"
       fx="124.34409"
       fy="76.051239"
       r="8.4598551"
       gradientTransform="matrix(3.7275471,-0.04790343,0.11016666,8.5724843,-282.46405,-325.91151)"
       gradientUnits="userSpaceOnUse" />
    <radialGradient
       inkscape:collect="always"
       xlink:href="#linearGradient6763"
       id="radialGradient6769"
       cx="67.341286"
       cy="53.297752"
       fx="67.341286"
       fy="53.297752"
       r="36.220264"
       gradientTransform="matrix(4.6740155,-0.01016284,0.01365178,6.2785903,-144.83622,-121.16547)"
       gradientUnits="userSpaceOnUse" />
  </defs>
  <sodipodi:namedview
     id="base"
     pagecolor="#ffffff"
     bordercolor="#666666"
     borderopacity="1.0"
     inkscape:pageopacity="0.0"
     inkscape:pageshadow="2"
     inkscape:zoom="1"
     inkscape:cx="-6.5"
     inkscape:cy="247.5"
     inkscape:document-units="mm"
     inkscape:current-layer="layer2"
     showgrid="false"
     borderlayer="true"
     inkscape:snap-global="false"
     fit-margin-top="1"
     fit-margin-right="1"
     fit-margin-bottom="1"
     fit-margin-left="1"
     inkscape:window-width="2560"
     inkscape:window-height="1321"
     inkscape:window-x="0"
     inkscape:window-y="0"
     inkscape:window-maximized="1"
     inkscape:showpageshadow="0"
     inkscape:pagecheckerboard="0"
     inkscape:deskcolor="#d1d1d1" />
  <metadata
     id="metadata7">
    <rdf:RDF>
      <cc:Work
         rdf:about="">
        <dc:format>image/svg+xml</dc:format>
        <dc:type
           rdf:resource="http://purl.org/dc/dcmitype/StillImage" />
        <dc:title>tooth - coloured</dc:title>
        <cc:license
           rdf:resource="http://creativecommons.org/publicdomain/zero/1.0/" />
        <dc:subject>
          <rdf:Bag>
            <rdf:li>tooth</rdf:li>
            <rdf:li>body</rdf:li>
            <rdf:li>school</rdf:li>
            <rdf:li>teaching</rdf:li>
            <rdf:li>education</rdf:li>
            <rdf:li>Zahn</rdf:li>
            <rdf:li>Körper</rdf:li>
            <rdf:li>Schule</rdf:li>
            <rdf:li>Unterricht</rdf:li>
            <rdf:li>Erziehung</rdf:li>
            <rdf:li>lineart</rdf:li>
            <rdf:li>outline</rdf:li>
            <rdf:li />
          </rdf:Bag>
        </dc:subject>
        <dc:description>coloured line art tooth</dc:description>
        <dc:date>2016-04-07</dc:date>
        <dc:creator>
          <cc:Agent>
            <dc:title>Frank Tremmel</dc:title>
          </cc:Agent>
        </dc:creator>
      </cc:Work>
      <cc:License
         rdf:about="http://creativecommons.org/publicdomain/zero/1.0/">
        <cc:permits
           rdf:resource="http://creativecommons.org/ns#Reproduction" />
        <cc:permits
           rdf:resource="http://creativecommons.org/ns#Distribution" />
        <cc:permits
           rdf:resource="http://creativecommons.org/ns#DerivativeWorks" />
      </cc:License>
    </rdf:RDF>
  </metadata>
  <g
     inkscape:groupmode="layer"
     id="layer2"
     inkscape:label="Ebene 2"
     transform="translate(-14.027715,2.0836981)">
    <path
       style="fill:url(#radialGradient6759);fill-opacity:1;fill-rule:evenodd;stroke:#0000ff;stroke-width:1.08313;stroke-linecap:butt;stroke-linejoin:miter;stroke-miterlimit:4;stroke-dasharray:none;stroke-opacity:1"
       d="m 161.60738,234.22398 c 6.71208,-1.46041 13.42416,4.38161 20.13623,7.1915 7.29195,15.51032 7.46116,30.0031 8.27021,44.58729 l 2.51701,56.81285 c -7.54141,8.68691 -16.60677,16.95818 -14.0234,28.40641 0.27064,6.34367 2.72744,9.9549 6.83192,11.5064 9.17373,-1.14789 16.59515,-4.48625 21.93407,-10.42766 l 13.30427,-23.01281 2.15746,-60.40859 c -4.46582,-13.91836 -12.07579,-27.3127 -22.29366,-40.27239 -7.28426,-11.36342 -15.12987,-18.23637 -23.37238,-21.93408 -9.44001,0.68011 -12.6009,4.0513 -15.46173,7.55108 z"
       id="path4185-9-4"
       inkscape:connector-curvature="0"
       sodipodi:nodetypes="cccccccccccc" />
    <path
       style="fill:url(#radialGradient6769);fill-opacity:1;fill-rule:evenodd;stroke:#ff6600;stroke-width:1.08313;stroke-linecap:butt;stroke-linejoin:miter;stroke-miterlimit:4;stroke-dasharray:none;stroke-opacity:1"
       d="m 75.77688,218.42525 -20.136193,51.77879 8.270225,37.3958 0.359589,42.42984 c 10.046566,25.82552 24.434224,40.36421 39.193669,53.93625 l 20.1362,2.87656 4.3149,-9.34893 c -8.03685,-17.37309 -14.23928,-36.58066 -16.54045,-59.68943 3.38612,-20.02399 8.07905,-41.68149 19.05747,-71.19584 9.61891,-11.09129 19.74191,-22.39863 35.95749,-36.31707 6.85757,-4.57128 13.15819,-3.57326 19.05747,1.4383 16.07993,15.68524 28.74705,34.29572 38.11495,55.73412 -7.21958,31.64516 -2.86066,56.05376 -3.23618,83.42137 l -7.1915,28.76597 c -0.65558,8.03546 -3.50544,17.36159 11.5064,16.1809 8.46272,-4.89437 20.04112,-11.55378 30.2043,-34.87875 8.13794,-19.84198 15.9852,-40.09088 19.41704,-66.52137 2.78474,-31.81398 2.46154,-64.56035 -4.31489,-99.24269 l 28.04685,-26.96812 6.47234,-111.108651 C 302.57494,64.820292 295.262,54.063398 285.76866,43.671829 271.58548,36.001178 256.80441,25.639965 244.41753,26.052657 L 200.54938,37.199481 C 191.79852,29.350574 180.77083,24.916902 168.18764,22.816483 143.27318,23.358111 130.19927,30.477824 113.17268,35.401607 98.310249,31.867625 83.447815,30.318571 68.585385,32.525006 57.256295,36.602729 46.025981,40.920332 41.257693,60.931424 34.671914,87.58582 35.672702,107.73745 35.50449,128.89109 c 2.351114,25.09779 1.588118,51.08532 10.068098,74.43201 10.068099,9.09671 20.136194,11.47235 30.204292,15.10215 z"
       id="path4191"
       inkscape:connector-curvature="0"
       sodipodi:nodetypes="cccccccccccccccccccccccccccccc" />
    <path
       style="fill:url(#radialGradient6596);fill-opacity:1;fill-rule:evenodd;stroke:none;stroke-width:1.08313;stroke-linecap:butt;stroke-linejoin:miter;stroke-miterlimit:4;stroke-dasharray:none;stroke-opacity:1"
       d="m 189.04201,33.055114 c -25.03401,-15.191048 -46.59685,-0.238173 -66.16179,8.270225 1.17528,6.380452 14.11019,13.711447 23.73193,14.742575 l 14.383,-1.438303 c 8.05116,8.359857 17.12465,11.267279 28.04686,4.314903 l 5.39364,-18.338323 z"
       id="path4187-9"
       inkscape:connector-curvature="0"
       sodipodi:nodetypes="ccccccc" />
    <path
       style="opacity:0.648;fill:url(#radialGradient6423);fill-opacity:1;fill-rule:evenodd;stroke:none;stroke-width:1.08313;stroke-linecap:butt;stroke-linejoin:miter;stroke-miterlimit:4;stroke-dasharray:none;stroke-opacity:1"
       d="m 37.983469,149.38422 c 12.796206,13.26171 23.429869,6.40131 31.283021,9.34895 20.469937,15.82991 1.354714,51.32722 50.70007,66.52136 -6.97272,0.18028 -11.91606,1.22017 -14.89598,0.40787 -7.484102,-1.49738 -26.593979,15.98261 -40.754428,33.98655 2.129008,-9.54031 16.945924,-38.07786 12.860993,-39.42847 C 51.559304,211.6787 44.666477,198.43533 41.219639,186.06086 Z"
       id="path4181-0"
       inkscape:connector-curvature="0"
       sodipodi:nodetypes="cccccccc" />
    <path
       style="opacity:0.659;fill:url(#radialGradient6260);fill-opacity:1;fill-rule:evenodd;stroke:none;stroke-width:1.08313;stroke-linecap:butt;stroke-linejoin:miter;stroke-miterlimit:4;stroke-dasharray:none;stroke-opacity:1"
       d="m 295.46793,134.68869 c -5.81684,3.85776 -10.56374,1.29572 -15.46173,-0.35959 -16.03843,23.73992 -16.04715,53.13738 -48.18306,71.19584 -13.85268,5.55717 -29.36067,-8.07773 -26.96813,2.51702 4.1333,8.62196 9.91461,15.32121 19.77665,17.2596 8.8097,0.84581 14.18493,1.11869 21.56672,-0.74985 3.38579,-0.85704 20.61199,21.86994 26.47815,39.90076 -0.78017,-13.67553 -7.91357,-46.43301 -5.25546,-47.42113 11.63736,-7.04209 18.17374,-13.42357 26.96813,-28.04684 3.338,-7.84051 12.34472,-36.00089 1.07873,-54.29582 z"
       id="path4183-2"
       inkscape:connector-curvature="0"
       sodipodi:nodetypes="cccccccccc" />
    <path
       style="opacity:0.307;fill:url(#pattern5961);fill-opacity:1;fill-rule:evenodd;stroke:#0000ff;stroke-width:1.08313;stroke-linecap:butt;stroke-linejoin:miter;stroke-miterlimit:4;stroke-dasharray:none;stroke-opacity:1"
       d="m 159.81278,233.41878 c 6.71206,-1.46041 13.42413,4.38162 20.13619,7.1915 7.29196,15.51032 7.46117,30.00311 8.27023,44.5873 l 2.51702,56.81284 c -7.54142,8.68692 -16.60679,16.95817 -14.02342,28.40641 0.27076,6.34366 2.72744,9.95491 6.83192,11.5064 9.17374,-1.14788 16.59515,-4.48625 21.93407,-10.42767 l 13.30428,-23.01279 2.15745,-60.40859 c -4.46583,-13.91837 -12.07577,-27.31271 -22.29365,-40.2724 -7.28428,-11.36342 -15.12987,-18.23637 -23.37237,-21.93407 -9.44004,0.68011 -12.60092,4.05129 -15.46172,7.55107 z"
       id="path4185-9"
       inkscape:connector-curvature="0"
       sodipodi:nodetypes="cccccccccccc" />
    <path
       style="opacity:0.296;fill:url(#pattern6053);fill-opacity:1;fill-rule:evenodd;stroke:none;stroke-width:1.08313;stroke-linecap:butt;stroke-linejoin:miter;stroke-miterlimit:4;stroke-dasharray:none;stroke-opacity:1"
       d="m 186.1664,31.805858 c -25.03402,-15.191047 -46.59687,-0.238169 -66.16179,8.270222 1.17527,6.380453 14.11018,13.711446 23.73195,14.742574 l 14.38299,-1.4383 c 8.05116,8.359854 17.12465,11.267275 28.04685,4.3149 l 5.39362,-18.338321 z"
       id="path4187"
       inkscape:connector-curvature="0"
       sodipodi:nodetypes="ccccccc" />
    <path
       style="color:#000000;font-style:normal;font-variant:normal;font-weight:normal;font-stretch:normal;font-size:medium;line-height:normal;font-family:sans-serif;text-indent:0;text-align:start;text-decoration:none;text-decoration-line:none;text-decoration-style:solid;text-decoration-color:#000000;letter-spacing:normal;word-spacing:normal;text-transform:none;writing-mode:lr-tb;direction:ltr;baseline-shift:baseline;text-anchor:start;white-space:normal;clip-rule:nonzero;display:inline;overflow:visible;visibility:visible;opacity:1;isolation:auto;mix-blend-mode:normal;color-interpolation:sRGB;color-interpolation-filters:linearRGB;solid-color:#000000;solid-opacity:1;fill:#504b46;fill-opacity:1;fill-rule:evenodd;stroke:none;stroke-width:6.60445;stroke-linecap:butt;stroke-linejoin:miter;stroke-miterlimit:4;stroke-dasharray:none;stroke-dashoffset:0;stroke-opacity:1;color-rendering:auto;image-rendering:auto;shape-rendering:auto;text-rendering:auto;enable-background:accumulate"
       d="m 163.14623,233.96054 c -0.16779,2.15221 4.65682,3.80426 5.00623,3.91654 4.31892,1.38796 8.61423,5.11739 10.7265,9.21686 7.99579,15.51811 5.98012,32.84601 6.23727,51.97984 0.19317,14.37435 3.71526,24.98025 1.63678,40.2522 -0.24044,1.76698 -1.64921,3.63413 -3.98072,6.714 -2.33152,3.07987 -5.25068,7.25909 -6.92058,13.4439 -0.71883,2.6623 -1.79084,7.72603 -1.68057,11.53707 0.11027,3.81108 0.26159,7.79867 2.6856,10.83776 2.87013,3.5984 6.37791,3.20847 10.34107,2.84048 3.87804,-0.36011 8.85643,-1.39016 11.57683,-2.71349 7.4195,-3.60927 11.23764,-9.79078 15.38541,-16.98044 4.14777,-7.18968 7.37811,-15.59403 5.02276,-16.95108 -2.35535,-1.35705 -6.31898,7.90162 -10.18925,14.61025 -3.87026,6.70863 -8.76212,10.93657 -13.3733,12.83767 -3.92348,1.61758 -9.11912,4.45914 -12.14695,2.09711 -4.45801,-3.47772 -1.41921,-11.15359 -0.30174,-16.59974 1.03581,-5.04806 4.03951,-8.5918 6.24428,-11.50424 2.20477,-2.91243 5.68847,-6.30594 6.27808,-10.63817 2.28083,-16.75878 -1.39621,-26.71533 -1.57322,-39.88655 -0.24872,-18.50872 0.35907,-37.33313 -8.83764,-55.18191 -3.04623,-5.91209 -8.52632,-9.27236 -14.92971,-11.33022 -3.00682,-0.96629 -7.03938,-0.65006 -7.20713,1.50216 z"
       id="path4162"
       inkscape:connector-curvature="0"
       sodipodi:nodetypes="zssssssssssszsssssssssz" />
    <path
       style="opacity:0.299;fill:url(#pattern5672);fill-opacity:1;fill-rule:evenodd;stroke:none;stroke-width:1.08313;stroke-linecap:butt;stroke-linejoin:miter;stroke-miterlimit:4;stroke-dasharray:none;stroke-opacity:1"
       d="m 38.200639,150.70486 c 12.796206,13.26172 23.429865,6.40131 31.283018,9.34895 20.469937,15.82991 1.354713,51.32722 50.700073,66.52137 -6.97272,0.18027 -11.91606,1.22016 -14.89598,0.40786 -7.484106,-1.49738 -26.593983,15.98261 -40.754432,33.98655 2.129008,-9.54031 16.945925,-38.07786 12.860993,-39.42847 C 51.776474,212.99934 44.883647,199.75597 41.436809,187.3815 Z"
       id="path4181"
       inkscape:connector-curvature="0"
       sodipodi:nodetypes="cccccccc" />
    <path
       style="opacity:0.28;fill:url(#pattern5854);fill-opacity:1;fill-rule:evenodd;stroke:none;stroke-width:1.08313;stroke-linecap:butt;stroke-linejoin:miter;stroke-miterlimit:4;stroke-dasharray:none;stroke-opacity:1"
       d="m 294.93854,135.00386 c -5.8169,3.85776 -10.56377,1.29572 -15.46176,-0.35958 -16.03846,23.73991 -16.04715,53.13738 -48.18305,71.19584 -13.85267,5.55717 -29.36066,-8.07774 -26.96813,2.51702 4.13326,8.62195 9.91457,15.3212 19.77661,17.2596 8.80971,0.84581 14.18498,1.11868 21.56673,-0.74985 3.38582,-0.85705 20.61198,21.86994 26.47813,39.90075 -0.78012,-13.67553 -7.91353,-46.433 -5.25542,-47.42113 11.63733,-7.04209 18.17371,-13.42356 26.96816,-28.04684 3.33799,-7.84051 12.34472,-36.00088 1.07873,-54.29581 z"
       id="path4183"
       inkscape:connector-curvature="0"
       sodipodi:nodetypes="cccccccccc" />
    <path
       style="color:#000000;font-style:normal;font-variant:normal;font-weight:normal;font-stretch:normal;font-size:medium;line-height:normal;font-family:sans-serif;text-indent:0;text-align:start;text-decoration:none;text-decoration-line:none;text-decoration-style:solid;text-decoration-color:#000000;letter-spacing:normal;word-spacing:normal;text-transform:none;writing-mode:lr-tb;direction:ltr;baseline-shift:baseline;text-anchor:start;white-space:normal;clip-rule:nonzero;display:inline;overflow:visible;visibility:visible;opacity:1;isolation:auto;mix-blend-mode:normal;color-interpolation:sRGB;color-interpolation-filters:linearRGB;solid-color:#000000;solid-opacity:1;fill:#8c857d;fill-opacity:1;fill-rule:evenodd;stroke:none;stroke-width:10.5672;stroke-linecap:butt;stroke-linejoin:miter;stroke-miterlimit:4;stroke-dasharray:none;stroke-dashoffset:0;stroke-opacity:1;color-rendering:auto;image-rendering:auto;shape-rendering:auto;text-rendering:auto;enable-background:accumulate"
       d="m 247.50965,19.198299 c -6.16827,-0.144954 -11.01632,2.405506 -14.91381,4.354166 -3.89749,1.94866 -6.87133,3.2746 -9.43138,3.265625 -5.62933,-0.01973 -9.25099,2.241784 -12.28753,2.787596 -3.03653,0.545812 -6.19506,0.776295 -6.49632,0.730991 -10.54238,-1.585309 -20.59236,-12.21794 -34.96481,-12.625951 -21.38683,-0.607139 -37.11572,9.410901 -53.82026,9.531069 -4.75496,0.03421 -11.36454,-0.898166 -17.266253,-2.657514 -5.901713,-1.759346 -12.932169,-2.566097 -20.238538,-1.949157 -8.076566,0.681974 -17.127933,6.981094 -24.529143,11.517822 -7.401213,4.536729 -13.661363,11.64723 -15.899061,21.246426 -5.541102,23.769924 -9.911998,46.370468 -7.452937,73.297778 2.363226,25.8779 0.833213,55.76907 11.679971,75.53843 4.209528,7.67231 12.54515,11.4495 19.728825,14.50859 3.877279,1.6511 4.799133,1.77148 7.341698,2.58231 -1.494665,3.2145 -2.883687,5.97318 -5.911499,13.55512 -4.341345,10.87117 -8.991617,23.85139 -9.939894,34.31687 -1.175247,12.97035 3.706424,24.30117 5.069264,34.28509 1.26869,9.29411 0.528439,19.93638 0.707156,30.79699 0.178713,10.86059 1.315187,22.17176 7.38937,32.31458 5.363739,8.95653 14.449801,21.83966 24.798092,31.45645 5.174144,4.80841 10.641029,8.85611 16.645949,10.98871 6.00491,2.13248 13.01585,4.01647 18.5975,-0.23821 3.25508,-2.48134 4.55943,-8.47834 4.60908,-12.1615 0.0497,-3.68312 -2.11433,-7.16866 -3.36338,-10.26684 -2.49813,-6.1963 -5.69706,-12.85838 -6.78246,-22.57029 -1.99849,-17.88204 -2.41388,-34.39796 3.69644,-46.61354 5.25026,-10.49616 5.24874,-24.98819 7.42725,-37.11675 2.90992,-16.20062 11.22717,-19.39293 18.36403,-28.1719 3.23104,-3.97446 4.99877,-5.85198 10.8298,-10.90131 2.91552,-2.52466 6.14912,-4.92187 9.0341,-6.4359 2.88498,-1.51404 5.27182,-1.9555 6.39618,-1.76392 3.73482,0.63641 8.82103,4.04139 13.81733,9.54262 4.99629,5.50123 9.88718,12.81781 14.07952,20.07843 7.99598,13.84803 12.83566,26.11082 13.32471,27.33272 -0.73706,2.98096 -4.32957,18.13131 -4.0443,40.51441 0.19609,15.38342 2.60615,30.88826 1.58117,40.53823 -0.90403,8.51131 -3.34902,17.1761 -5.78436,26.12497 -2.06456,7.58648 -1.05874,15.20059 4.51308,19.33951 5.57181,4.13897 13.25245,2.89304 20.17377,-1.50967 10.67036,-6.78741 15.09532,-15.06866 20.60283,-25.394 9.61376,-18.02354 18.69645,-40.69454 23.15336,-60.18758 4.47665,-19.57939 3.85833,-47.73086 2.34394,-71.44647 -1.39921,-21.91202 -3.43251,-36.9671 -3.77414,-39.57683 1.66863,-1.27221 3.88949,-2.86986 8.23955,-6.8014 5.72193,-5.17143 12.17903,-11.39168 15.30316,-18.59261 9.77518,-22.5312 8.56758,-46.1682 8.96258,-69.54748 0.31053,-18.37713 3.98549,-38.880789 -2.35984,-58.225055 C 302.80323,53.233671 294.36057,42.534006 283.32333,36.528668 274.51583,31.73652 261.34475,19.523424 247.50965,19.198299 Z m -43.22172,24.581254 c 2.28266,0.0092 6.96191,1.939178 9.10894,1.553254 2.75654,-0.495483 3.67226,-3.917156 8.43218,-3.900527 6.07166,0.02103 12.23977,-3.052381 16.08541,-4.975122 3.84565,-1.922739 6.79566,-3.201742 9.48702,-3.138495 7.87265,0.185006 20.6455,8.01675 30.4156,13.332647 8.02603,4.366957 14.97745,13.064438 17.88544,21.929744 5.12565,15.625954 -0.63452,34.848826 -0.96555,54.442966 -0.40276,23.83655 3.18333,45.70193 -5.25581,65.15358 -1.51788,3.49862 -7.20165,9.87658 -12.45864,14.62778 -5.25699,4.75122 -5.25458,5.605 -13.99132,11.94751 -4.37787,3.17815 -6.38904,7.62608 -27.86097,8.46946 -1.49835,0.0589 -10.53973,-0.6479 -10.84219,2.28771 -0.30248,2.93561 9.77042,3.66024 11.50588,3.5832 19.06173,-0.8462 24.34383,-4.53808 29.59603,-7.11525 0.73988,5.9931 2.20172,18.46424 3.35303,36.49396 1.48669,23.28197 1.78119,51.24592 -2.08174,68.14111 -4.12486,18.04076 -12.94877,40.20694 -22.08071,57.3272 -5.5367,10.38005 -6.87622,19.60332 -15.34577,24.99086 -4.67486,2.97367 -11.01092,3.4877 -11.40986,3.19141 -0.39883,-0.29599 -1.96982,-7.76773 -0.62176,-12.72119 2.40956,-8.85418 6.7172,-17.38149 7.76194,-27.21745 1.32735,-12.49676 1.34193,-27.92916 1.16139,-42.09455 -0.29502,-23.14662 2.70491,-42.72047 2.70491,-42.72047 0,0 -6.19803,-14.93537 -15.09137,-30.33754 -4.44667,-7.70109 -11.94265,-14.67967 -17.81732,-21.14806 -5.87467,-6.46838 -9.84441,-12.27662 -17.82079,-13.63577 -5.01276,-0.85416 -5.85872,0.27508 -9.96512,2.43014 -4.1064,2.15503 -9.67087,6.01111 -13.00863,8.90142 -6.23369,5.398 -10.59581,11.03888 -11.7424,12.01489 -1.1466,0.976 -19.50801,12.35932 -23.2449,33.16401 -2.42274,13.48831 -7.09883,26.80836 -9.97376,32.55585 -8.33434,16.66175 -3.22353,36.73141 -1.26117,54.29012 1.31425,11.75961 7.65318,19.92259 9.86464,25.40787 1.10574,2.74266 5.26364,8.77683 3.65022,10.59315 -1.61343,1.81636 -8.21863,1.09509 -11.80539,-0.17894 -3.58675,-1.27377 -8.36421,-6.18731 -12.866277,-10.37115 -9.004131,-8.36762 -17.544678,-21.09244 -22.432164,-29.25368 -4.435261,-7.4061 -6.387431,-17.40118 -6.554439,-27.54964 -0.167008,-10.14847 0.193625,-21.02857 -1.304272,-32.00166 -1.645583,-12.05524 -5.675764,-22.82838 -4.843744,-32.01081 0.698936,-7.7136 6.925114,-20.61678 11.104752,-31.08303 2.916055,-7.30209 5.198863,-12.3249 6.634542,-15.41439 17.717475,7.66661 39.909782,4.27738 63.971542,0.10151 5.61028,-0.97364 3.24622,-5.98363 -0.93942,-5.31382 -23.48659,3.75843 -30.8096,4.99175 -44.313967,2.19213 -2.23567,-0.46332 -14.705849,-4.13791 -16.846238,-4.93274 -4.703808,-1.74674 -10.272221,-3.81852 -16.612129,-6.51831 -6.339941,-2.69978 -12.409154,-8.30621 -13.657248,-10.58098 -8.00992,-14.59893 -7.848668,-44.1396 -10.305388,-71.04124 -2.294222,-25.1223 1.71963,-46.131121 7.198675,-69.634883 1.467937,-6.297081 5.287792,-10.704745 10.702669,-14.023912 5.414878,-3.319163 12.398557,-5.260257 18.981942,-5.81615 4.601702,-0.388546 9.723574,0.925712 15.493839,2.645874 5.770269,1.720162 12.144315,3.841791 19.339495,3.790031 21.26669,-0.152872 39.11293,-10.506936 55.68247,-10.996523 2.97215,-0.08782 10.58072,0.990219 13.42191,2.479851 z m -21.77599,-7.687045 c -6.72176,4.827161 0.93995,15.741805 -4.08199,18.076873 -3.06052,1.423064 -6.12104,2.208758 -9.18156,1.482769 -2.33975,-0.55501 -4.53916,-1.362751 -4.22351,-2.737192 0.31564,-1.374441 0.069,-2.545815 2.082,-5.185173 2.06501,-2.707524 0.90145,-6.616397 -2.88803,-4.165321 -2.50644,1.621194 -4.37163,4.762106 -8.11152,6.626987 -3.73988,1.864881 -8.00287,1.335486 -14.9197,0.884609 -2.52977,-0.16492 -5.038,3.603992 -1.53589,4.599375 5.7275,1.627887 10.48154,4.807442 15.74755,3.512802 1.3336,1.591839 2.90543,2.892887 4.62431,3.718517 1.81422,0.871428 3.68653,1.477633 5.52216,2.042011 0,0 -0.91006,8.365688 -0.69618,12.54999 0.14032,2.745106 1.29385,8.143939 1.29385,8.143939 0.71441,4.496718 5.81755,7.121818 8.21446,0.397293 0.80599,-2.261217 -0.6758,-5.576465 -0.82022,-8.250337 -0.23001,-4.258843 1.35627,-12.451562 1.35627,-12.451562 5.20434,0.304491 8.11285,-0.91325 13.07761,-3.244215 3.87221,-1.818015 11.33985,-12.699412 16.31638,-18.31432 z"
       id="path4150"
       inkscape:connector-curvature="0"
       sodipodi:nodetypes="sssssssssssssscsssssscsssssssssssscsssssssscsssssscssssssssssszscsssssssscsssssssssssssssssscssssssssssssscccsssssssscscsssscscc" />
  </g>
</svg>
