<?xml version="1.0" encoding="UTF-8" standalone="no"?>
<svg
   height="125mm"
   space="preserve"
   version="1.0"
   viewBox="0 0 311.81103 442.91339"
   width="88mm"
   id="svg2"
   inkscape:version="1.2.2 (732a01da63, 2022-12-09)"
   sodipodi:docname="towel.svg"
   xmlns:inkscape="http://www.inkscape.org/namespaces/inkscape"
   xmlns:sodipodi="http://sodipodi.sourceforge.net/DTD/sodipodi-0.dtd"
   xmlns="http://www.w3.org/2000/svg"
   xmlns:svg="http://www.w3.org/2000/svg"
   xmlns:rdf="http://www.w3.org/1999/02/22-rdf-syntax-ns#"
   xmlns:cc="http://creativecommons.org/ns#"
   xmlns:dc="http://purl.org/dc/elements/1.1/">
  <title
     id="title3778">towel on rack green</title>
  <defs
     id="defs33" />
  <sodipodi:namedview
     pagecolor="#ffffff"
     bordercolor="#666666"
     borderopacity="1"
     objecttolerance="10"
     gridtolerance="10"
     guidetolerance="10"
     inkscape:pageopacity="0"
     inkscape:pageshadow="2"
     inkscape:window-width="989"
     inkscape:window-height="896"
     id="namedview31"
     showgrid="false"
     inkscape:zoom="1.0680141"
     inkscape:cx="228.92957"
     inkscape:cy="310.38917"
     inkscape:window-x="615"
     inkscape:window-y="0"
     inkscape:window-maximized="0"
     inkscape:current-layer="svg2"
     inkscape:showpageshadow="0"
     inkscape:pagecheckerboard="0"
     inkscape:deskcolor="#d1d1d1"
     inkscape:document-units="pt" />
  <metadata
     id="metadata4">
    <rdf:RDF>
      <cc:Work
         rdf:about="">
        <dc:title>towel on rack green</dc:title>
        <dc:description />
        <dc:subject>
          <rdf:Bag>
            <rdf:li>bathroom</rdf:li>
            <rdf:li>towel</rdf:li>
            <rdf:li>bathroom</rdf:li>
            <rdf:li>household</rdf:li>
          </rdf:Bag>
        </dc:subject>
        <dc:publisher>
          <cc:Agent
             rdf:about="http://www.openclipart.org">
            <dc:title>StarExterminator</dc:title>
          </cc:Agent>
        </dc:publisher>
        <dc:creator>
          <cc:Agent>
            <dc:title>StarExterminator</dc:title>
          </cc:Agent>
        </dc:creator>
        <dc:rights>
          <cc:Agent>
            <dc:title>StarExterminator</dc:title>
          </cc:Agent>
        </dc:rights>
        <dc:date />
        <dc:format>image/svg+xml</dc:format>
        <dc:type
           rdf:resource="http://purl.org/dc/dcmitype/StillImage" />
        <cc:license
           rdf:resource="http://creativecommons.org/publicdomain/zero/1.0/" />
        <dc:language>en</dc:language>
      </cc:Work>
      <cc:License
         rdf:about="http://creativecommons.org/publicdomain/zero/1.0/">
        <cc:permits
           rdf:resource="http://creativecommons.org/ns#Reproduction" />
        <cc:permits
           rdf:resource="http://creativecommons.org/ns#Distribution" />
        <cc:permits
           rdf:resource="http://creativecommons.org/ns#DerivativeWorks" />
      </cc:License>
    </rdf:RDF>
  </metadata>
  <path
     d="M 257.69081,93.366579 A 26.330843,24.581939 80.301648 1 1 306.152,85.084075 26.330843,24.581939 80.301648 1 1 257.69081,93.366579 Z"
     id="path1045"
     style="fill:#cbe6f2;fill-opacity:1;fill-rule:evenodd;stroke:#003f7f;stroke-width:1.55461;stroke-linecap:butt;stroke-linejoin:miter;stroke-dasharray:none;stroke-opacity:0.5" />
  <path
     d="M 54.37624,93.301669 A 24.581964,26.330859 3.5826105 1 0 5.3083928,90.229536 24.581964,26.330859 3.5826105 1 0 54.37624,93.301669 Z"
     id="path1043"
     style="fill:#cbe6f2;fill-opacity:1;fill-rule:evenodd;stroke:#003f7f;stroke-width:1.55461;stroke-linecap:butt;stroke-linejoin:miter;stroke-dasharray:none;stroke-opacity:0.5" />
  <path
     d="m 58.189785,83.360373 c -8.423613,1.95077 -21.557243,5.66627 -25.419869,0.678283 -2.755823,-3.855151 9.523707,-6.818727 0.607766,-10.287194 -9.323723,-3.435714 -20.838021,3.167171 -20.946827,17.553431 -0.08439,12.997037 9.895215,26.291867 39.255302,18.911187 z"
     id="path1040"
     style="font-size:12px;fill:#cbe6f2;fill-rule:evenodd;stroke:#003f7f;stroke-width:1.55458;stroke-opacity:0.5" />
  <path
     d="M 28.931481,77.138856 C 12.142028,73.493612 9.3202603,108.78269 37.101826,91.451724 30.366305,89.648713 21.146409,90.460397 28.931481,77.138856 Z"
     id="path1044"
     style="fill:#e5f2f8;fill-opacity:1;fill-rule:evenodd;stroke:none;stroke-width:0.490518pt;stroke-linecap:butt;stroke-linejoin:miter;stroke-opacity:1" />
  <path
     d="m 48.490497,86.46385 c 19.780067,72.88931 3.62241,115.14978 -1.010526,143.69169 -2.224881,13.70609 -8.601411,63.14514 -9.828319,76.90971 19.440256,-0.16487 35.531301,53.3003 124.219178,44.58841 78.5917,-40.22624 86.58674,-85.81992 101.74674,-182.21408 3.63032,-22.61272 19.67089,-38.82394 0.39795,-82.424344 z"
     id="path616"
     style="font-size:12px;fill:#000d0b;fill-rule:evenodd;stroke:#003f3f;stroke-width:3.14255;stroke-opacity:0.5" />
  <path
     d="m 238.5783,85.854425 c 11.82315,2.071138 28.85422,5.863091 28.52278,-0.436673 -1.05398,-19.690425 31.27576,-17.22884 31.4858,3.36611 -0.0972,15.622868 -18.91182,32.586298 -65.79483,23.837478 z"
     id="path1046"
     style="font-size:12px;fill:#cbe6f2;fill-rule:evenodd;stroke:#003f7f;stroke-width:1.55458;stroke-opacity:0.5" />
  <path
     d="m 276.28808,76.544162 c 10.20155,-2.931089 16.42975,2.606548 17.74846,8.478512 3.56444,16.210016 -38.62951,17.330586 -29.08736,10.909822 15.39009,-10.127927 1.54066,-16.670301 11.3389,-19.388334 z"
     id="path1047"
     style="fill:#e5f2f8;fill-opacity:1;fill-rule:evenodd;stroke:none;stroke-width:0.490518pt;stroke-linecap:butt;stroke-linejoin:miter;stroke-opacity:1" />
  <path
     d="m 71.660974,205.4121 c 14.741679,27.28751 4.620334,103.0521 -5.873264,123.4083 45.56557,41.83047 120.31127,35.4329 177.94721,26.1856 0.59308,-9.48175 -2.18717,-20.53773 5.22622,-33.70637 18.28768,-33.46126 -1.51477,-51.53836 7.50997,-87.08452 7.76279,-33.63221 8.88505,-59.83469 5.34376,-74.84542 C 251.40936,115.98791 254.2891,88.360716 264.71049,88.4371 260.737,74.536561 216.20961,85.679561 203.5622,82.740417 155.88102,71.792001 114.31449,54.557332 95.36147,76.248855 86.83632,86.339268 50.730186,78.646889 44.003161,86.98813 33.541863,99.959667 39.573614,144.74456 71.660974,205.4121 Z"
     id="path615"
     style="font-size:12px;fill:#001900;fill-rule:evenodd;stroke:#007f00;stroke-width:3.14255;stroke-opacity:0.4924" />
  <path
     d="m 199.49821,315.29344 c 19.56793,-4.22174 34.7264,22.48141 41.11697,12.21654 15.61725,-25.64972 -24.44609,-31.76799 -41.11697,-12.21654 z"
     id="path650"
     style="fill:#000000;fill-opacity:1;fill-rule:evenodd;stroke:none;stroke-width:0.490518pt;stroke-linecap:butt;stroke-linejoin:miter;stroke-opacity:1" />
  <path
     d="m 83.522185,105.5981 c 44.742725,43.17361 82.905845,14.21001 118.021825,1.64539 -54.4309,-8.424816 -70.72055,17.24749 -118.021825,-1.64539 z"
     id="path643"
     style="fill:#000000;fill-opacity:1;fill-rule:evenodd;stroke:none;stroke-width:0.490518pt;stroke-linecap:butt;stroke-linejoin:miter;stroke-opacity:0.498" />
  <path
     d="M 55.593769,92.386852 C 83.572954,98.845123 134.37103,106.43571 160.90279,93.797297 127.96403,93.366392 105.4864,85.11497 112.53587,69.748396 103.48391,68.054044 100.28342,83.628642 82.439318,84.408492 39.828531,85.522987 45.327005,90.036129 55.593769,92.386852 Z"
     id="path642"
     style="fill:#000000;fill-opacity:1;fill-rule:evenodd;stroke:none;stroke-width:0.490518pt;stroke-linecap:butt;stroke-linejoin:miter;stroke-opacity:1" />
  <g
     id="g979"
     style="fill:#3ce13c;fill-opacity:0.5"
     transform="matrix(0.62061835,0.03885685,-0.03885685,0.62061835,-46.519886,19.193942)">
    <path
       d="m 245.4972,75.36441 c -4.7976,4.27763 -1.562,7.32189 -22.3388,20.39936 -35.6289,21.02743 42.8715,105.47313 55.9116,214.35323 4.064,34.1872 25.528,160.2365 -0.591,201.0358 -2.7986,4.6043 15.9832,7.0573 18.7868,2.8209 20.4299,-29.625 -5.9129,-180.9491 -9.5724,-222.9381 -8.0458,-83.6752 -70.2755,-170.141 -49.2902,-189.3765 14.773,-12.78588 18.3338,-37.13167 7.094,-26.29469 z"
       id="path634"
       style="fill:#3ce13c;fill-opacity:0.5;fill-rule:evenodd;stroke:none;stroke-width:1pt;stroke-linecap:butt;stroke-linejoin:miter;stroke-opacity:1" />
    <path
       d="m 197.6094,98.20991 c -13.2388,37.65239 45.344,130.75139 55.9116,202.12189 5.1001,34.051 29.6488,161.052 3.5298,201.8513 -2.7987,4.6041 14.3349,10.3188 17.1384,6.0826 20.43,-29.625 -0.3924,-166.414 -5.4516,-208.2606 -8.0458,-65.7359 -80.5821,-181.6235 -55.8834,-203.23868 7.7715,-7.42915 -12.4517,-4.15631 -15.2448,1.44349 z"
       id="path635"
       style="fill:#3ce13c;fill-opacity:0.5;fill-rule:evenodd;stroke:none;stroke-width:1pt;stroke-linecap:butt;stroke-linejoin:miter;stroke-opacity:1" />
    <path
       d="m 156.4011,107.995 c -13.2388,37.6523 33.6238,129.8478 53.4391,165.4278 25.8984,44.646 35.418,165.9442 9.2989,206.7437 -2.7986,4.6042 5.9815,12.9847 12.1934,4.4517 21.7482,-28.7419 16.4986,-154.578 -17.8139,-221.3073 -55.5623,-110.7138 -49.95,-128.3164 -49.2902,-161.652 0.2583,-5.80312 -5.0342,0.7363 -7.8273,6.3361 z"
       id="path636"
       style="fill:#3ce13c;fill-opacity:0.5;fill-rule:evenodd;stroke:none;stroke-width:1pt;stroke-linecap:butt;stroke-linejoin:miter;stroke-opacity:1" />
    <path
       d="m 172.8844,102.287 c -13.2388,37.6524 41.2134,125.3988 61.6808,199.6757 12.8002,49.4431 27.1763,148.8205 1.0573,189.6198 -2.7986,4.6042 13.5107,12.7652 16.3143,8.5289 20.4301,-29.625 4.2563,-156.6244 -7.0999,-206.6297 -13.021,-59.2062 -69.868,-146.5604 -56.7077,-192.6382 3.1079,-10.24031 -12.4517,-4.15632 -15.2448,1.4435 z"
       id="path638"
       style="fill:#3ce13c;fill-opacity:0.5;fill-rule:evenodd;stroke:none;stroke-width:1pt;stroke-linecap:butt;stroke-linejoin:miter;stroke-opacity:1" />
    <path
       d="m 269.398,64.76377 c -8.5141,2.47966 -3.512,25.86077 -10.8005,32.63076 -39.575,35.17807 32.9814,75.30247 38.6041,200.49107 1.3184,34.3981 31.2972,178.1758 5.1782,218.9752 -2.7987,4.6042 22.1119,8.0853 24.5558,3.6364 5.5951,-11.6857 -23.9678,-196.3345 -21.9348,-238.4314 5.1409,-89.3831 -53.091,-157.6518 -28.686,-179.5911 11.8923,-11.50643 2.7042,-40.27293 -6.9168,-37.71093 z"
       id="path639"
       style="fill:#3ce13c;fill-opacity:0.5;fill-rule:evenodd;stroke:none;stroke-width:1pt;stroke-linecap:butt;stroke-linejoin:miter;stroke-opacity:1" />
    <path
       d="m 296.5954,63.94832 c -13.6562,-4.21765 2.8518,12.95762 -3.3829,30.99982 -18.6934,54.91076 18.316,28.75276 22.1208,211.09176 1.0194,49.0738 23.8797,165.129 19.1889,214.0825 -0.423,5.3565 22.8243,6.2003 22.0834,1.1902 -24.899,-173.9552 -27.052,-172.1864 -29.3523,-214.7841 -8.8756,-182.0732 0.8227,-139.0078 -12.2027,-210.57714 -2.9742,-17.44587 -4.403,-27.4086 -18.4552,-32.00304 z"
       id="path640"
       style="fill:#3ce13c;fill-opacity:0.5;fill-rule:evenodd;stroke:none;stroke-width:1pt;stroke-linecap:butt;stroke-linejoin:miter;stroke-opacity:1" />
    <path
       d="m 323.793,70.47175 c -13.6563,-4.21766 1.9138,11.12409 4.0344,32.63065 6.8102,60.709 6.7778,20.5985 6.4617,202.9375 -0.0847,49.0842 30.4731,165.9443 29.0789,214.0825 -0.0635,5.3724 25.1048,3.6217 23.7317,-1.2561 C 349.8383,387.3132 346.2001,369.503 343.7367,326.9142 338.9819,230.4606 355.63,198.6056 350.4897,124.4913 349.9772,105.2177 337.845,75.06619 323.793,70.47175 Z"
       id="path641"
       style="fill:#3ce13c;fill-opacity:0.5;fill-rule:evenodd;stroke:none;stroke-width:1pt;stroke-linecap:butt;stroke-linejoin:miter;stroke-opacity:1" />
    <path
       d="m 347.7188,72.37057 c -9.108,-0.68007 8.8155,14.78431 10.9361,36.29083 6.8102,60.709 1.6183,59.104 -6.1725,193.3355 -3.1395,54.5972 12.2797,110.3537 40.1971,218.1255 1.3532,5.1996 18.0372,2.6088 16.6565,-2.2669 C 373.5907,389.84 361.8902,332.1368 363.9514,292.5491 367.311,228.5338 381.4039,197.5949 376.2636,123.4805 375.7509,104.207 362.4568,73.53571 347.7188,72.37057 Z"
       id="path644"
       style="fill:#3ce13c;fill-opacity:0.5;fill-rule:evenodd;stroke:none;stroke-width:1pt;stroke-linecap:butt;stroke-linejoin:miter;stroke-opacity:1" />
    <path
       d="m 369.4411,79.2274 c 27.8065,45.884 13.8965,91.6406 2.2454,223.7803 -6.3829,73.1051 28.314,107.2496 42.2185,213.0718 0.7046,5.3265 15.4154,4.2561 14.6351,-0.7508 -8.6795,-54.9761 -9.4871,-70.9152 -23.6897,-106.79 -9.6926,-22.6776 -31.0861,-48.0704 -18.7889,-127.7073 16.2196,-100.4103 24.8912,-104.5999 6.8074,-175.5381 -6.6517,-26.35554 -26.6543,-31.5305 -23.4278,-26.0659 z"
       id="path645"
       style="fill:#3ce13c;fill-opacity:0.5;fill-rule:evenodd;stroke:none;stroke-width:1pt;stroke-linecap:butt;stroke-linejoin:miter;stroke-opacity:1" />
    <path
       d="m 395.885,89.94791 c 19.6662,55.02999 19.4879,102.90599 -1.3282,208.05689 -16.353,78.9966 27.5994,89.3821 41.5039,213.7864 0.5664,5.343 8.5076,5.737 8.2027,0.6787 -4.3912,-72.129 -6.5614,-93.6108 -22.2602,-118.9399 -29.6729,-48.314 -7.8998,-95.3033 4.7961,-174.8775 6.9285,-38.946 -11.4764,-67.4571 -17.4923,-129.08244 -0.9563,-8.75524 -16.9886,-9.97881 -13.422,0.37785 z"
       id="path646"
       style="fill:#3ce13c;fill-opacity:0.5;fill-rule:evenodd;stroke:none;stroke-width:1pt;stroke-linecap:butt;stroke-linejoin:miter;stroke-opacity:1" />
    <path
       d="m 418.0407,89.94799 c -5.8928,37.76131 36.2046,67.56281 12.2512,168.03361 -13.0347,55.8141 -16.7411,66.9278 -13.5352,92.0964 7.9657,63.251 36.6514,27.3263 32.1685,160.2838 -0.2098,5.3686 12.9714,3.5967 13.2057,-1.4654 3.4705,-74.2731 5.4693,-101.4162 -12.2545,-125.3722 -23.2405,-30.4465 -9.3291,-87.4415 3.3668,-167.0158 6.9284,-38.946 -27.6603,-85.6703 -18.9217,-129.0824 1.0052,-5.07575 -15.6755,-5.93665 -16.2808,2.52199 z"
       id="path647"
       style="fill:#3ce13c;fill-opacity:0.5;fill-rule:evenodd;stroke:none;stroke-width:1pt;stroke-linecap:butt;stroke-linejoin:miter;stroke-opacity:1" />
    <path
       d="m 443.7699,86.37452 c -11.6103,54.19938 29.4671,77.43688 9.3924,178.75398 -13.0348,69.3935 -0.8739,101.5264 12.9086,122.8286 12.254,18.225 14.4957,24.4676 0.007,120.2605 -0.7977,5.3133 6.8885,2.8519 7.488,-2.1799 8.4734,-77.1319 22.2518,-93.9642 9.9012,-121.0841 -23.2405,-52.6022 -17.8802,-67.835 -8.0683,-142.7159 7.2225,-55.6463 -29.8045,-85.6704 -11.0601,-161.95873 1.2788,-5.01358 -18.77,-2.19174 -20.569,6.09555 z"
       id="path648"
       style="fill:#3ce13c;fill-opacity:0.5;fill-rule:evenodd;stroke:none;stroke-width:1pt;stroke-linecap:butt;stroke-linejoin:miter;stroke-opacity:1" />
    <path
       d="m 470.2138,81.37153 c -16.6132,82.07267 23.6702,89.04707 10.8219,197.33627 -6.6759,55.8947 1.2701,85.8029 15.0527,107.1052 12.2539,18.2249 -14.8071,76.6406 -17.1457,119.5458 -0.2876,5.3651 10.0501,2.8788 10.3468,-2.18 4.9,-82.8494 25.7898,-58.84 13.4747,-128.2311 -7.2723,-36.9495 -6.095,-48.4651 -1.6361,-121.2748 4.0804,-67.3428 -30.5191,-105.682 -15.3482,-176.25273 1.077,-5.06083 -13.8143,-4.34603 -15.5661,3.95136 z"
       id="path649"
       style="fill:#3ce13c;fill-opacity:0.5;fill-rule:evenodd;stroke:none;stroke-width:1pt;stroke-linecap:butt;stroke-linejoin:miter;stroke-opacity:1" />
  </g>
</svg>
