<?xml version="1.0" encoding="UTF-8" standalone="no"?>
<!-- Generator: Adobe Illustrator 12.0.0, SVG Export Plug-In . SVG Version: 6.00 Build 51448)  -->

<svg
   id="Layer_1"
   sodipodi:docname="turkey.svg"
   xml:space="preserve"
   viewBox="0 0 332.59842 472.44094"
   sodipodi:version="0.32"
   version="1.0"
   inkscape:version="1.2.2 (732a01da63, 2022-12-09)"
   width="88mm"
   height="125mm"
   xmlns:inkscape="http://www.inkscape.org/namespaces/inkscape"
   xmlns:sodipodi="http://sodipodi.sourceforge.net/DTD/sodipodi-0.dtd"
   xmlns="http://www.w3.org/2000/svg"
   xmlns:svg="http://www.w3.org/2000/svg"
   xmlns:rdf="http://www.w3.org/1999/02/22-rdf-syntax-ns#"
   xmlns:cc="http://creativecommons.org/ns#"
   xmlns:dc="http://purl.org/dc/elements/1.1/"><defs
   id="defs183" />
<sodipodi:namedview
   id="base"
   bordercolor="#666666"
   inkscape:pageshadow="2"
   inkscape:window-width="767"
   pagecolor="#ffffff"
   inkscape:zoom="1.3643205"
   inkscape:window-x="110"
   borderopacity="1.0"
   inkscape:current-layer="Layer_1"
   inkscape:cx="130.46788"
   inkscape:cy="260.56927"
   inkscape:window-y="110"
   inkscape:window-height="540"
   inkscape:pageopacity="0.0"
   inkscape:showpageshadow="0"
   inkscape:pagecheckerboard="0"
   inkscape:deskcolor="#d1d1d1"
   showgrid="false"
   inkscape:document-units="mm" />
<path
   id="path3"
   style="fill:#ff7f00;stroke-width:1.2812"
   d="m 219.78672,334.60658 c 1.64249,7.454 2.76866,17.56008 6.72756,24.16081 5.42971,9.05421 6.28299,4.73274 15.9445,4.73274 6.15102,0 7.09142,4.43422 11.70629,5.97934 7.97417,2.67002 11.39753,-2.41634 17.43709,7.96904 -5.53605,-4.64049 -9.18875,-0.60344 -14.94644,-1.99097 -5.68852,-1.37089 -7.81659,-6.87747 -14.44934,-5.48096 6.38677,7.89473 21.1359,7.76405 22.91933,17.93803 -7.82299,-5.6552 -17.99569,-6.47517 -26.40162,-11.95997 1.18638,5.70133 5.80382,13.05539 4.98257,19.9303 -0.67135,-4.41373 -3.67063,-5.78204 -5.48352,-8.96838 -0.2178,-0.3818 -4.03065,-9.0145 -3.98452,-8.9671 -5.431,-5.62061 -11.74473,-7.97801 -19.92646,-2.99159 2.74945,-4.56234 6.56742,-8.44437 11.95741,-7.47194 -9.09906,-6.95306 -17.19622,-19.06677 -21.42417,-29.64049 -2.26772,-5.70132 10.56987,-3.38236 14.95157,-3.25424" />
<path
   id="path5"
   style="fill:none;stroke:#000000;stroke-width:0.896838;stroke-linecap:square;stroke-miterlimit:10"
   d="m 219.78672,334.60658 c 1.64249,7.454 2.76866,17.56008 6.72756,24.16081 5.42971,9.05421 6.28299,4.73274 15.9445,4.73274 6.15102,0 7.09142,4.43422 11.70629,5.97934 7.97417,2.67002 11.39753,-2.41634 17.43709,7.96904 -5.53605,-4.64049 -9.18875,-0.60344 -14.94644,-1.99097 -5.68852,-1.37089 -7.81659,-6.87747 -14.44934,-5.48096 6.38677,7.89473 21.1359,7.76405 22.91933,17.93803 -7.82299,-5.6552 -17.99569,-6.47517 -26.40162,-11.95997 1.18638,5.70133 5.80382,13.05539 4.98257,19.9303 -0.67135,-4.41373 -3.67063,-5.78204 -5.48352,-8.96838 -0.2178,-0.3818 -4.03065,-9.0145 -3.98452,-8.9671 -5.431,-5.62061 -11.74473,-7.97801 -19.92646,-2.99159 2.74945,-4.56234 6.56742,-8.44437 11.95741,-7.47194 -9.09906,-6.95306 -17.19622,-19.06677 -21.42417,-29.64049 -2.26772,-5.70132 10.56987,-3.38236 14.95157,-3.25424" />
<path
   id="path7"
   style="fill:#ff7f00;stroke-width:1.2812"
   d="m 198.36511,344.57429 c 0.98268,8.14072 1.37985,16.59662 3.98452,24.4132 3.51945,10.5545 6.35474,5.21191 15.44611,6.72372 5.69235,0.94681 7.8217,5.12095 11.95484,7.22595 6.60585,3.36442 11.70117,-1.08133 14.94516,9.96515 -4.32532,-5.3285 -8.63526,-1.95126 -13.94838,-3.98452 -5.06073,-1.93717 -7.67694,-7.20801 -13.94967,-6.9774 5.05688,8.70189 20.57473,10.53913 20.42355,20.42484 -7.69743,-6.54179 -17.08988,-7.37713 -24.40808,-14.94644 -0.22036,5.95884 4.44063,13.47691 1.9897,20.42868 0.3408,-6.01266 -3.88971,-6.24327 -5.4784,-10.4661 -0.0935,-0.24855 -1.72961,-9.68072 -1.49387,-9.46163 -5.61036,-5.22985 -18.40824,-1.48619 -25.40998,1.49259 5.36438,-4.59821 10.71081,-12.94521 18.43514,-11.45774 -5.36821,-6.00625 -18.01234,-22.43632 -16.93614,-30.88709 0.89684,-6.93128 6.08569,-4.12546 14.4519,-2.47271" />
<path
   id="path9"
   style="fill:none;stroke:#000000;stroke-width:0.896838;stroke-linecap:square;stroke-miterlimit:10"
   d="m 198.36511,344.57429 c 0.98268,8.14072 1.37985,16.59662 3.98452,24.4132 3.51945,10.5545 6.35474,5.21191 15.44611,6.72372 5.69235,0.94681 7.8217,5.12095 11.95484,7.22595 6.60585,3.36442 11.70117,-1.08133 14.94516,9.96515 -4.32532,-5.3285 -8.63526,-1.95126 -13.94838,-3.98452 -5.06073,-1.93717 -7.67694,-7.20801 -13.94967,-6.9774 5.05688,8.70189 20.57473,10.53913 20.42355,20.42484 -7.69743,-6.54179 -17.08988,-7.37713 -24.40808,-14.94644 -0.22036,5.95884 4.44063,13.47691 1.9897,20.42868 0.3408,-6.01266 -3.88971,-6.24327 -5.4784,-10.4661 -0.0935,-0.24855 -1.72961,-9.68072 -1.49387,-9.46163 -5.61036,-5.22985 -18.40824,-1.48619 -25.40998,1.49259 5.36438,-4.59821 10.71081,-12.94521 18.43514,-11.45774 -5.36821,-6.00625 -18.01234,-22.43632 -16.93614,-30.88709 0.89684,-6.93128 6.08569,-4.12546 14.4519,-2.47271" />
<path
   id="path11"
   style="fill:#ff7f00;stroke-width:1.2812"
   d="m 247.19152,108.92249 c 7.60518,-15.269303 -4.97105,-39.865718 -21.17178,-23.663704 -14.56208,14.562082 -20.77461,39.881094 -27.42658,58.739024 -4.37913,12.41352 -20.10966,49.45676 4.75837,27.69563 17.96237,-15.71516 35.30978,-40.5345 43.84255,-62.77095" />
<path
   id="path13"
   style="fill:none;stroke:#000000;stroke-width:0.896838;stroke-linecap:square;stroke-miterlimit:10"
   d="m 247.19152,108.92249 c 7.60518,-15.269303 -4.97105,-39.865718 -21.17178,-23.663704 -14.56208,14.562082 -20.77461,39.881094 -27.42658,58.739024 -4.37913,12.41352 -20.10966,49.45676 4.75837,27.69563 17.96237,-15.71516 35.30978,-40.5345 43.84255,-62.77095" />
<path
   id="path15"
   style="fill:#cccccc;stroke-width:1.2812"
   d="m 213.31667,105.43379 c 3.61554,-8.04079 10.95167,-24.675849 21.42161,-25.907079 14.58899,-1.714241 17.4025,19.46266 12.4558,29.395779 0.37411,-9.915182 -11.75754,-10.537844 -7.47322,-21.424172 -3.55276,8.53277 -9.33224,4.035769 -15.44227,6.974835 -5.40665,2.596985 -8.51996,6.293237 -10.96704,10.960637" />
<path
   id="path17"
   style="fill:none;stroke:#000000;stroke-width:0.896838;stroke-linecap:square;stroke-miterlimit:10"
   d="m 213.31667,105.43379 c 3.61554,-8.04079 10.95167,-24.675849 21.42161,-25.907079 14.58899,-1.714241 17.4025,19.46266 12.4558,29.395779 0.37411,-9.915182 -11.75754,-10.537844 -7.47322,-21.424172 -3.19915,7.682055 -8.13688,4.472657 -13.94839,6.974835 -6.49695,2.798133 -9.04269,3.778249 -12.4558,11.459027" />
<path
   id="path19"
   style="fill:#ff7f00;stroke-width:1.2812"
   d="m 227.76857,96.466695 c 2.8622,-17.184692 -13.22323,-36.961245 -25.90836,-17.936755 -11.26812,16.902829 -11.54742,43.61706 -13.71008,63.10535 -1.56306,14.06625 -8.8172,52.04221 10.72361,25.57396 14.60565,-19.79449 23.8687,-46.70987 28.89099,-70.742555" />
<path
   id="path21"
   style="fill:none;stroke:#000000;stroke-width:0.896838;stroke-linecap:square;stroke-miterlimit:10"
   d="m 227.76857,96.466695 c 2.8622,-17.184692 -13.22323,-36.961245 -25.90836,-17.936755 -11.26812,16.902829 -11.54742,43.61706 -13.71008,63.10535 -1.20433,10.85045 -8.54046,52.54444 9.47829,27.31767 15.0784,-21.11028 23.96478,-46.83286 30.13887,-71.990442" />
<path
   id="path23"
   style="fill:#cccccc;stroke-width:1.2812"
   d="m 193.89373,100.95088 c 0.95321,-8.049756 5.89863,-27.085777 14.94644,-30.389983 14.22385,-5.195253 20.63239,15.916307 18.92968,26.402902 -1.9756,-9.118277 -13.07461,-8.05104 -12.45579,-18.432577 -0.79434,8.221439 -18.70547,8.489209 -21.42161,22.419658" />
<path
   id="path25"
   style="fill:none;stroke:#000000;stroke-width:0.896838;stroke-linecap:square;stroke-miterlimit:10"
   d="m 193.89373,100.95088 c 0.95321,-8.049756 5.89863,-27.085777 14.94644,-30.389983 14.22385,-5.195253 20.63239,15.916307 18.92968,26.402902 -1.9756,-9.118277 -13.07461,-8.05104 -12.45579,-18.432577 -0.79434,8.221439 -18.70547,8.489209 -21.42161,22.419658" />
<path
   id="path27"
   style="fill:#ff7f00;stroke-width:1.2812"
   d="M 200.36377,88.994755 C 199.5515,73.758764 183.75818,44.634599 174.95124,71.059282 c -6.4598,19.383226 -0.37027,46.403668 0.5791,66.400588 0.57269,12.08168 -0.46764,57.89471 13.87152,29.25356 10.14707,-20.29159 14.29815,-56.15101 10.95423,-77.718675" />
<path
   id="path29"
   style="fill:none;stroke:#000000;stroke-width:0.896838;stroke-linecap:square;stroke-miterlimit:10"
   d="M 200.36377,88.994755 C 199.5515,73.758764 183.75818,44.634599 174.95124,71.059282 c -6.4598,19.383226 -0.37027,46.403668 0.5791,66.400588 0.57269,12.08168 -0.46764,57.89471 13.87152,29.25356 11.14128,-22.25695 11.45774,-53.32853 11.45774,-77.718675" />
<path
   id="path31"
   style="fill:#cccccc;stroke-width:1.2812"
   d="m 172.95898,93.477663 c -0.18706,-7.224669 -1.27864,-28.647559 6.97611,-32.883196 12.885,-6.608413 19.5485,19.763741 20.92579,28.399007 -3.03259,-10.05227 -11.52821,-12.531385 -12.45708,-23.416433 0.58551,8.475117 -5.69748,7.213138 -9.46292,11.956128 -4.40731,5.561675 -5.30415,8.958128 -5.97037,15.944494" />
<path
   id="path33"
   style="fill:none;stroke:#000000;stroke-width:0.896838;stroke-linecap:square;stroke-miterlimit:10"
   d="m 172.95898,93.477663 c -0.18706,-7.224669 -1.27864,-28.647559 6.97611,-32.883196 12.885,-6.608413 19.5485,19.763741 20.92579,28.399007 -3.03259,-10.05227 -11.52821,-12.531385 -12.45708,-23.416433 0.90453,13.088706 -16.41597,11.779323 -14.94516,27.899341" />
<path
   id="path35"
   style="fill:#ff7f00;stroke-width:1.2812"
   d="M 177.44317,82.515743 C 172.76039,68.48792 152.93259,41.571258 149.048,69.562844 c -2.90063,20.90785 8.70573,45.016126 12.76585,65.328226 2.01404,10.07405 9.80628,55.90245 18.62091,27.83656 7.22595,-22.98211 3.19018,-57.27078 -2.98519,-80.211887" />
<path
   id="path37"
   style="fill:none;stroke:#000000;stroke-width:0.896838;stroke-linecap:square;stroke-miterlimit:10"
   d="M 177.44317,82.515743 C 172.76039,68.48792 152.93259,41.571258 149.048,69.562844 c -2.90063,20.90785 8.70573,45.016126 12.76585,65.328226 2.01404,10.07405 9.80628,55.90245 18.62091,27.83656 7.22595,-22.98211 3.19018,-57.27078 -2.98519,-80.211887" />
<path
   id="path39"
   style="fill:#cccccc;stroke-width:1.2812"
   d="m 151.0377,91.982506 c -1.29016,-6.992772 -6.66735,-28.377226 0.99677,-33.877404 11.45006,-8.216315 22.70793,16.331415 25.40485,24.410641 -4.79424,-9.740938 -13.15661,-10.075331 -16.43903,-20.921942 2.37918,8.280374 -4.15364,8.491772 -6.97356,13.948389 -3.16455,6.098496 -3.42079,9.651255 -2.998,16.440316" />
<path
   id="path41"
   style="fill:none;stroke:#000000;stroke-width:0.896838;stroke-linecap:square;stroke-miterlimit:10"
   d="m 151.0377,91.982506 c -1.29016,-6.992772 -6.66735,-28.377226 0.99677,-33.877404 11.45006,-8.216315 22.70793,16.331415 25.40485,24.410641 -4.79424,-9.740938 -13.15661,-10.075331 -16.43903,-20.921942 3.44642,11.994563 -13.36417,15.348737 -9.46549,30.388705" />
<path
   id="path43"
   style="fill:#ff7f00;stroke-width:1.2812"
   d="m 153.03637,80.025097 c -6.76472,-13.674213 -31.95305,-34.904924 -29.89673,-6.973554 1.622,22.026334 17.41018,44.832917 25.90836,65.015607 5.2465,12.46092 18.39286,48.71238 22.16983,18.68241 2.83144,-22.53368 -7.7128,-56.977378 -18.18018,-76.724463" />
<path
   id="path45"
   style="fill:none;stroke:#000000;stroke-width:0.896838;stroke-linecap:square;stroke-miterlimit:10"
   d="m 153.03637,80.025097 c -6.76472,-13.674213 -31.95305,-34.904924 -29.89673,-6.973554 1.55025,21.050063 16.43007,42.502417 24.53748,61.761367 4.13699,9.82678 19.51647,52.74944 23.2896,23.9302 3.1953,-24.40808 -7.81274,-56.04852 -17.43581,-78.218346" />
<path
   id="path47"
   style="fill:#cccccc;stroke-width:1.2812"
   d="m 129.61609,94.473153 c -3.75519,-6.002407 -11.68451,-26.568177 -5.97934,-33.379019 9.18746,-10.969607 26.07876,12.372517 29.89288,19.43063 -6.00241,-8.732637 -16.06749,-7.206732 -19.92902,-17.936755 4.58669,12.440421 -10.27391,17.388402 -3.98452,31.885144" />
<path
   id="path49"
   style="fill:none;stroke:#000000;stroke-width:0.896838;stroke-linecap:square;stroke-miterlimit:10"
   d="m 129.61609,94.473153 c -3.75519,-6.002407 -11.68451,-26.568177 -5.97934,-33.379019 9.18746,-10.969607 26.07876,12.372517 29.89288,19.43063 -6.00241,-8.732637 -16.06749,-7.206732 -19.92902,-17.936755 4.58669,12.440421 -10.27391,17.388402 -3.98452,31.885144" />
<path
   id="path51"
   style="fill:#ff7f00;stroke-width:1.2812"
   d="M 129.11642,82.515743 C 120.0289,71.083625 90.973916,53.733659 98.22677,81.021868 c 5.31184,19.987952 23.55096,39.462142 35.31235,56.125382 5.42202,7.68334 34.68199,49.81421 27.46245,17.35766 -5.36822,-24.19284 -16.11746,-52.47654 -31.87618,-71.989167" />
<path
   id="path53"
   style="fill:none;stroke:#000000;stroke-width:0.896838;stroke-linecap:square;stroke-miterlimit:10"
   d="M 129.11642,82.515743 C 120.0289,71.083625 90.973916,53.733659 98.22677,81.021868 c 5.31184,19.987952 23.55096,39.462142 35.31235,56.125382 5.42202,7.68334 34.68199,49.81421 27.46245,17.35766 -5.36822,-24.19284 -16.11746,-52.47654 -31.87618,-71.989167" />
<path
   id="path55"
   style="fill:#cccccc;stroke-width:1.2812"
   d="M 108.19448,100.95088 C 104.27658,95.090689 91.960437,76.823386 96.736739,69.067021 103.99856,57.273605 124.16332,76.28144 129.12027,82.517025 121.8072,75.134769 112.5877,78.266014 106.70061,69.067021 c 4.84548,7.758928 -1.8129,10.02024 -2.49065,16.439036 -0.67007,6.368829 1.72449,10.431503 3.98836,15.444823" />
<path
   id="path57"
   style="fill:none;stroke:#000000;stroke-width:0.896838;stroke-linecap:square;stroke-miterlimit:10"
   d="M 108.19448,100.95088 C 104.27658,95.090689 91.960437,76.823386 96.736739,69.067021 103.99856,57.273605 124.16332,76.28144 129.12027,82.517025 121.8072,75.134769 112.5877,78.266014 106.70061,69.067021 c 7.07733,11.334748 -7.402759,18.658068 1.99226,31.883859" />
<path
   id="path59"
   style="fill:#ff7f00;stroke-width:1.2812"
   d="M 106.20222,89.490578 C 94.805975,79.955912 63.210382,67.689735 75.315129,93.477663 c 8.709576,18.555577 29.586681,32.890887 43.841271,47.328687 5.75129,5.8256 20.05329,25.45482 28.39901,26.40419 9.2733,1.0557 4.50981,-6.34577 2.98903,-13.20146 -5.06073,-22.82195 -28.03002,-48.63166 -44.33581,-64.518502" />
<path
   id="path61"
   style="fill:none;stroke:#000000;stroke-width:0.896838;stroke-linecap:square;stroke-miterlimit:10"
   d="M 106.20222,89.490578 C 94.805975,79.955912 63.210382,67.689735 75.315129,93.477663 c 8.709576,18.555577 29.586681,32.890887 43.841271,47.328687 5.75129,5.8256 20.05329,25.45482 28.39901,26.40419 9.2733,1.0557 4.50981,-6.34577 2.98903,-13.20146 -5.06073,-22.82195 -28.03002,-48.63166 -44.33581,-64.518502" />
<path
   id="path63"
   style="fill:#cccccc;stroke-width:1.2812"
   d="M 88.765133,110.91475 C 83.47379,106.53562 68.305702,90.254172 71.328045,82.017358 c 4.872391,-13.282167 28.919175,2.490646 34.874175,7.47322 -8.899192,-5.847381 -17.693327,-1.033925 -24.910308,-9.465481 8.66089,9.310457 -2.362527,21.830313 7.473221,30.889653" />
<path
   id="path65"
   style="fill:none;stroke:#000000;stroke-width:0.896838;stroke-linecap:square;stroke-miterlimit:10"
   d="M 88.765133,110.91475 C 83.47379,106.53562 68.305702,90.254172 71.328045,82.017358 c 4.872391,-13.282167 28.919175,2.490646 34.874175,7.47322 -8.899192,-5.847381 -17.693327,-1.033925 -24.910308,-9.465481 9.108028,9.790905 -3.738532,20.444053 7.972887,31.388043" />
<path
   id="path67"
   style="fill:#ff7f00;stroke-width:1.2812"
   d="M 84.282225,99.954112 C 71.278078,91.963288 38.45638,87.577752 54.889009,110.41765 c 11.847227,16.46594 36.8485,28.35801 53.634741,39.21743 11.09901,7.17982 48.06281,34.33735 30.56167,4.12673 -12.45067,-21.49207 -35.09711,-39.35964 -54.801914,-53.807698" />
<path
   id="path69"
   style="fill:none;stroke:#000000;stroke-width:0.896838;stroke-linecap:square;stroke-miterlimit:10"
   d="M 84.282225,99.954112 C 71.278078,91.963288 38.45638,87.577752 54.889009,110.41765 c 11.749856,16.33269 35.90682,27.22543 52.311261,38.36159 9.03372,6.13309 49.1813,35.25725 32.88064,6.72628 C 127.6533,133.75849 105.19392,114.47904 84.778048,100.4525" />
<path
   id="path71"
   style="fill:#cccccc;stroke-width:1.2812"
   d="M 71.82643,124.86314 C 65.548566,121.3706 47.724557,108.42154 49.406769,99.454446 51.923039,86.044159 77.662282,95.619824 84.779329,100.45122 75.353565,96.580721 67.230778,102.13343 58.372583,95.967028 68.92452,103.09048 59.15027,116.07925 71.82643,124.86314" />
<path
   id="path73"
   style="fill:none;stroke:#000000;stroke-width:0.896838;stroke-linecap:square;stroke-miterlimit:10"
   d="M 71.82643,124.86314 C 65.548566,121.3706 47.724557,108.42154 49.406769,99.454446 51.923039,86.044159 77.662282,95.619824 84.779329,100.45122 75.353565,96.580721 67.230778,102.13343 58.372583,95.967028 68.92452,103.09048 59.15027,116.07925 71.82643,124.86314" />
<path
   id="path75"
   style="fill:#ff7f00;stroke-width:1.2812"
   d="m 65.351262,114.90055 c -13.938139,-4.8032 -48.251151,-4.03577 -27.400955,15.44355 15.092498,14.10085 41.56971,20.65417 60.264933,28.52328 11.59355,4.88008 50.36769,25.62906 32.15035,0.12428 C 115.988,138.87046 86.8459,125.65236 65.344856,114.90055" />
<path
   id="path77"
   style="fill:none;stroke:#000000;stroke-width:0.896838;stroke-linecap:square;stroke-miterlimit:10"
   d="m 65.351262,114.90055 c -13.938139,-4.8032 -48.251151,-4.03577 -27.400955,15.44355 15.092498,14.10085 41.56971,20.65417 60.264933,28.52328 11.59355,4.88008 50.36769,25.62906 32.15035,0.12428 C 115.988,138.87046 86.8459,125.65236 65.344856,114.90055" />
<path
   id="path79"
   style="fill:#cccccc;stroke-width:1.2812"
   d="m 57.379656,141.30474 c -6.736533,-2.1601 -26.670673,-11.4129 -26.903851,-20.42612 -0.352329,-13.70112 27.044783,-8.67627 34.874176,-5.97935 -10.085581,-1.98457 -16.736273,6.02291 -26.405465,0.49839 12.095778,6.23174 3.373391,20.30825 18.43514,25.90708" />
<path
   id="path81"
   style="fill:none;stroke:#000000;stroke-width:0.896838;stroke-linecap:square;stroke-miterlimit:10"
   d="m 57.379656,141.30474 c -6.736533,-2.1601 -26.670673,-11.4129 -26.903851,-20.42612 -0.352329,-13.70112 27.044783,-8.67627 34.874176,-5.97935 -10.085581,-1.98457 -16.736273,6.02291 -26.405465,0.49839 12.095778,6.23174 3.373391,20.30825 18.43514,25.90708" />
<path
   id="path83"
   style="fill:#ff7f00;stroke-width:1.2812"
   d="m 49.406769,132.83603 c -14.471118,-1.91411 -48.55479463,5.12863 -23.912256,20.42612 17.856039,11.08363 43.801554,12.0394 63.908655,16.82852 11.059292,2.63414 56.359842,15.02971 31.992762,-5.86789 -19.98026,-17.13856 -48.557354,-22.86936 -71.989161,-31.38675" />
<path
   id="path85"
   style="fill:none;stroke:#000000;stroke-width:0.896838;stroke-linecap:square;stroke-miterlimit:10"
   d="m 49.406769,132.83603 c -14.471118,-1.91411 -48.55479463,5.12863 -23.912256,20.42612 17.4294,10.81842 42.647196,11.828 62.27513,16.43903 9.883151,2.32281 55.669277,16.28401 35.369997,-3.98452 -17.44605,-17.41915 -50.224192,-27.3433 -73.732871,-32.38225" />
<path
   id="path87"
   style="fill:#cccccc;stroke-width:1.2812"
   d="m 46.417737,160.2357 c -6.823654,-0.78409 -28.632185,-6.09978 -30.391268,-14.94644 -2.717419,-13.65884 25.509908,-13.84717 33.3803,-11.95613 -10.618559,-1.01214 -15.225743,8.67242 -25.90708,4.98129 13.116892,4.00631 7.061957,20.32619 22.918048,21.92128" />
<path
   id="path89"
   style="fill:none;stroke:#000000;stroke-width:0.896838;stroke-linecap:square;stroke-miterlimit:10"
   d="m 46.417737,160.2357 c -6.823654,-0.78409 -28.632185,-6.09978 -30.391268,-14.94644 -2.717419,-13.65884 25.509908,-13.84717 33.3803,-11.95613 -10.618559,-1.01214 -15.225743,8.67242 -25.90708,4.98129 12.845279,3.92303 7.263105,18.87203 22.918048,22.42095" />
<path
   id="path91"
   style="fill:#ff7f00;stroke-width:1.2812"
   d="m 36.953536,153.76053 c -14.499303,0.52145 -46.7457442,13.47179 -19.927734,24.41192 18.655506,7.60903 44.981537,3.61554 64.765777,4.48291 10.88761,0.47789 60.004851,4.74555 31.635311,-11.45902 C 91.207094,158.5048 61.970184,155.74511 36.953536,153.76053" />
<path
   id="path93"
   style="fill:none;stroke:#000000;stroke-width:0.896838;stroke-linecap:square;stroke-miterlimit:10"
   d="m 36.953536,153.76053 c -14.499303,0.52145 -46.7457442,13.47179 -19.927734,24.41192 18.655506,7.60903 44.981537,3.61554 64.765777,4.48291 10.88761,0.47789 60.004851,4.74555 31.635311,-11.45902 C 91.207094,158.5048 61.970184,155.74511 36.953536,153.76053" />
<path
   id="path95"
   style="fill:#cccccc;stroke-width:1.2812"
   d="M 38.944516,181.16149 C 31.703192,181.49075 9.9074729,180.57982 6.5609871,171.69344 1.5476642,158.38181 28.633445,154.06033 36.953536,153.76053 c -10.895297,1.20945 -13.202732,11.51155 -24.910308,9.96387 13.731867,1.09414 10.633933,18.35955 26.901288,17.43709" />
<path
   id="path97"
   style="fill:none;stroke:#000000;stroke-width:0.896838;stroke-linecap:square;stroke-miterlimit:10"
   d="M 38.944516,181.16149 C 31.703192,181.49075 9.9074729,180.57982 6.5609871,171.69344 1.5476642,158.38181 28.633445,154.06033 36.953536,153.76053 c -10.895297,1.20945 -13.202732,11.51155 -24.910308,9.96387 13.731867,1.09414 10.633933,18.35955 26.901288,17.43709" />
<path
   id="path99"
   style="fill:#ff7f00;stroke-width:1.2812"
   d="m 28.482263,176.18019 c -14.471117,3.09025 -43.110989,22.2672 -14.946441,27.89678 19.970014,3.99093 45.984714,-4.73146 65.827889,-7.7064 9.990772,-1.49772 59.571809,-9.15159 27.336899,-17.20134 -26.065952,-6.50592 -51.724479,-4.47522 -78.218347,-2.98391" />
<path
   id="path101"
   style="fill:none;stroke:#000000;stroke-width:0.896838;stroke-linecap:square;stroke-miterlimit:10"
   d="m 28.482263,176.18019 c -14.471117,3.09025 -43.110989,22.2672 -14.946441,27.89678 19.970014,3.99093 45.984714,-4.73146 65.827889,-7.7064 9.990772,-1.49772 59.571809,-9.15159 27.336899,-17.20134 -26.065952,-6.50592 -51.724479,-4.47522 -78.218347,-2.98391" />
<path
   id="path103"
   style="fill:#cccccc;stroke-width:1.2812"
   d="M 35.459661,202.57925 C 28.529668,204.58817 7.0837153,207.60154 2.0793608,199.58894 -5.0658734,188.14913 20.078894,177.97003 28.482263,176.17635 18.763105,179.96613 17.314071,190.38482 6.0626015,190.62312 19.918744,189.84159 20.818144,207.54773 35.459661,202.57669" />
<path
   id="path105"
   style="fill:none;stroke:#000000;stroke-width:0.896838;stroke-linecap:square;stroke-miterlimit:10"
   d="M 35.459661,202.57925 C 28.529668,204.58817 7.0837153,207.60154 2.0793608,199.58894 -5.0658734,188.14913 20.078894,177.97003 28.482263,176.17635 18.763105,179.96613 17.314071,190.38482 6.0626015,190.62312 19.57154,189.86466 20.162172,204.93153 35.954203,203.07892" />
<path
   id="path107"
   style="fill:#ff7f00;stroke-width:1.2812"
   d="m 23.999356,200.09373 c -12.777375,6.07159 -38.057949,29.60718 -9.465482,29.8916 21.321677,0.21268 43.227579,-13.86383 63.333399,-19.89698 10.393068,-3.11844 56.379067,-18.11356 24.100587,-21.70219 -25.494529,-2.83145 -53.774385,4.18951 -77.968504,11.71013" />
<path
   id="path109"
   style="fill:none;stroke:#000000;stroke-width:0.896838;stroke-linecap:square;stroke-miterlimit:10"
   d="m 23.999356,200.09373 c -12.777375,6.07159 -38.057949,29.60718 -9.465482,29.8916 20.555521,0.20499 42.590824,-13.01055 61.775464,-19.42935 9.679441,-3.23886 56.138202,-15.54476 27.899342,-21.91999 -23.82898,-5.37975 -57.204155,3.54763 -79.71222,11.45774" />
<path
   id="path111"
   style="fill:#cccccc;stroke-width:1.2812"
   d="m 36.453869,225.0002 c -6.751906,2.6777 -27.3791739,10.07276 -33.8761226,2.98903 -9.3155815,-10.15477 14.4826476,-24.79628 21.9199946,-27.89934 -9.73197,5.0146 -8.299592,14.99 -19.4306293,18.43386 12.9144633,-3.67704 16.3993183,12.01762 31.3867573,6.48285" />
<path
   id="path113"
   style="fill:none;stroke:#000000;stroke-width:0.896838;stroke-linecap:square;stroke-miterlimit:10"
   d="m 36.453869,225.0002 c -6.751906,2.6777 -27.3791739,10.07276 -33.8761226,2.98903 -9.3155815,-10.15477 14.4826476,-24.79628 21.9199946,-27.89934 -9.73197,5.0146 -8.299592,14.99 -19.4306293,18.43386 12.9144633,-3.67704 16.3993183,12.01762 31.3867573,6.48285" />
<path
   id="path115"
   style="fill:#ff7f00;stroke-width:1.2812"
   d="m 29.97742,218.03049 c -13.159172,6.21892 -38.6626742,30.25289 -9.465482,30.39126 20.6183,0.0974 44.280722,-12.98749 63.255246,-19.97642 12.091935,-4.45472 56.956886,-18.41207 21.438266,-21.87387 -25.566282,-2.49833 -51.609168,6.80316 -75.22803,11.4539" />
<path
   id="path117"
   style="fill:none;stroke:#000000;stroke-width:0.896838;stroke-linecap:square;stroke-miterlimit:10"
   d="m 29.97742,218.03049 c -13.159172,6.21892 -38.6626742,30.25289 -9.465482,30.39126 20.6183,0.0974 44.280722,-12.98749 63.255246,-19.97642 9.798593,-3.60913 56.341906,-17.99312 23.680356,-21.62532 -25.090954,-2.79044 -53.81026,3.37852 -77.47012,11.71014" />
<path
   id="path119"
   style="fill:#cccccc;stroke-width:1.2812"
   d="m 41.934829,242.93695 c -6.052373,3.58991 -27.175464,9.78834 -33.3802998,3.48742 -9.9971782,-10.15349 13.3756938,-24.99231 21.4241718,-27.8955 -9.104184,5.3144 -8.703169,15.23215 -19.429348,18.43514 13.052832,-4.89417 16.714492,13.51663 31.385476,5.97038" />
<path
   id="path121"
   style="fill:none;stroke:#000000;stroke-width:0.896838;stroke-linecap:square;stroke-miterlimit:10"
   d="m 41.934829,242.93695 c -6.052373,3.58991 -27.175464,9.78834 -33.3802998,3.48742 -9.9971782,-10.15349 13.3756938,-24.99231 21.4241718,-27.8955 -9.104184,5.3144 -8.703169,15.23215 -19.429348,18.43514 12.325112,-4.61487 16.655557,11.48593 31.385476,6.47517" />
<path
   id="path123"
   style="fill:#ff7f00;stroke-width:1.2812"
   d="m 38.44613,234.46824 c -12.423764,7.64234 -36.7870017,32.21954 -7.47322,30.38871 20.513241,-1.2812 42.986713,-15.13606 61.76137,-23.04105 8.79542,-3.70266 56.06004,-23.28959 22.68487,-23.28959 -27.404799,0 -51.529733,10.21114 -76.97302,15.93809" />
<path
   id="path125"
   style="fill:none;stroke:#000000;stroke-width:0.896838;stroke-linecap:square;stroke-miterlimit:10"
   d="m 38.44613,234.46824 c -12.423764,7.64234 -36.7870017,32.21954 -7.47322,30.38871 20.108383,-1.25558 41.854135,-14.7517 60.282869,-22.41839 9.318141,-3.8769 55.217021,-19.32429 26.405461,-23.91225 -24.300455,-3.8705 -56.741638,6.8954 -78.716724,16.43903" />
<path
   id="path127"
   style="fill:#cccccc;stroke-width:1.2812"
   d="m 51.898696,258.37537 c -5.832007,3.86665 -26.884632,11.74729 -33.3803,5.4784 -10.0689249,-9.7166 12.820936,-25.62906 20.42612,-28.89483 -9.529541,4.78911 -7.828112,15.21933 -18.432578,19.43191 12.255928,-5.73976 18.397986,12.5301 31.386758,3.97171" />
<path
   id="path129"
   style="fill:none;stroke:#000000;stroke-width:0.896838;stroke-linecap:square;stroke-miterlimit:10"
   d="m 51.898696,258.37537 c -5.832007,3.86665 -26.884632,11.74729 -33.3803,5.4784 -10.0689249,-9.7166 12.820936,-25.62906 20.42612,-28.89483 -9.529541,4.78911 -7.828112,15.21933 -18.432578,19.43191 11.753699,-5.49377 17.575457,10.89401 31.883863,4.48034" />
<path
   id="path131"
   style="fill:#ff7f00;stroke-width:1.2812"
   d="m 43.428705,254.40366 c -11.344998,9.36811 -29.689173,39.03935 -1.493876,31.38548 19.747086,-5.36053 39.61076,-23.65218 56.125386,-35.31235 9.466765,-6.684 49.477255,-30.78203 17.358935,-27.21133 -24.835999,2.75457 -51.355491,17.83425 -71.990445,31.13308" />
<path
   id="path133"
   style="fill:none;stroke:#000000;stroke-width:0.896838;stroke-linecap:square;stroke-miterlimit:10"
   d="m 43.428705,254.40366 c -11.344998,9.36811 -29.689173,39.03935 -1.493876,31.38548 19.747086,-5.36053 39.61076,-23.65218 56.125386,-35.31235 9.466765,-6.684 49.477255,-30.78203 17.358935,-27.21133 -24.835999,2.75457 -51.355491,17.83425 -71.990445,31.13308" />
<path
   id="path135"
   style="fill:#cccccc;stroke-width:1.2812"
   d="m 61.364178,275.31279 c -5.559113,4.62512 -23.36006,16.41469 -31.386758,11.95869 -12.909338,-7.16701 7.063238,-27.60594 13.451285,-32.87935 -7.769178,7.51038 -4.311227,16.73755 -13.949671,22.91549 11.353966,-7.54625 18.900215,8.22528 31.885144,-1.99867" />
<path
   id="path137"
   style="fill:none;stroke:#000000;stroke-width:0.896838;stroke-linecap:square;stroke-miterlimit:10"
   d="m 61.364178,275.31279 c -5.559113,4.62512 -23.36006,16.41469 -31.386758,11.95869 -12.909338,-7.16701 7.063238,-27.60594 13.451285,-32.87935 -7.769178,7.51038 -4.311227,16.73755 -13.949671,22.91549 11.353966,-7.54625 18.900215,8.22528 31.885144,-1.99867" />
<path
   id="path139"
   style="fill:#ff7f00;stroke-width:1.2812"
   d="m 51.898696,272.82727 c -7.842205,9.45139 -21.620195,43.9348 2.989032,31.63531 19.010398,-9.50135 34.1298,-29.97616 48.823842,-45.08275 9.12212,-9.37708 44.00655,-43.02515 10.46354,-30.39255 -23.735453,8.94275 -43.482539,27.90446 -62.276414,43.84255" />
<path
   id="path141"
   style="fill:none;stroke:#000000;stroke-width:0.896838;stroke-linecap:square;stroke-miterlimit:10"
   d="m 51.898696,272.82727 c -7.842205,9.45139 -21.620195,43.9348 2.989032,31.63531 19.010398,-9.50135 34.1298,-29.97616 48.823842,-45.08275 7.8294,-8.04848 43.56966,-41.42365 12.70563,-31.13949 -23.467679,7.81915 -46.964827,27.08066 -64.018837,44.58693" />
<path
   id="path143"
   style="fill:#cccccc;stroke-width:1.2812"
   d="m 73.818691,289.76469 c -4.714804,5.35925 -20.210878,21.03853 -28.89483,17.93291 -13.30779,-4.75836 1.837236,-29.12929 7.473221,-34.87417 -6.595601,8.53149 -0.817404,17.32946 -9.465482,24.90902 9.811405,-9.10931 20.142975,4.01015 30.887091,-7.96904" />
<path
   id="path145"
   style="fill:none;stroke:#000000;stroke-width:0.896838;stroke-linecap:square;stroke-miterlimit:10"
   d="m 73.818691,289.76469 c -4.714804,5.35925 -20.210878,21.03853 -28.89483,17.93291 -13.30779,-4.75836 1.837236,-29.12929 7.473221,-34.87417 -6.595601,8.53149 -0.817404,17.32946 -9.465482,24.90902 9.811405,-9.10931 20.142975,4.01015 30.887091,-7.96904" />
<path
   id="path147"
   style="fill:#ff7f00;stroke-width:1.2812"
   d="m 63.854824,289.27784 c -5.561675,12.9798 -12.299489,47.33637 10.960638,29.39065 16.219951,-12.51345 27.719978,-37.02659 38.221938,-54.20872 4.88521,-7.99338 32.47194,-51.08515 5.37078,-31.7314 -21.846965,15.60498 -38.521741,35.70696 -54.553356,56.55203" />
<path
   id="path149"
   style="fill:none;stroke:#000000;stroke-width:0.896838;stroke-linecap:square;stroke-miterlimit:10"
   d="m 63.854824,289.27784 c -5.561675,12.9798 -12.299489,47.33637 10.960638,29.39065 16.219951,-12.51345 27.719978,-37.02659 38.221938,-54.20872 4.88521,-7.99338 32.47194,-51.08515 5.37078,-31.7314 -20.870693,14.90417 -40.677995,34.4642 -54.05497,56.54819" />
<path
   id="path151"
   style="fill:#cccccc;stroke-width:1.2812"
   d="m 88.765133,301.21859 c -2.776354,6.45851 -15.407673,24.55542 -24.411923,23.41643 -14.308405,-1.81033 -3.970429,-28.15814 0,-35.37 -4.079331,9.76272 1.815456,16.8913 -3.984522,26.40291 6.881308,-11.44109 21.940494,0.0641 28.396445,-14.4519" />
<path
   id="path153"
   style="fill:none;stroke:#000000;stroke-width:0.896838;stroke-linecap:square;stroke-miterlimit:10"
   d="m 88.765133,301.21859 c -2.776354,6.45851 -15.407673,24.55542 -24.411923,23.41643 -14.308405,-1.81033 -3.970429,-28.15814 0,-35.37 -4.079331,9.76272 1.815456,16.8913 -3.984522,26.40291 6.435451,-10.7044 20.474805,-1.40035 28.89483,-13.94967" />
<path
   id="path155"
   style="fill:#ff7f00;stroke-width:1.2812"
   d="m 79.29837,298.2334 c -4.882641,14.261 -2.38687,48.53173 16.440316,26.90001 13.411564,-15.40895 19.497254,-41.89129 26.451584,-60.76204 4.16902,-11.31425 23.07692,-55.43866 -2.53677,-30.90503 -17.83169,17.07836 -30.908867,44.07317 -40.35513,64.7645" />
<path
   id="path157"
   style="fill:none;stroke:#000000;stroke-width:0.896838;stroke-linecap:square;stroke-miterlimit:10"
   d="m 79.29837,298.2334 c -4.882641,14.261 -2.38687,48.53173 16.440316,26.90001 13.247574,-15.2219 18.728534,-40.76256 25.907084,-59.28226 4.12929,-10.65315 24.61947,-54.54695 -0.49711,-33.62885 -18.64782,15.53067 -33.216305,44.23588 -41.85029,66.50821" />
<path
   id="path159"
   style="fill:#cccccc;stroke-width:1.2812"
   d="m 105.70255,305.21592 c -1.64505,7.01968 -10.0023,27.60851 -19.429345,27.90191 -13.619122,0.42535 -9.876746,-26.5669 -6.974835,-34.37707 -2.292061,10.32644 5.624453,15.95089 1.493875,26.4029 4.794238,-12.76072 21.534355,-3.80516 24.910305,-19.93542" />
<path
   id="path161"
   style="fill:none;stroke:#000000;stroke-width:0.896838;stroke-linecap:square;stroke-miterlimit:10"
   d="m 105.70255,305.21592 c -1.64505,7.01968 -10.0023,27.60851 -19.429345,27.90191 -13.619122,0.42535 -9.876746,-26.5669 -6.974835,-34.37707 -2.292061,10.32644 5.624453,15.95089 1.493875,26.4029 4.46369,-11.87798 19.531845,-5.26956 25.409975,-19.42807" />
<path
   id="path163"
   style="fill:#ff7f00;stroke-width:1.2812"
   d="m 96.238353,305.71559 c -1.88464,14.90929 7.295137,47.65283 21.424177,22.91677 10.5135,-18.40568 9.68328,-44.42934 13.76133,-64.82984 2.08194,-10.41357 13.55122,-54.28302 -5.79229,-32.81657 -17.1091,18.97452 -23.69061,50.58164 -29.391936,74.71939" />
<path
   id="path165"
   style="fill:none;stroke:#000000;stroke-width:0.896838;stroke-linecap:square;stroke-miterlimit:10"
   d="m 96.238353,305.71559 c -1.88464,14.90929 7.295137,47.65283 21.424177,22.91677 10.5135,-18.40568 9.68328,-44.42934 13.76133,-64.82984 2.08194,-10.41357 13.55122,-54.28302 -5.79229,-32.81657 -17.1091,18.97452 -23.69061,50.58164 -29.391936,74.71939" />
<path
   id="path167"
   style="fill:#cccccc;stroke-width:1.2812"
   d="m 123.63803,307.20178 c -0.0436,7.16445 -4.65715,28.51816 -13.45001,30.88837 -13.397471,3.61298 -15.010498,-24.00578 -13.950948,-32.38225 0.502229,10.02921 9.215648,14.6223 6.973558,24.91031 0.67903,-8.87869 20.13913,-8.81463 20.4274,-23.40746" />
<path
   id="path169"
   style="fill:none;stroke:#000000;stroke-width:0.896838;stroke-linecap:square;stroke-miterlimit:10"
   d="m 123.63803,307.20178 c -0.0436,7.16445 -4.65715,28.51816 -13.45001,30.88837 -13.397471,3.61298 -15.010498,-24.00578 -13.950948,-32.38225 0.502229,10.02921 9.215648,14.6223 6.973558,24.91031 0.61369,-8.05616 18.39158,-9.62307 20.92578,-23.41643" />
<path
   id="path171"
   style="fill:#ffffff;stroke-width:1.2812"
   d="m 311.95601,132.83603 c 9.7435,8.26372 17.18982,17.4563 14.94772,30.88837 -8.07666,-14.84266 -23.47665,-8.81976 -33.8774,-16.94127 -10.45457,-8.15738 9.92927,-13.99963 18.92328,-13.9471" />
<path
   id="path173"
   style="fill:#ffb8b8;stroke:#000000;stroke-width:0.384359;stroke-linecap:square;stroke-miterlimit:10"
   d="m 311.95601,132.83603 c 9.7435,8.26372 17.18982,17.4563 14.94772,30.88837 -8.07666,-14.84266 -23.47665,-8.81976 -33.8774,-16.94127 -10.45457,-8.15738 9.92927,-13.99963 18.92328,-13.9471" />
<path
   id="path175"
   style="fill:#e68a5c;stroke-width:1.2812"
   d="m 320.92439,210.06144 c 16.02649,34.74093 16.58893,79.84675 -7.41301,111.84463 -13.92532,18.56326 -26.80135,29.09342 -50.42534,30.98447 -19.93286,1.59637 -40.6844,-6.14078 -59.49365,-11.7127 -19.02705,-5.63599 -45.74513,-6.01138 -38.31163,-32.01199 5.99985,-20.98728 15.801,-39.75553 26.55793,-58.68778 10.90811,-19.1936 22.15317,-38.32443 34.59744,-56.57764 8.25603,-12.10859 7.19904,-14.12904 20.61702,-8.38031 12.50063,5.35668 24.99999,10.71337 37.50063,16.06877 0.57525,-16.34295 -2.28053,-36.66017 -14.44422,-48.82257 -11.56792,-11.56408 -16.60303,-33.01259 -5.98062,-47.32869 8.68523,-11.70629 28.18376,-11.169469 38.11176,-1.24532 5.98062,5.97806 13.91636,5.98703 17.18597,14.69789 1.82827,4.87239 -1.98714,13.84077 -4.48035,15.94193 -6.48798,5.46687 -19.35375,0.4087 -15.44738,13.94967 2.63285,9.1234 16.25326,11.222 18.93224,21.92 3.24143,12.88115 -2.30615,26.91538 2.51115,39.36861" />
<path
   id="path177"
   style="fill:#ffb366;stroke-width:1.2812"
   d="m 170.97312,332.12106 c 41.21738,10.29825 94.67788,38.44358 130.83581,4.00374 33.89278,-32.28616 37.85424,-85.47248 19.13083,-126.06208 15.54092,43.50816 5.27213,102.59568 -43.76952,117.92519 -24.93593,7.79352 -49.43242,-4.56746 -68.02899,-20.18525 -8.37518,-7.03249 -21.99686,-19.50238 -32.18366,-9.06062 -7.36688,7.53343 -5.98319,23.93275 -5.98319,33.37517" />
<path
   id="path179"
   style="fill:none;stroke:#000000;stroke-width:0.896838;stroke-linecap:square;stroke-miterlimit:10"
   d="m 320.92439,210.06144 c 17.64464,38.25013 16.10849,92.49088 -16.53513,123.59065 -38.42437,36.60379 -89.11236,9.53851 -133.42383,-1.53232" />
<path
   id="path181"
   style="fill:#913a00;stroke-width:1.2812"
   d="m 284.55121,201.09306 c 0.62907,-17.88166 -3.07871,-34.40653 -14.69276,-48.32674 -10.45713,-12.53266 -16.82724,-32.37584 -5.73336,-47.32869 8.68524,-11.70629 28.18377,-11.169469 38.11176,-1.24532 5.98063,5.97807 13.91636,5.98703 17.18598,14.69789 1.82826,4.87239 -1.98714,13.84077 -4.48035,15.94193 -6.48798,5.46687 -19.35376,0.4087 -15.44739,13.94967 2.63286,9.1234 16.25326,11.222 18.93225,21.92 3.22605,12.87602 -2.32538,26.90513 2.4932,39.35836 -6.20099,-7.92292 -2.0986,-20.58499 -5.97934,-29.8916 -3.39773,-8.14841 -11.38215,-18.42105 -18.43514,-23.41771 6.12796,8.62245 11.69092,19.65868 11.95997,30.39126 0.41895,-3.20171 -9.71403,-12.18033 -15.44867,-9.96515 -5.49633,2.13063 -8.22528,20.54784 -8.4559,23.91739" />
<path
   id="path183"
   style="fill:none;stroke:#000000;stroke-width:0.896838;stroke-linecap:square;stroke-miterlimit:10"
   d="m 284.55121,201.09306 c 0.62907,-17.88166 -3.07871,-34.40653 -14.69276,-48.32674 -10.45713,-12.53266 -16.82724,-32.37584 -5.73336,-47.32869 8.68524,-11.70629 28.18377,-11.169469 38.11176,-1.24532 5.98063,5.97807 13.91636,5.98703 17.18598,14.69789 1.82826,4.87239 -1.98714,13.84077 -4.48035,15.94193 -6.48798,5.46687 -19.35376,0.4087 -15.44739,13.94967 2.63286,9.1234 16.25326,11.222 18.93225,21.92 3.22605,12.87602 -2.32538,26.90513 2.4932,39.35836 -6.20099,-7.92292 -2.0986,-20.58499 -5.97934,-29.8916 -3.39773,-8.14841 -11.38215,-18.42105 -18.43514,-23.41771 6.12796,8.62245 11.69092,19.65868 11.95997,30.39126 0.40102,-3.06462 -8.44309,-11.26556 -13.95479,-9.96515 -6.86594,1.62072 -9.41167,18.0431 -9.96259,24.41193" />
<path
   id="path185"
   style="fill:none;stroke:#000000;stroke-width:0.896838;stroke-linecap:square;stroke-miterlimit:10"
   d="m 308.47116,109.13517 c 5.44124,13.09511 -3.10178,13.48716 -12.45708,21.91999 -12.56213,11.32066 -11.61277,24.05832 -0.99677,47.32997" />
<path
   id="path187"
   style="fill:#ebd786;stroke:#884508;stroke-width:0.896838;stroke-linecap:square;stroke-miterlimit:10"
   d="m 295.51826,128.85151 c 10.82739,-8.50843 -2.97366,-14.82473 -11.45646,-12.70563 -1.16589,0.29211 4.33044,17.48705 11.45389,12.70563" />
<path
   id="path189"
   style="fill:#cccccc;stroke-width:1.2812"
   d="m 281.06636,175.18214 c -23.77133,-35.46481 -62.9042,-51.67579 -105.25416,-39.77091 -47.7707,13.42823 -62.48524,69.7586 -52.30998,114.52618 4.25614,18.72597 12.5442,55.39638 40.20523,51.62454 25.56629,-3.4887 45.5363,-12.25721 66.04057,-28.23245 32.1196,-25.00896 56.88514,-56.55203 51.31193,-98.13198" />
<path
   id="path191"
   style="fill:none;stroke:#000000;stroke-width:0.896838;stroke-linecap:square;stroke-miterlimit:10"
   d="m 281.06636,175.18214 c -23.77133,-35.46481 -62.9042,-51.67579 -105.25416,-39.77091 -47.7707,13.42823 -62.48524,69.7586 -52.30998,114.52618 4.25614,18.72597 12.5442,55.39638 40.20523,51.62454 25.56629,-3.4887 45.5363,-12.25721 66.04057,-28.23245 32.1196,-25.00896 56.88514,-56.55203 51.31193,-98.13198" />
<path
   id="path193"
   style="fill:#8b5c29;stroke-width:1.2812"
   d="m 264.12894,222.01501 c 9.30277,18.45051 8.912,88.03103 -19.92902,90.4243 -25.79049,2.12679 16.57869,-82.53469 19.93542,-90.42687" />
<path
   id="path195"
   style="fill:none;stroke:#ffffff;stroke-width:0.384359;stroke-linecap:square;stroke-miterlimit:10"
   d="m 264.12894,222.01501 c 9.30277,18.45051 8.912,88.03103 -19.92902,90.4243 -24.17874,2.00507 13.93558,-80.8102 20.42356,-89.92464" />
<path
   id="path197"
   style="fill:#8b5c29;stroke-width:1.2812"
   d="m 247.69118,238.45276 c 6.34833,12.56342 4.70071,104.6789 -23.41515,90.67286 -21.42161,-10.67237 16.29682,-78.14019 23.42028,-90.6703" />
<path
   id="path199"
   style="fill:none;stroke:#ffffff;stroke-width:0.384359;stroke-linecap:square;stroke-miterlimit:10"
   d="m 247.69118,238.45276 c 9.39758,18.60042 8.51868,88.00156 -20.42612,90.42302 -23.41002,1.95895 14.20719,-80.64492 20.42612,-89.92591" />
<path
   id="path201"
   style="fill:#8b5c29;stroke-width:1.2812"
   d="m 232.23995,254.40366 c 6.34833,16.40829 10.26623,86.57559 -17.43581,90.17191 -29.31378,3.80515 10.32645,-79.45982 17.43709,-90.17063" />
<path
   id="path203"
   style="fill:none;stroke:#ffffff;stroke-width:0.384359;stroke-linecap:square;stroke-miterlimit:10"
   d="m 232.23995,254.40366 c 6.34833,16.40829 10.26623,86.57559 -17.43581,90.17191 -29.31378,3.80515 10.32645,-79.45982 17.43709,-90.17063" />
<path
   id="path205"
   style="fill:#8b5c29;stroke-width:1.2812"
   d="m 224.27091,264.35856 c 8.42771,19.3576 0.42023,87.68254 -28.39517,87.68254 -24.79115,0 24.09931,-80.75383 28.39132,-87.6851" />
<path
   id="path207"
   style="fill:none;stroke:#ffffff;stroke-width:0.384359;stroke-linecap:square;stroke-miterlimit:10"
   d="m 224.27091,264.35856 c 8.42771,19.3576 0.42023,87.68254 -28.39517,87.68254 -23.75595,0 22.18392,-79.40601 28.89227,-87.68254" />
<path
   id="path209"
   style="fill:#8b5c29;stroke-width:1.2812"
   d="m 208.83249,265.35789 c 4.05114,18.34162 -5.84739,90.12707 -35.37513,85.19318 -24.61179,-4.11264 27.31512,-76.44901 35.37384,-85.18677" />
<path
   id="path211"
   style="fill:none;stroke:#ffffff;stroke-width:0.384359;stroke-linecap:square;stroke-miterlimit:10"
   d="m 208.83249,265.35789 c 4.05114,18.34162 -5.84739,90.12707 -35.37513,85.19318 -24.61179,-4.11264 27.31512,-76.44901 35.37384,-85.18677" />
<path
   id="path213"
   style="fill:#8b5c29;stroke-width:1.2812"
   d="m 203.84863,271.82794 c 1.27863,17.88422 -22.56572,83.39053 -48.82385,77.71867 -28.55146,-6.16255 38.51278,-70.72206 48.82641,-77.71739" />
<path
   id="path215"
   style="fill:none;stroke:#ffffff;stroke-width:0.384359;stroke-linecap:square;stroke-miterlimit:10"
   d="m 203.84863,271.82794 c 1.27863,17.88422 -22.56572,83.39053 -48.82385,77.71867 -28.55146,-6.16255 38.51278,-70.72206 48.82641,-77.71739" />
<path
   id="path217"
   style="fill:#8b5c29;stroke-width:1.2812"
   d="m 198.86477,271.32827 c -0.2383,18.08537 -31.7788,81.30218 -56.79801,71.74317 -26.61046,-10.1727 45.21343,-65.44353 56.79545,-71.74701" />
<path
   id="path219"
   style="fill:none;stroke:#ffffff;stroke-width:0.384359;stroke-linecap:square;stroke-miterlimit:10"
   d="m 198.86477,271.32827 c -0.2383,18.08537 -31.7788,81.30218 -56.79801,71.74317 -26.61046,-10.1727 45.21343,-65.44353 56.79545,-71.74701" />
<path
   id="path221"
   style="fill:#8b5c29;stroke-width:1.2812"
   d="m 180.44117,261.37337 c -0.0103,19.53313 -32.68077,82.97543 -59.03883,70.99368 -23.544554,-10.698 50.81354,-65.09761 59.03883,-70.99112" />
<path
   id="path223"
   style="fill:none;stroke:#ffffff;stroke-width:0.384359;stroke-linecap:square;stroke-miterlimit:10"
   d="m 180.44117,261.37337 c -0.0103,19.53313 -32.68077,82.97543 -59.03883,70.99368 -22.663091,-10.30211 49.0109,-65.04893 59.03883,-70.49273" />
<path
   id="path225"
   style="fill:#ff0000;stroke-width:1.2812"
   d="m 128.11709,140.30797 c 15.80997,-5.53093 35.87223,7.34125 35.87223,25.15886 0,4.17414 -49.66944,-3.6181 -35.87351,-25.15886" />
<path
   id="path227"
   style="fill:none;stroke:#000000;stroke-width:0.384359;stroke-linecap:square;stroke-miterlimit:10"
   d="m 128.11709,140.30797 c 15.80997,-5.53093 35.87223,7.34125 35.87223,25.15886 0,4.78655 -50.79561,-4.08062 -35.37128,-25.15886" />
<path
   id="path229"
   style="fill:#ff0000;stroke-width:1.2812"
   d="m 115.6677,153.26215 c 16.75165,-7.28745 34.16824,5.93322 39.10853,22.41838 3.19018,10.64034 -55.748712,-8.23554 -39.11109,-22.41838" />
<path
   id="path231"
   style="fill:none;stroke:#000000;stroke-width:0.384359;stroke-linecap:square;stroke-miterlimit:10"
   d="m 115.6677,153.26215 c 16.75165,-7.28745 34.16824,5.93322 39.10853,22.41838 3.67319,12.25593 -56.270159,-10.02281 -38.61014,-21.92" />
<path
   id="path233"
   style="fill:#ff0000;stroke-width:1.2812"
   d="m 104.70834,168.20731 c 16.10849,-10.10352 33.92097,2.07554 41.60046,17.43708 5.16323,10.32645 -56.603269,-1.56434 -41.60174,-17.43452" />
<path
   id="path235"
   style="fill:none;stroke:#000000;stroke-width:0.384359;stroke-linecap:square;stroke-miterlimit:10"
   d="m 104.70834,168.20731 c 16.10849,-10.10352 33.92097,2.07554 41.60046,17.43708 5.48481,10.97089 -57.004284,-1.98841 -41.10207,-17.43708" />
<path
   id="path237"
   style="fill:#ff0000;stroke-width:1.2812"
   d="m 95.739968,184.14283 c 13.985542,-11.43596 34.824212,-2.69051 43.095612,12.20724 6.29068,11.35141 -56.7647,4.34326 -43.100737,-12.2098" />
<path
   id="path239"
   style="fill:none;stroke:#000000;stroke-width:0.384359;stroke-linecap:square;stroke-miterlimit:10"
   d="m 95.739968,184.14283 c 13.985542,-11.43596 34.824212,-2.69051 43.095612,12.20724 6.29068,11.35141 -56.7647,4.34326 -43.100737,-12.2098" />
<path
   id="path241"
   style="fill:#ff0000;stroke-width:1.2812"
   d="m 92.750936,206.07692 c 11.562804,-13.81258 33.837684,-9.86778 45.086594,2.98903 7.46938,8.54558 -53.569398,17.09117 -45.090438,-2.98519" />
<path
   id="path243"
   style="fill:none;stroke:#000000;stroke-width:0.384359;stroke-linecap:square;stroke-miterlimit:10"
   d="m 92.750936,206.07692 c 11.562804,-13.81258 33.837684,-9.86778 45.086594,2.98903 8.15354,9.31943 -54.389364,16.40444 -44.58949,-2.98903" />
<path
   id="path245"
   style="fill:#ff0000;stroke-width:1.2812"
   d="m 88.266747,224.00086 c 8.944034,-16.75677 31.800583,-12.18802 44.589493,-2.24081 9.91646,7.72562 -51.939719,22.28001 -44.590774,2.24209" />
<path
   id="path247"
   style="fill:none;stroke:#000000;stroke-width:0.384359;stroke-linecap:square;stroke-miterlimit:10"
   d="m 88.266747,224.00086 c 8.944034,-16.75677 31.800583,-12.18802 44.589493,-2.24081 9.91646,7.72562 -51.939719,22.28001 -44.590774,2.24209" />
<path
   id="path249"
   style="fill:#ff0000;stroke-width:1.2812"
   d="m 146.05384,142.30023 c 4.36248,-17.32691 30.1171,-4.3817 28.39901,8.46999 -2.65208,19.79833 -23.97119,-3.10562 -28.40413,-8.46999" />
<path
   id="path251"
   style="fill:none;stroke:#000000;stroke-width:0.384359;stroke-linecap:square;stroke-miterlimit:10"
   d="m 146.05384,142.30023 c 4.36248,-17.32691 30.1171,-4.3817 28.39901,8.46999 -2.60339,19.46906 -23.51636,-2.51627 -27.89934,-7.97161" />
<path
   id="path253"
   style="fill:#ff0000;stroke-width:1.2812"
   d="m 166.48893,135.82506 c 4.99155,-13.13483 25.72259,-3.64757 22.91421,5.97678 0.21652,-0.74053 -15.0105,8.71214 -13.45129,8.96838 -3.24143,-0.5317 -7.11064,-12.12781 -9.46804,-14.94516" />
<path
   id="path255"
   style="fill:none;stroke:#000000;stroke-width:0.384359;stroke-linecap:square;stroke-miterlimit:10"
   d="m 166.48893,135.82506 c 4.59053,-12.07912 24.81935,-5.04279 22.91421,4.98129 -0.0372,0.19474 -12.44939,9.0081 -12.95034,8.9671 -3.72956,-0.31005 -6.41367,-9.12853 -9.46804,-13.94839" />
<path
   id="path257"
   style="fill:#ff0000;stroke-width:1.2812"
   d="m 185.91188,130.3441 c 4.78911,-0.88915 23.19222,1.83211 13.45256,9.46548 -6.12412,4.80193 -17.53958,-3.79875 -13.45256,-9.46548" />
<path
   id="path259"
   style="fill:none;stroke:#000000;stroke-width:0.384359;stroke-linecap:square;stroke-miterlimit:10"
   d="m 185.91188,130.3441 c 4.78911,-0.88915 23.19222,1.83211 13.45256,9.46548 -6.08056,4.76605 -16.99764,-3.53482 -13.45256,-8.9671" />
<path
   id="path261"
   style="fill:#ff0000;stroke-width:1.2812"
   d="m 203.84863,131.83797 c 8.15354,-2.88909 17.22569,6.97612 8.2176,6.97612 -5.08636,0 -17.83426,-3.08768 -8.21248,-6.97612" />
<path
   id="path263"
   style="fill:none;stroke:#000000;stroke-width:0.384359;stroke-linecap:square;stroke-miterlimit:10"
   d="m 203.84863,131.83797 c 5.09019,-1.80392 18.60554,2.14088 9.4642,6.97612 -4.29713,2.27284 -19.34479,-2.67129 -9.4642,-6.47773" />
<path
   id="path265"
   style="fill:#ff0000;stroke-width:1.2812"
   d="m 214.80286,132.33636 c 6.73782,-2.29462 16.3327,-3.87946 19.43063,3.98708 -4.66355,0.2934 -26.90513,2.36509 -19.43575,-3.98708" />
<path
   id="path267"
   style="fill:none;stroke:#000000;stroke-width:0.384359;stroke-linecap:square;stroke-miterlimit:10"
   d="m 214.80286,132.33636 c 6.73782,-2.29462 16.3327,-3.87946 19.43063,3.98708 -4.57643,0.28699 -26.47721,3.08769 -18.92968,-3.98708" />
<path
   id="path269"
   style="fill:#e6e6e6;stroke-width:1.2812"
   d="m 279.0805,207.06344 c 0.16143,20.07379 -12.33792,38.36544 -23.85716,53.73083 -3.65654,4.8788 -35.98369,39.08803 -40.90861,26.72705 -5.33747,-13.39235 17.88166,-30.38487 25.40485,-39.10597 12.9529,-15.02844 24.17618,-27.96853 39.35836,-41.35703" />
<path
   id="path271"
   style="fill:none;stroke:#000000;stroke-width:0.896838;stroke-linecap:square;stroke-miterlimit:10"
   d="m 279.0805,207.06344 c 0.13837,17.34228 -9.56413,34.24767 -19.43191,47.82836 -6.40342,8.81207 -26.57842,36.55382 -39.3558,34.87417 -20.14554,-2.64951 27.5137,-51.48233 33.38158,-60.28287" />
<path
   id="path273"
   style="fill:#993d1f;stroke-width:1.2812"
   d="m 223.28438,271.82794 c -5.59242,12.04965 -15.61522,26.39137 -26.4029,34.37322 -6.56357,4.85702 -21.09618,12.75304 -20.42484,0.99678 0.36643,-6.43417 16.69528,-19.08471 20.67468,-24.65792 6.66222,-9.33992 14.10597,-15.3103 26.14922,-10.7108" />
<path
   id="path275"
   style="fill:none;stroke:#000000;stroke-width:0.896838;stroke-linecap:square;stroke-miterlimit:10"
   d="m 223.28438,271.82794 c -5.59242,12.04965 -15.61522,26.39137 -26.4029,34.37322 -6.56357,4.85702 -21.09618,12.75304 -20.42484,0.99678 0.36643,-6.43417 16.69528,-19.08471 20.67468,-24.65792 6.66222,-9.33992 14.10597,-15.3103 26.14922,-10.7108" />
<path
   id="path277"
   style="fill:#993d1f;stroke-width:1.2812"
   d="m 201.36311,276.31213 c -6.56101,13.30138 -16.653,27.0435 -28.89996,35.62111 -5.83969,4.0883 -23.02951,10.9632 -16.68758,-1.74115 6.96971,-13.92661 29.5572,-41.5364 45.59779,-33.87484" />
<path
   id="path279"
   style="fill:none;stroke:#000000;stroke-width:0.896838;stroke-linecap:square;stroke-miterlimit:10"
   d="m 201.36311,276.31213 c -6.00753,12.18161 -15.33849,25.72899 -26.40931,33.87612 -6.99149,5.14528 -20.85148,13.06821 -19.92517,1.499 0.57654,-7.20289 15.85353,-18.61067 20.17757,-24.6656 6.76471,-9.46933 14.50314,-15.30262 26.65273,-10.70952" />
<path
   id="path281"
   style="fill:#993d1f;stroke-width:1.2812"
   d="m 179.92869,280.29665 c -6.28427,12.34689 -15.59089,26.13513 -26.90257,34.37707 -6.08184,4.43166 -21.60739,13.57812 -19.92902,1.49387 1.16845,-8.41105 16.18536,-17.74073 20.42868,-25.15886 6.06006,-10.55706 15.86122,-13.59349 26.41828,-10.7108" />
<path
   id="path283"
   style="fill:none;stroke:#000000;stroke-width:0.896838;stroke-linecap:square;stroke-miterlimit:10"
   d="m 179.92869,280.29665 c -6.28427,12.34689 -15.59089,26.13513 -26.90257,34.37707 -6.08184,4.43166 -21.60739,13.57812 -19.92902,1.49387 1.16845,-8.41105 16.18536,-17.74073 20.42868,-25.15886 5.62702,-9.83703 15.40383,-14.72095 26.40163,-10.21242" />
<path
   id="path285"
   style="fill:#993d1f;stroke-width:1.2812"
   d="m 169.47412,274.32627 c -14.46343,5.02998 -29.66355,10.45072 -41.3519,20.67595 -4.52775,3.96018 -16.03162,21.37805 -1.99227,16.68759 16.86696,-5.63726 45.24547,-16.61712 43.3493,-37.37251" />
<path
   id="path287"
   style="fill:none;stroke:#000000;stroke-width:0.896838;stroke-linecap:square;stroke-miterlimit:10"
   d="m 169.47412,274.32627 c -13.36672,4.64818 -28.4541,9.55132 -39.35836,18.93096 -6.36627,5.47584 -17.33972,17.22826 -5.47968,18.93097 7.00558,1.00574 21.99558,-11.61277 28.89483,-14.19951 11.13616,-4.17542 17.06938,-10.68133 15.94321,-23.1666" />
<path
   id="path289"
   style="fill:#993d1f;stroke-width:1.2812"
   d="m 155.52189,267.34375 c -14.45959,5.04279 -29.66355,10.44431 -41.34934,20.67467 -4.53928,3.97427 -16.03162,21.34986 -1.99355,16.69015 16.87336,-5.59883 45.23906,-16.62993 43.34289,-37.37251" />
<path
   id="path291"
   style="fill:none;stroke:#000000;stroke-width:0.896838;stroke-linecap:square;stroke-miterlimit:10"
   d="m 155.52189,267.34375 c -13.36673,4.66099 -28.44897,9.54748 -39.35708,18.92968 -6.37268,5.47968 -17.330752,17.22953 -5.47968,18.92968 7.00046,1.00446 22.00455,-11.60508 28.89611,-14.19694 11.13872,-4.19079 17.06554,-10.66724 15.94065,-23.16788" />
<path
   id="path293"
   style="fill:#993d1f;stroke-width:1.2812"
   d="m 151.53737,275.82527 c -11.04264,7.85246 -26.25044,15.15784 -39.85675,16.93614 -8.11638,1.06083 -23.900728,1.09414 -17.935476,-8.46359 3.550196,-5.68851 23.629116,-8.82616 29.891606,-11.95997 10.16885,-5.09916 21.31527,-6.12412 27.90062,3.48486" />
<path
   id="path295"
   style="fill:none;stroke:#000000;stroke-width:0.896838;stroke-linecap:square;stroke-miterlimit:10"
   d="m 151.53737,275.82527 c -11.04264,7.85246 -26.25044,15.15784 -39.85675,16.93614 -8.11638,1.06083 -23.900728,1.09414 -17.935476,-8.46359 3.550196,-5.68851 23.629116,-8.82616 29.891606,-11.95997 10.59037,-5.30031 19.75733,-6.0229 28.399,3.4887" />
<path
   id="path297"
   style="fill:#e6e6e6;stroke-width:1.2812"
   d="m 257.15923,227.98538 c -3.54507,10.1868 -45.21984,77.59184 -60.28031,61.27964 -7.93573,-8.59426 15.31927,-30.27339 20.67467,-35.62239 5.69236,-5.68595 11.17076,-11.83826 15.44355,-18.68241 5.32978,-8.53277 14.59283,-6.27786 24.16337,-6.98252" />
<path
   id="path299"
   style="fill:none;stroke:#000000;stroke-width:0.896838;stroke-linecap:square;stroke-miterlimit:10"
   d="m 257.15923,227.98538 c -7.41429,21.31271 -31.35217,58.96965 -56.04467,62.52241 -14.67355,2.11141 6.47773,-25.60857 8.71598,-28.1479 9.4847,-10.75949 18.91943,-20.91425 26.90513,-32.88063" />
<path
   id="path301"
   style="fill:#e6e6e6;stroke-width:1.2812"
   d="m 239.22247,229.48438 c -3.92302,10.01512 -43.88483,76.31193 -59.78448,60.77742 -8.91969,-8.7147 15.62676,-30.02357 20.42612,-35.61984 4.70711,-5.48864 8.92097,-12.07271 13.95223,-17.18725 8.64808,-8.80182 11.88951,-7.63593 25.40613,-7.98186" />
<path
   id="path303"
   style="fill:none;stroke:#000000;stroke-width:0.896838;stroke-linecap:square;stroke-miterlimit:10"
   d="m 239.22247,229.48438 c -7.24388,18.49408 -32.0786,61.77547 -55.79868,61.77547 -14.75042,0 6.00113,-25.05124 8.96454,-28.39773 9.38604,-10.59934 19.14236,-20.99369 26.90513,-32.87935" />
<path
   id="path305"
   style="fill:#e6e6e6;stroke-width:1.2812"
   d="m 221.78538,229.98405 c -5.97165,15.25521 -15.11299,29.49059 -26.4029,41.34934 -4.08317,4.28945 -29.59564,28.88971 -33.87868,18.18659 -5.0018,-12.49423 15.20908,-27.66744 22.42222,-35.62367 4.72121,-5.20679 9.11572,-10.97217 13.20017,-16.69015 6.0985,-8.53277 14.18285,-6.47005 24.66304,-7.21314" />
<path
   id="path307"
   style="fill:none;stroke:#000000;stroke-width:0.896838;stroke-linecap:square;stroke-miterlimit:10"
   d="m 221.78538,229.98405 c -8.24322,21.05519 -30.94858,58.45076 -56.04851,62.02658 -13.93301,1.98585 6.47773,-26.13513 8.71983,-28.645 9.30661,-10.41485 19.04755,-19.83164 26.40418,-31.8877" />
<path
   id="path309"
   style="fill:#e6e6e6;stroke-width:1.2812"
   d="m 205.34763,231.48305 c -3.24527,8.62246 -53.15685,74.06086 -60.77997,55.05046 -4.79296,-11.95356 15.98805,-26.85388 22.91548,-34.12467 4.78655,-5.02486 8.95557,-10.44304 13.45257,-15.69338 6.61097,-7.72562 14.1316,-5.22728 24.4068,-5.22728" />
<path
   id="path311"
   style="fill:none;stroke:#000000;stroke-width:0.896838;stroke-linecap:square;stroke-miterlimit:10"
   d="m 205.34763,231.48305 c -6.90437,18.34033 -33.88637,57.79351 -56.5469,57.79351 -14.29559,0 7.02865,-25.09993 9.71532,-27.90191 9.30917,-9.71403 18.24552,-19.17951 26.40418,-29.8916" />
<path
   id="path313"
   style="fill:#e6e6e6;stroke-width:1.2812"
   d="m 166.48893,229.98405 c -10.85558,16.33526 -30.50017,25.03843 -42.34996,40.85096 -17.13216,22.85911 17.2936,8.11254 25.90708,1.99226 15.34362,-10.9017 28.03899,-24.73478 37.86321,-40.8484 -7.13626,-0.66622 -14.28534,-1.33244 -21.42161,-1.99866" />
<path
   id="path315"
   style="fill:none;stroke:#000000;stroke-width:0.896838;stroke-linecap:square;stroke-miterlimit:10"
   d="m 166.48893,229.98405 c -10.85558,16.33526 -30.50017,25.03843 -42.34996,40.85096 -17.13216,22.85911 17.2936,8.11254 25.90708,1.99226 15.34362,-10.9017 28.03899,-24.73478 37.86321,-40.8484" />
<path
   id="path317"
   style="fill:#e6e6e6;stroke-width:1.2812"
   d="m 150.53803,223.01434 c -9.76912,17.88166 -50.45993,29.10751 -53.305468,48.82385 -2.78276,19.27816 29.468808,-1.10696 37.050928,-5.44509 14.98616,-8.57377 30.83969,-21.3947 39.67354,-36.40521 -7.80249,-2.31896 -15.60498,-4.65074 -23.42028,-6.96971" />
<path
   id="path319"
   style="fill:none;stroke:#000000;stroke-width:0.896838;stroke-linecap:square;stroke-miterlimit:10"
   d="m 150.53803,223.01434 c -9.76912,17.88166 -50.45993,29.10751 -53.305468,48.82385 -2.78276,19.27816 29.468808,-1.10696 37.050928,-5.44509 14.98616,-8.57377 30.83969,-21.3947 39.67354,-36.40521" />
<path
   id="path321"
   style="fill:#e6e6e6;stroke-width:1.2812"
   d="m 141.56966,204.57792 c -3.93328,18.34161 -22.61825,30.93321 -36.86516,41.35191 -11.174597,8.17019 -33.616039,36.25402 -3.43361,24.19155 15.08994,-6.03059 34.54876,-17.50371 43.78618,-31.41622 10.46738,-15.75872 7.87936,-15.34874 -3.48485,-34.13108" />
<path
   id="path323"
   style="fill:none;stroke:#000000;stroke-width:0.896838;stroke-linecap:square;stroke-miterlimit:10"
   d="m 141.56966,204.57792 c -3.56942,16.64531 -18.97453,27.79941 -31.88387,37.36738 -6.25224,4.63281 -37.55956,25.56372 -19.429344,31.38548 12.276424,3.94096 37.111144,-17.96238 45.335144,-25.16142 7.29514,-6.38421 13.86896,-14.04704 18.93225,-22.16727" />
<path
   id="path325"
   style="fill:#e6e6e6;stroke-width:1.2812"
   d="m 167.47545,215.03248 c -1.63352,8.70958 -14.1175,24.85522 -24.90902,22.17111 -5.55143,-1.38113 9.99589,-22.35047 10.96192,-27.1524 4.63793,1.65275 9.28867,3.3183 13.93942,4.97105" />
<path
   id="path327"
   style="fill:none;stroke:#000000;stroke-width:0.896838;stroke-linecap:square;stroke-miterlimit:10"
   d="m 167.47545,215.03248 c -1.63352,8.70958 -14.1175,24.85522 -24.90902,22.17111 -5.55143,-1.38113 9.99589,-22.35047 10.96192,-27.1524" />
<path
   id="path329"
   style="fill:#e6e6e6;stroke-width:1.2812"
   d="m 180.44117,220.51601 c -1.82699,11.09388 -13.60631,21.91999 -24.91031,21.91999 -4.36376,0 10.5135,-22.99364 11.45774,-26.90257 4.48419,1.66556 8.96838,3.33111 13.45257,4.98386" />
<path
   id="path331"
   style="fill:none;stroke:#000000;stroke-width:0.896838;stroke-linecap:square;stroke-miterlimit:10"
   d="m 180.44117,220.51601 c -1.82699,11.09388 -13.60631,21.91999 -24.91031,21.91999 -4.36376,0 10.5135,-22.99364 11.45774,-26.90257" />
<path
   id="path333"
   style="fill:#e6e6e6;stroke-width:1.2812"
   d="m 195.37992,223.01434 c -1.64249,8.70958 -14.11623,24.84881 -24.90903,22.16727 -5.56424,-1.38241 10.03177,-22.54138 10.96064,-27.14984 4.63793,1.65274 9.28868,3.3183 13.93942,4.98385" />
<path
   id="path335"
   style="fill:none;stroke:#000000;stroke-width:0.896838;stroke-linecap:square;stroke-miterlimit:10"
   d="m 195.37992,223.01434 c -1.64249,8.70958 -14.11623,24.84881 -24.90903,22.16727 -5.56424,-1.38241 10.03177,-22.54138 10.96064,-27.14984" />
<path
   id="path337"
   style="fill:#e6e6e6;stroke-width:1.2812"
   d="m 207.83315,224.00086 c -1.53487,9.97156 -10.92861,24.41449 -22.41838,24.41449 -5.40921,0 7.43479,-23.22169 7.96905,-27.89934 4.81729,1.16589 9.63459,2.33178 14.45189,3.48485" />
<path
   id="path339"
   style="fill:none;stroke:#000000;stroke-width:0.896838;stroke-linecap:square;stroke-miterlimit:10"
   d="m 207.83315,224.00086 c -1.53487,9.97156 -10.92861,24.41449 -22.41838,24.41449 -5.40921,0 7.43479,-23.22169 7.96905,-27.89934" />
<path
   id="path341"
   style="fill:#e6e6e6;stroke-width:1.2812"
   d="m 218.30053,225.0002 c -0.0448,9.16568 -8.61477,26.90513 -19.67918,26.90513 -5.18116,0 4.6943,-24.27996 4.73274,-28.89611 4.98385,0.66622 9.96771,1.31963 14.95156,1.98585" />
<path
   id="path343"
   style="fill:none;stroke:#000000;stroke-width:0.896838;stroke-linecap:square;stroke-miterlimit:10"
   d="m 218.30053,225.0002 c -0.0448,9.16568 -8.61477,26.90513 -19.67918,26.90513 -5.18116,0 4.6943,-24.27996 4.73274,-28.89611" />
<path
   id="path345"
   style="fill:#e6e6e6;stroke-width:1.2812"
   d="m 231.25343,224.50053 c -0.21781,4.90186 -12.89268,35.96704 -21.92256,26.90257 -2.54574,-2.55599 4.00374,-14.75426 4.98386,-17.43709 4.35607,-11.95357 2.30615,-10.97986 16.93742,-9.46804" />
<path
   id="path347"
   style="fill:none;stroke:#000000;stroke-width:0.896838;stroke-linecap:square;stroke-miterlimit:10"
   d="m 231.25343,224.50053 c -0.40486,9.16056 -7.8563,27.40352 -19.43191,27.40352 -6.06263,0 4.71224,-24.10956 4.98257,-28.89612" />
<path
   id="path349"
   style="fill:#e6e6e6;stroke-width:1.2812"
   d="m 247.69118,220.51601 c 0.3818,8.98887 -8.47511,26.90257 -19.43063,26.90257 -5.49633,0 4.93774,-23.85973 4.9813,-28.89483 4.8173,0.66622 9.6346,1.31963 14.45189,1.98585" />
<path
   id="path351"
   style="fill:none;stroke:#000000;stroke-width:0.896838;stroke-linecap:square;stroke-miterlimit:10"
   d="m 247.69118,220.51601 c 0.3818,8.98887 -8.47511,26.90257 -19.43063,26.90257 -5.49633,0 4.93774,-23.85973 4.9813,-28.89483" />
<path
   id="path353"
   style="fill:#e6e6e6;stroke-width:1.2812"
   d="m 262.64275,218.53015 c -0.21652,4.92108 -12.80813,35.46865 -21.92128,26.89873 -2.59314,-2.43812 4.04218,-14.88879 4.9813,-17.43325 4.3945,-11.92794 2.2549,-10.99266 16.93742,-9.46804" />
<path
   id="path355"
   style="fill:none;stroke:#000000;stroke-width:0.896838;stroke-linecap:square;stroke-miterlimit:10"
   d="m 262.64275,218.53015 c -0.50351,11.44621 -7.60262,24.17618 -19.43063,27.14984 -5.31697,1.33629 4.67509,-24.56695 4.98129,-28.64628" />
<metadata
   id="metadata180"><rdf:RDF><cc:Work><dc:format>image/svg+xml</dc:format><dc:type
         rdf:resource="http://purl.org/dc/dcmitype/StillImage" /><cc:license
         rdf:resource="http://creativecommons.org/publicdomain/zero/1.0/" /><dc:publisher><cc:Agent
           rdf:about="http://openclipart.org/"><dc:title>Openclipart</dc:title></cc:Agent></dc:publisher></cc:Work><cc:License
       rdf:about="http://creativecommons.org/publicdomain/zero/1.0/"><cc:permits
         rdf:resource="http://creativecommons.org/ns#Reproduction" /><cc:permits
         rdf:resource="http://creativecommons.org/ns#Distribution" /><cc:permits
         rdf:resource="http://creativecommons.org/ns#DerivativeWorks" /></cc:License></rdf:RDF></metadata></svg>
