<?xml version="1.0" encoding="UTF-8" standalone="no"?>
<!-- Created with Inkscape (http://www.inkscape.org/) -->

<svg
   width="88mm"
   height="125mm"
   viewBox="0 0 88 125"
   version="1.1"
   id="svg5"
   inkscape:version="1.2.2 (732a01da63, 2022-12-09)"
   xml:space="preserve"
   sodipodi:docname="vinegar.svg"
   xmlns:inkscape="http://www.inkscape.org/namespaces/inkscape"
   xmlns:sodipodi="http://sodipodi.sourceforge.net/DTD/sodipodi-0.dtd"
   xmlns="http://www.w3.org/2000/svg"
   xmlns:svg="http://www.w3.org/2000/svg"><sodipodi:namedview
     id="namedview7"
     pagecolor="#f0f0f0"
     bordercolor="#ffffff"
     borderopacity="1"
     inkscape:showpageshadow="0"
     inkscape:pageopacity="0"
     inkscape:pagecheckerboard="0"
     inkscape:deskcolor="#505050"
     inkscape:document-units="mm"
     showgrid="true"
     inkscape:zoom="1.436055"
     inkscape:cx="141.70767"
     inkscape:cy="225.26993"
     inkscape:current-layer="layer1"><inkscape:grid
       type="xygrid"
       id="grid132"
       dotted="true"
       empspacing="10"
       units="mm"
       spacingx="1"
       spacingy="1"
       originx="-43.068172"
       originy="-138.35597" /></sodipodi:namedview><defs
     id="defs2" /><g
     inkscape:label="Layer 1"
     inkscape:groupmode="layer"
     id="layer1"
     transform="translate(-43.068172,-138.35597)"><g
       id="g244"
       transform="matrix(1.5103981,0.30872846,-0.30872846,1.5103981,25.173688,-81.935588)"><path
         style="fill:#ffffff;fill-opacity:1;stroke-width:0.0846667"
         d="m 90.376869,206.54912 c -0.01333,-0.0133 -0.320284,-0.0329 -0.682119,-0.0434 -0.917764,-0.0268 -1.863643,-0.2971 -2.938958,-0.83986 -0.794065,-0.4008 -0.954389,-0.54175 -2.341331,-2.05841 -0.689265,-0.75373 -1.273028,-1.38947 -1.29725,-1.41276 -0.04075,-0.0392 -1.402772,-1.52231 -2.287706,-2.49114 -0.20955,-0.22941 -0.622895,-0.67568 -0.918544,-0.99169 -0.29565,-0.31602 -0.604124,-0.65134 -0.685498,-0.74517 -0.08137,-0.0938 -0.487179,-0.53987 -0.901788,-0.99121 -0.41461,-0.45134 -0.791937,-0.86253 -0.838503,-0.91374 -0.04657,-0.0512 -0.503767,-0.54956 -1.016,-1.10743 -0.512234,-0.55787 -1.102784,-1.20201 -1.312334,-1.43142 -0.20955,-0.22942 -0.622895,-0.67568 -0.918544,-0.9917 -0.29565,-0.31602 -0.61294,-0.66178 -0.70509,-0.76837 -0.09215,-0.10659 -0.326505,-0.36532 -0.520789,-0.57495 -0.194283,-0.20964 -0.772343,-0.83799 -1.284577,-1.39633 -0.512233,-0.55835 -1.121833,-1.22056 -1.354666,-1.47159 -0.232834,-0.25103 -0.461436,-0.49898 -0.508005,-0.551 -0.186267,-0.20809 -2.795446,-3.06079 -2.835598,-3.10026 -0.02369,-0.0233 -0.462164,-0.49953 -0.974397,-1.05833 -0.512234,-0.5588 -0.951157,-1.03505 -0.975387,-1.05834 -0.02423,-0.0233 -0.861111,-0.93768 -1.859738,-2.032 -0.998626,-1.09431 -1.836052,-2.00871 -1.860947,-2.032 -0.03814,-0.0357 -1.734185,-1.88027 -1.992595,-2.16713 -0.04657,-0.0517 -0.430906,-0.47106 -0.854087,-0.93192 -1.276535,-1.39022 -1.983314,-2.2943 -2.201116,-2.81558 -0.105545,-0.2526 -0.427715,-1.5573 -0.943775,-3.82203 -0.569139,-2.49766 -1.188201,-5.08005 -2.165172,-9.03191 l -0.966516,-3.90957 -0.704534,-0.76826 c -0.504561,-0.5502 -0.761024,-0.76826 -0.903553,-0.76826 -0.248534,0 -0.771821,-0.2147 -0.97795,-0.40125 -0.09237,-0.0836 -0.270301,-0.13306 -0.437987,-0.12176 -0.316182,0.0213 -0.31527,0.0221 -2.251311,-2.10166 -2.247531,-2.4655 -3.768225,-4.10762 -3.828832,-4.13455 -0.03493,-0.0155 -0.0635,-0.21682 -0.0635,-0.44732 0,-0.81099 0.775121,-1.96312 2.610814,-3.88066 1.764939,-1.84364 4.286082,-3.89662 5.432519,-4.42375 0.70524,-0.32426 0.974391,-0.40639 1.33192,-0.40639 0.359364,0 0.412722,0.0332 0.98674,0.61384 0.333758,0.33761 0.834422,0.86245 1.112586,1.16633 0.278165,0.30387 1.267754,1.38391 2.199087,2.40009 0.931334,1.01618 1.739608,1.9296 1.796166,2.02984 0.05656,0.10023 0.104185,0.30772 0.105834,0.4611 0.0019,0.17527 0.07981,0.36169 0.209761,0.50184 0.193996,0.20922 0.317663,0.6263 0.33573,1.13228 0.01221,0.3421 1.142153,1.5485 1.596597,1.70464 0.197219,0.0678 1.044379,0.35641 1.882579,0.64145 0.8382,0.28503 2.4765,0.84538 3.640667,1.24521 1.164166,0.39983 2.421466,0.82328 2.794,0.94098 0.745891,0.23567 2.982745,0.96465 5.323744,1.73496 0.832559,0.27396 1.549335,0.49811 1.592835,0.49811 0.0435,0 0.328895,0.12048 0.634212,0.26773 0.827292,0.399 2.425446,1.99996 7.254848,7.2676 2.284052,2.49132 4.349187,4.73922 4.589189,4.99534 0.240003,0.25611 1.327399,1.43801 2.416436,2.62643 1.089038,1.18842 4.075569,4.44417 6.636736,7.23499 9.732748,10.60548 8.977208,9.75678 9.348118,10.50075 0.61644,1.23642 0.78926,1.89106 0.83576,3.16582 0.0594,1.62859 -0.13242,2.52511 -0.84067,3.929 -0.3947,0.7824 -1.9573,2.85206 -2.94445,3.89993 -0.57799,0.61356 -4.36222,4.09711 -5.044092,4.64333 -0.325966,0.26112 -1.068916,0.86236 -1.651,1.33609 -1.902705,1.54853 -2.482663,1.95781 -3.386666,2.39001 -0.710752,0.33981 -1.729128,0.69338 -2.248388,0.78062 -0.390599,0.0656 -1.206443,0.12131 -1.242915,0.0848 z"
         id="path906"
         sodipodi:nodetypes="scsssssssssssssssssssssssssscsssscsssssssssssscssssssssssssssssssss" /><path
         style="display:inline;fill:#f4f08d;fill-opacity:1;stroke-width:0.0846667"
         d="m 89.761838,206.50627 c -1.003736,-0.0573 -2.016318,-0.34348 -3.042837,-0.85991 -0.720246,-0.36236 -0.904691,-0.51516 -1.770518,-1.46683 -1.015233,-1.11588 -3.519094,-3.84841 -4.068651,-4.44022 -0.237828,-0.25612 -0.85127,-0.92287 -1.363205,-1.48167 -0.511933,-0.5588 -0.950478,-1.03505 -0.974543,-1.05833 -0.02406,-0.0233 -0.861624,-0.93769 -1.861246,-2.032 -0.999621,-1.09432 -1.837182,-2.00872 -1.861246,-2.032 -0.02406,-0.0233 -0.462854,-0.49954 -0.975087,-1.05834 -0.512233,-0.5588 -0.950712,-1.03505 -0.974397,-1.05833 -0.02369,-0.0233 -0.652006,-0.70908 -1.39627,-1.524 -0.744263,-0.81492 -1.373378,-1.50072 -1.398033,-1.524 -0.02465,-0.0233 -0.67189,-0.72813 -1.4383,-1.56633 -0.76641,-0.8382 -1.413645,-1.54305 -1.4383,-1.56634 -0.02466,-0.0233 -0.65377,-0.70908 -1.398033,-1.524 -0.744263,-0.81491 -1.373717,-1.50071 -1.398785,-1.524 -0.02507,-0.0233 -1.300666,-1.41393 -2.83466,-3.09033 -1.533995,-1.6764 -2.990733,-3.2608 -3.237196,-3.52089 -0.613343,-0.64726 -1.572164,-1.85185 -1.846133,-2.31934 -0.230972,-0.39413 -0.407187,-1.08288 -1.646728,-6.43644 -0.323456,-1.397 -0.909748,-3.8354 -1.302869,-5.41866 -0.393122,-1.58327 -0.842011,-3.39965 -0.997532,-4.03641 l -0.282764,-1.15775 -0.719667,-0.77002 c -0.607414,-0.64991 -0.767699,-0.77558 -1.027609,-0.80566 -0.169368,-0.0196 -0.49599,-0.15134 -0.725826,-0.29276 -0.252227,-0.1552 -0.493106,-0.24264 -0.607636,-0.22058 -0.252302,0.0486 -0.286899,0.0141 -3.434613,-3.42113 -2.660167,-2.90318 -2.670982,-2.91649 -2.670982,-3.28825 0,-0.7396 0.832802,-1.95964 2.608387,-3.82122 0.921239,-0.96585 1.741498,-1.71598 2.836333,-2.59381 1.66847,-1.33778 1.603775,-1.29395 2.740029,-1.85641 0.571138,-0.28272 0.876382,-0.38434 1.154515,-0.38434 0.341119,0 0.423198,0.0435 0.839219,0.4445 0.253618,0.24448 1.070747,1.11125 1.815844,1.92617 0.745097,0.81492 1.820465,1.98974 2.389706,2.61072 1.050418,1.1459 1.194633,1.36163 1.194633,1.78709 0,0.13097 0.06305,0.29041 0.140115,0.35432 0.210714,0.17475 0.367885,0.61603 0.367885,1.03288 0,0.34771 0.0425,0.41665 0.656167,1.06443 0.672783,0.71019 0.872868,0.82721 1.9685,1.15133 0.20955,0.062 1.5621,0.51808 3.005667,1.01353 3.001639,1.0302 6.591574,2.21783 10.117666,3.34714 1.576245,0.50482 1.913741,0.65415 2.455334,1.08637 1.064581,0.84961 1.816141,1.6446 10.46263,11.06729 2.138604,2.33058 7.201554,7.84713 11.251008,12.25898 5.10244,5.55909 7.45662,8.18357 7.66879,8.5493 0.67403,1.16183 1.00948,2.40336 1.0108,3.74095 10e-4,1.39909 -0.21308,2.32968 -0.81408,3.53269 -0.30166,0.60381 -1.65536,2.4429 -2.64351,3.59138 -0.60476,0.70288 -4.22938,4.08941 -5.303305,4.95495 -0.325967,0.26271 -1.068917,0.86514 -1.651,1.33871 -1.706601,1.38848 -2.544792,1.99189 -3.281375,2.36224 -0.874556,0.43972 -2.096578,0.84797 -2.716923,0.90767 -0.263286,0.0253 -0.516802,0.0539 -0.563369,0.0635 -0.04657,0.01 -0.503766,-0.007 -1.016,-0.0358 z m 1.813245,-2.5436 c 0.239964,-0.0365 1.861797,-0.91014 2.325279,-1.25253 0.514604,-0.38017 0.625737,-0.6833 0.312039,-0.85119 -0.211167,-0.11301 -0.572711,-0.11276 -0.642679,4.3e-4 -0.136432,0.22075 -1.162364,0.81681 -1.94548,1.13031 -0.437403,0.17511 -0.723335,0.23219 -1.156116,0.23083 -1.005441,-0.003 -1.146801,-0.0829 -2.277217,-1.28479 -0.556757,-0.59195 -1.091115,-1.09688 -1.187461,-1.12207 -0.188029,-0.0492 -0.501276,0.19614 -0.501276,0.39256 0,0.13048 2.029134,2.36647 2.321227,2.55786 0.314232,0.20589 0.875666,0.28432 1.785106,0.24936 0.465667,-0.0179 0.900627,-0.0408 0.966578,-0.0508 z m -8.247911,-4.18922 c 0.186266,-0.0862 0.573173,-0.31697 0.859791,-0.51273 0.286618,-0.19577 0.537677,-0.33939 0.557908,-0.31916 0.02023,0.0202 0.105954,-0.0397 0.190497,-0.13307 0.08454,-0.0934 0.182081,-0.16985 0.216751,-0.16985 0.07475,0 0.904786,-0.54993 1.117219,-0.7402 0.08149,-0.073 0.148167,-0.10185 0.148167,-0.0641 0,0.0377 0.07646,-5.9e-4 0.169917,-0.0852 0.09345,-0.0846 0.242218,-0.19525 0.330588,-0.24595 0.08837,-0.0507 0.49279,-0.32079 0.898712,-0.60019 0.405922,-0.2794 0.811036,-0.55032 0.900253,-0.60205 0.08921,-0.0517 0.248964,-0.17556 0.354994,-0.27517 0.106031,-0.0996 0.224264,-0.18111 0.26274,-0.18111 0.03848,0 0.22652,-0.13511 0.417876,-0.30025 0.920181,-0.7941 1.652213,-1.39308 1.702534,-1.39308 0.03062,0 0.397918,-0.31433 0.816217,-0.6985 0.4183,-0.38418 0.802061,-0.71312 0.85281,-0.73099 0.05074,-0.0179 0.860823,-0.79891 1.800183,-1.73566 1.619022,-1.61452 3.861376,-4.2031 4.922495,-5.68252 0.406706,-0.56703 1.472016,-2.22662 1.472016,-2.29317 0,-0.0175 0.1293,-0.23401 0.28735,-0.48107 l 0.28735,-0.4492 -0.89296,-0.97061 c -1.048262,-1.13943 -1.357727,-1.47645 -2.6022,-2.83395 -0.511928,-0.55843 -1.125338,-1.22488 -1.363116,-1.481 -0.37813,-0.40729 -2.97953,-3.24108 -5.324053,-5.79967 -2.748362,-2.99929 -3.933011,-4.29015 -4.312374,-4.699 -0.452845,-0.48803 -2.02272,-2.19809 -2.674665,-2.9135 -0.20955,-0.22995 -0.613762,-0.66861 -0.898248,-0.97479 -0.284487,-0.30619 -0.722637,-0.78508 -0.973667,-1.06421 -0.251031,-0.27913 -0.669063,-0.73633 -0.928962,-1.016 -0.259899,-0.27967 -0.600187,-0.65224 -0.756197,-0.82793 -0.15601,-0.17569 -0.311273,-0.30904 -0.34503,-0.29633 -0.03376,0.0127 -0.550718,0.63833 -1.148802,1.39028 -1.212256,1.52411 -2.146544,2.55405 -4.389428,4.83879 -1.44289,1.46982 -4.634004,4.45745 -4.938732,4.62382 -0.0777,0.0424 -0.503218,0.40571 -0.945601,0.80733 -0.442383,0.40161 -0.885291,0.786 -0.984239,0.8542 -0.276332,0.19048 -1.97795,1.55024 -2.369347,1.89335 -0.191356,0.16775 -0.383907,0.30499 -0.427891,0.30499 -0.04398,0 -0.207783,0.13187 -0.363997,0.29304 -0.156213,0.16117 -0.310549,0.27665 -0.342968,0.25661 -0.03242,-0.02 -0.147323,0.0576 -0.255342,0.17263 -0.10802,0.11498 -0.240267,0.20906 -0.293883,0.20906 -0.05362,0 -0.186965,0.0952 -0.296333,0.21166 -0.109368,0.11642 -0.244694,0.21167 -0.300725,0.21167 -0.05603,0 -0.153605,0.0623 -0.216832,0.13852 -0.06323,0.0762 -0.248867,0.22746 -0.412533,0.33618 -0.711832,0.47284 -1.706571,1.20605 -1.706358,1.25774 1.69e-4,0.031 0.202856,0.27668 0.450507,0.546 0.247651,0.26931 0.793174,0.86352 1.212274,1.32046 0.4191,0.45694 0.85725,0.93321 0.973667,1.05838 0.116417,0.12517 0.459317,0.50288 0.762,0.83936 0.302683,0.33648 0.740833,0.81323 0.973667,1.05944 0.232833,0.24622 0.670983,0.72239 0.973666,1.05815 0.302684,0.33576 0.702734,0.77224 0.889,0.96995 0.186267,0.1977 0.624417,0.67671 0.973667,1.06445 0.34925,0.38774 0.7874,0.86402 0.973667,1.05841 0.186266,0.19439 0.586316,0.6314 0.889,0.97113 0.302683,0.33972 0.716308,0.79434 0.919165,1.01026 0.202857,0.21591 0.641007,0.69251 0.973666,1.05911 0.33266,0.3666 0.885429,0.96575 1.228377,1.33145 0.342947,0.3657 0.781097,0.84189 0.973666,1.05819 0.424689,0.47702 0.678201,0.75401 1.354951,1.48044 0.285546,0.30651 0.862075,0.93171 1.281175,1.38935 0.934663,1.0206 1.000111,1.09189 1.947333,2.12092 0.857191,0.93122 0.892797,0.96998 1.947333,2.11946 1.520637,1.65755 1.550654,1.6845 1.715656,1.54053 0.08086,-0.0705 0.299411,-0.19883 0.485678,-0.28507 z m 2.648165,-6.51587 c -0.01502,-0.015 -0.131557,-0.0462 -0.258965,-0.0693 -0.678294,-0.12299 -0.8652,-0.38135 -0.8652,-1.19595 0,-0.52691 0.03973,-0.67251 0.358075,-1.31234 0.866791,-1.74209 1.423311,-2.44002 3.252274,-4.07868 1.031403,-0.92409 1.401617,-1.22452 1.678544,-1.36214 0.07137,-0.0355 0.244073,-0.13965 0.383773,-0.23151 0.227669,-0.14971 1.291084,-0.69577 1.397,-0.71737 0.02328,-0.005 0.137584,-0.0613 0.254,-0.12577 0.116417,-0.0644 0.230717,-0.11527 0.254,-0.11298 0.02328,0.002 0.137584,-0.0341 0.254,-0.0809 0.116417,-0.0468 0.481051,-0.0898 0.810294,-0.0957 0.46714,-0.008 0.631199,0.0219 0.746887,0.13753 0.08153,0.0815 0.174329,0.14817 0.206197,0.14817 0.167903,0 0.288875,0.55939 0.241969,1.11889 -0.104555,1.24714 -1.138682,2.8684 -2.985639,4.68078 -0.729894,0.71622 -1.03185,0.97109 -1.856041,1.56656 -0.186267,0.13458 -0.439942,0.32293 -0.563724,0.41856 -0.123782,0.0956 -0.261992,0.17388 -0.307134,0.17388 -0.04514,0 -0.12875,0.0562 -0.185798,0.12498 -0.139505,0.16809 -1.050511,0.59261 -1.638642,0.76358 -0.262065,0.0762 -0.486731,0.13789 -0.499258,0.13712 -0.01253,-7.6e-4 -0.163745,0.0304 -0.336039,0.0692 -0.172293,0.0389 -0.325552,0.0584 -0.340573,0.0433 z m -4.949327,-4.23172 c -0.08479,-0.12112 -0.231856,-0.30332 -0.326803,-0.40489 -0.09495,-0.10156 -0.36556,-0.43231 -0.601362,-0.735 -0.235802,-0.30268 -0.615319,-0.74327 -0.843369,-0.97908 -0.228051,-0.23581 -0.662288,-0.70704 -0.964971,-1.04716 -0.302683,-0.34013 -0.740833,-0.81667 -0.973667,-1.05898 -0.232833,-0.24231 -0.670983,-0.71907 -0.973666,-1.05947 -0.302684,-0.3404 -1.017059,-1.09168 -1.5875,-1.66951 -0.570442,-0.57784 -1.037167,-1.10627 -1.037167,-1.17429 0,-0.068 0.234608,-0.30462 0.521351,-0.52576 0.286742,-0.22114 0.601067,-0.4656 0.6985,-0.54324 l 0.177149,-0.14116 -0.17847,-0.23984 c -0.09816,-0.13191 -0.22304,-0.23984 -0.277513,-0.23984 -0.05447,0 -0.441155,0.3379 -0.859293,0.75088 l -0.760252,0.75089 -0.494051,-0.53922 c -1.053538,-1.14985 -1.036838,-1.125 -0.893505,-1.32963 0.07059,-0.10079 0.166675,-0.18325 0.213513,-0.18325 0.109699,0 4.013537,-3.56537 4.713956,-4.30525 l 0.533052,-0.56309 0.71187,0.762 c 0.391528,0.4191 0.714219,0.81915 0.717092,0.889 0.0029,0.0699 -0.309692,0.41941 -0.694588,0.7768 l -0.699811,0.64979 0.225503,0.22995 c 0.224522,0.22895 0.226392,0.22925 0.430342,0.0688 0.112663,-0.0886 0.425625,-0.3996 0.695474,-0.69107 l 0.490634,-0.52995 -0.19022,-0.56967 c -0.211701,-0.63401 -0.589607,-1.46077 -0.949031,-2.07624 -0.13037,-0.22324 -0.237035,-0.46183 -0.237035,-0.53021 0,-0.11508 0.81816,-0.7058 0.945679,-0.68279 0.03117,0.006 0.145473,-0.0691 0.254,-0.16598 0.297736,-0.26588 0.800077,-0.53174 0.889211,-0.4706 0.04341,0.0298 0.139602,0.18749 0.213752,0.35048 0.396336,0.87115 0.491358,1.09947 0.491358,1.18069 0,0.20235 0.218447,0.0385 1.320347,-0.99019 0.635962,-0.59373 1.266958,-1.16889 1.402212,-1.27815 l 0.245917,-0.19865 0.162791,0.20696 c 0.08953,0.11382 0.4123,0.46991 0.717256,0.79131 0.304956,0.3214 0.544867,0.6266 0.533138,0.67822 -0.01173,0.0516 -0.488053,0.52201 -1.058495,1.0453 -0.570441,0.5233 -1.037166,0.98635 -1.037166,1.029 0,0.0426 0.182124,0.26947 0.40472,0.50407 l 0.40472,0.42653 0.717113,-0.6549 c 0.394412,-0.36019 0.843094,-0.77166 0.997071,-0.91438 l 0.279957,-0.25948 0.713995,0.762 c 0.392698,0.4191 0.714392,0.81392 0.714877,0.87738 5.08e-4,0.0634 -0.274891,0.36825 -0.611945,0.67733 -0.337054,0.30908 -0.765087,0.70155 -0.951186,0.87216 l -0.338361,0.31019 0.478061,0.5012 0.478062,0.5012 0.959957,-0.9156 c 0.527978,-0.50357 0.981418,-0.91633 1.007646,-0.91722 0.02623,-9e-4 0.204096,0.17934 0.395263,0.40053 0.191167,0.22119 0.503083,0.57209 0.693146,0.77978 0.190064,0.20768 0.34557,0.41902 0.34557,0.46965 0,0.10054 -0.577662,0.6793 -0.728599,0.72998 -0.05148,0.0173 -0.344537,0.26246 -0.651238,0.54485 l -0.557638,0.51343 0.33569,0.37557 c 0.18463,0.20656 0.642279,0.68693 1.017,1.06748 l 0.68131,0.69191 -0.577429,0.54364 c -0.317586,0.299 -0.740746,0.68865 -0.940354,0.8659 -0.404279,0.35899 -0.370792,0.36859 -0.843663,-0.24203 -0.10336,-0.13347 -0.426612,-0.51085 -0.718337,-0.83863 -0.590349,-0.66331 -0.638832,-0.71646 -1.715742,-1.88085 -0.4191,-0.45314 -0.85725,-0.92939 -0.973666,-1.05833 -0.116417,-0.12894 -0.542742,-0.59153 -0.947389,-1.02798 -0.404646,-0.43644 -0.809165,-0.87926 -0.89893,-0.98404 -0.08977,-0.10477 -0.179768,-0.1905 -0.200007,-0.1905 -0.02024,0 -0.0082,0.25718 0.02675,0.5715 0.106999,0.96229 0.09419,1.14779 -0.07592,1.0997 -0.08149,-0.023 -0.205317,-0.0561 -0.275167,-0.0734 -0.06985,-0.0173 -0.150812,-0.0641 -0.179917,-0.10402 -0.02911,-0.0399 -0.07379,-0.0388 -0.09929,0.002 -0.02551,0.0413 0.144204,0.28347 0.377135,0.53821 0.232931,0.25474 0.715763,0.78207 1.072959,1.17184 0.357197,0.38978 0.744698,0.81392 0.861115,0.94254 0.256374,0.28325 1.649884,1.79758 1.953369,2.12273 0.119737,0.12828 0.334396,0.36614 0.47702,0.52858 0.142624,0.16244 0.338514,0.33773 0.435311,0.38954 0.0968,0.0518 0.157312,0.14287 0.134479,0.20237 -0.02283,0.0595 -0.381275,0.42152 -0.796538,0.80449 l -0.755022,0.6963 -0.171093,-0.18365 -0.171093,-0.18365 -0.53205,0.47565 c -0.292628,0.26161 -0.76065,0.68283 -1.04005,0.93606 l -0.508,0.4604 0.1905,0.16625 c 0.104775,0.0914 0.1905,0.22376 0.1905,0.29406 0,0.0703 -0.359248,0.45757 -0.798328,0.86062 l -0.798329,0.73281 z m 1.821583,-5.08456 0.301429,-0.26167 -0.167931,-0.21349 -0.167932,-0.21349 -1.09766,1.00842 c -0.603714,0.55463 -1.097661,1.04313 -1.097661,1.08556 0,0.0424 0.05449,0.15275 0.121095,0.24515 0.115838,0.16072 0.157691,0.13422 0.964163,-0.6104 0.463687,-0.42812 0.978711,-0.89616 1.144497,-1.04008 z m -3.504852,-0.19574 c 0.02598,-0.042 -0.06703,-0.11625 -0.20667,-0.16493 -0.276605,-0.0964 -0.310697,-0.07 -0.148066,0.1147 0.121668,0.13819 0.285992,0.16146 0.354736,0.0502 z m 1.481868,-1.37572 0.632367,-0.58269 -0.176904,-0.1769 -0.176902,-0.17691 -0.479148,0.39027 -0.479146,0.39027 -0.271519,-0.13982 c -0.149335,-0.0769 -0.328669,-0.20508 -0.398519,-0.28485 -0.373281,-0.42629 -1.26401,-1.40593 -1.508412,-1.65898 -0.351832,-0.36429 -0.548834,-0.28715 -0.208882,0.0818 0.134616,0.14609 0.39381,0.45612 0.575988,0.68895 0.182177,0.23284 0.35298,0.44239 0.379562,0.46567 0.192111,0.16827 0.601494,0.94096 0.760442,1.43529 l 0.191158,0.5945 0.263773,-0.22195 c 0.145076,-0.12208 0.54834,-0.48417 0.896142,-0.80464 z m -3.3659,-0.59508 c -0.39981,-0.57474 -0.84102,-1.01943 -0.906438,-0.91358 -0.03175,0.0514 -0.03445,0.11666 -0.006,0.1451 0.02844,0.0284 0.285898,0.31201 0.572131,0.63016 0.575043,0.63916 0.733539,0.70358 0.340323,0.13832 z m 2.174687,-1.95291 c -0.11049,-0.11177 -0.360062,-0.38223 -0.554605,-0.60103 -0.21267,-0.23918 -0.376415,-0.36108 -0.410645,-0.3057 -0.03131,0.0507 -0.03084,0.11816 0.0011,0.14999 0.03189,0.0318 0.271434,0.29648 0.532321,0.58812 0.294464,0.32918 0.504379,0.50022 0.553555,0.45104 0.04918,-0.0492 0.003,-0.15627 -0.121676,-0.28242 z m -3.25521,-1.32365 c 0.04932,-0.0798 -0.349063,-0.51823 -0.470893,-0.51823 -0.115548,0 -0.0873,0.0822 0.117379,0.34176 0.202969,0.25735 0.279817,0.29571 0.353514,0.17647 z m -8.47846,1.27923 c -0.242796,-0.26682 -0.547596,-0.59948 -0.677334,-0.73924 -1.557669,-1.67808 -1.819346,-1.99389 -1.73561,-2.09461 0.04874,-0.0586 0.38134,-0.33521 0.739105,-0.61461 0.357766,-0.2794 0.808613,-0.64298 1.001883,-0.80797 0.193271,-0.16498 0.432511,-0.35548 0.531644,-0.42333 0.09913,-0.0678 0.575383,-0.44042 1.058334,-0.82794 0.482949,-0.38752 1.079944,-0.86377 1.326654,-1.05833 0.24671,-0.19457 0.636993,-0.50616 0.867297,-0.69243 0.230303,-0.18626 0.610299,-0.49106 0.844436,-0.67733 0.234138,-0.18627 0.567754,-0.45545 0.741371,-0.59819 0.173616,-0.14273 0.552488,-0.43923 0.841937,-0.65888 0.289449,-0.21965 0.584073,-0.48189 0.654718,-0.58275 0.07065,-0.10087 0.481524,-0.54988 0.913062,-0.99781 0.431538,-0.44793 1.318015,-1.38271 1.969949,-2.07729 0.651933,-0.69458 1.5664,-1.66357 2.03215,-2.15331 0.465748,-0.48974 1.10569,-1.16925 1.422091,-1.51002 0.316401,-0.34077 0.609221,-0.60747 0.650712,-0.59266 0.04149,0.0148 0.635444,0.63651 1.319898,1.38158 0.684454,0.74506 1.34035,1.45806 1.457546,1.58444 0.184063,0.19847 0.197386,0.24868 0.09782,0.36865 -0.06339,0.0764 -0.193027,0.17305 -0.288074,0.21482 -0.09505,0.0418 -0.458563,0.2665 -0.807813,0.49942 -0.34925,0.23293 -0.69215,0.45016 -0.762,0.48275 -0.06985,0.0326 -0.2794,0.16069 -0.465667,0.28467 -0.566166,0.37684 -1.098268,0.70811 -1.143,0.71159 -0.02328,0.002 -0.137583,0.071 -0.254,0.15383 -0.319256,0.22706 -0.788445,0.52649 -0.931333,0.59436 -0.06985,0.0332 -0.22671,0.12659 -0.348578,0.20757 -0.121868,0.081 -0.496069,0.31868 -0.831559,0.52823 -0.335489,0.20955 -0.70036,0.43815 -0.810826,0.508 -0.110464,0.0699 -0.695383,0.4318 -1.299819,0.80433 l -1.098975,0.67734 -1.486335,1.98966 c -0.817484,1.09432 -1.888417,2.52307 -2.37985,3.175 -0.491434,0.65194 -1.274083,1.69016 -1.739222,2.30717 -0.465138,0.61701 -0.873485,1.12106 -0.907438,1.12012 -0.03395,-9.4e-4 -0.260382,-0.22001 -0.503177,-0.48683 z m -6.281949,-8.28928 c -0.05657,-0.13155 -0.457738,-0.61557 -0.89148,-1.07562 l -0.78862,-0.83644 -0.262526,-0.89923 c -0.14439,-0.49457 -0.588705,-2.02317 -0.987366,-3.39689 -0.749337,-2.58207 -0.860904,-2.82941 -1.232467,-2.73224 -0.436145,0.11405 -0.408951,0.24802 1.125052,5.54254 l 0.532135,1.83664 0.804333,0.86517 c 0.442384,0.47585 0.856035,0.93797 0.919226,1.02695 0.204225,0.28755 0.453743,0.32624 0.681173,0.10561 0.181772,-0.17633 0.192462,-0.22274 0.10054,-0.43649 z m -7.458102,-12.74868 c 2.54e-4,-0.16691 0.731906,-1.23735 1.257178,-1.83934 0.730361,-0.83704 3.398864,-3.47349 3.515714,-3.47349 0.05678,0 0.253846,-0.15534 0.437922,-0.34521 0.184075,-0.18987 0.601383,-0.54762 0.927349,-0.795 0.325967,-0.24738 0.685033,-0.54924 0.797925,-0.67079 0.112893,-0.12155 0.243243,-0.221 0.289667,-0.221 0.04642,0 0.154346,-0.0633 0.239825,-0.14065 0.197212,-0.17848 0.414161,-0.30444 1.022083,-0.59345 0.267759,-0.1273 0.486834,-0.28725 0.486834,-0.35545 0,-0.0682 -0.02321,-0.1008 -0.05157,-0.0724 -0.02836,0.0284 -0.247438,-0.0273 -0.486833,-0.12375 -0.239396,-0.0964 -0.48289,-0.17678 -0.541098,-0.17857 -0.05821,-0.002 -0.105834,-0.0413 -0.105834,-0.0879 0,-0.0466 -0.02354,-0.0611 -0.05231,-0.0324 -0.02877,0.0288 -0.247845,-0.0245 -0.486834,-0.11844 -0.238988,-0.0939 -0.472624,-0.18089 -0.519191,-0.19327 -0.791339,-0.21044 -0.865884,-0.25426 -1.467587,-0.8626 -0.341505,-0.34528 -0.655056,-0.62778 -0.696779,-0.62778 -0.04172,0 -0.152072,0.14939 -0.245223,0.33198 -0.271096,0.5314 -1.202106,1.58274 -2.315356,2.61462 -0.567814,0.52631 -1.127638,1.02024 -1.244055,1.09762 -0.116417,0.0774 -0.402167,0.30981 -0.635,0.5165 -0.40234,0.35717 -1.236167,0.93643 -1.374652,0.95497 -0.03558,0.005 -0.155545,0.0801 -0.266599,0.16749 -0.111055,0.0874 -0.249265,0.15882 -0.307133,0.15882 -0.05787,0 -0.147375,0.0508 -0.198903,0.11289 -0.07253,0.0874 0.01182,0.226 0.373597,0.61383 0.257005,0.27552 0.518295,0.5962 0.580643,0.71262 0.06235,0.11641 0.29914,0.96372 0.526204,1.8829 0.227063,0.91918 0.441418,1.67166 0.476343,1.67217 0.03493,5.1e-4 0.06358,-0.0467 0.06367,-0.10491 z m -2.836503,-5.59784 c 0.04657,-0.0116 0.256116,-0.11244 0.465666,-0.22406 0.20955,-0.11162 0.40005,-0.20547 0.423334,-0.20856 0.02328,-0.003 0.283152,-0.16674 0.577487,-0.36366 0.294335,-0.19692 0.556403,-0.35804 0.582373,-0.35804 0.09576,0 2.066582,-1.70793 2.696653,-2.33693 0.959104,-0.95748 2.070153,-2.57988 2.070153,-3.02294 0,-0.13636 -0.02154,-0.14633 -0.127,-0.0588 -0.06985,0.058 -0.127,0.14112 -0.127,0.18478 0,0.12807 -0.549463,0.81725 -1.295568,1.62501 -0.747838,0.80963 -3.164899,3.04019 -3.818885,3.52421 -0.220216,0.16298 -0.526657,0.40111 -0.68098,0.52917 -0.154324,0.12806 -0.318518,0.23283 -0.364877,0.23283 -0.04636,0 -0.131371,0.0567 -0.188916,0.12607 -0.05754,0.0693 -0.128904,0.11106 -0.158575,0.0927 -0.02967,-0.0183 -0.16823,0.0579 -0.307907,0.16936 -0.268903,0.21462 -0.261178,0.21732 0.254042,0.0888 z"
         id="path904" /><path
         id="path348"
         style="display:inline;fill:#94c866;fill-opacity:1;stroke-width:0.0846667"
         d="m 52.253658,138.38639 c -0.06424,2.6e-4 -0.119814,0.005 -0.157096,0.016 -0.45646,0.13051 -1.455361,0.62637 -2.016415,1.00098 -0.387391,0.25867 -0.579509,0.41039 -2.249992,1.77612 -0.907077,0.74159 -3.187078,3.06592 -3.735689,3.80855 -0.57596,0.77965 -1.02396,1.66619 -1.02526,2.02882 -9.69e-4,0.26135 0.0671,0.39498 0.364319,0.71933 0.200857,0.2192 1.045822,1.14196 1.877921,2.05001 0.8321,0.90805 1.896415,2.06979 2.36523,2.58175 1.236856,1.35061 1.266112,1.37587 1.552877,1.33377 0.17667,-0.0259 0.352144,0.0366 0.619601,0.22117 0.206383,0.14245 0.512152,0.26952 0.683679,0.28422 1.81554,0.18378 8.325739,-6.81929 8.685258,-7.20111 -0.03493,-0.0155 -0.06401,-0.16774 -0.06511,-0.33848 -0.0033,-0.51105 -0.140906,-0.95087 -0.372588,-1.19269 -0.15421,-0.16097 -0.218074,-0.31984 -0.218074,-0.54053 0,-0.36008 0.185659,-0.13258 -2.533179,-3.10576 -2.908605,-3.18069 -3.048173,-3.31902 -3.424597,-3.40392 -0.112488,-0.0254 -0.24382,-0.0387 -0.350883,-0.0382 z m 28.791008,24.35355 c -0.0127,0 -1.637179,1.70506 -3.610116,3.78891 -1.972937,2.08386 -3.743702,3.92205 -3.93516,4.08503 -0.191459,0.16299 -1.214817,0.98236 -2.273763,1.82056 -1.058945,0.8382 -2.369805,1.87667 -2.913001,2.30787 -0.543194,0.4312 -1.177933,0.93514 -1.410766,1.11982 -1.101059,0.87336 -1.400898,1.13168 -1.378728,1.18908 0.01319,0.0341 0.424173,0.49448 0.913123,1.02268 0.488949,0.52819 1.117414,1.2145 1.396814,1.52497 0.2794,0.31048 0.545125,0.55622 0.590145,0.54622 0.04502,-0.01 1.511437,-1.92536 3.259232,-4.25607 l 3.178101,-4.23747 0.998905,-0.62477 c 0.549543,-0.3435 1.089871,-0.68148 1.200444,-0.75138 0.110574,-0.0698 0.556437,-0.34956 0.990637,-0.62115 0.4342,-0.27159 1.418081,-0.88848 2.18643,-1.37097 0.768349,-0.48248 1.900919,-1.18639 2.517159,-1.56476 0.616239,-0.37837 1.141424,-0.72165 1.166854,-0.76275 0.03646,-0.059 -2.787081,-3.21582 -2.87631,-3.21582 z" /><path
         style="display:inline;fill:#e8390e;fill-opacity:1;stroke-width:0.0846667"
         d="m 85.551509,193.01941 c -0.525655,-0.16343 -0.615671,-0.31303 -0.615671,-1.02323 0,-0.58826 0.02644,-0.67668 0.448441,-1.49983 0.744643,-1.45247 1.538403,-2.43021 3.115868,-3.83804 1.037704,-0.92612 1.588381,-1.32001 2.554672,-1.82734 1.798172,-0.94408 2.79073,-1.10419 3.35389,-0.54103 0.414486,0.41448 0.324917,1.18237 -0.286131,2.45303 -0.71948,1.49618 -2.574069,3.47194 -4.542097,4.83887 -1.289912,0.89593 -1.79187,1.154 -2.689686,1.3828 -0.746612,0.19027 -0.885246,0.19594 -1.339286,0.0548 z"
         id="path248"
         sodipodi:nodetypes="sssssssssss" /><path
         style="display:inline;fill:#000000;stroke-width:0.0846667"
         d="m 89.761838,206.41936 c -1.807092,-0.0988 -3.560212,-0.90289 -4.614333,-2.1163 -0.402781,-0.46364 -0.554907,-0.63079 -1.385825,-1.5227 -0.285546,-0.30651 -0.862075,-0.93172 -1.281175,-1.38935 -0.4191,-0.45764 -0.85725,-0.93491 -0.973667,-1.06061 -0.116416,-0.1257 -0.497416,-0.54601 -0.846666,-0.93403 -0.34925,-0.38802 -0.867762,-0.95537 -1.152248,-1.26078 -0.284487,-0.3054 -0.722637,-0.78196 -0.973667,-1.05901 -0.251031,-0.27705 -0.698314,-0.76135 -0.993963,-1.07621 -0.29565,-0.31486 -0.604124,-0.64924 -0.685498,-0.74306 -0.08137,-0.0938 -0.487179,-0.53954 -0.901788,-0.99047 -0.41461,-0.45093 -0.849086,-0.92362 -0.965503,-1.05041 -0.55132,-0.60045 -1.7581,-1.91026 -1.947333,-2.11358 -0.116417,-0.12508 -0.371916,-0.40677 -0.567777,-0.62598 -0.339783,-0.38028 -1.416339,-1.54953 -2.533732,-2.7519 -0.285546,-0.30727 -0.628446,-0.67889 -0.762,-0.82583 -0.819268,-0.90141 -1.772707,-1.94258 -2.810888,-3.06951 -0.403665,-0.43818 -0.829187,-0.90011 -0.945603,-1.02652 -0.116417,-0.12641 -0.535517,-0.58497 -0.931334,-1.01902 -0.395816,-0.43405 -0.833966,-0.90976 -0.973666,-1.05714 -0.1397,-0.14738 -0.53975,-0.58583 -0.889,-0.97435 -0.34925,-0.38851 -0.84455,-0.93283 -1.100667,-1.20959 -0.712771,-0.77022 -0.832128,-0.89977 -1.651,-1.79189 -0.4191,-0.45658 -0.85725,-0.93345 -0.973667,-1.0597 -0.515403,-0.55892 -0.834003,-0.92062 -1.228283,-1.39445 -0.232494,-0.2794 -0.443602,-0.52705 -0.469129,-0.55033 -0.02553,-0.0233 -0.137992,-0.17568 -0.249921,-0.33867 -0.111929,-0.16298 -0.224394,-0.31538 -0.249921,-0.33866 -0.1691,-0.15424 -0.43977,-0.83285 -0.590974,-1.48167 -0.09767,-0.4191 -0.214506,-0.9144 -0.259637,-1.10067 -0.174192,-0.71893 -0.599803,-2.53895 -1.049359,-4.48733 -0.257868,-1.1176 -0.65802,-2.794 -0.889225,-3.72533 -0.231205,-0.93134 -0.673301,-2.72204 -0.982435,-3.97934 -0.309135,-1.2573 -0.578865,-2.34315 -0.599402,-2.413 -0.03949,-0.13431 -0.257296,-0.39327 -1.007965,-1.19843 -0.341407,-0.36619 -0.520576,-0.4949 -0.688938,-0.4949 -0.125146,0 -0.462706,-0.13151 -0.750134,-0.29225 -0.290734,-0.16259 -0.59486,-0.27479 -0.68547,-0.2529 -0.210135,0.0508 -0.175589,0.081 -1.26354,-1.10585 -0.512233,-0.5588 -0.950383,-1.03505 -0.973667,-1.05833 -0.02328,-0.0233 -0.461433,-0.49954 -0.973666,-1.05834 -0.512234,-0.5588 -0.950384,-1.03505 -0.973667,-1.05833 -0.828456,-0.82846 -1.844873,-2.04042 -1.881653,-2.24367 -0.187985,-1.03879 2.376509,-4.04802 5.714654,-6.70568 0.2222,-0.17691 0.54605,-0.43595 0.719666,-0.57565 0.173617,-0.1397 0.429966,-0.33376 0.569666,-0.43125 0.253283,-0.17674 1.557957,-0.83215 1.665112,-0.83647 0.03104,-0.001 0.08502,-0.0308 0.119944,-0.0658 0.09575,-0.0958 0.700054,-0.0762 0.896648,0.029 0.184642,0.0988 0.480471,0.39008 1.074708,1.05812 0.20336,0.22862 0.60341,0.66539 0.889,0.9706 0.28559,0.30522 0.862155,0.93042 1.281255,1.38934 0.4191,0.45893 0.870703,0.95216 1.003562,1.09607 1.490081,1.61407 1.494105,1.61939 1.494105,1.97448 0,0.20841 0.06557,0.38076 0.200188,0.52622 0.217017,0.23448 0.411296,0.88395 0.344298,1.15098 -0.04388,0.17488 0.01863,0.25986 0.835924,1.13648 0.440605,0.47259 0.550347,0.54114 1.223963,0.76457 0.406978,0.13499 1.86391,0.63007 3.237627,1.10018 3.51818,1.20398 8.52961,2.85895 11.218333,3.70472 0.55871,0.17575 1.25928,0.4529 1.312333,0.51916 0.02328,0.0291 0.213784,0.191 0.423334,0.35983 0.547775,0.44132 2.095959,1.98357 3.176558,3.16438 0.511376,0.5588 0.949957,1.03505 0.974624,1.05833 0.02467,0.0233 1.300062,1.41393 2.834211,3.09033 1.534149,1.6764 2.809695,3.06705 2.834548,3.09034 0.02485,0.0233 0.654129,0.70908 1.398392,1.524 0.744263,0.81491 1.373378,1.50071 1.398033,1.524 0.02466,0.0233 0.671726,0.72813 1.437936,1.56633 0.766211,0.8382 1.588261,1.73355 1.826777,1.98967 0.238523,0.25611 1.13113,1.22766 1.983587,2.159 0.852458,0.93133 1.744354,1.90288 1.982005,2.159 0.410743,0.44266 2.198929,2.38913 2.378329,2.58885 0.04657,0.0518 0.448678,0.49068 0.893578,0.9752 0.4449,0.48452 1.24445,1.3572 1.77678,1.93928 0.53234,0.58208 0.9878,1.07738 1.01216,1.10067 0.0789,0.0754 2.67036,2.91239 2.91727,3.19363 0.68009,0.77465 1.3341,2.33095 1.46874,3.49503 0.0844,0.72956 0.0104,2.21232 -0.13936,2.794 -0.14184,0.55086 -0.51255,1.43904 -0.81851,1.96107 -0.58297,0.9947 -2.48576,3.34455 -3.52611,4.35458 -0.89589,0.86979 -3.644365,3.34986 -4.235855,3.8222 -1.599751,1.27752 -2.350237,1.88729 -3.02315,2.45632 -0.178969,0.15134 -0.362501,0.27517 -0.407848,0.27517 -0.04535,0 -0.151621,0.0764 -0.236161,0.16985 -0.281703,0.31128 -1.71428,1.06312 -2.497201,1.31057 -1.223032,0.38656 -1.695558,0.4453 -3.005667,0.37363 z m 1.524,-0.84388 c 2.067459,-0.54665 2.981503,-1.02983 4.839937,-2.55849 0.351722,-0.28931 0.740122,-0.60191 0.863108,-0.69468 1.422629,-1.07301 4.442317,-3.79073 5.886437,-5.29779 1.46564,-1.5295 2.67425,-3.01711 3.15983,-3.88921 0.44385,-0.79715 0.80118,-2.11661 0.85095,-3.14224 0.0404,-0.83248 0.0237,-0.96618 -0.22756,-1.81798 -0.31802,-1.07824 -0.7216,-1.85929 -1.26546,-2.44906 -0.21518,-0.23334 -0.79602,-0.86199 -1.29074,-1.397 -0.49472,-0.53499 -1.00294,-1.09655 -1.12936,-1.24789 -0.12642,-0.15134 -0.26155,-0.27517 -0.30029,-0.27517 -0.0387,0 -0.46185,0.61913 -0.94026,1.37584 -1.39457,2.2058 -3.972199,5.40367 -5.957048,7.39045 -1.526752,1.52824 -4.327428,3.90078 -6.190765,5.24438 -2.999687,2.163 -3.756637,2.66262 -5.326112,3.51544 -0.848694,0.46116 -0.973667,0.54123 -0.973667,0.6238 0,0.0437 0.180975,0.274 0.402167,0.51185 0.221192,0.23785 0.821267,0.88923 1.3335,1.44752 0.918019,1.00055 1.402531,1.49486 1.690901,1.72511 0.244524,0.19524 1.48827,0.70118 2.119099,0.86203 0.671199,0.17114 1.941491,0.20896 2.455333,0.0731 z m -8.039993,-5.63343 c 0.32413,-0.16789 0.649476,-0.35839 0.722993,-0.42333 0.07352,-0.0649 0.160785,-0.11808 0.193929,-0.11808 0.03314,0 0.163493,-0.0729 0.289666,-0.16207 0.126173,-0.0891 0.629455,-0.41893 1.118405,-0.73287 2.35834,-1.51422 3.472095,-2.28632 4.62388,-3.20546 4.952903,-3.95247 8.752582,-8.13567 11.374302,-12.52238 l 0.4469,-0.74778 -0.28503,-0.30879 c -0.15678,-0.16984 -0.3041,-0.3288 -0.32738,-0.35325 -0.11999,-0.126 -1.1595,-1.25554 -1.910568,-2.07605 -0.791912,-0.86513 -2.510485,-2.73991 -3.415267,-3.72569 -0.214045,-0.2332 -0.80827,-0.8809 -1.320503,-1.43933 -0.512234,-0.55843 -0.950384,-1.03438 -0.973667,-1.05766 -0.04749,-0.0475 -1.857569,-2.01993 -1.989667,-2.16814 -0.04657,-0.0522 -0.256116,-0.28118 -0.465666,-0.50875 -0.83849,-0.91059 -2.248634,-2.44802 -2.328334,-2.5385 -0.04657,-0.0529 -0.275166,-0.30151 -0.508,-0.55254 -0.450141,-0.48532 -2.228326,-2.42118 -2.370666,-2.58087 -0.04657,-0.0522 -0.256117,-0.28119 -0.465667,-0.50876 -0.20955,-0.22756 -0.8001,-0.87089 -1.312333,-1.4296 -0.512234,-0.55871 -1.145043,-1.24444 -1.406244,-1.52384 -0.261201,-0.2794 -0.829231,-0.89968 -1.26229,-1.37841 -0.433059,-0.47872 -0.815225,-0.85972 -0.849259,-0.84666 -0.03403,0.013 -0.523529,0.61155 -1.087769,1.32999 -0.564239,0.71844 -1.554485,1.88049 -2.200546,2.58233 -1.439831,1.56415 -5.070791,5.17518 -5.936226,5.90365 -0.34925,0.29397 -0.96098,0.82083 -1.359401,1.1708 -0.866004,0.76068 -2.161234,1.84556 -2.831871,2.37196 -0.266966,0.20955 -0.604718,0.47999 -0.75056,0.60097 -0.321051,0.26632 -2.284337,1.74859 -2.626568,1.98304 -0.134603,0.0922 -0.363203,0.25352 -0.508,0.35847 -0.144796,0.10494 -0.396616,0.28578 -0.5596,0.40186 -0.162983,0.11608 -0.415285,0.29692 -0.560671,0.40186 -0.145385,0.10494 -0.45971,0.32354 -0.6985,0.48578 -0.238789,0.16224 -0.434162,0.32921 -0.434162,0.37105 0,0.0418 0.409575,0.51862 0.910167,1.05953 0.500591,0.54091 1.081616,1.17117 1.291166,1.40058 0.20955,0.22942 0.622896,0.67568 0.918545,0.9917 0.29565,0.31602 0.61294,0.66178 0.70509,0.76837 0.09215,0.10659 0.326505,0.36531 0.520788,0.57495 0.194284,0.20964 0.772344,0.83799 1.284577,1.39633 0.512234,0.55835 1.106702,1.20597 1.321042,1.43918 0.214339,0.2332 0.858796,0.93835 1.432125,1.567 0.57333,0.62865 1.255212,1.3716 1.515292,1.651 0.260081,0.2794 0.891975,0.9652 1.404208,1.524 0.512233,0.5588 0.950383,1.03505 0.973667,1.05833 0.06816,0.0682 1.86943,2.03466 2.286,2.49569 0.20955,0.23192 0.629882,0.68919 0.934071,1.01616 0.30419,0.32697 0.97094,1.05162 1.481667,1.61033 0.510728,0.55872 1.087555,1.18737 1.281839,1.397 0.194284,0.20964 0.428638,0.46837 0.520788,0.57495 0.09215,0.10659 0.40944,0.45071 0.70509,0.76471 0.29565,0.314 0.819646,0.88402 1.164435,1.2667 0.34479,0.38269 0.651093,0.6958 0.680674,0.6958 0.02958,0 0.318979,-0.13737 0.643109,-0.30526 z m -2.680801,-11.65507 c -0.544272,-0.68461 -1.352912,-1.59425 -2.915527,-3.27967 -0.237456,-0.25612 -0.692359,-0.75142 -1.010897,-1.10067 -0.318537,-0.34925 -1.093957,-1.16434 -1.723155,-1.81131 l -1.143997,-1.1763 0.250075,-0.2207 c 0.137542,-0.12138 0.477825,-0.41962 0.756185,-0.66277 l 0.50611,-0.44207 -0.322954,-0.31993 -0.322953,-0.31992 -0.396713,0.42515 c -0.218192,0.23383 -0.573789,0.58751 -0.790216,0.78596 l -0.393503,0.36082 -0.47136,-0.49417 c -0.580972,-0.60909 -0.900394,-0.97814 -0.900531,-1.04044 -5.6e-5,-0.026 0.218972,-0.23537 0.48673,-0.46517 0.69447,-0.59601 3.590548,-3.25502 4.317884,-3.96443 0.605127,-0.59021 0.615876,-0.59624 0.768061,-0.43148 0.08489,0.0919 0.399267,0.42827 0.698617,0.74749 l 0.544272,0.58039 -0.754774,0.69681 -0.754774,0.6968 0.290569,0.31707 0.290569,0.31706 0.675871,-0.63611 c 0.611063,-0.57511 0.686793,-0.62244 0.789765,-0.49359 0.09791,0.12251 0.105465,0.089 0.05384,-0.23849 -0.09837,-0.62409 -0.272411,-1.08294 -0.86011,-2.26764 -0.306845,-0.61855 -0.543288,-1.13802 -0.525428,-1.15437 0.10614,-0.0972 1.862959,-1.14999 1.918979,-1.14999 0.0374,0 0.2158,0.33337 0.396441,0.74083 0.18064,0.40746 0.364595,0.78837 0.408786,0.84648 0.09478,0.12462 0.199666,0.0396 1.786505,-1.44782 l 1.091572,-1.0232 0.704854,0.75936 c 0.38767,0.41764 0.696563,0.78269 0.686428,0.81123 -0.01013,0.0285 -0.485151,0.47987 -1.055592,1.00297 -0.570442,0.5231 -1.036697,0.99506 -1.036123,1.04879 0.0011,0.10428 0.824391,0.98803 0.917335,0.98472 0.03041,-10e-4 0.487983,-0.39697 1.016832,-0.87975 l 0.961543,-0.87778 0.537959,0.56777 c 0.295878,0.31227 0.611425,0.66116 0.701216,0.77531 l 0.163258,0.20755 -0.96426,0.87639 c -0.530344,0.48201 -0.96426,0.90481 -0.96426,0.93954 0,0.0347 0.224349,0.30648 0.498553,0.60388 l 0.498553,0.54073 0.580947,-0.53951 c 0.319521,-0.29673 0.7566,-0.72666 0.971286,-0.95542 l 0.39034,-0.41591 0.696779,0.76323 c 0.383229,0.41977 0.683826,0.79582 0.667994,0.83566 -0.01583,0.0398 -0.458361,0.44732 -0.983399,0.90552 -0.525037,0.4582 -0.944137,0.86408 -0.931333,0.90196 0.0128,0.0379 0.457552,0.52961 0.988328,1.09271 l 0.965049,1.02383 -0.795715,0.75092 c -0.437643,0.413 -0.838819,0.75281 -0.8915,0.75513 -0.05268,0.002 -0.203996,-0.13866 -0.336254,-0.31329 -0.220551,-0.2912 -0.573455,-0.68485 -1.764726,-1.9685 -0.237686,-0.25612 -1.058797,-1.15147 -1.824691,-1.98967 -0.765893,-0.8382 -1.577317,-1.7145 -1.803163,-1.94733 l -0.410629,-0.42333 0.04583,0.33866 c 0.02521,0.18627 0.07112,0.60161 0.102026,0.92298 l 0.05619,0.58432 -0.201736,-0.0552 c -0.110954,-0.0304 -0.354135,-0.079 -0.540402,-0.10801 l -0.338667,-0.0528 0.387953,0.41269 c 0.213374,0.22698 1.239207,1.34614 2.279629,2.48702 1.040422,1.14089 2.140521,2.33086 2.444664,2.64438 l 0.552988,0.57004 -0.665014,0.61529 c -0.365758,0.33841 -0.700183,0.6289 -0.743169,0.64553 -0.04299,0.0166 -0.161157,-0.0471 -0.262603,-0.14164 l -0.184448,-0.17189 -1.016,0.9421 c -0.5588,0.51816 -1.028067,0.97053 -1.042817,1.00527 -0.01475,0.0347 0.05673,0.17617 0.158846,0.31428 l 0.185663,0.25113 -0.556134,0.52023 c -0.305875,0.28613 -0.649401,0.5936 -0.763394,0.68327 l -0.207259,0.16303 z m 1.851961,-3.86671 c 0.430742,-0.39253 0.783167,-0.74276 0.783167,-0.77827 0,-0.0355 -0.09112,-0.17051 -0.202487,-0.29999 l -0.202488,-0.2354 -1.004012,0.92361 c -0.552207,0.50799 -1.097616,1.01106 -1.212018,1.11795 l -0.208005,0.19433 0.243379,0.25403 0.24338,0.25404 0.387959,-0.3583 c 0.213377,-0.19707 0.740383,-0.67947 1.171125,-1.072 z m -2.067112,-1.46456 c 0.613037,-0.56958 1.127127,-1.06432 1.142423,-1.09943 0.0153,-0.0351 -0.05606,-0.18163 -0.158575,-0.32559 l -0.186386,-0.26176 -0.264758,0.24377 c -0.751576,0.692 -0.834495,0.68328 -1.656206,-0.17418 -0.36449,-0.38035 -0.855465,-0.9011 -1.091055,-1.15721 -0.400096,-0.43496 -0.437753,-0.4564 -0.571018,-0.32505 -0.133507,0.13159 -0.104963,0.18599 0.44423,0.84667 0.868083,1.0443 1.189699,1.53333 1.380054,2.09838 0.150705,0.44737 0.213503,0.76851 0.149736,0.76575 -0.01164,-5.1e-4 -0.208423,-0.0577 -0.437293,-0.12715 -0.228869,-0.0694 -0.435815,-0.10655 -0.459879,-0.0825 -0.0401,0.0401 0.485576,0.63389 0.561169,0.63389 0.01812,0 0.534521,-0.46602 1.147558,-1.0356 z m -2.555709,-0.79733 c -0.138825,-0.27247 -0.450261,-0.71571 -0.692081,-0.98497 -0.359026,-0.39976 -0.461945,-0.47107 -0.5611,-0.38878 -0.06679,0.0554 -0.110268,0.14684 -0.09663,0.20315 0.032,0.13211 1.520219,1.748 1.566899,1.70132 0.01943,-0.0194 -0.07827,-0.25825 -0.217088,-0.53072 z m 1.558008,-2.77963 c -0.460151,-0.51414 -0.597348,-0.6221 -0.691378,-0.54407 -0.191243,0.15872 -0.14024,0.25944 0.441443,0.87176 0.507055,0.53375 0.565764,0.57197 0.68914,0.4486 0.123375,-0.12338 0.08596,-0.18951 -0.439205,-0.77629 z m -2.922474,-0.85191 c 0.09111,-0.10979 0.06357,-0.1766 -0.17374,-0.42144 -0.21607,-0.22293 -0.308263,-0.26919 -0.394246,-0.19783 -0.164163,0.13624 -0.139352,0.24649 0.11528,0.51227 0.262707,0.27421 0.305533,0.28433 0.452706,0.107 z m -14.585969,-3.02552 c 0.639883,-0.43192 1.387636,-0.9558 1.661674,-1.16416 1.172882,-0.89181 1.519172,-1.16382 2.961479,-2.32619 0.693378,-0.5588 1.404878,-1.1303 1.581111,-1.27 2.696194,-2.13727 6.101654,-5.37763 8.708754,-8.28654 1.540245,-1.71856 3.223,-3.72002 3.39999,-4.04393 0.06003,-0.10986 -0.245599,-0.46916 -1.479142,-1.73886 -0.855144,-0.88021 -1.70725,-1.70603 -1.893568,-1.83515 -0.218346,-0.15131 -1.854332,-0.74555 -4.602485,-1.67176 -2.345048,-0.79036 -4.530424,-1.52705 -4.85639,-1.6371 -0.325967,-0.11005 -0.726017,-0.24028 -0.889,-0.28941 -0.331094,-0.0998 -1.400991,-0.46941 -1.629834,-0.56306 -0.11612,-0.0475 -0.148601,-0.0175 -0.150176,0.13892 -0.006,0.59194 -0.951591,2.06259 -2.165434,3.36771 -1.337437,1.43801 -4.890193,4.55429 -5.674483,4.97734 -0.390738,0.21077 -0.558876,0.31037 -0.963407,0.57073 -0.433851,0.27924 -1.017014,0.4765 -1.266575,0.42844 -0.09306,-0.0179 -0.18906,-4.2e-4 -0.213336,0.0388 -0.02428,0.0393 0.10836,0.71322 0.294746,1.49763 0.186387,0.78442 0.509939,2.15011 0.719006,3.03488 0.209067,0.88477 0.547312,2.31352 0.751658,3.175 0.204345,0.86148 0.509619,2.14877 0.678387,2.86064 0.177658,0.74937 0.415704,1.50995 0.565391,1.80648 0.17732,0.35127 0.715817,1.01325 1.714132,2.1072 0.800575,0.87726 1.484502,1.59788 1.519836,1.60135 0.03533,0.003 0.587784,-0.34706 1.227666,-0.77899 z m -6.406577,-16.5329 c 0.572763,-0.29024 1.418767,-0.87592 2.04432,-1.41526 2.65636,-2.29028 4.687389,-4.25348 5.425657,-5.24446 0.46172,-0.61977 0.688325,-0.99023 0.636049,-1.03981 -0.128813,-0.1222 -2.117139,1.29479 -3.84927,2.7432 -0.976551,0.81659 -2.757394,2.6045 -3.736592,3.75142 -0.699074,0.81881 -1.119607,1.42046 -0.992858,1.42046 0.02603,0 0.23874,-0.097 0.472694,-0.21555 z m -1.116702,-0.35595 c 0.3443,-0.71115 0.942376,-1.46256 2.161333,-2.71546 1.538193,-1.58103 2.819009,-2.72423 4.676732,-4.17423 0.651834,-0.50878 1.980062,-1.25947 2.228416,-1.25947 0.055,0 0.085,-0.045 0.06667,-0.1 -0.03097,-0.0929 -0.408068,-0.23869 -2.393785,-0.92534 -1.056999,-0.36549 -1.138798,-0.41634 -1.753765,-1.09014 l -0.54456,-0.59666 -0.430325,0.66068 c -0.729703,1.12032 -1.855509,2.23593 -4.12935,4.09195 -0.607111,0.49555 -1.649878,1.17614 -1.803703,1.17724 -0.03243,2.6e-4 -0.167972,0.0876 -0.301205,0.19427 l -0.242242,0.19384 0.644409,0.70189 c 0.354424,0.38604 0.644408,0.75605 0.644408,0.82225 0,0.0662 0.166416,0.75831 0.369812,1.53802 0.203397,0.7797 0.394622,1.52242 0.424946,1.65048 0.07765,0.32789 0.158906,0.29189 0.382207,-0.16934 z m -2.521841,-5.57968 c 0.343865,-0.17006 0.944619,-0.51985 1.335009,-0.77733 0.726322,-0.47903 2.575326,-2.09913 3.380133,-2.96166 0.475319,-0.50941 1.256828,-1.57175 1.484376,-2.01777 0.161902,-0.31735 0.277975,-0.96223 0.172679,-0.95937 -0.04088,10e-4 -0.243856,0.25074 -0.451065,0.55475 -0.414185,0.60766 -2.056197,2.38566 -3.052256,3.30503 -1.325134,1.2231 -3.144114,2.58894 -3.8735,2.90854 -0.104775,0.0459 -0.1905,0.12251 -0.1905,0.17023 0,0.18448 0.596993,0.0734 1.195124,-0.22242 z m -1.456799,-0.64813 c 0.306905,-0.19262 0.710408,-0.45746 0.896675,-0.58853 0.186267,-0.13106 0.472509,-0.32694 0.636092,-0.43528 2.042868,-1.353 5.840908,-5.43241 5.840908,-6.27362 0,-0.13179 -2.346406,-2.75192 -2.464421,-2.75192 -0.03268,0 -0.174043,0.20002 -0.314143,0.4445 -0.755261,1.31792 -3.756101,4.36724 -5.603306,5.69383 -0.83402,0.59896 -1.794466,1.21789 -2.144009,1.38165 l -0.408213,0.19124 0.323546,0.3714 c 0.177951,0.20427 0.742307,0.82667 1.254127,1.38312 1.07822,1.17223 1.055542,1.16556 1.982744,0.58361 z m -3.313268,-3.42382 c 0.431964,-0.22139 0.961641,-0.53588 1.177059,-0.69887 0.332641,-0.25167 0.409137,-0.36651 0.507565,-0.762 0.213778,-0.85896 0.726698,-1.79275 1.344417,-2.44757 0.619938,-0.65717 1.11402,-0.94099 1.996402,-1.14684 0.615053,-0.14348 0.536405,-0.13092 0.819732,-0.13092 0.20049,0 0.326719,-0.11736 0.796786,-0.74083 0.307204,-0.40746 0.64335,-0.90536 0.746988,-1.10643 l 0.188435,-0.3656 -0.328226,-0.35407 c -0.828869,-0.89413 -1.175664,-1.24307 -1.235436,-1.24307 -0.03557,0 -0.138832,0.14288 -0.229473,0.3175 -0.402085,0.77464 -1.790278,2.33456 -3.450557,3.87741 -1.721164,1.59943 -3.064414,2.62643 -4.162206,3.18227 l -0.619791,0.31381 0.323334,0.36667 c 0.553625,0.62783 1.239533,1.34032 1.290681,1.34071 0.0269,1.7e-4 0.402325,-0.18078 0.83429,-0.40217 z m 4.338177,-3.3671 c 0.439865,-0.44171 0.773019,-0.8031 0.740341,-0.8031 -0.19906,0 -1.013606,0.4537 -1.347417,0.75051 -0.326213,0.29005 -0.918158,1.1461 -0.918158,1.3278 0,0.12228 0.797776,-0.54472 1.525234,-1.27521 z m -6.468093,0.87964 c 0.851045,-0.44551 1.371439,-0.81717 2.727721,-1.94809 1.132333,-0.94419 3.545777,-3.42077 3.953617,-4.05704 0.436163,-0.68046 0.657505,-1.09918 0.607481,-1.1492 -0.119036,-0.11904 -1.977839,1.06233 -3.317168,2.10823 -1.522904,1.18927 -4.203017,4.08823 -4.73365,5.12019 -0.192537,0.37444 -0.07254,0.36278 0.761999,-0.0741 z"
         id="path246" /></g></g></svg>
