<?xml version="1.0" encoding="UTF-8" standalone="no"?>
<svg
   viewBox="0 0 472.44095 332.59843"
   version="1.1"
   id="svg86"
   sodipodi:docname="volleyball.svg"
   width="125mm"
   height="88mm"
   inkscape:version="1.2.2 (732a01da63, 2022-12-09)"
   xmlns:inkscape="http://www.inkscape.org/namespaces/inkscape"
   xmlns:sodipodi="http://sodipodi.sourceforge.net/DTD/sodipodi-0.dtd"
   xmlns:xlink="http://www.w3.org/1999/xlink"
   xmlns="http://www.w3.org/2000/svg"
   xmlns:svg="http://www.w3.org/2000/svg">
  <sodipodi:namedview
     id="namedview88"
     pagecolor="#505050"
     bordercolor="#eeeeee"
     borderopacity="1"
     inkscape:showpageshadow="0"
     inkscape:pageopacity="0"
     inkscape:pagecheckerboard="0"
     inkscape:deskcolor="#505050"
     showgrid="false"
     inkscape:zoom="1.1080363"
     inkscape:cx="184.10949"
     inkscape:cy="260.37052"
     inkscape:current-layer="svg86"
     inkscape:document-units="mm" />
  <defs
     id="defs54">
    <filter
       id="l"
       x="-0.0079184074"
       y="-0.024767411"
       width="1.0158368"
       height="1.0495348">
      <feGaussianBlur
         stdDeviation=".7869"
         id="feGaussianBlur2" />
    </filter>
    <linearGradient
       id="a">
      <stop
         stop-color="#073884"
         offset="0"
         id="stop5" />
      <stop
         stop-color="#162d50"
         offset="1"
         id="stop7" />
    </linearGradient>
    <linearGradient
       id="k"
       x1="183.31"
       x2="182.41"
       y1="35.862999"
       y2="47.733002"
       gradientUnits="userSpaceOnUse"
       gradientTransform="matrix(0.95398417,0,0,0.95398417,0.33435012,43.284881)">
      <stop
         stop-color="#ac9d93"
         offset="0"
         id="stop10" />
      <stop
         stop-color="#f4e3d7"
         offset="1"
         id="stop12" />
    </linearGradient>
    <linearGradient
       id="j"
       x1="212.89"
       x2="209.53"
       y1="47.186001"
       y2="74.013"
       gradientUnits="userSpaceOnUse"
       gradientTransform="matrix(0.95398417,0,0,0.95398417,0.33435012,43.284881)">
      <stop
         stop-color="#f1f2f3"
         offset="0"
         id="stop15" />
      <stop
         stop-color="#b3b3b3"
         offset="1"
         id="stop17" />
    </linearGradient>
    <linearGradient
       id="i"
       x1="444.39999"
       x2="447.54999"
       y1="241.31"
       y2="92.974998"
       gradientUnits="userSpaceOnUse"
       gradientTransform="matrix(0.95398417,0,0,0.95398417,0.33435012,43.284881)">
      <stop
         stop-color="#1a1a1a"
         offset="0"
         id="stop20" />
      <stop
         stop-color="#999"
         offset="1"
         id="stop22" />
    </linearGradient>
    <linearGradient
       id="g"
       x1="454.39999"
       x2="454.70999"
       y1="3.6063001"
       y2="85.848999"
       gradientTransform="matrix(0.98408,-0.17775,0.17775,0.98408,-329.13,90.046)"
       gradientUnits="userSpaceOnUse">
      <stop
         stop-color="#dbd020"
         offset="0"
         id="stop25" />
      <stop
         stop-color="#ffd42a"
         offset=".5"
         id="stop27" />
      <stop
         stop-color="#dbd020"
         offset="1"
         id="stop29" />
    </linearGradient>
    <linearGradient
       id="e"
       x1="451.17999"
       x2="462.76999"
       y1="254.17999"
       y2="312.23999"
       gradientTransform="matrix(0.98408,-0.17775,0.17775,0.98408,-329.13,90.046)"
       gradientUnits="userSpaceOnUse">
      <stop
         stop-color="#dbd020"
         offset="0"
         id="stop32" />
      <stop
         stop-color="#d4aa00"
         offset="1"
         id="stop34" />
    </linearGradient>
    <linearGradient
       id="h"
       x1="354.07999"
       x2="369.60001"
       y1="71.417"
       y2="255.25"
       gradientTransform="matrix(0.98408,-0.17775,0.17775,0.98408,-329.13,90.046)"
       gradientUnits="userSpaceOnUse"
       xlink:href="#a" />
    <linearGradient
       id="f"
       x1="587.82001"
       x2="565.07001"
       y1="109.04"
       y2="242.88"
       gradientTransform="matrix(0.98408,-0.17775,0.17775,0.98408,-329.13,90.046)"
       gradientUnits="userSpaceOnUse"
       xlink:href="#a" />
    <radialGradient
       id="d"
       cx="-76.886002"
       cy="87.546997"
       r="61.290001"
       gradientTransform="matrix(1.412,0.00183,-0.00179,1.3812,31.832,-33.233)"
       gradientUnits="userSpaceOnUse">
      <stop
         stop-color="#fff"
         offset="0"
         id="stop39" />
      <stop
         stop-color="#ccc"
         offset="1"
         id="stop41" />
    </radialGradient>
    <radialGradient
       id="c"
       cx="42.778999"
       cy="108.52"
       r="145.16"
       gradientTransform="matrix(0.38287,-0.02033,0.02178,0.41009,55.13,53.161)"
       gradientUnits="userSpaceOnUse">
      <stop
         stop-color="#fff"
         stop-opacity=".7"
         offset="0"
         id="stop44" />
      <stop
         stop-color="#fff"
         stop-opacity="0"
         offset="1"
         id="stop46" />
    </radialGradient>
    <radialGradient
       id="b"
       cx="150.14999"
       cy="194.52"
       r="82.258003"
       gradientTransform="matrix(1.0098,-0.30386,0.08951,0.29745,-17.192,151.14)"
       gradientUnits="userSpaceOnUse">
      <stop
         stop-color="#4d4d4d"
         offset="0"
         id="stop49" />
      <stop
         offset="1"
         id="stop51" />
    </radialGradient>
  </defs>
  <path
     d="m 19.602922,93.339476 -0.196539,29.949384 -12.140403,0.24189 0.030241,1.45139 12.094612,-0.24189 -0.241893,35.33175 -11.8828267,0.22679 0.030241,1.45139 11.8532537,-0.22677 -0.226771,33.38086 -11.6557796,0.22677 0.030241,1.45139 11.6109416,-0.22677 -0.19654,30.47884 -11.4449482,0.22678 0.030241,1.45139 11.3991572,-0.22678 -0.09071,13.59141 h 1.451392 l 0.09071,-13.62194 34.892925,-0.66521 -0.317486,15.26947 1.451392,0.0302 0.317486,-15.32957 1.345499,-0.0302 36.26857,9.38854 -0.19654,9.32805 1.451392,0.0302 0.181419,-8.98033 0.4082,0.10582 0.120946,0.0302 0.105826,-0.0151 37.720529,-2.73641 -0.31748,15.43546 1.45139,0.0302 0.31749,-15.57189 1.2397,-0.0907 30.0858,8.96516 -0.19654,9.57037 1.45139,0.0302 0.18142,-9.16168 1.54211,0.45355 0.13607,0.0302 0.13606,-0.0151 36.04247,-2.99341 -0.30237,15.04242 1.45139,0.0302 0.31749,-15.1941 0.51402,-0.0453 34.68114,9.69057 -0.19654,9.87183 1.45139,0.0302 0.19654,-9.49433 0.34773,0.0907 0.12095,0.0302 0.13605,-0.0151 33.83496,-2.55496 -0.28725,14.33266 1.45139,0.0302 0.30237,-14.46813 1.61767,-0.12094 29.70802,8.51163 -0.18141,8.95009 1.45139,0.0302 0.18143,-8.57212 1.40598,0.4082 0.10583,0.0302 h 0.12095 l 30.34242,-1.05826 -0.22677,11.09674 1.45139,0.0302 0.22677,-11.18738 1.79912,-0.0605 28.60426,6.65204 -0.15118,7.46845 1.45139,0.0302 0.15119,-7.16613 1.43622,0.33259 0.12095,0.0151 0.12095,-0.0151 26.9863,-3.22017 -0.27212,12.92649 1.45139,0.0302 0.27212,-13.12301 0.86176,-0.10583 26.13916,7.99764 -0.18142,8.58719 1.45139,0.0302 0.1663,-8.17908 2.04096,0.61985 0.0756,0.0151 0.0605,0.0151 26.07907,2.44916 0.13607,-1.45139 -26.0037,-2.44916 -2.35844,-0.72568 0.61985,-30.206 1.39091,0.42331 0.0755,0.0151 0.0605,0.0151 26.07907,2.44916 0.13607,-1.45139 -26.0037,-2.44916 -1.7084,-0.52915 0.68033,-33.09371 0.68032,0.21166 0.0756,0.0151 0.0605,0.0151 26.07906,2.44917 0.13607,-1.45139 -26.0037,-2.44917 -0.99777,-0.30236 0.72568,-35.02935 0.0605,0.0151 26.07906,2.44916 0.13607,-1.45139 -26.0037,-2.44917 -0.24189,-0.0755 0.71056,-34.93872 -1.45139,-0.0302 -0.71057,34.53041 -26.9863,-8.25463 0.60474,-29.6317 -1.45139,-0.0302 -0.60474,29.35981 -28.66436,3.41679 0.72568,-35.64943 -1.45139,-0.0302 -0.72569,35.52828 -30.40347,-7.06015 0.65009,-31.34029 -1.45139,-0.0302 -0.65009,31.37082 -31.97564,1.11873 0.69544,-34.39399 -1.45139,-0.0302 -0.69544,34.15264 -31.32503,-8.99541 0.5745,-28.02901 -1.45139,-0.0302 -0.5745,28.05954 -34.45505,2.60037 0.68033,-33.04887 -1.45139,-0.0302 -0.68033,33.18433 h -0.0453 l -35.1505,-9.81173 0.55938,-27.69701 -1.4514,-0.0302 -0.55937,27.31925 h -0.0303 l -0.12094,0.0151 -37.72054,3.12954 0.69545,-33.81969 -1.45139,-0.0302 -0.68034,33.54781 -31.32502,-9.32806 0.55938,-27.0922 -1.45139,-0.0302 -0.55938,26.94051 -38.354935,2.79689 0.695445,-33.578332 -1.451392,-0.03023 -0.695445,33.713802 h -0.07555 l -37.524014,-9.7211 0.559378,-27.348818 -1.451391,-0.03023 -0.559407,27.228618 -36.329625,0.71056 0.19654,-29.934111 h -1.451392 z m 37.553587,30.675364 -0.725677,35.33175 -35.830691,0.69545 0.241892,-35.31649 36.314362,-0.71057 z m 1.451392,0.18142 37.342756,9.6753 0.120946,0.0302 0.105825,-0.0151 h 0.03024 l -0.710566,35.1505 -37.357066,-9.69057 -0.105825,-0.0302 H 57.883023 L 58.6087,124.19642 Z m 77.406279,6.80324 -0.72568,35.34702 -38.354934,2.79689 0.725686,-35.36228 38.354938,-2.78182 z m 1.45139,0.21166 31.30976,9.34313 -0.71057,35.02934 -31.20387,-9.29781 -0.12094,-0.0453 0.72567,-35.02934 z m 70.48226,6.45551 0.15118,0.0453 -0.72568,35.31649 -37.44865,3.11438 -0.42331,-0.12095 0.72568,-35.22586 37.72054,-3.12945 z m 1.58743,0.43844 34.89292,9.75162 0.12095,0.0302 0.13605,-0.0151 h 0.0605 l -0.72569,35.11997 -35.19534,-9.82699 0.71057,-35.05987 z m 71.11665,7.06024 -0.72568,35.3766 -34.45505,2.5852 0.72569,-35.3766 z m 1.45139,0.0605 31.32503,8.98033 -0.72568,35.05987 -30.79651,-8.8442 -0.12095,-0.0302 -0.12095,0.0151 -0.28725,0.0151 0.72568,-35.19534 z m 64.75168,8.08835 -0.72569,35.33176 -31.67322,1.11874 -0.30237,-0.0907 0.72568,-35.24113 31.97564,-1.11874 z m 1.45139,0.0302 30.40348,7.06025 -0.72569,35.10471 -29.75286,-6.90914 -0.0907,-0.0151 h -0.0907 l -0.46867,0.0151 0.72569,-35.25639 z m 60.51885,3.77959 -0.72569,35.39186 -28.42205,3.38655 -0.24189,-0.0605 0.72569,-35.30123 28.66436,-3.41679 z m 1.45139,0.34773 26.9863,8.25463 -0.71056,35.02935 -27.00157,-8.25464 0.72569,-35.02934 z m -352.420831,3.29582 37.614642,9.75163 -0.680324,33.15477 -36.647302,-9.49434 -0.105825,-0.0302 h -0.09071 l -0.771038,0.0151 0.680324,-33.39612 z m -1.451391,0.0302 -0.680324,33.39613 -35.347022,0.68032 0.226772,-33.38086 35.800164,-0.69544 z m 80.308292,6.96953 31.32503,9.32805 -0.68033,33.10898 -30.4941,-9.08613 -0.12095,-0.0453 -0.13606,0.0151 -0.5745,0.0453 0.68032,-33.36655 z m -1.45139,0.0453 -0.68032,33.42665 -38.354936,2.79689 0.680334,-33.44191 38.354932,-2.78182 z m 72.084,6.66721 -0.69545,33.44191 -36.72266,3.05389 -1.13391,-0.33259 0.68034,-33.12424 0.18142,0.0605 0.13606,0.0302 0.13606,-0.0151 37.41812,-3.11438 z m 1.45139,0.19654 35.19534,9.82699 -0.68034,33.12423 -35.07418,-9.79646 -0.12094,-0.0302 0.68032,-33.12424 z m 72.80998,7.18121 31.0684,8.90468 -0.68032,33.12423 -30.0858,-8.6326 -0.12095,-0.0302 -0.12094,0.0151 -0.99777,0.0756 0.68032,-33.44192 0.25701,-0.0151 z m -1.70839,0.13606 -0.69545,33.42665 -34.43978,2.60037 0.68032,-33.44191 34.45505,-2.5852 z m 68.09348,8.04295 29.96464,6.96952 -0.68033,33.17003 -29.04214,-6.74276 -0.0907,-0.0151 h -0.0907 l -1.17922,0.0453 0.68032,-33.41139 0.43843,-0.0151 z m -1.88985,0.0605 -0.68032,33.41139 -30.96251,1.08849 -1.01294,-0.28724 0.68032,-33.1395 0.0453,0.0151 0.10582,0.0302 h 0.12095 l 31.7028,-1.11874 z m 61.96986,3.87031 -0.68032,33.47245 -27.71229,3.29582 -0.95246,-0.22678 0.68034,-33.17003 0.0755,0.0151 0.12095,0.0151 0.12095,-0.0151 28.34668,-3.38654 z m 1.45139,0.0453 27.00157,8.25463 -0.68033,33.09371 -26.54747,-8.10342 -0.15118,-0.0453 -0.15119,0.0302 -0.15118,0.0151 0.68033,-33.2454 z m -351.686259,1.58743 36.919187,9.57037 -0.619851,30.26705 -35.996685,-9.32805 -0.105825,-0.0302 h -0.09072 l -1.42115,0.0302 0.619851,-30.49411 0.695445,-0.0151 z m -2.146846,0.0453 -0.619852,30.49411 -34.908188,0.6652 0.19654,-30.47884 35.331757,-0.68032 z m 80.898815,6.90914 30.73546,9.16168 -0.61986,30.23653 -29.84349,-8.90468 -0.12095,-0.0453 -0.13606,0.0151 -1.22463,0.0907 0.61985,-30.50841 0.58962,-0.0453 z m -2.04096,0.15119 -0.61986,30.50841 -37.76537,2.75158 -0.58961,-0.15118 0.619852,-30.32716 38.354928,-2.78182 z m 73.53596,6.60672 35.19534,9.82699 -0.61985,30.23653 -34.42452,-9.61521 -0.13607,-0.0302 -0.12094,0.0151 -0.51403,0.0453 0.61985,-30.47884 z m -1.46646,0.0605 -0.61985,30.53894 -36.07205,2.99341 -1.78395,-0.52914 0.61985,-30.23653 0.89198,0.27212 0.13607,0.0302 0.13606,-0.0151 36.69214,-3.05389 z m 74.98697,7.31725 30.35768,8.69308 -0.61985,30.2518 -29.43518,-8.45116 -0.12094,-0.0302 -0.12095,0.0151 -1.64791,0.12095 0.61985,-30.52368 0.96753,-0.0756 z m -2.43409,0.18142 -0.61985,30.52368 -33.81969,2.55496 -0.61985,-0.16631 0.61985,-30.31189 34.43978,-2.60037 z m 68.81851,7.99763 29.25392,6.80324 -0.61985,30.28232 -28.39247,-6.59165 -0.0907,-0.0151 h -0.0907 l -1.82936,0.0605 0.61985,-30.4941 1.14898,-0.0453 z m -2.60037,0.0907 -0.61985,30.50842 -30.31189,1.05825 -1.66299,-0.48378 0.61985,-30.23653 0.75592,0.21166 0.10583,0.0302 h 0.12095 l 30.99304,-1.0885 z m 63.63361,3.73428 26.78978,8.19415 -0.61985,30.20695 -25.89781,-7.9069 -0.15118,-0.0453 -0.15119,0.0302 -0.80127,0.0907 0.61986,-30.53894 0.21166,-0.0302 z m -1.66299,0.19654 -0.63497,30.5542 -27.04641,3.22018 -1.6025,-0.37796 0.61985,-30.28232 0.78615,0.18142 0.12095,0.0151 0.12094,-0.0151 27.63597,-3.29583 z"
     fill="url(#i)"
     id="path56"
     style="fill:url(#i);stroke-width:0.953984" />
  <path
     d="M 8.2281875,55.721973 462.7444,97.041889 465.17496,135.93105 8.2260887,92.180386 Z"
     fill="url(#j)"
     id="path58"
     style="fill:url(#j);stroke-width:0.953984" />
  <path
     d="M 8.1891696,55.667596 V 69.136898 L 463.73569,112.67101 462.7736,97.037119 8.1906005,55.667596 Z"
     fill="url(#k)"
     id="path60"
     style="fill:url(#k);stroke-width:0.953984" />
  <g
     transform="matrix(0.5497143,0,0,0.5497143,109.1267,47.707838)"
     id="g84">
    <path
       transform="matrix(2.1055,-0.3803,0.37738,2.0893,235.96,-71.528)"
       d="m 5.1312,100.74 c 0,33.849 -27.44,61.29 -61.29,61.29 -33.85,0 -61.29,-27.44 -61.29,-61.29 0,-33.85 27.44,-61.29 61.29,-61.29 33.85,0 61.29,27.44 61.29,61.29 z"
       fill="url(#d)"
       id="path62"
       style="fill:url(#d)" />
    <path
       d="m 48.761,48.38 c 0,0 -54.2,45.627 -40.385,126.81 14.407,84.668 81.011,105.3 81.011,105.3 l -5.4872,-17.549 c 0,0 -38.498,-18.987 -51.196,-90.983 -5.48,-31.071 19.392,-81.886 19.392,-81.886 z"
       fill="url(#h)"
       id="path64"
       style="fill:url(#h)" />
    <path
       d="m 51.767,91.459 c 0,0 59.813,-6.0849 86.803,-10.804 56.235,-9.8325 84.273,-23.573 84.273,-23.573 L 211.518,16.834 c 0,0 -16.258,-8.5621 -25.102,-10.672 -5.4528,-1.3008 -17.274,-3.1962 -22.928,-3.2591 -2.8418,-0.03165 -4.0723,1.3262 -4.0723,1.3262 l -1.4519,-1.623 c 0,0 -22.179,1.0403 -33.022,3.215 -10.886,2.1832 -31.832,9.8052 -31.832,9.8052 l -2.4759,2.3302 -3.3917,0.46779 c 0,0 -15.854,7.9024 -22.988,13.083 -5.6706,4.1174 -15.544,14.155 -15.544,14.155 l -1.4981,3.7468 4.1506,39.806 z"
       fill="url(#g)"
       id="path66"
       style="fill:url(#g)" />
    <path
       d="m 210.77,16.872 c 0,0 67.349,24.901 82.809,105.79 16.123,84.358 -40.84,126.73 -40.84,126.73 l 1.3469,-18.204 c 0,0 28.862,-31.154 15.57,-103.04 -5.7362,-31.025 -46.885,-70.325 -46.885,-70.325 z"
       fill="url(#f)"
       id="path68"
       style="fill:url(#f)" />
    <path
       d="m 82.789,263.21 c 0,0 59.051,-10.304 85.986,-15.325 56.121,-10.462 85.417,-17.239 85.417,-17.239 l -0.79545,18.049 c 0,0 -12.235,13.709 -19.783,18.779 -4.6532,3.1262 -15.064,9.0373 -20.339,11.074 -2.6512,1.0238 -4.2789,0.18228 -4.2789,0.18228 l -0.79235,2.0284 c 0,0 -20.574,9.2259 -31.527,11.493 -10.872,2.2501 -33.251,1.9504 -33.251,1.9504 l -3.1347,-1.3167 -3.341,0.74831 c 0,0 -17.617,-1.8568 -26.113,-4.2138 -6.7527,-1.8734 -19.514,-7.8226 -19.514,-7.8226 l -2.7142,-2.9859 -4.8825,-10.204 z"
       fill="url(#e)"
       id="path70"
       style="fill:url(#e)" />
    <path
       transform="matrix(0.98408,-0.17775,0.17775,0.98408,-24.081,29.211)"
       d="m 146.56,120.3 c -38.157,0.0878 -113.81,7.2812 -113.81,7.2812 l 0.28125,2.9688 c 0,0 75.743,-7.163 113.53,-7.25 40.74,-0.0938 122.44,7.25 122.44,7.25 l 0.25,-3 c 0,0 -81.58,-7.3446 -122.69,-7.25 z m -115.53,66 -0.28125,2.9688 c 0,0 75.655,7.1934 113.81,7.2812 41.108,0.0946 122.69,-7.25 122.69,-7.25 l -0.25,-3 c 0,0 -81.698,7.3438 -122.44,7.25 -37.789,-0.087 -113.53,-7.25 -113.53,-7.25 z"
       filter="url(#l)"
       opacity="0.1"
       id="path72" />
    <path
       d="m 158.23,2.9046 -0.14821,0.05853 c 0,0 2.4181,7.6265 2.827,11.08 2.3022,19.445 -0.25983,56.59 -0.68126,62.332 l 3.299,-0.72292 c 0.58257,-7.8847 2.9489,-42.545 0.64454,-62.008 -0.39059,-3.2991 -1.8733,-8.3199 -2.5733,-10.554 -1.5009,0.37395 -2.1787,1.1239 -2.1787,1.1239 l -1.1892,-1.3095 z m -65.719,13.268 -1.872,1.7671 -1.3335,0.17735 c 0.18403,2.6522 0.53196,6.3013 1.1526,8.8422 4.5738,18.726 18.509,49.587 22.132,57.481 1.1415,-0.14887 2.2625,-0.27125 3.3853,-0.42095 -2.7281,-5.9488 -17.738,-39.062 -22.322,-57.828 -0.61481,-2.5172 -0.99305,-7.5866 -1.1428,-10.019 z"
       opacity="0.1"
       id="path74" />
    <path
       d="m 199.24,242.05 c -1.0748,0.21051 -2.1736,0.44048 -3.2794,0.65586 4.9231,11.876 10.294,25.868 12.729,35.839 0.0451,0.18467 0.0736,0.43569 0.11665,0.6458 l 0.19901,-0.48053 c 0,0 1.161,0.59287 3.1107,0.1685 -0.0747,-0.38566 -0.14665,-0.75565 -0.23067,-1.1015 -2.4957,-10.218 -7.7714,-23.979 -12.646,-35.727 z m -61.751,11.503 c -0.44834,12.629 -0.54241,27.185 0.6834,37.539 0.08,0.67565 0.21134,1.4198 0.36368,2.189 l 1.767,-0.41438 1.6846,0.71189 c -0.24984,-1.0811 -0.45962,-2.0974 -0.55284,-2.8852 -1.2004,-10.139 -1.0496,-24.974 -0.59373,-37.746 l -3.352,0.60546 z"
       opacity="0.1"
       id="path76" />
    <path
       transform="matrix(0.98408,-0.17775,0.17775,0.98408,-329.13,90.046)"
       d="m 457.56,115.81 c -37.498,0.0863 -110.53,6.9977 -112.53,7.1875 l 0.0625,0.65625 c 2.0571,-0.1941 75.064,-7.0702 112.47,-7.1562 40.369,-0.093 119.36,6.9759 121.38,7.1562 l 0.0625,-0.6875 c -2.0095,-0.18012 -80.988,-7.2494 -121.44,-7.1562 z m -114.47,66.094 -0.0625,0.65625 c 2.0057,0.18984 75.033,7.1012 112.53,7.1875 40.45,0.0931 119.43,-6.9761 121.44,-7.1562 l -0.0625,-0.6875 c -2.0106,0.18035 -81.006,7.2492 -121.38,7.1562 -37.404,-0.0861 -110.41,-6.9622 -112.47,-7.1562 z"
       opacity="0.3"
       id="path78" />
    <path
       d="m 157.97,2.5938 c 0,0 -22.188,1.044 -33.031,3.2188 -10.886,2.1832 -31.844,9.8125 -31.844,9.8125 l -0.59375,0.5625 -1.8438,1.75 -1.3438,0.1875 c 6.7e-4,0.0097 -6.8e-4,0.02153 0,0.03125 l -2.0625,0.28125 c 0,0 -15.866,7.8822 -23,13.062 -5.6706,4.1174 -15.531,14.156 -15.531,14.156 l -1.5,3.75 0.03125,0.34375 c -8.3784,7.8239 -51.366,52.032 -38.875,125.44 14.407,84.668 81,105.31 81,105.31 l -0.5,-1.625 2.4375,2.7188 c 0,0 12.779,5.9391 19.531,7.8125 8.4959,2.357 26.094,4.2188 26.094,4.2188 l 3.3438,-0.75 3.1562,1.3125 c 0,0 22.378,0.31263 33.25,-1.9375 10.953,-2.2669 31.531,-11.5 31.531,-11.5 l 0.59375,-1.5625 c 0.2247,-0.0992 0.46353,-0.18092 0.6875,-0.28125 0.41197,0.10869 1.0731,0.19196 1.9375,0.0937 0.21834,-0.0244 0.44378,-0.072 0.6875,-0.125 0.36376,-0.0793 0.73959,-0.18284 1.1562,-0.34375 5.2743,-2.0368 15.691,-7.9363 20.344,-11.062 6.9511,-4.67 17.442,-16.228 19.125,-18.094 0,0 56.936,-42.36 40.812,-126.72 -14.454,-75.622 -74.21,-102.31 -81.938,-105.47 l -0.0937,-0.34375 c 0,0 -16.281,-8.5777 -25.125,-10.688 -5.4528,-1.3008 -17.253,-3.187 -22.906,-3.25 -0.73872,-0.00823 -1.3786,0.0562 -1.9062,0.1875 -0.14426,0.03594 -0.24582,0.08311 -0.375,0.125 -0.15295,0.04857 -0.30505,0.10238 -0.4375,0.15625 l -0.15625,0.0625 -0.25,0.125 c -0.45111,0.23554 -0.72148,0.44854 -0.84375,0.5625 l -0.0937,0.09375 -1.1875,-1.3125 -0.28125,-0.3125 z"
       fill="url(#c)"
       id="path80"
       style="fill:url(#c)" />
    <path
       d="m 218.46875,124.125 c -0.4191,0.0335 -0.81924,0.16911 -1.21875,0.40625 -0.76573,0.4546 -1.1985,1.14811 -1.3125,2.09375 -0.11763,1.01539 0.0438,1.87798 0.46875,2.59375 0.34587,0.58264 0.7376,0.91665 1.21875,0.96875 0.47127,0.0354 0.95477,-0.0884 1.4375,-0.375 0.78238,-0.46444 1.25382,-1.18296 1.4375,-2.125 0.17381,-0.95865 0.0254,-1.85516 -0.46875,-2.6875 -0.32611,-0.5493 -0.6969,-0.8365 -1.125,-0.875 -0.14187,-0.0114 -0.2978,-0.0112 -0.4375,0 z m 10.625,1.65625 c -0.16502,0.007 -0.36881,0.0455 -0.59375,0.0937 -0.6105,0.13617 -1.16023,0.38934 -1.6875,0.75 -1.1504,0.78697 -1.94347,1.99291 -2.375,3.625 -0.35498,1.2983 -0.64429,2.79991 -0.84375,4.53125 -0.1742,1.59682 -0.30277,2.57749 -0.40625,2.90625 -0.10471,0.33551 -0.1352,0.56726 -0.0937,0.75 -0.0409,0.161 -0.0842,0.31712 -0.125,0.5 -0.24404,1.06791 -0.47315,1.64131 -0.65625,1.75 -0.14982,0.0889 -0.2663,0.0581 -0.375,-0.125 -0.23717,-0.39951 -0.45872,-1.50744 -0.65625,-3.28125 -0.20688,-1.90331 -0.45195,-3.08179 -0.71875,-3.53125 -0.22729,-0.38285 -0.94119,-0.78794 -2.1875,-1.21875 -0.28504,-0.1009 -0.50643,-0.0889 -0.65625,0 -0.0832,0.0494 -0.30723,0.27293 -0.6875,0.65625 -0.28347,0.2809 -0.49171,1.01878 -0.59375,2.25 -0.0849,1.1085 -0.15055,2.21391 -0.21875,3.3125 -0.26804,1.93763 -0.45684,3.20076 -0.5625,3.78125 -0.004,0.15723 0.0306,0.27257 0.0937,0.375 -0.077,0.14341 -0.15554,0.28512 -0.25,0.40625 -0.23493,-0.44513 -0.58599,-0.87605 -1.0625,-1.28125 -0.79419,-0.67531 -1.2331,-1.02625 -1.3125,-1.09375 -0.5759,-0.5935 -0.93601,-1.01029 -1.0625,-1.25 -0.12649,-0.23971 -0.12015,-0.52477 -0.0312,-0.8125 0.089,-0.28773 0.41409,-0.49088 1,-0.625 0.0946,-0.0281 0.19565,-0.0486 0.28125,-0.0937 0.32528,-0.17166 0.54098,-0.47871 0.6875,-0.90625 0.14652,-0.42754 0.12724,-0.82796 -0.0625,-1.1875 -0.51503,-0.97582 -1.35292,-1.16786 -2.5,-0.5625 -0.65058,0.34337 -1.26993,1.00752 -1.90625,2 -0.63632,0.99248 -1.13206,2.11537 -1.46875,3.34375 -0.76326,3.11676 -1.28603,5.35246 -1.59375,6.71875 -0.0334,0.13381 -0.0696,0.24329 -0.0625,0.34375 -0.0617,0.0913 -0.11803,0.201 -0.1875,0.28125 -0.21186,-0.45656 -0.54484,-0.91472 -1,-1.34375 -0.75862,-0.71502 -1.1741,-1.08465 -1.25,-1.15625 -0.5448,-0.62217 -0.85467,-1.06665 -0.96875,-1.3125 -0.11408,-0.24585 -0.13474,-0.49844 -0.0312,-0.78125 C 203.07239,143.31094 203.408,143.10399 204,143 c 0.0959,-0.0232 0.19345,-0.053 0.28125,-0.0937 0.33364,-0.1548 0.58185,-0.4555 0.75,-0.875 0.16815,-0.4195 0.17111,-0.78748 0,-1.15625 -0.46446,-1.00091 -1.29223,-1.23343 -2.46875,-0.6875 -0.66729,0.30965 -1.34502,0.9476 -2.03125,1.90625 -0.68623,0.95865 -1.22592,2.04045 -1.625,3.25 -0.9212,3.07379 -1.56035,5.27623 -1.9375,6.625 -0.092,0.3023 -0.0668,0.5179 0.0625,0.65625 -0.12233,0.24696 -0.22372,0.47996 -0.375,0.75 -0.45427,0.80249 -0.78308,1.21 -0.9375,1.1875 -0.15442,-0.0225 -0.28591,-0.19369 -0.40625,-0.5 -0.18411,-0.46845 -0.2234,-1.09799 -0.125,-1.90625 0.24695,-2.17695 0.42385,-3.83452 0.53125,-4.9375 0.10292,-0.95559 0.072,-1.59515 -0.0625,-1.9375 -0.19116,-0.48645 -0.62072,-0.88738 -1.3125,-1.21875 -0.86746,-0.40789 -1.42755,-0.52908 -1.6875,-0.34375 -0.37192,0.27095 -0.56425,0.78123 -0.59375,1.5 0.007,0.018 -0.0478,0.45022 -0.125,1.3125 -0.7291,-0.10869 -1.57154,0.0169 -2.5625,0.40625 -0.55854,0.21949 -1.05694,0.51555 -1.46875,0.84375 -0.92467,0.71693 -1.64667,1.56156 -2.15625,2.59375 -0.26956,0.58433 -0.50301,1.39401 -0.75,2.40625 -0.49411,1.44212 -0.91698,2.44465 -1.21875,3 -0.18208,0.38355 -0.38271,0.77179 -0.59375,1.1875 -0.19303,0.40863 -0.26125,0.67315 -0.21875,0.78125 0.0205,0.0521 0.0425,0.0779 0.0625,0.125 l -0.0312,0.0625 c -0.45615,0.90444 -0.80489,1.44773 -1.0625,1.59375 -0.32512,0.18866 -0.5281,0.13794 -0.625,-0.15625 -0.0666,-0.20224 -0.0951,-0.60604 -0.0625,-1.1875 0.58464,-4.41173 1.16672,-8.51344 1.71875,-12.34375 0.0692,-0.53233 0.0597,-0.94294 -0.0312,-1.21875 -0.0606,-0.18384 -0.25844,-0.47591 -0.59375,-0.875 -0.2438,-0.30691 -0.60487,-0.59716 -1.09375,-0.84375 -0.48888,-0.24659 -0.90661,-0.38675 -1.21875,-0.40625 -0.33659,-0.0317 -0.79365,1.79108 -1.40625,5.4375 -0.15612,0.88712 -0.56767,2.42334 -1.1875,4.625 -0.6075,2.17724 -1.06615,3.67401 -1.375,4.46875 -0.70963,1.6198 -1.19785,2.74552 -1.5,3.375 -0.0125,0.0857 -0.005,0.17094 0.0312,0.28125 0.0485,0.1471 0.1348,0.30232 0.28125,0.4375 0.15878,0.11071 0.2831,0.1553 0.375,0.125 0.49644,-0.16355 1.25916,-1.98226 2.28125,-5.4375 -0.88318,4.00056 -1.11857,6.59901 -0.71875,7.8125 0.0727,0.22064 0.16529,0.39554 0.28125,0.5 0.66497,0.65733 1.41709,0.84722 2.28125,0.5625 0.84577,-0.27866 1.74629,-0.98952 2.65625,-2.125 0.42415,-0.50663 0.99115,-1.52783 1.71875,-3.03125 0.17584,-0.39424 0.3539,-0.76661 0.53125,-1.15625 -0.0612,0.82378 0.0297,1.54739 0.28125,2.1875 0.25488,0.64864 0.65474,1.09926 1.25,1.34375 0.59526,0.24449 1.2396,0.2307 1.90625,-0.0312 0.66665,-0.2619 1.26328,-0.70343 1.78125,-1.34375 0.51797,-0.64032 1.10501,-1.56921 1.78125,-2.8125 0.0373,0.35972 0.11255,0.66725 0.21875,0.9375 0.2124,0.54053 0.5647,0.87134 1.03125,1 0.47748,0.10357 0.92455,0.052 1.375,-0.125 0.57654,-0.22654 1.09857,-0.63092 1.5625,-1.25 0.25737,-0.35073 0.72772,-1.13263 1.375,-2.34375 0.65821,-1.23619 1.09697,-2.15566 1.3125,-2.71875 0.14605,-0.36937 0.26404,-0.70499 0.40625,-1.03125 0.13512,-0.34427 0.1887,-0.58783 0.125,-0.75 -0.0283,-0.0719 -0.10552,-0.1477 -0.1875,-0.21875 0.15401,-0.5147 0.30244,-0.96793 0.78125,-2.625 0.51018,-1.75196 0.94178,-2.90266 1.3125,-3.4375 0.0864,0.60015 0.36988,1.3998 0.84375,2.375 0.54847,1.09 0.88409,1.86401 1,2.34375 -0.97016,0.3008 -1.63511,0.53269 -1.96875,0.6875 -0.57948,0.2689 -1.09155,0.66336 -1.53125,1.1875 -0.53002,0.65144 -0.56367,1.40325 -0.15625,2.28125 0.24446,0.52681 0.61328,0.98673 1.15625,1.375 0.8734,0.64044 2.14429,0.5866 3.8125,-0.1875 0.73751,-0.34223 1.36,-0.86393 1.875,-1.59375 0.75898,-1.0778 1.0745,-2.40049 0.9375,-3.9375 0.79525,-0.53975 1.3196,-1.25393 1.5625,-2.15625 0.14495,-0.51543 0.1983,-0.8732 0.125,-1.03125 -0.0486,-0.10469 -0.12064,-0.16048 -0.1875,-0.21875 0.14357,-0.59744 0.20635,-0.80033 0.53125,-2.1875 0.41995,-1.77575 0.7821,-2.94692 1.125,-3.5 0.11698,0.59494 0.44564,1.3628 0.96875,2.3125 0.60347,1.06053 0.98471,1.83932 1.125,2.3125 -0.95352,0.35001 -1.61221,0.60959 -1.9375,0.78125 -0.56497,0.29818 -1.05642,0.70407 -1.46875,1.25 -0.49606,0.67769 -0.51428,1.45648 -0.0625,2.3125 0.27106,0.51362 0.68789,0.95249 1.25,1.3125 0.905,0.59495 2.18605,0.45212 3.8125,-0.40625 0.71906,-0.37949 1.30424,-0.93231 1.78125,-1.6875 0.70285,-1.1152 0.96539,-2.44075 0.75,-3.96875 0.76661,-0.5797 1.24104,-1.33643 1.4375,-2.25 0.1185,-0.52216 0.1438,-0.84591 0.0625,-1 -0.0765,-0.14485 -0.17279,-0.26289 -0.28125,-0.3125 0.16088,-0.92656 0.35418,-1.86857 0.46875,-2.6875 0.21359,2.59725 0.3569,4.14128 0.4375,4.65625 0.13829,0.95349 0.38436,1.75909 0.75,2.375 0.17788,0.29964 0.46881,0.51945 0.90625,0.6875 0.55345,0.21176 1.09436,0.17147 1.59375,-0.125 0.74908,-0.44469 1.5514,-1.76011 2.375,-3.9375 0.51686,-1.35447 0.83264,-2.45275 1,-3.34375 0.0599,0.17376 0.11794,0.34176 0.28125,0.6875 0.18748,0.41121 0.60242,0.80386 1.21875,1.15625 0.74078,0.43145 1.48382,0.6196 2.21875,0.5625 0.57937,-0.0445 1.12898,-0.23306 1.65625,-0.59375 1.72561,-1.18042 2.93864,-3.44457 3.65625,-6.75 0.39708,-1.81962 0.47952,-2.88321 0.25,-3.21875 -0.0656,-0.0959 -0.15763,-0.14725 -0.28125,-0.15625 -0.27413,-0.0236 -0.48192,-0.014 -0.59375,0.0625 -0.0639,0.0437 -0.13562,0.24972 -0.25,0.5625 -0.12529,0.29684 -0.26753,0.94556 -0.4375,2 -0.12454,0.81229 -0.36299,1.62344 -0.71875,2.40625 -0.41381,0.86944 -0.85419,1.45995 -1.3125,1.75 -0.65005,0.42122 -1.2363,0.25096 -1.75,-0.5 -0.48091,-0.70302 -0.81784,-1.91028 -1.03125,-3.59375 -0.32684,-2.63786 -0.12596,-4.20503 0.625,-4.71875 0.20772,-0.14207 0.44462,-0.211 0.71875,-0.1875 -0.35576,0.33716 -0.51155,0.74772 -0.46875,1.1875 0.0252,0.31113 0.11729,0.57285 0.28125,0.8125 0.49184,0.71901 1.10806,0.80589 1.875,0.28125 0.527,-0.36074 0.8211,-0.9625 0.875,-1.84375 0.0396,-0.73071 -0.10807,-1.37897 -0.46875,-1.90625 -0.36068,-0.52728 -0.86866,-0.88248 -1.53125,-1.0625 -0.1051,-0.0337 -0.24123,-0.0386 -0.40625,-0.0312 z m -57.96875,17.5 c -0.67539,-0.0157 -1.43674,0.0867 -2.28125,0.28125 -2.324,0.52415 -4.60283,2.46096 -6.84375,5.84375 -1.36469,-0.32529 -2.57857,-0.36513 -3.65625,-0.125 -1.10128,0.2263 -2.10605,0.83194 -3.03125,1.8125 -0.97654,1.01396 -1.45755,2.00201 -1.40625,2.96875 0.0183,0.45529 0.0852,0.88781 0.1875,1.28125 0.53575,2.06095 2.15131,3.26795 4.8125,3.65625 -0.0102,1.4228 0.12092,2.75093 0.4375,3.96875 0.83286,3.20383 2.59855,4.99291 5.25,5.34375 1.17996,0.15331 2.28203,0.0804 3.3125,-0.1875 1.92978,-0.50166 3.48945,-1.72465 4.6875,-3.65625 0.76332,-1.21853 1.27467,-2.48879 1.5625,-3.84375 0.2698,-1.27026 0.32873,-2.1754 0.1875,-2.71875 -0.14613,-0.56206 -0.29392,-0.8036 -0.5,-0.75 -0.52463,0.13638 -0.85932,0.37028 -0.96875,0.71875 -0.53861,3.1603 -1.80778,4.97886 -3.8125,5.5 -0.31852,0.0828 -0.66965,0.131 -1.03125,0.125 -1.69971,0.002 -2.84331,-1.12047 -3.4375,-3.40625 -0.10716,-0.41217 -0.1942,-0.86696 -0.25,-1.3125 2.23517,-0.48103 4.2289,-1.33013 5.96875,-2.5625 1.73496,-1.25108 3.02379,-2.71293 3.84375,-4.40625 0.96757,-1.97167 1.22932,-3.83878 0.78125,-5.5625 -0.50411,-1.93913 -1.78632,-2.92165 -3.8125,-2.96875 z m -0.6875,1.96875 c 0.50726,0.0182 0.99944,0.27196 1.46875,0.75 0.0854,0.0978 0.1437,0.23765 0.1875,0.40625 0.18993,0.73072 0.004,1.83319 -0.53125,3.3125 -0.61386,1.63974 -1.48208,3.10906 -2.625,4.40625 -1.3704,1.57637 -2.93683,2.64366 -4.6875,3.21875 4.3e-4,-1.46023 0.18835,-2.66701 0.53125,-3.65625 0.20086,-0.61226 0.40404,-1.26062 0.65625,-1.90625 0.88167,0.39088 1.47084,0.71006 1.75,0.9375 0.17984,0.15356 0.38765,0.20985 0.59375,0.15625 0.13115,-0.0341 0.23207,-0.1097 0.34375,-0.21875 0.27397,-0.33122 0.26385,-0.61979 -0.0625,-0.875 -0.68459,-0.40208 -1.40647,-0.77985 -2.15625,-1.125 1.42066,-3.22956 2.74469,-5.0174 4,-5.34375 0.1733,-0.0451 0.36216,-0.0685 0.53125,-0.0625 z m 41.625,1.375 c 0.0337,1.14231 -0.21628,1.88933 -0.78125,2.1875 -0.11984,0.0633 -0.2593,0.0819 -0.40625,0.0937 -0.41565,4.8e-4 -0.71236,-0.16057 -0.875,-0.46875 -0.12649,-0.23967 -0.0898,-0.49672 0.0937,-0.8125 0.0999,-0.18404 0.74938,-0.53159 1.96875,-1 z m -21.09375,2.53125 c 0.23456,0.001 0.43506,0.17569 0.5625,0.5 0.26194,0.66666 0.22299,1.81365 -0.125,3.46875 -0.1589,0.70723 -0.40478,1.46106 -0.71875,2.25 -0.43044,1.02192 -0.84039,1.60134 -1.21875,1.75 -0.32432,0.12745 -0.563,-0.01 -0.71875,-0.40625 -0.23364,-0.59456 -0.11689,-1.8113 0.34375,-3.65625 0.60408,-2.37969 1.13853,-3.65258 1.625,-3.84375 0.0901,-0.0354 0.17181,-0.063 0.25,-0.0625 z m -31.25,1.46875 c 0.47055,-0.0173 0.9711,-0.01 1.5,0.0625 -1.27561,2.1718 -2.05446,4.45333 -2.28125,6.8125 -1.95261,-0.43249 -3.07506,-1.28845 -3.40625,-2.5625 -0.1705,-0.65575 -0.12442,-1.29321 0.15625,-1.90625 0.51978,-1.1552 1.41347,-1.88754 2.6875,-2.21875 0.41219,-0.10714 0.8732,-0.17019 1.34375,-0.1875 z m -61.8125,0.0312 c -0.23677,-0.0197 -0.55823,-0.0213 -0.9375,0.0312 -0.29852,0.035 -1.18713,0.35773 -2.71875,0.9375 -0.95484,-0.29502 -2.06726,-0.53806 -3.3125,-0.71875 -2.7013,-0.39189 -5.338,0.11211 -7.90625,1.5 -2.10511,1.16169 -3.44145,2.36802 -4,3.65625 -0.5669,1.34573 -0.88538,2.30027 -0.96875,2.875 -0.15288,1.0537 0.0092,2.06812 0.5,3 0.43079,0.80584 1.05827,1.26103 1.84375,1.375 0.19157,0.0278 0.36963,0.0353 0.53125,0 0.58337,-0.11097 0.91662,-0.4565 1,-1.03125 0.05835,-0.40231 -0.22448,-0.73862 -0.8125,-1 -1.10224,-0.49244 -1.5529,-1.36763 -1.375,-2.59375 0.0389,-0.2682 0.08831,-0.53346 0.1875,-0.8125 0.43249,-1.22828 1.12069,-2.22059 2.03125,-2.96875 1.04494,-0.86556 2.58036,-1.56427 4.59375,-2.09375 1.30391,-0.35852 2.59139,-0.4362 3.875,-0.25 0.55556,0.0806 1.07397,0.21351 1.59375,0.40625 -1.5959,1.15732 -3.24353,2.72406 -5,4.71875 -1.35577,1.5247 -2.91181,3.42054 -4.625,5.65625 -1.44967,1.90229 -2.47365,3.17871 -3.09375,3.8125 -1.00695,1.00802 -2.1124,1.73566 -3.3125,2.1875 -0.64115,0.23954 -1.24483,0.29655 -1.78125,0.21875 -0.68969,-0.10005 -1.12031,-0.39268 -1.34375,-0.875 -0.13629,-0.27407 -0.18959,-0.52009 -0.15625,-0.75 0.0806,-0.55557 0.64997,-1.07204 1.71875,-1.5625 0.58645,-0.26702 0.92559,-0.772 1.03125,-1.5 0.08338,-0.57473 -0.05524,-1.09626 -0.4375,-1.5625 -0.36033,-0.48262 -0.85569,-0.75485 -1.46875,-0.84375 -0.55558,-0.0806 -1.09603,0.006 -1.625,0.28125 -1.31009,0.67063 -2.09292,1.76778 -2.3125,3.28125 -0.15565,1.07285 0.09043,2.16956 0.6875,3.3125 0.38166,0.74001 1.02159,1.40553 1.9375,1.96875 0.84483,0.51382 1.72458,0.83807 2.625,0.96875 1.28358,0.1864 2.35048,0.18701 3.21875,0 1.63517,-0.3496 3.31396,-1.31665 5.03125,-2.90625 0.10699,1.15007 0.71423,2.25334 1.8125,3.3125 0.60103,0.57623 1.37877,0.91796 2.375,1.0625 1.34104,0.19456 2.76649,0.009 4.21875,-0.5625 1.45226,-0.5715 2.50066,-1.40641 3.1875,-2.5 0.95867,-1.48449 1.53805,-2.84848 1.71875,-4.09375 0.10837,-0.74715 0.05424,-1.44178 -0.125,-2.09375 -0.15209,-0.56977 -0.50287,-1.21077 -1.0625,-1.9375 1.19174,-0.39435 2.22299,-0.98366 3.0625,-1.78125 0.6584,-0.62823 1.09222,-1.60349 1.28125,-2.90625 0.12783,-0.88125 0.03892,-1.61741 -0.25,-2.1875 -0.74143,-1.49639 -1.74762,-2.57925 -3,-3.25 0.60837,-0.28337 1.01978,-0.45895 1.25,-0.5625 0.58643,-0.267 0.90408,-0.5201 0.9375,-0.75 0.01664,-0.11493 -0.0212,-0.2192 -0.125,-0.3125 -0.09427,-0.0919 -0.26323,-0.13656 -0.5,-0.15625 z m 104.71875,0.6563 c -0.0247,1.14255 -0.32678,1.8561 -0.90625,2.125 -0.12293,0.057 -0.25887,0.0898 -0.40625,0.0937 -0.41513,-0.0208 -0.69708,-0.18391 -0.84375,-0.5 -0.11411,-0.24584 -0.0745,-0.50652 0.125,-0.8125 0.10916,-0.17869 0.78954,-0.50078 2.03125,-0.90625 z M 142.53125,152 c -0.42183,0.0588 -0.90113,0.79933 -1.4375,2.28125 -0.3182,0.9434 -0.65325,1.91245 -0.96875,2.875 -0.45872,1.19751 -1.08622,2.61565 -1.875,4.25 -0.79146,1.6152 -1.34451,2.67801 -1.71875,3.21875 -1.62903,2.33771 -2.48715,3.58362 -2.53125,3.6875 -0.0759,0.15715 -0.0946,0.29103 -0.0937,0.4375 -0.19197,0.21739 -0.40792,0.41665 -0.65625,0.71875 -0.51694,0.63882 -1.1107,1.22192 -1.8125,1.71875 -0.79559,0.5424 -1.45797,0.82425 -2,0.84375 -0.77374,0.0362 -1.21605,-0.40498 -1.28125,-1.3125 -0.0611,-0.84958 0.24214,-2.0634 0.90625,-3.625 1.04714,-2.44308 2.02999,-3.6848 2.9375,-3.75 0.251,-0.018 0.49385,0.029 0.71875,0.1875 -0.47717,0.11194 -0.81537,0.37982 -1,0.78125 -0.13505,0.28143 -0.17705,0.55413 -0.15625,0.84375 0.0625,0.86886 0.54193,1.28535 1.46875,1.21875 0.63718,-0.0458 1.19679,-0.42226 1.6875,-1.15625 0.40245,-0.61117 0.57705,-1.2378 0.53125,-1.875 -0.0458,-0.6372 -0.29969,-1.19807 -0.78125,-1.6875 -0.14766,-0.16405 -0.43771,-0.32553 -0.875,-0.46875 -0.59592,-0.19002 -1.20657,-0.26455 -1.84375,-0.21875 -1.39023,0.0999 -2.67973,0.74533 -3.875,1.9375 -0.96092,0.94246 -1.9864,2.10514 -3.03125,3.5 -0.95525,1.2914 -1.55744,2.04943 -1.8125,2.28125 -0.34605,0.31601 -0.5153,0.60011 -0.5,0.8125 0.006,0.0869 0.0537,0.16554 0.0937,0.25 -0.23522,0.22221 -0.49487,0.44907 -0.78125,0.6875 -0.71128,0.58687 -1.14509,0.85745 -1.28125,0.78125 -0.13616,-0.0762 -0.1845,-0.29591 -0.1875,-0.625 -0.004,-0.5033 0.18145,-1.09294 0.5625,-1.8125 1.00938,-1.94455 1.75513,-3.41469 2.25,-4.40625 0.43793,-0.85555 0.65925,-1.47594 0.65625,-1.84375 -0.004,-0.52265 -0.28505,-1.06808 -0.8125,-1.625 -0.66415,-0.69121 -1.12845,-0.98635 -1.4375,-0.90625 -0.44425,0.11998 -0.80903,0.49561 -1.09375,1.15625 1.6e-4,0.0194 -0.21323,0.40988 -0.59375,1.1875 -0.64197,-0.36235 -1.46658,-0.509 -2.53125,-0.5 -0.6001,0.005 -1.15427,0.0596 -1.65625,0.21875 -1.11994,0.33871 -2.12363,0.90591 -2.96875,1.6875 -0.46078,0.44922 -0.9697,1.11189 -1.5625,1.96875 -0.97731,1.16993 -1.70703,1.96436 -2.1875,2.375 -0.30723,0.29303 -0.65421,0.59356 -1,0.90625 -0.32642,0.31255 -0.46971,0.50887 -0.46875,0.625 5.4e-4,0.0628 -0.002,0.0995 0,0.15625 -0.23656,0.20888 -0.48299,0.43148 -0.8125,0.75 -0.59245,0.54907 -1.28316,1.0463 -2.0625,1.46875 -0.85774,0.43754 -1.55361,0.64285 -2.09375,0.59375 -0.86876,-0.0671 -1.2176,-0.6297 -1.0625,-1.6875 2.12369,-0.54243 4.02089,-1.63721 5.71875,-3.25 1.22775,-1.17331 1.8865,-2.22843 1.9375,-3.15625 0.034,-0.61852 -0.20729,-1.21026 -0.71875,-1.78125 -0.45669,-0.50974 -1.09443,-0.7679 -1.90625,-0.8125 -1.23708,-0.068 -2.69287,0.45123 -4.34375,1.5625 -1.1668,0.76954 -2.31617,1.75253 -3.46875,2.96875 -1.13325,1.2173 -1.81012,1.88831 -2.03125,2.03125 -0.40146,0.24936 -0.61221,0.48681 -0.625,0.71875 -0.0096,0.17397 0.06176,0.3811 0.1875,0.5625 0.14508,0.18244 0.29479,0.27125 0.46875,0.28125 0.21262,0.0117 0.5948,-0.21256 1.125,-0.6875 -0.32309,0.23428 -0.55456,0.47835 -0.6875,0.78125 -0.04739,0.15245 -0.11513,0.48971 -0.21875,0.96875 -0.10176,0.44033 -0.0242,0.97013 0.25,1.625 0.32476,0.79337 0.80049,1.40911 1.4375,1.8125 0.46835,0.29719 1.01838,0.4649 1.65625,0.5 2.06824,0.1137 4.4113,-0.93065 7.03125,-3.09375 0.42164,-0.35045 0.76381,-0.65357 1.0625,-0.9375 -0.25826,0.6339 -0.38008,1.22249 -0.375,1.8125 0.006,0.69688 0.21909,1.2775 0.6875,1.71875 0.46841,0.44125 1.06501,0.66225 1.78125,0.65625 0.71624,-0.006 1.44348,-0.21236 2.15625,-0.625 0.71277,-0.41264 1.61124,-1.0809 2.6875,-2 -0.0938,0.34927 -0.15925,0.67838 -0.15625,0.96875 0.005,0.58073 0.20411,0.99419 0.59375,1.28125 0.40882,0.26753 0.85979,0.41025 1.34375,0.40625 0.61944,-0.005 1.25155,-0.21286 1.90625,-0.625 0.36581,-0.23544 1.08729,-0.81935 2.125,-1.71875 1.05688,-0.91893 1.78479,-1.58254 2.1875,-2.03125 0.15789,-0.1721 0.31743,-0.31009 0.46875,-0.46875 -0.0421,0.17183 -0.11776,0.43278 -0.15625,0.875 -0.0453,0.44966 0.11402,0.97876 0.46875,1.59375 0.42237,0.74598 0.96145,1.27268 1.625,1.59375 0.52285,0.25354 1.11281,0.3583 1.75,0.3125 2.08533,-0.14988 4.2768,-1.47546 6.5625,-3.96875 1.26,-1.37151 1.87285,-2.25076 1.84375,-2.65625 -0.003,-0.0439 -0.0146,-0.0876 -0.0312,-0.125 0.28967,-0.45138 0.40075,-0.63635 0.875,-1.40625 1.06571,-1.7511 1.75237,-2.96072 2.03125,-3.625 -0.14951,0.47037 -0.89212,2.47305 -2.21875,6 -0.93975,2.51538 -1.34933,3.88909 -1.21875,4.125 0.34537,0.65551 0.74651,0.96765 1.1875,0.90625 0.13422,-0.0187 0.26354,-0.0894 0.40625,-0.1875 0.9111,-0.61549 1.41655,-0.9537 1.46875,-1 0.80505,-0.81571 1.79326,-2.2954 3,-4.4375 1.01935,-1.80327 1.71027,-2.72785 2.09375,-2.78125 0.17255,-0.024 0.30635,0.10658 0.34375,0.375 0.0797,0.57513 -0.0862,1.52006 -0.46875,2.84375 -0.29953,1.0776 -0.41055,1.86441 -0.34375,2.34375 0.0961,0.69025 0.73999,1.26004 1.9375,1.71875 0.082,0.0275 0.1541,0.0446 0.25,0.0312 0.44098,-0.0614 1.10932,-0.45023 1.96875,-1.15625 0.79071,-0.63782 1.48891,-1.32158 2.09375,-2.03125 1.67974,-1.9734 2.51955,-3.05292 2.53125,-3.25 0.0111,-0.0602 0.0947,-0.20522 0.21875,-0.4375 0.12405,-0.23228 0.17485,-0.42829 0.15625,-0.5625 -0.0508,-0.3642 -0.27285,-0.5221 -0.6563,-0.4687 -0.23011,0.032 -0.48013,0.27073 -0.75,0.71875 -0.39659,0.66114 -0.86212,1.29106 -1.40625,1.875 -0.1869,0.20193 -0.46739,0.3269 -0.8125,0.375 -0.40266,0.0561 -0.61355,-0.0682 -0.65625,-0.375 -0.0267,-0.19173 -0.006,-0.41955 0.0937,-0.6875 1.26278,-3.28352 1.9245,-5.15323 2,-5.59375 0.0643,-0.3803 0.1025,-0.71239 0.0625,-1 -0.0588,-0.42181 -0.25404,-0.74976 -0.5625,-1 -0.30846,-0.25024 -0.65986,-0.33725 -1.0625,-0.28125 -1.20795,0.16821 -3.18215,1.41619 -5.90625,3.75 0.28833,-1.0174 0.83784,-2.67355 1.65625,-4.9375 0.56674,-1.54479 0.83995,-2.51566 0.78125,-2.9375 -0.0134,-0.0959 -0.0353,-0.16385 -0.0625,-0.21875 -0.86937,-1.8921 -1.65351,-2.7836 -2.34375,-2.6875 z m -48.46875,1.90625 c 0.30343,0.20054 0.55441,0.40436 0.78125,0.59375 0.7651,0.65873 1.06465,1.53301 0.90625,2.625 -0.03616,0.24907 -0.09671,0.46596 -0.1875,0.6875 -0.75692,1.84633 -1.75168,2.7746 -3,2.75 -0.61864,-0.0506 -1.22794,-0.1177 -1.84375,-0.1875 -0.7858,0.0229 -1.22356,0.35571 -1.3125,0.96875 -0.08619,0.5939 0.11981,0.9222 0.65625,1 0.84262,0.25921 1.28395,0.38705 1.28125,0.40625 0.42641,0.29661 0.6298,0.9289 0.625,1.90625 0.0078,0.21631 -7.4e-4,0.44551 -0.03125,0.65625 -0.13344,0.91958 -0.52167,1.87164 -1.15625,2.875 -0.52464,0.78458 -1.03655,1.35565 -1.5,1.71875 -0.92417,0.70706 -1.74077,1.0119 -2.46875,0.90625 -0.65139,-0.0945 -1.2516,-0.46131 -1.78125,-1.125 -0.2321,-0.28796 -0.31675,-0.66522 -0.25,-1.125 0.12229,-0.84295 0.54423,-1.49932 1.21875,-1.96875 1.08851,-0.76144 2.01461,-1.1618 2.78125,-1.1875 0.6297,-0.026 0.97289,-0.25392 1.03125,-0.65625 0.05836,-0.40233 -0.14104,-0.6263 -0.5625,-0.6875 -0.13412,-0.0192 -0.2908,-0.0133 -0.46875,0 -0.37791,0.043 -0.93143,0.18342 -1.6875,0.40625 0.73067,-1.12634 1.73792,-2.9407 3,-5.4375 0.91848,-1.88153 1.71324,-3.16636 2.4375,-3.84375 0.52121,-0.49164 1.04861,-0.9209 1.53125,-1.28125 z m 12.3125,10.25 c 0.23192,0.0128 0.3295,0.15948 0.3125,0.46875 -0.0383,0.69586 -0.36573,1.36383 -1,1.96875 -1.06358,1.00786 -1.75324,1.48575 -2.0625,1.46875 -0.28995,-0.0159 -0.42015,-0.12372 -0.40625,-0.375 0.0223,-0.40591 0.39297,-0.99362 1.09375,-1.75 1.0162,-1.20433 1.69524,-1.80145 2.0625,-1.78125 z m 11.4375,0.28125 c 0.38714,-0.003 0.58975,0.22292 0.59375,0.6875 0.006,0.71625 -0.45793,1.79769 -1.375,3.21875 -0.40139,0.60358 -0.89333,1.21933 -1.46875,1.84375 -0.76753,0.8003 -1.34349,1.1845 -1.75,1.1875 -0.34845,0.003 -0.52725,-0.19912 -0.53125,-0.625 -0.005,-0.6388 0.53485,-1.72317 1.625,-3.28125 1.4154,-2.0061 2.38358,-3.02725 2.90625,-3.03125 z"
       fill="url(#b)"
       opacity="0.8"
       id="path82"
       style="fill:url(#b)" />
  </g>
</svg>
