<?xml version="1.0" encoding="UTF-8" standalone="no"?>
<svg
   id="svg2"
   version="1.1"
   viewBox="0 0 354.33071 249.44882"
   height="88mm"
   width="125mm"
   sodipodi:docname="waffle.svg"
   inkscape:version="1.2.2 (732a01da63, 2022-12-09)"
   xmlns:inkscape="http://www.inkscape.org/namespaces/inkscape"
   xmlns:sodipodi="http://sodipodi.sourceforge.net/DTD/sodipodi-0.dtd"
   xmlns="http://www.w3.org/2000/svg"
   xmlns:svg="http://www.w3.org/2000/svg"
   xmlns:rdf="http://www.w3.org/1999/02/22-rdf-syntax-ns#"
   xmlns:cc="http://creativecommons.org/ns#"
   xmlns:dc="http://purl.org/dc/elements/1.1/">
  <sodipodi:namedview
     id="namedview41"
     pagecolor="#505050"
     bordercolor="#eeeeee"
     borderopacity="1"
     inkscape:showpageshadow="0"
     inkscape:pageopacity="0"
     inkscape:pagecheckerboard="0"
     inkscape:deskcolor="#505050"
     inkscape:document-units="pt"
     showgrid="false"
     inkscape:zoom="1.3256833"
     inkscape:cx="56.197435"
     inkscape:cy="215.36064"
     inkscape:current-layer="svg2" />
  <metadata
     id="metadata8">
    <rdf:RDF>
      <cc:Work
         rdf:about="">
        <dc:format>image/svg+xml</dc:format>
        <dc:type
           rdf:resource="http://purl.org/dc/dcmitype/StillImage" />
        <dc:date>11/17/2015</dc:date>
        <dc:creator>
          <cc:Agent>
            <dc:title>edited by Paul Sherman</dc:title>
          </cc:Agent>
        </dc:creator>
        <dc:rights>
          <cc:Agent>
            <dc:title>pd</dc:title>
          </cc:Agent>
        </dc:rights>
        <dc:publisher>
          <cc:Agent>
            <dc:title>wpclipart</dc:title>
          </cc:Agent>
        </dc:publisher>
        <cc:license
           rdf:resource="http://creativecommons.org/publicdomain/zero/1.0/" />
        <dc:source>https://www.glitchthegame.com/public-domain-game-art/</dc:source>
      </cc:Work>
      <cc:License
         rdf:about="http://creativecommons.org/publicdomain/zero/1.0/">
        <cc:permits
           rdf:resource="http://creativecommons.org/ns#Reproduction" />
        <cc:permits
           rdf:resource="http://creativecommons.org/ns#Distribution" />
        <cc:permits
           rdf:resource="http://creativecommons.org/ns#DerivativeWorks" />
      </cc:License>
    </rdf:RDF>
  </metadata>
  <defs
     id="defs77" />
  <g
     id="surface1"
     transform="translate(15,10.5)">
    <path
       id="path5"
       d="m 320.48437,83.769531 c 0.25782,0.257813 0.75391,5.84375 1.48047,16.753909 0.26172,8.4375 -3.72265,17.13281 -11.88672,26.0625 -3.22656,3.49218 -14.38671,13.17968 -33.48046,29.0625 -23.33985,19.60547 -48.85547,39.21093 -76.64454,58.82031 -10.17187,7.21094 -21.33203,9.53906 -33.48046,7.06641 -9.67969,-1.98047 -22.08985,-7.82422 -37.20313,-17.51172 C 124.03906,200.5625 103.23047,187.53125 66.75,164.92578 35.769531,145.58203 18.039062,133.91797 13.566406,129.96094 8.359375,125.25 5.25,118.64844 4.265625,110.21094 3.535156,102.53125 4.382812,96.191406 6.882812,91.214844 9.117188,86.996094 15.425781,81.292969 25.855469,74.113281 35.011719,67.886719 44.082031,62.5625 53.003906,58.082031 57.976562,55.84375 73.085938,47.40625 98.40625,32.773438 122.4375,18.609375 136.94141,10.550781 141.91016,8.574219 c 8.19921,-3.492188 16.36328,-4.976563 24.5625,-4.480469 6.44921,0.496094 11.53515,2.003906 15.25781,4.480469 1.97656,1.25 15.75,7.445312 41.29687,18.617187 28.25391,12.652344 49.85157,22.949219 64.72657,30.890625 18.33984,9.921875 29.26953,18.5 32.73046,25.6875 z m 0,0"
       style="fill:#f0b342;fill-opacity:1;fill-rule:evenodd;stroke:none" />
    <path
       id="path7"
       d="m 321.96484,103.89844 c 0.26172,8.4375 -3.72265,16.98437 -11.88672,25.6875 -2.99218,2.96484 -14.15234,12.42187 -33.48046,28.30078 -22.32422,18.35547 -47.8711,37.73047 -76.64454,58.0625 -10.17187,7.21484 -21.33203,9.57031 -33.48046,7.09765 -9.67969,-2.00781 -22.08985,-7.82812 -37.20313,-17.50781 C 125.02734,202.80469 104.21484,189.88672 66.75,166.81641 35.738281,147.94141 18.007812,136.53906 13.566406,132.55078 8.359375,127.83594 5.25,121.38281 4.265625,113.17969 3.507812,105.73438 4.382812,99.535156 6.851562,94.5625 c 0.257813,3.722656 2.003907,7.09766 5.230469,10.0625 3.457031,3.23047 10.40625,7.67969 20.808594,13.41406 5.230469,2.96094 26.914063,15.64844 65.105469,37.98828 31.273436,18.61719 49.238276,28.76953 53.945316,30.51172 10.43359,4.74219 16.625,7.21485 18.59765,7.44922 7.96485,1.25 17.38281,-0.98828 28.28125,-6.69141 18.10547,-9.6875 45.01953,-29.93359 80.74219,-60.67968 7.17578,-5.96094 16.59766,-13.52735 28.27734,-22.71875 8.19532,-6.953128 12.52735,-12.421878 13.01953,-16.378909 1.22266,2.476563 1.71485,5.210938 1.48438,8.175781 z m 0,0"
       style="fill:#dea333;fill-opacity:1;fill-rule:evenodd;stroke:none" />
    <path
       id="path9"
       d="M 66.777344,166.81641 C 35.769531,147.94141 18.039062,136.53906 13.566406,132.55078 8.359375,127.83594 5.25,121.38281 4.265625,113.20703 3.535156,105.76172 4.382812,99.535156 6.882812,94.589844 7.109375,98.3125 8.855469,101.66016 12.082031,104.625 c 3.457031,3.23047 10.40625,7.71094 20.839844,13.41406 5.199219,2.96094 26.914063,15.64844 65.101563,37.98828 31.246092,18.61719 49.238282,28.79688 53.945312,30.51172 2.23828,1.01953 5.31641,2.50391 9.30078,4.48047 3.71875,1.48438 7.0625,2.5 10.02734,2.96875 0,15.15234 0.98829,25.07422 2.99219,29.78516 l -5.19922,-0.35157 -0.38281,-0.375 -4.85156,-0.75781 -0.34766,-0.375 c -3.98437,-0.72656 -9.30078,-2.70312 -16.01562,-5.96484 l -1.10547,-0.73047 -4.09375,-2.23438 -1.86328,-0.75781 -11.16016,-6.6875 c -4.21484,-2.73437 -25.05469,-15.65234 -62.492186,-38.72265 z m 0,0"
       style="fill:#f5c557;fill-opacity:1;fill-rule:evenodd;stroke:none" />
    <path
       id="path11"
       d="m 71.226562,84.527344 c 3.226563,2.734375 0.375,7.066406 -8.542968,13.03125 -8.429688,6.195316 -14.765625,8.929686 -18.980469,8.203126 -4.214844,-0.75781 -10.289063,-3.49219 -18.222656,-8.203126 -4.214844,-2.242188 -5.582031,-5.09375 -4.097657,-8.554688 1.25,-2.996094 4.214844,-6.078125 8.921876,-9.304687 8.425781,-5.96875 15.140624,-8.585938 20.082031,-7.828125 2.734375,0.492187 6.566406,2.476562 11.539062,5.960937 2.46875,1.71875 5.582031,3.960938 9.300781,6.695313 z m 0,0"
       style="fill:#d49c33;fill-opacity:1;fill-rule:evenodd;stroke:none" />
    <path
       id="path13"
       d="m 86.484375,48.394531 c 4.480469,-0.722656 11.046875,1.746094 19.707035,7.449219 6.22265,4.214844 7.70312,7.449219 4.47265,9.683594 -3.22265,2.734375 -10.28515,7.21875 -21.214841,13.414062 -2.46875,1.484375 -5.082031,1.859375 -7.789063,1.101563 -0.753906,-0.226563 -2.734375,-1.367188 -5.957031,-3.34375 L 60.820312,68.527344 c -0.984374,-0.523438 -1.625,-1.25 -1.859374,-2.242188 0,-1.25 0.492187,-2.355468 1.484374,-3.34375 1.742188,-1.515625 5.8125,-4.101562 12.265626,-7.824218 7.207031,-4.21875 11.796874,-6.460938 13.773437,-6.722657 z m 0,0"
       style="fill:#d49c33;fill-opacity:1;fill-rule:evenodd;stroke:none" />
    <path
       id="path15"
       d="m 150.48437,38.742188 c -0.25781,1.476562 -2.61328,3.71875 -7.08984,6.6875 -5.69922,3.492187 -9.53516,5.84375 -11.50781,7.066406 -5.96094,3.988281 -10.31641,5.46875 -13.02344,4.480468 l -18.59765,-10.0625 c -2.500005,-1.71875 -3.60938,-3.34375 -3.375005,-4.828124 L 97.648438,40.601562 120.72266,26.4375 c 1.98047,-0.992188 4.33203,-1.257812 7.0625,-0.730469 1.48437,0.230469 2.96875,0.613281 4.44921,1.105469 l 4.85157,2.242188 c 9.15625,4.445312 13.63281,7.679687 13.39843,9.6875 z m 0,0"
       style="fill:#d49c33;fill-opacity:1;fill-rule:evenodd;stroke:none" />
    <path
       id="path17"
       d="m 145.63281,26.054688 c -6.6875,-3.71875 -9.1875,-6.195313 -7.4414,-7.445313 6.71093,-3.957031 15,-6.691406 24.9414,-8.175781 4.70703,-0.753906 10.51563,0.496094 17.46485,3.726562 1.50781,0.726563 2.99218,1.367188 4.47656,1.859375 0.7539,0.496094 0.375,1.367188 -1.10938,2.589844 -10.92578,8.960937 -17.25781,13.90625 -18.97656,14.890625 -2.49609,0.992188 -8.92187,-1.484375 -19.35547,-7.445312 z m 0,0"
       style="fill:#d49c33;fill-opacity:1;fill-rule:evenodd;stroke:none" />
    <path
       id="path19"
       d="m 57.101562,118.41406 c -3.222656,-2.73437 -2.992187,-5.84375 0.726563,-9.30859 4.972656,-3.48828 8.082031,-5.84766 9.300781,-7.07031 2.5,-2.00391 5.347656,-3.867191 8.574219,-5.585941 3.722656,-2.003907 6.191406,-2.851563 7.441406,-2.617188 6.1875,1.746094 12.148438,4.21875 17.843749,7.449219 5.46485,2.96875 9.1836,5.70313 11.16016,8.20313 3.23047,3.46093 -1.59375,9.04687 -14.500002,16.75781 -8.429688,5.46875 -14.125,7.67578 -17.121094,6.6875 -4.210938,-0.75782 -12.03125,-5.58594 -23.425782,-14.51563 z m 0,0"
       style="fill:#d49c33;fill-opacity:1;fill-rule:evenodd;stroke:none" />
    <path
       id="path21"
       d="M 93.171875,87.492188 C 92.183594,85.777344 92.558594,83.917969 94.304688,81.90625 95.789062,80.683594 97.265625,79.699219 98.75,78.941406 l 7.44141,-5.210937 c 5.23047,-3.484375 8.95312,-5.582031 11.16406,-6.335938 2.49609,-0.730469 5.23047,-0.613281 8.19141,0.375 1.98046,0.492188 5.95703,2.359375 11.92187,5.585938 5.19922,2.734375 9.03516,5.585937 11.50781,8.550781 2.23438,2.996094 2.73047,5.238281 1.50781,6.722656 -3.71875,3.71875 -10.05468,8.316406 -18.98046,13.757814 -4.21094,2.5 -7.58203,3.48828 -10.05078,2.99609 -0.23438,-0.26172 -2.24219,-1.25 -5.95704,-2.99609 -2.47265,-0.72656 -6.45703,-2.968751 -11.89062,-6.691408 -5.957032,-3.722656 -9.445314,-6.457031 -10.433595,-8.203124 z m 0,0"
       style="fill:#d49c33;fill-opacity:1;fill-rule:evenodd;stroke:none" />
    <path
       id="path23"
       d="m 181.35547,53.632812 c 4.47265,2.472657 6.5664,4.710938 6.33203,6.691407 0,0.753906 -1.01563,2.121093 -2.99219,4.101562 -5.69531,4.710938 -11.88672,8.929688 -18.60156,12.65625 -3.71875,2.234375 -9.18359,0.984375 -16.36719,-3.726562 -11.64844,-5.960938 -17.98828,-9.804688 -18.97265,-11.546875 -0.72657,-1.25 1.13281,-3.464844 5.57421,-6.691406 3.23047,-2.476563 6.33985,-4.480469 9.30469,-5.964844 6.45313,-2.472656 10.78516,-3.839844 13.01953,-4.101563 5.20313,-0.496093 12.78907,2.355469 22.70313,8.582031 z m 0,0"
       style="fill:#d49c33;fill-opacity:1;fill-rule:evenodd;stroke:none" />
    <path
       id="path25"
       d="m 196.98828,24.195312 c 0.72656,0.261719 5.31641,2.125 13.75,5.585938 10.42969,4.96875 13.77344,8.695312 10.05469,11.167969 -2.73047,2.238281 -5.08985,4.101562 -7.0625,5.585937 -3.48828,2.996094 -6.94531,5.238282 -10.4336,6.71875 -4.44921,1.976563 -14.35937,-2.007812 -29.76562,-11.925781 -1.71484,-1.25 -2.46484,-2.851563 -2.20703,-4.828125 0.23437,-2.007812 1.10547,-3.492188 2.58984,-4.484375 l 11.91406,-7.445313 c 2.70313,-1.714843 6.42579,-1.859374 11.16016,-0.375 z m 0,0"
       style="fill:#d49c33;fill-opacity:1;fill-rule:evenodd;stroke:none" />
    <path
       id="path27"
       d="m 142.29297,125.48438 c 1.74219,0.98437 5.08203,2.85156 10.05078,5.58593 4.1875,2.73438 6.42578,4.96875 6.6875,6.6875 0,1.7461 -2.47266,4.48047 -7.44141,8.20313 -6.1875,4.48047 -10.40625,7.5664 -12.64453,9.30859 -5.46094,3.95313 -10.43359,5.09375 -14.875,3.34375 -4.71484,-2.46875 -13.02343,-7.82031 -24.941404,-15.99609 -3.222656,-2.24219 -3.835937,-4.48047 -1.863281,-6.69532 1.980469,-2.23437 6.074215,-5.46875 12.296875,-9.67968 6.68359,-4.97656 11.27734,-7.56641 13.75,-7.82813 3.98047,-0.26562 10.28906,2.09375 18.98047,7.07032 z m 0,0"
       style="fill:#d49c33;fill-opacity:1;fill-rule:evenodd;stroke:none" />
    <path
       id="path29"
       d="m 195.85547,107.62109 c 0.98828,1.48438 -0.72656,3.95704 -5.20313,7.44922 -0.98828,0.72657 -4.96875,3.46094 -11.91406,8.17188 -7.67187,4.71094 -13.75,6.07812 -18.22266,4.10156 -8.17187,-3.46094 -15.87109,-8.20312 -23.04687,-14.13672 -2.5,-2.0039 -3.375,-3.87109 -2.61719,-5.58594 0.49219,-0.98828 1.85938,-2.5 4.09375,-4.48046 4.21485,-4.214849 9.79688,-8.316411 16.7461,-12.277349 5.19921,-3.226562 11.76562,-2.5 19.69921,2.214844 12.41407,6.71875 19.2461,11.546875 20.46485,14.542965 z m 0,0"
       style="fill:#d49c33;fill-opacity:1;fill-rule:evenodd;stroke:none" />
    <path
       id="path31"
       d="m 214.83594,94.9375 c -6.45703,4.21875 -13.63282,4.480469 -21.56641,0.757812 -4.97266,-2.238281 -8.92187,-4.101562 -11.91406,-5.585937 -5.69922,-2.964844 -8.69141,-5.324219 -8.92578,-7.066406 -0.4961,-1.75 1.6289,-4.484375 6.33593,-8.203125 3.94922,-3.226563 7.5586,-5.585938 10.78125,-7.070313 6.94922,-3.460937 12.75782,-4.335937 17.47266,-2.617187 11.91406,4.976562 19.73047,8.8125 23.44922,11.546875 3.95703,3 -1.25,9.078125 -15.63281,18.238281 z m 0,0"
       style="fill:#d49c33;fill-opacity:1;fill-rule:evenodd;stroke:none" />
    <path
       id="path33"
       d="M 211.11328,58.839844 C 208.87891,57.09375 212.97656,52.875 223.37891,46.1875 c 5.46484,-3.492188 11.65625,-4.101562 18.60156,-1.867188 3.48828,1.226563 7.70312,3.234376 12.67578,5.9375 2.96094,1.25 5.31641,2.996094 7.05859,5.234376 1.48438,2.472656 1.48438,4.453124 0,5.933593 -7.4414,6.722657 -12.52343,10.824219 -15.25781,12.304688 -3.22656,1.984375 -9.44922,0.382812 -18.60547,-4.851563 -10.16797,-5.703125 -15.75,-9.050781 -16.73828,-10.039062 z m 0,0"
       style="fill:#d49c33;fill-opacity:1;fill-rule:evenodd;stroke:none" />
    <path
       id="path35"
       d="m 300.77734,94.210938 c -2.99218,2.96875 -7.32422,3.460937 -13.02343,1.484374 -2,-0.757812 -6.59375,-3.113281 -13.77344,-7.066406 -11.16016,-6.195312 -16.36328,-10.296875 -15.63281,-12.304687 0.49218,-1.71875 3.22265,-4.601563 8.1914,-8.554688 4.97266,-3.957031 8.3125,-5.960937 10.0586,-5.960937 4.21484,0 12.26562,3.867187 24.17968,11.546875 8.16797,5.203125 8.16797,12.15625 0,20.855469 z m 0,0"
       style="fill:#d49c33;fill-opacity:1;fill-rule:evenodd;stroke:none" />
    <path
       id="path37"
       d="m 241.25781,86.007812 c 3.94922,-0.988281 10.51563,0.871094 19.69922,5.585938 7.44141,3.722656 13.39844,7.445312 17.84766,11.17188 2.96484,2.46875 1.625,6.33984 -4.09766,11.54687 -4.71094,4.71094 -10.02734,8.4375 -15.98437,11.17188 -4.21485,1.97656 -7.9336,2.35156 -11.16407,1.10156 -0.22656,-0.23438 -2.84375,-1.97656 -7.8164,-5.20313 -13.89063,-8.4375 -21.07032,-13.52734 -21.56641,-15.27343 -0.25781,-1.48438 3.10938,-5.20704 10.05859,-11.17188 6.6836,-5.441406 11.04297,-8.433594 13.02344,-8.929688 z m 0,0"
       style="fill:#d49c33;fill-opacity:1;fill-rule:evenodd;stroke:none" />
    <path
       id="path39"
       d="m 221.89453,154.89453 c -6.19141,3.48828 -12.375,2.73438 -18.59766,-2.24219 -14.88281,-7.67968 -23.05078,-12.88672 -24.55859,-15.62109 -0.98828,-1.74609 0,-4.21875 2.99219,-7.44531 1.71484,-1.75 3.45703,-3.26172 5.20312,-4.48438 l 8.92188,-5.96093 c 3.48828,-3.22657 8.57422,-4.21875 15.25781,-2.96875 3.23047,0.72656 6.07422,1.71875 8.54688,2.96875 l 4.85156,3 c 10.89844,5.4375 16.85547,10.03124 17.84765,13.7539 0.75391,3.49219 -6.07421,9.83203 -20.46484,19 z m 0,0"
       style="fill:#d49c33;fill-opacity:1;fill-rule:evenodd;stroke:none" />
    <path
       id="path41"
       d="m 192.89062,155.26953 c 2.47266,1.25 4.5625,3.34375 6.30469,6.34375 2.00781,3.71875 1.85938,6.6875 -0.34765,8.92969 -2.99219,2.73437 -6.97657,5.08594 -11.91407,7.0664 -5.46875,1.98047 -10.40234,2.96875 -14.88281,2.96875 -3.98437,0 -8.80859,-1.98046 -14.5,-5.93359 -4.97266,-3.22656 -8.31641,-6.22656 -10.05859,-8.96094 -1.25,-1.97656 0.875,-5.32031 6.33593,-10.03515 4.21485,-3.72266 8.16407,-6.72266 11.88672,-8.92969 4.21485,-2.24219 10.0586,-1.13672 17.5,3.34375 l 2.96485,1.10547 z m 0,0"
       style="fill:#d49c33;fill-opacity:1;fill-rule:evenodd;stroke:none" />
    <path
       id="path43"
       d="m 21.003906,91.59375 c -0.230468,-3.464844 2.851563,-7.449219 9.300782,-11.894531 8.425781,-5.96875 15.140624,-8.585938 20.082031,-7.828125 2.734375,0.492187 6.566406,2.476562 11.539062,5.960937 2.46875,1.71875 5.582031,3.960938 9.300781,6.695313 1.742188,1.742187 1.25,4.214844 -1.480468,7.445312 -0.496094,-0.757812 -0.871094,-1.25 -1.105469,-1.484375 -9.9375,-7.710937 -16.886719,-11.929687 -20.839844,-12.65625 -4.472656,-0.75 -11.160156,1.867188 -20.085937,7.796875 -2.992188,2.242188 -5.226563,4.25 -6.710938,5.964844 z m 0,0"
       style="fill:#b38223;fill-opacity:1;fill-rule:evenodd;stroke:none" />
    <path
       id="path45"
       d="m 106.19141,55.84375 c 6.22265,4.214844 7.70312,7.449219 4.47265,9.683594 l -1.85547,1.136718 c -4.71093,-5.730468 -8.54296,-9.191406 -11.542965,-10.441406 -7.433594,-2.96875 -14.5,-2.242187 -21.183594,2.238282 -7.703125,4.972656 -12.527343,8.433593 -14.53125,10.417968 l -0.730469,-0.351562 c -0.984374,-0.523438 -1.625,-1.25 -1.859374,-2.242188 0,-1.25 0.492187,-2.355468 1.484374,-3.34375 1.742188,-1.515625 5.8125,-4.101562 12.265626,-7.824218 7.207031,-4.21875 11.796874,-6.460938 13.773437,-6.722657 4.480469,-0.722656 11.046875,1.746094 19.707035,7.449219 z m 0,0"
       style="fill:#b38223;fill-opacity:1;fill-rule:evenodd;stroke:none" />
    <path
       id="path47"
       d="m 150.48437,38.742188 c 0,0.984374 -1.01562,2.09375 -2.99218,3.34375 l -12.64063,-6.71875 C 127.41016,31.40625 120.83984,31.03125 115.14453,34.257812 L 98.023438,45.050781 c -0.984376,-1.25 -1.367188,-2.355469 -1.132813,-3.347656 L 97.648438,40.601562 120.72266,26.4375 c 1.98047,-0.992188 4.33203,-1.257812 7.0625,-0.730469 1.48437,0.230469 2.96875,0.613281 4.44921,1.105469 l 4.85157,2.242188 c 9.15625,4.445312 13.63281,7.679687 13.39843,9.6875 z m 0,0"
       style="fill:#b38223;fill-opacity:1;fill-rule:evenodd;stroke:none" />
    <path
       id="path49"
       d="m 183.96484,18.609375 -2.23437,1.859375 c -9.94141,-3.71875 -17.875,-5.085938 -23.80469,-4.070312 -4.24219,0.496093 -10.17187,2.734374 -17.875,6.691406 -2.47266,-1.746094 -3.10937,-3.230469 -1.85937,-4.480469 6.71093,-3.957031 15,-6.691406 24.9414,-8.175781 4.70703,-0.753906 10.51563,0.496094 17.46485,3.726562 1.50781,0.726563 2.99218,1.367188 4.47656,1.859375 0.7539,0.496094 0.375,1.367188 -1.10938,2.589844 z m 0,0"
       style="fill:#b38223;fill-opacity:1;fill-rule:evenodd;stroke:none" />
    <path
       id="path51"
       d="m 79.042969,102.03516 c -0.75,0.23437 -4.328125,2.09765 -10.78125,5.58593 -3.71875,1.98047 -7.058594,5.81641 -10.058594,11.51954 l -1.101563,-0.72657 c -3.222656,-2.73437 -2.992187,-5.84375 0.726563,-9.30859 4.972656,-3.48828 8.082031,-5.84766 9.300781,-7.07031 2.5,-2.00391 5.347656,-3.867191 8.574219,-5.585941 3.722656,-2.003907 6.191406,-2.851563 7.441406,-2.617188 6.1875,1.746094 12.148438,4.21875 17.843749,7.449219 5.46485,2.96875 9.1836,5.70313 11.16016,8.20313 1.48437,1.97656 0.875,4.33593 -1.85938,7.07031 v -0.38281 c -0.23437,-1.97657 -7.8164,-6.6875 -22.699216,-14.13672 -2.472656,-1.25 -5.316406,-1.25 -8.546875,0 z m 0,0"
       style="fill:#b38223;fill-opacity:1;fill-rule:evenodd;stroke:none" />
    <path
       id="path53"
       d="m 98.75,78.941406 7.44141,-5.210937 c 5.23047,-3.484375 8.95312,-5.582031 11.16406,-6.335938 2.49609,-0.730469 5.23047,-0.613281 8.19141,0.375 1.98046,0.492188 5.95703,2.359375 11.92187,5.585938 5.19922,2.734375 9.03516,5.585937 11.50781,8.550781 2.23438,2.996094 2.73047,5.238281 1.50781,6.722656 l -4.85156,4.101563 c -0.73047,-3.988281 -1.36719,-6.460938 -1.86328,-7.445313 -0.49219,-2.011718 -2.96094,-4.21875 -7.44141,-6.726562 -4.21093,-2.234375 -7.8164,-3.71875 -10.78124,-4.445313 -6.19141,-1.25 -11.65235,-0.148437 -16.35938,3.34375 L 95.03125,89.355469 93.171875,87.492188 C 92.183594,85.777344 92.558594,83.917969 94.304688,81.90625 95.789062,80.683594 97.265625,79.699219 98.75,78.941406 Z m 0,0"
       style="fill:#b38223;fill-opacity:1;fill-rule:evenodd;stroke:none" />
    <path
       id="path55"
       d="m 181.35547,53.632812 c 3.94922,2.210938 6.07422,4.332032 6.33203,6.3125 0,0.988282 -0.75391,2.238282 -2.23828,3.722657 -3.22656,-2.734375 -7.20703,-5.441407 -11.91797,-8.175781 -2.96484,-1.511719 -6.68359,-2.5 -11.15625,-2.996094 -4.97266,-0.492188 -9.18359,-0.113282 -12.64844,1.136718 -4.47265,1.484376 -10.05078,4.828126 -16.73828,10.035157 l -2.23437,-1.859375 c -0.72657,-1.25 1.13281,-3.464844 5.57421,-6.691406 3.23047,-2.476563 6.33985,-4.480469 9.30469,-5.964844 6.45313,-2.472656 10.78516,-3.839844 13.01953,-4.101563 5.20313,-0.496093 12.78907,2.355469 22.70313,8.582031 z m 0,0"
       style="fill:#b38223;fill-opacity:1;fill-rule:evenodd;stroke:none" />
    <path
       id="path57"
       d="m 210.73828,29.78125 c 10.42969,4.96875 13.77344,8.695312 10.05469,11.167969 -6.71485,-3.957031 -13.13672,-7.066407 -19.35547,-9.308594 -6.94922,-2.46875 -13.02344,-2.46875 -18.22266,0 -2.96875,1.25 -6.68359,3.867187 -11.16406,7.828125 -1.48437,-2.734375 -0.87109,-5.210938 1.86328,-7.453125 l 11.91406,-7.445313 c 2.70313,-1.714843 6.42579,-1.859374 11.16016,-0.375 0.72656,0.261719 5.31641,2.125 13.75,5.585938 z m 0,0"
       style="fill:#b38223;fill-opacity:1;fill-rule:evenodd;stroke:none" />
    <path
       id="path59"
       d="m 159.03125,137.75781 c 0,0.98828 -0.98828,2.5 -2.96484,4.48047 -5.72657,-5.20703 -11.16407,-8.66797 -16.39063,-10.41797 -5.92969,-1.74219 -10.17187,-2.73437 -12.64453,-2.99219 -4.44531,-0.49218 -8.42969,0.375 -11.88672,2.61719 -4.73828,2.73438 -9.67969,6.69141 -14.8789,11.92969 l -1.136724,-0.75781 c -3.222656,-2.24219 -3.835937,-4.48047 -1.863281,-6.69532 1.980469,-2.23437 6.074215,-5.46875 12.296875,-9.67968 6.68359,-4.97656 11.27734,-7.56641 13.75,-7.82813 3.98047,-0.23437 10.28906,2.125 18.98047,7.07032 1.74219,0.98437 5.08203,2.85156 10.05078,5.58593 4.21484,2.73438 6.42578,4.96875 6.6875,6.6875 z m 0,0"
       style="fill:#b38223;fill-opacity:1;fill-rule:evenodd;stroke:none" />
    <path
       id="path61"
       d="m 175.39062,93.078125 c 12.41407,6.71875 19.2461,11.546875 20.46485,14.542965 0.98828,1.71485 -0.875,4.33594 -5.58203,7.79297 l -7.44141,-7.79297 c -2.96094,-2.99609 -6.94141,-5.58593 -11.88281,-7.824215 -5.46485,-2.238281 -9.56641,-2.851563 -12.29688,-1.863281 -2.46875,0.730468 -9.53515,5.820316 -21.18359,15.273436 -2.5,-2.0039 -3.375,-3.87109 -2.61719,-5.58594 0.49219,-0.98828 1.85938,-2.5 4.09375,-4.48046 4.21485,-4.214849 9.79688,-8.316411 16.7461,-12.277349 5.19921,-3.226562 11.76562,-2.5 19.69921,2.214844 z m 0,0"
       style="fill:#b38223;fill-opacity:1;fill-rule:evenodd;stroke:none" />
    <path
       id="path63"
       d="m 228.23437,85.285156 c -5.20703,-5.242187 -9.67968,-8.703125 -13.39843,-10.445312 -8.92578,-3.726563 -16.48047,-4.21875 -22.69922,-1.484375 -4.21485,1.484375 -10.03125,5.703125 -17.46875,12.652343 -1.51172,-1.480468 -2.23828,-2.472656 -2.23828,-2.964843 -0.4961,-1.75 1.60156,-4.484375 6.30859,-8.203125 3.97656,-3.226563 7.58594,-5.585938 10.80859,-7.070313 6.94922,-3.460937 12.75782,-4.335937 17.47266,-2.617187 11.91406,4.976562 19.73047,8.8125 23.44922,11.546875 2.47266,1.75 1.71484,4.59375 -2.23438,8.585937 z m 0,0"
       style="fill:#b38223;fill-opacity:1;fill-rule:evenodd;stroke:none" />
    <path
       id="path65"
       d="m 254.65625,50.257812 c 2.96094,1.25 5.31641,2.996094 7.05859,5.234376 1.48438,2.472656 1.48438,4.453124 0,5.933593 l -2.61718,2.242188 c -0.49219,-2.96875 -1.21875,-4.828125 -2.23438,-5.585938 -1.98047,-1.484375 -5.58203,-3.34375 -10.78125,-5.585937 -6.19141,-2.472656 -10.78906,-3.574219 -13.75,-3.34375 -3.72266,0.261718 -9.5625,4.335937 -17.49609,12.273437 l -3.72266,-2.585937 C 208.87891,57.09375 212.97656,52.875 223.37891,46.1875 c 5.46484,-3.492188 11.65625,-4.101562 18.60156,-1.867188 3.48828,1.226563 7.70312,3.203126 12.67578,5.9375 z m 0,0"
       style="fill:#b38223;fill-opacity:1;fill-rule:evenodd;stroke:none" />
    <path
       id="path67"
       d="m 192.89062,155.26953 c 2.47266,1.25 4.5625,3.34375 6.30469,6.34375 2.00781,3.71875 1.85938,6.6875 -0.34765,8.92969 -1.01563,-3.46094 -5.72657,-7.71094 -14.15235,-12.65625 -2.96484,-1.74219 -6.30469,-2.85156 -10.02734,-3.34375 -3.98438,-0.4961 -7.09375,-0.14844 -9.30078,1.10547 -3.71875,2.23828 -8.83594,6.57422 -15.25782,13.03515 l -2.61718,-3 c -1.25,-1.97656 0.875,-5.32031 6.33593,-10.03515 4.21485,-3.72266 8.16407,-6.72266 11.88672,-8.92969 4.21485,-2.24219 10.0586,-1.13672 17.5,3.34375 l 2.96485,1.10547 z m 0,0"
       style="fill:#b38223;fill-opacity:1;fill-rule:evenodd;stroke:none" />
    <path
       id="path69"
       d="m 223.02734,129.96094 c -3.71875,-2.5 -7.8164,-4.10156 -12.28906,-4.85938 -4.94141,-1.25 -9.04297,-1.10156 -12.26562,0.38282 -3.98438,1.74218 -9.30079,6.68749 -15.98438,14.89062 -2.00781,-1.21875 -3.23047,-2.35547 -3.72266,-3.34375 -0.98437,-1.74609 0,-4.21875 2.96485,-7.44531 1.74219,-1.75 3.48437,-3.23438 5.20312,-4.48438 l 8.92188,-5.96093 c 3.48828,-3.22657 8.57422,-4.21875 15.25781,-2.96875 3.23047,0.75781 6.07422,1.75 8.57422,2.96875 l 4.82422,3 c 10.89844,5.4375 16.85547,10.03124 17.84765,13.7539 0.25782,1.74609 -0.60937,3.60938 -2.58593,5.58594 -0.4961,-0.98828 -2.73438,-2.73438 -6.71485,-5.20703 z m 0,0"
       style="fill:#b38223;fill-opacity:1;fill-rule:evenodd;stroke:none" />
    <path
       id="path71"
       d="m 241.25781,86.007812 c 3.94922,-0.988281 10.51563,0.871094 19.69922,5.585938 7.44141,3.722656 13.39844,7.445312 17.84766,11.17188 2.73437,2.23828 1.625,5.84375 -3.34375,10.78906 -0.23047,-1.71485 -5.95703,-6.19531 -17.11328,-13.37891 -8.69141,-5.730468 -15,-7.097655 -18.98047,-4.101561 L 223,110.58984 c -2.96484,-1.98046 -4.58984,-3.46093 -4.82422,-4.48046 -0.25781,-1.48438 3.10938,-5.20704 10.05859,-11.17188 6.6836,-5.441406 11.04297,-8.433594 13.02344,-8.929688 z m 0,0"
       style="fill:#b38223;fill-opacity:1;fill-rule:evenodd;stroke:none" />
    <path
       id="path73"
       d="m 304.12109,89.730469 c -2.96875,-5.960938 -5.20312,-9.6875 -6.6875,-11.171875 -2.23828,-2.234375 -6.07422,-4.445313 -11.53906,-6.6875 -5.46484,-2.472656 -8.92187,-3.226563 -10.40625,-2.242188 l -13.77344,11.554688 c -2.5,-2.011719 -3.60156,-3.609375 -3.34375,-4.859375 0.4961,-1.71875 3.22657,-4.601563 8.16797,-8.554688 4.97266,-3.957031 8.3125,-5.960937 10.0586,-5.960937 4.21484,0 12.26562,3.867187 24.17968,11.546875 6.6836,4.21875 7.81641,9.6875 3.34375,16.375 z m 0,0"
       style="fill:#b38223;fill-opacity:1;fill-rule:evenodd;stroke:none" />
  </g>
</svg>
