<?xml version="1.0" encoding="UTF-8" standalone="no"?>
<svg
   version="1.1"
   viewBox="0 0 472.44093 332.59842"
   id="svg144"
   sodipodi:docname="wave.svg"
   width="125mm"
   height="88mm"
   inkscape:version="1.2.2 (732a01da63, 2022-12-09)"
   xmlns:inkscape="http://www.inkscape.org/namespaces/inkscape"
   xmlns:sodipodi="http://sodipodi.sourceforge.net/DTD/sodipodi-0.dtd"
   xmlns="http://www.w3.org/2000/svg"
   xmlns:svg="http://www.w3.org/2000/svg">
  <defs
     id="defs148" />
  <sodipodi:namedview
     id="namedview146"
     pagecolor="#505050"
     bordercolor="#eeeeee"
     borderopacity="1"
     inkscape:showpageshadow="0"
     inkscape:pageopacity="0"
     inkscape:pagecheckerboard="0"
     inkscape:deskcolor="#505050"
     showgrid="false"
     inkscape:zoom="1.6745352"
     inkscape:cx="312.32547"
     inkscape:cy="143.02476"
     inkscape:current-layer="svg144"
     inkscape:document-units="mm" />
  <path
     d="m 206.62592,252.22591 c 24.02425,-3.40674 49.00907,12.32488 72.59022,7.17657 22.9409,-5.00875 45.12642,-18.07286 57.64639,-34.98594 12.39045,-16.73856 13.98102,-38.6875 11.7425,-58.309 -2.32083,-20.34555 -13.78224,-39.55733 -25.62027,-57.41206 -4.8153,-7.26247 -11.61199,-13.494147 -18.14771,-19.735578 -3.9894,-3.809676 -7.11186,-9.085072 -12.81013,-10.764863 -3.04058,-0.896286 -6.47672,1.53723 -9.60752,0.897072 -2.49325,-0.509764 -5.5011,-1.570235 -6.40522,-3.588288 -1.37086,-3.060151 1.35112,-6.523789 3.03171,-9.473111 1.6059,-2.817899 6.49693,-4.447559 6.5758,-7.57139 0.0545,-2.155791 -1.85279,-4.658921 -4.26994,-5.382432 -4.55945,-1.364563 -9.05414,3.921591 -13.87745,3.588288 -5.91244,-0.408526 -12.98551,-2.326615 -15.92715,-6.674183 -4.32476,-6.391282 -0.54527,-13.623408 1.86671,-22.03212 2.41195,-8.408711 17.99543,-27.2684929 63.16736,-15.250086 0,0 25.80367,8.075679 36.29673,15.250086 6.68127,4.568956 10.73063,11.32633 16.01274,17.044233 10.4299,11.291372 23.12686,21.399656 30.95785,34.089003 9.2744,15.027885 7.88391,33.874929 18.14772,48.442699 14.91529,21.1685 16.46417,37.40034 36.29672,49.33963 8.05799,4.85132 8.0224,15.29778 10.67516,23.32387 1.64389,4.97353 3.20252,15.25008 3.20252,15.25008 0,0 -12.10382,-13.8914 -20.28268,-18.83837 -10.08749,-6.10161 -21.83415,-11.21848 -34.16144,-12.559 -11.42956,-1.24309 -23.61322,0.58167 -34.16142,4.48522 -6.25549,2.31526 -12.02752,6.09781 -16.01275,10.76486 -4.85634,5.68728 -6.86787,12.87822 -8.54019,19.73558 -1.28787,5.28109 -6.42864,13.18714 -1.06753,16.1473 5.31963,2.93739 10.88517,-5.94769 17.08008,-7.17658 1.73161,-0.34349 4.47513,-1.30769 5.33759,0 3.25487,4.93478 -11.43471,8.74743 -10.67517,14.35315 0.34165,2.52099 3.75823,4.16141 6.40491,5.38244 5.75181,2.65325 13.3292,6.02491 19.21503,3.58828 5.28372,-2.18744 2.80861,-10.43292 7.47255,-13.45594 3.15017,-2.04184 8.68833,-3.93623 11.7425,-1.79414 7.10288,4.98165 5.63639,17.15858 0,23.32387 -6.73097,7.36219 -32.81806,-2.08374 -32.02518,7.17657 0.87326,10.21044 26.62476,-2.63705 36.29672,3.58828 1.52118,0.97926 1.77265,2.90408 2.13503,4.48523 1.07665,4.69793 -4.56779,11.49731 0,14.35315 5.96118,3.72703 16.44846,-10.07469 21.35033,-5.38243 7.46037,7.14189 -6.19811,19.06112 -13.87778,26.01495 -7.34847,6.65386 -28.46892,12.90965 -28.46892,12.90965 l -191.97406,0.40211 -200.7941601,0.0709 c 0,0 46.5403331,-9.65792 112.7246901,-37.60359 11.52126,-4.86459 37.27138,-12.03683 55.51111,-18.83837 11.92845,-4.44809 22.35963,-12.52838 35.22907,-14.35314 z"
     fill="#80e5ff"
     opacity="0.69"
     stroke="#000000"
     stroke-width="0.352289px"
     id="path40" />
  <path
     d="m 248.7546,4.8042317 a 7.5700204,8.6561165 0 1 1 -15.14004,0 7.5700204,8.6561165 0 1 1 15.14004,0 z"
     fill="#00ccff"
     opacity="0.38"
     stroke="#067373"
     stroke-dashoffset="4.4"
     stroke-opacity="0.99465"
     id="path42"
     style="stroke-width:0.294753" />
  <path
     d="m 162.06653,81.453376 a 3.5691111,4.5254323 0 1 1 -7.13822,0 3.5691111,4.5254323 0 1 1 7.13822,0 z"
     fill="#00ccff"
     opacity="0.38"
     stroke="#067373"
     stroke-dashoffset="4.4"
     stroke-opacity="0.99465"
     id="path44"
     style="stroke-width:0.308462" />
  <path
     d="m 193.28943,53.479698 a 6.2460264,7.8167779 0 1 1 -12.49205,0 6.2460264,7.8167779 0 1 1 12.49205,0 z"
     fill="#00ccff"
     opacity="0.38"
     stroke="#067373"
     stroke-dashoffset="4.4"
     stroke-opacity="0.99465"
     id="path46"
     style="stroke-width:0.308462" />
  <path
     d="m 176.36094,42.371981 a 3.1229963,4.1140024 0 1 1 -6.24584,0 3.1229963,4.1140024 0 1 1 6.24584,0 z"
     fill="#00ccff"
     opacity="0.38"
     stroke="#067373"
     stroke-dashoffset="4.4"
     stroke-opacity="0.99465"
     id="path48"
     style="stroke-width:0.308462" />
  <path
     d="m 207.58385,34.555109 a 4.0152926,4.525435 0 1 1 -8.03058,0 4.0152926,4.525435 0 1 1 8.03058,0 z"
     fill="#00ccff"
     opacity="0.38"
     stroke="#067373"
     stroke-dashoffset="4.4"
     stroke-opacity="0.99465"
     id="path50"
     style="stroke-width:0.308462" />
  <path
     d="m 258.43349,66.231359 a 5.8000062,7.4051451 0 1 1 -11.59969,0 5.8000062,7.4051451 0 1 1 11.59969,0 z"
     fill="#00ccff"
     opacity="0.38"
     stroke="#067373"
     stroke-dashoffset="4.4"
     stroke-opacity="0.99465"
     id="path52"
     style="stroke-width:0.308462" />
  <path
     d="m 277.35337,65.523305 c 0,0 -6.39303,6.201056 -7.35136,10.181177 -0.83805,3.480439 -1.96225,9.542211 1.73863,10.575179 4.20325,1.173117 7.80471,-5.055903 8.86691,-8.98481 1.06245,-3.928907 -3.25423,-11.771546 -3.25423,-11.771546 z"
     fill="#2ad4ff"
     opacity="0.3834"
     stroke="#000000"
     stroke-width="0.308459px"
     id="path54" />
  <path
     d="m 261.3868,17.120984 c 0,0 -25.34551,7.367344 -33.51379,13.332377 -4.89225,3.572571 -13.54626,9.206741 -7.97976,12.499122 3.59024,2.123517 15.9592,-1.666541 15.9592,-1.666541 0,0 1.02754,-1.090631 1.59589,-0.833284 6.02819,2.729831 -11.83995,6.046599 -14.36318,9.999352 -0.84111,1.317521 0,4.166283 0,4.166283 0,0 2.62081,2.170342 4.78772,2.499824 4.70886,0.71595 10.9323,0.16337 14.36319,-1.66654 3.79511,-2.024123 1.58268,-5.627667 3.19181,-8.332838 1.20169,-2.02014 3.76882,-3.628935 4.78773,-5.832797 z"
     fill="#00ccff"
     opacity="0.43"
     stroke="#000000"
     stroke-width="0.415159px"
     id="path56" />
  <path
     d="m 411.72271,181.31644 c 0,0 7.97399,-13.74941 5.34367,-20.32333 -2.36238,-5.9038 -10.59726,-8.83821 -16.92137,-12.04334 -1.37104,-0.69492 -3.45044,-0.45285 -4.453,-1.50544 -1.13225,-1.18891 -1.39092,-3.04986 -0.8906,-4.51639 0.99047,-2.90299 7.58124,-3.77797 7.12468,-6.77444 -0.68355,-4.48631 -8.52064,-5.59353 -13.35902,-7.52722 -6.45204,-2.57873 -14.24489,-2.33933 -20.48371,-5.2689 -2.75853,-1.29538 -5.37734,-3.04823 -7.12469,-5.26889 -1.03969,-1.32137 -1.99365,-2.93957 -1.7812,-4.51638 0.70862,-5.25887 12.68798,-8.85393 9.79667,-13.54889 -2.19729,-3.56796 -10.00475,1.06622 -14.24936,-0.75272 -2.068,-0.88615 -4.64698,-2.56353 -4.45301,-4.516389 0.22885,-2.305126 5.58125,-2.269817 6.23402,-4.516386 1.14388,-3.936494 -2.06534,-8.332024 -5.34367,-11.29083 -5.17343,-4.669219 -13.3337,-6.182359 -20.48372,-8.279998 -8.91274,-2.614746 -18.17463,-5.170527 -27.60838,-5.268892 -7.56809,-0.07895 -15.08841,5.796215 -22.26472,3.763611 -3.38953,-0.960075 -7.34847,-3.759004 -7.12468,-6.774444 0.39521,-5.323901 15.66552,-5.339618 14.24936,-10.538055 -0.7594,-2.78782 -6.41933,-2.4472 -9.79668,-2.25814 -6.10674,0.341839 -11.69664,8.715459 -16.92137,6.021668 -3.30425,-1.703636 -1.99543,-6.650065 -0.8906,-9.785277 1.38976,-3.944082 4.966,-7.367345 8.90602,-9.785279 7.90153,-4.849148 17.96304,-6.992582 27.60839,-8.279998 10.56039,-1.409301 21.79341,-1.76477 32.06139,0.752722 13.93549,3.416759 26.09767,11.13258 37.40604,18.817782 10.14745,6.896926 19.922,14.699189 26.71774,24.086943 10.53666,14.555301 13.4972,32.165062 20.4837,48.174422 4.06411,9.31242 7.25294,18.95707 12.46836,27.8511 4.97498,8.48323 10.70595,16.76757 17.81204,24.08694 4.39626,4.52804 11.67164,6.97226 15.14004,12.04334 5.80183,8.48296 8.01535,28.60442 8.01535,28.60442 0,0 -15.13138,-13.02699 -24.04605,-18.06528 -9.60207,-5.4266 -31.17074,-12.79611 -31.17074,-12.79611 z"
     fill="#80e5ff"
     opacity="0.88"
     stroke="#000000"
     stroke-width="0.294753px"
     id="path58" />
  <path
     d="m 393.73626,151.70128 c 0,0 -8.48409,3.1382 -11.0365,6.181 -2.23192,2.66095 -5.81048,7.40501 -2.83936,9.48639 3.37447,2.3642 9.3023,-1.71055 11.92877,-4.67626 2.6266,-2.96585 1.94709,-10.99113 1.94709,-10.99113 z"
     fill="#00ccff"
     opacity="0.3834"
     stroke="#000000"
     stroke-width="0.294753px"
     id="path60" />
  <path
     d="m 328.01038,273.1481 c -3.0533,-1.40182 -0.1923,-7.56462 -3.56234,-8.28 -7.34078,-1.5582 -10.68284,9.17423 -16.92136,12.7961 -10.72485,6.22626 -37.78757,4.36465 -34.73211,15.05445 3.55368,12.43869 30.31213,0.82927 45.42137,0 6.8714,-0.37715 13.50458,0.29071 20.48371,-2.25814 6.97913,-2.54884 16.38146,-6.74247 21.37438,-12.79611 4.571,-5.5423 12.42411,-15.29614 6.23402,-19.57055 -4.62646,-3.19483 -16.0307,6.77444 -16.0307,6.77444 0,0 -6.75598,4.58793 -10.68703,6.02167 -3.6364,1.32636 -8.09743,3.85601 -11.5777,2.25814 z"
     fill="#2ad4ff"
     opacity="0.71"
     stroke="#000000"
     stroke-width="0.294753px"
     id="path62" />
  <path
     d="m 354.65341,293.47142 c 0,0 10.79443,-6.63516 16.42634,-9.78527 4.18979,-2.34347 7.51262,-5.91247 12.90663,-6.77444 3.87014,-0.61857 8.81753,-0.24054 11.7332,1.50541 3.26,1.95204 4.9195,5.56372 3.52002,8.28 -2.18575,4.24134 -10.22983,7.01318 -16.42634,8.27999 -9.14166,1.86867 -28.15953,-1.50544 -28.15953,-1.50544 z"
     fill="#00aad4"
     opacity="0.2396"
     stroke="#000000"
     stroke-width="0.338317px"
     id="path64" />
  <path
     d="m 100.52014,263.27635 a 4.0152902,5.3482921 0 1 1 -8.030572,0 4.0152902,5.3482921 0 1 1 8.030572,0 z"
     fill="#00ccff"
     opacity="0.2396"
     stroke="#067373"
     stroke-dashoffset="4.4"
     stroke-opacity="0.99465"
     id="path66"
     style="stroke-width:0.308462" />
  <path
     d="m 154.03595,225.45087 a 6.69221,8.6396498 0 1 1 -13.38442,0 6.69221,8.6396498 0 1 1 13.38442,0 z"
     fill="#00aad4"
     opacity="0.2396"
     stroke="#067373"
     stroke-dashoffset="4.4"
     stroke-opacity="0.99465"
     id="path68"
     style="stroke-width:0.308462" />
  <path
     d="m 187.29289,209.92086 c 19.40549,-10.32073 47.29057,2.68476 68.57614,-4.51639 19.19772,-6.49452 36.2903,-18.76846 48.0921,-33.11891 8.94803,-10.88029 15.18876,-24.38528 15.14003,-37.63609 -0.0478,-13.01318 -0.34726,-33.27337 -15.14003,-36.88279 -5.47897,-1.33684 -8.12532,10.94669 -13.35902,9.0325 -3.99036,-1.45935 -1.73436,-7.36301 -1.03309,-10.989773 0.46852,-2.422948 1.96611,-4.648895 3.42,-6.774444 1.56181,-2.283422 2.50867,-6.381256 5.6287,-6.322725 19.42791,0.363842 24.34421,25.921462 32.9527,40.646662 8.85728,15.152 17.16311,31.32503 18.70237,48.17443 1.69082,18.5067 0.43543,38.94222 -10.68703,54.94888 -7.49018,10.77841 -22.1743,16.7326 -34.7321,23.33416 -10.03619,5.2754 -20.31731,11.67426 -32.0614,12.79612 -12.38244,1.18284 -24.17366,-5.31253 -36.51474,-6.77446 -9.42605,-1.11661 -20.02779,-5.14748 -28.49906,-1.50541 -30.70008,13.19932 -84.83768,32.05396 -65.90543,21.82889 15.04001,-8.12338 19.86462,-52.64827 45.4214,-66.23781 z"
     fill="#55ddff"
     opacity="0.68"
     stroke="#000000"
     stroke-width="0.294753px"
     id="path74" />
  <path
     d="m 217.49473,270.82582 c 3.2988,-0.4049 6.62966,0.1825 9.83773,0.7995 3.50879,0.79401 7.07242,1.32025 10.6883,1.58228 2.99928,0.17546 6.00767,0.16376 9.01247,0.1652 3.39146,0.10985 6.76014,-0.12859 10.13621,-0.35822 3.55817,-0.14705 7.06793,-0.69584 10.52512,-1.39737 2.99928,-0.6972 6.05639,-1.21902 9.0006,-2.0735 2.85253,-1.0318 5.82107,-1.80002 8.69889,-2.77237 2.62093,-1.01833 5.36324,-1.81655 7.86275,-3.04145 1.82951,-0.85515 0.16332,-0.0995 1.94564,-0.84513 0.30465,-0.12746 1.20035,-0.53944 0.90551,-0.39647 -1.22686,0.59488 -4.90058,2.38735 -3.70213,1.75247 1.75863,-0.9316 10.42284,-5.0391 1.60916,-0.84276 1.41625,-0.95179 3.0046,-1.67666 4.47673,-2.56058 1.90648,-1.31674 3.70823,-2.7469 5.31226,-4.32616 1.25042,-1.40448 2.13058,-3.00596 3.76466,-4.12293 3.65499,-2.11333 7.59149,-3.86604 11.49463,-5.62929 -1.06616,0.50594 -2.12013,1.03071 -3.1985,1.5178 -0.39108,0.17665 0.75129,-0.39859 1.13531,-0.58591 1.83491,-0.89501 3.67874,-1.77674 5.52099,-2.66092 0.33273,-0.15966 1.33798,-0.62805 1.00377,-0.47058 -3.91566,1.84511 -4.75278,2.35341 -2.83968,1.25617 1.51683,-0.82499 2.95901,-1.72223 4.3783,-2.66182 0.24339,-0.16784 0.48676,-0.33571 0.73014,-0.50358 l 4.86404,-1.65787 c -0.23995,0.17045 -0.4799,0.34092 -0.71984,0.51139 -1.41759,0.95235 -2.83606,1.87877 -4.36965,2.69452 -2.42166,1.37283 -1.04803,0.61098 -6.10898,3.13278 -0.32796,0.16339 -1.327,0.63084 -1.00135,0.46421 1.12353,-0.57494 2.25973,-1.13204 3.39563,-1.68939 0.38689,-0.18984 -0.76573,0.39122 -1.1486,0.58683 -1.893,0.93745 -3.78614,1.8749 -5.67902,2.81221 -1.43399,0.65417 -1.22542,0.55513 -2.61349,1.20307 -0.39567,0.18469 -1.5721,0.75434 -1.18576,0.55601 6.55943,-3.36744 2.64,-1.31763 1.21696,-0.509 -1.84296,1.02898 -2.59804,2.54605 -3.85315,4.03865 -1.56414,1.61433 -3.37542,3.02655 -5.20997,4.41585 -1.48919,0.87158 -3.04763,1.63495 -4.48026,2.57198 -1.74946,0.87914 -3.49886,1.75825 -5.24845,2.63736 1.21295,-0.5973 4.83838,-2.40805 3.63897,-1.79184 -2.67223,1.37258 -5.31932,2.67904 -8.09134,3.87199 -2.53369,1.1531 -5.24941,1.98589 -7.87588,2.97398 -2.89894,0.94318 -5.84672,1.77597 -8.72712,2.76236 -2.95654,0.80964 -6.00607,1.35106 -9.00765,2.02743 -3.47417,0.67275 -6.99099,1.19292 -10.55814,1.33678 -3.3953,0.23379 -6.7858,0.4464 -10.19585,0.35094 -3.01099,-0.005 -6.02754,-0.003 -9.03106,-0.20253 -3.61203,-0.29571 -7.16252,-0.87217 -10.671,-1.65917 -3.17629,-0.56981 -6.57451,-1.18777 -9.79123,-0.50258 l 4.15324,-2.76018 z"
     fill="#2ad4ff"
     opacity="0.68"
     stroke="#067373"
     stroke-dashoffset="4.4"
     stroke-opacity="0.99465"
     id="path80"
     style="stroke-width:0.294753" />
  <path
     d="m 409.44635,155.2538 c -0.059,1.94811 -0.01,3.88067 0.2452,5.81708 0.3339,2.30924 0.49009,4.63209 0.58112,6.956 -0.003,1.8085 0.19532,3.62975 -0.037,5.43093 -0.26527,1.69177 -1.16626,3.26773 -2.22332,4.70418 -0.9469,1.3522 -2.02099,2.67601 -3.49053,3.65576 -0.81388,0.59859 -1.72183,1.11665 -2.76353,1.38635 l 0.69945,-0.45785 c 0.10565,-0.0292 0.24803,-0.16142 0.31683,-0.0876 0.0648,0.0694 -0.32352,0.2213 -0.23168,0.17897 0.3807,-0.17543 0.83559,-0.51549 1.16486,-0.74487 1.48614,-0.95826 2.55979,-2.2851 3.50656,-3.63327 1.06187,-1.42372 1.96337,-2.99241 2.23836,-4.67356 0.24504,-1.79777 0.0392,-3.61809 0.0481,-5.42389 -0.0883,-2.32222 -0.24138,-4.64347 -0.57768,-6.95084 -0.25706,-1.93735 -0.31131,-3.86984 -0.26196,-5.81898 l 0.78521,-0.33815 z"
     fill="#000080"
     opacity="0.68"
     stroke="#067373"
     stroke-dashoffset="4.4"
     stroke-opacity="0.99465"
     id="path112"
     style="stroke-width:0.294753" />
  <path
     d="m 401.52719,152.23511 c 0.7476,2.10124 1.13994,4.26356 1.40829,6.44059 0.21292,1.90089 0.2579,3.8105 0.27649,5.71845 0.0157,1.47379 0.0876,2.93306 -0.25276,4.38333 -0.21299,1.32528 -1.00859,2.47528 -1.62876,3.6788 -0.68631,1.37887 -1.74785,2.55218 -2.79402,3.74058 -0.93048,0.99373 -1.99415,1.88422 -2.99729,2.8225 -0.69378,0.51546 -1.27967,1.11434 -1.81164,1.74895 l -0.80474,0.29571 c 0.52427,-0.64007 1.10382,-1.24741 1.80625,-1.75669 0.99448,-0.94455 2.07223,-1.82411 3.00399,-2.81735 1.0393,-1.18797 2.11609,-2.34702 2.80015,-3.72433 0.61148,-1.2026 1.42478,-2.34203 1.63655,-3.6647 0.34825,-1.44604 0.28271,-2.89973 0.26422,-4.37114 -0.0163,-1.90676 -0.057,-3.81537 -0.26592,-5.71519 -0.26505,-2.17352 -0.65091,-4.33511 -1.41783,-6.42841 z"
     fill="#000080"
     opacity="0.68"
     stroke="#067373"
     stroke-dashoffset="4.4"
     stroke-opacity="0.99465"
     id="path114"
     style="stroke-width:0.294753" />
</svg>
