<?xml version="1.0" encoding="UTF-8" standalone="no"?>
<!-- Created with Inkscape (http://www.inkscape.org/) -->

<svg
   id="svg5689"
   version="1.1"
   inkscape:version="1.2.2 (732a01da63, 2022-12-09)"
   width="125mm"
   height="88mm"
   xml:space="preserve"
   sodipodi:docname="wolf.svg"
   xmlns:inkscape="http://www.inkscape.org/namespaces/inkscape"
   xmlns:sodipodi="http://sodipodi.sourceforge.net/DTD/sodipodi-0.dtd"
   xmlns="http://www.w3.org/2000/svg"
   xmlns:svg="http://www.w3.org/2000/svg"
   xmlns:rdf="http://www.w3.org/1999/02/22-rdf-syntax-ns#"
   xmlns:cc="http://creativecommons.org/ns#"
   xmlns:dc="http://purl.org/dc/elements/1.1/"><metadata
     id="metadata5695"><rdf:RDF><cc:Work
         rdf:about=""><dc:format>image/svg+xml</dc:format><dc:type
           rdf:resource="http://purl.org/dc/dcmitype/StillImage" /></cc:Work></rdf:RDF></metadata><defs
     id="defs5693"><clipPath
       clipPathUnits="userSpaceOnUse"
       id="clipPath5703"><path
         d="M 0,600 H 600 V 0 H 0 Z"
         id="path5705" /></clipPath><clipPath
       clipPathUnits="userSpaceOnUse"
       id="clipPath6023"><path
         d="M 101.545,478.028 H 390.976 V 409.2 H 101.545 Z"
         id="path6025" /></clipPath></defs><sodipodi:namedview
     pagecolor="#ffffff"
     bordercolor="#666666"
     borderopacity="1"
     objecttolerance="10"
     gridtolerance="10"
     guidetolerance="10"
     inkscape:pageopacity="0"
     inkscape:pageshadow="2"
     inkscape:window-width="1588"
     inkscape:window-height="898"
     id="namedview5691"
     showgrid="false"
     inkscape:zoom="0.75583784"
     inkscape:cx="404.18723"
     inkscape:cy="385.66473"
     inkscape:window-x="0"
     inkscape:window-y="0"
     inkscape:window-maximized="0"
     inkscape:current-layer="g5697"
     inkscape:showpageshadow="0"
     inkscape:pagecheckerboard="0"
     inkscape:deskcolor="#d1d1d1"
     inkscape:document-units="mm" /><g
     id="g5697"
     inkscape:groupmode="layer"
     inkscape:label="wolf-publicdomainvectors.org"
     transform="matrix(1.25,0,0,-1.25,0,750)"><path
       d="m 87.644096,476.19896 0.267262,5.73152 C 75.895856,480.32424 67.441195,474.13067 65.194729,449.5678 63.932214,435.76922 55.334611,423.85411 46.419884,423.54496 c -3.106758,-0.10371 -10.622679,1.32834 -13.150369,16.94989 -1.007885,6.23146 0.41419,14.18551 3.834748,21.9554 -3.843391,-2.25777 -7.285889,-4.95898 -10.270318,-8.00657 l -1.290439,3.63862 -5.414388,-12.83058 -3.854694,2.25444 -1.571662,-17.92187 -3.558179,3.16793 c -0.314465,-5.70758 0.973978,-13.80324 5.37051,-22.38289 l 0.04056,0.17485 c 1.675375,-3.95242 4.132593,-7.27658 7.253313,-9.62211 10.061561,-7.56512 21.132338,-9.50044 31.17063,-5.45162 10.06821,4.0608 17.477091,13.76667 19.336625,25.32876 1.102291,6.86239 1.434042,14.79184 1.753161,22.45934 0.595025,14.25731 1.108275,26.57066 6.206868,31.13141 1.493877,1.33697 3.302219,1.9413 5.367851,1.809 m 244.368179,67.87532 c -0.82306,3.00305 -10.01636,2.40536 -13.61841,2.53368 l 9.92327,-7.64823 c 0,0 3.49236,-0.42815 3.69514,5.11455 m -24.81085,30.90071 8.69599,-9.54765 c 0,0 -1.06306,14.68879 -5.21096,19.30605 -1.75382,-1.25188 -11.40784,-16.22655 -11.40186,-25.85464 0.82439,1.33233 1.93333,2.45656 3.22443,3.38599 1.26917,1.73056 2.31827,3.91586 1.80835,6.04797 1.74584,-0.38826 5.53008,-3.09013 5.53008,-3.09013 0,0 -1.48192,7.81177 -2.64603,9.75241 m 58.5444,-52.31626 c -1.20468,-2.9226 -3.34742,-6.23612 -5.61649,-7.2952 -0.50529,-0.22737 -2.57955,0.0838 -3.95243,0.2892 -2.16668,0.32444 -4.61991,0.69276 -6.91558,0.46073 -1.39814,-0.14028 -2.38541,-0.54516 -3.017,-1.23925 l -0.48533,-0.55646 0.0838,-0.70339 c 0.11169,-0.93609 0.60633,-1.30507 4.44706,-3.91187 0.61696,-0.41885 1.39747,-0.94805 2.05233,-1.40945 -1.6428,-0.81707 -4.06877,-1.25586 -5.6278,-1.36157 -1.54041,0.15756 -16.58422,1.692 -19.56333,2.11217 l -0.23136,0.0326 -0.0818,0.16022 c -0.0738,-0.0399 -0.14958,-0.0771 -0.22338,-0.11701 l -0.41885,0.0592 -0.29651,-0.4348 c -3.19119,-1.64945 -6.56388,-2.92659 -10.04162,-3.42388 -1.90474,-0.27724 -3.83142,-0.30848 -5.71422,-0.0505 -1.88281,0.25928 -3.71641,0.82506 -5.40575,1.70064 -3.38998,1.73588 -6.13973,4.73825 -7.75127,8.29843 -0.80777,1.77776 -1.34496,3.69181 -1.54241,5.64176 -0.19879,1.94796 -0.0525,3.93913 0.53319,5.796 l 0.23135,0.73065 -0.6881,0.22405 c -2.15605,0.70206 -4.21104,1.7618 -5.83655,3.32482 -0.8091,0.77985 -1.50319,1.68003 -2.04503,2.67196 -0.54383,0.99126 -0.9354,2.07095 -1.17741,3.19053 -0.48466,2.2438 -0.3876,4.61592 0.0931,6.89497 0.24134,1.14218 0.57907,2.26707 1.01454,3.3554 0.43946,1.08567 0.964,2.14741 1.65942,3.09878 -0.74594,-0.91414 -1.331,-1.95261 -1.83028,-3.02498 -0.49863,-1.0737 -0.90152,-2.19328 -1.20867,-3.34211 -0.61031,-2.29234 -0.84965,-4.72496 -0.46472,-7.12101 0.19282,-1.1947 0.54717,-2.37345 1.0797,-3.4784 0.53053,-1.10562 1.23592,-2.13145 2.07694,-3.03296 1.51846,-1.62485 3.43319,-2.81091 5.45028,-3.66921 -0.59302,-1.85687 -0.80511,-3.81879 -0.71204,-5.75146 0.10371,-2.172 0.58306,-4.31808 1.37753,-6.34781 0.79316,-2.02973 1.91671,-3.94046 3.32482,-5.63711 1.40945,-1.69399 3.12338,-3.15861 5.04807,-4.28816 1.92402,-1.13221 4.05747,-1.9187 6.24809,-2.33954 2.19328,-0.4235 4.43841,-0.50195 6.63635,-0.30184 0.89951,0.0804 1.78707,0.21541 2.66664,0.37763 -2.22652,-1.78574 -4.44108,-3.46577 -5.71423,-4.40451 l -0.5312,-0.39225 -0.0864,-0.6542 c -0.008,-0.0678 -0.93209,-6.43823 -8.29178,-11.09737 -0.27125,0.0598 -0.8696,0.19546 -1.74319,0.39225 -0.5538,0.16355 -1.22329,0.31181 -2.00845,0.57043 -0.39358,0.12831 -0.81176,0.26527 -1.25188,0.40954 -0.43281,0.16487 -0.89021,0.3384 -1.36557,0.51989 -0.94273,0.38494 -1.95327,0.83769 -2.99772,1.37089 -0.52256,0.26659 -1.04445,0.57042 -1.58762,0.86561 -0.52389,0.32444 -1.07237,0.6409 -1.61022,0.99658 -1.07171,0.71071 -2.16137,1.4859 -3.20914,2.35417 -1.0531,0.86029 -2.08625,1.78906 -3.06155,2.78166 -0.98861,0.97996 -1.91206,2.02906 -2.78698,3.09346 -0.88223,1.0604 -1.67471,2.16602 -2.42331,3.25102 -1.48257,2.18265 -2.68259,4.35332 -3.59607,6.2707 -0.91548,1.9187 -1.54108,3.58344 -1.93732,4.76418 -0.19546,0.59037 -0.34106,1.05841 -0.42749,1.38085 -0.0911,0.32112 -0.13895,0.49264 -0.13895,0.49264 0,0 0.0326,-0.17485 0.0931,-0.50327 0.0578,-0.33042 0.16155,-0.80977 0.30316,-1.41942 0.28787,-1.21598 0.76456,-2.9452 1.51183,-4.96629 0.74594,-2.01976 1.76114,-4.33204 3.07484,-6.70483 0.66484,-1.17941 1.37753,-2.3914 2.18863,-3.57014 0.80312,-1.18207 1.66474,-2.35883 2.60414,-3.47774 0.92545,-1.13088 1.9227,-2.20724 2.95518,-3.21978 1.02717,-1.02118 2.11151,-1.95327 3.19319,-2.82088 0.54117,-0.43413 1.0983,-0.82904 1.63415,-1.23127 0.5558,-0.37097 1.09232,-0.75126 1.6315,-1.09231 1.08102,-0.68212 2.13677,-1.27648 3.13269,-1.79173 0.50261,-0.24598 0.98528,-0.482 1.44468,-0.70671 0.47003,-0.20211 0.9148,-0.39491 1.33365,-0.57508 0.83636,-0.363 1.62817,-0.62228 2.25245,-0.86229 0.35103,-0.11435 0.6522,-0.21075 0.91015,-0.29385 -0.25396,-9.44793 -9.52039,-30.38214 -19.28477,-38.18328 -0.16222,0.29053 -0.34638,0.98462 -0.44211,1.85156 -0.1077,0.87492 -0.15025,1.9453 -0.16421,3.1287 -0.0233,2.37278 0.0851,5.21693 0.14958,8.27715 0.0671,3.06155 0.0878,6.34582 -0.0652,9.63075 -0.15757,3.28227 -0.48732,6.56588 -1.06107,9.59884 -0.56511,3.03363 -1.37221,5.80797 -2.27838,8.09499 -0.90018,2.29167 -1.89809,4.08539 -2.65201,5.29472 -0.38428,0.60234 -0.69276,1.06838 -0.9188,1.37487 -0.22205,0.31048 -0.33973,0.47602 -0.33973,0.47602 0,0 0.10504,-0.17419 0.3005,-0.50128 0.20145,-0.32378 0.47137,-0.81309 0.80379,-1.43737 0.65153,-1.25919 1.49321,-3.10609 2.19527,-5.42037 0.70937,-2.31096 1.27914,-5.07732 1.5936,-8.07239 0.32244,-2.9944 0.38893,-6.21218 0.28588,-9.42399 -0.10505,-3.21446 -0.38095,-6.42426 -0.6881,-9.44193 -0.30516,-3.02033 -0.6409,-5.8472 -0.81708,-8.34298 -0.0838,-1.25254 -0.13563,-2.41932 -0.0918,-3.51829 0.0479,-1.0963 0.15491,-2.12147 0.55447,-3.14465 0.16023,-0.42017 0.40688,-0.85032 0.726,-1.2306 l 0.33707,-0.64555 c 2.07693,-3.987 0.66483,-6.56987 -1.29044,-10.14201 -2.43727,-4.4557 -5.4709,-9.99907 -1.76579,-19.65508 3.8394,-10.00705 2.73246,-13.21951 1.75648,-16.05303 -0.61231,-1.77975 -1.24589,-3.62001 -0.53785,-6.51801 0.42417,-1.73521 0.40023,-4.98025 0.37763,-8.41477 -0.0658,-9.47983 -0.1569,-22.462 8.56835,-24.85473 2.81423,-0.77054 5.19632,-1.09232 7.1117,-1.34761 5.18702,-0.69608 7.43681,-0.99792 10.43187,-9.02576 l -1.89676,-2.06297 c -2.77767,0.19546 -13.11048,1.0378 -24.22248,3.3933 0.23735,6.27136 -5.49017,9.6015 -9.75507,12.08132 -2.11815,1.2306 -4.51753,2.62675 -4.7961,3.7204 -0.0272,0.1077 -0.099,0.38959 0.24134,0.94871 2.62542,4.32141 2.09023,12.25019 0.39491,18.19113 -0.8111,2.84415 -2.21389,6.45485 -4.28817,7.50594 -1.28977,0.65353 -1.7239,4.11997 -2.22585,8.13422 -0.3743,2.98709 -0.83968,6.70283 -1.81034,10.67786 -1.19204,4.88518 -5.64641,13.42295 -13.23945,25.37596 l -0.17419,-0.11036 -15.56504,20.19692 10.82346,-19.97952 c -31.64466,-6.04399 -51.18007,-1.28778 -77.76203,18.82138 0.0764,0.29917 0.18948,0.74129 0.33242,1.30706 0.13695,0.56776 0.33241,1.21199 0.48599,2.05898 0.16022,0.82639 0.36765,1.75915 0.53851,2.76969 0.13762,1.00855 0.3251,2.09489 0.45076,3.2497 0.0545,0.57907 0.10969,1.1721 0.1662,1.78042 0.0279,0.30316 0.0552,0.61031 0.0831,0.91879 0.0146,0.31048 0.0293,0.62428 0.0439,0.94074 0.0279,0.63026 0.0565,1.27049 0.0864,1.92003 0,0.64955 6.6e-4,1.30573 6.6e-4,1.96857 0,0.32976 -6.6e-4,0.66151 -6.6e-4,0.99392 -0.014,0.33375 -0.0293,0.66617 -0.0445,0.99991 -0.0319,0.66749 -0.0539,1.33698 -0.0964,2.00513 -0.11967,1.33499 -0.21275,2.66797 -0.40289,3.96971 -0.14493,1.30507 -0.38626,2.57623 -0.58771,3.80616 -0.25729,1.22196 -0.47336,2.40669 -0.76123,3.51231 -0.2553,1.1116 -0.55181,2.14807 -0.82306,3.10343 -0.27391,0.9547 -0.56511,1.81832 -0.80844,2.58553 -0.26992,0.75858 -0.5066,1.41942 -0.70073,1.96392 -0.42017,1.07503 -0.66084,1.68933 -0.66084,1.68933 0,0 0.1795,-0.63358 0.49264,-1.74319 0.13895,-0.55845 0.30715,-1.23658 0.50195,-2.01444 0.1662,-0.7845 0.36898,-1.66407 0.54715,-2.6314 0.17352,-0.96932 0.36499,-2.01643 0.50727,-3.13335 0.17751,-1.11027 0.27391,-2.29433 0.40688,-3.50965 0.0778,-1.22262 0.19213,-2.47982 0.20742,-3.76294 0.0605,-1.2798 0.0219,-2.58221 0.0126,-3.8773 -0.0226,-0.64888 -0.0658,-1.29642 -0.0971,-1.93998 l -0.0525,-0.96334 c -0.0306,-0.31912 -0.0625,-0.63757 -0.0931,-0.9547 -0.0625,-0.63292 -0.12499,-1.25986 -0.18615,-1.88014 -0.0891,-0.61564 -0.17685,-1.22462 -0.26327,-1.82297 -0.0432,-0.29785 -0.0864,-0.59436 -0.12898,-0.88755 -0.0545,-0.29053 -0.11036,-0.57907 -0.16488,-0.86428 -0.11036,-0.5691 -0.21873,-1.12623 -0.32377,-1.66674 -0.22472,-1.07968 -0.50461,-2.08624 -0.72467,-3.01833 -0.25064,-0.91946 -0.52123,-1.73455 -0.73597,-2.46852 -0.18216,-0.66151 -0.42815,-1.28047 -0.61098,-1.79505 l -0.14161,0.10904 -0.69608,-2.06431 c -5.78071,-17.12539 -19.66306,-32.34671 -42.44152,-46.53954 l -0.36765,-0.22937 -0.19612,-0.38759 c -10.59077,-20.92957 -5.39378,-34.7461 3.00105,-40.69767 3.97901,-2.82088 8.1362,-4.97892 11.80342,-6.883 5.04274,-2.61877 9.39739,-4.8812 9.74177,-7.16822 0.16156,-1.07636 -0.59967,-2.45123 -2.26242,-4.08805 l -0.0386,-0.0379 c -0.0193,-0.0213 -1.95128,-1.93466 -2.85346,-1.13088 l -1.25387,1.09099 -1.01586,-1.31703 c -0.18748,-0.244 -1.91738,-2.34221 -4.92308,-1.13953 l -0.29319,0.11768 -0.3158,-0.006 c -0.10371,-0.003 -9.70388,-0.19214 -16.72915,0.50194 1.54108,7.04655 -2.41401,9.35618 -5.63911,11.23832 -3.472406,2.0284 -6.471461,3.77957 -5.152435,10.98169 2.968465,16.2046 -7.260626,29.44871 -12.117886,33.85522 0.587711,0.67813 1.897429,1.79837 3.08083,2.81157 5.27145,4.51088 14.094421,12.06204 16.452581,24.03499 1.82098,9.24316 -2.69257,17.31554 -7.471371,25.86328 -4.775486,8.53777 -9.712525,17.36607 -8.549735,28.02532 0.858298,7.86695 5.86581,23.7418 19.191686,33.34662 11.31477,8.15549 26.20301,10.31087 44.24787,6.40898 8.3217,-1.80037 18.02558,-2.52038 28.0898,-2.51971 28.06654,6.6e-4 58.88879,5.60187 70.02073,8.98453 10.41925,2.88138 16.23785,9.87208 22.97526,17.96707 4.70634,5.6544 9.57291,11.50159 16.72384,16.91199 l 0.35635,0.27059 0.15955,0.41951 c 5.16309,13.69486 15.8815,23.29104 20.42629,25.75956 6.00676,-6.80388 7.31913,-22.90478 7.33176,-23.07298 l 0.11436,-1.47526 1.47792,0.0432 c 0.10504,0.002 0.20875,0.003 0.31313,0.003 0.87027,0 1.74519,-0.1097 2.61611,-0.30117 l 3.91919,-1.43537 c 7.91415,-4.02888 14.77189,-14.11105 15.55041,-19.77276 l 0.01,-0.0671 c 0.88489,-4.8413 8.46929,-8.28247 17.67787,-11.90846 -0.24199,-2.77434 1.5238,-5.95955 5.39245,-7.67282 M 283.078,443.76382 c 0.004,0 0.009,-0.007 0.0133,-0.007 -0.0359,-0.0272 -0.0698,-0.0512 -0.10505,-0.0791 v 0.13097 c 0.0146,0 -0.0199,0.009 0.0917,-0.0452"
       style="fill:#7a7c7d;fill-opacity:1;fill-rule:nonzero;stroke:none;stroke-width:0.664832"
       id="path6015"
       inkscape:connector-curvature="0" /><path
       d="m 310.68646,584.73339 c 4.14789,-4.61726 5.21095,-19.30605 5.21095,-19.30605 l -8.69599,9.54765 c 1.16412,-1.94064 2.64603,-9.75241 2.64603,-9.75241 0,0 -3.78423,2.70187 -5.53007,3.09013 0.50992,-2.13211 -0.53918,-4.31741 -1.80835,-6.04664 -1.2911,-0.9301 -2.40004,-2.05499 -3.22443,-3.38732 -0.006,9.62809 9.64804,24.60276 11.40186,25.85464 m 21.32581,-40.65977 c -0.20278,-5.5427 -3.69514,-5.11389 -3.69514,-5.11389 l -9.92327,7.64756 c 3.60139,-0.12698 12.79535,0.46937 13.61841,-2.53367 m 28.11706,-28.71076 c -0.50528,-0.2267 -2.57955,0.0844 -3.95243,0.28987 -2.16668,0.32444 -4.61991,0.69209 -6.91558,0.46139 -1.39814,-0.14028 -2.38541,-0.54649 -3.017,-1.23991 l -0.48533,-0.55646 0.0838,-0.70339 c 0.11169,-0.93675 0.60633,-1.30573 4.44706,-3.91254 0.61696,-0.41884 1.39747,-0.94805 2.05233,-1.40745 -1.6428,-0.8184 -4.06877,-1.25719 -5.62647,-1.3629 -1.54108,0.15756 -16.58555,1.692 -19.56466,2.11217 l -0.23136,0.0326 -0.0818,0.16022 c -0.0738,-0.0399 -0.14958,-0.0771 -0.22338,-0.11701 l -0.41885,0.0592 -0.29717,-0.4348 c -3.19053,-1.64945 -6.56322,-2.92659 -10.04096,-3.42388 -1.90474,-0.27724 -3.83142,-0.30915 -5.71422,-0.0505 -1.88214,0.25928 -3.71641,0.82506 -5.40575,1.70064 -3.38998,1.73588 -6.13972,4.73825 -7.75127,8.29776 -0.80777,1.77843 -1.34496,3.69248 -1.54241,5.64309 -0.19879,1.9473 -0.0525,3.93847 0.53319,5.79534 l 0.23136,0.73065 -0.6881,0.22405 c -2.15605,0.70206 -4.21104,1.7618 -5.83655,3.32482 -0.8091,0.77985 -1.50319,1.68003 -2.04503,2.6713 -0.54383,0.99126 -0.93541,2.07161 -1.17741,3.19052 -0.48466,2.24381 -0.3876,4.61593 0.0931,6.8963 0.24134,1.14152 0.57907,2.26641 1.01454,3.35474 0.43945,1.08634 0.964,2.14674 1.65942,3.09878 -0.74594,-0.91414 -1.331,-1.95327 -1.83028,-3.02432 -0.49863,-1.07436 -0.90152,-2.19394 -1.20867,-3.34277 -0.61031,-2.29234 -0.84965,-4.72496 -0.46472,-7.12101 0.19281,-1.1947 0.54716,-2.37412 1.07969,-3.4784 0.53054,-1.10628 1.23592,-2.13212 2.07694,-3.03363 1.51847,-1.62352 3.43319,-2.80958 5.45028,-3.66854 -0.59302,-1.85687 -0.80511,-3.81813 -0.71203,-5.75146 0.10371,-2.172 0.58306,-4.31808 1.37753,-6.34714 0.79315,-2.0304 1.91671,-3.94113 3.32482,-5.63778 1.40945,-1.69399 3.12338,-3.15861 5.04807,-4.28883 1.92402,-1.1322 4.05747,-1.91803 6.24809,-2.33954 2.19328,-0.42283 4.43841,-0.50128 6.63635,-0.30183 0.89951,0.0811 1.78707,0.21607 2.66664,0.37829 -2.22652,-1.78574 -4.44108,-3.46577 -5.71423,-4.40451 l -0.5312,-0.39292 -0.0864,-0.65419 c -0.008,-0.0671 -0.93209,-6.43757 -8.29178,-11.09737 -0.27125,0.0612 -0.8696,0.19612 -1.74319,0.39291 -0.5538,0.16355 -1.22329,0.31181 -2.00845,0.56977 -0.39358,0.12897 -0.81176,0.26593 -1.25188,0.40953 -0.43281,0.16554 -0.89021,0.33907 -1.36557,0.5199 -0.94273,0.38494 -1.95327,0.83769 -2.99772,1.37155 -0.52389,0.26659 -1.04445,0.57042 -1.58762,0.86494 -0.52389,0.32511 -1.07237,0.6409 -1.60956,0.99725 -1.07237,0.71071 -2.16203,1.4859 -3.2098,2.35417 -1.0531,0.86029 -2.08625,1.78973 -3.06155,2.78166 -0.98861,0.98062 -1.91206,2.02906 -2.78698,3.09346 -0.88223,1.05974 -1.67471,2.16602 -2.42331,3.25036 -1.48257,2.18331 -2.68259,4.35332 -3.59607,6.27136 -0.91548,1.9187 -1.54108,3.58344 -1.93732,4.76351 -0.19546,0.59104 -0.34106,1.05908 -0.42815,1.38086 -0.0904,0.32244 -0.13895,0.4933 -0.13895,0.4933 0,0 0.0332,-0.17485 0.0937,-0.50394 0.0578,-0.32975 0.16155,-0.8091 0.30316,-1.41875 0.28787,-1.21598 0.76456,-2.94587 1.51183,-4.96563 0.74594,-2.02108 1.76114,-4.3327 3.07484,-6.70482 0.66484,-1.18008 1.37753,-2.39207 2.18863,-3.57015 0.80312,-1.18273 1.66474,-2.35949 2.60414,-3.4784 0.92545,-1.13088 1.9227,-2.20724 2.95518,-3.22044 1.02717,-1.02052 2.11151,-1.95261 3.19319,-2.82022 0.54117,-0.43347 1.0983,-0.82838 1.63415,-1.22994 0.5558,-0.3723 1.09232,-0.75259 1.6315,-1.09364 1.08102,-0.68212 2.13677,-1.27648 3.13269,-1.79173 0.50261,-0.24598 0.98528,-0.482 1.44468,-0.70605 0.47003,-0.20277 0.9148,-0.39557 1.33365,-0.57574 0.83702,-0.363 1.62817,-0.62228 2.25245,-0.86295 0.35103,-0.11302 0.6522,-0.21009 0.91015,-0.29319 -0.25396,-9.44793 -9.52039,-30.38214 -19.28477,-38.18328 -0.16222,0.29053 -0.34638,0.98462 -0.44211,1.85156 -0.1077,0.87492 -0.15025,1.9453 -0.16421,3.1287 -0.0233,2.37278 0.0851,5.21693 0.14958,8.27715 0.0671,3.06155 0.0878,6.34582 -0.0652,9.63075 -0.15757,3.2836 -0.48732,6.56588 -1.06174,9.59884 -0.56444,3.03363 -1.37154,5.80797 -2.27771,8.09499 -0.90018,2.29234 -1.89809,4.08472 -2.65201,5.29472 -0.38428,0.60234 -0.69276,1.06838 -0.9188,1.37487 -0.22205,0.31048 -0.33973,0.47602 -0.33973,0.47602 0,0 0.10504,-0.17485 0.3005,-0.50128 0.20145,-0.32378 0.47137,-0.81309 0.80379,-1.43803 0.65153,-1.25853 1.49321,-3.10543 2.19527,-5.42038 0.70937,-2.31029 1.27914,-5.07665 1.5936,-8.07105 0.32244,-2.99507 0.38959,-6.21219 0.28588,-9.42466 -0.10505,-3.21446 -0.38095,-6.42426 -0.6881,-9.44193 -0.30516,-3.02033 -0.6409,-5.8472 -0.81708,-8.34298 -0.0838,-1.25254 -0.13563,-2.41932 -0.0918,-3.51829 0.0479,-1.0963 0.15491,-2.12147 0.55447,-3.14465 0.16023,-0.42017 0.40688,-0.85032 0.726,-1.2306 l 0.33707,-0.64555 c 2.07627,-3.987 0.66549,-6.56987 -1.29044,-10.14201 -2.43727,-4.4557 -5.4709,-9.99907 -1.76579,-19.65508 3.83873,-10.00705 2.73246,-13.21951 1.75648,-16.05303 -0.61164,-1.77975 -1.24589,-3.62001 -0.53785,-6.51801 0.42417,-1.73521 0.40023,-4.98025 0.37696,-8.41477 -0.0651,-9.47983 -0.15623,-22.462 8.56902,-24.85473 2.81423,-0.77054 5.19632,-1.09232 7.1117,-1.34761 5.18702,-0.69608 7.43681,-0.99792 10.43254,-9.02576 l -1.89743,-2.06297 c -2.77767,0.19546 -13.11181,1.0378 -24.22248,3.3933 0.23735,6.27136 -5.49017,9.6015 -9.75507,12.08132 -2.11749,1.2306 -4.51753,2.62675 -4.7961,3.7204 -0.0266,0.1077 -0.099,0.38959 0.24134,0.94871 2.62542,4.32141 2.09023,12.25019 0.39491,18.19113 -0.8111,2.84415 -2.21389,6.45485 -4.28817,7.50594 -1.28977,0.65353 -1.7239,4.11997 -2.22585,8.13422 -0.3743,2.98709 -0.83968,6.70283 -1.81034,10.67786 -1.19204,4.88518 -5.64641,13.42295 -13.23945,25.37596 l -0.17419,-0.11036 -15.56504,20.19692 10.82346,-19.97952 c -31.64532,-6.04399 -51.18007,-1.28778 -77.76203,18.82138 0.0764,0.29917 0.18948,0.74129 0.33242,1.30706 0.13695,0.56776 0.33175,1.21066 0.48599,2.05898 0.16022,0.82639 0.36898,1.75915 0.53785,2.76903 0.13828,1.00921 0.32576,2.09555 0.45142,3.25036 0.0538,0.57907 0.10969,1.1721 0.16687,1.78042 0.0279,0.30316 0.0552,0.61031 0.0824,0.91879 0.0146,0.31048 0.0293,0.62428 0.0432,0.94074 0.0286,0.63026 0.0578,1.27182 0.0864,1.9207 6.7e-4,0.64888 0.001,1.30506 0.001,1.96724 0,0.33042 0,0.66283 -6.6e-4,0.99458 -0.014,0.33308 -0.0293,0.6655 -0.0439,0.99991 -0.0326,0.66749 -0.0545,1.33698 -0.0971,2.00513 -0.11967,1.33432 -0.21275,2.66797 -0.40289,3.96971 -0.14493,1.30507 -0.38626,2.57556 -0.58771,3.80616 -0.25729,1.22263 -0.47203,2.40669 -0.76123,3.51164 -0.25596,1.1116 -0.55181,2.14941 -0.82373,3.1041 -0.27324,0.9547 -0.56444,1.81832 -0.80777,2.58487 -0.27058,0.75924 -0.50593,1.42074 -0.70006,1.96458 -0.42084,1.07503 -0.66151,1.68933 -0.66151,1.68933 0,0 0.17884,-0.63425 0.49264,-1.74319 0.13895,-0.55845 0.30782,-1.23658 0.50062,-2.01444 0.16687,-0.7845 0.37031,-1.6634 0.54782,-2.6314 0.17418,-0.96932 0.36565,-2.01643 0.50926,-3.13335 0.17551,-1.11027 0.27258,-2.29433 0.40555,-3.50965 0.0778,-1.22262 0.19213,-2.47982 0.20809,-3.76294 0.0598,-1.28047 0.0213,-2.58154 0.012,-3.87797 -0.0226,-0.64821 -0.0658,-1.29575 -0.0971,-1.93931 l -0.0519,-0.96401 c -0.0319,-0.31978 -0.0632,-0.6369 -0.0944,-0.95403 -0.0625,-0.63292 -0.12433,-1.26052 -0.18549,-1.88014 -0.0891,-0.61564 -0.17685,-1.22329 -0.26394,-1.82297 -0.0426,-0.29785 -0.0858,-0.59436 -0.12831,-0.88755 -0.0552,-0.29053 -0.11036,-0.57907 -0.16488,-0.86428 -0.11036,-0.5691 -0.21807,-1.12623 -0.32377,-1.66674 -0.22472,-1.07968 -0.50395,-2.08624 -0.72467,-3.01833 -0.24998,-0.91946 -0.52056,-1.73455 -0.73597,-2.46852 -0.18216,-0.66151 -0.42815,-1.28047 -0.61164,-1.79505 l -0.14095,0.10904 -0.69608,-2.06431 c -5.78004,-17.12539 -19.66306,-32.34671 -42.44085,-46.53954 l -0.36832,-0.22937 -0.19612,-0.38759 c -10.59077,-20.92957 -5.39378,-34.7461 3.00105,-40.69767 3.97901,-2.82088 8.1362,-4.97892 11.80342,-6.883 5.04274,-2.61877 9.39806,-4.8812 9.74177,-7.16822 0.16222,-1.07636 -0.59967,-2.45123 -2.26242,-4.08805 l -0.0386,-0.0379 c -0.0193,-0.0213 -1.95128,-1.93466 -2.85346,-1.13088 l -1.25387,1.09099 -1.01586,-1.31703 c -0.18748,-0.244 -1.91738,-2.34221 -4.92241,-1.13953 l -0.2932,0.11768 -0.31646,-0.006 c -0.10437,-0.003 -9.70388,-0.19214 -16.72915,0.50194 1.54108,7.04655 -2.41401,9.35618 -5.63911,11.23832 -3.472411,2.0284 -6.471466,3.77957 -5.151775,10.98169 2.968475,16.2046 -7.261291,29.44871 -12.118551,33.85522 0.587711,0.67813 1.898094,1.79837 3.081494,2.81157 5.27145,4.51088 14.093762,12.06204 16.451922,24.03499 1.82098,9.24316 -2.69323,17.31554 -7.471376,25.86328 -4.774821,8.53777 -9.71186,17.36674 -8.54907,28.02465 0.857633,7.86695 5.86581,23.74247 19.191026,33.34795 11.31477,8.15483 26.20301,10.31021 44.24787,6.40832 8.3217,-1.80037 18.02492,-2.52038 28.08847,-2.52038 28.0672,10e-4 58.89012,5.60254 70.02206,8.9852 10.41925,2.88138 16.23785,9.87208 22.97526,17.96707 4.70634,5.6544 9.57291,11.50093 16.72384,16.91199 l 0.35635,0.26992 0.15955,0.42018 c 5.16242,13.69486 15.8815,23.29038 20.42629,25.7589 6.00676,-6.80322 7.31913,-22.90412 7.33309,-23.07298 l 0.11303,-1.47394 1.47792,0.0419 c 0.10504,0.003 0.20875,0.005 0.31313,0.005 0.87027,0 1.74519,-0.11036 2.61611,-0.30117 l 3.91919,-1.43603 c 7.91482,-4.02955 14.77189,-14.11039 15.55041,-19.77276 l 0.01,-0.0678 c 0.88489,-4.84064 8.46929,-8.28181 17.67787,-11.90714 -0.24199,-2.775 1.5238,-5.96021 5.39245,-7.67415 -1.20467,-2.92193 -3.34742,-6.23545 -5.61649,-7.2952 m -77.14308,-71.6848 v 0.13097 c 0.0146,0 -0.0199,0.009 0.0917,-0.0452 0.004,0 0.009,-0.007 0.0133,-0.007 -0.0366,-0.0272 -0.0698,-0.0525 -0.10505,-0.0791 M 252.0284,367.71914 c -10.92119,5.89972 -1.68003,21.21411 3.2969,30.12818 0.0898,-0.68079 0.17419,-1.34895 0.25463,-1.99716 0.66284,-5.29139 1.14152,-9.11683 3.90323,-10.51697 0.50328,-0.25596 1.68269,-1.99715 2.70653,-5.58658 1.26584,-4.43775 1.8848,-10.36074 0.64356,-14.1423 -1.0983,-0.4235 -4.6033,-1.23592 -10.80485,2.11483 m -137.71854,30.95124 c 4.39986,-5.36918 9.86211,-24.03433 7.93876,-34.56792 -1.26451,0.76389 -2.52836,1.57299 -3.76494,2.44924 -3.32416,2.35683 -12.84123,11.32075 -4.17382,32.11868 M 87.644096,476.1983 c -2.066297,0.13296 -3.873974,-0.47137 -5.367851,-1.80834 -5.098593,-4.56075 -5.612508,-16.8741 -6.206868,-31.13141 -0.319784,-7.6675 -0.650205,-15.59695 -1.753161,-22.45934 -1.859534,-11.56209 -9.26775,-21.26796 -19.336625,-25.32876 -10.038957,-4.04882 -21.109069,-2.1135 -31.17063,5.45162 -3.121385,2.34553 -5.577938,5.66969 -7.253313,9.62211 l -0.03989,-0.17485 c -4.396532,8.57965 -5.684975,16.67531 -5.37184,22.38289 l 3.558844,-3.16793 1.571662,17.92187 3.854694,-2.25444 5.413724,12.83058 1.291103,-3.63995 c 2.984429,3.04892 6.426927,5.75013 10.270983,8.0079 -3.421223,-7.76989 -4.843963,-15.72394 -3.835413,-21.9554 2.52769,-15.62155 10.044276,-17.0536 13.150369,-16.94989 8.914727,0.30915 17.51233,12.22426 18.77418,26.02284 2.247131,24.56287 10.701128,30.75578 22.717959,32.36201 z m 281.621344,53.26764 c -0.75392,0.97664 -2.7052,1.76911 -7.04788,3.46975 -5.51411,2.15805 -15.76449,6.17031 -16.48184,9.83286 -0.85364,6.05396 -7.39692,16.32827 -15.75252,21.29456 0.95869,4.28418 2.51705,12.24819 1.50917,14.76392 -2.83551,0.4441 -9.3123,-1.88081 -11.46702,-2.69789 -1.3137,5.45361 -3.54621,11.66646 -7.2706,15.1934 L 312.0394,592 l -0.91681,-0.35768 c -3.73901,-1.4593 -16.54832,-11.04285 -22.93403,-27.52403 l -10.71576,-3.50366 3.90788,-2.44193 c -0.18814,-0.18349 -0.37961,-0.36632 -0.5651,-0.55048 l -14.59771,-7.42484 8.69666,1.04645 c -0.91547,-1.06174 -1.79704,-2.10951 -2.65401,-3.13668 l -11.18579,-7.70673 3.97836,-0.57109 c 0,0 -9.05568,-7.35171 -17.76564,-7.15757 1.39017,-0.76523 3.68517,-1.33299 5.51079,-1.69466 -0.94672,-0.37696 -1.92734,-0.71935 -2.96182,-1.00589 -14.45743,-4.39254 -66.05302,-13.0174 -96.5894,-6.4123 -18.94238,4.09802 -34.66033,1.76779 -46.71971,-6.92422 -11.759543,-8.47661 -17.839428,-21.62698 -19.869824,-31.7517 -15.36027,-2.38807 -22.505878,-12.63579 -24.554889,-35.03197 -1.225949,-13.3937 -9.304983,-22.97791 -15.789751,-23.20196 -4.839309,-0.15025 -8.476603,5.05937 -9.977793,14.34241 -1.092318,6.74472 1.013204,15.83629 5.631124,24.31888 l 2.274389,4.1778 -4.300796,-2.03106 c -4.337361,-2.04834 -8.278483,-4.59398 -11.76619,-7.53786 l -2.44525,6.58848 -7.085111,-16.79032 -5.034105,2.94121 -1.459305,-16.64472 -3.2536863,2.89667 -0.485327,-2.73512 C 7.8536668,433.04474 6.656305,421.71069 14.618993,407.32108 l 0.01994,0.0106 c 1.830946,-3.58344 4.294148,-6.62837 7.30384,-8.89079 7.184836,-5.40242 14.873613,-8.15549 22.441392,-8.15549 3.983006,0 7.932771,0.76256 11.756882,2.30564 11.071441,4.46501 19.209642,15.08503 21.240038,27.71483 1.132208,7.04257 1.466619,15.06442 1.790392,22.82301 0.517904,12.41905 1.053758,25.26094 5.174384,28.94677 0.562448,0.50394 1.170769,0.81575 1.864188,0.9527 0.617629,-4.35265 2.040368,-8.4181 3.786216,-12.24886 l 2.56625,-11.76552 1.3044,3.93381 c 0,0 6.371075,-19.20034 3.093462,-21.96006 2.32824,1.5843 3.716403,4.44839 4.476973,6.59979 0.99392,-3.32283 1.36623,-6.66627 0.68876,-10.10611 -2.149392,-10.91587 -10.460453,-18.0289 -15.425415,-22.27784 -2.856782,-2.44592 -4.431103,-3.7922 -4.423125,-5.37251 0.0027,-0.65353 0.289202,-1.25254 0.807771,-1.68667 3.90655,-3.27895 14.424186,-16.08428 11.617932,-31.40466 -1.711941,-9.34753 2.918611,-12.05073 6.640337,-14.2234 3.42255,-1.99849 5.68364,-3.31818 3.75762,-9.42864 l -0.55579,-1.76314 1.8336,-0.24266 c 6.71214,-0.88556 16.75442,-0.76788 18.6605,-0.73664 3.2118,-1.15281 5.80065,0.007 7.28854,1.26518 1.99649,-0.6901 4.29615,0.44477 5.84188,2.07627 2.42996,2.39938 3.45513,4.60462 3.13402,6.74139 -0.10106,0.67414 -0.33774,1.30374 -0.67946,1.90275 h 16.01779 c 8.16546,13.80523 -14.31649,12.49551 -17.65594,17.17194 -3.33878,4.67842 -13.59846,32.26693 0.4348,42.28661 13.87437,9.90333 19.92634,21.28857 24.93983,33.08734 14.55715,-10.19785 27.56193,-15.76848 41.99742,-17.43055 l -7.22074,-2.54299 22.27518,1.82164 -2.15605,-4.01691 13.07791,5.36652 c 3.64261,-4.19376 6.86638,-9.2385 0.42748,-21.94144 -6.67291,-13.16366 9.07495,-22.49457 -4.88917,-41.8425 3.7317,-4.03221 10.40129,-3.22776 7.12168,-11.16918 16.40405,-7.45342 35.00538,-3.4764 37.61418,-1.22794 2.4519,-1.96458 3.80815,-4.11065 3.26166,-7.18882 l -0.25995,-1.46529 1.45199,-0.32178 c 13.71016,-3.0456 26.67438,-3.79686 26.80402,-3.80417 l 0.73331,-0.0412 4.16783,4.53548 -0.31314,0.88091 c -3.63264,10.2138 -6.86904,11.08074 -13.26339,11.93971 -1.91671,0.25463 -4.09071,0.54715 -6.70416,1.26384 -6.42294,1.76181 -6.34316,13.36445 -6.28532,21.83706 0.0273,3.79087 0.0499,7.06517 -0.46538,9.17468 -0.49065,2.01377 -0.0931,3.16925 0.4574,4.7695 1.09166,3.17058 2.45057,7.11503 -1.79371,18.1765 -3.18986,8.31505 -0.75857,12.75679 1.59161,17.05426 1.88214,3.4405 3.82345,6.98804 1.91073,11.78214 3.24239,2.29168 6.42693,5.92631 9.31428,10.1819 l -0.21938,-0.58638 0.9055,-6.02803 4.00029,14.52591 c 0.0179,0.0352 0.0366,0.0685 0.0545,0.10437 l 1.42207,-4.49625 3.20715,15.07373 c 0.121,0.33839 0.24067,0.67546 0.35568,1.00987 l 2.30165,-3.64527 0.34904,16.21192 c 7.49464,4.57138 9.47917,10.79687 9.94588,12.86183 1.83227,1.3649 7.48068,5.63512 10.72174,8.76049 0.83436,0.34505 1.65942,0.70805 2.46918,1.09498 l -0.0897,0.17418 c 5.29406,-0.61962 17.30158,-1.84025 17.88796,-1.89942 l 0.12233,-0.0126 0.12166,0.007 c 0.67747,0.0379 6.69353,0.45674 9.23651,3.37934 l 0.46538,0.55713 -0.0904,0.69142 c -0.119,0.91481 -0.603,1.27449 -4.34999,3.8188 -0.36034,0.24399 -0.77453,0.52521 -1.18872,0.8091 1.59227,-0.007 3.31419,-0.26527 4.87122,-0.49863 2.4539,-0.36632 4.38989,-0.65685 5.72686,-0.0326 3.86002,1.80302 7.08511,7.47802 8.15815,11.90115 0.56311,2.31295 0.44876,4.00029 -0.33574,5.01549"
       style="fill:#110f0d;fill-opacity:1;fill-rule:nonzero;stroke:none;stroke-width:0.664832"
       id="path6017"
       inkscape:connector-curvature="0" /></g></svg>
